<?xml version="1.0" encoding="UTF-8" standalone="no"?><svg xmlns="http://www.w3.org/2000/svg" xmlns:xlink="http://www.w3.org/1999/xlink" contentScriptType="application/ecmascript" contentStyleType="text/css" height="209px" preserveAspectRatio="none" style="width:321px;height:209px;" version="1.1" viewBox="0 0 321 209" width="321px" zoomAndPan="magnify"><defs><filter height="300%" id="fof2eq72c1xq6" width="300%" x="-1" y="-1"><feGaussianBlur result="blurOut" stdDeviation="2.0"/><feColorMatrix in="blurOut" result="blurOut2" type="matrix" values="0 0 0 0 0 0 0 0 0 0 0 0 0 0 0 0 0 0 .4 0"/><feOffset dx="4.0" dy="4.0" in="blurOut2" result="blurOut3"/><feBlend in="SourceGraphic" in2="blurOut3" mode="normal"/></filter></defs><g><!--MD5=[b969295f0ec9b4fa482091c3e26049be]
cluster Gnome::N--><rect fill="#FFFFFF" filter="url(#fof2eq72c1xq6)" height="83" style="stroke: #000000; stroke-width: 1.5;" width="302" x="7" y="7"/><text fill="#000000" font-family="sans-serif" font-size="14" font-weight="bold" lengthAdjust="spacingAndGlyphs" textLength="79" x="118.5" y="21.9951">Gnome::N</text><!--MD5=[7014305771524741221fad0afd94da17]
cluster Gnome::Glib--><rect fill="#FFFFFF" filter="url(#fof2eq72c1xq6)" height="83" style="stroke: #000000; stroke-width: 1.5;" width="114" x="101" y="114"/><text fill="#000000" font-family="sans-serif" font-size="14" font-weight="bold" lengthAdjust="spacingAndGlyphs" textLength="98" x="109" y="128.9951">Gnome::Glib</text><!--MD5=[0b8e281ccd00c72019a31d78e9f95b5d]
class Gnome::N::TopLevelClassSupport--><rect codeLine="9" fill="#FEFECE" filter="url(#fof2eq72c1xq6)" height="32" id="Gnome::N::TopLevelClassSupport" style="stroke: #A80036; stroke-width: 1.5;" width="269" x="23.5" y="42"/><ellipse cx="38.5" cy="58" fill="#80FFFF" rx="11" ry="11" style="stroke: #A80036; stroke-width: 1.0;"/><path d="M41.4688,63.6406 Q40.8906,63.9375 40.25,64.0781 Q39.6094,64.2344 38.9063,64.2344 Q36.4063,64.2344 35.0781,62.5938 Q33.7656,60.9375 33.7656,57.8125 Q33.7656,54.6875 35.0781,53.0313 Q36.4063,51.375 38.9063,51.375 Q39.6094,51.375 40.25,51.5313 Q40.9063,51.6875 41.4688,51.9844 L41.4688,54.7031 Q40.8438,54.125 40.25,53.8594 Q39.6563,53.5781 39.0313,53.5781 Q37.6875,53.5781 37,54.6563 Q36.3125,55.7188 36.3125,57.8125 Q36.3125,59.9063 37,60.9844 Q37.6875,62.0469 39.0313,62.0469 Q39.6563,62.0469 40.25,61.7813 Q40.8438,61.5 41.4688,60.9219 L41.4688,63.6406 Z "/><text fill="#000000" font-family="sans-serif" font-size="12" lengthAdjust="spacingAndGlyphs" textLength="137" x="52.5" y="62.1807">TopLevelClassSupport</text><rect fill="#FFFFFF" height="15.9688" style="stroke: #000000; stroke-width: 1.0; stroke-dasharray: 2.0,2.0;" width="98" x="197.5" y="39"/><text fill="#000000" font-family="sans-serif" font-size="12" font-style="italic" lengthAdjust="spacingAndGlyphs" textLength="88" x="202.5" y="51.1387">Catch all class</text><!--MD5=[983bc8876ad366dfec4d9b129fce9d59]
class Gnome::Glib::SList--><rect fill="#FEFECE" filter="url(#fof2eq72c1xq6)" height="32" id="Gnome::Glib::SList" style="stroke: #A80036; stroke-width: 1.5;" width="61" x="127.5" y="149"/><ellipse cx="142.5" cy="165" fill="#80FFFF" rx="11" ry="11" style="stroke: #A80036; stroke-width: 1.0;"/><path d="M145.4688,170.6406 Q144.8906,170.9375 144.25,171.0781 Q143.6094,171.2344 142.9063,171.2344 Q140.4063,171.2344 139.0781,169.5938 Q137.7656,167.9375 137.7656,164.8125 Q137.7656,161.6875 139.0781,160.0313 Q140.4063,158.375 142.9063,158.375 Q143.6094,158.375 144.25,158.5313 Q144.9063,158.6875 145.4688,158.9844 L145.4688,161.7031 Q144.8438,161.125 144.25,160.8594 Q143.6563,160.5781 143.0313,160.5781 Q141.6875,160.5781 141,161.6563 Q140.3125,162.7188 140.3125,164.8125 Q140.3125,166.9063 141,167.9844 Q141.6875,169.0469 143.0313,169.0469 Q143.6563,169.0469 144.25,168.7813 Q144.8438,168.5 145.4688,167.9219 L145.4688,170.6406 Z "/><text fill="#000000" font-family="sans-serif" font-size="12" lengthAdjust="spacingAndGlyphs" textLength="29" x="156.5" y="169.1807">SList</text><!--MD5=[833e8e650f6e364d55e977ce3a4a4e3d]
reverse link Gnome::N::TopLevelClassSupport to Gnome::Glib::SList--><path codeLine="12" d="M158,94.1 C158,112.76 158,134.73 158,148.98 " fill="none" id="Gnome::N::TopLevelClassSupport-backto-Gnome::Glib::SList" style="stroke: #A80036; stroke-width: 1.0;"/><polygon fill="none" points="151,94.04,158,74.04,165,94.04,151,94.04" style="stroke: #A80036; stroke-width: 1.0;"/><!--MD5=[798a721bf9a9bd631d45aba15bf429f3]
@startuml

skinparam packageStyle rectangle
skinparam stereotypeCBackgroundColor #80ffff
set namespaceSeparator ::
hide members

'Class and interface decorations
class Gnome::N::TopLevelClassSupport < Catch all class >

'Class connections
Gnome::N::TopLevelClassSupport <|- - Gnome::Glib::SList
@enduml

@startuml

skinparam packageStyle rectangle
skinparam stereotypeCBackgroundColor #80ffff
set namespaceSeparator ::
hide members

class Gnome::N::TopLevelClassSupport < Catch all class >

Gnome::N::TopLevelClassSupport <|- - Gnome::Glib::SList
@enduml

PlantUML version 1.2020.19(Mon Oct 12 17:10:01 CEST 2020)
(GPL source distribution)
Java Runtime: OpenJDK Runtime Environment
JVM: OpenJDK 64-Bit Server VM
Default Encoding: UTF-8
Language: en
Country: null
--></g></svg>