<?xml version="1.0" encoding="UTF-8" standalone="no"?><svg xmlns="http://www.w3.org/2000/svg" xmlns:xlink="http://www.w3.org/1999/xlink" contentScriptType="application/ecmascript" contentStyleType="text/css" height="301px" preserveAspectRatio="none" style="width:389px;height:301px;" version="1.1" viewBox="0 0 389 301" width="389px" zoomAndPan="magnify"><defs><filter height="300%" id="frae50beyb77x" width="300%" x="-1" y="-1"><feGaussianBlur result="blurOut" stdDeviation="2.0"/><feColorMatrix in="blurOut" result="blurOut2" type="matrix" values="0 0 0 0 0 0 0 0 0 0 0 0 0 0 0 0 0 0 .4 0"/><feOffset dx="4.0" dy="4.0" in="blurOut2" result="blurOut3"/><feBlend in="SourceGraphic" in2="blurOut3" mode="normal"/></filter></defs><g><!--MD5=[b969295f0ec9b4fa482091c3e26049be]
cluster Gnome::N--><rect fill="#FFFFFF" filter="url(#frae50beyb77x)" height="83" style="stroke: #000000; stroke-width: 1.5;" width="302" x="75" y="7"/><text fill="#000000" font-family="sans-serif" font-size="14" font-weight="bold" lengthAdjust="spacingAndGlyphs" textLength="79" x="186.5" y="21.9951">Gnome::N</text><!--MD5=[2fb3f9b624b0544b9841d5da78ec0508]
cluster Gnome::GObject--><rect fill="#FFFFFF" filter="url(#frae50beyb77x)" height="175" style="stroke: #000000; stroke-width: 1.5;" width="271" x="7" y="114"/><text fill="#000000" font-family="sans-serif" font-size="14" font-weight="bold" lengthAdjust="spacingAndGlyphs" textLength="131" x="77" y="128.9951">Gnome::GObject</text><!--MD5=[0b8e281ccd00c72019a31d78e9f95b5d]
class Gnome::N::TopLevelClassSupport--><rect codeLine="9" fill="#FEFECE" filter="url(#frae50beyb77x)" height="32" id="Gnome::N::TopLevelClassSupport" style="stroke: #A80036; stroke-width: 1.5;" width="269" x="91.5" y="42"/><ellipse cx="106.5" cy="58" fill="#80FFFF" rx="11" ry="11" style="stroke: #A80036; stroke-width: 1.0;"/><path d="M109.4688,63.6406 Q108.8906,63.9375 108.25,64.0781 Q107.6094,64.2344 106.9063,64.2344 Q104.4063,64.2344 103.0781,62.5938 Q101.7656,60.9375 101.7656,57.8125 Q101.7656,54.6875 103.0781,53.0313 Q104.4063,51.375 106.9063,51.375 Q107.6094,51.375 108.25,51.5313 Q108.9063,51.6875 109.4688,51.9844 L109.4688,54.7031 Q108.8438,54.125 108.25,53.8594 Q107.6563,53.5781 107.0313,53.5781 Q105.6875,53.5781 105,54.6563 Q104.3125,55.7188 104.3125,57.8125 Q104.3125,59.9063 105,60.9844 Q105.6875,62.0469 107.0313,62.0469 Q107.6563,62.0469 108.25,61.7813 Q108.8438,61.5 109.4688,60.9219 L109.4688,63.6406 Z "/><text fill="#000000" font-family="sans-serif" font-size="12" lengthAdjust="spacingAndGlyphs" textLength="137" x="120.5" y="62.1807">TopLevelClassSupport</text><rect fill="#FFFFFF" height="15.9688" style="stroke: #000000; stroke-width: 1.0; stroke-dasharray: 2.0,2.0;" width="98" x="265.5" y="39"/><text fill="#000000" font-family="sans-serif" font-size="12" font-style="italic" lengthAdjust="spacingAndGlyphs" textLength="88" x="270.5" y="51.1387">Catch all class</text><!--MD5=[52303d185de782118d4739c052001bf2]
class Gnome::GObject::Signal--><rect codeLine="12" fill="#FEFECE" filter="url(#frae50beyb77x)" height="32" id="Gnome::GObject::Signal" style="stroke: #A80036; stroke-width: 1.5;" width="131" x="23.5" y="149"/><ellipse cx="38.5" cy="165" fill="#80FFFF" rx="11" ry="11" style="stroke: #A80036; stroke-width: 1.0;"/><path d="M39.7031,165.1406 Q40.0625,165.2188 40.3281,165.5 Q40.6094,165.7656 41,166.5469 L43.2344,171 L40.5469,171 L39.0469,167.875 Q38.9844,167.7344 38.875,167.5 Q38.2188,166.1094 37.3281,166.1094 L36.5469,166.1094 L36.5469,171 L34.1094,171 L34.1094,158.6094 L37.6406,158.6094 Q40.0313,158.6094 41.0625,159.4531 Q42.1094,160.2969 42.1094,162.2031 Q42.1094,163.4844 41.4844,164.25 Q40.875,165 39.7031,165.1406 Z M36.5469,160.6719 L36.5469,164.0469 L37.7031,164.0469 Q38.7188,164.0469 39.1406,163.6563 Q39.5781,163.25 39.5781,162.3438 Q39.5781,161.4531 39.1406,161.0625 Q38.7188,160.6719 37.7031,160.6719 L36.5469,160.6719 Z "/><text fill="#000000" font-family="sans-serif" font-size="12" lengthAdjust="spacingAndGlyphs" textLength="38" x="52.5" y="169.1807">Signal</text><rect fill="#FFFFFF" height="15.9688" style="stroke: #000000; stroke-width: 1.0; stroke-dasharray: 2.0,2.0;" width="59" x="98.5" y="146"/><text fill="#000000" font-family="sans-serif" font-size="12" font-style="italic" lengthAdjust="spacingAndGlyphs" textLength="57" x="99.5" y="158.1387">Interface</text><!--MD5=[c2016d28441601ceb0a74f47a4537d14]
class Gnome::GObject::Object--><rect fill="#FEFECE" filter="url(#frae50beyb77x)" height="32" id="Gnome::GObject::Object" style="stroke: #A80036; stroke-width: 1.5;" width="72" x="190" y="149"/><ellipse cx="205" cy="165" fill="#80FFFF" rx="11" ry="11" style="stroke: #A80036; stroke-width: 1.0;"/><path d="M207.9688,170.6406 Q207.3906,170.9375 206.75,171.0781 Q206.1094,171.2344 205.4063,171.2344 Q202.9063,171.2344 201.5781,169.5938 Q200.2656,167.9375 200.2656,164.8125 Q200.2656,161.6875 201.5781,160.0313 Q202.9063,158.375 205.4063,158.375 Q206.1094,158.375 206.75,158.5313 Q207.4063,158.6875 207.9688,158.9844 L207.9688,161.7031 Q207.3438,161.125 206.75,160.8594 Q206.1563,160.5781 205.5313,160.5781 Q204.1875,160.5781 203.5,161.6563 Q202.8125,162.7188 202.8125,164.8125 Q202.8125,166.9063 203.5,167.9844 Q204.1875,169.0469 205.5313,169.0469 Q206.1563,169.0469 206.75,168.7813 Q207.3438,168.5 207.9688,167.9219 L207.9688,170.6406 Z "/><text fill="#000000" font-family="sans-serif" font-size="12" lengthAdjust="spacingAndGlyphs" textLength="40" x="219" y="169.1807">Object</text><!--MD5=[3df6e59ef2cdeb2eff520dec4d3dbe8f]
class Gnome::GObject::InitiallyUnowned--><rect fill="#FEFECE" filter="url(#frae50beyb77x)" height="32" id="Gnome::GObject::InitiallyUnowned" style="stroke: #A80036; stroke-width: 1.5;" width="132" x="130" y="241"/><ellipse cx="145" cy="257" fill="#80FFFF" rx="11" ry="11" style="stroke: #A80036; stroke-width: 1.0;"/><path d="M147.9688,262.6406 Q147.3906,262.9375 146.75,263.0781 Q146.1094,263.2344 145.4063,263.2344 Q142.9063,263.2344 141.5781,261.5938 Q140.2656,259.9375 140.2656,256.8125 Q140.2656,253.6875 141.5781,252.0313 Q142.9063,250.375 145.4063,250.375 Q146.1094,250.375 146.75,250.5313 Q147.4063,250.6875 147.9688,250.9844 L147.9688,253.7031 Q147.3438,253.125 146.75,252.8594 Q146.1563,252.5781 145.5313,252.5781 Q144.1875,252.5781 143.5,253.6563 Q142.8125,254.7188 142.8125,256.8125 Q142.8125,258.9063 143.5,259.9844 Q144.1875,261.0469 145.5313,261.0469 Q146.1563,261.0469 146.75,260.7813 Q147.3438,260.5 147.9688,259.9219 L147.9688,262.6406 Z "/><text fill="#000000" font-family="sans-serif" font-size="12" lengthAdjust="spacingAndGlyphs" textLength="100" x="159" y="261.1807">InitiallyUnowned</text><!--MD5=[e23b679cf607d12ac81e9c5301595709]
reverse link Gnome::N::TopLevelClassSupport to Gnome::GObject::Object--><path codeLine="15" d="M226,94.1 C226,112.76 226,134.73 226,148.98 " fill="none" id="Gnome::N::TopLevelClassSupport-backto-Gnome::GObject::Object" style="stroke: #A80036; stroke-width: 1.0;"/><polygon fill="none" points="219,94.04,226,74.04,233,94.04,219,94.04" style="stroke: #A80036; stroke-width: 1.0;"/><!--MD5=[f8ffcf4587ba956cb48626a4231e4d21]
reverse link Gnome::GObject::Signal to Gnome::GObject::Object--><path codeLine="16" d="M174.77,165 C179.85,165 184.92,165 190,165 " fill="none" id="Gnome::GObject::Signal-backto-Gnome::GObject::Object" style="stroke: #A80036; stroke-width: 1.0; stroke-dasharray: 7.0,7.0;"/><polygon fill="none" points="174.56,172,154.56,165,174.56,158,174.56,172" style="stroke: #A80036; stroke-width: 1.0;"/><!--MD5=[b1e533dd736b7100787d5bfebfd748c6]
reverse link Gnome::GObject::Object to Gnome::GObject::InitiallyUnowned--><path codeLine="18" d="M214.46,200.63 C209.8,214.59 204.68,229.96 201.01,240.96 " fill="none" id="Gnome::GObject::Object-backto-Gnome::GObject::InitiallyUnowned" style="stroke: #A80036; stroke-width: 1.0;"/><polygon fill="none" points="207.95,198.03,220.91,181.27,221.23,202.45,207.95,198.03" style="stroke: #A80036; stroke-width: 1.0;"/><!--MD5=[583c27a918ea30bdbe27ec9bd3608da7]
@startuml

skinparam packageStyle rectangle
skinparam stereotypeCBackgroundColor #80ffff
set namespaceSeparator ::
hide members

'Class and interface decorations
class Gnome::N::TopLevelClassSupport < Catch all class >

Interface Gnome::GObject::Signal <Interface>
class Gnome::GObject::Signal <<(R,#80ffff)>>

'Class connections
Gnome::N::TopLevelClassSupport <|- - Gnome::GObject::Object
Gnome::GObject::Signal <|. Gnome::GObject::Object

Gnome::GObject::Object <|- - Gnome::GObject::InitiallyUnowned


@enduml

@startuml

skinparam packageStyle rectangle
skinparam stereotypeCBackgroundColor #80ffff
set namespaceSeparator ::
hide members

class Gnome::N::TopLevelClassSupport < Catch all class >

Interface Gnome::GObject::Signal <Interface>
class Gnome::GObject::Signal <<(R,#80ffff)>>

Gnome::N::TopLevelClassSupport <|- - Gnome::GObject::Object
Gnome::GObject::Signal <|. Gnome::GObject::Object

Gnome::GObject::Object <|- - Gnome::GObject::InitiallyUnowned


@enduml

PlantUML version 1.2020.19(Mon Oct 12 17:10:01 CEST 2020)
(GPL source distribution)
Java Runtime: OpenJDK Runtime Environment
JVM: OpenJDK 64-Bit Server VM
Default Encoding: UTF-8
Language: en
Country: null
--></g></svg>