<?xml version="1.0" encoding="UTF-8" standalone="no"?><svg xmlns="http://www.w3.org/2000/svg" xmlns:xlink="http://www.w3.org/1999/xlink" contentScriptType="application/ecmascript" contentStyleType="text/css" height="278px" preserveAspectRatio="none" style="width:361px;height:278px;" version="1.1" viewBox="0 0 361 278" width="361px" zoomAndPan="magnify"><defs><filter height="300%" id="fx39cu6gp85f8" width="300%" x="-1" y="-1"><feGaussianBlur result="blurOut" stdDeviation="2.0"/><feColorMatrix in="blurOut" result="blurOut2" type="matrix" values="0 0 0 0 0 0 0 0 0 0 0 0 0 0 0 0 0 0 .4 0"/><feOffset dx="4.0" dy="4.0" in="blurOut2" result="blurOut3"/><feBlend in="SourceGraphic" in2="blurOut3" mode="normal"/></filter></defs><g><!--cluster Gnome::N--><rect fill="#FFFFFF" filter="url(#fx39cu6gp85f8)" height="67" style="stroke: #000000; stroke-width: 1.5;" width="286" x="14" y="16"/><text fill="#000000" font-family="sans-serif" font-size="14" font-weight="bold" lengthAdjust="spacingAndGlyphs" textLength="79" x="117.5" y="30.9951">Gnome::N</text><!--cluster Gnome::GObject--><rect fill="#FFFFFF" filter="url(#fx39cu6gp85f8)" height="159" style="stroke: #000000; stroke-width: 1.5;" width="148" x="202" y="108"/><text fill="#000000" font-family="sans-serif" font-size="14" font-weight="bold" lengthAdjust="spacingAndGlyphs" textLength="131" x="210.5" y="122.9951">Gnome::GObject</text><!--class Gnome::N::TopLevelClassSupport--><rect fill="#FEFECE" filter="url(#fx39cu6gp85f8)" height="32" id="Gnome::N::TopLevelClassSupport" style="stroke: #A80036; stroke-width: 1.5;" width="269" x="22.5" y="43"/><ellipse cx="37.5" cy="59" fill="#80FFFF" rx="11" ry="11" style="stroke: #A80036; stroke-width: 1.0;"/><path d="M40.4688,64.6406 Q39.8906,64.9375 39.25,65.0781 Q38.6094,65.2344 37.9063,65.2344 Q35.4063,65.2344 34.0781,63.5938 Q32.7656,61.9375 32.7656,58.8125 Q32.7656,55.6875 34.0781,54.0313 Q35.4063,52.375 37.9063,52.375 Q38.6094,52.375 39.25,52.5313 Q39.9063,52.6875 40.4688,52.9844 L40.4688,55.7031 Q39.8438,55.125 39.25,54.8594 Q38.6563,54.5781 38.0313,54.5781 Q36.6875,54.5781 36,55.6563 Q35.3125,56.7188 35.3125,58.8125 Q35.3125,60.9063 36,61.9844 Q36.6875,63.0469 38.0313,63.0469 Q38.6563,63.0469 39.25,62.7813 Q39.8438,62.5 40.4688,61.9219 L40.4688,64.6406 Z "/><text fill="#000000" font-family="sans-serif" font-size="12" lengthAdjust="spacingAndGlyphs" textLength="137" x="51.5" y="63.1807">TopLevelClassSupport</text><rect fill="#FFFFFF" height="15.9688" style="stroke: #000000; stroke-width: 1.0; stroke-dasharray: 2.0,2.0;" width="98" x="196.5" y="40"/><text fill="#000000" font-family="sans-serif" font-size="12" font-style="italic" lengthAdjust="spacingAndGlyphs" textLength="88" x="201.5" y="52.1387">Catch all class</text><!--class Gnome::GObject::Signal--><rect fill="#FEFECE" filter="url(#fx39cu6gp85f8)" height="32" id="Gnome::GObject::Signal" style="stroke: #A80036; stroke-width: 1.5;" width="131" x="210.5" y="135"/><ellipse cx="225.5" cy="151" fill="#80FFFF" rx="11" ry="11" style="stroke: #A80036; stroke-width: 1.0;"/><path d="M226.7031,151.1406 Q227.0625,151.2188 227.3281,151.5 Q227.6094,151.7656 228,152.5469 L230.2344,157 L227.5469,157 L226.0469,153.875 Q225.9844,153.7344 225.875,153.5 Q225.2188,152.1094 224.3281,152.1094 L223.5469,152.1094 L223.5469,157 L221.1094,157 L221.1094,144.6094 L224.6406,144.6094 Q227.0313,144.6094 228.0625,145.4531 Q229.1094,146.2969 229.1094,148.2031 Q229.1094,149.4844 228.4844,150.25 Q227.875,151 226.7031,151.1406 Z M223.5469,146.6719 L223.5469,150.0469 L224.7031,150.0469 Q225.7188,150.0469 226.1406,149.6563 Q226.5781,149.25 226.5781,148.3438 Q226.5781,147.4531 226.1406,147.0625 Q225.7188,146.6719 224.7031,146.6719 L223.5469,146.6719 Z "/><text fill="#000000" font-family="sans-serif" font-size="12" lengthAdjust="spacingAndGlyphs" textLength="38" x="239.5" y="155.1807">Signal</text><rect fill="#FFFFFF" height="15.9688" style="stroke: #000000; stroke-width: 1.0; stroke-dasharray: 2.0,2.0;" width="59" x="285.5" y="132"/><text fill="#000000" font-family="sans-serif" font-size="12" font-style="italic" lengthAdjust="spacingAndGlyphs" textLength="57" x="286.5" y="144.1387">Interface</text><!--class Gnome::GObject::Object--><rect fill="#FEFECE" filter="url(#fx39cu6gp85f8)" height="32" id="Gnome::GObject::Object" style="stroke: #A80036; stroke-width: 1.5;" width="72" x="225" y="227"/><ellipse cx="240" cy="243" fill="#80FFFF" rx="11" ry="11" style="stroke: #A80036; stroke-width: 1.0;"/><path d="M242.9688,248.6406 Q242.3906,248.9375 241.75,249.0781 Q241.1094,249.2344 240.4063,249.2344 Q237.9063,249.2344 236.5781,247.5938 Q235.2656,245.9375 235.2656,242.8125 Q235.2656,239.6875 236.5781,238.0313 Q237.9063,236.375 240.4063,236.375 Q241.1094,236.375 241.75,236.5313 Q242.4063,236.6875 242.9688,236.9844 L242.9688,239.7031 Q242.3438,239.125 241.75,238.8594 Q241.1563,238.5781 240.5313,238.5781 Q239.1875,238.5781 238.5,239.6563 Q237.8125,240.7188 237.8125,242.8125 Q237.8125,244.9063 238.5,245.9844 Q239.1875,247.0469 240.5313,247.0469 Q241.1563,247.0469 241.75,246.7813 Q242.3438,246.5 242.9688,245.9219 L242.9688,248.6406 Z "/><text fill="#000000" font-family="sans-serif" font-size="12" lengthAdjust="spacingAndGlyphs" textLength="40" x="254" y="247.1807">Object</text><!--link Gnome::N::TopLevelClassSupport to Gnome::GObject::Object--><path d="M165.0307,94.9292 C170.8388,116.7184 179.9735,144.5531 193,167 C206.4187,190.1229 227.6658,212.4096 242.8377,226.8017 " fill="none" id="Gnome::N::TopLevelClassSupport-Gnome::GObject::Object" style="stroke: #A80036; stroke-width: 1.0;"/><polygon fill="none" points="158.1656,96.323,160.2345,75.2346,171.7681,93.0103,158.1656,96.323" style="stroke: #A80036; stroke-width: 1.0;"/><!--link Gnome::GObject::Signal to Gnome::GObject::Object--><path d="M270.1449,186.911 C267.8934,200.7202 265.4339,215.8053 263.6332,226.8498 " fill="none" id="Gnome::GObject::Signal-Gnome::GObject::Object" style="stroke: #A80036; stroke-width: 1.0; stroke-dasharray: 7.0,7.0;"/><polygon fill="none" points="263.26,185.6381,273.3872,167.0252,277.0775,187.891,263.26,185.6381" style="stroke: #A80036; stroke-width: 1.0;"/><!--
@startuml
skinparam packageStyle rectangle
skinparam stereotypeCBackgroundColor #80ffff
set namespaceSeparator ::
hide members

class Gnome::N::TopLevelClassSupport < Catch all class >

Interface Gnome::GObject::Signal <Interface>
class Gnome::GObject::Signal <<(R,#80ffff)>>

Gnome::N::TopLevelClassSupport <|- - - Gnome::GObject::Object
Gnome::GObject::Signal <|.. Gnome::GObject::Object

@enduml

PlantUML version 1.2019.01(Sat Feb 09 16:32:04 CET 2019)
(LGPL source distribution)
Java Runtime: OpenJDK Runtime Environment
JVM: OpenJDK 64-Bit Server VM
Java Version: 1.8.0_265-b01
Operating System: Linux
OS Version: 5.8.8-100.fc31.x86_64
Default Encoding: UTF-8
Language: en
Country: null
--></g></svg>