<?xml version="1.0" encoding="UTF-8" standalone="no"?><svg xmlns="http://www.w3.org/2000/svg" xmlns:xlink="http://www.w3.org/1999/xlink" contentScriptType="application/ecmascript" contentStyleType="text/css" height="301px" preserveAspectRatio="none" style="width:321px;height:301px;" version="1.1" viewBox="0 0 321 301" width="321px" zoomAndPan="magnify"><defs><filter height="300%" id="fvyg7l5eviu7t" width="300%" x="-1" y="-1"><feGaussianBlur result="blurOut" stdDeviation="2.0"/><feColorMatrix in="blurOut" result="blurOut2" type="matrix" values="0 0 0 0 0 0 0 0 0 0 0 0 0 0 0 0 0 0 .4 0"/><feOffset dx="4.0" dy="4.0" in="blurOut2" result="blurOut3"/><feBlend in="SourceGraphic" in2="blurOut3" mode="normal"/></filter></defs><g><!--MD5=[b969295f0ec9b4fa482091c3e26049be]
cluster Gnome::N--><rect fill="#FFFFFF" filter="url(#fvyg7l5eviu7t)" height="83" style="stroke: #000000; stroke-width: 1.5;" width="302" x="7" y="7"/><text fill="#000000" font-family="sans-serif" font-size="14" font-weight="bold" lengthAdjust="spacingAndGlyphs" textLength="79" x="118.5" y="21.9951">Gnome::N</text><!--MD5=[2fb3f9b624b0544b9841d5da78ec0508]
cluster Gnome::GObject--><rect fill="#FFFFFF" filter="url(#fvyg7l5eviu7t)" height="175" style="stroke: #000000; stroke-width: 1.5;" width="147" x="85" y="114"/><text fill="#000000" font-family="sans-serif" font-size="14" font-weight="bold" lengthAdjust="spacingAndGlyphs" textLength="131" x="93" y="128.9951">Gnome::GObject</text><!--MD5=[0b8e281ccd00c72019a31d78e9f95b5d]
class Gnome::N::TopLevelClassSupport--><rect codeLine="9" fill="#FEFECE" filter="url(#fvyg7l5eviu7t)" height="32" id="Gnome::N::TopLevelClassSupport" style="stroke: #A80036; stroke-width: 1.5;" width="269" x="23.5" y="42"/><ellipse cx="38.5" cy="58" fill="#80FFFF" rx="11" ry="11" style="stroke: #A80036; stroke-width: 1.0;"/><path d="M41.4688,63.6406 Q40.8906,63.9375 40.25,64.0781 Q39.6094,64.2344 38.9063,64.2344 Q36.4063,64.2344 35.0781,62.5938 Q33.7656,60.9375 33.7656,57.8125 Q33.7656,54.6875 35.0781,53.0313 Q36.4063,51.375 38.9063,51.375 Q39.6094,51.375 40.25,51.5313 Q40.9063,51.6875 41.4688,51.9844 L41.4688,54.7031 Q40.8438,54.125 40.25,53.8594 Q39.6563,53.5781 39.0313,53.5781 Q37.6875,53.5781 37,54.6563 Q36.3125,55.7188 36.3125,57.8125 Q36.3125,59.9063 37,60.9844 Q37.6875,62.0469 39.0313,62.0469 Q39.6563,62.0469 40.25,61.7813 Q40.8438,61.5 41.4688,60.9219 L41.4688,63.6406 Z "/><text fill="#000000" font-family="sans-serif" font-size="12" lengthAdjust="spacingAndGlyphs" textLength="137" x="52.5" y="62.1807">TopLevelClassSupport</text><rect fill="#FFFFFF" height="15.9688" style="stroke: #000000; stroke-width: 1.0; stroke-dasharray: 2.0,2.0;" width="98" x="197.5" y="39"/><text fill="#000000" font-family="sans-serif" font-size="12" font-style="italic" lengthAdjust="spacingAndGlyphs" textLength="88" x="202.5" y="51.1387">Catch all class</text><!--MD5=[5b6d8216b8459d3fbbe51177b951c425]
class Gnome::GObject::Boxed--><rect fill="#FEFECE" filter="url(#fvyg7l5eviu7t)" height="32" id="Gnome::GObject::Boxed" style="stroke: #A80036; stroke-width: 1.5;" width="70" x="123" y="149"/><ellipse cx="138" cy="165" fill="#80FFFF" rx="11" ry="11" style="stroke: #A80036; stroke-width: 1.0;"/><path d="M140.9688,170.6406 Q140.3906,170.9375 139.75,171.0781 Q139.1094,171.2344 138.4063,171.2344 Q135.9063,171.2344 134.5781,169.5938 Q133.2656,167.9375 133.2656,164.8125 Q133.2656,161.6875 134.5781,160.0313 Q135.9063,158.375 138.4063,158.375 Q139.1094,158.375 139.75,158.5313 Q140.4063,158.6875 140.9688,158.9844 L140.9688,161.7031 Q140.3438,161.125 139.75,160.8594 Q139.1563,160.5781 138.5313,160.5781 Q137.1875,160.5781 136.5,161.6563 Q135.8125,162.7188 135.8125,164.8125 Q135.8125,166.9063 136.5,167.9844 Q137.1875,169.0469 138.5313,169.0469 Q139.1563,169.0469 139.75,168.7813 Q140.3438,168.5 140.9688,167.9219 L140.9688,170.6406 Z "/><text fill="#000000" font-family="sans-serif" font-size="12" lengthAdjust="spacingAndGlyphs" textLength="38" x="152" y="169.1807">Boxed</text><!--MD5=[01ca2000fb4f7a012a1f597a763a4f58]
class Gnome::GObject::Value--><rect fill="#FEFECE" filter="url(#fvyg7l5eviu7t)" height="32" id="Gnome::GObject::Value" style="stroke: #A80036; stroke-width: 1.5;" width="67" x="124.5" y="241"/><ellipse cx="139.5" cy="257" fill="#80FFFF" rx="11" ry="11" style="stroke: #A80036; stroke-width: 1.0;"/><path d="M142.4688,262.6406 Q141.8906,262.9375 141.25,263.0781 Q140.6094,263.2344 139.9063,263.2344 Q137.4063,263.2344 136.0781,261.5938 Q134.7656,259.9375 134.7656,256.8125 Q134.7656,253.6875 136.0781,252.0313 Q137.4063,250.375 139.9063,250.375 Q140.6094,250.375 141.25,250.5313 Q141.9063,250.6875 142.4688,250.9844 L142.4688,253.7031 Q141.8438,253.125 141.25,252.8594 Q140.6563,252.5781 140.0313,252.5781 Q138.6875,252.5781 138,253.6563 Q137.3125,254.7188 137.3125,256.8125 Q137.3125,258.9063 138,259.9844 Q138.6875,261.0469 140.0313,261.0469 Q140.6563,261.0469 141.25,260.7813 Q141.8438,260.5 142.4688,259.9219 L142.4688,262.6406 Z "/><text fill="#000000" font-family="sans-serif" font-size="12" lengthAdjust="spacingAndGlyphs" textLength="35" x="153.5" y="261.1807">Value</text><!--MD5=[5887e23390041d2e1302c2be66ee4f08]
reverse link Gnome::N::TopLevelClassSupport to Gnome::GObject::Boxed--><path codeLine="12" d="M158,94.1 C158,112.76 158,134.73 158,148.98 " fill="none" id="Gnome::N::TopLevelClassSupport-backto-Gnome::GObject::Boxed" style="stroke: #A80036; stroke-width: 1.0;"/><polygon fill="none" points="151,94.04,158,74.04,165,94.04,151,94.04" style="stroke: #A80036; stroke-width: 1.0;"/><!--MD5=[7e15548bf1ed441f9d0bbd95ca137b83]
reverse link Gnome::GObject::Boxed to Gnome::GObject::Value--><path codeLine="13" d="M158,201.61 C158,215.31 158,230.22 158,240.96 " fill="none" id="Gnome::GObject::Boxed-backto-Gnome::GObject::Value" style="stroke: #A80036; stroke-width: 1.0;"/><polygon fill="none" points="151,201.27,158,181.27,165,201.27,151,201.27" style="stroke: #A80036; stroke-width: 1.0;"/><!--MD5=[58817885635e814f117b42f277bf692f]
@startuml

skinparam packageStyle rectangle
skinparam stereotypeCBackgroundColor #80ffff
set namespaceSeparator ::
hide members

'Class and interface decorations
class Gnome::N::TopLevelClassSupport < Catch all class >

'Class connections
Gnome::N::TopLevelClassSupport <|- - Gnome::GObject::Boxed
Gnome::GObject::Boxed <|- - Gnome::GObject::Value
@enduml

@startuml

skinparam packageStyle rectangle
skinparam stereotypeCBackgroundColor #80ffff
set namespaceSeparator ::
hide members

class Gnome::N::TopLevelClassSupport < Catch all class >

Gnome::N::TopLevelClassSupport <|- - Gnome::GObject::Boxed
Gnome::GObject::Boxed <|- - Gnome::GObject::Value
@enduml

PlantUML version 1.2020.19(Mon Oct 12 17:10:01 CEST 2020)
(GPL source distribution)
Java Runtime: OpenJDK Runtime Environment
JVM: OpenJDK 64-Bit Server VM
Default Encoding: UTF-8
Language: en
Country: null
--></g></svg>