<?xml version="1.0" encoding="UTF-8" standalone="no"?><svg xmlns="http://www.w3.org/2000/svg" xmlns:xlink="http://www.w3.org/1999/xlink" contentScriptType="application/ecmascript" contentStyleType="text/css" height="546px" preserveAspectRatio="none" style="width:594px;height:546px;" version="1.1" viewBox="0 0 594 546" width="594px" zoomAndPan="magnify"><defs><filter height="300%" id="f1b6jbfp9mau4v" width="300%" x="-1" y="-1"><feGaussianBlur result="blurOut" stdDeviation="2.0"/><feColorMatrix in="blurOut" result="blurOut2" type="matrix" values="0 0 0 0 0 0 0 0 0 0 0 0 0 0 0 0 0 0 .4 0"/><feOffset dx="4.0" dy="4.0" in="blurOut2" result="blurOut3"/><feBlend in="SourceGraphic" in2="blurOut3" mode="normal"/></filter></defs><g><!--MD5=[b969295f0ec9b4fa482091c3e26049be]
cluster Gnome::N--><rect fill="#FFFFFF" filter="url(#f1b6jbfp9mau4v)" height="83" style="stroke: #000000; stroke-width: 1.5;" width="302" x="280" y="7"/><text fill="#000000" font-family="sans-serif" font-size="14" font-weight="bold" lengthAdjust="spacingAndGlyphs" textLength="79" x="391.5" y="21.9951">Gnome::N</text><!--MD5=[2fb3f9b624b0544b9841d5da78ec0508]
cluster Gnome::GObject--><rect fill="#FFFFFF" filter="url(#f1b6jbfp9mau4v)" height="175" style="stroke: #000000; stroke-width: 1.5;" width="271" x="212" y="114"/><text fill="#000000" font-family="sans-serif" font-size="14" font-weight="bold" lengthAdjust="spacingAndGlyphs" textLength="131" x="282" y="128.9951">Gnome::GObject</text><!--MD5=[7d67f77911969026863717fbb204e273]
cluster Gnome::Gtk3--><rect fill="#FFFFFF" filter="url(#f1b6jbfp9mau4v)" height="175" style="stroke: #000000; stroke-width: 1.5;" width="449" x="7" y="359"/><text fill="#000000" font-family="sans-serif" font-size="14" font-weight="bold" lengthAdjust="spacingAndGlyphs" textLength="105" x="179" y="373.9951">Gnome::Gtk3</text><!--MD5=[0b8e281ccd00c72019a31d78e9f95b5d]
class Gnome::N::TopLevelClassSupport--><rect codeLine="9" fill="#FEFECE" filter="url(#f1b6jbfp9mau4v)" height="32" id="Gnome::N::TopLevelClassSupport" style="stroke: #A80036; stroke-width: 1.5;" width="269" x="296.5" y="42"/><ellipse cx="311.5" cy="58" fill="#80FFFF" rx="11" ry="11" style="stroke: #A80036; stroke-width: 1.0;"/><path d="M314.4688,63.6406 Q313.8906,63.9375 313.25,64.0781 Q312.6094,64.2344 311.9063,64.2344 Q309.4063,64.2344 308.0781,62.5938 Q306.7656,60.9375 306.7656,57.8125 Q306.7656,54.6875 308.0781,53.0313 Q309.4063,51.375 311.9063,51.375 Q312.6094,51.375 313.25,51.5313 Q313.9063,51.6875 314.4688,51.9844 L314.4688,54.7031 Q313.8438,54.125 313.25,53.8594 Q312.6563,53.5781 312.0313,53.5781 Q310.6875,53.5781 310,54.6563 Q309.3125,55.7188 309.3125,57.8125 Q309.3125,59.9063 310,60.9844 Q310.6875,62.0469 312.0313,62.0469 Q312.6563,62.0469 313.25,61.7813 Q313.8438,61.5 314.4688,60.9219 L314.4688,63.6406 Z "/><text fill="#000000" font-family="sans-serif" font-size="12" lengthAdjust="spacingAndGlyphs" textLength="137" x="325.5" y="62.1543">TopLevelClassSupport</text><rect fill="#FFFFFF" height="15.9688" style="stroke: #000000; stroke-width: 1.0; stroke-dasharray: 2.0,2.0;" width="98" x="470.5" y="39"/><text fill="#000000" font-family="sans-serif" font-size="12" font-style="italic" lengthAdjust="spacingAndGlyphs" textLength="88" x="475.5" y="51.1387">Catch all class</text><!--MD5=[52303d185de782118d4739c052001bf2]
class Gnome::GObject::Signal--><rect codeLine="12" fill="#FEFECE" filter="url(#f1b6jbfp9mau4v)" height="32" id="Gnome::GObject::Signal" style="stroke: #A80036; stroke-width: 1.5;" width="131" x="228.5" y="149"/><ellipse cx="243.5" cy="165" fill="#80FFFF" rx="11" ry="11" style="stroke: #A80036; stroke-width: 1.0;"/><path d="M244.7031,165.1406 Q245.0625,165.2188 245.3281,165.5 Q245.6094,165.7656 246,166.5469 L248.2344,171 L245.5469,171 L244.0469,167.875 Q243.9844,167.7344 243.875,167.5 Q243.2188,166.1094 242.3281,166.1094 L241.5469,166.1094 L241.5469,171 L239.1094,171 L239.1094,158.6094 L242.6406,158.6094 Q245.0313,158.6094 246.0625,159.4531 Q247.1094,160.2969 247.1094,162.2031 Q247.1094,163.4844 246.4844,164.25 Q245.875,165 244.7031,165.1406 Z M241.5469,160.6719 L241.5469,164.0469 L242.7031,164.0469 Q243.7188,164.0469 244.1406,163.6563 Q244.5781,163.25 244.5781,162.3438 Q244.5781,161.4531 244.1406,161.0625 Q243.7188,160.6719 242.7031,160.6719 L241.5469,160.6719 Z "/><text fill="#000000" font-family="sans-serif" font-size="12" lengthAdjust="spacingAndGlyphs" textLength="38" x="257.5" y="169.1543">Signal</text><rect fill="#FFFFFF" height="15.9688" style="stroke: #000000; stroke-width: 1.0; stroke-dasharray: 2.0,2.0;" width="59" x="303.5" y="146"/><text fill="#000000" font-family="sans-serif" font-size="12" font-style="italic" lengthAdjust="spacingAndGlyphs" textLength="57" x="304.5" y="158.1387">Interface</text><!--MD5=[c2016d28441601ceb0a74f47a4537d14]
class Gnome::GObject::Object--><rect fill="#FEFECE" filter="url(#f1b6jbfp9mau4v)" height="32" id="Gnome::GObject::Object" style="stroke: #A80036; stroke-width: 1.5;" width="72" x="395" y="149"/><ellipse cx="410" cy="165" fill="#80FFFF" rx="11" ry="11" style="stroke: #A80036; stroke-width: 1.0;"/><path d="M412.9688,170.6406 Q412.3906,170.9375 411.75,171.0781 Q411.1094,171.2344 410.4063,171.2344 Q407.9063,171.2344 406.5781,169.5938 Q405.2656,167.9375 405.2656,164.8125 Q405.2656,161.6875 406.5781,160.0313 Q407.9063,158.375 410.4063,158.375 Q411.1094,158.375 411.75,158.5313 Q412.4063,158.6875 412.9688,158.9844 L412.9688,161.7031 Q412.3438,161.125 411.75,160.8594 Q411.1563,160.5781 410.5313,160.5781 Q409.1875,160.5781 408.5,161.6563 Q407.8125,162.7188 407.8125,164.8125 Q407.8125,166.9063 408.5,167.9844 Q409.1875,169.0469 410.5313,169.0469 Q411.1563,169.0469 411.75,168.7813 Q412.3438,168.5 412.9688,167.9219 L412.9688,170.6406 Z "/><text fill="#000000" font-family="sans-serif" font-size="12" lengthAdjust="spacingAndGlyphs" textLength="40" x="424" y="169.1543">Object</text><!--MD5=[f47b9a4a06d3f9bed948fa39f8c5540e]
class Gnome::GObject::InitialyUnowned--><rect fill="#FEFECE" filter="url(#f1b6jbfp9mau4v)" height="32" id="Gnome::GObject::InitialyUnowned" style="stroke: #A80036; stroke-width: 1.5;" width="129" x="337.5" y="241"/><ellipse cx="352.5" cy="257" fill="#80FFFF" rx="11" ry="11" style="stroke: #A80036; stroke-width: 1.0;"/><path d="M355.4688,262.6406 Q354.8906,262.9375 354.25,263.0781 Q353.6094,263.2344 352.9063,263.2344 Q350.4063,263.2344 349.0781,261.5938 Q347.7656,259.9375 347.7656,256.8125 Q347.7656,253.6875 349.0781,252.0313 Q350.4063,250.375 352.9063,250.375 Q353.6094,250.375 354.25,250.5313 Q354.9063,250.6875 355.4688,250.9844 L355.4688,253.7031 Q354.8438,253.125 354.25,252.8594 Q353.6563,252.5781 353.0313,252.5781 Q351.6875,252.5781 351,253.6563 Q350.3125,254.7188 350.3125,256.8125 Q350.3125,258.9063 351,259.9844 Q351.6875,261.0469 353.0313,261.0469 Q353.6563,261.0469 354.25,260.7813 Q354.8438,260.5 355.4688,259.9219 L355.4688,262.6406 Z "/><text fill="#000000" font-family="sans-serif" font-size="12" lengthAdjust="spacingAndGlyphs" textLength="97" x="366.5" y="261.1543">InitialyUnowned</text><!--MD5=[fc528952aa489a9a9f8514412a46a5d5]
class Gnome::Gtk3::Buildable--><rect codeLine="15" fill="#FEFECE" filter="url(#f1b6jbfp9mau4v)" height="32" id="Gnome::Gtk3::Buildable" style="stroke: #A80036; stroke-width: 1.5;" width="150" x="290" y="486"/><ellipse cx="305" cy="502" fill="#80FFFF" rx="11" ry="11" style="stroke: #A80036; stroke-width: 1.0;"/><path d="M306.2031,502.1406 Q306.5625,502.2188 306.8281,502.5 Q307.1094,502.7656 307.5,503.5469 L309.7344,508 L307.0469,508 L305.5469,504.875 Q305.4844,504.7344 305.375,504.5 Q304.7188,503.1094 303.8281,503.1094 L303.0469,503.1094 L303.0469,508 L300.6094,508 L300.6094,495.6094 L304.1406,495.6094 Q306.5313,495.6094 307.5625,496.4531 Q308.6094,497.2969 308.6094,499.2031 Q308.6094,500.4844 307.9844,501.25 Q307.375,502 306.2031,502.1406 Z M303.0469,497.6719 L303.0469,501.0469 L304.2031,501.0469 Q305.2188,501.0469 305.6406,500.6563 Q306.0781,500.25 306.0781,499.3438 Q306.0781,498.4531 305.6406,498.0625 Q305.2188,497.6719 304.2031,497.6719 L303.0469,497.6719 Z "/><text fill="#000000" font-family="sans-serif" font-size="12" lengthAdjust="spacingAndGlyphs" textLength="57" x="319" y="506.1543">Buildable</text><rect fill="#FFFFFF" height="15.9688" style="stroke: #000000; stroke-width: 1.0; stroke-dasharray: 2.0,2.0;" width="59" x="384" y="483"/><text fill="#000000" font-family="sans-serif" font-size="12" font-style="italic" lengthAdjust="spacingAndGlyphs" textLength="57" x="385" y="495.1387">Interface</text><!--MD5=[99c1fd59bdfde6048aec9e6766dd53ef]
class Gnome::Gtk3::Widget--><rect fill="#FEFECE" filter="url(#f1b6jbfp9mau4v)" height="32" id="Gnome::Gtk3::Widget" style="stroke: #A80036; stroke-width: 1.5;" width="75" x="364.5" y="394"/><ellipse cx="379.5" cy="410" fill="#80FFFF" rx="11" ry="11" style="stroke: #A80036; stroke-width: 1.0;"/><path d="M382.4688,415.6406 Q381.8906,415.9375 381.25,416.0781 Q380.6094,416.2344 379.9063,416.2344 Q377.4063,416.2344 376.0781,414.5938 Q374.7656,412.9375 374.7656,409.8125 Q374.7656,406.6875 376.0781,405.0313 Q377.4063,403.375 379.9063,403.375 Q380.6094,403.375 381.25,403.5313 Q381.9063,403.6875 382.4688,403.9844 L382.4688,406.7031 Q381.8438,406.125 381.25,405.8594 Q380.6563,405.5781 380.0313,405.5781 Q378.6875,405.5781 378,406.6563 Q377.3125,407.7188 377.3125,409.8125 Q377.3125,411.9063 378,412.9844 Q378.6875,414.0469 380.0313,414.0469 Q380.6563,414.0469 381.25,413.7813 Q381.8438,413.5 382.4688,412.9219 L382.4688,415.6406 Z "/><text fill="#000000" font-family="sans-serif" font-size="12" lengthAdjust="spacingAndGlyphs" textLength="43" x="393.5" y="414.1543">Widget</text><!--MD5=[9e3cc955f682d05594420e46d2e4e3ea]
class Gnome::Gtk3::Container--><rect fill="#FEFECE" filter="url(#f1b6jbfp9mau4v)" height="32" id="Gnome::Gtk3::Container" style="stroke: #A80036; stroke-width: 1.5;" width="93" x="236.5" y="394"/><ellipse cx="251.5" cy="410" fill="#80FFFF" rx="11" ry="11" style="stroke: #A80036; stroke-width: 1.0;"/><path d="M254.4688,415.6406 Q253.8906,415.9375 253.25,416.0781 Q252.6094,416.2344 251.9063,416.2344 Q249.4063,416.2344 248.0781,414.5938 Q246.7656,412.9375 246.7656,409.8125 Q246.7656,406.6875 248.0781,405.0313 Q249.4063,403.375 251.9063,403.375 Q252.6094,403.375 253.25,403.5313 Q253.9063,403.6875 254.4688,403.9844 L254.4688,406.7031 Q253.8438,406.125 253.25,405.8594 Q252.6563,405.5781 252.0313,405.5781 Q250.6875,405.5781 250,406.6563 Q249.3125,407.7188 249.3125,409.8125 Q249.3125,411.9063 250,412.9844 Q250.6875,414.0469 252.0313,414.0469 Q252.6563,414.0469 253.25,413.7813 Q253.8438,413.5 254.4688,412.9219 L254.4688,415.6406 Z "/><text fill="#000000" font-family="sans-serif" font-size="12" lengthAdjust="spacingAndGlyphs" textLength="61" x="265.5" y="414.1543">Container</text><!--MD5=[6ac0a199e9a9e53d446254a1d59f3468]
class Gnome::Gtk3::Bin--><rect fill="#FEFECE" filter="url(#f1b6jbfp9mau4v)" height="32" id="Gnome::Gtk3::Bin" style="stroke: #A80036; stroke-width: 1.5;" width="51" x="150.5" y="394"/><ellipse cx="165.5" cy="410" fill="#80FFFF" rx="11" ry="11" style="stroke: #A80036; stroke-width: 1.0;"/><path d="M168.4688,415.6406 Q167.8906,415.9375 167.25,416.0781 Q166.6094,416.2344 165.9063,416.2344 Q163.4063,416.2344 162.0781,414.5938 Q160.7656,412.9375 160.7656,409.8125 Q160.7656,406.6875 162.0781,405.0313 Q163.4063,403.375 165.9063,403.375 Q166.6094,403.375 167.25,403.5313 Q167.9063,403.6875 168.4688,403.9844 L168.4688,406.7031 Q167.8438,406.125 167.25,405.8594 Q166.6563,405.5781 166.0313,405.5781 Q164.6875,405.5781 164,406.6563 Q163.3125,407.7188 163.3125,409.8125 Q163.3125,411.9063 164,412.9844 Q164.6875,414.0469 166.0313,414.0469 Q166.6563,414.0469 167.25,413.7813 Q167.8438,413.5 168.4688,412.9219 L168.4688,415.6406 Z "/><text fill="#000000" font-family="sans-serif" font-size="12" lengthAdjust="spacingAndGlyphs" textLength="19" x="179.5" y="414.1543">Bin</text><!--MD5=[8185a0850b881e65d27657089e9365f1]
class Gnome::Gtk3::ActionBar--><rect fill="#FEFECE" filter="url(#f1b6jbfp9mau4v)" height="32" id="Gnome::Gtk3::ActionBar" style="stroke: #A80036; stroke-width: 1.5;" width="92" x="23" y="394"/><ellipse cx="38" cy="410" fill="#80FFFF" rx="11" ry="11" style="stroke: #A80036; stroke-width: 1.0;"/><path d="M40.9688,415.6406 Q40.3906,415.9375 39.75,416.0781 Q39.1094,416.2344 38.4063,416.2344 Q35.9063,416.2344 34.5781,414.5938 Q33.2656,412.9375 33.2656,409.8125 Q33.2656,406.6875 34.5781,405.0313 Q35.9063,403.375 38.4063,403.375 Q39.1094,403.375 39.75,403.5313 Q40.4063,403.6875 40.9688,403.9844 L40.9688,406.7031 Q40.3438,406.125 39.75,405.8594 Q39.1563,405.5781 38.5313,405.5781 Q37.1875,405.5781 36.5,406.6563 Q35.8125,407.7188 35.8125,409.8125 Q35.8125,411.9063 36.5,412.9844 Q37.1875,414.0469 38.5313,414.0469 Q39.1563,414.0469 39.75,413.7813 Q40.3438,413.5 40.9688,412.9219 L40.9688,415.6406 Z "/><text fill="#000000" font-family="sans-serif" font-size="12" lengthAdjust="spacingAndGlyphs" textLength="60" x="52" y="414.1543">ActionBar</text><!--MD5=[e23b679cf607d12ac81e9c5301595709]
reverse link Gnome::N::TopLevelClassSupport to Gnome::GObject::Object--><path codeLine="18" d="M431,94.1 C431,112.76 431,134.73 431,148.98 " fill="none" id="Gnome::N::TopLevelClassSupport-backto-Gnome::GObject::Object" style="stroke: #A80036; stroke-width: 1.0;"/><polygon fill="none" points="424,94.04,431,74.04,438,94.04,424,94.04" style="stroke: #A80036; stroke-width: 1.0;"/><!--MD5=[2e57c6084092ea441ae4a3f826779dd8]
reverse link Gnome::GObject::Object to Gnome::GObject::InitialyUnowned--><path codeLine="19" d="M419.84,200.63 C415.34,214.59 410.39,229.96 406.85,240.96 " fill="none" id="Gnome::GObject::Object-backto-Gnome::GObject::InitialyUnowned" style="stroke: #A80036; stroke-width: 1.0;"/><polygon fill="none" points="413.28,198.16,426.08,181.27,426.61,202.45,413.28,198.16" style="stroke: #A80036; stroke-width: 1.0;"/><!--MD5=[f8ffcf4587ba956cb48626a4231e4d21]
reverse link Gnome::GObject::Signal to Gnome::GObject::Object--><path codeLine="20" d="M379.77,165 C384.85,165 389.92,165 395,165 " fill="none" id="Gnome::GObject::Signal-backto-Gnome::GObject::Object" style="stroke: #A80036; stroke-width: 1.0; stroke-dasharray: 7.0,7.0;"/><polygon fill="none" points="379.56,172,359.56,165,379.56,158,379.56,172" style="stroke: #A80036; stroke-width: 1.0;"/><!--MD5=[aa49dbc803ccf1c2ef8546b297b1dcfd]
reverse link Gnome::GObject::InitialyUnowned to Gnome::Gtk3::Widget--><path codeLine="22" d="M402,293.28 C402,325.02 402,370.17 402,393.58 " fill="none" id="Gnome::GObject::InitialyUnowned-backto-Gnome::Gtk3::Widget" style="stroke: #A80036; stroke-width: 1.0;"/><polygon fill="none" points="395,293.03,402,273.03,409,293.03,395,293.03" style="stroke: #A80036; stroke-width: 1.0;"/><!--MD5=[e1568b3b4ceade3a3349f45f19b4c32a]
link Gnome::Gtk3::Widget to Gnome::Gtk3::Buildable--><path codeLine="24" d="M395.72,426.27 C391.12,437.45 384.7,453.08 378.92,467.15 " fill="none" id="Gnome::Gtk3::Widget-to-Gnome::Gtk3::Buildable" style="stroke: #A80036; stroke-width: 1.0; stroke-dasharray: 7.0,7.0;"/><polygon fill="none" points="385.26,470.12,371.18,485.96,372.31,464.8,385.26,470.12" style="stroke: #A80036; stroke-width: 1.0;"/><!--MD5=[aaf476f5d2312b98d0ee61e81272172c]
link Gnome::Gtk3::Container to Gnome::Gtk3::Widget--><path codeLine="25" d="M329.95,410 C334.69,410 339.43,410 344.17,410 " fill="none" id="Gnome::Gtk3::Container-to-Gnome::Gtk3::Widget" style="stroke: #A80036; stroke-width: 1.0;"/><polygon fill="none" points="344.29,403,364.29,410,344.29,417,344.29,403" style="stroke: #A80036; stroke-width: 1.0;"/><!--MD5=[aa2b56f221bfaa2860ef37394f2d22b5]
link Gnome::Gtk3::Bin to Gnome::Gtk3::Container--><path codeLine="26" d="M201.91,410 C206.68,410 211.44,410 216.21,410 " fill="none" id="Gnome::Gtk3::Bin-to-Gnome::Gtk3::Container" style="stroke: #A80036; stroke-width: 1.0;"/><polygon fill="none" points="216.44,403,236.44,410,216.44,417,216.44,403" style="stroke: #A80036; stroke-width: 1.0;"/><!--MD5=[71c1436aa72d1a8a480da58b4e2fb0b6]
link Gnome::Gtk3::ActionBar to Gnome::Gtk3::Bin--><path codeLine="27" d="M115.39,410 C120.32,410 125.25,410 130.18,410 " fill="none" id="Gnome::Gtk3::ActionBar-to-Gnome::Gtk3::Bin" style="stroke: #A80036; stroke-width: 1.0;"/><polygon fill="none" points="130.43,403,150.43,410,130.43,417,130.43,403" style="stroke: #A80036; stroke-width: 1.0;"/><!--MD5=[6472b1fb5c5e72683c0b8b01fbbe8503]
@startuml
'scale 0.8
skinparam packageStyle rectangle
skinparam stereotypeCBackgroundColor #80ffff
set namespaceSeparator ::
hide members

'Class and interface decorations
class Gnome::N::TopLevelClassSupport < Catch all class >

Interface Gnome::GObject::Signal <Interface>
class Gnome::GObject::Signal <<(R,#80ffff)>>

Interface Gnome::Gtk3::Buildable <Interface>
class Gnome::Gtk3::Buildable <<(R,#80ffff)>>

'Class connections
Gnome::N::TopLevelClassSupport <|- - Gnome::GObject::Object
Gnome::GObject::Object <|- - Gnome::GObject::InitialyUnowned
Gnome::GObject::Signal <|. Gnome::GObject::Object

Gnome::GObject::InitialyUnowned <|- - - Gnome::Gtk3::Widget

Gnome::Gtk3::Widget ..|> Gnome::Gtk3::Buildable
Gnome::Gtk3::Container -|> Gnome::Gtk3::Widget
Gnome::Gtk3::Bin -|> Gnome::Gtk3::Container
Gnome::Gtk3::ActionBar -|> Gnome::Gtk3::Bin

@enduml

@startuml
skinparam packageStyle rectangle
skinparam stereotypeCBackgroundColor #80ffff
set namespaceSeparator ::
hide members

class Gnome::N::TopLevelClassSupport < Catch all class >

Interface Gnome::GObject::Signal <Interface>
class Gnome::GObject::Signal <<(R,#80ffff)>>

Interface Gnome::Gtk3::Buildable <Interface>
class Gnome::Gtk3::Buildable <<(R,#80ffff)>>

Gnome::N::TopLevelClassSupport <|- - Gnome::GObject::Object
Gnome::GObject::Object <|- - Gnome::GObject::InitialyUnowned
Gnome::GObject::Signal <|. Gnome::GObject::Object

Gnome::GObject::InitialyUnowned <|- - - Gnome::Gtk3::Widget

Gnome::Gtk3::Widget ..|> Gnome::Gtk3::Buildable
Gnome::Gtk3::Container -|> Gnome::Gtk3::Widget
Gnome::Gtk3::Bin -|> Gnome::Gtk3::Container
Gnome::Gtk3::ActionBar -|> Gnome::Gtk3::Bin

@enduml

PlantUML version 1.2020.19(Mon Oct 12 17:10:01 CEST 2020)
(GPL source distribution)
Java Runtime: OpenJDK Runtime Environment
JVM: OpenJDK 64-Bit Server VM
Default Encoding: UTF-8
Language: en
Country: null
--></g></svg>