<?xml version="1.0" encoding="UTF-8" standalone="no"?><svg xmlns="http://www.w3.org/2000/svg" xmlns:xlink="http://www.w3.org/1999/xlink" contentScriptType="application/ecmascript" contentStyleType="text/css" height="546px" preserveAspectRatio="none" style="width:696px;height:546px;" version="1.1" viewBox="0 0 696 546" width="696px" zoomAndPan="magnify"><defs><filter height="300%" id="f1wqtufi16dzdg" width="300%" x="-1" y="-1"><feGaussianBlur result="blurOut" stdDeviation="2.0"/><feColorMatrix in="blurOut" result="blurOut2" type="matrix" values="0 0 0 0 0 0 0 0 0 0 0 0 0 0 0 0 0 0 .4 0"/><feOffset dx="4.0" dy="4.0" in="blurOut2" result="blurOut3"/><feBlend in="SourceGraphic" in2="blurOut3" mode="normal"/></filter></defs><g><!--MD5=[b969295f0ec9b4fa482091c3e26049be]
cluster Gnome::N--><rect fill="#FFFFFF" filter="url(#f1wqtufi16dzdg)" height="83" style="stroke: #000000; stroke-width: 1.5;" width="302" x="75" y="7"/><text fill="#000000" font-family="sans-serif" font-size="14" font-weight="bold" lengthAdjust="spacingAndGlyphs" textLength="79" x="186.5" y="21.9951">Gnome::N</text><!--MD5=[2fb3f9b624b0544b9841d5da78ec0508]
cluster Gnome::GObject--><rect fill="#FFFFFF" filter="url(#f1wqtufi16dzdg)" height="175" style="stroke: #000000; stroke-width: 1.5;" width="271" x="7" y="114"/><text fill="#000000" font-family="sans-serif" font-size="14" font-weight="bold" lengthAdjust="spacingAndGlyphs" textLength="131" x="77" y="128.9951">Gnome::GObject</text><!--MD5=[7d67f77911969026863717fbb204e273]
cluster Gnome::Gtk3--><rect fill="#FFFFFF" filter="url(#f1wqtufi16dzdg)" height="175" style="stroke: #000000; stroke-width: 1.5;" width="578" x="106" y="359"/><text fill="#000000" font-family="sans-serif" font-size="14" font-weight="bold" lengthAdjust="spacingAndGlyphs" textLength="105" x="342.5" y="373.9951">Gnome::Gtk3</text><!--MD5=[0b8e281ccd00c72019a31d78e9f95b5d]
class Gnome::N::TopLevelClassSupport--><rect codeLine="8" fill="#FEFECE" filter="url(#f1wqtufi16dzdg)" height="32" id="Gnome::N::TopLevelClassSupport" style="stroke: #A80036; stroke-width: 1.5;" width="269" x="91.5" y="42"/><ellipse cx="106.5" cy="58" fill="#80FFFF" rx="11" ry="11" style="stroke: #A80036; stroke-width: 1.0;"/><path d="M109.4688,63.6406 Q108.8906,63.9375 108.25,64.0781 Q107.6094,64.2344 106.9063,64.2344 Q104.4063,64.2344 103.0781,62.5938 Q101.7656,60.9375 101.7656,57.8125 Q101.7656,54.6875 103.0781,53.0313 Q104.4063,51.375 106.9063,51.375 Q107.6094,51.375 108.25,51.5313 Q108.9063,51.6875 109.4688,51.9844 L109.4688,54.7031 Q108.8438,54.125 108.25,53.8594 Q107.6563,53.5781 107.0313,53.5781 Q105.6875,53.5781 105,54.6563 Q104.3125,55.7188 104.3125,57.8125 Q104.3125,59.9063 105,60.9844 Q105.6875,62.0469 107.0313,62.0469 Q107.6563,62.0469 108.25,61.7813 Q108.8438,61.5 109.4688,60.9219 L109.4688,63.6406 Z "/><text fill="#000000" font-family="sans-serif" font-size="12" lengthAdjust="spacingAndGlyphs" textLength="137" x="120.5" y="62.1543">TopLevelClassSupport</text><rect fill="#FFFFFF" height="15.9688" style="stroke: #000000; stroke-width: 1.0; stroke-dasharray: 2.0,2.0;" width="98" x="265.5" y="39"/><text fill="#000000" font-family="sans-serif" font-size="12" font-style="italic" lengthAdjust="spacingAndGlyphs" textLength="88" x="270.5" y="51.1387">Catch all class</text><!--MD5=[52303d185de782118d4739c052001bf2]
class Gnome::GObject::Signal--><rect codeLine="11" fill="#FEFECE" filter="url(#f1wqtufi16dzdg)" height="32" id="Gnome::GObject::Signal" style="stroke: #A80036; stroke-width: 1.5;" width="131" x="23.5" y="149"/><ellipse cx="38.5" cy="165" fill="#80FFFF" rx="11" ry="11" style="stroke: #A80036; stroke-width: 1.0;"/><path d="M39.7031,165.1406 Q40.0625,165.2188 40.3281,165.5 Q40.6094,165.7656 41,166.5469 L43.2344,171 L40.5469,171 L39.0469,167.875 Q38.9844,167.7344 38.875,167.5 Q38.2188,166.1094 37.3281,166.1094 L36.5469,166.1094 L36.5469,171 L34.1094,171 L34.1094,158.6094 L37.6406,158.6094 Q40.0313,158.6094 41.0625,159.4531 Q42.1094,160.2969 42.1094,162.2031 Q42.1094,163.4844 41.4844,164.25 Q40.875,165 39.7031,165.1406 Z M36.5469,160.6719 L36.5469,164.0469 L37.7031,164.0469 Q38.7188,164.0469 39.1406,163.6563 Q39.5781,163.25 39.5781,162.3438 Q39.5781,161.4531 39.1406,161.0625 Q38.7188,160.6719 37.7031,160.6719 L36.5469,160.6719 Z "/><text fill="#000000" font-family="sans-serif" font-size="12" lengthAdjust="spacingAndGlyphs" textLength="38" x="52.5" y="169.1543">Signal</text><rect fill="#FFFFFF" height="15.9688" style="stroke: #000000; stroke-width: 1.0; stroke-dasharray: 2.0,2.0;" width="59" x="98.5" y="146"/><text fill="#000000" font-family="sans-serif" font-size="12" font-style="italic" lengthAdjust="spacingAndGlyphs" textLength="57" x="99.5" y="158.1387">Interface</text><!--MD5=[c2016d28441601ceb0a74f47a4537d14]
class Gnome::GObject::Object--><rect fill="#FEFECE" filter="url(#f1wqtufi16dzdg)" height="32" id="Gnome::GObject::Object" style="stroke: #A80036; stroke-width: 1.5;" width="72" x="190" y="149"/><ellipse cx="205" cy="165" fill="#80FFFF" rx="11" ry="11" style="stroke: #A80036; stroke-width: 1.0;"/><path d="M207.9688,170.6406 Q207.3906,170.9375 206.75,171.0781 Q206.1094,171.2344 205.4063,171.2344 Q202.9063,171.2344 201.5781,169.5938 Q200.2656,167.9375 200.2656,164.8125 Q200.2656,161.6875 201.5781,160.0313 Q202.9063,158.375 205.4063,158.375 Q206.1094,158.375 206.75,158.5313 Q207.4063,158.6875 207.9688,158.9844 L207.9688,161.7031 Q207.3438,161.125 206.75,160.8594 Q206.1563,160.5781 205.5313,160.5781 Q204.1875,160.5781 203.5,161.6563 Q202.8125,162.7188 202.8125,164.8125 Q202.8125,166.9063 203.5,167.9844 Q204.1875,169.0469 205.5313,169.0469 Q206.1563,169.0469 206.75,168.7813 Q207.3438,168.5 207.9688,167.9219 L207.9688,170.6406 Z "/><text fill="#000000" font-family="sans-serif" font-size="12" lengthAdjust="spacingAndGlyphs" textLength="40" x="219" y="169.1543">Object</text><!--MD5=[f47b9a4a06d3f9bed948fa39f8c5540e]
class Gnome::GObject::InitialyUnowned--><rect fill="#FEFECE" filter="url(#f1wqtufi16dzdg)" height="32" id="Gnome::GObject::InitialyUnowned" style="stroke: #A80036; stroke-width: 1.5;" width="129" x="132.5" y="241"/><ellipse cx="147.5" cy="257" fill="#80FFFF" rx="11" ry="11" style="stroke: #A80036; stroke-width: 1.0;"/><path d="M150.4688,262.6406 Q149.8906,262.9375 149.25,263.0781 Q148.6094,263.2344 147.9063,263.2344 Q145.4063,263.2344 144.0781,261.5938 Q142.7656,259.9375 142.7656,256.8125 Q142.7656,253.6875 144.0781,252.0313 Q145.4063,250.375 147.9063,250.375 Q148.6094,250.375 149.25,250.5313 Q149.9063,250.6875 150.4688,250.9844 L150.4688,253.7031 Q149.8438,253.125 149.25,252.8594 Q148.6563,252.5781 148.0313,252.5781 Q146.6875,252.5781 146,253.6563 Q145.3125,254.7188 145.3125,256.8125 Q145.3125,258.9063 146,259.9844 Q146.6875,261.0469 148.0313,261.0469 Q148.6563,261.0469 149.25,260.7813 Q149.8438,260.5 150.4688,259.9219 L150.4688,262.6406 Z "/><text fill="#000000" font-family="sans-serif" font-size="12" lengthAdjust="spacingAndGlyphs" textLength="97" x="161.5" y="261.1543">InitialyUnowned</text><!--MD5=[fc528952aa489a9a9f8514412a46a5d5]
class Gnome::Gtk3::Buildable--><rect codeLine="14" fill="#FEFECE" filter="url(#f1wqtufi16dzdg)" height="32" id="Gnome::Gtk3::Buildable" style="stroke: #A80036; stroke-width: 1.5;" width="150" x="122" y="486"/><ellipse cx="137" cy="502" fill="#80FFFF" rx="11" ry="11" style="stroke: #A80036; stroke-width: 1.0;"/><path d="M138.2031,502.1406 Q138.5625,502.2188 138.8281,502.5 Q139.1094,502.7656 139.5,503.5469 L141.7344,508 L139.0469,508 L137.5469,504.875 Q137.4844,504.7344 137.375,504.5 Q136.7188,503.1094 135.8281,503.1094 L135.0469,503.1094 L135.0469,508 L132.6094,508 L132.6094,495.6094 L136.1406,495.6094 Q138.5313,495.6094 139.5625,496.4531 Q140.6094,497.2969 140.6094,499.2031 Q140.6094,500.4844 139.9844,501.25 Q139.375,502 138.2031,502.1406 Z M135.0469,497.6719 L135.0469,501.0469 L136.2031,501.0469 Q137.2188,501.0469 137.6406,500.6563 Q138.0781,500.25 138.0781,499.3438 Q138.0781,498.4531 137.6406,498.0625 Q137.2188,497.6719 136.2031,497.6719 L135.0469,497.6719 Z "/><text fill="#000000" font-family="sans-serif" font-size="12" font-style="italic" lengthAdjust="spacingAndGlyphs" textLength="57" x="151" y="506.1543">Buildable</text><rect fill="#FFFFFF" height="15.9688" style="stroke: #000000; stroke-width: 1.0; stroke-dasharray: 2.0,2.0;" width="59" x="216" y="483"/><text fill="#000000" font-family="sans-serif" font-size="12" font-style="italic" lengthAdjust="spacingAndGlyphs" textLength="57" x="217" y="495.1387">Interface</text><!--MD5=[865b113cd38444117c4dca48a702f1ee]
class Gnome::Gtk3::Orientable--><rect codeLine="17" fill="#FEFECE" filter="url(#f1wqtufi16dzdg)" height="32" id="Gnome::Gtk3::Orientable" style="stroke: #A80036; stroke-width: 1.5;" width="157" x="307.5" y="486"/><ellipse cx="322.5" cy="502" fill="#80FFFF" rx="11" ry="11" style="stroke: #A80036; stroke-width: 1.0;"/><path d="M323.7031,502.1406 Q324.0625,502.2188 324.3281,502.5 Q324.6094,502.7656 325,503.5469 L327.2344,508 L324.5469,508 L323.0469,504.875 Q322.9844,504.7344 322.875,504.5 Q322.2188,503.1094 321.3281,503.1094 L320.5469,503.1094 L320.5469,508 L318.1094,508 L318.1094,495.6094 L321.6406,495.6094 Q324.0313,495.6094 325.0625,496.4531 Q326.1094,497.2969 326.1094,499.2031 Q326.1094,500.4844 325.4844,501.25 Q324.875,502 323.7031,502.1406 Z M320.5469,497.6719 L320.5469,501.0469 L321.7031,501.0469 Q322.7188,501.0469 323.1406,500.6563 Q323.5781,500.25 323.5781,499.3438 Q323.5781,498.4531 323.1406,498.0625 Q322.7188,497.6719 321.7031,497.6719 L320.5469,497.6719 Z "/><text fill="#000000" font-family="sans-serif" font-size="12" font-style="italic" lengthAdjust="spacingAndGlyphs" textLength="64" x="336.5" y="506.1543">Orientable</text><rect fill="#FFFFFF" height="15.9688" style="stroke: #000000; stroke-width: 1.0; stroke-dasharray: 2.0,2.0;" width="59" x="408.5" y="483"/><text fill="#000000" font-family="sans-serif" font-size="12" font-style="italic" lengthAdjust="spacingAndGlyphs" textLength="57" x="409.5" y="495.1387">Interface</text><!--MD5=[7c1758a09004760757060230ff805361]
class Gnome::Gtk3::AppChooser--><rect codeLine="20" fill="#FEFECE" filter="url(#f1wqtufi16dzdg)" height="32" id="Gnome::Gtk3::AppChooser" style="stroke: #A80036; stroke-width: 1.5;" width="168" x="500" y="486"/><ellipse cx="515" cy="502" fill="#80FFFF" rx="11" ry="11" style="stroke: #A80036; stroke-width: 1.0;"/><path d="M516.2031,502.1406 Q516.5625,502.2188 516.8281,502.5 Q517.1094,502.7656 517.5,503.5469 L519.7344,508 L517.0469,508 L515.5469,504.875 Q515.4844,504.7344 515.375,504.5 Q514.7188,503.1094 513.8281,503.1094 L513.0469,503.1094 L513.0469,508 L510.6094,508 L510.6094,495.6094 L514.1406,495.6094 Q516.5313,495.6094 517.5625,496.4531 Q518.6094,497.2969 518.6094,499.2031 Q518.6094,500.4844 517.9844,501.25 Q517.375,502 516.2031,502.1406 Z M513.0469,497.6719 L513.0469,501.0469 L514.2031,501.0469 Q515.2188,501.0469 515.6406,500.6563 Q516.0781,500.25 516.0781,499.3438 Q516.0781,498.4531 515.6406,498.0625 Q515.2188,497.6719 514.2031,497.6719 L513.0469,497.6719 Z "/><text fill="#000000" font-family="sans-serif" font-size="12" font-style="italic" lengthAdjust="spacingAndGlyphs" textLength="75" x="529" y="506.1543">AppChooser</text><rect fill="#FFFFFF" height="15.9688" style="stroke: #000000; stroke-width: 1.0; stroke-dasharray: 2.0,2.0;" width="59" x="612" y="483"/><text fill="#000000" font-family="sans-serif" font-size="12" font-style="italic" lengthAdjust="spacingAndGlyphs" textLength="57" x="613" y="495.1387">Interface</text><!--MD5=[99c1fd59bdfde6048aec9e6766dd53ef]
class Gnome::Gtk3::Widget--><rect fill="#FEFECE" filter="url(#f1wqtufi16dzdg)" height="32" id="Gnome::Gtk3::Widget" style="stroke: #A80036; stroke-width: 1.5;" width="75" x="159.5" y="394"/><ellipse cx="174.5" cy="410" fill="#80FFFF" rx="11" ry="11" style="stroke: #A80036; stroke-width: 1.0;"/><path d="M177.4688,415.6406 Q176.8906,415.9375 176.25,416.0781 Q175.6094,416.2344 174.9063,416.2344 Q172.4063,416.2344 171.0781,414.5938 Q169.7656,412.9375 169.7656,409.8125 Q169.7656,406.6875 171.0781,405.0313 Q172.4063,403.375 174.9063,403.375 Q175.6094,403.375 176.25,403.5313 Q176.9063,403.6875 177.4688,403.9844 L177.4688,406.7031 Q176.8438,406.125 176.25,405.8594 Q175.6563,405.5781 175.0313,405.5781 Q173.6875,405.5781 173,406.6563 Q172.3125,407.7188 172.3125,409.8125 Q172.3125,411.9063 173,412.9844 Q173.6875,414.0469 175.0313,414.0469 Q175.6563,414.0469 176.25,413.7813 Q176.8438,413.5 177.4688,412.9219 L177.4688,415.6406 Z "/><text fill="#000000" font-family="sans-serif" font-size="12" lengthAdjust="spacingAndGlyphs" textLength="43" x="188.5" y="414.1543">Widget</text><!--MD5=[9e3cc955f682d05594420e46d2e4e3ea]
class Gnome::Gtk3::Container--><rect fill="#FEFECE" filter="url(#f1wqtufi16dzdg)" height="32" id="Gnome::Gtk3::Container" style="stroke: #A80036; stroke-width: 1.5;" width="93" x="269.5" y="394"/><ellipse cx="284.5" cy="410" fill="#80FFFF" rx="11" ry="11" style="stroke: #A80036; stroke-width: 1.0;"/><path d="M287.4688,415.6406 Q286.8906,415.9375 286.25,416.0781 Q285.6094,416.2344 284.9063,416.2344 Q282.4063,416.2344 281.0781,414.5938 Q279.7656,412.9375 279.7656,409.8125 Q279.7656,406.6875 281.0781,405.0313 Q282.4063,403.375 284.9063,403.375 Q285.6094,403.375 286.25,403.5313 Q286.9063,403.6875 287.4688,403.9844 L287.4688,406.7031 Q286.8438,406.125 286.25,405.8594 Q285.6563,405.5781 285.0313,405.5781 Q283.6875,405.5781 283,406.6563 Q282.3125,407.7188 282.3125,409.8125 Q282.3125,411.9063 283,412.9844 Q283.6875,414.0469 285.0313,414.0469 Q285.6563,414.0469 286.25,413.7813 Q286.8438,413.5 287.4688,412.9219 L287.4688,415.6406 Z "/><text fill="#000000" font-family="sans-serif" font-size="12" lengthAdjust="spacingAndGlyphs" textLength="61" x="298.5" y="414.1543">Container</text><!--MD5=[1a4770efc7afe469e38e2fcdc96960c5]
class Gnome::Gtk3::Box--><rect fill="#FEFECE" filter="url(#f1wqtufi16dzdg)" height="32" id="Gnome::Gtk3::Box" style="stroke: #A80036; stroke-width: 1.5;" width="54" x="398" y="394"/><ellipse cx="413" cy="410" fill="#80FFFF" rx="11" ry="11" style="stroke: #A80036; stroke-width: 1.0;"/><path d="M415.9688,415.6406 Q415.3906,415.9375 414.75,416.0781 Q414.1094,416.2344 413.4063,416.2344 Q410.9063,416.2344 409.5781,414.5938 Q408.2656,412.9375 408.2656,409.8125 Q408.2656,406.6875 409.5781,405.0313 Q410.9063,403.375 413.4063,403.375 Q414.1094,403.375 414.75,403.5313 Q415.4063,403.6875 415.9688,403.9844 L415.9688,406.7031 Q415.3438,406.125 414.75,405.8594 Q414.1563,405.5781 413.5313,405.5781 Q412.1875,405.5781 411.5,406.6563 Q410.8125,407.7188 410.8125,409.8125 Q410.8125,411.9063 411.5,412.9844 Q412.1875,414.0469 413.5313,414.0469 Q414.1563,414.0469 414.75,413.7813 Q415.3438,413.5 415.9688,412.9219 L415.9688,415.6406 Z "/><text fill="#000000" font-family="sans-serif" font-size="12" lengthAdjust="spacingAndGlyphs" textLength="22" x="427" y="414.1543">Box</text><!--MD5=[d3b386f7ac13110fa5244ce5deb86ddd]
class Gnome::Gtk3::AppChooserWidget--><rect fill="#FEFECE" filter="url(#f1wqtufi16dzdg)" height="32" id="Gnome::Gtk3::AppChooserWidget" style="stroke: #A80036; stroke-width: 1.5;" width="151" x="497.5" y="394"/><ellipse cx="512.5" cy="410" fill="#80FFFF" rx="11" ry="11" style="stroke: #A80036; stroke-width: 1.0;"/><path d="M515.4688,415.6406 Q514.8906,415.9375 514.25,416.0781 Q513.6094,416.2344 512.9063,416.2344 Q510.4063,416.2344 509.0781,414.5938 Q507.7656,412.9375 507.7656,409.8125 Q507.7656,406.6875 509.0781,405.0313 Q510.4063,403.375 512.9063,403.375 Q513.6094,403.375 514.25,403.5313 Q514.9063,403.6875 515.4688,403.9844 L515.4688,406.7031 Q514.8438,406.125 514.25,405.8594 Q513.6563,405.5781 513.0313,405.5781 Q511.6875,405.5781 511,406.6563 Q510.3125,407.7188 510.3125,409.8125 Q510.3125,411.9063 511,412.9844 Q511.6875,414.0469 513.0313,414.0469 Q513.6563,414.0469 514.25,413.7813 Q514.8438,413.5 515.4688,412.9219 L515.4688,415.6406 Z "/><text fill="#000000" font-family="sans-serif" font-size="12" lengthAdjust="spacingAndGlyphs" textLength="119" x="526.5" y="414.1543">AppChooserWidget</text><!--MD5=[e23b679cf607d12ac81e9c5301595709]
reverse link Gnome::N::TopLevelClassSupport to Gnome::GObject::Object--><path codeLine="24" d="M226,94.1 C226,112.76 226,134.73 226,148.98 " fill="none" id="Gnome::N::TopLevelClassSupport-backto-Gnome::GObject::Object" style="stroke: #A80036; stroke-width: 1.0;"/><polygon fill="none" points="219,94.04,226,74.04,233,94.04,219,94.04" style="stroke: #A80036; stroke-width: 1.0;"/><!--MD5=[2e57c6084092ea441ae4a3f826779dd8]
reverse link Gnome::GObject::Object to Gnome::GObject::InitialyUnowned--><path codeLine="25" d="M214.84,200.63 C210.34,214.59 205.39,229.96 201.85,240.96 " fill="none" id="Gnome::GObject::Object-backto-Gnome::GObject::InitialyUnowned" style="stroke: #A80036; stroke-width: 1.0;"/><polygon fill="none" points="208.28,198.16,221.08,181.27,221.61,202.45,208.28,198.16" style="stroke: #A80036; stroke-width: 1.0;"/><!--MD5=[f8ffcf4587ba956cb48626a4231e4d21]
reverse link Gnome::GObject::Signal to Gnome::GObject::Object--><path codeLine="26" d="M174.77,165 C179.85,165 184.92,165 190,165 " fill="none" id="Gnome::GObject::Signal-backto-Gnome::GObject::Object" style="stroke: #A80036; stroke-width: 1.0; stroke-dasharray: 7.0,7.0;"/><polygon fill="none" points="174.56,172,154.56,165,174.56,158,174.56,172" style="stroke: #A80036; stroke-width: 1.0;"/><!--MD5=[aa49dbc803ccf1c2ef8546b297b1dcfd]
reverse link Gnome::GObject::InitialyUnowned to Gnome::Gtk3::Widget--><path codeLine="28" d="M197,293.28 C197,325.02 197,370.17 197,393.58 " fill="none" id="Gnome::GObject::InitialyUnowned-backto-Gnome::Gtk3::Widget" style="stroke: #A80036; stroke-width: 1.0;"/><polygon fill="none" points="190,293.03,197,273.03,204,293.03,190,293.03" style="stroke: #A80036; stroke-width: 1.0;"/><!--MD5=[940ddf52f8156166e52a90b7ba66cda5]
reverse link Gnome::Gtk3::Widget to Gnome::Gtk3::Container--><path codeLine="30" d="M254.68,410 C259.55,410 264.42,410 269.29,410 " fill="none" id="Gnome::Gtk3::Widget-backto-Gnome::Gtk3::Container" style="stroke: #A80036; stroke-width: 1.0;"/><polygon fill="none" points="254.65,417,234.65,410,254.65,403,254.65,417" style="stroke: #A80036; stroke-width: 1.0;"/><!--MD5=[e1568b3b4ceade3a3349f45f19b4c32a]
link Gnome::Gtk3::Widget to Gnome::Gtk3::Buildable--><path codeLine="31" d="M197,426.27 C197,437.06 197,451.99 197,465.67 " fill="none" id="Gnome::Gtk3::Widget-to-Gnome::Gtk3::Buildable" style="stroke: #A80036; stroke-width: 1.0; stroke-dasharray: 7.0,7.0;"/><polygon fill="none" points="204,465.96,197,485.96,190,465.96,204,465.96" style="stroke: #A80036; stroke-width: 1.0;"/><!--MD5=[d3bbc24061782d4564f016f748234147]
reverse link Gnome::Gtk3::Container to Gnome::Gtk3::Box--><path codeLine="33" d="M383.05,410 C387.97,410 392.89,410 397.8,410 " fill="none" id="Gnome::Gtk3::Container-backto-Gnome::Gtk3::Box" style="stroke: #A80036; stroke-width: 1.0;"/><polygon fill="none" points="382.84,417,362.84,410,382.84,403,382.84,417" style="stroke: #A80036; stroke-width: 1.0;"/><!--MD5=[a6b00b89fd018b89a6ad3c119dbe5dbe]
link Gnome::Gtk3::Box to Gnome::Gtk3::Orientable--><path codeLine="34" d="M418.38,426.27 C413.54,437.45 406.77,453.08 400.67,467.15 " fill="none" id="Gnome::Gtk3::Box-to-Gnome::Gtk3::Orientable" style="stroke: #A80036; stroke-width: 1.0; stroke-dasharray: 7.0,7.0;"/><polygon fill="none" points="406.89,470.39,392.52,485.96,394.05,464.82,406.89,470.39" style="stroke: #A80036; stroke-width: 1.0;"/><!--MD5=[fb15765a4c80d651f4f3a2e8a7f4aa5b]
reverse link Gnome::Gtk3::Box to Gnome::Gtk3::AppChooserWidget--><path codeLine="36" d="M472.35,410 C480.73,410 489.1,410 497.48,410 " fill="none" id="Gnome::Gtk3::Box-backto-Gnome::Gtk3::AppChooserWidget" style="stroke: #A80036; stroke-width: 1.0;"/><polygon fill="none" points="472.17,417,452.17,410,472.17,403,472.17,417" style="stroke: #A80036; stroke-width: 1.0;"/><!--MD5=[63fc2f960b340d21785f16fcaf6de69c]
link Gnome::Gtk3::AppChooserWidget to Gnome::Gtk3::AppChooser--><path codeLine="37" d="M574.87,426.27 C576.19,437.06 578.01,451.99 579.68,465.67 " fill="none" id="Gnome::Gtk3::AppChooserWidget-to-Gnome::Gtk3::AppChooser" style="stroke: #A80036; stroke-width: 1.0; stroke-dasharray: 7.0,7.0;"/><polygon fill="none" points="586.68,465.26,582.16,485.96,572.79,466.96,586.68,465.26" style="stroke: #A80036; stroke-width: 1.0;"/><!--MD5=[7d9a375c761a2115c1ef0ca217af0b67]
@startuml
skinparam packageStyle rectangle
skinparam stereotypeCBackgroundColor #80ffff
set namespaceSeparator ::
hide members

'Class and interface decorations
class Gnome::N::TopLevelClassSupport < Catch all class >

Interface Gnome::GObject::Signal <Interface>
class Gnome::GObject::Signal <<(R,#80ffff)>>

class Gnome::Gtk3::Buildable <<(R,#80ffff)>>
Interface Gnome::Gtk3::Buildable <Interface>

class Gnome::Gtk3::Orientable <<(R,#80ffff)>>
Interface Gnome::Gtk3::Orientable <Interface>

class Gnome::Gtk3::AppChooser <<(R,#80ffff)>>
Interface Gnome::Gtk3::AppChooser <Interface>


'Class connections
Gnome::N::TopLevelClassSupport <|- - Gnome::GObject::Object
Gnome::GObject::Object <|- - Gnome::GObject::InitialyUnowned
Gnome::GObject::Signal <|. Gnome::GObject::Object

Gnome::GObject::InitialyUnowned <|- - - Gnome::Gtk3::Widget

Gnome::Gtk3::Widget <|- Gnome::Gtk3::Container
Gnome::Gtk3::Widget ..|> Gnome::Gtk3::Buildable

Gnome::Gtk3::Container <|- Gnome::Gtk3::Box
Gnome::Gtk3::Box ..|> Gnome::Gtk3::Orientable

Gnome::Gtk3::Box <|- Gnome::Gtk3::AppChooserWidget
Gnome::Gtk3::AppChooserWidget ..|> Gnome::Gtk3::AppChooser
@enduml

@startuml
skinparam packageStyle rectangle
skinparam stereotypeCBackgroundColor #80ffff
set namespaceSeparator ::
hide members

class Gnome::N::TopLevelClassSupport < Catch all class >

Interface Gnome::GObject::Signal <Interface>
class Gnome::GObject::Signal <<(R,#80ffff)>>

class Gnome::Gtk3::Buildable <<(R,#80ffff)>>
Interface Gnome::Gtk3::Buildable <Interface>

class Gnome::Gtk3::Orientable <<(R,#80ffff)>>
Interface Gnome::Gtk3::Orientable <Interface>

class Gnome::Gtk3::AppChooser <<(R,#80ffff)>>
Interface Gnome::Gtk3::AppChooser <Interface>


Gnome::N::TopLevelClassSupport <|- - Gnome::GObject::Object
Gnome::GObject::Object <|- - Gnome::GObject::InitialyUnowned
Gnome::GObject::Signal <|. Gnome::GObject::Object

Gnome::GObject::InitialyUnowned <|- - - Gnome::Gtk3::Widget

Gnome::Gtk3::Widget <|- Gnome::Gtk3::Container
Gnome::Gtk3::Widget ..|> Gnome::Gtk3::Buildable

Gnome::Gtk3::Container <|- Gnome::Gtk3::Box
Gnome::Gtk3::Box ..|> Gnome::Gtk3::Orientable

Gnome::Gtk3::Box <|- Gnome::Gtk3::AppChooserWidget
Gnome::Gtk3::AppChooserWidget ..|> Gnome::Gtk3::AppChooser
@enduml

PlantUML version 1.2020.19(Mon Oct 12 17:10:01 CEST 2020)
(GPL source distribution)
Java Runtime: OpenJDK Runtime Environment
JVM: OpenJDK 64-Bit Server VM
Default Encoding: UTF-8
Language: en
Country: US
--></g></svg>