<?xml version="1.0" encoding="UTF-8" standalone="no"?><svg xmlns="http://www.w3.org/2000/svg" xmlns:xlink="http://www.w3.org/1999/xlink" contentScriptType="application/ecmascript" contentStyleType="text/css" height="500px" preserveAspectRatio="none" style="width:844px;height:500px;" version="1.1" viewBox="0 0 844 500" width="844px" zoomAndPan="magnify"><defs><filter height="300%" id="f1iu1mhwh2jyrx" width="300%" x="-1" y="-1"><feGaussianBlur result="blurOut" stdDeviation="2.0"/><feColorMatrix in="blurOut" result="blurOut2" type="matrix" values="0 0 0 0 0 0 0 0 0 0 0 0 0 0 0 0 0 0 .4 0"/><feOffset dx="4.0" dy="4.0" in="blurOut2" result="blurOut3"/><feBlend in="SourceGraphic" in2="blurOut3" mode="normal"/></filter></defs><g><!--MD5=[b969295f0ec9b4fa482091c3e26049be]
cluster Gnome::N--><rect fill="#FFFFFF" filter="url(#f1iu1mhwh2jyrx)" height="83" style="stroke: #000000; stroke-width: 1.5;" width="302" x="530" y="7"/><text fill="#000000" font-family="sans-serif" font-size="14" font-weight="bold" lengthAdjust="spacingAndGlyphs" textLength="79" x="641.5" y="21.9951">Gnome::N</text><!--MD5=[2fb3f9b624b0544b9841d5da78ec0508]
cluster Gnome::GObject--><rect fill="#FFFFFF" filter="url(#f1iu1mhwh2jyrx)" height="175" style="stroke: #000000; stroke-width: 1.5;" width="271" x="462" y="114"/><text fill="#000000" font-family="sans-serif" font-size="14" font-weight="bold" lengthAdjust="spacingAndGlyphs" textLength="131" x="532" y="128.9951">Gnome::GObject</text><!--MD5=[7d67f77911969026863717fbb204e273]
cluster Gnome::Gtk3--><rect fill="#FFFFFF" filter="url(#f1iu1mhwh2jyrx)" height="175" style="stroke: #000000; stroke-width: 1.5;" width="639" x="7" y="313"/><text fill="#000000" font-family="sans-serif" font-size="14" font-weight="bold" lengthAdjust="spacingAndGlyphs" textLength="105" x="274" y="327.9951">Gnome::Gtk3</text><!--MD5=[0b8e281ccd00c72019a31d78e9f95b5d]
class Gnome::N::TopLevelClassSupport--><rect codeLine="10" fill="#FEFECE" filter="url(#f1iu1mhwh2jyrx)" height="32" id="Gnome::N::TopLevelClassSupport" style="stroke: #A80036; stroke-width: 1.5;" width="269" x="546.5" y="42"/><ellipse cx="561.5" cy="58" fill="#80FFFF" rx="11" ry="11" style="stroke: #A80036; stroke-width: 1.0;"/><path d="M564.4688,63.6406 Q563.8906,63.9375 563.25,64.0781 Q562.6094,64.2344 561.9063,64.2344 Q559.4063,64.2344 558.0781,62.5938 Q556.7656,60.9375 556.7656,57.8125 Q556.7656,54.6875 558.0781,53.0313 Q559.4063,51.375 561.9063,51.375 Q562.6094,51.375 563.25,51.5313 Q563.9063,51.6875 564.4688,51.9844 L564.4688,54.7031 Q563.8438,54.125 563.25,53.8594 Q562.6563,53.5781 562.0313,53.5781 Q560.6875,53.5781 560,54.6563 Q559.3125,55.7188 559.3125,57.8125 Q559.3125,59.9063 560,60.9844 Q560.6875,62.0469 562.0313,62.0469 Q562.6563,62.0469 563.25,61.7813 Q563.8438,61.5 564.4688,60.9219 L564.4688,63.6406 Z "/><text fill="#000000" font-family="sans-serif" font-size="12" lengthAdjust="spacingAndGlyphs" textLength="137" x="575.5" y="62.1543">TopLevelClassSupport</text><rect fill="#FFFFFF" height="15.9688" style="stroke: #000000; stroke-width: 1.0; stroke-dasharray: 2.0,2.0;" width="98" x="720.5" y="39"/><text fill="#000000" font-family="sans-serif" font-size="12" font-style="italic" lengthAdjust="spacingAndGlyphs" textLength="88" x="725.5" y="51.1387">Catch all class</text><!--MD5=[52303d185de782118d4739c052001bf2]
class Gnome::GObject::Signal--><rect codeLine="13" fill="#FEFECE" filter="url(#f1iu1mhwh2jyrx)" height="32" id="Gnome::GObject::Signal" style="stroke: #A80036; stroke-width: 1.5;" width="131" x="478.5" y="149"/><ellipse cx="493.5" cy="165" fill="#80FFFF" rx="11" ry="11" style="stroke: #A80036; stroke-width: 1.0;"/><path d="M494.7031,165.1406 Q495.0625,165.2188 495.3281,165.5 Q495.6094,165.7656 496,166.5469 L498.2344,171 L495.5469,171 L494.0469,167.875 Q493.9844,167.7344 493.875,167.5 Q493.2188,166.1094 492.3281,166.1094 L491.5469,166.1094 L491.5469,171 L489.1094,171 L489.1094,158.6094 L492.6406,158.6094 Q495.0313,158.6094 496.0625,159.4531 Q497.1094,160.2969 497.1094,162.2031 Q497.1094,163.4844 496.4844,164.25 Q495.875,165 494.7031,165.1406 Z M491.5469,160.6719 L491.5469,164.0469 L492.7031,164.0469 Q493.7188,164.0469 494.1406,163.6563 Q494.5781,163.25 494.5781,162.3438 Q494.5781,161.4531 494.1406,161.0625 Q493.7188,160.6719 492.7031,160.6719 L491.5469,160.6719 Z "/><text fill="#000000" font-family="sans-serif" font-size="12" lengthAdjust="spacingAndGlyphs" textLength="38" x="507.5" y="169.1543">Signal</text><rect fill="#FFFFFF" height="15.9688" style="stroke: #000000; stroke-width: 1.0; stroke-dasharray: 2.0,2.0;" width="59" x="553.5" y="146"/><text fill="#000000" font-family="sans-serif" font-size="12" font-style="italic" lengthAdjust="spacingAndGlyphs" textLength="57" x="554.5" y="158.1387">Interface</text><!--MD5=[c2016d28441601ceb0a74f47a4537d14]
class Gnome::GObject::Object--><rect fill="#FEFECE" filter="url(#f1iu1mhwh2jyrx)" height="32" id="Gnome::GObject::Object" style="stroke: #A80036; stroke-width: 1.5;" width="72" x="645" y="149"/><ellipse cx="660" cy="165" fill="#80FFFF" rx="11" ry="11" style="stroke: #A80036; stroke-width: 1.0;"/><path d="M662.9688,170.6406 Q662.3906,170.9375 661.75,171.0781 Q661.1094,171.2344 660.4063,171.2344 Q657.9063,171.2344 656.5781,169.5938 Q655.2656,167.9375 655.2656,164.8125 Q655.2656,161.6875 656.5781,160.0313 Q657.9063,158.375 660.4063,158.375 Q661.1094,158.375 661.75,158.5313 Q662.4063,158.6875 662.9688,158.9844 L662.9688,161.7031 Q662.3438,161.125 661.75,160.8594 Q661.1563,160.5781 660.5313,160.5781 Q659.1875,160.5781 658.5,161.6563 Q657.8125,162.7188 657.8125,164.8125 Q657.8125,166.9063 658.5,167.9844 Q659.1875,169.0469 660.5313,169.0469 Q661.1563,169.0469 661.75,168.7813 Q662.3438,168.5 662.9688,167.9219 L662.9688,170.6406 Z "/><text fill="#000000" font-family="sans-serif" font-size="12" lengthAdjust="spacingAndGlyphs" textLength="40" x="674" y="169.1543">Object</text><!--MD5=[f47b9a4a06d3f9bed948fa39f8c5540e]
class Gnome::GObject::InitialyUnowned--><rect fill="#FEFECE" filter="url(#f1iu1mhwh2jyrx)" height="32" id="Gnome::GObject::InitialyUnowned" style="stroke: #A80036; stroke-width: 1.5;" width="129" x="587.5" y="241"/><ellipse cx="602.5" cy="257" fill="#80FFFF" rx="11" ry="11" style="stroke: #A80036; stroke-width: 1.0;"/><path d="M605.4688,262.6406 Q604.8906,262.9375 604.25,263.0781 Q603.6094,263.2344 602.9063,263.2344 Q600.4063,263.2344 599.0781,261.5938 Q597.7656,259.9375 597.7656,256.8125 Q597.7656,253.6875 599.0781,252.0313 Q600.4063,250.375 602.9063,250.375 Q603.6094,250.375 604.25,250.5313 Q604.9063,250.6875 605.4688,250.9844 L605.4688,253.7031 Q604.8438,253.125 604.25,252.8594 Q603.6563,252.5781 603.0313,252.5781 Q601.6875,252.5781 601,253.6563 Q600.3125,254.7188 600.3125,256.8125 Q600.3125,258.9063 601,259.9844 Q601.6875,261.0469 603.0313,261.0469 Q603.6563,261.0469 604.25,260.7813 Q604.8438,260.5 605.4688,259.9219 L605.4688,262.6406 Z "/><text fill="#000000" font-family="sans-serif" font-size="12" lengthAdjust="spacingAndGlyphs" textLength="97" x="616.5" y="261.1543">InitialyUnowned</text><!--MD5=[fc528952aa489a9a9f8514412a46a5d5]
class Gnome::Gtk3::Buildable--><rect codeLine="16" fill="#FEFECE" filter="url(#f1iu1mhwh2jyrx)" height="32" id="Gnome::Gtk3::Buildable" style="stroke: #A80036; stroke-width: 1.5;" width="150" x="449" y="348"/><ellipse cx="464" cy="364" fill="#80FFFF" rx="11" ry="11" style="stroke: #A80036; stroke-width: 1.0;"/><path d="M465.2031,364.1406 Q465.5625,364.2188 465.8281,364.5 Q466.1094,364.7656 466.5,365.5469 L468.7344,370 L466.0469,370 L464.5469,366.875 Q464.4844,366.7344 464.375,366.5 Q463.7188,365.1094 462.8281,365.1094 L462.0469,365.1094 L462.0469,370 L459.6094,370 L459.6094,357.6094 L463.1406,357.6094 Q465.5313,357.6094 466.5625,358.4531 Q467.6094,359.2969 467.6094,361.2031 Q467.6094,362.4844 466.9844,363.25 Q466.375,364 465.2031,364.1406 Z M462.0469,359.6719 L462.0469,363.0469 L463.2031,363.0469 Q464.2188,363.0469 464.6406,362.6563 Q465.0781,362.25 465.0781,361.3438 Q465.0781,360.4531 464.6406,360.0625 Q464.2188,359.6719 463.2031,359.6719 L462.0469,359.6719 Z "/><text fill="#000000" font-family="sans-serif" font-size="12" lengthAdjust="spacingAndGlyphs" textLength="57" x="478" y="368.1543">Buildable</text><rect fill="#FFFFFF" height="15.9688" style="stroke: #000000; stroke-width: 1.0; stroke-dasharray: 2.0,2.0;" width="59" x="543" y="345"/><text fill="#000000" font-family="sans-serif" font-size="12" font-style="italic" lengthAdjust="spacingAndGlyphs" textLength="57" x="544" y="357.1387">Interface</text><!--MD5=[97d61f3f7bcf9b4e0be02d0c7791b1cd]
class Gnome::Gtk3::CellLayout--><rect codeLine="19" fill="#FEFECE" filter="url(#f1iu1mhwh2jyrx)" height="32" id="Gnome::Gtk3::CellLayout" style="stroke: #A80036; stroke-width: 1.5;" width="156" x="228" y="348"/><ellipse cx="243" cy="364" fill="#80FFFF" rx="11" ry="11" style="stroke: #A80036; stroke-width: 1.0;"/><path d="M244.2031,364.1406 Q244.5625,364.2188 244.8281,364.5 Q245.1094,364.7656 245.5,365.5469 L247.7344,370 L245.0469,370 L243.5469,366.875 Q243.4844,366.7344 243.375,366.5 Q242.7188,365.1094 241.8281,365.1094 L241.0469,365.1094 L241.0469,370 L238.6094,370 L238.6094,357.6094 L242.1406,357.6094 Q244.5313,357.6094 245.5625,358.4531 Q246.6094,359.2969 246.6094,361.2031 Q246.6094,362.4844 245.9844,363.25 Q245.375,364 244.2031,364.1406 Z M241.0469,359.6719 L241.0469,363.0469 L242.2031,363.0469 Q243.2188,363.0469 243.6406,362.6563 Q244.0781,362.25 244.0781,361.3438 Q244.0781,360.4531 243.6406,360.0625 Q243.2188,359.6719 242.2031,359.6719 L241.0469,359.6719 Z "/><text fill="#000000" font-family="sans-serif" font-size="12" lengthAdjust="spacingAndGlyphs" textLength="63" x="257" y="368.1543">CellLayout</text><rect fill="#FFFFFF" height="15.9688" style="stroke: #000000; stroke-width: 1.0; stroke-dasharray: 2.0,2.0;" width="59" x="328" y="345"/><text fill="#000000" font-family="sans-serif" font-size="12" font-style="italic" lengthAdjust="spacingAndGlyphs" textLength="57" x="329" y="357.1387">Interface</text><!--MD5=[7c1758a09004760757060230ff805361]
class Gnome::Gtk3::AppChooser--><rect codeLine="22" fill="#FEFECE" filter="url(#f1iu1mhwh2jyrx)" height="32" id="Gnome::Gtk3::AppChooser" style="stroke: #A80036; stroke-width: 1.5;" width="169" x="23.5" y="348"/><ellipse cx="38.5" cy="364" fill="#80FFFF" rx="11" ry="11" style="stroke: #A80036; stroke-width: 1.0;"/><path d="M39.7031,364.1406 Q40.0625,364.2188 40.3281,364.5 Q40.6094,364.7656 41,365.5469 L43.2344,370 L40.5469,370 L39.0469,366.875 Q38.9844,366.7344 38.875,366.5 Q38.2188,365.1094 37.3281,365.1094 L36.5469,365.1094 L36.5469,370 L34.1094,370 L34.1094,357.6094 L37.6406,357.6094 Q40.0313,357.6094 41.0625,358.4531 Q42.1094,359.2969 42.1094,361.2031 Q42.1094,362.4844 41.4844,363.25 Q40.875,364 39.7031,364.1406 Z M36.5469,359.6719 L36.5469,363.0469 L37.7031,363.0469 Q38.7188,363.0469 39.1406,362.6563 Q39.5781,362.25 39.5781,361.3438 Q39.5781,360.4531 39.1406,360.0625 Q38.7188,359.6719 37.7031,359.6719 L36.5469,359.6719 Z "/><text fill="#000000" font-family="sans-serif" font-size="12" lengthAdjust="spacingAndGlyphs" textLength="76" x="52.5" y="368.1543">AppChooser</text><rect fill="#FFFFFF" height="15.9688" style="stroke: #000000; stroke-width: 1.0; stroke-dasharray: 2.0,2.0;" width="59" x="136.5" y="345"/><text fill="#000000" font-family="sans-serif" font-size="12" font-style="italic" lengthAdjust="spacingAndGlyphs" textLength="57" x="137.5" y="357.1387">Interface</text><!--MD5=[99c1fd59bdfde6048aec9e6766dd53ef]
class Gnome::Gtk3::Widget--><rect fill="#FEFECE" filter="url(#f1iu1mhwh2jyrx)" height="32" id="Gnome::Gtk3::Widget" style="stroke: #A80036; stroke-width: 1.5;" width="75" x="554.5" y="440"/><ellipse cx="569.5" cy="456" fill="#80FFFF" rx="11" ry="11" style="stroke: #A80036; stroke-width: 1.0;"/><path d="M572.4688,461.6406 Q571.8906,461.9375 571.25,462.0781 Q570.6094,462.2344 569.9063,462.2344 Q567.4063,462.2344 566.0781,460.5938 Q564.7656,458.9375 564.7656,455.8125 Q564.7656,452.6875 566.0781,451.0313 Q567.4063,449.375 569.9063,449.375 Q570.6094,449.375 571.25,449.5313 Q571.9063,449.6875 572.4688,449.9844 L572.4688,452.7031 Q571.8438,452.125 571.25,451.8594 Q570.6563,451.5781 570.0313,451.5781 Q568.6875,451.5781 568,452.6563 Q567.3125,453.7188 567.3125,455.8125 Q567.3125,457.9063 568,458.9844 Q568.6875,460.0469 570.0313,460.0469 Q570.6563,460.0469 571.25,459.7813 Q571.8438,459.5 572.4688,458.9219 L572.4688,461.6406 Z "/><text fill="#000000" font-family="sans-serif" font-size="12" lengthAdjust="spacingAndGlyphs" textLength="43" x="583.5" y="460.1543">Widget</text><!--MD5=[6ac0a199e9a9e53d446254a1d59f3468]
class Gnome::Gtk3::Bin--><rect fill="#FEFECE" filter="url(#f1iu1mhwh2jyrx)" height="32" id="Gnome::Gtk3::Bin" style="stroke: #A80036; stroke-width: 1.5;" width="51" x="340.5" y="440"/><ellipse cx="355.5" cy="456" fill="#80FFFF" rx="11" ry="11" style="stroke: #A80036; stroke-width: 1.0;"/><path d="M358.4688,461.6406 Q357.8906,461.9375 357.25,462.0781 Q356.6094,462.2344 355.9063,462.2344 Q353.4063,462.2344 352.0781,460.5938 Q350.7656,458.9375 350.7656,455.8125 Q350.7656,452.6875 352.0781,451.0313 Q353.4063,449.375 355.9063,449.375 Q356.6094,449.375 357.25,449.5313 Q357.9063,449.6875 358.4688,449.9844 L358.4688,452.7031 Q357.8438,452.125 357.25,451.8594 Q356.6563,451.5781 356.0313,451.5781 Q354.6875,451.5781 354,452.6563 Q353.3125,453.7188 353.3125,455.8125 Q353.3125,457.9063 354,458.9844 Q354.6875,460.0469 356.0313,460.0469 Q356.6563,460.0469 357.25,459.7813 Q357.8438,459.5 358.4688,458.9219 L358.4688,461.6406 Z "/><text fill="#000000" font-family="sans-serif" font-size="12" lengthAdjust="spacingAndGlyphs" textLength="19" x="369.5" y="460.1543">Bin</text><!--MD5=[9e3cc955f682d05594420e46d2e4e3ea]
class Gnome::Gtk3::Container--><rect fill="#FEFECE" filter="url(#f1iu1mhwh2jyrx)" height="32" id="Gnome::Gtk3::Container" style="stroke: #A80036; stroke-width: 1.5;" width="93" x="426.5" y="440"/><ellipse cx="441.5" cy="456" fill="#80FFFF" rx="11" ry="11" style="stroke: #A80036; stroke-width: 1.0;"/><path d="M444.4688,461.6406 Q443.8906,461.9375 443.25,462.0781 Q442.6094,462.2344 441.9063,462.2344 Q439.4063,462.2344 438.0781,460.5938 Q436.7656,458.9375 436.7656,455.8125 Q436.7656,452.6875 438.0781,451.0313 Q439.4063,449.375 441.9063,449.375 Q442.6094,449.375 443.25,449.5313 Q443.9063,449.6875 444.4688,449.9844 L444.4688,452.7031 Q443.8438,452.125 443.25,451.8594 Q442.6563,451.5781 442.0313,451.5781 Q440.6875,451.5781 440,452.6563 Q439.3125,453.7188 439.3125,455.8125 Q439.3125,457.9063 440,458.9844 Q440.6875,460.0469 442.0313,460.0469 Q442.6563,460.0469 443.25,459.7813 Q443.8438,459.5 444.4688,458.9219 L444.4688,461.6406 Z "/><text fill="#000000" font-family="sans-serif" font-size="12" lengthAdjust="spacingAndGlyphs" textLength="61" x="455.5" y="460.1543">Container</text><!--MD5=[ea58c5821a5f9d1ff91fe2c0bb7ddbcf]
class Gnome::Gtk3::ComboBox--><rect fill="#FEFECE" filter="url(#f1iu1mhwh2jyrx)" height="32" id="Gnome::Gtk3::ComboBox" style="stroke: #A80036; stroke-width: 1.5;" width="97" x="208.5" y="440"/><ellipse cx="223.5" cy="456" fill="#80FFFF" rx="11" ry="11" style="stroke: #A80036; stroke-width: 1.0;"/><path d="M226.4688,461.6406 Q225.8906,461.9375 225.25,462.0781 Q224.6094,462.2344 223.9063,462.2344 Q221.4063,462.2344 220.0781,460.5938 Q218.7656,458.9375 218.7656,455.8125 Q218.7656,452.6875 220.0781,451.0313 Q221.4063,449.375 223.9063,449.375 Q224.6094,449.375 225.25,449.5313 Q225.9063,449.6875 226.4688,449.9844 L226.4688,452.7031 Q225.8438,452.125 225.25,451.8594 Q224.6563,451.5781 224.0313,451.5781 Q222.6875,451.5781 222,452.6563 Q221.3125,453.7188 221.3125,455.8125 Q221.3125,457.9063 222,458.9844 Q222.6875,460.0469 224.0313,460.0469 Q224.6563,460.0469 225.25,459.7813 Q225.8438,459.5 226.4688,458.9219 L226.4688,461.6406 Z "/><text fill="#000000" font-family="sans-serif" font-size="12" lengthAdjust="spacingAndGlyphs" textLength="65" x="237.5" y="460.1543">ComboBox</text><!--MD5=[93f94a6bbf5ef82fa8c1db6c7ae91565]
class Gnome::Gtk3::AppChooserButton--><rect fill="#FEFECE" filter="url(#f1iu1mhwh2jyrx)" height="32" id="Gnome::Gtk3::AppChooserButton" style="stroke: #A80036; stroke-width: 1.5;" width="150" x="23" y="440"/><ellipse cx="38" cy="456" fill="#80FFFF" rx="11" ry="11" style="stroke: #A80036; stroke-width: 1.0;"/><path d="M40.9688,461.6406 Q40.3906,461.9375 39.75,462.0781 Q39.1094,462.2344 38.4063,462.2344 Q35.9063,462.2344 34.5781,460.5938 Q33.2656,458.9375 33.2656,455.8125 Q33.2656,452.6875 34.5781,451.0313 Q35.9063,449.375 38.4063,449.375 Q39.1094,449.375 39.75,449.5313 Q40.4063,449.6875 40.9688,449.9844 L40.9688,452.7031 Q40.3438,452.125 39.75,451.8594 Q39.1563,451.5781 38.5313,451.5781 Q37.1875,451.5781 36.5,452.6563 Q35.8125,453.7188 35.8125,455.8125 Q35.8125,457.9063 36.5,458.9844 Q37.1875,460.0469 38.5313,460.0469 Q39.1563,460.0469 39.75,459.7813 Q40.3438,459.5 40.9688,458.9219 L40.9688,461.6406 Z "/><text fill="#000000" font-family="sans-serif" font-size="12" lengthAdjust="spacingAndGlyphs" textLength="118" x="52" y="460.1543">AppChooserButton</text><!--MD5=[e23b679cf607d12ac81e9c5301595709]
reverse link Gnome::N::TopLevelClassSupport to Gnome::GObject::Object--><path codeLine="26" d="M681,94.1 C681,112.76 681,134.73 681,148.98 " fill="none" id="Gnome::N::TopLevelClassSupport-backto-Gnome::GObject::Object" style="stroke: #A80036; stroke-width: 1.0;"/><polygon fill="none" points="674,94.04,681,74.04,688,94.04,674,94.04" style="stroke: #A80036; stroke-width: 1.0;"/><!--MD5=[aa49dbc803ccf1c2ef8546b297b1dcfd]
reverse link Gnome::GObject::InitialyUnowned to Gnome::Gtk3::Widget--><path codeLine="27" d="M642.02,292.59 C634.91,317.05 625.04,350.59 616,380 C609.61,400.78 601.9,424.68 596.97,439.81 " fill="none" id="Gnome::GObject::InitialyUnowned-backto-Gnome::Gtk3::Widget" style="stroke: #A80036; stroke-width: 1.0;"/><polygon fill="none" points="635.39,290.32,647.68,273.06,648.84,294.22,635.39,290.32" style="stroke: #A80036; stroke-width: 1.0;"/><!--MD5=[2e57c6084092ea441ae4a3f826779dd8]
reverse link Gnome::GObject::Object to Gnome::GObject::InitialyUnowned--><path codeLine="29" d="M669.84,200.63 C665.34,214.59 660.39,229.96 656.85,240.96 " fill="none" id="Gnome::GObject::Object-backto-Gnome::GObject::InitialyUnowned" style="stroke: #A80036; stroke-width: 1.0;"/><polygon fill="none" points="663.28,198.16,676.08,181.27,676.61,202.45,663.28,198.16" style="stroke: #A80036; stroke-width: 1.0;"/><!--MD5=[f8ffcf4587ba956cb48626a4231e4d21]
reverse link Gnome::GObject::Signal to Gnome::GObject::Object--><path codeLine="30" d="M629.77,165 C634.85,165 639.92,165 645,165 " fill="none" id="Gnome::GObject::Signal-backto-Gnome::GObject::Object" style="stroke: #A80036; stroke-width: 1.0; stroke-dasharray: 7.0,7.0;"/><polygon fill="none" points="629.56,172,609.56,165,629.56,158,629.56,172" style="stroke: #A80036; stroke-width: 1.0;"/><!--MD5=[1335099fcd58edb25b444005b6858935]
reverse link Gnome::Gtk3::Buildable to Gnome::Gtk3::Widget--><path codeLine="32" d="M547.95,396.69 C559.06,411.4 571.74,428.18 580.64,439.96 " fill="none" id="Gnome::Gtk3::Buildable-backto-Gnome::Gtk3::Widget" style="stroke: #A80036; stroke-width: 1.0; stroke-dasharray: 7.0,7.0;"/><polygon fill="none" points="542.01,400.44,535.54,380.27,553.18,392,542.01,400.44" style="stroke: #A80036; stroke-width: 1.0;"/><!--MD5=[aa2b56f221bfaa2860ef37394f2d22b5]
link Gnome::Gtk3::Bin to Gnome::Gtk3::Container--><path codeLine="34" d="M391.91,456 C396.68,456 401.44,456 406.21,456 " fill="none" id="Gnome::Gtk3::Bin-to-Gnome::Gtk3::Container" style="stroke: #A80036; stroke-width: 1.0;"/><polygon fill="none" points="406.44,449,426.44,456,406.44,463,406.44,449" style="stroke: #A80036; stroke-width: 1.0;"/><!--MD5=[aaf476f5d2312b98d0ee61e81272172c]
link Gnome::Gtk3::Container to Gnome::Gtk3::Widget--><path codeLine="35" d="M519.95,456 C524.69,456 529.43,456 534.17,456 " fill="none" id="Gnome::Gtk3::Container-to-Gnome::Gtk3::Widget" style="stroke: #A80036; stroke-width: 1.0;"/><polygon fill="none" points="534.29,449,554.29,456,534.29,463,534.29,449" style="stroke: #A80036; stroke-width: 1.0;"/><!--MD5=[7037f239cbc7217abe0150902e7fefae]
link Gnome::Gtk3::ComboBox to Gnome::Gtk3::Bin--><path codeLine="36" d="M305.54,456 C310.45,456 315.37,456 320.29,456 " fill="none" id="Gnome::Gtk3::ComboBox-to-Gnome::Gtk3::Bin" style="stroke: #A80036; stroke-width: 1.0;"/><polygon fill="none" points="320.49,449,340.49,456,320.49,463,320.49,449" style="stroke: #A80036; stroke-width: 1.0;"/><!--MD5=[b6c30bf801747e41bc2c0bfe2ce76686]
reverse link Gnome::Gtk3::CellLayout to Gnome::Gtk3::ComboBox--><path codeLine="37" d="M287.95,398.15 C280.14,412.5 271.39,428.57 265.19,439.96 " fill="none" id="Gnome::Gtk3::CellLayout-backto-Gnome::Gtk3::ComboBox" style="stroke: #A80036; stroke-width: 1.0; stroke-dasharray: 7.0,7.0;"/><polygon fill="none" points="281.98,394.49,297.69,380.27,294.27,401.18,281.98,394.49" style="stroke: #A80036; stroke-width: 1.0;"/><!--MD5=[c445d5f02a41ce907fb408b402816ddc]
link Gnome::Gtk3::AppChooserButton to Gnome::Gtk3::ComboBox--><path codeLine="38" d="M173.15,456 C178.08,456 183.01,456 187.94,456 " fill="none" id="Gnome::Gtk3::AppChooserButton-to-Gnome::Gtk3::ComboBox" style="stroke: #A80036; stroke-width: 1.0;"/><polygon fill="none" points="188.2,449,208.2,456,188.2,463,188.2,449" style="stroke: #A80036; stroke-width: 1.0;"/><!--MD5=[f7c3f49c740fbae41ebde3293f74f156]
reverse link Gnome::Gtk3::AppChooser to Gnome::Gtk3::AppChooserButton--><path codeLine="39" d="M104.04,400.61 C102.52,414.31 100.86,429.22 99.67,439.96 " fill="none" id="Gnome::Gtk3::AppChooser-backto-Gnome::Gtk3::AppChooserButton" style="stroke: #A80036; stroke-width: 1.0; stroke-dasharray: 7.0,7.0;"/><polygon fill="none" points="97.14,399.37,106.3,380.27,111.05,400.92,97.14,399.37" style="stroke: #A80036; stroke-width: 1.0;"/><!--MD5=[89745a2ecefbe7f7ec86aade3f119a44]
@startuml
'scale 0.9
skinparam packageStyle rectangle
skinparam stereotypeCBackgroundColor #80ffff
set namespaceSeparator ::
hide members


'Class and interface decorations
class Gnome::N::TopLevelClassSupport < Catch all class >

Interface Gnome::GObject::Signal <Interface>
class Gnome::GObject::Signal <<(R,#80ffff)>>

Interface Gnome::Gtk3::Buildable <Interface>
class Gnome::Gtk3::Buildable <<(R,#80ffff)>>

Interface Gnome::Gtk3::CellLayout <Interface>
class Gnome::Gtk3::CellLayout <<(R,#80ffff)>>

Interface Gnome::Gtk3::AppChooser <Interface>
class Gnome::Gtk3::AppChooser <<(R,#80ffff)>>


'Class connections
Gnome::N::TopLevelClassSupport <|- - Gnome::GObject::Object
Gnome::GObject::InitialyUnowned <|- - - Gnome::Gtk3::Widget

Gnome::GObject::Object <|- - Gnome::GObject::InitialyUnowned
Gnome::GObject::Signal <|. Gnome::GObject::Object

Gnome::Gtk3::Widget .up.|>Gnome::Gtk3::Buildable

Gnome::Gtk3::Bin -|> Gnome::Gtk3::Container
Gnome::Gtk3::Container -|> Gnome::Gtk3::Widget
Gnome::Gtk3::Bin <|-left- Gnome::Gtk3::ComboBox
Gnome::Gtk3::ComboBox .up.|> Gnome::Gtk3::CellLayout
Gnome::Gtk3::ComboBox <|-left- Gnome::Gtk3::AppChooserButton
Gnome::Gtk3::AppChooserButton .up.|> Gnome::Gtk3::AppChooser

@enduml

@startuml
skinparam packageStyle rectangle
skinparam stereotypeCBackgroundColor #80ffff
set namespaceSeparator ::
hide members


class Gnome::N::TopLevelClassSupport < Catch all class >

Interface Gnome::GObject::Signal <Interface>
class Gnome::GObject::Signal <<(R,#80ffff)>>

Interface Gnome::Gtk3::Buildable <Interface>
class Gnome::Gtk3::Buildable <<(R,#80ffff)>>

Interface Gnome::Gtk3::CellLayout <Interface>
class Gnome::Gtk3::CellLayout <<(R,#80ffff)>>

Interface Gnome::Gtk3::AppChooser <Interface>
class Gnome::Gtk3::AppChooser <<(R,#80ffff)>>


Gnome::N::TopLevelClassSupport <|- - Gnome::GObject::Object
Gnome::GObject::InitialyUnowned <|- - - Gnome::Gtk3::Widget

Gnome::GObject::Object <|- - Gnome::GObject::InitialyUnowned
Gnome::GObject::Signal <|. Gnome::GObject::Object

Gnome::Gtk3::Widget .up.|>Gnome::Gtk3::Buildable

Gnome::Gtk3::Bin -|> Gnome::Gtk3::Container
Gnome::Gtk3::Container -|> Gnome::Gtk3::Widget
Gnome::Gtk3::Bin <|-left- Gnome::Gtk3::ComboBox
Gnome::Gtk3::ComboBox .up.|> Gnome::Gtk3::CellLayout
Gnome::Gtk3::ComboBox <|-left- Gnome::Gtk3::AppChooserButton
Gnome::Gtk3::AppChooserButton .up.|> Gnome::Gtk3::AppChooser

@enduml

PlantUML version 1.2020.19(Mon Oct 12 17:10:01 CEST 2020)
(GPL source distribution)
Java Runtime: OpenJDK Runtime Environment
JVM: OpenJDK 64-Bit Server VM
Default Encoding: UTF-8
Language: en
Country: US
--></g></svg>