<?xml version="1.0" encoding="UTF-8" standalone="no"?><svg xmlns="http://www.w3.org/2000/svg" xmlns:xlink="http://www.w3.org/1999/xlink" contentScriptType="application/ecmascript" contentStyleType="text/css" height="581.4px" preserveAspectRatio="none" style="width:400px;height:581px;" version="1.1" viewBox="0 0 400 581" width="400.5px" zoomAndPan="magnify"><defs><filter height="300%" id="f58waui7hyyb" width="300%" x="-1" y="-1"><feGaussianBlur result="blurOut" stdDeviation="1.8"/><feColorMatrix in="blurOut" result="blurOut2" type="matrix" values="0 0 0 0 0 0 0 0 0 0 0 0 0 0 0 0 0 0 .4 0"/><feOffset dx="3.6" dy="3.6" in="blurOut2" result="blurOut3"/><feBlend in="SourceGraphic" in2="blurOut3" mode="normal"/></filter></defs><g><!--cluster Gnome::N--><rect fill="#FFFFFF" filter="url(#f58waui7hyyb)" height="60.3" style="stroke: #000000; stroke-width: 1.35;" width="257.4" x="47.7" y="14.4"/><text fill="#000000" font-family="sans-serif" font-size="12.6" font-weight="bold" lengthAdjust="spacingAndGlyphs" textLength="71.1" x="140.85" y="27.8956">Gnome::N</text><!--cluster Gnome::Gtk3--><rect fill="#FFFFFF" filter="url(#f58waui7hyyb)" height="308.7" style="stroke: #000000; stroke-width: 1.35;" width="378" x="12.6" y="262.8"/><text fill="#000000" font-family="sans-serif" font-size="12.6" font-weight="bold" lengthAdjust="spacingAndGlyphs" textLength="94.5" x="154.35" y="276.2956">Gnome::Gtk3</text><!--cluster Gnome::GObject--><rect fill="#FFFFFF" filter="url(#f58waui7hyyb)" height="143.1" style="stroke: #000000; stroke-width: 1.35;" width="173.7" x="136.8" y="97.2"/><text fill="#000000" font-family="sans-serif" font-size="12.6" font-weight="bold" lengthAdjust="spacingAndGlyphs" textLength="117.9" x="164.7" y="110.6956">Gnome::GObject</text><!--class Gnome::N::TopLevelClassSupport--><rect fill="#FEFECE" filter="url(#f58waui7hyyb)" height="28.8" id="Gnome::N::TopLevelClassSupport" style="stroke: #A80036; stroke-width: 1.35;" width="242.1" x="55.35" y="38.7"/><ellipse cx="68.85" cy="53.1" fill="#80FFFF" rx="9.9" ry="9.9" style="stroke: #A80036; stroke-width: 0.9;"/><path d="M71.5219,58.1766 Q71.0016,58.4438 70.425,58.5703 Q69.8484,58.7109 69.2156,58.7109 Q66.9656,58.7109 65.7703,57.2344 Q64.5891,55.7438 64.5891,52.9313 Q64.5891,50.1188 65.7703,48.6281 Q66.9656,47.1375 69.2156,47.1375 Q69.8484,47.1375 70.425,47.2781 Q71.0156,47.4188 71.5219,47.6859 L71.5219,50.1328 Q70.9594,49.6125 70.425,49.3734 Q69.8906,49.1203 69.3281,49.1203 Q68.1188,49.1203 67.5,50.0906 Q66.8813,51.0469 66.8813,52.9313 Q66.8813,54.8156 67.5,55.7859 Q68.1188,56.7422 69.3281,56.7422 Q69.8906,56.7422 70.425,56.5031 Q70.9594,56.25 71.5219,55.7297 L71.5219,58.1766 Z "/><text fill="#000000" font-family="sans-serif" font-size="10.8" lengthAdjust="spacingAndGlyphs" textLength="123.3" x="81.45" y="56.8626">TopLevelClassSupport</text><rect fill="#FFFFFF" height="14.3719" style="stroke: #000000; stroke-width: 0.9; stroke-dasharray: 2.0,2.0;" width="88.2" x="211.95" y="36"/><text fill="#000000" font-family="sans-serif" font-size="10.8" font-style="italic" lengthAdjust="spacingAndGlyphs" textLength="79.2" x="216.45" y="46.9248">Catch all class</text><!--class Gnome::Gtk3::Buildable--><rect fill="#FEFECE" filter="url(#f58waui7hyyb)" height="28.8" id="Gnome::Gtk3::Buildable" style="stroke: #A80036; stroke-width: 1.35;" width="135" x="19.8" y="287.1"/><ellipse cx="33.3" cy="301.5" fill="#80FFFF" rx="9.9" ry="9.9" style="stroke: #A80036; stroke-width: 0.9;"/><path d="M34.3828,301.6266 Q34.7063,301.6969 34.9453,301.95 Q35.1984,302.1891 35.55,302.8922 L37.5609,306.9 L35.1422,306.9 L33.7922,304.0875 Q33.7359,303.9609 33.6375,303.75 Q33.0469,302.4984 32.2453,302.4984 L31.5422,302.4984 L31.5422,306.9 L29.3484,306.9 L29.3484,295.7484 L32.5266,295.7484 Q34.6781,295.7484 35.6063,296.5078 Q36.5484,297.2672 36.5484,298.9828 Q36.5484,300.1359 35.9859,300.825 Q35.4375,301.5 34.3828,301.6266 Z M31.5422,297.6047 L31.5422,300.6422 L32.5828,300.6422 Q33.4969,300.6422 33.8766,300.2906 Q34.2703,299.925 34.2703,299.1094 Q34.2703,298.3078 33.8766,297.9563 Q33.4969,297.6047 32.5828,297.6047 L31.5422,297.6047 Z "/><text fill="#000000" font-family="sans-serif" font-size="10.8" lengthAdjust="spacingAndGlyphs" textLength="51.3" x="45.9" y="305.2626">Buildable</text><rect fill="#FFFFFF" height="14.3719" style="stroke: #000000; stroke-width: 0.9; stroke-dasharray: 2.0,2.0;" width="53.1" x="104.4" y="284.4"/><text fill="#000000" font-family="sans-serif" font-size="10.8" font-style="italic" lengthAdjust="spacingAndGlyphs" textLength="51.3" x="105.3" y="295.3248">Interface</text><!--class Gnome::Gtk3::AppChooser--><rect fill="#FEFECE" filter="url(#f58waui7hyyb)" height="28.8" id="Gnome::Gtk3::AppChooser" style="stroke: #A80036; stroke-width: 1.35;" width="152.1" x="131.85" y="452.7"/><ellipse cx="145.35" cy="467.1" fill="#80FFFF" rx="9.9" ry="9.9" style="stroke: #A80036; stroke-width: 0.9;"/><path d="M146.4328,467.2266 Q146.7563,467.2969 146.9953,467.55 Q147.2484,467.7891 147.6,468.4922 L149.6109,472.5 L147.1922,472.5 L145.8422,469.6875 Q145.7859,469.5609 145.6875,469.35 Q145.0969,468.0984 144.2953,468.0984 L143.5922,468.0984 L143.5922,472.5 L141.3984,472.5 L141.3984,461.3484 L144.5766,461.3484 Q146.7281,461.3484 147.6563,462.1078 Q148.5984,462.8672 148.5984,464.5828 Q148.5984,465.7359 148.0359,466.425 Q147.4875,467.1 146.4328,467.2266 Z M143.5922,463.2047 L143.5922,466.2422 L144.6328,466.2422 Q145.5469,466.2422 145.9266,465.8906 Q146.3203,465.525 146.3203,464.7094 Q146.3203,463.9078 145.9266,463.5563 Q145.5469,463.2047 144.6328,463.2047 L143.5922,463.2047 Z "/><text fill="#000000" font-family="sans-serif" font-size="10.8" lengthAdjust="spacingAndGlyphs" textLength="68.4" x="157.95" y="470.8626">AppChooser</text><rect fill="#FFFFFF" height="14.3719" style="stroke: #000000; stroke-width: 0.9; stroke-dasharray: 2.0,2.0;" width="53.1" x="233.55" y="450"/><text fill="#000000" font-family="sans-serif" font-size="10.8" font-style="italic" lengthAdjust="spacingAndGlyphs" textLength="51.3" x="234.45" y="460.9248">Interface</text><!--class Gnome::Gtk3::Widget--><rect fill="#FEFECE" filter="url(#f58waui7hyyb)" height="28.8" id="Gnome::Gtk3::Widget" style="stroke: #A80036; stroke-width: 1.35;" width="67.5" x="20.25" y="369.9"/><ellipse cx="33.75" cy="384.3" fill="#80FFFF" rx="9.9" ry="9.9" style="stroke: #A80036; stroke-width: 0.9;"/><path d="M36.4219,389.3766 Q35.9016,389.6438 35.325,389.7703 Q34.7484,389.9109 34.1156,389.9109 Q31.8656,389.9109 30.6703,388.4344 Q29.4891,386.9438 29.4891,384.1313 Q29.4891,381.3188 30.6703,379.8281 Q31.8656,378.3375 34.1156,378.3375 Q34.7484,378.3375 35.325,378.4781 Q35.9156,378.6188 36.4219,378.8859 L36.4219,381.3328 Q35.8594,380.8125 35.325,380.5734 Q34.7906,380.3203 34.2281,380.3203 Q33.0188,380.3203 32.4,381.2906 Q31.7813,382.2469 31.7813,384.1313 Q31.7813,386.0156 32.4,386.9859 Q33.0188,387.9422 34.2281,387.9422 Q34.7906,387.9422 35.325,387.7031 Q35.8594,387.45 36.4219,386.9297 L36.4219,389.3766 Z "/><text fill="#000000" font-family="sans-serif" font-size="10.8" lengthAdjust="spacingAndGlyphs" textLength="38.7" x="46.35" y="388.0626">Widget</text><!--class Gnome::Gtk3::Container--><rect fill="#FEFECE" filter="url(#f58waui7hyyb)" height="28.8" id="Gnome::Gtk3::Container" style="stroke: #A80036; stroke-width: 1.35;" width="83.7" x="119.25" y="369.9"/><ellipse cx="132.75" cy="384.3" fill="#80FFFF" rx="9.9" ry="9.9" style="stroke: #A80036; stroke-width: 0.9;"/><path d="M135.4219,389.3766 Q134.9016,389.6438 134.325,389.7703 Q133.7484,389.9109 133.1156,389.9109 Q130.8656,389.9109 129.6703,388.4344 Q128.4891,386.9438 128.4891,384.1313 Q128.4891,381.3188 129.6703,379.8281 Q130.8656,378.3375 133.1156,378.3375 Q133.7484,378.3375 134.325,378.4781 Q134.9156,378.6188 135.4219,378.8859 L135.4219,381.3328 Q134.8594,380.8125 134.325,380.5734 Q133.7906,380.3203 133.2281,380.3203 Q132.0188,380.3203 131.4,381.2906 Q130.7813,382.2469 130.7813,384.1313 Q130.7813,386.0156 131.4,386.9859 Q132.0188,387.9422 133.2281,387.9422 Q133.7906,387.9422 134.325,387.7031 Q134.8594,387.45 135.4219,386.9297 L135.4219,389.3766 Z "/><text fill="#000000" font-family="sans-serif" font-size="10.8" lengthAdjust="spacingAndGlyphs" textLength="54.9" x="145.35" y="388.0626">Container</text><!--class Gnome::Gtk3::Bin--><rect fill="#FEFECE" filter="url(#f58waui7hyyb)" height="28.8" id="Gnome::Gtk3::Bin" style="stroke: #A80036; stroke-width: 1.35;" width="45.9" x="234.45" y="369.9"/><ellipse cx="247.95" cy="384.3" fill="#80FFFF" rx="9.9" ry="9.9" style="stroke: #A80036; stroke-width: 0.9;"/><path d="M250.6219,389.3766 Q250.1016,389.6438 249.525,389.7703 Q248.9484,389.9109 248.3156,389.9109 Q246.0656,389.9109 244.8703,388.4344 Q243.6891,386.9438 243.6891,384.1313 Q243.6891,381.3188 244.8703,379.8281 Q246.0656,378.3375 248.3156,378.3375 Q248.9484,378.3375 249.525,378.4781 Q250.1156,378.6188 250.6219,378.8859 L250.6219,381.3328 Q250.0594,380.8125 249.525,380.5734 Q248.9906,380.3203 248.4281,380.3203 Q247.2188,380.3203 246.6,381.2906 Q245.9813,382.2469 245.9813,384.1313 Q245.9813,386.0156 246.6,386.9859 Q247.2188,387.9422 248.4281,387.9422 Q248.9906,387.9422 249.525,387.7031 Q250.0594,387.45 250.6219,386.9297 L250.6219,389.3766 Z "/><text fill="#000000" font-family="sans-serif" font-size="10.8" lengthAdjust="spacingAndGlyphs" textLength="17.1" x="260.55" y="388.0626">Bin</text><!--class Gnome::Gtk3::Window--><rect fill="#FEFECE" filter="url(#f58waui7hyyb)" height="28.8" id="Gnome::Gtk3::Window" style="stroke: #A80036; stroke-width: 1.35;" width="71.1" x="311.85" y="369.9"/><ellipse cx="325.35" cy="384.3" fill="#80FFFF" rx="9.9" ry="9.9" style="stroke: #A80036; stroke-width: 0.9;"/><path d="M328.0219,389.3766 Q327.5016,389.6438 326.925,389.7703 Q326.3484,389.9109 325.7156,389.9109 Q323.4656,389.9109 322.2703,388.4344 Q321.0891,386.9438 321.0891,384.1313 Q321.0891,381.3188 322.2703,379.8281 Q323.4656,378.3375 325.7156,378.3375 Q326.3484,378.3375 326.925,378.4781 Q327.5156,378.6188 328.0219,378.8859 L328.0219,381.3328 Q327.4594,380.8125 326.925,380.5734 Q326.3906,380.3203 325.8281,380.3203 Q324.6188,380.3203 324,381.2906 Q323.3813,382.2469 323.3813,384.1313 Q323.3813,386.0156 324,386.9859 Q324.6188,387.9422 325.8281,387.9422 Q326.3906,387.9422 326.925,387.7031 Q327.4594,387.45 328.0219,386.9297 L328.0219,389.3766 Z "/><text fill="#000000" font-family="sans-serif" font-size="10.8" lengthAdjust="spacingAndGlyphs" textLength="42.3" x="337.95" y="388.0626">Window</text><!--class Gnome::Gtk3::Dialog--><rect fill="#FEFECE" filter="url(#f58waui7hyyb)" height="28.8" id="Gnome::Gtk3::Dialog" style="stroke: #A80036; stroke-width: 1.35;" width="63.9" x="315.45" y="452.7"/><ellipse cx="328.95" cy="467.1" fill="#80FFFF" rx="9.9" ry="9.9" style="stroke: #A80036; stroke-width: 0.9;"/><path d="M331.6219,472.1766 Q331.1016,472.4438 330.525,472.5703 Q329.9484,472.7109 329.3156,472.7109 Q327.0656,472.7109 325.8703,471.2344 Q324.6891,469.7438 324.6891,466.9313 Q324.6891,464.1188 325.8703,462.6281 Q327.0656,461.1375 329.3156,461.1375 Q329.9484,461.1375 330.525,461.2781 Q331.1156,461.4188 331.6219,461.6859 L331.6219,464.1328 Q331.0594,463.6125 330.525,463.3734 Q329.9906,463.1203 329.4281,463.1203 Q328.2188,463.1203 327.6,464.0906 Q326.9813,465.0469 326.9813,466.9313 Q326.9813,468.8156 327.6,469.7859 Q328.2188,470.7422 329.4281,470.7422 Q329.9906,470.7422 330.525,470.5031 Q331.0594,470.25 331.6219,469.7297 L331.6219,472.1766 Z "/><text fill="#000000" font-family="sans-serif" font-size="10.8" lengthAdjust="spacingAndGlyphs" textLength="35.1" x="341.55" y="470.8626">Dialog</text><!--class Gnome::Gtk3::AppChooserDialog--><rect fill="#FEFECE" filter="url(#f58waui7hyyb)" height="28.8" id="Gnome::Gtk3::AppChooserDialog" style="stroke: #A80036; stroke-width: 1.35;" width="132.3" x="195.75" y="535.5"/><ellipse cx="209.25" cy="549.9" fill="#80FFFF" rx="9.9" ry="9.9" style="stroke: #A80036; stroke-width: 0.9;"/><path d="M211.9219,554.9766 Q211.4016,555.2438 210.825,555.3703 Q210.2484,555.5109 209.6156,555.5109 Q207.3656,555.5109 206.1703,554.0344 Q204.9891,552.5438 204.9891,549.7313 Q204.9891,546.9188 206.1703,545.4281 Q207.3656,543.9375 209.6156,543.9375 Q210.2484,543.9375 210.825,544.0781 Q211.4156,544.2188 211.9219,544.4859 L211.9219,546.9328 Q211.3594,546.4125 210.825,546.1734 Q210.2906,545.9203 209.7281,545.9203 Q208.5188,545.9203 207.9,546.8906 Q207.2813,547.8469 207.2813,549.7313 Q207.2813,551.6156 207.9,552.5859 Q208.5188,553.5422 209.7281,553.5422 Q210.2906,553.5422 210.825,553.3031 Q211.3594,553.05 211.9219,552.5297 L211.9219,554.9766 Z "/><text fill="#000000" font-family="sans-serif" font-size="10.8" lengthAdjust="spacingAndGlyphs" textLength="103.5" x="221.85" y="553.6626">AppChooserDialog</text><!--class Gnome::GObject::Object--><rect fill="#FEFECE" filter="url(#f58waui7hyyb)" height="28.8" id="Gnome::GObject::Object" style="stroke: #A80036; stroke-width: 1.35;" width="64.8" x="144" y="121.5"/><ellipse cx="157.5" cy="135.9" fill="#80FFFF" rx="9.9" ry="9.9" style="stroke: #A80036; stroke-width: 0.9;"/><path d="M160.1719,140.9766 Q159.6516,141.2438 159.075,141.3703 Q158.4984,141.5109 157.8656,141.5109 Q155.6156,141.5109 154.4203,140.0344 Q153.2391,138.5438 153.2391,135.7313 Q153.2391,132.9188 154.4203,131.4281 Q155.6156,129.9375 157.8656,129.9375 Q158.4984,129.9375 159.075,130.0781 Q159.6656,130.2188 160.1719,130.4859 L160.1719,132.9328 Q159.6094,132.4125 159.075,132.1734 Q158.5406,131.9203 157.9781,131.9203 Q156.7688,131.9203 156.15,132.8906 Q155.5313,133.8469 155.5313,135.7313 Q155.5313,137.6156 156.15,138.5859 Q156.7688,139.5422 157.9781,139.5422 Q158.5406,139.5422 159.075,139.3031 Q159.6094,139.05 160.1719,138.5297 L160.1719,140.9766 Z "/><text fill="#000000" font-family="sans-serif" font-size="10.8" lengthAdjust="spacingAndGlyphs" textLength="36" x="170.1" y="139.6626">Object</text><!--class Gnome::GObject::InitialyUnowned--><rect fill="#FEFECE" filter="url(#f58waui7hyyb)" height="28.8" id="Gnome::GObject::InitialyUnowned" style="stroke: #A80036; stroke-width: 1.35;" width="116.1" x="144.45" y="204.3"/><ellipse cx="157.95" cy="218.7" fill="#80FFFF" rx="9.9" ry="9.9" style="stroke: #A80036; stroke-width: 0.9;"/><path d="M160.6219,223.7766 Q160.1016,224.0438 159.525,224.1703 Q158.9484,224.3109 158.3156,224.3109 Q156.0656,224.3109 154.8703,222.8344 Q153.6891,221.3438 153.6891,218.5313 Q153.6891,215.7188 154.8703,214.2281 Q156.0656,212.7375 158.3156,212.7375 Q158.9484,212.7375 159.525,212.8781 Q160.1156,213.0188 160.6219,213.2859 L160.6219,215.7328 Q160.0594,215.2125 159.525,214.9734 Q158.9906,214.7203 158.4281,214.7203 Q157.2188,214.7203 156.6,215.6906 Q155.9813,216.6469 155.9813,218.5313 Q155.9813,220.4156 156.6,221.3859 Q157.2188,222.3422 158.4281,222.3422 Q158.9906,222.3422 159.525,222.1031 Q160.0594,221.85 160.6219,221.3297 L160.6219,223.7766 Z "/><text fill="#000000" font-family="sans-serif" font-size="10.8" lengthAdjust="spacingAndGlyphs" textLength="87.3" x="170.55" y="222.4626">InitialyUnowned</text><!--class Gnome::GObject::Signal--><rect fill="#FEFECE" filter="url(#f58waui7hyyb)" height="28.8" id="Gnome::GObject::Signal" style="stroke: #A80036; stroke-width: 1.35;" width="63" x="240.3" y="121.5"/><ellipse cx="253.8" cy="135.9" fill="#80FFFF" rx="9.9" ry="9.9" style="stroke: #A80036; stroke-width: 0.9;"/><path d="M256.4719,140.9766 Q255.9516,141.2438 255.375,141.3703 Q254.7984,141.5109 254.1656,141.5109 Q251.9156,141.5109 250.7203,140.0344 Q249.5391,138.5438 249.5391,135.7313 Q249.5391,132.9188 250.7203,131.4281 Q251.9156,129.9375 254.1656,129.9375 Q254.7984,129.9375 255.375,130.0781 Q255.9656,130.2188 256.4719,130.4859 L256.4719,132.9328 Q255.9094,132.4125 255.375,132.1734 Q254.8406,131.9203 254.2781,131.9203 Q253.0688,131.9203 252.45,132.8906 Q251.8313,133.8469 251.8313,135.7313 Q251.8313,137.6156 252.45,138.5859 Q253.0688,139.5422 254.2781,139.5422 Q254.8406,139.5422 255.375,139.3031 Q255.9094,139.05 256.4719,138.5297 L256.4719,140.9766 Z "/><text fill="#000000" font-family="sans-serif" font-size="10.8" lengthAdjust="spacingAndGlyphs" textLength="34.2" x="266.4" y="139.6626">Signal</text><!--link Gnome::N::TopLevelClassSupport to Gnome::GObject::Object--><path d="M176.4,85.8643 C176.4,98.1709 176.4,111.5431 176.4,121.3648 " fill="none" id="Gnome::N::TopLevelClassSupport-Gnome::GObject::Object" style="stroke: #A80036; stroke-width: 0.9;"/><polygon fill="none" points="170.1001,85.5227,176.4,67.5227,182.7001,85.5226,170.1001,85.5227" style="stroke: #A80036; stroke-width: 0.9;"/><!--link Gnome::GObject::Object to Gnome::GObject::InitialyUnowned--><path d="M186.4481,167.7766 C190.4034,180.3245 194.7477,194.1064 197.9183,204.1648 " fill="none" id="Gnome::GObject::Object-Gnome::GObject::InitialyUnowned" style="stroke: #A80036; stroke-width: 0.9;"/><polygon fill="none" points="180.3492,169.384,180.9463,150.3227,192.3664,165.596,180.3492,169.384" style="stroke: #A80036; stroke-width: 0.9;"/><!--link Gnome::GObject::Object to Gnome::GObject::Signal--><path d="M220.5374,135.9 C223.0799,135.9 225.6226,135.9 228.1652,135.9 " fill="none" id="Gnome::GObject::Object-Gnome::GObject::Signal" style="stroke: #A80036; stroke-width: 0.9;"/><polygon fill="#A80036" points="240.0646,135.9,231.9646,132.3,235.5646,135.9,231.9646,139.5,240.0646,135.9" style="stroke: #A80036; stroke-width: 0.9;"/><line style="stroke: #A80036; stroke-width: 0.9;" x1="235.5646" x2="228.3645" y1="135.9" y2="135.8999"/><polygon fill="#A80036" points="208.8211,135.9,214.2211,139.5,219.6211,135.9,214.2211,132.3,208.8211,135.9" style="stroke: #A80036; stroke-width: 0.9;"/><!--link Gnome::GObject::InitialyUnowned to Gnome::Gtk3::Widget--><path d="M198.028,251.1786 C193.857,271.5422 185.9235,297.3538 171,315.9 C149.3167,342.8469 113.9572,361.4003 87.7774,372.3145 " fill="none" id="Gnome::GObject::InitialyUnowned-Gnome::Gtk3::Widget" style="stroke: #A80036; stroke-width: 0.9;"/><polygon fill="none" points="191.817,250.1226,201.0221,233.4206,204.2417,252.2175,191.817,250.1226" style="stroke: #A80036; stroke-width: 0.9;"/><!--link Gnome::Gtk3::Widget to Gnome::Gtk3::Container--><path d="M105.9089,384.3 C110.2925,384.3 114.6761,384.3 119.0598,384.3 " fill="none" id="Gnome::Gtk3::Widget-Gnome::Gtk3::Container" style="stroke: #A80036; stroke-width: 0.9;"/><polygon fill="none" points="105.8872,390.5999,87.8871,384.3,105.8871,377.9999,105.8872,390.5999" style="stroke: #A80036; stroke-width: 0.9;"/><!--link Gnome::Gtk3::Container to Gnome::Gtk3::Bin--><path d="M221.3327,384.3 C225.5966,384.3 229.8605,384.3 234.1244,384.3 " fill="none" id="Gnome::Gtk3::Container-Gnome::Gtk3::Bin" style="stroke: #A80036; stroke-width: 0.9;"/><polygon fill="none" points="221.2313,390.5999,203.2313,384.3,221.2313,377.9999,221.2313,390.5999" style="stroke: #A80036; stroke-width: 0.9;"/><!--link Gnome::Gtk3::Bin to Gnome::Gtk3::Window--><path d="M298.7966,384.3 C303.0821,384.3 307.3676,384.3 311.6533,384.3 " fill="none" id="Gnome::Gtk3::Bin-Gnome::Gtk3::Window" style="stroke: #A80036; stroke-width: 0.9;"/><polygon fill="none" points="298.6032,390.5999,280.6032,384.3,298.6031,377.9999,298.6032,390.5999" style="stroke: #A80036; stroke-width: 0.9;"/><!--link Gnome::Gtk3::Window to Gnome::Gtk3::Dialog--><path d="M347.4,417.0643 C347.4,429.3709 347.4,442.7431 347.4,452.5648 " fill="none" id="Gnome::Gtk3::Window-Gnome::Gtk3::Dialog" style="stroke: #A80036; stroke-width: 0.9;"/><polygon fill="none" points="341.1001,416.7227,347.4,398.7227,353.7001,416.7226,341.1001,416.7227" style="stroke: #A80036; stroke-width: 0.9;"/><!--link Gnome::Gtk3::Dialog to Gnome::Gtk3::AppChooserDialog--><path d="M319.4393,494.1778 C305.2748,507.895 288.6396,524.0048 276.9092,535.3648 " fill="none" id="Gnome::Gtk3::Dialog-Gnome::Gtk3::AppChooserDialog" style="stroke: #A80036; stroke-width: 0.9;"/><polygon fill="none" points="315.1938,489.5192,332.5071,481.5227,323.9593,498.5705,315.1938,489.5192" style="stroke: #A80036; stroke-width: 0.9;"/><!--link Gnome::Gtk3::Buildable to Gnome::Gtk3::Widget--><path d="M74.658,332.9342 C69.5642,345.5996 63.9385,359.5881 59.8457,369.7648 " fill="none" id="Gnome::Gtk3::Buildable-Gnome::Gtk3::Widget" style="stroke: #A80036; stroke-width: 0.9; stroke-dasharray: 7.0,7.0;"/><polygon fill="none" points="68.9382,330.272,81.4996,315.9227,80.6282,334.9734,68.9382,330.272" style="stroke: #A80036; stroke-width: 0.9;"/><!--link Gnome::Gtk3::AppChooser to Gnome::Gtk3::AppChooserDialog--><path d="M227.254,496.7761 C235.8067,509.8901 245.4748,524.7148 252.4205,535.3648 " fill="none" id="Gnome::Gtk3::AppChooser-Gnome::Gtk3::AppChooserDialog" style="stroke: #A80036; stroke-width: 0.9; stroke-dasharray: 7.0,7.0;"/><polygon fill="none" points="221.862,500.0412,217.3061,481.5227,232.4159,493.1582,221.862,500.0412" style="stroke: #A80036; stroke-width: 0.9;"/><!--
@startuml
scale 0.9
skinparam packageStyle rectangle
skinparam stereotypeCBackgroundColor #80ffff
set namespaceSeparator ::
hide members

class Gnome::N::TopLevelClassSupport < Catch all class >
Interface Gnome::Gtk3::Buildable <Interface>
Interface Gnome::Gtk3::AppChooser <Interface>

class Gnome::Gtk3::Buildable <<(R,#80ffff)>>
class Gnome::Gtk3::AppChooser <<(R,#80ffff)>>

Gnome::N::TopLevelClassSupport <|- - Gnome::GObject::Object
Gnome::GObject::Object <|- - Gnome::GObject::InitialyUnowned
Gnome::GObject::Object *-> Gnome::GObject::Signal

Gnome::GObject::InitialyUnowned <|- - - Gnome::Gtk3::Widget

Gnome::Gtk3::Widget <|- Gnome::Gtk3::Container
Gnome::Gtk3::Container <|- Gnome::Gtk3::Bin
Gnome::Gtk3::Bin <|- Gnome::Gtk3::Window
Gnome::Gtk3::Window <|- - Gnome::Gtk3::Dialog

Gnome::Gtk3::Dialog <|- - Gnome::Gtk3::AppChooserDialog

Gnome::Gtk3::Buildable <|.. Gnome::Gtk3::Widget
Gnome::Gtk3::AppChooser <|.. Gnome::Gtk3::AppChooserDialog

@enduml

PlantUML version 1.2019.01(Sat Feb 09 16:32:04 CET 2019)
(LGPL source distribution)
Java Runtime: OpenJDK Runtime Environment
JVM: OpenJDK 64-Bit Server VM
Java Version: 1.8.0_265-b01
Operating System: Linux
OS Version: 5.8.8-100.fc31.x86_64
Default Encoding: UTF-8
Language: en
Country: null
--></g></svg>