<?xml version="1.0" encoding="UTF-8" standalone="no"?><svg xmlns="http://www.w3.org/2000/svg" xmlns:xlink="http://www.w3.org/1999/xlink" contentScriptType="application/ecmascript" contentStyleType="text/css" height="592px" preserveAspectRatio="none" style="width:697px;height:592px;" version="1.1" viewBox="0 0 697 592" width="697px" zoomAndPan="magnify"><defs><filter height="300%" id="f18iqn1muozuew" width="300%" x="-1" y="-1"><feGaussianBlur result="blurOut" stdDeviation="2.0"/><feColorMatrix in="blurOut" result="blurOut2" type="matrix" values="0 0 0 0 0 0 0 0 0 0 0 0 0 0 0 0 0 0 .4 0"/><feOffset dx="4.0" dy="4.0" in="blurOut2" result="blurOut3"/><feBlend in="SourceGraphic" in2="blurOut3" mode="normal"/></filter></defs><g><!--MD5=[b969295f0ec9b4fa482091c3e26049be]
cluster Gnome::N--><rect fill="#FFFFFF" filter="url(#f18iqn1muozuew)" height="83" style="stroke: #000000; stroke-width: 1.5;" width="302" x="75" y="7"/><text fill="#000000" font-family="sans-serif" font-size="14" font-weight="bold" lengthAdjust="spacingAndGlyphs" textLength="79" x="186.5" y="21.9951">Gnome::N</text><!--MD5=[2fb3f9b624b0544b9841d5da78ec0508]
cluster Gnome::GObject--><rect fill="#FFFFFF" filter="url(#f18iqn1muozuew)" height="175" style="stroke: #000000; stroke-width: 1.5;" width="271" x="7" y="114"/><text fill="#000000" font-family="sans-serif" font-size="14" font-weight="bold" lengthAdjust="spacingAndGlyphs" textLength="131" x="77" y="128.9951">Gnome::GObject</text><!--MD5=[7d67f77911969026863717fbb204e273]
cluster Gnome::Gtk3--><rect fill="#FFFFFF" filter="url(#f18iqn1muozuew)" height="267" style="stroke: #000000; stroke-width: 1.5;" width="542" x="143" y="313"/><text fill="#000000" font-family="sans-serif" font-size="14" font-weight="bold" lengthAdjust="spacingAndGlyphs" textLength="105" x="361.5" y="327.9951">Gnome::Gtk3</text><!--MD5=[0b8e281ccd00c72019a31d78e9f95b5d]
class Gnome::N::TopLevelClassSupport--><rect codeLine="9" fill="#FEFECE" filter="url(#f18iqn1muozuew)" height="32" id="Gnome::N::TopLevelClassSupport" style="stroke: #A80036; stroke-width: 1.5;" width="269" x="91.5" y="42"/><ellipse cx="106.5" cy="58" fill="#80FFFF" rx="11" ry="11" style="stroke: #A80036; stroke-width: 1.0;"/><path d="M109.4688,63.6406 Q108.8906,63.9375 108.25,64.0781 Q107.6094,64.2344 106.9063,64.2344 Q104.4063,64.2344 103.0781,62.5938 Q101.7656,60.9375 101.7656,57.8125 Q101.7656,54.6875 103.0781,53.0313 Q104.4063,51.375 106.9063,51.375 Q107.6094,51.375 108.25,51.5313 Q108.9063,51.6875 109.4688,51.9844 L109.4688,54.7031 Q108.8438,54.125 108.25,53.8594 Q107.6563,53.5781 107.0313,53.5781 Q105.6875,53.5781 105,54.6563 Q104.3125,55.7188 104.3125,57.8125 Q104.3125,59.9063 105,60.9844 Q105.6875,62.0469 107.0313,62.0469 Q107.6563,62.0469 108.25,61.7813 Q108.8438,61.5 109.4688,60.9219 L109.4688,63.6406 Z "/><text fill="#000000" font-family="sans-serif" font-size="12" lengthAdjust="spacingAndGlyphs" textLength="137" x="120.5" y="62.1543">TopLevelClassSupport</text><rect fill="#FFFFFF" height="15.9688" style="stroke: #000000; stroke-width: 1.0; stroke-dasharray: 2.0,2.0;" width="98" x="265.5" y="39"/><text fill="#000000" font-family="sans-serif" font-size="12" font-style="italic" lengthAdjust="spacingAndGlyphs" textLength="88" x="270.5" y="51.1387">Catch all class</text><!--MD5=[52303d185de782118d4739c052001bf2]
class Gnome::GObject::Signal--><rect codeLine="12" fill="#FEFECE" filter="url(#f18iqn1muozuew)" height="32" id="Gnome::GObject::Signal" style="stroke: #A80036; stroke-width: 1.5;" width="131" x="23.5" y="149"/><ellipse cx="38.5" cy="165" fill="#80FFFF" rx="11" ry="11" style="stroke: #A80036; stroke-width: 1.0;"/><path d="M39.7031,165.1406 Q40.0625,165.2188 40.3281,165.5 Q40.6094,165.7656 41,166.5469 L43.2344,171 L40.5469,171 L39.0469,167.875 Q38.9844,167.7344 38.875,167.5 Q38.2188,166.1094 37.3281,166.1094 L36.5469,166.1094 L36.5469,171 L34.1094,171 L34.1094,158.6094 L37.6406,158.6094 Q40.0313,158.6094 41.0625,159.4531 Q42.1094,160.2969 42.1094,162.2031 Q42.1094,163.4844 41.4844,164.25 Q40.875,165 39.7031,165.1406 Z M36.5469,160.6719 L36.5469,164.0469 L37.7031,164.0469 Q38.7188,164.0469 39.1406,163.6563 Q39.5781,163.25 39.5781,162.3438 Q39.5781,161.4531 39.1406,161.0625 Q38.7188,160.6719 37.7031,160.6719 L36.5469,160.6719 Z "/><text fill="#000000" font-family="sans-serif" font-size="12" lengthAdjust="spacingAndGlyphs" textLength="38" x="52.5" y="169.1543">Signal</text><rect fill="#FFFFFF" height="15.9688" style="stroke: #000000; stroke-width: 1.0; stroke-dasharray: 2.0,2.0;" width="59" x="98.5" y="146"/><text fill="#000000" font-family="sans-serif" font-size="12" font-style="italic" lengthAdjust="spacingAndGlyphs" textLength="57" x="99.5" y="158.1387">Interface</text><!--MD5=[c2016d28441601ceb0a74f47a4537d14]
class Gnome::GObject::Object--><rect fill="#FEFECE" filter="url(#f18iqn1muozuew)" height="32" id="Gnome::GObject::Object" style="stroke: #A80036; stroke-width: 1.5;" width="72" x="190" y="149"/><ellipse cx="205" cy="165" fill="#80FFFF" rx="11" ry="11" style="stroke: #A80036; stroke-width: 1.0;"/><path d="M207.9688,170.6406 Q207.3906,170.9375 206.75,171.0781 Q206.1094,171.2344 205.4063,171.2344 Q202.9063,171.2344 201.5781,169.5938 Q200.2656,167.9375 200.2656,164.8125 Q200.2656,161.6875 201.5781,160.0313 Q202.9063,158.375 205.4063,158.375 Q206.1094,158.375 206.75,158.5313 Q207.4063,158.6875 207.9688,158.9844 L207.9688,161.7031 Q207.3438,161.125 206.75,160.8594 Q206.1563,160.5781 205.5313,160.5781 Q204.1875,160.5781 203.5,161.6563 Q202.8125,162.7188 202.8125,164.8125 Q202.8125,166.9063 203.5,167.9844 Q204.1875,169.0469 205.5313,169.0469 Q206.1563,169.0469 206.75,168.7813 Q207.3438,168.5 207.9688,167.9219 L207.9688,170.6406 Z "/><text fill="#000000" font-family="sans-serif" font-size="12" lengthAdjust="spacingAndGlyphs" textLength="40" x="219" y="169.1543">Object</text><!--MD5=[f47b9a4a06d3f9bed948fa39f8c5540e]
class Gnome::GObject::InitialyUnowned--><rect fill="#FEFECE" filter="url(#f18iqn1muozuew)" height="32" id="Gnome::GObject::InitialyUnowned" style="stroke: #A80036; stroke-width: 1.5;" width="129" x="132.5" y="241"/><ellipse cx="147.5" cy="257" fill="#80FFFF" rx="11" ry="11" style="stroke: #A80036; stroke-width: 1.0;"/><path d="M150.4688,262.6406 Q149.8906,262.9375 149.25,263.0781 Q148.6094,263.2344 147.9063,263.2344 Q145.4063,263.2344 144.0781,261.5938 Q142.7656,259.9375 142.7656,256.8125 Q142.7656,253.6875 144.0781,252.0313 Q145.4063,250.375 147.9063,250.375 Q148.6094,250.375 149.25,250.5313 Q149.9063,250.6875 150.4688,250.9844 L150.4688,253.7031 Q149.8438,253.125 149.25,252.8594 Q148.6563,252.5781 148.0313,252.5781 Q146.6875,252.5781 146,253.6563 Q145.3125,254.7188 145.3125,256.8125 Q145.3125,258.9063 146,259.9844 Q146.6875,261.0469 148.0313,261.0469 Q148.6563,261.0469 149.25,260.7813 Q149.8438,260.5 150.4688,259.9219 L150.4688,262.6406 Z "/><text fill="#000000" font-family="sans-serif" font-size="12" lengthAdjust="spacingAndGlyphs" textLength="97" x="161.5" y="261.1543">InitialyUnowned</text><!--MD5=[fc528952aa489a9a9f8514412a46a5d5]
class Gnome::Gtk3::Buildable--><rect codeLine="15" fill="#FEFECE" filter="url(#f18iqn1muozuew)" height="32" id="Gnome::Gtk3::Buildable" style="stroke: #A80036; stroke-width: 1.5;" width="150" x="159" y="532"/><ellipse cx="174" cy="548" fill="#80FFFF" rx="11" ry="11" style="stroke: #A80036; stroke-width: 1.0;"/><path d="M175.2031,548.1406 Q175.5625,548.2188 175.8281,548.5 Q176.1094,548.7656 176.5,549.5469 L178.7344,554 L176.0469,554 L174.5469,550.875 Q174.4844,550.7344 174.375,550.5 Q173.7188,549.1094 172.8281,549.1094 L172.0469,549.1094 L172.0469,554 L169.6094,554 L169.6094,541.6094 L173.1406,541.6094 Q175.5313,541.6094 176.5625,542.4531 Q177.6094,543.2969 177.6094,545.2031 Q177.6094,546.4844 176.9844,547.25 Q176.375,548 175.2031,548.1406 Z M172.0469,543.6719 L172.0469,547.0469 L173.2031,547.0469 Q174.2188,547.0469 174.6406,546.6563 Q175.0781,546.25 175.0781,545.3438 Q175.0781,544.4531 174.6406,544.0625 Q174.2188,543.6719 173.2031,543.6719 L172.0469,543.6719 Z "/><text fill="#000000" font-family="sans-serif" font-size="12" font-style="italic" lengthAdjust="spacingAndGlyphs" textLength="57" x="188" y="552.1543">Buildable</text><rect fill="#FFFFFF" height="15.9688" style="stroke: #000000; stroke-width: 1.0; stroke-dasharray: 2.0,2.0;" width="59" x="253" y="529"/><text fill="#000000" font-family="sans-serif" font-size="12" font-style="italic" lengthAdjust="spacingAndGlyphs" textLength="57" x="254" y="541.1387">Interface</text><!--MD5=[7c1758a09004760757060230ff805361]
class Gnome::Gtk3::AppChooser--><rect codeLine="21" fill="#FEFECE" filter="url(#f18iqn1muozuew)" height="32" id="Gnome::Gtk3::AppChooser" style="stroke: #A80036; stroke-width: 1.5;" width="168" x="501" y="532"/><ellipse cx="516" cy="548" fill="#80FFFF" rx="11" ry="11" style="stroke: #A80036; stroke-width: 1.0;"/><path d="M517.2031,548.1406 Q517.5625,548.2188 517.8281,548.5 Q518.1094,548.7656 518.5,549.5469 L520.7344,554 L518.0469,554 L516.5469,550.875 Q516.4844,550.7344 516.375,550.5 Q515.7188,549.1094 514.8281,549.1094 L514.0469,549.1094 L514.0469,554 L511.6094,554 L511.6094,541.6094 L515.1406,541.6094 Q517.5313,541.6094 518.5625,542.4531 Q519.6094,543.2969 519.6094,545.2031 Q519.6094,546.4844 518.9844,547.25 Q518.375,548 517.2031,548.1406 Z M514.0469,543.6719 L514.0469,547.0469 L515.2031,547.0469 Q516.2188,547.0469 516.6406,546.6563 Q517.0781,546.25 517.0781,545.3438 Q517.0781,544.4531 516.6406,544.0625 Q516.2188,543.6719 515.2031,543.6719 L514.0469,543.6719 Z "/><text fill="#000000" font-family="sans-serif" font-size="12" font-style="italic" lengthAdjust="spacingAndGlyphs" textLength="75" x="530" y="552.1543">AppChooser</text><rect fill="#FFFFFF" height="15.9688" style="stroke: #000000; stroke-width: 1.0; stroke-dasharray: 2.0,2.0;" width="59" x="613" y="529"/><text fill="#000000" font-family="sans-serif" font-size="12" font-style="italic" lengthAdjust="spacingAndGlyphs" textLength="57" x="614" y="541.1387">Interface</text><!--MD5=[99c1fd59bdfde6048aec9e6766dd53ef]
class Gnome::Gtk3::Widget--><rect fill="#FEFECE" filter="url(#f18iqn1muozuew)" height="32" id="Gnome::Gtk3::Widget" style="stroke: #A80036; stroke-width: 1.5;" width="75" x="159.5" y="348"/><ellipse cx="174.5" cy="364" fill="#80FFFF" rx="11" ry="11" style="stroke: #A80036; stroke-width: 1.0;"/><path d="M177.4688,369.6406 Q176.8906,369.9375 176.25,370.0781 Q175.6094,370.2344 174.9063,370.2344 Q172.4063,370.2344 171.0781,368.5938 Q169.7656,366.9375 169.7656,363.8125 Q169.7656,360.6875 171.0781,359.0313 Q172.4063,357.375 174.9063,357.375 Q175.6094,357.375 176.25,357.5313 Q176.9063,357.6875 177.4688,357.9844 L177.4688,360.7031 Q176.8438,360.125 176.25,359.8594 Q175.6563,359.5781 175.0313,359.5781 Q173.6875,359.5781 173,360.6563 Q172.3125,361.7188 172.3125,363.8125 Q172.3125,365.9063 173,366.9844 Q173.6875,368.0469 175.0313,368.0469 Q175.6563,368.0469 176.25,367.7813 Q176.8438,367.5 177.4688,366.9219 L177.4688,369.6406 Z "/><text fill="#000000" font-family="sans-serif" font-size="12" lengthAdjust="spacingAndGlyphs" textLength="43" x="188.5" y="368.1543">Widget</text><!--MD5=[9e3cc955f682d05594420e46d2e4e3ea]
class Gnome::Gtk3::Container--><rect fill="#FEFECE" filter="url(#f18iqn1muozuew)" height="32" id="Gnome::Gtk3::Container" style="stroke: #A80036; stroke-width: 1.5;" width="93" x="269.5" y="348"/><ellipse cx="284.5" cy="364" fill="#80FFFF" rx="11" ry="11" style="stroke: #A80036; stroke-width: 1.0;"/><path d="M287.4688,369.6406 Q286.8906,369.9375 286.25,370.0781 Q285.6094,370.2344 284.9063,370.2344 Q282.4063,370.2344 281.0781,368.5938 Q279.7656,366.9375 279.7656,363.8125 Q279.7656,360.6875 281.0781,359.0313 Q282.4063,357.375 284.9063,357.375 Q285.6094,357.375 286.25,357.5313 Q286.9063,357.6875 287.4688,357.9844 L287.4688,360.7031 Q286.8438,360.125 286.25,359.8594 Q285.6563,359.5781 285.0313,359.5781 Q283.6875,359.5781 283,360.6563 Q282.3125,361.7188 282.3125,363.8125 Q282.3125,365.9063 283,366.9844 Q283.6875,368.0469 285.0313,368.0469 Q285.6563,368.0469 286.25,367.7813 Q286.8438,367.5 287.4688,366.9219 L287.4688,369.6406 Z "/><text fill="#000000" font-family="sans-serif" font-size="12" lengthAdjust="spacingAndGlyphs" textLength="61" x="298.5" y="368.1543">Container</text><!--MD5=[6ac0a199e9a9e53d446254a1d59f3468]
class Gnome::Gtk3::Bin--><rect fill="#FEFECE" filter="url(#f18iqn1muozuew)" height="32" id="Gnome::Gtk3::Bin" style="stroke: #A80036; stroke-width: 1.5;" width="51" x="397.5" y="348"/><ellipse cx="412.5" cy="364" fill="#80FFFF" rx="11" ry="11" style="stroke: #A80036; stroke-width: 1.0;"/><path d="M415.4688,369.6406 Q414.8906,369.9375 414.25,370.0781 Q413.6094,370.2344 412.9063,370.2344 Q410.4063,370.2344 409.0781,368.5938 Q407.7656,366.9375 407.7656,363.8125 Q407.7656,360.6875 409.0781,359.0313 Q410.4063,357.375 412.9063,357.375 Q413.6094,357.375 414.25,357.5313 Q414.9063,357.6875 415.4688,357.9844 L415.4688,360.7031 Q414.8438,360.125 414.25,359.8594 Q413.6563,359.5781 413.0313,359.5781 Q411.6875,359.5781 411,360.6563 Q410.3125,361.7188 410.3125,363.8125 Q410.3125,365.9063 411,366.9844 Q411.6875,368.0469 413.0313,368.0469 Q413.6563,368.0469 414.25,367.7813 Q414.8438,367.5 415.4688,366.9219 L415.4688,369.6406 Z "/><text fill="#000000" font-family="sans-serif" font-size="12" lengthAdjust="spacingAndGlyphs" textLength="19" x="426.5" y="368.1543">Bin</text><!--MD5=[8475d959d77acc346db561b49952bf1a]
class Gnome::Gtk3::Window--><rect fill="#FEFECE" filter="url(#f18iqn1muozuew)" height="32" id="Gnome::Gtk3::Window" style="stroke: #A80036; stroke-width: 1.5;" width="79" x="483.5" y="348"/><ellipse cx="498.5" cy="364" fill="#80FFFF" rx="11" ry="11" style="stroke: #A80036; stroke-width: 1.0;"/><path d="M501.4688,369.6406 Q500.8906,369.9375 500.25,370.0781 Q499.6094,370.2344 498.9063,370.2344 Q496.4063,370.2344 495.0781,368.5938 Q493.7656,366.9375 493.7656,363.8125 Q493.7656,360.6875 495.0781,359.0313 Q496.4063,357.375 498.9063,357.375 Q499.6094,357.375 500.25,357.5313 Q500.9063,357.6875 501.4688,357.9844 L501.4688,360.7031 Q500.8438,360.125 500.25,359.8594 Q499.6563,359.5781 499.0313,359.5781 Q497.6875,359.5781 497,360.6563 Q496.3125,361.7188 496.3125,363.8125 Q496.3125,365.9063 497,366.9844 Q497.6875,368.0469 499.0313,368.0469 Q499.6563,368.0469 500.25,367.7813 Q500.8438,367.5 501.4688,366.9219 L501.4688,369.6406 Z "/><text fill="#000000" font-family="sans-serif" font-size="12" lengthAdjust="spacingAndGlyphs" textLength="47" x="512.5" y="368.1543">Window</text><!--MD5=[d82c0a95d2d10c1450611f7300749c44]
class Gnome::Gtk3::Dialog--><rect fill="#FEFECE" filter="url(#f18iqn1muozuew)" height="32" id="Gnome::Gtk3::Dialog" style="stroke: #A80036; stroke-width: 1.5;" width="71" x="597.5" y="348"/><ellipse cx="612.5" cy="364" fill="#80FFFF" rx="11" ry="11" style="stroke: #A80036; stroke-width: 1.0;"/><path d="M615.4688,369.6406 Q614.8906,369.9375 614.25,370.0781 Q613.6094,370.2344 612.9063,370.2344 Q610.4063,370.2344 609.0781,368.5938 Q607.7656,366.9375 607.7656,363.8125 Q607.7656,360.6875 609.0781,359.0313 Q610.4063,357.375 612.9063,357.375 Q613.6094,357.375 614.25,357.5313 Q614.9063,357.6875 615.4688,357.9844 L615.4688,360.7031 Q614.8438,360.125 614.25,359.8594 Q613.6563,359.5781 613.0313,359.5781 Q611.6875,359.5781 611,360.6563 Q610.3125,361.7188 610.3125,363.8125 Q610.3125,365.9063 611,366.9844 Q611.6875,368.0469 613.0313,368.0469 Q613.6563,368.0469 614.25,367.7813 Q614.8438,367.5 615.4688,366.9219 L615.4688,369.6406 Z "/><text fill="#000000" font-family="sans-serif" font-size="12" lengthAdjust="spacingAndGlyphs" textLength="39" x="626.5" y="368.1543">Dialog</text><!--MD5=[85521a51f8e24c5a0bd09550422acae5]
class Gnome::Gtk3::AppChooserDialog--><rect fill="#FEFECE" filter="url(#f18iqn1muozuew)" height="32" id="Gnome::Gtk3::AppChooserDialog" style="stroke: #A80036; stroke-width: 1.5;" width="147" x="516.5" y="440"/><ellipse cx="531.5" cy="456" fill="#80FFFF" rx="11" ry="11" style="stroke: #A80036; stroke-width: 1.0;"/><path d="M534.4688,461.6406 Q533.8906,461.9375 533.25,462.0781 Q532.6094,462.2344 531.9063,462.2344 Q529.4063,462.2344 528.0781,460.5938 Q526.7656,458.9375 526.7656,455.8125 Q526.7656,452.6875 528.0781,451.0313 Q529.4063,449.375 531.9063,449.375 Q532.6094,449.375 533.25,449.5313 Q533.9063,449.6875 534.4688,449.9844 L534.4688,452.7031 Q533.8438,452.125 533.25,451.8594 Q532.6563,451.5781 532.0313,451.5781 Q530.6875,451.5781 530,452.6563 Q529.3125,453.7188 529.3125,455.8125 Q529.3125,457.9063 530,458.9844 Q530.6875,460.0469 532.0313,460.0469 Q532.6563,460.0469 533.25,459.7813 Q533.8438,459.5 534.4688,458.9219 L534.4688,461.6406 Z "/><text fill="#000000" font-family="sans-serif" font-size="12" lengthAdjust="spacingAndGlyphs" textLength="115" x="545.5" y="460.1543">AppChooserDialog</text><!--MD5=[e23b679cf607d12ac81e9c5301595709]
reverse link Gnome::N::TopLevelClassSupport to Gnome::GObject::Object--><path codeLine="25" d="M226,94.1 C226,112.76 226,134.73 226,148.98 " fill="none" id="Gnome::N::TopLevelClassSupport-backto-Gnome::GObject::Object" style="stroke: #A80036; stroke-width: 1.0;"/><polygon fill="none" points="219,94.04,226,74.04,233,94.04,219,94.04" style="stroke: #A80036; stroke-width: 1.0;"/><!--MD5=[2e57c6084092ea441ae4a3f826779dd8]
reverse link Gnome::GObject::Object to Gnome::GObject::InitialyUnowned--><path codeLine="26" d="M214.84,200.63 C210.34,214.59 205.39,229.96 201.85,240.96 " fill="none" id="Gnome::GObject::Object-backto-Gnome::GObject::InitialyUnowned" style="stroke: #A80036; stroke-width: 1.0;"/><polygon fill="none" points="208.28,198.16,221.08,181.27,221.61,202.45,208.28,198.16" style="stroke: #A80036; stroke-width: 1.0;"/><!--MD5=[f8ffcf4587ba956cb48626a4231e4d21]
reverse link Gnome::GObject::Signal to Gnome::GObject::Object--><path codeLine="27" d="M174.77,165 C179.85,165 184.92,165 190,165 " fill="none" id="Gnome::GObject::Signal-backto-Gnome::GObject::Object" style="stroke: #A80036; stroke-width: 1.0; stroke-dasharray: 7.0,7.0;"/><polygon fill="none" points="174.56,172,154.56,165,174.56,158,174.56,172" style="stroke: #A80036; stroke-width: 1.0;"/><!--MD5=[aa49dbc803ccf1c2ef8546b297b1dcfd]
reverse link Gnome::GObject::InitialyUnowned to Gnome::Gtk3::Widget--><path codeLine="29" d="M197,293.1 C197,311.76 197,333.73 197,347.98 " fill="none" id="Gnome::GObject::InitialyUnowned-backto-Gnome::Gtk3::Widget" style="stroke: #A80036; stroke-width: 1.0;"/><polygon fill="none" points="190,293.04,197,273.04,204,293.04,190,293.04" style="stroke: #A80036; stroke-width: 1.0;"/><!--MD5=[e1568b3b4ceade3a3349f45f19b4c32a]
link Gnome::Gtk3::Widget to Gnome::Gtk3::Buildable--><path codeLine="30" d="M200.09,380.2 C205.95,409.05 218.83,472.38 226.92,512.17 " fill="none" id="Gnome::Gtk3::Widget-to-Gnome::Gtk3::Buildable" style="stroke: #A80036; stroke-width: 1.0; stroke-dasharray: 7.0,7.0;"/><polygon fill="none" points="233.82,510.97,230.94,531.97,220.1,513.76,233.82,510.97" style="stroke: #A80036; stroke-width: 1.0;"/><!--MD5=[940ddf52f8156166e52a90b7ba66cda5]
reverse link Gnome::Gtk3::Widget to Gnome::Gtk3::Container--><path codeLine="32" d="M254.68,364 C259.55,364 264.42,364 269.29,364 " fill="none" id="Gnome::Gtk3::Widget-backto-Gnome::Gtk3::Container" style="stroke: #A80036; stroke-width: 1.0;"/><polygon fill="none" points="254.65,371,234.65,364,254.65,357,254.65,371" style="stroke: #A80036; stroke-width: 1.0;"/><!--MD5=[23a2b14019610824d048d16339c059f6]
reverse link Gnome::Gtk3::Container to Gnome::Gtk3::Bin--><path codeLine="33" d="M382.93,364 C387.66,364 392.4,364 397.14,364 " fill="none" id="Gnome::Gtk3::Container-backto-Gnome::Gtk3::Bin" style="stroke: #A80036; stroke-width: 1.0;"/><polygon fill="none" points="382.81,371,362.81,364,382.81,357,382.81,371" style="stroke: #A80036; stroke-width: 1.0;"/><!--MD5=[c7c580d159725465d734f39d82b8186e]
reverse link Gnome::Gtk3::Bin to Gnome::Gtk3::Window--><path codeLine="34" d="M469,364 C473.76,364 478.52,364 483.28,364 " fill="none" id="Gnome::Gtk3::Bin-backto-Gnome::Gtk3::Window" style="stroke: #A80036; stroke-width: 1.0;"/><polygon fill="none" points="468.78,371,448.78,364,468.78,357,468.78,371" style="stroke: #A80036; stroke-width: 1.0;"/><!--MD5=[aab4940c4363240fa7e017a9bac87047]
reverse link Gnome::Gtk3::Window to Gnome::Gtk3::Dialog--><path codeLine="35" d="M582.74,364 C587.66,364 592.57,364 597.49,364 " fill="none" id="Gnome::Gtk3::Window-backto-Gnome::Gtk3::Dialog" style="stroke: #A80036; stroke-width: 1.0;"/><polygon fill="none" points="582.53,371,562.53,364,582.53,357,582.53,371" style="stroke: #A80036; stroke-width: 1.0;"/><!--MD5=[98c472d7cb08d03e3ed1f9ed072ea4f9]
reverse link Gnome::Gtk3::Dialog to Gnome::Gtk3::AppChooserDialog--><path codeLine="37" d="M616.93,398.64 C610.13,412.86 602.56,428.7 597.19,439.96 " fill="none" id="Gnome::Gtk3::Dialog-backto-Gnome::Gtk3::AppChooserDialog" style="stroke: #A80036; stroke-width: 1.0;"/><polygon fill="none" points="610.77,395.3,625.71,380.27,623.4,401.33,610.77,395.3" style="stroke: #A80036; stroke-width: 1.0;"/><!--MD5=[a27e2b50a295a5a6ff69d0658b507488]
link Gnome::Gtk3::AppChooserDialog to Gnome::Gtk3::AppChooser--><path codeLine="38" d="M589.15,472.27 C588.55,483.06 587.72,497.99 586.96,511.67 " fill="none" id="Gnome::Gtk3::AppChooserDialog-to-Gnome::Gtk3::AppChooser" style="stroke: #A80036; stroke-width: 1.0; stroke-dasharray: 7.0,7.0;"/><polygon fill="none" points="593.93,512.38,585.84,531.96,579.96,511.6,593.93,512.38" style="stroke: #A80036; stroke-width: 1.0;"/><!--MD5=[97dad4dce36cedd98eafe6856edcfee4]
@startuml
'scale 0.9
skinparam packageStyle rectangle
skinparam stereotypeCBackgroundColor #80ffff
set namespaceSeparator ::
hide members

'Class and interface decorations
class Gnome::N::TopLevelClassSupport < Catch all class >

Interface Gnome::GObject::Signal <Interface>
class Gnome::GObject::Signal <<(R,#80ffff)>>

class Gnome::Gtk3::Buildable <<(R,#80ffff)>>
Interface Gnome::Gtk3::Buildable <Interface>

'class Gnome::Gtk3::ColorChooser <<(R,#80ffff)>>
'Interface Gnome::Gtk3::ColorChooser <Interface>

class Gnome::Gtk3::AppChooser <<(R,#80ffff)>>
Interface Gnome::Gtk3::AppChooser <Interface>


'Class connections
Gnome::N::TopLevelClassSupport <|- - Gnome::GObject::Object
Gnome::GObject::Object <|- - Gnome::GObject::InitialyUnowned
Gnome::GObject::Signal <|. Gnome::GObject::Object

Gnome::GObject::InitialyUnowned <|- - Gnome::Gtk3::Widget
Gnome::Gtk3::Buildable <|.up.. Gnome::Gtk3::Widget

Gnome::Gtk3::Widget <|- Gnome::Gtk3::Container
Gnome::Gtk3::Container <|- Gnome::Gtk3::Bin
Gnome::Gtk3::Bin <|- Gnome::Gtk3::Window
Gnome::Gtk3::Window <|- Gnome::Gtk3::Dialog

Gnome::Gtk3::Dialog <|- - Gnome::Gtk3::AppChooserDialog
Gnome::Gtk3::AppChooser <|.up. Gnome::Gtk3::AppChooserDialog

'Gnome::Gtk3::Dialog <|- - Gnome::Gtk3::AboutDialog
'Gnome::Gtk3::Dialog <|- - Gnome::Gtk3::ColorChooserDialog
'Gnome::Gtk3::Dialog <|- - Gnome::Gtk3::FileChooserDialog
'Gnome::Gtk3::Dialog <|- - Gnome::Gtk3::MessageDialog
'Gnome::Gtk3::Dialog <|- - Gnome::Gtk3::FontChooserDialog
'Gnome::Gtk3::Dialog <|- - Gnome::Gtk3::RecentChooserDialog

@enduml

@startuml
skinparam packageStyle rectangle
skinparam stereotypeCBackgroundColor #80ffff
set namespaceSeparator ::
hide members

class Gnome::N::TopLevelClassSupport < Catch all class >

Interface Gnome::GObject::Signal <Interface>
class Gnome::GObject::Signal <<(R,#80ffff)>>

class Gnome::Gtk3::Buildable <<(R,#80ffff)>>
Interface Gnome::Gtk3::Buildable <Interface>


class Gnome::Gtk3::AppChooser <<(R,#80ffff)>>
Interface Gnome::Gtk3::AppChooser <Interface>


Gnome::N::TopLevelClassSupport <|- - Gnome::GObject::Object
Gnome::GObject::Object <|- - Gnome::GObject::InitialyUnowned
Gnome::GObject::Signal <|. Gnome::GObject::Object

Gnome::GObject::InitialyUnowned <|- - Gnome::Gtk3::Widget
Gnome::Gtk3::Buildable <|.up.. Gnome::Gtk3::Widget

Gnome::Gtk3::Widget <|- Gnome::Gtk3::Container
Gnome::Gtk3::Container <|- Gnome::Gtk3::Bin
Gnome::Gtk3::Bin <|- Gnome::Gtk3::Window
Gnome::Gtk3::Window <|- Gnome::Gtk3::Dialog

Gnome::Gtk3::Dialog <|- - Gnome::Gtk3::AppChooserDialog
Gnome::Gtk3::AppChooser <|.up. Gnome::Gtk3::AppChooserDialog


@enduml

PlantUML version 1.2020.19(Mon Oct 12 17:10:01 CEST 2020)
(GPL source distribution)
Java Runtime: OpenJDK Runtime Environment
JVM: OpenJDK 64-Bit Server VM
Default Encoding: UTF-8
Language: en
Country: US
--></g></svg>