<?xml version="1.0" encoding="UTF-8" standalone="no"?><svg xmlns="http://www.w3.org/2000/svg" xmlns:xlink="http://www.w3.org/1999/xlink" contentScriptType="application/ecmascript" contentStyleType="text/css" height="500px" preserveAspectRatio="none" style="width:829px;height:500px;" version="1.1" viewBox="0 0 829 500" width="829px" zoomAndPan="magnify"><defs><filter height="300%" id="f1b7n2te72sqyu" width="300%" x="-1" y="-1"><feGaussianBlur result="blurOut" stdDeviation="2.0"/><feColorMatrix in="blurOut" result="blurOut2" type="matrix" values="0 0 0 0 0 0 0 0 0 0 0 0 0 0 0 0 0 0 .4 0"/><feOffset dx="4.0" dy="4.0" in="blurOut2" result="blurOut3"/><feBlend in="SourceGraphic" in2="blurOut3" mode="normal"/></filter></defs><g><!--MD5=[b969295f0ec9b4fa482091c3e26049be]
cluster Gnome::N--><rect fill="#FFFFFF" filter="url(#f1b7n2te72sqyu)" height="83" style="stroke: #000000; stroke-width: 1.5;" width="302" x="515" y="7"/><text fill="#000000" font-family="sans-serif" font-size="14" font-weight="bold" lengthAdjust="spacingAndGlyphs" textLength="79" x="626.5" y="21.9951">Gnome::N</text><!--MD5=[2fb3f9b624b0544b9841d5da78ec0508]
cluster Gnome::GObject--><rect fill="#FFFFFF" filter="url(#f1b7n2te72sqyu)" height="175" style="stroke: #000000; stroke-width: 1.5;" width="271" x="447" y="114"/><text fill="#000000" font-family="sans-serif" font-size="14" font-weight="bold" lengthAdjust="spacingAndGlyphs" textLength="131" x="517" y="128.9951">Gnome::GObject</text><!--MD5=[7d67f77911969026863717fbb204e273]
cluster Gnome::Gtk3--><rect fill="#FFFFFF" filter="url(#f1b7n2te72sqyu)" height="175" style="stroke: #000000; stroke-width: 1.5;" width="639" x="7" y="313"/><text fill="#000000" font-family="sans-serif" font-size="14" font-weight="bold" lengthAdjust="spacingAndGlyphs" textLength="105" x="274" y="327.9951">Gnome::Gtk3</text><!--MD5=[0b8e281ccd00c72019a31d78e9f95b5d]
class Gnome::N::TopLevelClassSupport--><rect codeLine="10" fill="#FEFECE" filter="url(#f1b7n2te72sqyu)" height="32" id="Gnome::N::TopLevelClassSupport" style="stroke: #A80036; stroke-width: 1.5;" width="269" x="531.5" y="42"/><ellipse cx="546.5" cy="58" fill="#80FFFF" rx="11" ry="11" style="stroke: #A80036; stroke-width: 1.0;"/><path d="M549.4688,63.6406 Q548.8906,63.9375 548.25,64.0781 Q547.6094,64.2344 546.9063,64.2344 Q544.4063,64.2344 543.0781,62.5938 Q541.7656,60.9375 541.7656,57.8125 Q541.7656,54.6875 543.0781,53.0313 Q544.4063,51.375 546.9063,51.375 Q547.6094,51.375 548.25,51.5313 Q548.9063,51.6875 549.4688,51.9844 L549.4688,54.7031 Q548.8438,54.125 548.25,53.8594 Q547.6563,53.5781 547.0313,53.5781 Q545.6875,53.5781 545,54.6563 Q544.3125,55.7188 544.3125,57.8125 Q544.3125,59.9063 545,60.9844 Q545.6875,62.0469 547.0313,62.0469 Q547.6563,62.0469 548.25,61.7813 Q548.8438,61.5 549.4688,60.9219 L549.4688,63.6406 Z "/><text fill="#000000" font-family="sans-serif" font-size="12" lengthAdjust="spacingAndGlyphs" textLength="137" x="560.5" y="62.1543">TopLevelClassSupport</text><rect fill="#FFFFFF" height="15.9688" style="stroke: #000000; stroke-width: 1.0; stroke-dasharray: 2.0,2.0;" width="98" x="705.5" y="39"/><text fill="#000000" font-family="sans-serif" font-size="12" font-style="italic" lengthAdjust="spacingAndGlyphs" textLength="88" x="710.5" y="51.1387">Catch all class</text><!--MD5=[52303d185de782118d4739c052001bf2]
class Gnome::GObject::Signal--><rect codeLine="13" fill="#FEFECE" filter="url(#f1b7n2te72sqyu)" height="32" id="Gnome::GObject::Signal" style="stroke: #A80036; stroke-width: 1.5;" width="131" x="463.5" y="149"/><ellipse cx="478.5" cy="165" fill="#80FFFF" rx="11" ry="11" style="stroke: #A80036; stroke-width: 1.0;"/><path d="M479.7031,165.1406 Q480.0625,165.2188 480.3281,165.5 Q480.6094,165.7656 481,166.5469 L483.2344,171 L480.5469,171 L479.0469,167.875 Q478.9844,167.7344 478.875,167.5 Q478.2188,166.1094 477.3281,166.1094 L476.5469,166.1094 L476.5469,171 L474.1094,171 L474.1094,158.6094 L477.6406,158.6094 Q480.0313,158.6094 481.0625,159.4531 Q482.1094,160.2969 482.1094,162.2031 Q482.1094,163.4844 481.4844,164.25 Q480.875,165 479.7031,165.1406 Z M476.5469,160.6719 L476.5469,164.0469 L477.7031,164.0469 Q478.7188,164.0469 479.1406,163.6563 Q479.5781,163.25 479.5781,162.3438 Q479.5781,161.4531 479.1406,161.0625 Q478.7188,160.6719 477.7031,160.6719 L476.5469,160.6719 Z "/><text fill="#000000" font-family="sans-serif" font-size="12" lengthAdjust="spacingAndGlyphs" textLength="38" x="492.5" y="169.1543">Signal</text><rect fill="#FFFFFF" height="15.9688" style="stroke: #000000; stroke-width: 1.0; stroke-dasharray: 2.0,2.0;" width="59" x="538.5" y="146"/><text fill="#000000" font-family="sans-serif" font-size="12" font-style="italic" lengthAdjust="spacingAndGlyphs" textLength="57" x="539.5" y="158.1387">Interface</text><!--MD5=[c2016d28441601ceb0a74f47a4537d14]
class Gnome::GObject::Object--><rect fill="#FEFECE" filter="url(#f1b7n2te72sqyu)" height="32" id="Gnome::GObject::Object" style="stroke: #A80036; stroke-width: 1.5;" width="72" x="630" y="149"/><ellipse cx="645" cy="165" fill="#80FFFF" rx="11" ry="11" style="stroke: #A80036; stroke-width: 1.0;"/><path d="M647.9688,170.6406 Q647.3906,170.9375 646.75,171.0781 Q646.1094,171.2344 645.4063,171.2344 Q642.9063,171.2344 641.5781,169.5938 Q640.2656,167.9375 640.2656,164.8125 Q640.2656,161.6875 641.5781,160.0313 Q642.9063,158.375 645.4063,158.375 Q646.1094,158.375 646.75,158.5313 Q647.4063,158.6875 647.9688,158.9844 L647.9688,161.7031 Q647.3438,161.125 646.75,160.8594 Q646.1563,160.5781 645.5313,160.5781 Q644.1875,160.5781 643.5,161.6563 Q642.8125,162.7188 642.8125,164.8125 Q642.8125,166.9063 643.5,167.9844 Q644.1875,169.0469 645.5313,169.0469 Q646.1563,169.0469 646.75,168.7813 Q647.3438,168.5 647.9688,167.9219 L647.9688,170.6406 Z "/><text fill="#000000" font-family="sans-serif" font-size="12" lengthAdjust="spacingAndGlyphs" textLength="40" x="659" y="169.1543">Object</text><!--MD5=[f47b9a4a06d3f9bed948fa39f8c5540e]
class Gnome::GObject::InitialyUnowned--><rect fill="#FEFECE" filter="url(#f1b7n2te72sqyu)" height="32" id="Gnome::GObject::InitialyUnowned" style="stroke: #A80036; stroke-width: 1.5;" width="129" x="572.5" y="241"/><ellipse cx="587.5" cy="257" fill="#80FFFF" rx="11" ry="11" style="stroke: #A80036; stroke-width: 1.0;"/><path d="M590.4688,262.6406 Q589.8906,262.9375 589.25,263.0781 Q588.6094,263.2344 587.9063,263.2344 Q585.4063,263.2344 584.0781,261.5938 Q582.7656,259.9375 582.7656,256.8125 Q582.7656,253.6875 584.0781,252.0313 Q585.4063,250.375 587.9063,250.375 Q588.6094,250.375 589.25,250.5313 Q589.9063,250.6875 590.4688,250.9844 L590.4688,253.7031 Q589.8438,253.125 589.25,252.8594 Q588.6563,252.5781 588.0313,252.5781 Q586.6875,252.5781 586,253.6563 Q585.3125,254.7188 585.3125,256.8125 Q585.3125,258.9063 586,259.9844 Q586.6875,261.0469 588.0313,261.0469 Q588.6563,261.0469 589.25,260.7813 Q589.8438,260.5 590.4688,259.9219 L590.4688,262.6406 Z "/><text fill="#000000" font-family="sans-serif" font-size="12" lengthAdjust="spacingAndGlyphs" textLength="97" x="601.5" y="261.1543">InitialyUnowned</text><!--MD5=[fc528952aa489a9a9f8514412a46a5d5]
class Gnome::Gtk3::Buildable--><rect codeLine="16" fill="#FEFECE" filter="url(#f1b7n2te72sqyu)" height="32" id="Gnome::Gtk3::Buildable" style="stroke: #A80036; stroke-width: 1.5;" width="150" x="434" y="348"/><ellipse cx="449" cy="364" fill="#80FFFF" rx="11" ry="11" style="stroke: #A80036; stroke-width: 1.0;"/><path d="M450.2031,364.1406 Q450.5625,364.2188 450.8281,364.5 Q451.1094,364.7656 451.5,365.5469 L453.7344,370 L451.0469,370 L449.5469,366.875 Q449.4844,366.7344 449.375,366.5 Q448.7188,365.1094 447.8281,365.1094 L447.0469,365.1094 L447.0469,370 L444.6094,370 L444.6094,357.6094 L448.1406,357.6094 Q450.5313,357.6094 451.5625,358.4531 Q452.6094,359.2969 452.6094,361.2031 Q452.6094,362.4844 451.9844,363.25 Q451.375,364 450.2031,364.1406 Z M447.0469,359.6719 L447.0469,363.0469 L448.2031,363.0469 Q449.2188,363.0469 449.6406,362.6563 Q450.0781,362.25 450.0781,361.3438 Q450.0781,360.4531 449.6406,360.0625 Q449.2188,359.6719 448.2031,359.6719 L447.0469,359.6719 Z "/><text fill="#000000" font-family="sans-serif" font-size="12" lengthAdjust="spacingAndGlyphs" textLength="57" x="463" y="368.1543">Buildable</text><rect fill="#FFFFFF" height="15.9688" style="stroke: #000000; stroke-width: 1.0; stroke-dasharray: 2.0,2.0;" width="59" x="528" y="345"/><text fill="#000000" font-family="sans-serif" font-size="12" font-style="italic" lengthAdjust="spacingAndGlyphs" textLength="57" x="529" y="357.1387">Interface</text><!--MD5=[97d61f3f7bcf9b4e0be02d0c7791b1cd]
class Gnome::Gtk3::CellLayout--><rect codeLine="19" fill="#FEFECE" filter="url(#f1b7n2te72sqyu)" height="32" id="Gnome::Gtk3::CellLayout" style="stroke: #A80036; stroke-width: 1.5;" width="156" x="179" y="348"/><ellipse cx="194" cy="364" fill="#80FFFF" rx="11" ry="11" style="stroke: #A80036; stroke-width: 1.0;"/><path d="M195.2031,364.1406 Q195.5625,364.2188 195.8281,364.5 Q196.1094,364.7656 196.5,365.5469 L198.7344,370 L196.0469,370 L194.5469,366.875 Q194.4844,366.7344 194.375,366.5 Q193.7188,365.1094 192.8281,365.1094 L192.0469,365.1094 L192.0469,370 L189.6094,370 L189.6094,357.6094 L193.1406,357.6094 Q195.5313,357.6094 196.5625,358.4531 Q197.6094,359.2969 197.6094,361.2031 Q197.6094,362.4844 196.9844,363.25 Q196.375,364 195.2031,364.1406 Z M192.0469,359.6719 L192.0469,363.0469 L193.2031,363.0469 Q194.2188,363.0469 194.6406,362.6563 Q195.0781,362.25 195.0781,361.3438 Q195.0781,360.4531 194.6406,360.0625 Q194.2188,359.6719 193.2031,359.6719 L192.0469,359.6719 Z "/><text fill="#000000" font-family="sans-serif" font-size="12" lengthAdjust="spacingAndGlyphs" textLength="63" x="208" y="368.1543">CellLayout</text><rect fill="#FFFFFF" height="15.9688" style="stroke: #000000; stroke-width: 1.0; stroke-dasharray: 2.0,2.0;" width="59" x="279" y="345"/><text fill="#000000" font-family="sans-serif" font-size="12" font-style="italic" lengthAdjust="spacingAndGlyphs" textLength="57" x="280" y="357.1387">Interface</text><!--MD5=[99c1fd59bdfde6048aec9e6766dd53ef]
class Gnome::Gtk3::Widget--><rect fill="#FEFECE" filter="url(#f1b7n2te72sqyu)" height="32" id="Gnome::Gtk3::Widget" style="stroke: #A80036; stroke-width: 1.5;" width="75" x="554.5" y="440"/><ellipse cx="569.5" cy="456" fill="#80FFFF" rx="11" ry="11" style="stroke: #A80036; stroke-width: 1.0;"/><path d="M572.4688,461.6406 Q571.8906,461.9375 571.25,462.0781 Q570.6094,462.2344 569.9063,462.2344 Q567.4063,462.2344 566.0781,460.5938 Q564.7656,458.9375 564.7656,455.8125 Q564.7656,452.6875 566.0781,451.0313 Q567.4063,449.375 569.9063,449.375 Q570.6094,449.375 571.25,449.5313 Q571.9063,449.6875 572.4688,449.9844 L572.4688,452.7031 Q571.8438,452.125 571.25,451.8594 Q570.6563,451.5781 570.0313,451.5781 Q568.6875,451.5781 568,452.6563 Q567.3125,453.7188 567.3125,455.8125 Q567.3125,457.9063 568,458.9844 Q568.6875,460.0469 570.0313,460.0469 Q570.6563,460.0469 571.25,459.7813 Q571.8438,459.5 572.4688,458.9219 L572.4688,461.6406 Z "/><text fill="#000000" font-family="sans-serif" font-size="12" lengthAdjust="spacingAndGlyphs" textLength="43" x="583.5" y="460.1543">Widget</text><!--MD5=[6ac0a199e9a9e53d446254a1d59f3468]
class Gnome::Gtk3::Bin--><rect fill="#FEFECE" filter="url(#f1b7n2te72sqyu)" height="32" id="Gnome::Gtk3::Bin" style="stroke: #A80036; stroke-width: 1.5;" width="51" x="340.5" y="440"/><ellipse cx="355.5" cy="456" fill="#80FFFF" rx="11" ry="11" style="stroke: #A80036; stroke-width: 1.0;"/><path d="M358.4688,461.6406 Q357.8906,461.9375 357.25,462.0781 Q356.6094,462.2344 355.9063,462.2344 Q353.4063,462.2344 352.0781,460.5938 Q350.7656,458.9375 350.7656,455.8125 Q350.7656,452.6875 352.0781,451.0313 Q353.4063,449.375 355.9063,449.375 Q356.6094,449.375 357.25,449.5313 Q357.9063,449.6875 358.4688,449.9844 L358.4688,452.7031 Q357.8438,452.125 357.25,451.8594 Q356.6563,451.5781 356.0313,451.5781 Q354.6875,451.5781 354,452.6563 Q353.3125,453.7188 353.3125,455.8125 Q353.3125,457.9063 354,458.9844 Q354.6875,460.0469 356.0313,460.0469 Q356.6563,460.0469 357.25,459.7813 Q357.8438,459.5 358.4688,458.9219 L358.4688,461.6406 Z "/><text fill="#000000" font-family="sans-serif" font-size="12" lengthAdjust="spacingAndGlyphs" textLength="19" x="369.5" y="460.1543">Bin</text><!--MD5=[9e3cc955f682d05594420e46d2e4e3ea]
class Gnome::Gtk3::Container--><rect fill="#FEFECE" filter="url(#f1b7n2te72sqyu)" height="32" id="Gnome::Gtk3::Container" style="stroke: #A80036; stroke-width: 1.5;" width="93" x="426.5" y="440"/><ellipse cx="441.5" cy="456" fill="#80FFFF" rx="11" ry="11" style="stroke: #A80036; stroke-width: 1.0;"/><path d="M444.4688,461.6406 Q443.8906,461.9375 443.25,462.0781 Q442.6094,462.2344 441.9063,462.2344 Q439.4063,462.2344 438.0781,460.5938 Q436.7656,458.9375 436.7656,455.8125 Q436.7656,452.6875 438.0781,451.0313 Q439.4063,449.375 441.9063,449.375 Q442.6094,449.375 443.25,449.5313 Q443.9063,449.6875 444.4688,449.9844 L444.4688,452.7031 Q443.8438,452.125 443.25,451.8594 Q442.6563,451.5781 442.0313,451.5781 Q440.6875,451.5781 440,452.6563 Q439.3125,453.7188 439.3125,455.8125 Q439.3125,457.9063 440,458.9844 Q440.6875,460.0469 442.0313,460.0469 Q442.6563,460.0469 443.25,459.7813 Q443.8438,459.5 444.4688,458.9219 L444.4688,461.6406 Z "/><text fill="#000000" font-family="sans-serif" font-size="12" lengthAdjust="spacingAndGlyphs" textLength="61" x="455.5" y="460.1543">Container</text><!--MD5=[ea58c5821a5f9d1ff91fe2c0bb7ddbcf]
class Gnome::Gtk3::ComboBox--><rect fill="#FEFECE" filter="url(#f1b7n2te72sqyu)" height="32" id="Gnome::Gtk3::ComboBox" style="stroke: #A80036; stroke-width: 1.5;" width="97" x="208.5" y="440"/><ellipse cx="223.5" cy="456" fill="#80FFFF" rx="11" ry="11" style="stroke: #A80036; stroke-width: 1.0;"/><path d="M226.4688,461.6406 Q225.8906,461.9375 225.25,462.0781 Q224.6094,462.2344 223.9063,462.2344 Q221.4063,462.2344 220.0781,460.5938 Q218.7656,458.9375 218.7656,455.8125 Q218.7656,452.6875 220.0781,451.0313 Q221.4063,449.375 223.9063,449.375 Q224.6094,449.375 225.25,449.5313 Q225.9063,449.6875 226.4688,449.9844 L226.4688,452.7031 Q225.8438,452.125 225.25,451.8594 Q224.6563,451.5781 224.0313,451.5781 Q222.6875,451.5781 222,452.6563 Q221.3125,453.7188 221.3125,455.8125 Q221.3125,457.9063 222,458.9844 Q222.6875,460.0469 224.0313,460.0469 Q224.6563,460.0469 225.25,459.7813 Q225.8438,459.5 226.4688,458.9219 L226.4688,461.6406 Z "/><text fill="#000000" font-family="sans-serif" font-size="12" lengthAdjust="spacingAndGlyphs" textLength="65" x="237.5" y="460.1543">ComboBox</text><!--MD5=[93f94a6bbf5ef82fa8c1db6c7ae91565]
class Gnome::Gtk3::AppChooserButton--><rect fill="#FEFECE" filter="url(#f1b7n2te72sqyu)" height="32" id="Gnome::Gtk3::AppChooserButton" style="stroke: #A80036; stroke-width: 1.5;" width="150" x="23" y="440"/><ellipse cx="38" cy="456" fill="#80FFFF" rx="11" ry="11" style="stroke: #A80036; stroke-width: 1.0;"/><path d="M40.9688,461.6406 Q40.3906,461.9375 39.75,462.0781 Q39.1094,462.2344 38.4063,462.2344 Q35.9063,462.2344 34.5781,460.5938 Q33.2656,458.9375 33.2656,455.8125 Q33.2656,452.6875 34.5781,451.0313 Q35.9063,449.375 38.4063,449.375 Q39.1094,449.375 39.75,449.5313 Q40.4063,449.6875 40.9688,449.9844 L40.9688,452.7031 Q40.3438,452.125 39.75,451.8594 Q39.1563,451.5781 38.5313,451.5781 Q37.1875,451.5781 36.5,452.6563 Q35.8125,453.7188 35.8125,455.8125 Q35.8125,457.9063 36.5,458.9844 Q37.1875,460.0469 38.5313,460.0469 Q39.1563,460.0469 39.75,459.7813 Q40.3438,459.5 40.9688,458.9219 L40.9688,461.6406 Z "/><text fill="#000000" font-family="sans-serif" font-size="12" lengthAdjust="spacingAndGlyphs" textLength="118" x="52" y="460.1543">AppChooserButton</text><!--MD5=[e23b679cf607d12ac81e9c5301595709]
reverse link Gnome::N::TopLevelClassSupport to Gnome::GObject::Object--><path codeLine="23" d="M666,94.1 C666,112.76 666,134.73 666,148.98 " fill="none" id="Gnome::N::TopLevelClassSupport-backto-Gnome::GObject::Object" style="stroke: #A80036; stroke-width: 1.0;"/><polygon fill="none" points="659,94.04,666,74.04,673,94.04,659,94.04" style="stroke: #A80036; stroke-width: 1.0;"/><!--MD5=[aa49dbc803ccf1c2ef8546b297b1dcfd]
reverse link Gnome::GObject::InitialyUnowned to Gnome::Gtk3::Widget--><path codeLine="24" d="M629.04,292.83 C619.13,336.25 602.61,408.55 595.47,439.82 " fill="none" id="Gnome::GObject::InitialyUnowned-backto-Gnome::Gtk3::Widget" style="stroke: #A80036; stroke-width: 1.0;"/><polygon fill="none" points="622.27,291.07,633.54,273.13,635.91,294.19,622.27,291.07" style="stroke: #A80036; stroke-width: 1.0;"/><!--MD5=[2e57c6084092ea441ae4a3f826779dd8]
reverse link Gnome::GObject::Object to Gnome::GObject::InitialyUnowned--><path codeLine="26" d="M654.84,200.63 C650.34,214.59 645.39,229.96 641.85,240.96 " fill="none" id="Gnome::GObject::Object-backto-Gnome::GObject::InitialyUnowned" style="stroke: #A80036; stroke-width: 1.0;"/><polygon fill="none" points="648.28,198.16,661.08,181.27,661.61,202.45,648.28,198.16" style="stroke: #A80036; stroke-width: 1.0;"/><!--MD5=[f8ffcf4587ba956cb48626a4231e4d21]
reverse link Gnome::GObject::Signal to Gnome::GObject::Object--><path codeLine="27" d="M614.77,165 C619.85,165 624.92,165 630,165 " fill="none" id="Gnome::GObject::Signal-backto-Gnome::GObject::Object" style="stroke: #A80036; stroke-width: 1.0; stroke-dasharray: 7.0,7.0;"/><polygon fill="none" points="614.56,172,594.56,165,614.56,158,614.56,172" style="stroke: #A80036; stroke-width: 1.0;"/><!--MD5=[1335099fcd58edb25b444005b6858935]
reverse link Gnome::Gtk3::Buildable to Gnome::Gtk3::Widget--><path codeLine="29" d="M536.89,395.25 C550.76,410.29 566.91,427.8 578.13,439.96 " fill="none" id="Gnome::Gtk3::Buildable-backto-Gnome::Gtk3::Widget" style="stroke: #A80036; stroke-width: 1.0; stroke-dasharray: 7.0,7.0;"/><polygon fill="none" points="531.49,399.72,523.08,380.27,541.78,390.22,531.49,399.72" style="stroke: #A80036; stroke-width: 1.0;"/><!--MD5=[aa2b56f221bfaa2860ef37394f2d22b5]
link Gnome::Gtk3::Bin to Gnome::Gtk3::Container--><path codeLine="31" d="M391.91,456 C396.68,456 401.44,456 406.21,456 " fill="none" id="Gnome::Gtk3::Bin-to-Gnome::Gtk3::Container" style="stroke: #A80036; stroke-width: 1.0;"/><polygon fill="none" points="406.44,449,426.44,456,406.44,463,406.44,449" style="stroke: #A80036; stroke-width: 1.0;"/><!--MD5=[aaf476f5d2312b98d0ee61e81272172c]
link Gnome::Gtk3::Container to Gnome::Gtk3::Widget--><path codeLine="32" d="M519.95,456 C524.69,456 529.43,456 534.17,456 " fill="none" id="Gnome::Gtk3::Container-to-Gnome::Gtk3::Widget" style="stroke: #A80036; stroke-width: 1.0;"/><polygon fill="none" points="534.29,449,554.29,456,534.29,463,534.29,449" style="stroke: #A80036; stroke-width: 1.0;"/><!--MD5=[7037f239cbc7217abe0150902e7fefae]
link Gnome::Gtk3::ComboBox to Gnome::Gtk3::Bin--><path codeLine="33" d="M305.54,456 C310.45,456 315.37,456 320.29,456 " fill="none" id="Gnome::Gtk3::ComboBox-to-Gnome::Gtk3::Bin" style="stroke: #A80036; stroke-width: 1.0;"/><polygon fill="none" points="320.49,449,340.49,456,320.49,463,320.49,449" style="stroke: #A80036; stroke-width: 1.0;"/><!--MD5=[b6c30bf801747e41bc2c0bfe2ce76686]
reverse link Gnome::Gtk3::CellLayout to Gnome::Gtk3::ComboBox--><path codeLine="34" d="M257,400.61 C257,414.31 257,429.22 257,439.96 " fill="none" id="Gnome::Gtk3::CellLayout-backto-Gnome::Gtk3::ComboBox" style="stroke: #A80036; stroke-width: 1.0; stroke-dasharray: 7.0,7.0;"/><polygon fill="none" points="250,400.27,257,380.27,264,400.27,250,400.27" style="stroke: #A80036; stroke-width: 1.0;"/><!--MD5=[c445d5f02a41ce907fb408b402816ddc]
link Gnome::Gtk3::AppChooserButton to Gnome::Gtk3::ComboBox--><path codeLine="35" d="M173.15,456 C178.08,456 183.01,456 187.94,456 " fill="none" id="Gnome::Gtk3::AppChooserButton-to-Gnome::Gtk3::ComboBox" style="stroke: #A80036; stroke-width: 1.0;"/><polygon fill="none" points="188.2,449,208.2,456,188.2,463,188.2,449" style="stroke: #A80036; stroke-width: 1.0;"/><!--MD5=[e3d2cc0aa22afecb2b030e92107b143c]
@startuml
'scale 0.9
skinparam packageStyle rectangle
skinparam stereotypeCBackgroundColor #80ffff
set namespaceSeparator ::
hide members


'Class and interface decorations
class Gnome::N::TopLevelClassSupport < Catch all class >

Interface Gnome::GObject::Signal <Interface>
class Gnome::GObject::Signal <<(R,#80ffff)>>

Interface Gnome::Gtk3::Buildable <Interface>
class Gnome::Gtk3::Buildable <<(R,#80ffff)>>

Interface Gnome::Gtk3::CellLayout <Interface>
class Gnome::Gtk3::CellLayout <<(R,#80ffff)>>


'Class connections
Gnome::N::TopLevelClassSupport <|- - Gnome::GObject::Object
Gnome::GObject::InitialyUnowned <|- - - Gnome::Gtk3::Widget

Gnome::GObject::Object <|- - Gnome::GObject::InitialyUnowned
Gnome::GObject::Signal <|. Gnome::GObject::Object

Gnome::Gtk3::Widget .up.|>Gnome::Gtk3::Buildable

Gnome::Gtk3::Bin -|> Gnome::Gtk3::Container
Gnome::Gtk3::Container -|> Gnome::Gtk3::Widget
Gnome::Gtk3::Bin <|-left- Gnome::Gtk3::ComboBox
Gnome::Gtk3::ComboBox .up.|> Gnome::Gtk3::CellLayout
Gnome::Gtk3::ComboBox <|-left- Gnome::Gtk3::AppChooserButton

@enduml

@startuml
skinparam packageStyle rectangle
skinparam stereotypeCBackgroundColor #80ffff
set namespaceSeparator ::
hide members


class Gnome::N::TopLevelClassSupport < Catch all class >

Interface Gnome::GObject::Signal <Interface>
class Gnome::GObject::Signal <<(R,#80ffff)>>

Interface Gnome::Gtk3::Buildable <Interface>
class Gnome::Gtk3::Buildable <<(R,#80ffff)>>

Interface Gnome::Gtk3::CellLayout <Interface>
class Gnome::Gtk3::CellLayout <<(R,#80ffff)>>


Gnome::N::TopLevelClassSupport <|- - Gnome::GObject::Object
Gnome::GObject::InitialyUnowned <|- - - Gnome::Gtk3::Widget

Gnome::GObject::Object <|- - Gnome::GObject::InitialyUnowned
Gnome::GObject::Signal <|. Gnome::GObject::Object

Gnome::Gtk3::Widget .up.|>Gnome::Gtk3::Buildable

Gnome::Gtk3::Bin -|> Gnome::Gtk3::Container
Gnome::Gtk3::Container -|> Gnome::Gtk3::Widget
Gnome::Gtk3::Bin <|-left- Gnome::Gtk3::ComboBox
Gnome::Gtk3::ComboBox .up.|> Gnome::Gtk3::CellLayout
Gnome::Gtk3::ComboBox <|-left- Gnome::Gtk3::AppChooserButton

@enduml

PlantUML version 1.2020.19(Mon Oct 12 17:10:01 CEST 2020)
(GPL source distribution)
Java Runtime: OpenJDK Runtime Environment
JVM: OpenJDK 64-Bit Server VM
Default Encoding: UTF-8
Language: en
Country: US
--></g></svg>