<?xml version="1.0" encoding="UTF-8" standalone="no"?><svg xmlns="http://www.w3.org/2000/svg" xmlns:xlink="http://www.w3.org/1999/xlink" contentScriptType="application/ecmascript" contentStyleType="text/css" height="592px" preserveAspectRatio="none" style="width:561px;height:592px;" version="1.1" viewBox="0 0 561 592" width="561px" zoomAndPan="magnify"><defs><filter height="300%" id="f137hr7cjqw93p" width="300%" x="-1" y="-1"><feGaussianBlur result="blurOut" stdDeviation="2.0"/><feColorMatrix in="blurOut" result="blurOut2" type="matrix" values="0 0 0 0 0 0 0 0 0 0 0 0 0 0 0 0 0 0 .4 0"/><feOffset dx="4.0" dy="4.0" in="blurOut2" result="blurOut3"/><feBlend in="SourceGraphic" in2="blurOut3" mode="normal"/></filter></defs><g><!--MD5=[b969295f0ec9b4fa482091c3e26049be]
cluster Gnome::N--><rect fill="#FFFFFF" filter="url(#f137hr7cjqw93p)" height="83" style="stroke: #000000; stroke-width: 1.5;" width="302" x="104" y="7"/><text fill="#000000" font-family="sans-serif" font-size="14" font-weight="bold" lengthAdjust="spacingAndGlyphs" textLength="79" x="215.5" y="21.9951">Gnome::N</text><!--MD5=[2fb3f9b624b0544b9841d5da78ec0508]
cluster Gnome::GObject--><rect fill="#FFFFFF" filter="url(#f137hr7cjqw93p)" height="175" style="stroke: #000000; stroke-width: 1.5;" width="271" x="36" y="114"/><text fill="#000000" font-family="sans-serif" font-size="14" font-weight="bold" lengthAdjust="spacingAndGlyphs" textLength="131" x="106" y="128.9951">Gnome::GObject</text><!--MD5=[7d67f77911969026863717fbb204e273]
cluster Gnome::Gtk3--><rect fill="#FFFFFF" filter="url(#f137hr7cjqw93p)" height="267" style="stroke: #000000; stroke-width: 1.5;" width="542" x="7" y="313"/><text fill="#000000" font-family="sans-serif" font-size="14" font-weight="bold" lengthAdjust="spacingAndGlyphs" textLength="105" x="225.5" y="327.9951">Gnome::Gtk3</text><!--MD5=[0b8e281ccd00c72019a31d78e9f95b5d]
class Gnome::N::TopLevelClassSupport--><rect codeLine="9" fill="#FEFECE" filter="url(#f137hr7cjqw93p)" height="32" id="Gnome::N::TopLevelClassSupport" style="stroke: #A80036; stroke-width: 1.5;" width="269" x="120.5" y="42"/><ellipse cx="135.5" cy="58" fill="#80FFFF" rx="11" ry="11" style="stroke: #A80036; stroke-width: 1.0;"/><path d="M138.4688,63.6406 Q137.8906,63.9375 137.25,64.0781 Q136.6094,64.2344 135.9063,64.2344 Q133.4063,64.2344 132.0781,62.5938 Q130.7656,60.9375 130.7656,57.8125 Q130.7656,54.6875 132.0781,53.0313 Q133.4063,51.375 135.9063,51.375 Q136.6094,51.375 137.25,51.5313 Q137.9063,51.6875 138.4688,51.9844 L138.4688,54.7031 Q137.8438,54.125 137.25,53.8594 Q136.6563,53.5781 136.0313,53.5781 Q134.6875,53.5781 134,54.6563 Q133.3125,55.7188 133.3125,57.8125 Q133.3125,59.9063 134,60.9844 Q134.6875,62.0469 136.0313,62.0469 Q136.6563,62.0469 137.25,61.7813 Q137.8438,61.5 138.4688,60.9219 L138.4688,63.6406 Z "/><text fill="#000000" font-family="sans-serif" font-size="12" lengthAdjust="spacingAndGlyphs" textLength="137" x="149.5" y="62.1543">TopLevelClassSupport</text><rect fill="#FFFFFF" height="15.9688" style="stroke: #000000; stroke-width: 1.0; stroke-dasharray: 2.0,2.0;" width="98" x="294.5" y="39"/><text fill="#000000" font-family="sans-serif" font-size="12" font-style="italic" lengthAdjust="spacingAndGlyphs" textLength="88" x="299.5" y="51.1387">Catch all class</text><!--MD5=[52303d185de782118d4739c052001bf2]
class Gnome::GObject::Signal--><rect codeLine="12" fill="#FEFECE" filter="url(#f137hr7cjqw93p)" height="32" id="Gnome::GObject::Signal" style="stroke: #A80036; stroke-width: 1.5;" width="131" x="52.5" y="149"/><ellipse cx="67.5" cy="165" fill="#80FFFF" rx="11" ry="11" style="stroke: #A80036; stroke-width: 1.0;"/><path d="M68.7031,165.1406 Q69.0625,165.2188 69.3281,165.5 Q69.6094,165.7656 70,166.5469 L72.2344,171 L69.5469,171 L68.0469,167.875 Q67.9844,167.7344 67.875,167.5 Q67.2188,166.1094 66.3281,166.1094 L65.5469,166.1094 L65.5469,171 L63.1094,171 L63.1094,158.6094 L66.6406,158.6094 Q69.0313,158.6094 70.0625,159.4531 Q71.1094,160.2969 71.1094,162.2031 Q71.1094,163.4844 70.4844,164.25 Q69.875,165 68.7031,165.1406 Z M65.5469,160.6719 L65.5469,164.0469 L66.7031,164.0469 Q67.7188,164.0469 68.1406,163.6563 Q68.5781,163.25 68.5781,162.3438 Q68.5781,161.4531 68.1406,161.0625 Q67.7188,160.6719 66.7031,160.6719 L65.5469,160.6719 Z "/><text fill="#000000" font-family="sans-serif" font-size="12" lengthAdjust="spacingAndGlyphs" textLength="38" x="81.5" y="169.1543">Signal</text><rect fill="#FFFFFF" height="15.9688" style="stroke: #000000; stroke-width: 1.0; stroke-dasharray: 2.0,2.0;" width="59" x="127.5" y="146"/><text fill="#000000" font-family="sans-serif" font-size="12" font-style="italic" lengthAdjust="spacingAndGlyphs" textLength="57" x="128.5" y="158.1387">Interface</text><!--MD5=[c2016d28441601ceb0a74f47a4537d14]
class Gnome::GObject::Object--><rect fill="#FEFECE" filter="url(#f137hr7cjqw93p)" height="32" id="Gnome::GObject::Object" style="stroke: #A80036; stroke-width: 1.5;" width="72" x="219" y="149"/><ellipse cx="234" cy="165" fill="#80FFFF" rx="11" ry="11" style="stroke: #A80036; stroke-width: 1.0;"/><path d="M236.9688,170.6406 Q236.3906,170.9375 235.75,171.0781 Q235.1094,171.2344 234.4063,171.2344 Q231.9063,171.2344 230.5781,169.5938 Q229.2656,167.9375 229.2656,164.8125 Q229.2656,161.6875 230.5781,160.0313 Q231.9063,158.375 234.4063,158.375 Q235.1094,158.375 235.75,158.5313 Q236.4063,158.6875 236.9688,158.9844 L236.9688,161.7031 Q236.3438,161.125 235.75,160.8594 Q235.1563,160.5781 234.5313,160.5781 Q233.1875,160.5781 232.5,161.6563 Q231.8125,162.7188 231.8125,164.8125 Q231.8125,166.9063 232.5,167.9844 Q233.1875,169.0469 234.5313,169.0469 Q235.1563,169.0469 235.75,168.7813 Q236.3438,168.5 236.9688,167.9219 L236.9688,170.6406 Z "/><text fill="#000000" font-family="sans-serif" font-size="12" lengthAdjust="spacingAndGlyphs" textLength="40" x="248" y="169.1543">Object</text><!--MD5=[f47b9a4a06d3f9bed948fa39f8c5540e]
class Gnome::GObject::InitialyUnowned--><rect fill="#FEFECE" filter="url(#f137hr7cjqw93p)" height="32" id="Gnome::GObject::InitialyUnowned" style="stroke: #A80036; stroke-width: 1.5;" width="129" x="161.5" y="241"/><ellipse cx="176.5" cy="257" fill="#80FFFF" rx="11" ry="11" style="stroke: #A80036; stroke-width: 1.0;"/><path d="M179.4688,262.6406 Q178.8906,262.9375 178.25,263.0781 Q177.6094,263.2344 176.9063,263.2344 Q174.4063,263.2344 173.0781,261.5938 Q171.7656,259.9375 171.7656,256.8125 Q171.7656,253.6875 173.0781,252.0313 Q174.4063,250.375 176.9063,250.375 Q177.6094,250.375 178.25,250.5313 Q178.9063,250.6875 179.4688,250.9844 L179.4688,253.7031 Q178.8438,253.125 178.25,252.8594 Q177.6563,252.5781 177.0313,252.5781 Q175.6875,252.5781 175,253.6563 Q174.3125,254.7188 174.3125,256.8125 Q174.3125,258.9063 175,259.9844 Q175.6875,261.0469 177.0313,261.0469 Q177.6563,261.0469 178.25,260.7813 Q178.8438,260.5 179.4688,259.9219 L179.4688,262.6406 Z "/><text fill="#000000" font-family="sans-serif" font-size="12" lengthAdjust="spacingAndGlyphs" textLength="97" x="190.5" y="261.1543">InitialyUnowned</text><!--MD5=[fc528952aa489a9a9f8514412a46a5d5]
class Gnome::Gtk3::Buildable--><rect codeLine="15" fill="#FEFECE" filter="url(#f137hr7cjqw93p)" height="32" id="Gnome::Gtk3::Buildable" style="stroke: #A80036; stroke-width: 1.5;" width="150" x="23" y="348"/><ellipse cx="38" cy="364" fill="#80FFFF" rx="11" ry="11" style="stroke: #A80036; stroke-width: 1.0;"/><path d="M39.2031,364.1406 Q39.5625,364.2188 39.8281,364.5 Q40.1094,364.7656 40.5,365.5469 L42.7344,370 L40.0469,370 L38.5469,366.875 Q38.4844,366.7344 38.375,366.5 Q37.7188,365.1094 36.8281,365.1094 L36.0469,365.1094 L36.0469,370 L33.6094,370 L33.6094,357.6094 L37.1406,357.6094 Q39.5313,357.6094 40.5625,358.4531 Q41.6094,359.2969 41.6094,361.2031 Q41.6094,362.4844 40.9844,363.25 Q40.375,364 39.2031,364.1406 Z M36.0469,359.6719 L36.0469,363.0469 L37.2031,363.0469 Q38.2188,363.0469 38.6406,362.6563 Q39.0781,362.25 39.0781,361.3438 Q39.0781,360.4531 38.6406,360.0625 Q38.2188,359.6719 37.2031,359.6719 L36.0469,359.6719 Z "/><text fill="#000000" font-family="sans-serif" font-size="12" font-style="italic" lengthAdjust="spacingAndGlyphs" textLength="57" x="52" y="368.1543">Buildable</text><rect fill="#FFFFFF" height="15.9688" style="stroke: #000000; stroke-width: 1.0; stroke-dasharray: 2.0,2.0;" width="59" x="117" y="345"/><text fill="#000000" font-family="sans-serif" font-size="12" font-style="italic" lengthAdjust="spacingAndGlyphs" textLength="57" x="118" y="357.1387">Interface</text><!--MD5=[99c1fd59bdfde6048aec9e6766dd53ef]
class Gnome::Gtk3::Widget--><rect fill="#FEFECE" filter="url(#f137hr7cjqw93p)" height="32" id="Gnome::Gtk3::Widget" style="stroke: #A80036; stroke-width: 1.5;" width="75" x="23.5" y="440"/><ellipse cx="38.5" cy="456" fill="#80FFFF" rx="11" ry="11" style="stroke: #A80036; stroke-width: 1.0;"/><path d="M41.4688,461.6406 Q40.8906,461.9375 40.25,462.0781 Q39.6094,462.2344 38.9063,462.2344 Q36.4063,462.2344 35.0781,460.5938 Q33.7656,458.9375 33.7656,455.8125 Q33.7656,452.6875 35.0781,451.0313 Q36.4063,449.375 38.9063,449.375 Q39.6094,449.375 40.25,449.5313 Q40.9063,449.6875 41.4688,449.9844 L41.4688,452.7031 Q40.8438,452.125 40.25,451.8594 Q39.6563,451.5781 39.0313,451.5781 Q37.6875,451.5781 37,452.6563 Q36.3125,453.7188 36.3125,455.8125 Q36.3125,457.9063 37,458.9844 Q37.6875,460.0469 39.0313,460.0469 Q39.6563,460.0469 40.25,459.7813 Q40.8438,459.5 41.4688,458.9219 L41.4688,461.6406 Z "/><text fill="#000000" font-family="sans-serif" font-size="12" lengthAdjust="spacingAndGlyphs" textLength="43" x="52.5" y="460.1543">Widget</text><!--MD5=[9e3cc955f682d05594420e46d2e4e3ea]
class Gnome::Gtk3::Container--><rect fill="#FEFECE" filter="url(#f137hr7cjqw93p)" height="32" id="Gnome::Gtk3::Container" style="stroke: #A80036; stroke-width: 1.5;" width="93" x="133.5" y="440"/><ellipse cx="148.5" cy="456" fill="#80FFFF" rx="11" ry="11" style="stroke: #A80036; stroke-width: 1.0;"/><path d="M151.4688,461.6406 Q150.8906,461.9375 150.25,462.0781 Q149.6094,462.2344 148.9063,462.2344 Q146.4063,462.2344 145.0781,460.5938 Q143.7656,458.9375 143.7656,455.8125 Q143.7656,452.6875 145.0781,451.0313 Q146.4063,449.375 148.9063,449.375 Q149.6094,449.375 150.25,449.5313 Q150.9063,449.6875 151.4688,449.9844 L151.4688,452.7031 Q150.8438,452.125 150.25,451.8594 Q149.6563,451.5781 149.0313,451.5781 Q147.6875,451.5781 147,452.6563 Q146.3125,453.7188 146.3125,455.8125 Q146.3125,457.9063 147,458.9844 Q147.6875,460.0469 149.0313,460.0469 Q149.6563,460.0469 150.25,459.7813 Q150.8438,459.5 151.4688,458.9219 L151.4688,461.6406 Z "/><text fill="#000000" font-family="sans-serif" font-size="12" lengthAdjust="spacingAndGlyphs" textLength="61" x="162.5" y="460.1543">Container</text><!--MD5=[6ac0a199e9a9e53d446254a1d59f3468]
class Gnome::Gtk3::Bin--><rect fill="#FEFECE" filter="url(#f137hr7cjqw93p)" height="32" id="Gnome::Gtk3::Bin" style="stroke: #A80036; stroke-width: 1.5;" width="51" x="261.5" y="440"/><ellipse cx="276.5" cy="456" fill="#80FFFF" rx="11" ry="11" style="stroke: #A80036; stroke-width: 1.0;"/><path d="M279.4688,461.6406 Q278.8906,461.9375 278.25,462.0781 Q277.6094,462.2344 276.9063,462.2344 Q274.4063,462.2344 273.0781,460.5938 Q271.7656,458.9375 271.7656,455.8125 Q271.7656,452.6875 273.0781,451.0313 Q274.4063,449.375 276.9063,449.375 Q277.6094,449.375 278.25,449.5313 Q278.9063,449.6875 279.4688,449.9844 L279.4688,452.7031 Q278.8438,452.125 278.25,451.8594 Q277.6563,451.5781 277.0313,451.5781 Q275.6875,451.5781 275,452.6563 Q274.3125,453.7188 274.3125,455.8125 Q274.3125,457.9063 275,458.9844 Q275.6875,460.0469 277.0313,460.0469 Q277.6563,460.0469 278.25,459.7813 Q278.8438,459.5 279.4688,458.9219 L279.4688,461.6406 Z "/><text fill="#000000" font-family="sans-serif" font-size="12" lengthAdjust="spacingAndGlyphs" textLength="19" x="290.5" y="460.1543">Bin</text><!--MD5=[8475d959d77acc346db561b49952bf1a]
class Gnome::Gtk3::Window--><rect fill="#FEFECE" filter="url(#f137hr7cjqw93p)" height="32" id="Gnome::Gtk3::Window" style="stroke: #A80036; stroke-width: 1.5;" width="79" x="347.5" y="440"/><ellipse cx="362.5" cy="456" fill="#80FFFF" rx="11" ry="11" style="stroke: #A80036; stroke-width: 1.0;"/><path d="M365.4688,461.6406 Q364.8906,461.9375 364.25,462.0781 Q363.6094,462.2344 362.9063,462.2344 Q360.4063,462.2344 359.0781,460.5938 Q357.7656,458.9375 357.7656,455.8125 Q357.7656,452.6875 359.0781,451.0313 Q360.4063,449.375 362.9063,449.375 Q363.6094,449.375 364.25,449.5313 Q364.9063,449.6875 365.4688,449.9844 L365.4688,452.7031 Q364.8438,452.125 364.25,451.8594 Q363.6563,451.5781 363.0313,451.5781 Q361.6875,451.5781 361,452.6563 Q360.3125,453.7188 360.3125,455.8125 Q360.3125,457.9063 361,458.9844 Q361.6875,460.0469 363.0313,460.0469 Q363.6563,460.0469 364.25,459.7813 Q364.8438,459.5 365.4688,458.9219 L365.4688,461.6406 Z "/><text fill="#000000" font-family="sans-serif" font-size="12" lengthAdjust="spacingAndGlyphs" textLength="47" x="376.5" y="460.1543">Window</text><!--MD5=[d82c0a95d2d10c1450611f7300749c44]
class Gnome::Gtk3::Dialog--><rect fill="#FEFECE" filter="url(#f137hr7cjqw93p)" height="32" id="Gnome::Gtk3::Dialog" style="stroke: #A80036; stroke-width: 1.5;" width="71" x="461.5" y="440"/><ellipse cx="476.5" cy="456" fill="#80FFFF" rx="11" ry="11" style="stroke: #A80036; stroke-width: 1.0;"/><path d="M479.4688,461.6406 Q478.8906,461.9375 478.25,462.0781 Q477.6094,462.2344 476.9063,462.2344 Q474.4063,462.2344 473.0781,460.5938 Q471.7656,458.9375 471.7656,455.8125 Q471.7656,452.6875 473.0781,451.0313 Q474.4063,449.375 476.9063,449.375 Q477.6094,449.375 478.25,449.5313 Q478.9063,449.6875 479.4688,449.9844 L479.4688,452.7031 Q478.8438,452.125 478.25,451.8594 Q477.6563,451.5781 477.0313,451.5781 Q475.6875,451.5781 475,452.6563 Q474.3125,453.7188 474.3125,455.8125 Q474.3125,457.9063 475,458.9844 Q475.6875,460.0469 477.0313,460.0469 Q477.6563,460.0469 478.25,459.7813 Q478.8438,459.5 479.4688,458.9219 L479.4688,461.6406 Z "/><text fill="#000000" font-family="sans-serif" font-size="12" lengthAdjust="spacingAndGlyphs" textLength="39" x="490.5" y="460.1543">Dialog</text><!--MD5=[85521a51f8e24c5a0bd09550422acae5]
class Gnome::Gtk3::AppChooserDialog--><rect fill="#FEFECE" filter="url(#f137hr7cjqw93p)" height="32" id="Gnome::Gtk3::AppChooserDialog" style="stroke: #A80036; stroke-width: 1.5;" width="147" x="385.5" y="532"/><ellipse cx="400.5" cy="548" fill="#80FFFF" rx="11" ry="11" style="stroke: #A80036; stroke-width: 1.0;"/><path d="M403.4688,553.6406 Q402.8906,553.9375 402.25,554.0781 Q401.6094,554.2344 400.9063,554.2344 Q398.4063,554.2344 397.0781,552.5938 Q395.7656,550.9375 395.7656,547.8125 Q395.7656,544.6875 397.0781,543.0313 Q398.4063,541.375 400.9063,541.375 Q401.6094,541.375 402.25,541.5313 Q402.9063,541.6875 403.4688,541.9844 L403.4688,544.7031 Q402.8438,544.125 402.25,543.8594 Q401.6563,543.5781 401.0313,543.5781 Q399.6875,543.5781 399,544.6563 Q398.3125,545.7188 398.3125,547.8125 Q398.3125,549.9063 399,550.9844 Q399.6875,552.0469 401.0313,552.0469 Q401.6563,552.0469 402.25,551.7813 Q402.8438,551.5 403.4688,550.9219 L403.4688,553.6406 Z "/><text fill="#000000" font-family="sans-serif" font-size="12" lengthAdjust="spacingAndGlyphs" textLength="115" x="414.5" y="552.1543">AppChooserDialog</text><!--MD5=[7c1758a09004760757060230ff805361]
class Gnome::Gtk3::AppChooser--><rect fill="#FEFECE" filter="url(#f137hr7cjqw93p)" height="32" id="Gnome::Gtk3::AppChooser" style="stroke: #A80036; stroke-width: 1.5;" width="108" x="242" y="532"/><ellipse cx="257" cy="548" fill="#80FFFF" rx="11" ry="11" style="stroke: #A80036; stroke-width: 1.0;"/><path d="M259.9688,553.6406 Q259.3906,553.9375 258.75,554.0781 Q258.1094,554.2344 257.4063,554.2344 Q254.9063,554.2344 253.5781,552.5938 Q252.2656,550.9375 252.2656,547.8125 Q252.2656,544.6875 253.5781,543.0313 Q254.9063,541.375 257.4063,541.375 Q258.1094,541.375 258.75,541.5313 Q259.4063,541.6875 259.9688,541.9844 L259.9688,544.7031 Q259.3438,544.125 258.75,543.8594 Q258.1563,543.5781 257.5313,543.5781 Q256.1875,543.5781 255.5,544.6563 Q254.8125,545.7188 254.8125,547.8125 Q254.8125,549.9063 255.5,550.9844 Q256.1875,552.0469 257.5313,552.0469 Q258.1563,552.0469 258.75,551.7813 Q259.3438,551.5 259.9688,550.9219 L259.9688,553.6406 Z "/><text fill="#000000" font-family="sans-serif" font-size="12" lengthAdjust="spacingAndGlyphs" textLength="76" x="271" y="552.1543">AppChooser</text><!--MD5=[e23b679cf607d12ac81e9c5301595709]
reverse link Gnome::N::TopLevelClassSupport to Gnome::GObject::Object--><path codeLine="25" d="M255,94.1 C255,112.76 255,134.73 255,148.98 " fill="none" id="Gnome::N::TopLevelClassSupport-backto-Gnome::GObject::Object" style="stroke: #A80036; stroke-width: 1.0;"/><polygon fill="none" points="248,94.04,255,74.04,262,94.04,248,94.04" style="stroke: #A80036; stroke-width: 1.0;"/><!--MD5=[2e57c6084092ea441ae4a3f826779dd8]
reverse link Gnome::GObject::Object to Gnome::GObject::InitialyUnowned--><path codeLine="26" d="M243.84,200.63 C239.34,214.59 234.39,229.96 230.85,240.96 " fill="none" id="Gnome::GObject::Object-backto-Gnome::GObject::InitialyUnowned" style="stroke: #A80036; stroke-width: 1.0;"/><polygon fill="none" points="237.28,198.16,250.08,181.27,250.61,202.45,237.28,198.16" style="stroke: #A80036; stroke-width: 1.0;"/><!--MD5=[f8ffcf4587ba956cb48626a4231e4d21]
reverse link Gnome::GObject::Signal to Gnome::GObject::Object--><path codeLine="27" d="M203.77,165 C208.85,165 213.92,165 219,165 " fill="none" id="Gnome::GObject::Signal-backto-Gnome::GObject::Object" style="stroke: #A80036; stroke-width: 1.0; stroke-dasharray: 7.0,7.0;"/><polygon fill="none" points="203.56,172,183.56,165,203.56,158,203.56,172" style="stroke: #A80036; stroke-width: 1.0;"/><!--MD5=[aa49dbc803ccf1c2ef8546b297b1dcfd]
reverse link Gnome::GObject::InitialyUnowned to Gnome::Gtk3::Widget--><path codeLine="29" d="M222.97,293.34 C219.16,319.59 210.52,355.02 191,380 C167.33,410.28 127.78,430.57 98.51,442.32 " fill="none" id="Gnome::GObject::InitialyUnowned-backto-Gnome::Gtk3::Widget" style="stroke: #A80036; stroke-width: 1.0;"/><polygon fill="none" points="216.05,292.23,225.24,273.13,229.97,293.79,216.05,292.23" style="stroke: #A80036; stroke-width: 1.0;"/><!--MD5=[1335099fcd58edb25b444005b6858935]
reverse link Gnome::Gtk3::Buildable to Gnome::Gtk3::Widget--><path codeLine="30" d="M83.97,399.13 C78.17,413.23 71.76,428.83 67.18,439.96 " fill="none" id="Gnome::Gtk3::Buildable-backto-Gnome::Gtk3::Widget" style="stroke: #A80036; stroke-width: 1.0; stroke-dasharray: 7.0,7.0;"/><polygon fill="none" points="77.64,396.1,91.72,380.27,90.59,401.43,77.64,396.1" style="stroke: #A80036; stroke-width: 1.0;"/><!--MD5=[940ddf52f8156166e52a90b7ba66cda5]
reverse link Gnome::Gtk3::Widget to Gnome::Gtk3::Container--><path codeLine="32" d="M118.68,456 C123.55,456 128.42,456 133.29,456 " fill="none" id="Gnome::Gtk3::Widget-backto-Gnome::Gtk3::Container" style="stroke: #A80036; stroke-width: 1.0;"/><polygon fill="none" points="118.65,463,98.65,456,118.65,449,118.65,463" style="stroke: #A80036; stroke-width: 1.0;"/><!--MD5=[23a2b14019610824d048d16339c059f6]
reverse link Gnome::Gtk3::Container to Gnome::Gtk3::Bin--><path codeLine="33" d="M246.93,456 C251.66,456 256.4,456 261.14,456 " fill="none" id="Gnome::Gtk3::Container-backto-Gnome::Gtk3::Bin" style="stroke: #A80036; stroke-width: 1.0;"/><polygon fill="none" points="246.81,463,226.81,456,246.81,449,246.81,463" style="stroke: #A80036; stroke-width: 1.0;"/><!--MD5=[c7c580d159725465d734f39d82b8186e]
reverse link Gnome::Gtk3::Bin to Gnome::Gtk3::Window--><path codeLine="34" d="M333,456 C337.76,456 342.52,456 347.28,456 " fill="none" id="Gnome::Gtk3::Bin-backto-Gnome::Gtk3::Window" style="stroke: #A80036; stroke-width: 1.0;"/><polygon fill="none" points="332.78,463,312.78,456,332.78,449,332.78,463" style="stroke: #A80036; stroke-width: 1.0;"/><!--MD5=[aab4940c4363240fa7e017a9bac87047]
reverse link Gnome::Gtk3::Window to Gnome::Gtk3::Dialog--><path codeLine="35" d="M446.74,456 C451.66,456 456.57,456 461.49,456 " fill="none" id="Gnome::Gtk3::Window-backto-Gnome::Gtk3::Dialog" style="stroke: #A80036; stroke-width: 1.0;"/><polygon fill="none" points="446.53,463,426.53,456,446.53,449,446.53,463" style="stroke: #A80036; stroke-width: 1.0;"/><!--MD5=[98c472d7cb08d03e3ed1f9ed072ea4f9]
reverse link Gnome::Gtk3::Dialog to Gnome::Gtk3::AppChooserDialog--><path codeLine="37" d="M482.59,491.13 C476.64,505.23 470.05,520.83 465.35,531.96 " fill="none" id="Gnome::Gtk3::Dialog-backto-Gnome::Gtk3::AppChooserDialog" style="stroke: #A80036; stroke-width: 1.0;"/><polygon fill="none" points="476.33,487.97,490.55,472.27,489.22,493.42,476.33,487.97" style="stroke: #A80036; stroke-width: 1.0;"/><!--MD5=[0f6b321b1f77cd51a026376d466bcb86]
reverse link Gnome::Gtk3::AppChooser to Gnome::Gtk3::AppChooserDialog--><path codeLine="38" d="M370.25,548 C375.31,548 380.37,548 385.42,548 " fill="none" id="Gnome::Gtk3::AppChooser-backto-Gnome::Gtk3::AppChooserDialog" style="stroke: #A80036; stroke-width: 1.0; stroke-dasharray: 7.0,7.0;"/><polygon fill="none" points="370.12,555,350.12,548,370.12,541,370.12,555" style="stroke: #A80036; stroke-width: 1.0;"/><!--MD5=[bbf04abbe48071a8a1583f620373d9c1]
@startuml
'scale 0.9
skinparam packageStyle rectangle
skinparam stereotypeCBackgroundColor #80ffff
set namespaceSeparator ::
hide members

'Class and interface decorations
class Gnome::N::TopLevelClassSupport < Catch all class >

Interface Gnome::GObject::Signal <Interface>
class Gnome::GObject::Signal <<(R,#80ffff)>>

class Gnome::Gtk3::Buildable <<(R,#80ffff)>>
Interface Gnome::Gtk3::Buildable <Interface>

'class Gnome::Gtk3::ColorChooser <<(R,#80ffff)>>
'Interface Gnome::Gtk3::ColorChooser <Interface>

'class Gnome::Gtk3::AppChooser <<(R,#80ffff)>>
'Interface Gnome::Gtk3::AppChooser <Interface>


'Class connections
Gnome::N::TopLevelClassSupport <|- - Gnome::GObject::Object
Gnome::GObject::Object <|- - Gnome::GObject::InitialyUnowned
Gnome::GObject::Signal <|. Gnome::GObject::Object

Gnome::GObject::InitialyUnowned <|- - - Gnome::Gtk3::Widget
Gnome::Gtk3::Buildable <|.. Gnome::Gtk3::Widget

Gnome::Gtk3::Widget <|- Gnome::Gtk3::Container
Gnome::Gtk3::Container <|- Gnome::Gtk3::Bin
Gnome::Gtk3::Bin <|- Gnome::Gtk3::Window
Gnome::Gtk3::Window <|- Gnome::Gtk3::Dialog

Gnome::Gtk3::Dialog <|- - Gnome::Gtk3::AppChooserDialog
Gnome::Gtk3::AppChooser <|. Gnome::Gtk3::AppChooserDialog

'Gnome::Gtk3::Dialog <|- - Gnome::Gtk3::AboutDialog
'Gnome::Gtk3::Dialog <|- - Gnome::Gtk3::ColorChooserDialog
'Gnome::Gtk3::Dialog <|- - Gnome::Gtk3::FileChooserDialog
'Gnome::Gtk3::Dialog <|- - Gnome::Gtk3::MessageDialog
'Gnome::Gtk3::Dialog <|- - Gnome::Gtk3::FontChooserDialog
'Gnome::Gtk3::Dialog <|- - Gnome::Gtk3::RecentChooserDialog

@enduml

@startuml
skinparam packageStyle rectangle
skinparam stereotypeCBackgroundColor #80ffff
set namespaceSeparator ::
hide members

class Gnome::N::TopLevelClassSupport < Catch all class >

Interface Gnome::GObject::Signal <Interface>
class Gnome::GObject::Signal <<(R,#80ffff)>>

class Gnome::Gtk3::Buildable <<(R,#80ffff)>>
Interface Gnome::Gtk3::Buildable <Interface>




Gnome::N::TopLevelClassSupport <|- - Gnome::GObject::Object
Gnome::GObject::Object <|- - Gnome::GObject::InitialyUnowned
Gnome::GObject::Signal <|. Gnome::GObject::Object

Gnome::GObject::InitialyUnowned <|- - - Gnome::Gtk3::Widget
Gnome::Gtk3::Buildable <|.. Gnome::Gtk3::Widget

Gnome::Gtk3::Widget <|- Gnome::Gtk3::Container
Gnome::Gtk3::Container <|- Gnome::Gtk3::Bin
Gnome::Gtk3::Bin <|- Gnome::Gtk3::Window
Gnome::Gtk3::Window <|- Gnome::Gtk3::Dialog

Gnome::Gtk3::Dialog <|- - Gnome::Gtk3::AppChooserDialog
Gnome::Gtk3::AppChooser <|. Gnome::Gtk3::AppChooserDialog


@enduml

PlantUML version 1.2020.19(Mon Oct 12 17:10:01 CEST 2020)
(GPL source distribution)
Java Runtime: OpenJDK Runtime Environment
JVM: OpenJDK 64-Bit Server VM
Default Encoding: UTF-8
Language: en
Country: US
--></g></svg>