<?xml version="1.0" encoding="UTF-8" standalone="no"?><svg xmlns="http://www.w3.org/2000/svg" xmlns:xlink="http://www.w3.org/1999/xlink" contentScriptType="application/ecmascript" contentStyleType="text/css" height="546px" preserveAspectRatio="none" style="width:581px;height:546px;" version="1.1" viewBox="0 0 581 546" width="581px" zoomAndPan="magnify"><defs><filter height="300%" id="f17f25qq45x05o" width="300%" x="-1" y="-1"><feGaussianBlur result="blurOut" stdDeviation="2.0"/><feColorMatrix in="blurOut" result="blurOut2" type="matrix" values="0 0 0 0 0 0 0 0 0 0 0 0 0 0 0 0 0 0 .4 0"/><feOffset dx="4.0" dy="4.0" in="blurOut2" result="blurOut3"/><feBlend in="SourceGraphic" in2="blurOut3" mode="normal"/></filter></defs><g><!--MD5=[b969295f0ec9b4fa482091c3e26049be]
cluster Gnome::N--><rect fill="#FFFFFF" filter="url(#f17f25qq45x05o)" height="83" style="stroke: #000000; stroke-width: 1.5;" width="302" x="267" y="7"/><text fill="#000000" font-family="sans-serif" font-size="14" font-weight="bold" lengthAdjust="spacingAndGlyphs" textLength="79" x="378.5" y="21.9951">Gnome::N</text><!--MD5=[2fb3f9b624b0544b9841d5da78ec0508]
cluster Gnome::GObject--><rect fill="#FFFFFF" filter="url(#f17f25qq45x05o)" height="175" style="stroke: #000000; stroke-width: 1.5;" width="271" x="199" y="114"/><text fill="#000000" font-family="sans-serif" font-size="14" font-weight="bold" lengthAdjust="spacingAndGlyphs" textLength="131" x="269" y="128.9951">Gnome::GObject</text><!--MD5=[7d67f77911969026863717fbb204e273]
cluster Gnome::Gtk3--><rect fill="#FFFFFF" filter="url(#f17f25qq45x05o)" height="175" style="stroke: #000000; stroke-width: 1.5;" width="436" x="7" y="359"/><text fill="#000000" font-family="sans-serif" font-size="14" font-weight="bold" lengthAdjust="spacingAndGlyphs" textLength="105" x="172.5" y="373.9951">Gnome::Gtk3</text><!--MD5=[0b8e281ccd00c72019a31d78e9f95b5d]
class Gnome::N::TopLevelClassSupport--><rect codeLine="9" fill="#FEFECE" filter="url(#f17f25qq45x05o)" height="32" id="Gnome::N::TopLevelClassSupport" style="stroke: #A80036; stroke-width: 1.5;" width="269" x="283.5" y="42"/><ellipse cx="298.5" cy="58" fill="#80FFFF" rx="11" ry="11" style="stroke: #A80036; stroke-width: 1.0;"/><path d="M301.4688,63.6406 Q300.8906,63.9375 300.25,64.0781 Q299.6094,64.2344 298.9063,64.2344 Q296.4063,64.2344 295.0781,62.5938 Q293.7656,60.9375 293.7656,57.8125 Q293.7656,54.6875 295.0781,53.0313 Q296.4063,51.375 298.9063,51.375 Q299.6094,51.375 300.25,51.5313 Q300.9063,51.6875 301.4688,51.9844 L301.4688,54.7031 Q300.8438,54.125 300.25,53.8594 Q299.6563,53.5781 299.0313,53.5781 Q297.6875,53.5781 297,54.6563 Q296.3125,55.7188 296.3125,57.8125 Q296.3125,59.9063 297,60.9844 Q297.6875,62.0469 299.0313,62.0469 Q299.6563,62.0469 300.25,61.7813 Q300.8438,61.5 301.4688,60.9219 L301.4688,63.6406 Z "/><text fill="#000000" font-family="sans-serif" font-size="12" lengthAdjust="spacingAndGlyphs" textLength="137" x="312.5" y="62.1807">TopLevelClassSupport</text><rect fill="#FFFFFF" height="15.9688" style="stroke: #000000; stroke-width: 1.0; stroke-dasharray: 2.0,2.0;" width="98" x="457.5" y="39"/><text fill="#000000" font-family="sans-serif" font-size="12" font-style="italic" lengthAdjust="spacingAndGlyphs" textLength="88" x="462.5" y="51.1387">Catch all class</text><!--MD5=[52303d185de782118d4739c052001bf2]
class Gnome::GObject::Signal--><rect codeLine="12" fill="#FEFECE" filter="url(#f17f25qq45x05o)" height="32" id="Gnome::GObject::Signal" style="stroke: #A80036; stroke-width: 1.5;" width="131" x="215.5" y="149"/><ellipse cx="230.5" cy="165" fill="#80FFFF" rx="11" ry="11" style="stroke: #A80036; stroke-width: 1.0;"/><path d="M231.7031,165.1406 Q232.0625,165.2188 232.3281,165.5 Q232.6094,165.7656 233,166.5469 L235.2344,171 L232.5469,171 L231.0469,167.875 Q230.9844,167.7344 230.875,167.5 Q230.2188,166.1094 229.3281,166.1094 L228.5469,166.1094 L228.5469,171 L226.1094,171 L226.1094,158.6094 L229.6406,158.6094 Q232.0313,158.6094 233.0625,159.4531 Q234.1094,160.2969 234.1094,162.2031 Q234.1094,163.4844 233.4844,164.25 Q232.875,165 231.7031,165.1406 Z M228.5469,160.6719 L228.5469,164.0469 L229.7031,164.0469 Q230.7188,164.0469 231.1406,163.6563 Q231.5781,163.25 231.5781,162.3438 Q231.5781,161.4531 231.1406,161.0625 Q230.7188,160.6719 229.7031,160.6719 L228.5469,160.6719 Z "/><text fill="#000000" font-family="sans-serif" font-size="12" lengthAdjust="spacingAndGlyphs" textLength="38" x="244.5" y="169.1807">Signal</text><rect fill="#FFFFFF" height="15.9688" style="stroke: #000000; stroke-width: 1.0; stroke-dasharray: 2.0,2.0;" width="59" x="290.5" y="146"/><text fill="#000000" font-family="sans-serif" font-size="12" font-style="italic" lengthAdjust="spacingAndGlyphs" textLength="57" x="291.5" y="158.1387">Interface</text><!--MD5=[c2016d28441601ceb0a74f47a4537d14]
class Gnome::GObject::Object--><rect fill="#FEFECE" filter="url(#f17f25qq45x05o)" height="32" id="Gnome::GObject::Object" style="stroke: #A80036; stroke-width: 1.5;" width="72" x="382" y="149"/><ellipse cx="397" cy="165" fill="#80FFFF" rx="11" ry="11" style="stroke: #A80036; stroke-width: 1.0;"/><path d="M399.9688,170.6406 Q399.3906,170.9375 398.75,171.0781 Q398.1094,171.2344 397.4063,171.2344 Q394.9063,171.2344 393.5781,169.5938 Q392.2656,167.9375 392.2656,164.8125 Q392.2656,161.6875 393.5781,160.0313 Q394.9063,158.375 397.4063,158.375 Q398.1094,158.375 398.75,158.5313 Q399.4063,158.6875 399.9688,158.9844 L399.9688,161.7031 Q399.3438,161.125 398.75,160.8594 Q398.1563,160.5781 397.5313,160.5781 Q396.1875,160.5781 395.5,161.6563 Q394.8125,162.7188 394.8125,164.8125 Q394.8125,166.9063 395.5,167.9844 Q396.1875,169.0469 397.5313,169.0469 Q398.1563,169.0469 398.75,168.7813 Q399.3438,168.5 399.9688,167.9219 L399.9688,170.6406 Z "/><text fill="#000000" font-family="sans-serif" font-size="12" lengthAdjust="spacingAndGlyphs" textLength="40" x="411" y="169.1807">Object</text><!--MD5=[f47b9a4a06d3f9bed948fa39f8c5540e]
class Gnome::GObject::InitialyUnowned--><rect fill="#FEFECE" filter="url(#f17f25qq45x05o)" height="32" id="Gnome::GObject::InitialyUnowned" style="stroke: #A80036; stroke-width: 1.5;" width="129" x="324.5" y="241"/><ellipse cx="339.5" cy="257" fill="#80FFFF" rx="11" ry="11" style="stroke: #A80036; stroke-width: 1.0;"/><path d="M342.4688,262.6406 Q341.8906,262.9375 341.25,263.0781 Q340.6094,263.2344 339.9063,263.2344 Q337.4063,263.2344 336.0781,261.5938 Q334.7656,259.9375 334.7656,256.8125 Q334.7656,253.6875 336.0781,252.0313 Q337.4063,250.375 339.9063,250.375 Q340.6094,250.375 341.25,250.5313 Q341.9063,250.6875 342.4688,250.9844 L342.4688,253.7031 Q341.8438,253.125 341.25,252.8594 Q340.6563,252.5781 340.0313,252.5781 Q338.6875,252.5781 338,253.6563 Q337.3125,254.7188 337.3125,256.8125 Q337.3125,258.9063 338,259.9844 Q338.6875,261.0469 340.0313,261.0469 Q340.6563,261.0469 341.25,260.7813 Q341.8438,260.5 342.4688,259.9219 L342.4688,262.6406 Z "/><text fill="#000000" font-family="sans-serif" font-size="12" lengthAdjust="spacingAndGlyphs" textLength="97" x="353.5" y="261.1807">InitialyUnowned</text><!--MD5=[fc528952aa489a9a9f8514412a46a5d5]
class Gnome::Gtk3::Buildable--><rect codeLine="19" fill="#FEFECE" filter="url(#f17f25qq45x05o)" height="32" id="Gnome::Gtk3::Buildable" style="stroke: #A80036; stroke-width: 1.5;" width="150" x="277" y="486"/><ellipse cx="292" cy="502" fill="#80FFFF" rx="11" ry="11" style="stroke: #A80036; stroke-width: 1.0;"/><path d="M293.2031,502.1406 Q293.5625,502.2188 293.8281,502.5 Q294.1094,502.7656 294.5,503.5469 L296.7344,508 L294.0469,508 L292.5469,504.875 Q292.4844,504.7344 292.375,504.5 Q291.7188,503.1094 290.8281,503.1094 L290.0469,503.1094 L290.0469,508 L287.6094,508 L287.6094,495.6094 L291.1406,495.6094 Q293.5313,495.6094 294.5625,496.4531 Q295.6094,497.2969 295.6094,499.2031 Q295.6094,500.4844 294.9844,501.25 Q294.375,502 293.2031,502.1406 Z M290.0469,497.6719 L290.0469,501.0469 L291.2031,501.0469 Q292.2188,501.0469 292.6406,500.6563 Q293.0781,500.25 293.0781,499.3438 Q293.0781,498.4531 292.6406,498.0625 Q292.2188,497.6719 291.2031,497.6719 L290.0469,497.6719 Z "/><text fill="#000000" font-family="sans-serif" font-size="12" lengthAdjust="spacingAndGlyphs" textLength="57" x="306" y="506.1807">Buildable</text><rect fill="#FFFFFF" height="15.9688" style="stroke: #000000; stroke-width: 1.0; stroke-dasharray: 2.0,2.0;" width="59" x="371" y="483"/><text fill="#000000" font-family="sans-serif" font-size="12" font-style="italic" lengthAdjust="spacingAndGlyphs" textLength="57" x="372" y="495.1387">Interface</text><!--MD5=[99c1fd59bdfde6048aec9e6766dd53ef]
class Gnome::Gtk3::Widget--><rect fill="#FEFECE" filter="url(#f17f25qq45x05o)" height="32" id="Gnome::Gtk3::Widget" style="stroke: #A80036; stroke-width: 1.5;" width="75" x="351.5" y="394"/><ellipse cx="366.5" cy="410" fill="#80FFFF" rx="11" ry="11" style="stroke: #A80036; stroke-width: 1.0;"/><path d="M369.4688,415.6406 Q368.8906,415.9375 368.25,416.0781 Q367.6094,416.2344 366.9063,416.2344 Q364.4063,416.2344 363.0781,414.5938 Q361.7656,412.9375 361.7656,409.8125 Q361.7656,406.6875 363.0781,405.0313 Q364.4063,403.375 366.9063,403.375 Q367.6094,403.375 368.25,403.5313 Q368.9063,403.6875 369.4688,403.9844 L369.4688,406.7031 Q368.8438,406.125 368.25,405.8594 Q367.6563,405.5781 367.0313,405.5781 Q365.6875,405.5781 365,406.6563 Q364.3125,407.7188 364.3125,409.8125 Q364.3125,411.9063 365,412.9844 Q365.6875,414.0469 367.0313,414.0469 Q367.6563,414.0469 368.25,413.7813 Q368.8438,413.5 369.4688,412.9219 L369.4688,415.6406 Z "/><text fill="#000000" font-family="sans-serif" font-size="12" lengthAdjust="spacingAndGlyphs" textLength="43" x="380.5" y="414.1807">Widget</text><!--MD5=[8475d959d77acc346db561b49952bf1a]
class Gnome::Gtk3::Window--><rect fill="#FEFECE" filter="url(#f17f25qq45x05o)" height="32" id="Gnome::Gtk3::Window" style="stroke: #A80036; stroke-width: 1.5;" width="79" x="23.5" y="394"/><ellipse cx="38.5" cy="410" fill="#80FFFF" rx="11" ry="11" style="stroke: #A80036; stroke-width: 1.0;"/><path d="M41.4688,415.6406 Q40.8906,415.9375 40.25,416.0781 Q39.6094,416.2344 38.9063,416.2344 Q36.4063,416.2344 35.0781,414.5938 Q33.7656,412.9375 33.7656,409.8125 Q33.7656,406.6875 35.0781,405.0313 Q36.4063,403.375 38.9063,403.375 Q39.6094,403.375 40.25,403.5313 Q40.9063,403.6875 41.4688,403.9844 L41.4688,406.7031 Q40.8438,406.125 40.25,405.8594 Q39.6563,405.5781 39.0313,405.5781 Q37.6875,405.5781 37,406.6563 Q36.3125,407.7188 36.3125,409.8125 Q36.3125,411.9063 37,412.9844 Q37.6875,414.0469 39.0313,414.0469 Q39.6563,414.0469 40.25,413.7813 Q40.8438,413.5 41.4688,412.9219 L41.4688,415.6406 Z "/><text fill="#000000" font-family="sans-serif" font-size="12" lengthAdjust="spacingAndGlyphs" textLength="47" x="52.5" y="414.1807">Window</text><!--MD5=[6ac0a199e9a9e53d446254a1d59f3468]
class Gnome::Gtk3::Bin--><rect fill="#FEFECE" filter="url(#f17f25qq45x05o)" height="32" id="Gnome::Gtk3::Bin" style="stroke: #A80036; stroke-width: 1.5;" width="51" x="137.5" y="394"/><ellipse cx="152.5" cy="410" fill="#80FFFF" rx="11" ry="11" style="stroke: #A80036; stroke-width: 1.0;"/><path d="M155.4688,415.6406 Q154.8906,415.9375 154.25,416.0781 Q153.6094,416.2344 152.9063,416.2344 Q150.4063,416.2344 149.0781,414.5938 Q147.7656,412.9375 147.7656,409.8125 Q147.7656,406.6875 149.0781,405.0313 Q150.4063,403.375 152.9063,403.375 Q153.6094,403.375 154.25,403.5313 Q154.9063,403.6875 155.4688,403.9844 L155.4688,406.7031 Q154.8438,406.125 154.25,405.8594 Q153.6563,405.5781 153.0313,405.5781 Q151.6875,405.5781 151,406.6563 Q150.3125,407.7188 150.3125,409.8125 Q150.3125,411.9063 151,412.9844 Q151.6875,414.0469 153.0313,414.0469 Q153.6563,414.0469 154.25,413.7813 Q154.8438,413.5 155.4688,412.9219 L155.4688,415.6406 Z "/><text fill="#000000" font-family="sans-serif" font-size="12" lengthAdjust="spacingAndGlyphs" textLength="19" x="166.5" y="414.1807">Bin</text><!--MD5=[ed92a98ee87cd5c85405177536df5d44]
class Gnome::Gtk3::Assistant--><rect fill="#FEFECE" filter="url(#f17f25qq45x05o)" height="32" id="Gnome::Gtk3::Assistant" style="stroke: #A80036; stroke-width: 1.5;" width="90" x="23" y="486"/><ellipse cx="38" cy="502" fill="#80FFFF" rx="11" ry="11" style="stroke: #A80036; stroke-width: 1.0;"/><path d="M40.9688,507.6406 Q40.3906,507.9375 39.75,508.0781 Q39.1094,508.2344 38.4063,508.2344 Q35.9063,508.2344 34.5781,506.5938 Q33.2656,504.9375 33.2656,501.8125 Q33.2656,498.6875 34.5781,497.0313 Q35.9063,495.375 38.4063,495.375 Q39.1094,495.375 39.75,495.5313 Q40.4063,495.6875 40.9688,495.9844 L40.9688,498.7031 Q40.3438,498.125 39.75,497.8594 Q39.1563,497.5781 38.5313,497.5781 Q37.1875,497.5781 36.5,498.6563 Q35.8125,499.7188 35.8125,501.8125 Q35.8125,503.9063 36.5,504.9844 Q37.1875,506.0469 38.5313,506.0469 Q39.1563,506.0469 39.75,505.7813 Q40.3438,505.5 40.9688,504.9219 L40.9688,507.6406 Z "/><text fill="#000000" font-family="sans-serif" font-size="12" lengthAdjust="spacingAndGlyphs" textLength="58" x="52" y="506.1807">Assistant</text><!--MD5=[9e3cc955f682d05594420e46d2e4e3ea]
class Gnome::Gtk3::Container--><rect fill="#FEFECE" filter="url(#f17f25qq45x05o)" height="32" id="Gnome::Gtk3::Container" style="stroke: #A80036; stroke-width: 1.5;" width="93" x="223.5" y="394"/><ellipse cx="238.5" cy="410" fill="#80FFFF" rx="11" ry="11" style="stroke: #A80036; stroke-width: 1.0;"/><path d="M241.4688,415.6406 Q240.8906,415.9375 240.25,416.0781 Q239.6094,416.2344 238.9063,416.2344 Q236.4063,416.2344 235.0781,414.5938 Q233.7656,412.9375 233.7656,409.8125 Q233.7656,406.6875 235.0781,405.0313 Q236.4063,403.375 238.9063,403.375 Q239.6094,403.375 240.25,403.5313 Q240.9063,403.6875 241.4688,403.9844 L241.4688,406.7031 Q240.8438,406.125 240.25,405.8594 Q239.6563,405.5781 239.0313,405.5781 Q237.6875,405.5781 237,406.6563 Q236.3125,407.7188 236.3125,409.8125 Q236.3125,411.9063 237,412.9844 Q237.6875,414.0469 239.0313,414.0469 Q239.6563,414.0469 240.25,413.7813 Q240.8438,413.5 241.4688,412.9219 L241.4688,415.6406 Z "/><text fill="#000000" font-family="sans-serif" font-size="12" lengthAdjust="spacingAndGlyphs" textLength="61" x="252.5" y="414.1807">Container</text><!--MD5=[e23b679cf607d12ac81e9c5301595709]
reverse link Gnome::N::TopLevelClassSupport to Gnome::GObject::Object--><path codeLine="23" d="M418,94.1 C418,112.76 418,134.73 418,148.98 " fill="none" id="Gnome::N::TopLevelClassSupport-backto-Gnome::GObject::Object" style="stroke: #A80036; stroke-width: 1.0;"/><polygon fill="none" points="411,94.04,418,74.04,425,94.04,411,94.04" style="stroke: #A80036; stroke-width: 1.0;"/><!--MD5=[2e57c6084092ea441ae4a3f826779dd8]
reverse link Gnome::GObject::Object to Gnome::GObject::InitialyUnowned--><path codeLine="24" d="M406.84,200.63 C402.34,214.59 397.39,229.96 393.85,240.96 " fill="none" id="Gnome::GObject::Object-backto-Gnome::GObject::InitialyUnowned" style="stroke: #A80036; stroke-width: 1.0;"/><polygon fill="none" points="400.28,198.16,413.08,181.27,413.61,202.45,400.28,198.16" style="stroke: #A80036; stroke-width: 1.0;"/><!--MD5=[f8ffcf4587ba956cb48626a4231e4d21]
reverse link Gnome::GObject::Signal to Gnome::GObject::Object--><path codeLine="25" d="M366.77,165 C371.85,165 376.92,165 382,165 " fill="none" id="Gnome::GObject::Signal-backto-Gnome::GObject::Object" style="stroke: #A80036; stroke-width: 1.0; stroke-dasharray: 7.0,7.0;"/><polygon fill="none" points="366.56,172,346.56,165,366.56,158,366.56,172" style="stroke: #A80036; stroke-width: 1.0;"/><!--MD5=[aa49dbc803ccf1c2ef8546b297b1dcfd]
reverse link Gnome::GObject::InitialyUnowned to Gnome::Gtk3::Widget--><path codeLine="27" d="M389,293.28 C389,325.02 389,370.17 389,393.58 " fill="none" id="Gnome::GObject::InitialyUnowned-backto-Gnome::Gtk3::Widget" style="stroke: #A80036; stroke-width: 1.0;"/><polygon fill="none" points="382,293.03,389,273.03,396,293.03,382,293.03" style="stroke: #A80036; stroke-width: 1.0;"/><!--MD5=[e1568b3b4ceade3a3349f45f19b4c32a]
link Gnome::Gtk3::Widget to Gnome::Gtk3::Buildable--><path codeLine="29" d="M382.72,426.27 C378.12,437.45 371.7,453.08 365.92,467.15 " fill="none" id="Gnome::Gtk3::Widget-to-Gnome::Gtk3::Buildable" style="stroke: #A80036; stroke-width: 1.0; stroke-dasharray: 7.0,7.0;"/><polygon fill="none" points="372.26,470.12,358.18,485.96,359.31,464.8,372.26,470.12" style="stroke: #A80036; stroke-width: 1.0;"/><!--MD5=[933f665365ad6e2aa8fe50645ba3b70c]
link Gnome::Gtk3::Window to Gnome::Gtk3::Bin--><path codeLine="30" d="M102.84,410 C107.58,410 112.31,410 117.05,410 " fill="none" id="Gnome::Gtk3::Window-to-Gnome::Gtk3::Bin" style="stroke: #A80036; stroke-width: 1.0;"/><polygon fill="none" points="117.15,403,137.15,410,117.15,417,117.15,403" style="stroke: #A80036; stroke-width: 1.0;"/><!--MD5=[7848fdb0c9aac019f6841fc12b914a4f]
reverse link Gnome::Gtk3::Window to Gnome::Gtk3::Assistant--><path codeLine="31" d="M64.98,446.61 C65.74,460.31 66.57,475.22 67.16,485.96 " fill="none" id="Gnome::Gtk3::Window-backto-Gnome::Gtk3::Assistant" style="stroke: #A80036; stroke-width: 1.0;"/><polygon fill="none" points="57.97,446.62,63.85,426.27,71.95,445.85,57.97,446.62" style="stroke: #A80036; stroke-width: 1.0;"/><!--MD5=[aa2b56f221bfaa2860ef37394f2d22b5]
link Gnome::Gtk3::Bin to Gnome::Gtk3::Container--><path codeLine="33" d="M188.91,410 C193.68,410 198.44,410 203.21,410 " fill="none" id="Gnome::Gtk3::Bin-to-Gnome::Gtk3::Container" style="stroke: #A80036; stroke-width: 1.0;"/><polygon fill="none" points="203.44,403,223.44,410,203.44,417,203.44,403" style="stroke: #A80036; stroke-width: 1.0;"/><!--MD5=[aaf476f5d2312b98d0ee61e81272172c]
link Gnome::Gtk3::Container to Gnome::Gtk3::Widget--><path codeLine="34" d="M316.95,410 C321.69,410 326.43,410 331.17,410 " fill="none" id="Gnome::Gtk3::Container-to-Gnome::Gtk3::Widget" style="stroke: #A80036; stroke-width: 1.0;"/><polygon fill="none" points="331.29,403,351.29,410,331.29,417,331.29,403" style="stroke: #A80036; stroke-width: 1.0;"/><!--MD5=[867668e8b284277d837f69751c465907]
@startuml
'scale 0.8
skinparam packageStyle rectangle
skinparam stereotypeCBackgroundColor #80ffff
set namespaceSeparator ::
hide members

'Class and interface decorations
class Gnome::N::TopLevelClassSupport < Catch all class >

Interface Gnome::GObject::Signal <Interface>
class Gnome::GObject::Signal <<(R,#80ffff)>>


'Interface Gnome::Gtk3::ColorChooser <Interface>
'Interface Gnome::Gtk3::AppChooser <Interface>

Interface Gnome::Gtk3::Buildable <Interface>
class Gnome::Gtk3::Buildable <<(R,#80ffff)>>


'Class connections
Gnome::N::TopLevelClassSupport <|- - Gnome::GObject::Object
Gnome::GObject::Object <|- - Gnome::GObject::InitialyUnowned
Gnome::GObject::Signal <|. Gnome::GObject::Object

Gnome::GObject::InitialyUnowned <|- - - Gnome::Gtk3::Widget

Gnome::Gtk3::Widget ..|>  Gnome::Gtk3::Buildable
Gnome::Gtk3::Window -|> Gnome::Gtk3::Bin
Gnome::Gtk3::Window <|- - Gnome::Gtk3::Assistant

Gnome::Gtk3::Bin -|> Gnome::Gtk3::Container
Gnome::Gtk3::Container -|> Gnome::Gtk3::Widget

'Gnome::Gtk3::Window <|- Gnome::Gtk3::Dialog

'Gnome::Gtk3::Dialog <|- - Gnome::Gtk3::AboutDialog
'Gnome::Gtk3::Dialog <|- - Gnome::Gtk3::ColorChooserDialog
'Gnome::Gtk3::Dialog <|- - Gnome::Gtk3::FileChooserDialog
'Gnome::Gtk3::Dialog <|- - Gnome::Gtk3::MessageDialog
'Gnome::Gtk3::Dialog <|- - Gnome::Gtk3::AppChooserDialog
'Gnome::Gtk3::Dialog <|- - Gnome::Gtk3::FontChooserDialog
'Gnome::Gtk3::Dialog <|- - Gnome::Gtk3::RecentChooserDialog

'Interface connections
'Gnome::Gtk3::ColorChooser <|- Gnome::Gtk3::ColorChooserDialog
'Gnome::Gtk3::AppChooser <|- Gnome::Gtk3::AppChooserDialog

'Some hidden connections
'Gnome::GObject <- -[hidden]- Gnome::Gtk3
@enduml

@startuml
skinparam packageStyle rectangle
skinparam stereotypeCBackgroundColor #80ffff
set namespaceSeparator ::
hide members

class Gnome::N::TopLevelClassSupport < Catch all class >

Interface Gnome::GObject::Signal <Interface>
class Gnome::GObject::Signal <<(R,#80ffff)>>



Interface Gnome::Gtk3::Buildable <Interface>
class Gnome::Gtk3::Buildable <<(R,#80ffff)>>


Gnome::N::TopLevelClassSupport <|- - Gnome::GObject::Object
Gnome::GObject::Object <|- - Gnome::GObject::InitialyUnowned
Gnome::GObject::Signal <|. Gnome::GObject::Object

Gnome::GObject::InitialyUnowned <|- - - Gnome::Gtk3::Widget

Gnome::Gtk3::Widget ..|>  Gnome::Gtk3::Buildable
Gnome::Gtk3::Window -|> Gnome::Gtk3::Bin
Gnome::Gtk3::Window <|- - Gnome::Gtk3::Assistant

Gnome::Gtk3::Bin -|> Gnome::Gtk3::Container
Gnome::Gtk3::Container -|> Gnome::Gtk3::Widget




@enduml

PlantUML version 1.2020.19(Mon Oct 12 17:10:01 CEST 2020)
(GPL source distribution)
Java Runtime: OpenJDK Runtime Environment
JVM: OpenJDK 64-Bit Server VM
Default Encoding: UTF-8
Language: en
Country: null
--></g></svg>