<?xml version="1.0" encoding="UTF-8" standalone="no"?><svg xmlns="http://www.w3.org/2000/svg" xmlns:xlink="http://www.w3.org/1999/xlink" contentScriptType="application/ecmascript" contentStyleType="text/css" height="554px" preserveAspectRatio="none" style="width:592px;height:554px;" version="1.1" viewBox="0 0 592 554" width="592px" zoomAndPan="magnify"><defs><filter height="300%" id="f1jz7a0hj9nm9w" width="300%" x="-1" y="-1"><feGaussianBlur result="blurOut" stdDeviation="2.0"/><feColorMatrix in="blurOut" result="blurOut2" type="matrix" values="0 0 0 0 0 0 0 0 0 0 0 0 0 0 0 0 0 0 .4 0"/><feOffset dx="4.0" dy="4.0" in="blurOut2" result="blurOut3"/><feBlend in="SourceGraphic" in2="blurOut3" mode="normal"/></filter></defs><g><!--cluster Gnome::N--><rect fill="#FFFFFF" filter="url(#f1jz7a0hj9nm9w)" height="67" style="stroke: #000000; stroke-width: 1.5;" width="286" x="295" y="16"/><text fill="#000000" font-family="sans-serif" font-size="14" font-weight="bold" lengthAdjust="spacingAndGlyphs" textLength="79" x="398.5" y="30.9951">Gnome::N</text><!--cluster Gnome::GObject--><rect fill="#FFFFFF" filter="url(#f1jz7a0hj9nm9w)" height="251" style="stroke: #000000; stroke-width: 1.5;" width="148" x="245" y="108"/><text fill="#000000" font-family="sans-serif" font-size="14" font-weight="bold" lengthAdjust="spacingAndGlyphs" textLength="131" x="253.5" y="122.9951">Gnome::GObject</text><!--cluster Gnome::Gtk3--><rect fill="#FFFFFF" filter="url(#f1jz7a0hj9nm9w)" height="159" style="stroke: #000000; stroke-width: 1.5;" width="306" x="14" y="384"/><text fill="#000000" font-family="sans-serif" font-size="14" font-weight="bold" lengthAdjust="spacingAndGlyphs" textLength="105" x="114.5" y="398.9951">Gnome::Gtk3</text><!--class Gnome::N::TopLevelClassSupport--><rect fill="#FEFECE" filter="url(#f1jz7a0hj9nm9w)" height="32" id="Gnome::N::TopLevelClassSupport" style="stroke: #A80036; stroke-width: 1.5;" width="269" x="303.5" y="43"/><ellipse cx="318.5" cy="59" fill="#80FFFF" rx="11" ry="11" style="stroke: #A80036; stroke-width: 1.0;"/><path d="M321.4688,64.6406 Q320.8906,64.9375 320.25,65.0781 Q319.6094,65.2344 318.9063,65.2344 Q316.4063,65.2344 315.0781,63.5938 Q313.7656,61.9375 313.7656,58.8125 Q313.7656,55.6875 315.0781,54.0313 Q316.4063,52.375 318.9063,52.375 Q319.6094,52.375 320.25,52.5313 Q320.9063,52.6875 321.4688,52.9844 L321.4688,55.7031 Q320.8438,55.125 320.25,54.8594 Q319.6563,54.5781 319.0313,54.5781 Q317.6875,54.5781 317,55.6563 Q316.3125,56.7188 316.3125,58.8125 Q316.3125,60.9063 317,61.9844 Q317.6875,63.0469 319.0313,63.0469 Q319.6563,63.0469 320.25,62.7813 Q320.8438,62.5 321.4688,61.9219 L321.4688,64.6406 Z "/><text fill="#000000" font-family="sans-serif" font-size="12" lengthAdjust="spacingAndGlyphs" textLength="137" x="332.5" y="63.1807">TopLevelClassSupport</text><rect fill="#FFFFFF" height="15.9688" style="stroke: #000000; stroke-width: 1.0; stroke-dasharray: 2.0,2.0;" width="98" x="477.5" y="40"/><text fill="#000000" font-family="sans-serif" font-size="12" font-style="italic" lengthAdjust="spacingAndGlyphs" textLength="88" x="482.5" y="52.1387">Catch all class</text><!--class Gnome::GObject::Signal--><rect fill="#FEFECE" filter="url(#f1jz7a0hj9nm9w)" height="32" id="Gnome::GObject::Signal" style="stroke: #A80036; stroke-width: 1.5;" width="131" x="253.5" y="135"/><ellipse cx="268.5" cy="151" fill="#80FFFF" rx="11" ry="11" style="stroke: #A80036; stroke-width: 1.0;"/><path d="M269.7031,151.1406 Q270.0625,151.2188 270.3281,151.5 Q270.6094,151.7656 271,152.5469 L273.2344,157 L270.5469,157 L269.0469,153.875 Q268.9844,153.7344 268.875,153.5 Q268.2188,152.1094 267.3281,152.1094 L266.5469,152.1094 L266.5469,157 L264.1094,157 L264.1094,144.6094 L267.6406,144.6094 Q270.0313,144.6094 271.0625,145.4531 Q272.1094,146.2969 272.1094,148.2031 Q272.1094,149.4844 271.4844,150.25 Q270.875,151 269.7031,151.1406 Z M266.5469,146.6719 L266.5469,150.0469 L267.7031,150.0469 Q268.7188,150.0469 269.1406,149.6563 Q269.5781,149.25 269.5781,148.3438 Q269.5781,147.4531 269.1406,147.0625 Q268.7188,146.6719 267.7031,146.6719 L266.5469,146.6719 Z "/><text fill="#000000" font-family="sans-serif" font-size="12" lengthAdjust="spacingAndGlyphs" textLength="38" x="282.5" y="155.1807">Signal</text><rect fill="#FFFFFF" height="15.9688" style="stroke: #000000; stroke-width: 1.0; stroke-dasharray: 2.0,2.0;" width="59" x="328.5" y="132"/><text fill="#000000" font-family="sans-serif" font-size="12" font-style="italic" lengthAdjust="spacingAndGlyphs" textLength="57" x="329.5" y="144.1387">Interface</text><!--class Gnome::GObject::Object--><rect fill="#FEFECE" filter="url(#f1jz7a0hj9nm9w)" height="32" id="Gnome::GObject::Object" style="stroke: #A80036; stroke-width: 1.5;" width="72" x="283" y="227"/><ellipse cx="298" cy="243" fill="#80FFFF" rx="11" ry="11" style="stroke: #A80036; stroke-width: 1.0;"/><path d="M300.9688,248.6406 Q300.3906,248.9375 299.75,249.0781 Q299.1094,249.2344 298.4063,249.2344 Q295.9063,249.2344 294.5781,247.5938 Q293.2656,245.9375 293.2656,242.8125 Q293.2656,239.6875 294.5781,238.0313 Q295.9063,236.375 298.4063,236.375 Q299.1094,236.375 299.75,236.5313 Q300.4063,236.6875 300.9688,236.9844 L300.9688,239.7031 Q300.3438,239.125 299.75,238.8594 Q299.1563,238.5781 298.5313,238.5781 Q297.1875,238.5781 296.5,239.6563 Q295.8125,240.7188 295.8125,242.8125 Q295.8125,244.9063 296.5,245.9844 Q297.1875,247.0469 298.5313,247.0469 Q299.1563,247.0469 299.75,246.7813 Q300.3438,246.5 300.9688,245.9219 L300.9688,248.6406 Z "/><text fill="#000000" font-family="sans-serif" font-size="12" lengthAdjust="spacingAndGlyphs" textLength="40" x="312" y="247.1807">Object</text><!--class Gnome::GObject::InitialyUnowned--><rect fill="#FEFECE" filter="url(#f1jz7a0hj9nm9w)" height="32" id="Gnome::GObject::InitialyUnowned" style="stroke: #A80036; stroke-width: 1.5;" width="129" x="254.5" y="319"/><ellipse cx="269.5" cy="335" fill="#80FFFF" rx="11" ry="11" style="stroke: #A80036; stroke-width: 1.0;"/><path d="M272.4688,340.6406 Q271.8906,340.9375 271.25,341.0781 Q270.6094,341.2344 269.9063,341.2344 Q267.4063,341.2344 266.0781,339.5938 Q264.7656,337.9375 264.7656,334.8125 Q264.7656,331.6875 266.0781,330.0313 Q267.4063,328.375 269.9063,328.375 Q270.6094,328.375 271.25,328.5313 Q271.9063,328.6875 272.4688,328.9844 L272.4688,331.7031 Q271.8438,331.125 271.25,330.8594 Q270.6563,330.5781 270.0313,330.5781 Q268.6875,330.5781 268,331.6563 Q267.3125,332.7188 267.3125,334.8125 Q267.3125,336.9063 268,337.9844 Q268.6875,339.0469 270.0313,339.0469 Q270.6563,339.0469 271.25,338.7813 Q271.8438,338.5 272.4688,337.9219 L272.4688,340.6406 Z "/><text fill="#000000" font-family="sans-serif" font-size="12" lengthAdjust="spacingAndGlyphs" textLength="97" x="283.5" y="339.1807">InitialyUnowned</text><!--class Gnome::Gtk3::Buildable--><rect fill="#FEFECE" filter="url(#f1jz7a0hj9nm9w)" height="32" id="Gnome::Gtk3::Buildable" style="stroke: #A80036; stroke-width: 1.5;" width="150" x="116" y="411"/><ellipse cx="131" cy="427" fill="#80FFFF" rx="11" ry="11" style="stroke: #A80036; stroke-width: 1.0;"/><path d="M132.2031,427.1406 Q132.5625,427.2188 132.8281,427.5 Q133.1094,427.7656 133.5,428.5469 L135.7344,433 L133.0469,433 L131.5469,429.875 Q131.4844,429.7344 131.375,429.5 Q130.7188,428.1094 129.8281,428.1094 L129.0469,428.1094 L129.0469,433 L126.6094,433 L126.6094,420.6094 L130.1406,420.6094 Q132.5313,420.6094 133.5625,421.4531 Q134.6094,422.2969 134.6094,424.2031 Q134.6094,425.4844 133.9844,426.25 Q133.375,427 132.2031,427.1406 Z M129.0469,422.6719 L129.0469,426.0469 L130.2031,426.0469 Q131.2188,426.0469 131.6406,425.6563 Q132.0781,425.25 132.0781,424.3438 Q132.0781,423.4531 131.6406,423.0625 Q131.2188,422.6719 130.2031,422.6719 L129.0469,422.6719 Z "/><text fill="#000000" font-family="sans-serif" font-size="12" lengthAdjust="spacingAndGlyphs" textLength="57" x="145" y="431.1807">Buildable</text><rect fill="#FFFFFF" height="15.9688" style="stroke: #000000; stroke-width: 1.0; stroke-dasharray: 2.0,2.0;" width="59" x="210" y="408"/><text fill="#000000" font-family="sans-serif" font-size="12" font-style="italic" lengthAdjust="spacingAndGlyphs" textLength="57" x="211" y="420.1387">Interface</text><!--class Gnome::Gtk3::Widget--><rect fill="#FEFECE" filter="url(#f1jz7a0hj9nm9w)" height="32" id="Gnome::Gtk3::Widget" style="stroke: #A80036; stroke-width: 1.5;" width="75" x="236.5" y="503"/><ellipse cx="251.5" cy="519" fill="#80FFFF" rx="11" ry="11" style="stroke: #A80036; stroke-width: 1.0;"/><path d="M254.4688,524.6406 Q253.8906,524.9375 253.25,525.0781 Q252.6094,525.2344 251.9063,525.2344 Q249.4063,525.2344 248.0781,523.5938 Q246.7656,521.9375 246.7656,518.8125 Q246.7656,515.6875 248.0781,514.0313 Q249.4063,512.375 251.9063,512.375 Q252.6094,512.375 253.25,512.5313 Q253.9063,512.6875 254.4688,512.9844 L254.4688,515.7031 Q253.8438,515.125 253.25,514.8594 Q252.6563,514.5781 252.0313,514.5781 Q250.6875,514.5781 250,515.6563 Q249.3125,516.7188 249.3125,518.8125 Q249.3125,520.9063 250,521.9844 Q250.6875,523.0469 252.0313,523.0469 Q252.6563,523.0469 253.25,522.7813 Q253.8438,522.5 254.4688,521.9219 L254.4688,524.6406 Z "/><text fill="#000000" font-family="sans-serif" font-size="12" lengthAdjust="spacingAndGlyphs" textLength="43" x="265.5" y="523.1807">Widget</text><!--class Gnome::Gtk3::Bin--><rect fill="#FEFECE" filter="url(#f1jz7a0hj9nm9w)" height="32" id="Gnome::Gtk3::Bin" style="stroke: #A80036; stroke-width: 1.5;" width="51" x="22.5" y="503"/><ellipse cx="37.5" cy="519" fill="#80FFFF" rx="11" ry="11" style="stroke: #A80036; stroke-width: 1.0;"/><path d="M40.4688,524.6406 Q39.8906,524.9375 39.25,525.0781 Q38.6094,525.2344 37.9063,525.2344 Q35.4063,525.2344 34.0781,523.5938 Q32.7656,521.9375 32.7656,518.8125 Q32.7656,515.6875 34.0781,514.0313 Q35.4063,512.375 37.9063,512.375 Q38.6094,512.375 39.25,512.5313 Q39.9063,512.6875 40.4688,512.9844 L40.4688,515.7031 Q39.8438,515.125 39.25,514.8594 Q38.6563,514.5781 38.0313,514.5781 Q36.6875,514.5781 36,515.6563 Q35.3125,516.7188 35.3125,518.8125 Q35.3125,520.9063 36,521.9844 Q36.6875,523.0469 38.0313,523.0469 Q38.6563,523.0469 39.25,522.7813 Q39.8438,522.5 40.4688,521.9219 L40.4688,524.6406 Z "/><text fill="#000000" font-family="sans-serif" font-size="12" lengthAdjust="spacingAndGlyphs" textLength="19" x="51.5" y="523.1807">Bin</text><!--class Gnome::Gtk3::Container--><rect fill="#FEFECE" filter="url(#f1jz7a0hj9nm9w)" height="32" id="Gnome::Gtk3::Container" style="stroke: #A80036; stroke-width: 1.5;" width="93" x="108.5" y="503"/><ellipse cx="123.5" cy="519" fill="#80FFFF" rx="11" ry="11" style="stroke: #A80036; stroke-width: 1.0;"/><path d="M126.4688,524.6406 Q125.8906,524.9375 125.25,525.0781 Q124.6094,525.2344 123.9063,525.2344 Q121.4063,525.2344 120.0781,523.5938 Q118.7656,521.9375 118.7656,518.8125 Q118.7656,515.6875 120.0781,514.0313 Q121.4063,512.375 123.9063,512.375 Q124.6094,512.375 125.25,512.5313 Q125.9063,512.6875 126.4688,512.9844 L126.4688,515.7031 Q125.8438,515.125 125.25,514.8594 Q124.6563,514.5781 124.0313,514.5781 Q122.6875,514.5781 122,515.6563 Q121.3125,516.7188 121.3125,518.8125 Q121.3125,520.9063 122,521.9844 Q122.6875,523.0469 124.0313,523.0469 Q124.6563,523.0469 125.25,522.7813 Q125.8438,522.5 126.4688,521.9219 L126.4688,524.6406 Z "/><text fill="#000000" font-family="sans-serif" font-size="12" lengthAdjust="spacingAndGlyphs" textLength="61" x="137.5" y="523.1807">Container</text><!--link Gnome::N::TopLevelClassSupport to Gnome::GObject::Object--><path d="M430.9322,94.6906 C425.4316,116.7659 416.2812,144.9903 402,167 C386.2604,191.2573 360.9788,212.8684 342.4487,226.7856 " fill="none" id="Gnome::N::TopLevelClassSupport-Gnome::GObject::Object" style="stroke: #A80036; stroke-width: 1.0;"/><polygon fill="none" points="424.1074,93.1333,435.271,75.1229,437.7754,96.164,424.1074,93.1333" style="stroke: #A80036; stroke-width: 1.0;"/><!--link Gnome::GObject::InitialyUnowned to Gnome::Gtk3::Widget--><path d="M310.2672,370.7074 C300.5029,410.6327 285.1194,473.534 277.9377,502.8991 " fill="none" id="Gnome::GObject::InitialyUnowned-Gnome::Gtk3::Widget" style="stroke: #A80036; stroke-width: 1.0;"/><polygon fill="none" points="303.5343,368.7714,315.0853,351.0069,317.1335,372.0973,303.5343,368.7714" style="stroke: #A80036; stroke-width: 1.0;"/><!--link Gnome::GObject::Object to Gnome::GObject::InitialyUnowned--><path d="M319,279.4048 C319,293.0788 319,307.9368 319,318.8498 " fill="none" id="Gnome::GObject::Object-Gnome::GObject::InitialyUnowned" style="stroke: #A80036; stroke-width: 1.0;"/><polygon fill="none" points="312.0001,279.0252,319,259.0252,326.0001,279.0251,312.0001,279.0252" style="stroke: #A80036; stroke-width: 1.0;"/><!--link Gnome::GObject::Signal to Gnome::GObject::Object--><path d="M319,187.4048 C319,201.0788 319,215.9368 319,226.8498 " fill="none" id="Gnome::GObject::Signal-Gnome::GObject::Object" style="stroke: #A80036; stroke-width: 1.0; stroke-dasharray: 7.0,7.0;"/><polygon fill="none" points="312.0001,187.0252,319,167.0252,326.0001,187.0251,312.0001,187.0252" style="stroke: #A80036; stroke-width: 1.0;"/><!--link Gnome::Gtk3::Buildable to Gnome::Gtk3::Widget--><path d="M219.0057,458.0424 C232.5643,473.0713 248.2795,490.4905 259.4297,502.8498 " fill="none" id="Gnome::Gtk3::Buildable-Gnome::Gtk3::Widget" style="stroke: #A80036; stroke-width: 1.0; stroke-dasharray: 7.0,7.0;"/><polygon fill="none" points="213.6572,462.564,205.4575,443.0252,224.0521,453.186,213.6572,462.564" style="stroke: #A80036; stroke-width: 1.0;"/><!--link Gnome::Gtk3::Bin to Gnome::Gtk3::Container--><path d="M73.9141,519 C78.6792,519 83.4444,519 88.2095,519 " fill="none" id="Gnome::Gtk3::Bin-Gnome::Gtk3::Container" style="stroke: #A80036; stroke-width: 1.0;"/><polygon fill="none" points="88.439,511.9999,108.4389,519,88.4389,525.9999,88.439,511.9999" style="stroke: #A80036; stroke-width: 1.0;"/><!--link Gnome::Gtk3::Container to Gnome::Gtk3::Widget--><path d="M201.9492,519 C206.6884,519 211.4276,519 216.1668,519 " fill="none" id="Gnome::Gtk3::Container-Gnome::Gtk3::Widget" style="stroke: #A80036; stroke-width: 1.0;"/><polygon fill="none" points="216.286,511.9999,236.2859,519,216.2859,525.9999,216.286,511.9999" style="stroke: #A80036; stroke-width: 1.0;"/><!--
@startuml
skinparam packageStyle rectangle
skinparam stereotypeCBackgroundColor #80ffff
set namespaceSeparator ::
hide members

class Gnome::N::TopLevelClassSupport < Catch all class >

Interface Gnome::GObject::Signal <Interface>
class Gnome::GObject::Signal <<(R,#80ffff)>>

Interface Gnome::Gtk3::Buildable <Interface>
class Gnome::Gtk3::Buildable <<(R,#80ffff)>>

Gnome::N::TopLevelClassSupport <|- - - Gnome::GObject::Object
Gnome::GObject::InitialyUnowned <|- - - Gnome::Gtk3::Widget

Gnome::GObject::Object <|- - Gnome::GObject::InitialyUnowned
Gnome::GObject::Signal <|.. Gnome::GObject::Object

class Gnome::Gtk3::Widget implements Gnome::Gtk3::Buildable

Gnome::Gtk3::Bin -|> Gnome::Gtk3::Container
Gnome::Gtk3::Container -|> Gnome::Gtk3::Widget










@enduml

PlantUML version 1.2019.01(Sat Feb 09 16:32:04 CET 2019)
(LGPL source distribution)
Java Runtime: OpenJDK Runtime Environment
JVM: OpenJDK 64-Bit Server VM
Java Version: 1.8.0_265-b01
Operating System: Linux
OS Version: 5.8.8-100.fc31.x86_64
Default Encoding: UTF-8
Language: en
Country: null
--></g></svg>