<?xml version="1.0" encoding="UTF-8" standalone="no"?><svg xmlns="http://www.w3.org/2000/svg" xmlns:xlink="http://www.w3.org/1999/xlink" contentScriptType="application/ecmascript" contentStyleType="text/css" height="462px" preserveAspectRatio="none" style="width:450px;height:462px;" version="1.1" viewBox="0 0 450 462" width="450px" zoomAndPan="magnify"><defs><filter height="300%" id="f1juwycvbsfvh9" width="300%" x="-1" y="-1"><feGaussianBlur result="blurOut" stdDeviation="2.0"/><feColorMatrix in="blurOut" result="blurOut2" type="matrix" values="0 0 0 0 0 0 0 0 0 0 0 0 0 0 0 0 0 0 .4 0"/><feOffset dx="4.0" dy="4.0" in="blurOut2" result="blurOut3"/><feBlend in="SourceGraphic" in2="blurOut3" mode="normal"/></filter></defs><g><!--cluster Gnome::Gtk3--><rect fill="#FFFFFF" filter="url(#f1juwycvbsfvh9)" height="159" style="stroke: #000000; stroke-width: 1.5;" width="306" x="14" y="292"/><text fill="#000000" font-family="sans-serif" font-size="14" font-weight="bold" lengthAdjust="spacingAndGlyphs" textLength="105" x="114.5" y="306.9951">Gnome::Gtk3</text><!--cluster Gnome::N--><rect fill="#FFFFFF" filter="url(#f1juwycvbsfvh9)" height="67" style="stroke: #000000; stroke-width: 1.5;" width="286" x="147" y="16"/><text fill="#000000" font-family="sans-serif" font-size="14" font-weight="bold" lengthAdjust="spacingAndGlyphs" textLength="79" x="250.5" y="30.9951">Gnome::N</text><!--cluster Gnome::GObject--><rect fill="#FFFFFF" filter="url(#f1juwycvbsfvh9)" height="159" style="stroke: #000000; stroke-width: 1.5;" width="193" x="246" y="108"/><text fill="#000000" font-family="sans-serif" font-size="14" font-weight="bold" lengthAdjust="spacingAndGlyphs" textLength="131" x="277" y="122.9951">Gnome::GObject</text><!--class Gnome::Gtk3::Buildable--><rect fill="#FEFECE" filter="url(#f1juwycvbsfvh9)" height="32" id="Gnome::Gtk3::Buildable" style="stroke: #A80036; stroke-width: 1.5;" width="89" x="176.5" y="319"/><ellipse cx="191.5" cy="335" fill="#80FFFF" rx="11" ry="11" style="stroke: #A80036; stroke-width: 1.0;"/><path d="M192.7031,335.1406 Q193.0625,335.2188 193.3281,335.5 Q193.6094,335.7656 194,336.5469 L196.2344,341 L193.5469,341 L192.0469,337.875 Q191.9844,337.7344 191.875,337.5 Q191.2188,336.1094 190.3281,336.1094 L189.5469,336.1094 L189.5469,341 L187.1094,341 L187.1094,328.6094 L190.6406,328.6094 Q193.0313,328.6094 194.0625,329.4531 Q195.1094,330.2969 195.1094,332.2031 Q195.1094,333.4844 194.4844,334.25 Q193.875,335 192.7031,335.1406 Z M189.5469,330.6719 L189.5469,334.0469 L190.7031,334.0469 Q191.7188,334.0469 192.1406,333.6563 Q192.5781,333.25 192.5781,332.3438 Q192.5781,331.4531 192.1406,331.0625 Q191.7188,330.6719 190.7031,330.6719 L189.5469,330.6719 Z "/><text fill="#000000" font-family="sans-serif" font-size="12" lengthAdjust="spacingAndGlyphs" textLength="57" x="205.5" y="339.1807">Buildable</text><!--class Gnome::Gtk3::Widget--><rect fill="#FEFECE" filter="url(#f1juwycvbsfvh9)" height="32" id="Gnome::Gtk3::Widget" style="stroke: #A80036; stroke-width: 1.5;" width="75" x="236.5" y="411"/><ellipse cx="251.5" cy="427" fill="#80FFFF" rx="11" ry="11" style="stroke: #A80036; stroke-width: 1.0;"/><path d="M254.4688,432.6406 Q253.8906,432.9375 253.25,433.0781 Q252.6094,433.2344 251.9063,433.2344 Q249.4063,433.2344 248.0781,431.5938 Q246.7656,429.9375 246.7656,426.8125 Q246.7656,423.6875 248.0781,422.0313 Q249.4063,420.375 251.9063,420.375 Q252.6094,420.375 253.25,420.5313 Q253.9063,420.6875 254.4688,420.9844 L254.4688,423.7031 Q253.8438,423.125 253.25,422.8594 Q252.6563,422.5781 252.0313,422.5781 Q250.6875,422.5781 250,423.6563 Q249.3125,424.7188 249.3125,426.8125 Q249.3125,428.9063 250,429.9844 Q250.6875,431.0469 252.0313,431.0469 Q252.6563,431.0469 253.25,430.7813 Q253.8438,430.5 254.4688,429.9219 L254.4688,432.6406 Z "/><text fill="#000000" font-family="sans-serif" font-size="12" lengthAdjust="spacingAndGlyphs" textLength="43" x="265.5" y="431.1807">Widget</text><!--class Gnome::Gtk3::Bin--><rect fill="#FEFECE" filter="url(#f1juwycvbsfvh9)" height="32" id="Gnome::Gtk3::Bin" style="stroke: #A80036; stroke-width: 1.5;" width="51" x="22.5" y="411"/><ellipse cx="37.5" cy="427" fill="#80FFFF" rx="11" ry="11" style="stroke: #A80036; stroke-width: 1.0;"/><path d="M40.4688,432.6406 Q39.8906,432.9375 39.25,433.0781 Q38.6094,433.2344 37.9063,433.2344 Q35.4063,433.2344 34.0781,431.5938 Q32.7656,429.9375 32.7656,426.8125 Q32.7656,423.6875 34.0781,422.0313 Q35.4063,420.375 37.9063,420.375 Q38.6094,420.375 39.25,420.5313 Q39.9063,420.6875 40.4688,420.9844 L40.4688,423.7031 Q39.8438,423.125 39.25,422.8594 Q38.6563,422.5781 38.0313,422.5781 Q36.6875,422.5781 36,423.6563 Q35.3125,424.7188 35.3125,426.8125 Q35.3125,428.9063 36,429.9844 Q36.6875,431.0469 38.0313,431.0469 Q38.6563,431.0469 39.25,430.7813 Q39.8438,430.5 40.4688,429.9219 L40.4688,432.6406 Z "/><text fill="#000000" font-family="sans-serif" font-size="12" lengthAdjust="spacingAndGlyphs" textLength="19" x="51.5" y="431.1807">Bin</text><!--class Gnome::Gtk3::Container--><rect fill="#FEFECE" filter="url(#f1juwycvbsfvh9)" height="32" id="Gnome::Gtk3::Container" style="stroke: #A80036; stroke-width: 1.5;" width="93" x="108.5" y="411"/><ellipse cx="123.5" cy="427" fill="#80FFFF" rx="11" ry="11" style="stroke: #A80036; stroke-width: 1.0;"/><path d="M126.4688,432.6406 Q125.8906,432.9375 125.25,433.0781 Q124.6094,433.2344 123.9063,433.2344 Q121.4063,433.2344 120.0781,431.5938 Q118.7656,429.9375 118.7656,426.8125 Q118.7656,423.6875 120.0781,422.0313 Q121.4063,420.375 123.9063,420.375 Q124.6094,420.375 125.25,420.5313 Q125.9063,420.6875 126.4688,420.9844 L126.4688,423.7031 Q125.8438,423.125 125.25,422.8594 Q124.6563,422.5781 124.0313,422.5781 Q122.6875,422.5781 122,423.6563 Q121.3125,424.7188 121.3125,426.8125 Q121.3125,428.9063 122,429.9844 Q122.6875,431.0469 124.0313,431.0469 Q124.6563,431.0469 125.25,430.7813 Q125.8438,430.5 126.4688,429.9219 L126.4688,432.6406 Z "/><text fill="#000000" font-family="sans-serif" font-size="12" lengthAdjust="spacingAndGlyphs" textLength="61" x="137.5" y="431.1807">Container</text><!--class Gnome::N::TopLevelClassSupport--><rect fill="#FEFECE" filter="url(#f1juwycvbsfvh9)" height="32" id="Gnome::N::TopLevelClassSupport" style="stroke: #A80036; stroke-width: 1.5;" width="269" x="155.5" y="43"/><ellipse cx="170.5" cy="59" fill="#80FFFF" rx="11" ry="11" style="stroke: #A80036; stroke-width: 1.0;"/><path d="M173.4688,64.6406 Q172.8906,64.9375 172.25,65.0781 Q171.6094,65.2344 170.9063,65.2344 Q168.4063,65.2344 167.0781,63.5938 Q165.7656,61.9375 165.7656,58.8125 Q165.7656,55.6875 167.0781,54.0313 Q168.4063,52.375 170.9063,52.375 Q171.6094,52.375 172.25,52.5313 Q172.9063,52.6875 173.4688,52.9844 L173.4688,55.7031 Q172.8438,55.125 172.25,54.8594 Q171.6563,54.5781 171.0313,54.5781 Q169.6875,54.5781 169,55.6563 Q168.3125,56.7188 168.3125,58.8125 Q168.3125,60.9063 169,61.9844 Q169.6875,63.0469 171.0313,63.0469 Q171.6563,63.0469 172.25,62.7813 Q172.8438,62.5 173.4688,61.9219 L173.4688,64.6406 Z "/><text fill="#000000" font-family="sans-serif" font-size="12" lengthAdjust="spacingAndGlyphs" textLength="137" x="184.5" y="63.1807">TopLevelClassSupport</text><rect fill="#FFFFFF" height="15.9688" style="stroke: #000000; stroke-width: 1.0; stroke-dasharray: 2.0,2.0;" width="98" x="329.5" y="40"/><text fill="#000000" font-family="sans-serif" font-size="12" font-style="italic" lengthAdjust="spacingAndGlyphs" textLength="88" x="334.5" y="52.1387">Catch all class</text><!--class Gnome::GObject::Object--><rect fill="#FEFECE" filter="url(#f1juwycvbsfvh9)" height="32" id="Gnome::GObject::Object" style="stroke: #A80036; stroke-width: 1.5;" width="72" x="254" y="135"/><ellipse cx="269" cy="151" fill="#80FFFF" rx="11" ry="11" style="stroke: #A80036; stroke-width: 1.0;"/><path d="M271.9688,156.6406 Q271.3906,156.9375 270.75,157.0781 Q270.1094,157.2344 269.4063,157.2344 Q266.9063,157.2344 265.5781,155.5938 Q264.2656,153.9375 264.2656,150.8125 Q264.2656,147.6875 265.5781,146.0313 Q266.9063,144.375 269.4063,144.375 Q270.1094,144.375 270.75,144.5313 Q271.4063,144.6875 271.9688,144.9844 L271.9688,147.7031 Q271.3438,147.125 270.75,146.8594 Q270.1563,146.5781 269.5313,146.5781 Q268.1875,146.5781 267.5,147.6563 Q266.8125,148.7188 266.8125,150.8125 Q266.8125,152.9063 267.5,153.9844 Q268.1875,155.0469 269.5313,155.0469 Q270.1563,155.0469 270.75,154.7813 Q271.3438,154.5 271.9688,153.9219 L271.9688,156.6406 Z "/><text fill="#000000" font-family="sans-serif" font-size="12" lengthAdjust="spacingAndGlyphs" textLength="40" x="283" y="155.1807">Object</text><!--class Gnome::GObject::InitialyUnowned--><rect fill="#FEFECE" filter="url(#f1juwycvbsfvh9)" height="32" id="Gnome::GObject::InitialyUnowned" style="stroke: #A80036; stroke-width: 1.5;" width="129" x="254.5" y="227"/><ellipse cx="269.5" cy="243" fill="#80FFFF" rx="11" ry="11" style="stroke: #A80036; stroke-width: 1.0;"/><path d="M272.4688,248.6406 Q271.8906,248.9375 271.25,249.0781 Q270.6094,249.2344 269.9063,249.2344 Q267.4063,249.2344 266.0781,247.5938 Q264.7656,245.9375 264.7656,242.8125 Q264.7656,239.6875 266.0781,238.0313 Q267.4063,236.375 269.9063,236.375 Q270.6094,236.375 271.25,236.5313 Q271.9063,236.6875 272.4688,236.9844 L272.4688,239.7031 Q271.8438,239.125 271.25,238.8594 Q270.6563,238.5781 270.0313,238.5781 Q268.6875,238.5781 268,239.6563 Q267.3125,240.7188 267.3125,242.8125 Q267.3125,244.9063 268,245.9844 Q268.6875,247.0469 270.0313,247.0469 Q270.6563,247.0469 271.25,246.7813 Q271.8438,246.5 272.4688,245.9219 L272.4688,248.6406 Z "/><text fill="#000000" font-family="sans-serif" font-size="12" lengthAdjust="spacingAndGlyphs" textLength="97" x="283.5" y="247.1807">InitialyUnowned</text><!--class Gnome::GObject::Signal--><rect fill="#FEFECE" filter="url(#f1juwycvbsfvh9)" height="32" id="Gnome::GObject::Signal" style="stroke: #A80036; stroke-width: 1.5;" width="70" x="361" y="135"/><ellipse cx="376" cy="151" fill="#80FFFF" rx="11" ry="11" style="stroke: #A80036; stroke-width: 1.0;"/><path d="M378.9688,156.6406 Q378.3906,156.9375 377.75,157.0781 Q377.1094,157.2344 376.4063,157.2344 Q373.9063,157.2344 372.5781,155.5938 Q371.2656,153.9375 371.2656,150.8125 Q371.2656,147.6875 372.5781,146.0313 Q373.9063,144.375 376.4063,144.375 Q377.1094,144.375 377.75,144.5313 Q378.4063,144.6875 378.9688,144.9844 L378.9688,147.7031 Q378.3438,147.125 377.75,146.8594 Q377.1563,146.5781 376.5313,146.5781 Q375.1875,146.5781 374.5,147.6563 Q373.8125,148.7188 373.8125,150.8125 Q373.8125,152.9063 374.5,153.9844 Q375.1875,155.0469 376.5313,155.0469 Q377.1563,155.0469 377.75,154.7813 Q378.3438,154.5 378.9688,153.9219 L378.9688,156.6406 Z "/><text fill="#000000" font-family="sans-serif" font-size="12" lengthAdjust="spacingAndGlyphs" textLength="38" x="390" y="155.1807">Signal</text><!--link Gnome::N::TopLevelClassSupport to Gnome::GObject::Object--><path d="M290,95.4048 C290,109.0788 290,123.9368 290,134.8498 " fill="none" id="Gnome::N::TopLevelClassSupport-Gnome::GObject::Object" style="stroke: #A80036; stroke-width: 1.0;"/><polygon fill="none" points="283.0001,95.0252,290,75.0252,297.0001,95.0251,283.0001,95.0252" style="stroke: #A80036; stroke-width: 1.0;"/><!--link Gnome::GObject::Object to Gnome::GObject::InitialyUnowned--><path d="M301.1645,186.4184 C305.5593,200.3605 310.3863,215.6738 313.9092,226.8498 " fill="none" id="Gnome::GObject::Object-Gnome::GObject::InitialyUnowned" style="stroke: #A80036; stroke-width: 1.0;"/><polygon fill="none" points="294.388,188.2044,295.0514,167.0252,307.7404,183.9955,294.388,188.2044" style="stroke: #A80036; stroke-width: 1.0;"/><!--link Gnome::GObject::Object to Gnome::GObject::Signal--><path d="M339.0415,151 C341.8666,151 344.6918,151 347.5169,151 " fill="none" id="Gnome::GObject::Object-Gnome::GObject::Signal" style="stroke: #A80036; stroke-width: 1.0;"/><polygon fill="#A80036" points="360.7384,151,351.7384,147,355.7384,151,351.7384,155,360.7384,151" style="stroke: #A80036; stroke-width: 1.0;"/><line style="stroke: #A80036; stroke-width: 1.0;" x1="355.7384" x2="347.7383" y1="151" y2="150.9999"/><polygon fill="#A80036" points="326.0234,151,332.0234,155,338.0234,151,332.0234,147,326.0234,151" style="stroke: #A80036; stroke-width: 1.0;"/><!--link Gnome::GObject::InitialyUnowned to Gnome::Gtk3::Widget--><path d="M310.2672,278.7074 C300.5029,318.6327 285.1194,381.534 277.9377,410.8991 " fill="none" id="Gnome::GObject::InitialyUnowned-Gnome::Gtk3::Widget" style="stroke: #A80036; stroke-width: 1.0;"/><polygon fill="none" points="303.5343,276.7714,315.0853,259.0069,317.1335,280.0973,303.5343,276.7714" style="stroke: #A80036; stroke-width: 1.0;"/><!--link Gnome::Gtk3::Buildable to Gnome::Gtk3::Widget--><path d="M240.2758,368.4598 C248.6004,382.9101 257.9548,399.1479 264.6961,410.8498 " fill="none" id="Gnome::Gtk3::Buildable-Gnome::Gtk3::Widget" style="stroke: #A80036; stroke-width: 1.0; stroke-dasharray: 7.0,7.0;"/><polygon fill="none" points="234.15,371.8494,230.2319,351.0252,246.281,364.8609,234.15,371.8494" style="stroke: #A80036; stroke-width: 1.0;"/><!--link Gnome::Gtk3::Bin to Gnome::Gtk3::Container--><path d="M73.9141,427 C78.6792,427 83.4444,427 88.2095,427 " fill="none" id="Gnome::Gtk3::Bin-Gnome::Gtk3::Container" style="stroke: #A80036; stroke-width: 1.0;"/><polygon fill="none" points="88.439,419.9999,108.4389,427,88.4389,433.9999,88.439,419.9999" style="stroke: #A80036; stroke-width: 1.0;"/><!--link Gnome::Gtk3::Container to Gnome::Gtk3::Widget--><path d="M201.9492,427 C206.6884,427 211.4276,427 216.1668,427 " fill="none" id="Gnome::Gtk3::Container-Gnome::Gtk3::Widget" style="stroke: #A80036; stroke-width: 1.0;"/><polygon fill="none" points="216.286,419.9999,236.2859,427,216.2859,433.9999,216.286,419.9999" style="stroke: #A80036; stroke-width: 1.0;"/><!--
@startuml
skinparam packageStyle rectangle
skinparam stereotypeCBackgroundColor #80ffff
set namespaceSeparator ::
hide members

class Gnome::Gtk3::Buildable <<(R,#80ffff)>>

class Gnome::N::TopLevelClassSupport < Catch all class >
Gnome::N::TopLevelClassSupport <|- - Gnome::GObject::Object

Gnome::GObject::Object <|- - Gnome::GObject::InitialyUnowned
Gnome::GObject::Object *-> Gnome::GObject::Signal

Gnome::GObject::InitialyUnowned <|- - - Gnome::Gtk3::Widget

class Gnome::Gtk3::Widget implements Gnome::Gtk3::Buildable

Gnome::Gtk3::Bin -|> Gnome::Gtk3::Container
Gnome::Gtk3::Container -|> Gnome::Gtk3::Widget










@enduml

PlantUML version 1.2019.01(Sat Feb 09 16:32:04 CET 2019)
(LGPL source distribution)
Java Runtime: OpenJDK Runtime Environment
JVM: OpenJDK 64-Bit Server VM
Java Version: 1.8.0_265-b01
Operating System: Linux
OS Version: 5.8.8-100.fc31.x86_64
Default Encoding: UTF-8
Language: en
Country: null
--></g></svg>