<?xml version="1.0" encoding="UTF-8" standalone="no"?><svg xmlns="http://www.w3.org/2000/svg" xmlns:xlink="http://www.w3.org/1999/xlink" contentScriptType="application/ecmascript" contentStyleType="text/css" height="500px" preserveAspectRatio="none" style="width:601px;height:500px;" version="1.1" viewBox="0 0 601 500" width="601px" zoomAndPan="magnify"><defs><filter height="300%" id="f11csh3vp0mm03" width="300%" x="-1" y="-1"><feGaussianBlur result="blurOut" stdDeviation="2.0"/><feColorMatrix in="blurOut" result="blurOut2" type="matrix" values="0 0 0 0 0 0 0 0 0 0 0 0 0 0 0 0 0 0 .4 0"/><feOffset dx="4.0" dy="4.0" in="blurOut2" result="blurOut3"/><feBlend in="SourceGraphic" in2="blurOut3" mode="normal"/></filter></defs><g><!--MD5=[b969295f0ec9b4fa482091c3e26049be]
cluster Gnome::N--><rect fill="#FFFFFF" filter="url(#f11csh3vp0mm03)" height="83" style="stroke: #000000; stroke-width: 1.5;" width="302" x="287" y="7"/><text fill="#000000" font-family="sans-serif" font-size="14" font-weight="bold" lengthAdjust="spacingAndGlyphs" textLength="79" x="398.5" y="21.9951">Gnome::N</text><!--MD5=[2fb3f9b624b0544b9841d5da78ec0508]
cluster Gnome::GObject--><rect fill="#FFFFFF" filter="url(#f11csh3vp0mm03)" height="175" style="stroke: #000000; stroke-width: 1.5;" width="271" x="219" y="114"/><text fill="#000000" font-family="sans-serif" font-size="14" font-weight="bold" lengthAdjust="spacingAndGlyphs" textLength="131" x="289" y="128.9951">Gnome::GObject</text><!--MD5=[7d67f77911969026863717fbb204e273]
cluster Gnome::Gtk3--><rect fill="#FFFFFF" filter="url(#f11csh3vp0mm03)" height="175" style="stroke: #000000; stroke-width: 1.5;" width="456" x="7" y="313"/><text fill="#000000" font-family="sans-serif" font-size="14" font-weight="bold" lengthAdjust="spacingAndGlyphs" textLength="105" x="182.5" y="327.9951">Gnome::Gtk3</text><!--MD5=[0b8e281ccd00c72019a31d78e9f95b5d]
class Gnome::N::TopLevelClassSupport--><rect codeLine="10" fill="#FEFECE" filter="url(#f11csh3vp0mm03)" height="32" id="Gnome::N::TopLevelClassSupport" style="stroke: #A80036; stroke-width: 1.5;" width="269" x="303.5" y="42"/><ellipse cx="318.5" cy="58" fill="#80FFFF" rx="11" ry="11" style="stroke: #A80036; stroke-width: 1.0;"/><path d="M321.4688,63.6406 Q320.8906,63.9375 320.25,64.0781 Q319.6094,64.2344 318.9063,64.2344 Q316.4063,64.2344 315.0781,62.5938 Q313.7656,60.9375 313.7656,57.8125 Q313.7656,54.6875 315.0781,53.0313 Q316.4063,51.375 318.9063,51.375 Q319.6094,51.375 320.25,51.5313 Q320.9063,51.6875 321.4688,51.9844 L321.4688,54.7031 Q320.8438,54.125 320.25,53.8594 Q319.6563,53.5781 319.0313,53.5781 Q317.6875,53.5781 317,54.6563 Q316.3125,55.7188 316.3125,57.8125 Q316.3125,59.9063 317,60.9844 Q317.6875,62.0469 319.0313,62.0469 Q319.6563,62.0469 320.25,61.7813 Q320.8438,61.5 321.4688,60.9219 L321.4688,63.6406 Z "/><text fill="#000000" font-family="sans-serif" font-size="12" lengthAdjust="spacingAndGlyphs" textLength="137" x="332.5" y="62.1543">TopLevelClassSupport</text><rect fill="#FFFFFF" height="15.9688" style="stroke: #000000; stroke-width: 1.0; stroke-dasharray: 2.0,2.0;" width="98" x="477.5" y="39"/><text fill="#000000" font-family="sans-serif" font-size="12" font-style="italic" lengthAdjust="spacingAndGlyphs" textLength="88" x="482.5" y="51.1387">Catch all class</text><!--MD5=[52303d185de782118d4739c052001bf2]
class Gnome::GObject::Signal--><rect codeLine="13" fill="#FEFECE" filter="url(#f11csh3vp0mm03)" height="32" id="Gnome::GObject::Signal" style="stroke: #A80036; stroke-width: 1.5;" width="131" x="235.5" y="149"/><ellipse cx="250.5" cy="165" fill="#80FFFF" rx="11" ry="11" style="stroke: #A80036; stroke-width: 1.0;"/><path d="M251.7031,165.1406 Q252.0625,165.2188 252.3281,165.5 Q252.6094,165.7656 253,166.5469 L255.2344,171 L252.5469,171 L251.0469,167.875 Q250.9844,167.7344 250.875,167.5 Q250.2188,166.1094 249.3281,166.1094 L248.5469,166.1094 L248.5469,171 L246.1094,171 L246.1094,158.6094 L249.6406,158.6094 Q252.0313,158.6094 253.0625,159.4531 Q254.1094,160.2969 254.1094,162.2031 Q254.1094,163.4844 253.4844,164.25 Q252.875,165 251.7031,165.1406 Z M248.5469,160.6719 L248.5469,164.0469 L249.7031,164.0469 Q250.7188,164.0469 251.1406,163.6563 Q251.5781,163.25 251.5781,162.3438 Q251.5781,161.4531 251.1406,161.0625 Q250.7188,160.6719 249.7031,160.6719 L248.5469,160.6719 Z "/><text fill="#000000" font-family="sans-serif" font-size="12" lengthAdjust="spacingAndGlyphs" textLength="38" x="264.5" y="169.1543">Signal</text><rect fill="#FFFFFF" height="15.9688" style="stroke: #000000; stroke-width: 1.0; stroke-dasharray: 2.0,2.0;" width="59" x="310.5" y="146"/><text fill="#000000" font-family="sans-serif" font-size="12" font-style="italic" lengthAdjust="spacingAndGlyphs" textLength="57" x="311.5" y="158.1387">Interface</text><!--MD5=[c2016d28441601ceb0a74f47a4537d14]
class Gnome::GObject::Object--><rect fill="#FEFECE" filter="url(#f11csh3vp0mm03)" height="32" id="Gnome::GObject::Object" style="stroke: #A80036; stroke-width: 1.5;" width="72" x="402" y="149"/><ellipse cx="417" cy="165" fill="#80FFFF" rx="11" ry="11" style="stroke: #A80036; stroke-width: 1.0;"/><path d="M419.9688,170.6406 Q419.3906,170.9375 418.75,171.0781 Q418.1094,171.2344 417.4063,171.2344 Q414.9063,171.2344 413.5781,169.5938 Q412.2656,167.9375 412.2656,164.8125 Q412.2656,161.6875 413.5781,160.0313 Q414.9063,158.375 417.4063,158.375 Q418.1094,158.375 418.75,158.5313 Q419.4063,158.6875 419.9688,158.9844 L419.9688,161.7031 Q419.3438,161.125 418.75,160.8594 Q418.1563,160.5781 417.5313,160.5781 Q416.1875,160.5781 415.5,161.6563 Q414.8125,162.7188 414.8125,164.8125 Q414.8125,166.9063 415.5,167.9844 Q416.1875,169.0469 417.5313,169.0469 Q418.1563,169.0469 418.75,168.7813 Q419.3438,168.5 419.9688,167.9219 L419.9688,170.6406 Z "/><text fill="#000000" font-family="sans-serif" font-size="12" lengthAdjust="spacingAndGlyphs" textLength="40" x="431" y="169.1543">Object</text><!--MD5=[f47b9a4a06d3f9bed948fa39f8c5540e]
class Gnome::GObject::InitialyUnowned--><rect fill="#FEFECE" filter="url(#f11csh3vp0mm03)" height="32" id="Gnome::GObject::InitialyUnowned" style="stroke: #A80036; stroke-width: 1.5;" width="129" x="344.5" y="241"/><ellipse cx="359.5" cy="257" fill="#80FFFF" rx="11" ry="11" style="stroke: #A80036; stroke-width: 1.0;"/><path d="M362.4688,262.6406 Q361.8906,262.9375 361.25,263.0781 Q360.6094,263.2344 359.9063,263.2344 Q357.4063,263.2344 356.0781,261.5938 Q354.7656,259.9375 354.7656,256.8125 Q354.7656,253.6875 356.0781,252.0313 Q357.4063,250.375 359.9063,250.375 Q360.6094,250.375 361.25,250.5313 Q361.9063,250.6875 362.4688,250.9844 L362.4688,253.7031 Q361.8438,253.125 361.25,252.8594 Q360.6563,252.5781 360.0313,252.5781 Q358.6875,252.5781 358,253.6563 Q357.3125,254.7188 357.3125,256.8125 Q357.3125,258.9063 358,259.9844 Q358.6875,261.0469 360.0313,261.0469 Q360.6563,261.0469 361.25,260.7813 Q361.8438,260.5 362.4688,259.9219 L362.4688,262.6406 Z "/><text fill="#000000" font-family="sans-serif" font-size="12" lengthAdjust="spacingAndGlyphs" textLength="97" x="373.5" y="261.1543">InitialyUnowned</text><!--MD5=[fc528952aa489a9a9f8514412a46a5d5]
class Gnome::Gtk3::Buildable--><rect codeLine="16" fill="#FEFECE" filter="url(#f11csh3vp0mm03)" height="32" id="Gnome::Gtk3::Buildable" style="stroke: #A80036; stroke-width: 1.5;" width="150" x="297" y="440"/><ellipse cx="312" cy="456" fill="#80FFFF" rx="11" ry="11" style="stroke: #A80036; stroke-width: 1.0;"/><path d="M313.2031,456.1406 Q313.5625,456.2188 313.8281,456.5 Q314.1094,456.7656 314.5,457.5469 L316.7344,462 L314.0469,462 L312.5469,458.875 Q312.4844,458.7344 312.375,458.5 Q311.7188,457.1094 310.8281,457.1094 L310.0469,457.1094 L310.0469,462 L307.6094,462 L307.6094,449.6094 L311.1406,449.6094 Q313.5313,449.6094 314.5625,450.4531 Q315.6094,451.2969 315.6094,453.2031 Q315.6094,454.4844 314.9844,455.25 Q314.375,456 313.2031,456.1406 Z M310.0469,451.6719 L310.0469,455.0469 L311.2031,455.0469 Q312.2188,455.0469 312.6406,454.6563 Q313.0781,454.25 313.0781,453.3438 Q313.0781,452.4531 312.6406,452.0625 Q312.2188,451.6719 311.2031,451.6719 L310.0469,451.6719 Z "/><text fill="#000000" font-family="sans-serif" font-size="12" lengthAdjust="spacingAndGlyphs" textLength="57" x="326" y="460.1543">Buildable</text><rect fill="#FFFFFF" height="15.9688" style="stroke: #000000; stroke-width: 1.0; stroke-dasharray: 2.0,2.0;" width="59" x="391" y="437"/><text fill="#000000" font-family="sans-serif" font-size="12" font-style="italic" lengthAdjust="spacingAndGlyphs" textLength="57" x="392" y="449.1387">Interface</text><!--MD5=[865b113cd38444117c4dca48a702f1ee]
class Gnome::Gtk3::Orientable--><rect codeLine="19" fill="#FEFECE" filter="url(#f11csh3vp0mm03)" height="32" id="Gnome::Gtk3::Orientable" style="stroke: #A80036; stroke-width: 1.5;" width="158" x="102" y="440"/><ellipse cx="117" cy="456" fill="#80FFFF" rx="11" ry="11" style="stroke: #A80036; stroke-width: 1.0;"/><path d="M118.2031,456.1406 Q118.5625,456.2188 118.8281,456.5 Q119.1094,456.7656 119.5,457.5469 L121.7344,462 L119.0469,462 L117.5469,458.875 Q117.4844,458.7344 117.375,458.5 Q116.7188,457.1094 115.8281,457.1094 L115.0469,457.1094 L115.0469,462 L112.6094,462 L112.6094,449.6094 L116.1406,449.6094 Q118.5313,449.6094 119.5625,450.4531 Q120.6094,451.2969 120.6094,453.2031 Q120.6094,454.4844 119.9844,455.25 Q119.375,456 118.2031,456.1406 Z M115.0469,451.6719 L115.0469,455.0469 L116.2031,455.0469 Q117.2188,455.0469 117.6406,454.6563 Q118.0781,454.25 118.0781,453.3438 Q118.0781,452.4531 117.6406,452.0625 Q117.2188,451.6719 116.2031,451.6719 L115.0469,451.6719 Z "/><text fill="#000000" font-family="sans-serif" font-size="12" lengthAdjust="spacingAndGlyphs" textLength="65" x="131" y="460.1543">Orientable</text><rect fill="#FFFFFF" height="15.9688" style="stroke: #000000; stroke-width: 1.0; stroke-dasharray: 2.0,2.0;" width="59" x="204" y="437"/><text fill="#000000" font-family="sans-serif" font-size="12" font-style="italic" lengthAdjust="spacingAndGlyphs" textLength="57" x="205" y="449.1387">Interface</text><!--MD5=[99c1fd59bdfde6048aec9e6766dd53ef]
class Gnome::Gtk3::Widget--><rect fill="#FEFECE" filter="url(#f11csh3vp0mm03)" height="32" id="Gnome::Gtk3::Widget" style="stroke: #A80036; stroke-width: 1.5;" width="75" x="371.5" y="348"/><ellipse cx="386.5" cy="364" fill="#80FFFF" rx="11" ry="11" style="stroke: #A80036; stroke-width: 1.0;"/><path d="M389.4688,369.6406 Q388.8906,369.9375 388.25,370.0781 Q387.6094,370.2344 386.9063,370.2344 Q384.4063,370.2344 383.0781,368.5938 Q381.7656,366.9375 381.7656,363.8125 Q381.7656,360.6875 383.0781,359.0313 Q384.4063,357.375 386.9063,357.375 Q387.6094,357.375 388.25,357.5313 Q388.9063,357.6875 389.4688,357.9844 L389.4688,360.7031 Q388.8438,360.125 388.25,359.8594 Q387.6563,359.5781 387.0313,359.5781 Q385.6875,359.5781 385,360.6563 Q384.3125,361.7188 384.3125,363.8125 Q384.3125,365.9063 385,366.9844 Q385.6875,368.0469 387.0313,368.0469 Q387.6563,368.0469 388.25,367.7813 Q388.8438,367.5 389.4688,366.9219 L389.4688,369.6406 Z "/><text fill="#000000" font-family="sans-serif" font-size="12" lengthAdjust="spacingAndGlyphs" textLength="43" x="400.5" y="368.1543">Widget</text><!--MD5=[9e3cc955f682d05594420e46d2e4e3ea]
class Gnome::Gtk3::Container--><rect fill="#FEFECE" filter="url(#f11csh3vp0mm03)" height="32" id="Gnome::Gtk3::Container" style="stroke: #A80036; stroke-width: 1.5;" width="93" x="243.5" y="348"/><ellipse cx="258.5" cy="364" fill="#80FFFF" rx="11" ry="11" style="stroke: #A80036; stroke-width: 1.0;"/><path d="M261.4688,369.6406 Q260.8906,369.9375 260.25,370.0781 Q259.6094,370.2344 258.9063,370.2344 Q256.4063,370.2344 255.0781,368.5938 Q253.7656,366.9375 253.7656,363.8125 Q253.7656,360.6875 255.0781,359.0313 Q256.4063,357.375 258.9063,357.375 Q259.6094,357.375 260.25,357.5313 Q260.9063,357.6875 261.4688,357.9844 L261.4688,360.7031 Q260.8438,360.125 260.25,359.8594 Q259.6563,359.5781 259.0313,359.5781 Q257.6875,359.5781 257,360.6563 Q256.3125,361.7188 256.3125,363.8125 Q256.3125,365.9063 257,366.9844 Q257.6875,368.0469 259.0313,368.0469 Q259.6563,368.0469 260.25,367.7813 Q260.8438,367.5 261.4688,366.9219 L261.4688,369.6406 Z "/><text fill="#000000" font-family="sans-serif" font-size="12" lengthAdjust="spacingAndGlyphs" textLength="61" x="272.5" y="368.1543">Container</text><!--MD5=[1a4770efc7afe469e38e2fcdc96960c5]
class Gnome::Gtk3::Box--><rect fill="#FEFECE" filter="url(#f11csh3vp0mm03)" height="32" id="Gnome::Gtk3::Box" style="stroke: #A80036; stroke-width: 1.5;" width="54" x="154" y="348"/><ellipse cx="169" cy="364" fill="#80FFFF" rx="11" ry="11" style="stroke: #A80036; stroke-width: 1.0;"/><path d="M171.9688,369.6406 Q171.3906,369.9375 170.75,370.0781 Q170.1094,370.2344 169.4063,370.2344 Q166.9063,370.2344 165.5781,368.5938 Q164.2656,366.9375 164.2656,363.8125 Q164.2656,360.6875 165.5781,359.0313 Q166.9063,357.375 169.4063,357.375 Q170.1094,357.375 170.75,357.5313 Q171.4063,357.6875 171.9688,357.9844 L171.9688,360.7031 Q171.3438,360.125 170.75,359.8594 Q170.1563,359.5781 169.5313,359.5781 Q168.1875,359.5781 167.5,360.6563 Q166.8125,361.7188 166.8125,363.8125 Q166.8125,365.9063 167.5,366.9844 Q168.1875,368.0469 169.5313,368.0469 Q170.1563,368.0469 170.75,367.7813 Q171.3438,367.5 171.9688,366.9219 L171.9688,369.6406 Z "/><text fill="#000000" font-family="sans-serif" font-size="12" lengthAdjust="spacingAndGlyphs" textLength="22" x="183" y="368.1543">Box</text><!--MD5=[dae36afc0d8e3cc42ef39173dbb6348e]
class Gnome::Gtk3::ButtonBox--><rect fill="#FEFECE" filter="url(#f11csh3vp0mm03)" height="32" id="Gnome::Gtk3::ButtonBox" style="stroke: #A80036; stroke-width: 1.5;" width="96" x="23" y="348"/><ellipse cx="38" cy="364" fill="#80FFFF" rx="11" ry="11" style="stroke: #A80036; stroke-width: 1.0;"/><path d="M40.9688,369.6406 Q40.3906,369.9375 39.75,370.0781 Q39.1094,370.2344 38.4063,370.2344 Q35.9063,370.2344 34.5781,368.5938 Q33.2656,366.9375 33.2656,363.8125 Q33.2656,360.6875 34.5781,359.0313 Q35.9063,357.375 38.4063,357.375 Q39.1094,357.375 39.75,357.5313 Q40.4063,357.6875 40.9688,357.9844 L40.9688,360.7031 Q40.3438,360.125 39.75,359.8594 Q39.1563,359.5781 38.5313,359.5781 Q37.1875,359.5781 36.5,360.6563 Q35.8125,361.7188 35.8125,363.8125 Q35.8125,365.9063 36.5,366.9844 Q37.1875,368.0469 38.5313,368.0469 Q39.1563,368.0469 39.75,367.7813 Q40.3438,367.5 40.9688,366.9219 L40.9688,369.6406 Z "/><text fill="#000000" font-family="sans-serif" font-size="12" lengthAdjust="spacingAndGlyphs" textLength="64" x="52" y="368.1543">ButtonBox</text><!--MD5=[e23b679cf607d12ac81e9c5301595709]
reverse link Gnome::N::TopLevelClassSupport to Gnome::GObject::Object--><path codeLine="23" d="M438,94.1 C438,112.76 438,134.73 438,148.98 " fill="none" id="Gnome::N::TopLevelClassSupport-backto-Gnome::GObject::Object" style="stroke: #A80036; stroke-width: 1.0;"/><polygon fill="none" points="431,94.04,438,74.04,445,94.04,431,94.04" style="stroke: #A80036; stroke-width: 1.0;"/><!--MD5=[aa49dbc803ccf1c2ef8546b297b1dcfd]
reverse link Gnome::GObject::InitialyUnowned to Gnome::Gtk3::Widget--><path codeLine="24" d="M409,293.1 C409,311.76 409,333.73 409,347.98 " fill="none" id="Gnome::GObject::InitialyUnowned-backto-Gnome::Gtk3::Widget" style="stroke: #A80036; stroke-width: 1.0;"/><polygon fill="none" points="402,293.04,409,273.04,416,293.04,402,293.04" style="stroke: #A80036; stroke-width: 1.0;"/><!--MD5=[e1568b3b4ceade3a3349f45f19b4c32a]
link Gnome::Gtk3::Widget to Gnome::Gtk3::Buildable--><path codeLine="25" d="M402.72,380.27 C398.12,391.45 391.7,407.08 385.92,421.15 " fill="none" id="Gnome::Gtk3::Widget-to-Gnome::Gtk3::Buildable" style="stroke: #A80036; stroke-width: 1.0; stroke-dasharray: 7.0,7.0;"/><polygon fill="none" points="392.26,424.12,378.18,439.96,379.31,418.8,392.26,424.12" style="stroke: #A80036; stroke-width: 1.0;"/><!--MD5=[2e57c6084092ea441ae4a3f826779dd8]
reverse link Gnome::GObject::Object to Gnome::GObject::InitialyUnowned--><path codeLine="26" d="M426.84,200.63 C422.34,214.59 417.39,229.96 413.85,240.96 " fill="none" id="Gnome::GObject::Object-backto-Gnome::GObject::InitialyUnowned" style="stroke: #A80036; stroke-width: 1.0;"/><polygon fill="none" points="420.28,198.16,433.08,181.27,433.61,202.45,420.28,198.16" style="stroke: #A80036; stroke-width: 1.0;"/><!--MD5=[f8ffcf4587ba956cb48626a4231e4d21]
reverse link Gnome::GObject::Signal to Gnome::GObject::Object--><path codeLine="27" d="M386.77,165 C391.85,165 396.92,165 402,165 " fill="none" id="Gnome::GObject::Signal-backto-Gnome::GObject::Object" style="stroke: #A80036; stroke-width: 1.0; stroke-dasharray: 7.0,7.0;"/><polygon fill="none" points="386.56,172,366.56,165,386.56,158,386.56,172" style="stroke: #A80036; stroke-width: 1.0;"/><!--MD5=[aaf476f5d2312b98d0ee61e81272172c]
link Gnome::Gtk3::Container to Gnome::Gtk3::Widget--><path codeLine="29" d="M336.95,364 C341.69,364 346.43,364 351.17,364 " fill="none" id="Gnome::Gtk3::Container-to-Gnome::Gtk3::Widget" style="stroke: #A80036; stroke-width: 1.0;"/><polygon fill="none" points="351.29,357,371.29,364,351.29,371,351.29,357" style="stroke: #A80036; stroke-width: 1.0;"/><!--MD5=[b6e1396316cda9879a2d2856e93e7af0]
link Gnome::Gtk3::Box to Gnome::Gtk3::Container--><path codeLine="30" d="M208.25,364 C213.28,364 218.31,364 223.34,364 " fill="none" id="Gnome::Gtk3::Box-to-Gnome::Gtk3::Container" style="stroke: #A80036; stroke-width: 1.0;"/><polygon fill="none" points="223.38,357,243.38,364,223.38,371,223.38,357" style="stroke: #A80036; stroke-width: 1.0;"/><!--MD5=[a6b00b89fd018b89a6ad3c119dbe5dbe]
link Gnome::Gtk3::Box to Gnome::Gtk3::Orientable--><path codeLine="31" d="M181,380.27 C181,391.06 181,405.99 181,419.67 " fill="none" id="Gnome::Gtk3::Box-to-Gnome::Gtk3::Orientable" style="stroke: #A80036; stroke-width: 1.0; stroke-dasharray: 7.0,7.0;"/><polygon fill="none" points="188,419.96,181,439.96,174,419.96,188,419.96" style="stroke: #A80036; stroke-width: 1.0;"/><!--MD5=[b9ea487ba8495f82b29bfd7a5e4c2f84]
link Gnome::Gtk3::ButtonBox to Gnome::Gtk3::Box--><path codeLine="32" d="M119.12,364 C124.02,364 128.91,364 133.81,364 " fill="none" id="Gnome::Gtk3::ButtonBox-to-Gnome::Gtk3::Box" style="stroke: #A80036; stroke-width: 1.0;"/><polygon fill="none" points="133.93,357,153.93,364,133.93,371,133.93,357" style="stroke: #A80036; stroke-width: 1.0;"/><!--MD5=[35a5f703c5d745ebe565915fcdaafd0d]
@startuml
'scale 0.9
skinparam packageStyle rectangle
skinparam stereotypeCBackgroundColor #80ffff
set namespaceSeparator ::
hide members


'Class and interface declarations
class Gnome::N::TopLevelClassSupport < Catch all class >

Interface Gnome::GObject::Signal <Interface>
class Gnome::GObject::Signal <<(R,#80ffff)>>

Interface Gnome::Gtk3::Buildable <Interface>
class Gnome::Gtk3::Buildable <<(R,#80ffff)>>

Interface Gnome::Gtk3::Orientable <Interface>
class Gnome::Gtk3::Orientable <<(R,#80ffff)>>


'Class connections
Gnome::N::TopLevelClassSupport <|- - Gnome::GObject::Object
Gnome::GObject::InitialyUnowned <|- - Gnome::Gtk3::Widget
Gnome::Gtk3::Widget ..|> Gnome::Gtk3::Buildable
Gnome::GObject::Object <|- - Gnome::GObject::InitialyUnowned
Gnome::GObject::Signal <|. Gnome::GObject::Object

Gnome::Gtk3::Container -|> Gnome::Gtk3::Widget
Gnome::Gtk3::Box -|> Gnome::Gtk3::Container
Gnome::Gtk3::Box ..|> Gnome::Gtk3::Orientable
Gnome::Gtk3::ButtonBox -|> Gnome::Gtk3::Box

@enduml

@startuml
skinparam packageStyle rectangle
skinparam stereotypeCBackgroundColor #80ffff
set namespaceSeparator ::
hide members


class Gnome::N::TopLevelClassSupport < Catch all class >

Interface Gnome::GObject::Signal <Interface>
class Gnome::GObject::Signal <<(R,#80ffff)>>

Interface Gnome::Gtk3::Buildable <Interface>
class Gnome::Gtk3::Buildable <<(R,#80ffff)>>

Interface Gnome::Gtk3::Orientable <Interface>
class Gnome::Gtk3::Orientable <<(R,#80ffff)>>


Gnome::N::TopLevelClassSupport <|- - Gnome::GObject::Object
Gnome::GObject::InitialyUnowned <|- - Gnome::Gtk3::Widget
Gnome::Gtk3::Widget ..|> Gnome::Gtk3::Buildable
Gnome::GObject::Object <|- - Gnome::GObject::InitialyUnowned
Gnome::GObject::Signal <|. Gnome::GObject::Object

Gnome::Gtk3::Container -|> Gnome::Gtk3::Widget
Gnome::Gtk3::Box -|> Gnome::Gtk3::Container
Gnome::Gtk3::Box ..|> Gnome::Gtk3::Orientable
Gnome::Gtk3::ButtonBox -|> Gnome::Gtk3::Box

@enduml

PlantUML version 1.2020.19(Mon Oct 12 17:10:01 CEST 2020)
(GPL source distribution)
Java Runtime: OpenJDK Runtime Environment
JVM: OpenJDK 64-Bit Server VM
Default Encoding: UTF-8
Language: en
Country: null
--></g></svg>