<?xml version="1.0" encoding="UTF-8" standalone="no"?><svg xmlns="http://www.w3.org/2000/svg" xmlns:xlink="http://www.w3.org/1999/xlink" contentScriptType="application/ecmascript" contentStyleType="text/css" height="868px" preserveAspectRatio="none" style="width:1005px;height:868px;" version="1.1" viewBox="0 0 1005 868" width="1005px" zoomAndPan="magnify"><defs><filter height="300%" id="fsyv92j5ksdxw" width="300%" x="-1" y="-1"><feGaussianBlur result="blurOut" stdDeviation="2.0"/><feColorMatrix in="blurOut" result="blurOut2" type="matrix" values="0 0 0 0 0 0 0 0 0 0 0 0 0 0 0 0 0 0 .4 0"/><feOffset dx="4.0" dy="4.0" in="blurOut2" result="blurOut3"/><feBlend in="SourceGraphic" in2="blurOut3" mode="normal"/></filter></defs><g><!--MD5=[b969295f0ec9b4fa482091c3e26049be]
cluster Gnome::N--><rect fill="#FFFFFF" filter="url(#fsyv92j5ksdxw)" height="83" style="stroke: #000000; stroke-width: 1.5;" width="302" x="485" y="7"/><text fill="#000000" font-family="sans-serif" font-size="14" font-weight="bold" lengthAdjust="spacingAndGlyphs" textLength="79" x="596.5" y="21.9951">Gnome::N</text><!--MD5=[2fb3f9b624b0544b9841d5da78ec0508]
cluster Gnome::GObject--><rect fill="#FFFFFF" filter="url(#fsyv92j5ksdxw)" height="175" style="stroke: #000000; stroke-width: 1.5;" width="271" x="417" y="114"/><text fill="#000000" font-family="sans-serif" font-size="14" font-weight="bold" lengthAdjust="spacingAndGlyphs" textLength="131" x="487" y="128.9951">Gnome::GObject</text><!--MD5=[7d67f77911969026863717fbb204e273]
cluster Gnome::Gtk3--><rect fill="#FFFFFF" filter="url(#fsyv92j5ksdxw)" height="543" style="stroke: #000000; stroke-width: 1.5;" width="986" x="7" y="313"/><text fill="#000000" font-family="sans-serif" font-size="14" font-weight="bold" lengthAdjust="spacingAndGlyphs" textLength="105" x="447.5" y="327.9951">Gnome::Gtk3</text><!--MD5=[0b8e281ccd00c72019a31d78e9f95b5d]
class Gnome::N::TopLevelClassSupport--><rect codeLine="10" fill="#FEFECE" filter="url(#fsyv92j5ksdxw)" height="32" id="Gnome::N::TopLevelClassSupport" style="stroke: #A80036; stroke-width: 1.5;" width="269" x="501.5" y="42"/><ellipse cx="516.5" cy="58" fill="#80FFFF" rx="11" ry="11" style="stroke: #A80036; stroke-width: 1.0;"/><path d="M519.4688,63.6406 Q518.8906,63.9375 518.25,64.0781 Q517.6094,64.2344 516.9063,64.2344 Q514.4063,64.2344 513.0781,62.5938 Q511.7656,60.9375 511.7656,57.8125 Q511.7656,54.6875 513.0781,53.0313 Q514.4063,51.375 516.9063,51.375 Q517.6094,51.375 518.25,51.5313 Q518.9063,51.6875 519.4688,51.9844 L519.4688,54.7031 Q518.8438,54.125 518.25,53.8594 Q517.6563,53.5781 517.0313,53.5781 Q515.6875,53.5781 515,54.6563 Q514.3125,55.7188 514.3125,57.8125 Q514.3125,59.9063 515,60.9844 Q515.6875,62.0469 517.0313,62.0469 Q517.6563,62.0469 518.25,61.7813 Q518.8438,61.5 519.4688,60.9219 L519.4688,63.6406 Z "/><text fill="#000000" font-family="sans-serif" font-size="12" lengthAdjust="spacingAndGlyphs" textLength="137" x="530.5" y="62.1543">TopLevelClassSupport</text><rect fill="#FFFFFF" height="15.9688" style="stroke: #000000; stroke-width: 1.0; stroke-dasharray: 2.0,2.0;" width="98" x="675.5" y="39"/><text fill="#000000" font-family="sans-serif" font-size="12" font-style="italic" lengthAdjust="spacingAndGlyphs" textLength="88" x="680.5" y="51.1387">Catch all class</text><!--MD5=[52303d185de782118d4739c052001bf2]
class Gnome::GObject::Signal--><rect codeLine="13" fill="#FEFECE" filter="url(#fsyv92j5ksdxw)" height="32" id="Gnome::GObject::Signal" style="stroke: #A80036; stroke-width: 1.5;" width="131" x="433.5" y="149"/><ellipse cx="448.5" cy="165" fill="#80FFFF" rx="11" ry="11" style="stroke: #A80036; stroke-width: 1.0;"/><path d="M449.7031,165.1406 Q450.0625,165.2188 450.3281,165.5 Q450.6094,165.7656 451,166.5469 L453.2344,171 L450.5469,171 L449.0469,167.875 Q448.9844,167.7344 448.875,167.5 Q448.2188,166.1094 447.3281,166.1094 L446.5469,166.1094 L446.5469,171 L444.1094,171 L444.1094,158.6094 L447.6406,158.6094 Q450.0313,158.6094 451.0625,159.4531 Q452.1094,160.2969 452.1094,162.2031 Q452.1094,163.4844 451.4844,164.25 Q450.875,165 449.7031,165.1406 Z M446.5469,160.6719 L446.5469,164.0469 L447.7031,164.0469 Q448.7188,164.0469 449.1406,163.6563 Q449.5781,163.25 449.5781,162.3438 Q449.5781,161.4531 449.1406,161.0625 Q448.7188,160.6719 447.7031,160.6719 L446.5469,160.6719 Z "/><text fill="#000000" font-family="sans-serif" font-size="12" lengthAdjust="spacingAndGlyphs" textLength="38" x="462.5" y="169.1543">Signal</text><rect fill="#FFFFFF" height="15.9688" style="stroke: #000000; stroke-width: 1.0; stroke-dasharray: 2.0,2.0;" width="59" x="508.5" y="146"/><text fill="#000000" font-family="sans-serif" font-size="12" font-style="italic" lengthAdjust="spacingAndGlyphs" textLength="57" x="509.5" y="158.1387">Interface</text><!--MD5=[c2016d28441601ceb0a74f47a4537d14]
class Gnome::GObject::Object--><rect fill="#FEFECE" filter="url(#fsyv92j5ksdxw)" height="32" id="Gnome::GObject::Object" style="stroke: #A80036; stroke-width: 1.5;" width="72" x="600" y="149"/><ellipse cx="615" cy="165" fill="#80FFFF" rx="11" ry="11" style="stroke: #A80036; stroke-width: 1.0;"/><path d="M617.9688,170.6406 Q617.3906,170.9375 616.75,171.0781 Q616.1094,171.2344 615.4063,171.2344 Q612.9063,171.2344 611.5781,169.5938 Q610.2656,167.9375 610.2656,164.8125 Q610.2656,161.6875 611.5781,160.0313 Q612.9063,158.375 615.4063,158.375 Q616.1094,158.375 616.75,158.5313 Q617.4063,158.6875 617.9688,158.9844 L617.9688,161.7031 Q617.3438,161.125 616.75,160.8594 Q616.1563,160.5781 615.5313,160.5781 Q614.1875,160.5781 613.5,161.6563 Q612.8125,162.7188 612.8125,164.8125 Q612.8125,166.9063 613.5,167.9844 Q614.1875,169.0469 615.5313,169.0469 Q616.1563,169.0469 616.75,168.7813 Q617.3438,168.5 617.9688,167.9219 L617.9688,170.6406 Z "/><text fill="#000000" font-family="sans-serif" font-size="12" lengthAdjust="spacingAndGlyphs" textLength="40" x="629" y="169.1543">Object</text><!--MD5=[f47b9a4a06d3f9bed948fa39f8c5540e]
class Gnome::GObject::InitialyUnowned--><rect fill="#FEFECE" filter="url(#fsyv92j5ksdxw)" height="32" id="Gnome::GObject::InitialyUnowned" style="stroke: #A80036; stroke-width: 1.5;" width="129" x="542.5" y="241"/><ellipse cx="557.5" cy="257" fill="#80FFFF" rx="11" ry="11" style="stroke: #A80036; stroke-width: 1.0;"/><path d="M560.4688,262.6406 Q559.8906,262.9375 559.25,263.0781 Q558.6094,263.2344 557.9063,263.2344 Q555.4063,263.2344 554.0781,261.5938 Q552.7656,259.9375 552.7656,256.8125 Q552.7656,253.6875 554.0781,252.0313 Q555.4063,250.375 557.9063,250.375 Q558.6094,250.375 559.25,250.5313 Q559.9063,250.6875 560.4688,250.9844 L560.4688,253.7031 Q559.8438,253.125 559.25,252.8594 Q558.6563,252.5781 558.0313,252.5781 Q556.6875,252.5781 556,253.6563 Q555.3125,254.7188 555.3125,256.8125 Q555.3125,258.9063 556,259.9844 Q556.6875,261.0469 558.0313,261.0469 Q558.6563,261.0469 559.25,260.7813 Q559.8438,260.5 560.4688,259.9219 L560.4688,262.6406 Z "/><text fill="#000000" font-family="sans-serif" font-size="12" lengthAdjust="spacingAndGlyphs" textLength="97" x="571.5" y="261.1543">InitialyUnowned</text><!--MD5=[fc528952aa489a9a9f8514412a46a5d5]
class Gnome::Gtk3::Buildable--><rect codeLine="16" fill="#FEFECE" filter="url(#fsyv92j5ksdxw)" height="32" id="Gnome::Gtk3::Buildable" style="stroke: #A80036; stroke-width: 1.5;" width="150" x="384" y="348"/><ellipse cx="399" cy="364" fill="#80FFFF" rx="11" ry="11" style="stroke: #A80036; stroke-width: 1.0;"/><path d="M400.2031,364.1406 Q400.5625,364.2188 400.8281,364.5 Q401.1094,364.7656 401.5,365.5469 L403.7344,370 L401.0469,370 L399.5469,366.875 Q399.4844,366.7344 399.375,366.5 Q398.7188,365.1094 397.8281,365.1094 L397.0469,365.1094 L397.0469,370 L394.6094,370 L394.6094,357.6094 L398.1406,357.6094 Q400.5313,357.6094 401.5625,358.4531 Q402.6094,359.2969 402.6094,361.2031 Q402.6094,362.4844 401.9844,363.25 Q401.375,364 400.2031,364.1406 Z M397.0469,359.6719 L397.0469,363.0469 L398.2031,363.0469 Q399.2188,363.0469 399.6406,362.6563 Q400.0781,362.25 400.0781,361.3438 Q400.0781,360.4531 399.6406,360.0625 Q399.2188,359.6719 398.2031,359.6719 L397.0469,359.6719 Z "/><text fill="#000000" font-family="sans-serif" font-size="12" lengthAdjust="spacingAndGlyphs" textLength="57" x="413" y="368.1543">Buildable</text><rect fill="#FFFFFF" height="15.9688" style="stroke: #000000; stroke-width: 1.0; stroke-dasharray: 2.0,2.0;" width="59" x="478" y="345"/><text fill="#000000" font-family="sans-serif" font-size="12" font-style="italic" lengthAdjust="spacingAndGlyphs" textLength="57" x="479" y="357.1387">Interface</text><!--MD5=[f76e7f9c868e6478fc523c72aca903a7]
class Gnome::Gtk3::Actionable--><rect codeLine="19" fill="#FEFECE" filter="url(#fsyv92j5ksdxw)" height="32" id="Gnome::Gtk3::Actionable" style="stroke: #A80036; stroke-width: 1.5;" width="159" x="637.5" y="440"/><ellipse cx="652.5" cy="456" fill="#80FFFF" rx="11" ry="11" style="stroke: #A80036; stroke-width: 1.0;"/><path d="M653.7031,456.1406 Q654.0625,456.2188 654.3281,456.5 Q654.6094,456.7656 655,457.5469 L657.2344,462 L654.5469,462 L653.0469,458.875 Q652.9844,458.7344 652.875,458.5 Q652.2188,457.1094 651.3281,457.1094 L650.5469,457.1094 L650.5469,462 L648.1094,462 L648.1094,449.6094 L651.6406,449.6094 Q654.0313,449.6094 655.0625,450.4531 Q656.1094,451.2969 656.1094,453.2031 Q656.1094,454.4844 655.4844,455.25 Q654.875,456 653.7031,456.1406 Z M650.5469,451.6719 L650.5469,455.0469 L651.7031,455.0469 Q652.7188,455.0469 653.1406,454.6563 Q653.5781,454.25 653.5781,453.3438 Q653.5781,452.4531 653.1406,452.0625 Q652.7188,451.6719 651.7031,451.6719 L650.5469,451.6719 Z "/><text fill="#000000" font-family="sans-serif" font-size="12" lengthAdjust="spacingAndGlyphs" textLength="66" x="666.5" y="460.1543">Actionable</text><rect fill="#FFFFFF" height="15.9688" style="stroke: #000000; stroke-width: 1.0; stroke-dasharray: 2.0,2.0;" width="59" x="740.5" y="437"/><text fill="#000000" font-family="sans-serif" font-size="12" font-style="italic" lengthAdjust="spacingAndGlyphs" textLength="57" x="741.5" y="449.1387">Interface</text><!--MD5=[865b113cd38444117c4dca48a702f1ee]
class Gnome::Gtk3::Orientable--><rect codeLine="22" fill="#FEFECE" filter="url(#fsyv92j5ksdxw)" height="32" id="Gnome::Gtk3::Orientable" style="stroke: #A80036; stroke-width: 1.5;" width="158" x="444" y="440"/><ellipse cx="459" cy="456" fill="#80FFFF" rx="11" ry="11" style="stroke: #A80036; stroke-width: 1.0;"/><path d="M460.2031,456.1406 Q460.5625,456.2188 460.8281,456.5 Q461.1094,456.7656 461.5,457.5469 L463.7344,462 L461.0469,462 L459.5469,458.875 Q459.4844,458.7344 459.375,458.5 Q458.7188,457.1094 457.8281,457.1094 L457.0469,457.1094 L457.0469,462 L454.6094,462 L454.6094,449.6094 L458.1406,449.6094 Q460.5313,449.6094 461.5625,450.4531 Q462.6094,451.2969 462.6094,453.2031 Q462.6094,454.4844 461.9844,455.25 Q461.375,456 460.2031,456.1406 Z M457.0469,451.6719 L457.0469,455.0469 L458.2031,455.0469 Q459.2188,455.0469 459.6406,454.6563 Q460.0781,454.25 460.0781,453.3438 Q460.0781,452.4531 459.6406,452.0625 Q459.2188,451.6719 458.2031,451.6719 L457.0469,451.6719 Z "/><text fill="#000000" font-family="sans-serif" font-size="12" lengthAdjust="spacingAndGlyphs" textLength="65" x="473" y="460.1543">Orientable</text><rect fill="#FFFFFF" height="15.9688" style="stroke: #000000; stroke-width: 1.0; stroke-dasharray: 2.0,2.0;" width="59" x="546" y="437"/><text fill="#000000" font-family="sans-serif" font-size="12" font-style="italic" lengthAdjust="spacingAndGlyphs" textLength="57" x="547" y="449.1387">Interface</text><!--MD5=[77405212f693fdb8827f96282b5e8861]
class Gnome::Gtk3::ColorChooser--><rect codeLine="25" fill="#FEFECE" filter="url(#fsyv92j5ksdxw)" height="32" id="Gnome::Gtk3::ColorChooser" style="stroke: #A80036; stroke-width: 1.5;" width="177" x="231.5" y="440"/><ellipse cx="246.5" cy="456" fill="#80FFFF" rx="11" ry="11" style="stroke: #A80036; stroke-width: 1.0;"/><path d="M247.7031,456.1406 Q248.0625,456.2188 248.3281,456.5 Q248.6094,456.7656 249,457.5469 L251.2344,462 L248.5469,462 L247.0469,458.875 Q246.9844,458.7344 246.875,458.5 Q246.2188,457.1094 245.3281,457.1094 L244.5469,457.1094 L244.5469,462 L242.1094,462 L242.1094,449.6094 L245.6406,449.6094 Q248.0313,449.6094 249.0625,450.4531 Q250.1094,451.2969 250.1094,453.2031 Q250.1094,454.4844 249.4844,455.25 Q248.875,456 247.7031,456.1406 Z M244.5469,451.6719 L244.5469,455.0469 L245.7031,455.0469 Q246.7188,455.0469 247.1406,454.6563 Q247.5781,454.25 247.5781,453.3438 Q247.5781,452.4531 247.1406,452.0625 Q246.7188,451.6719 245.7031,451.6719 L244.5469,451.6719 Z "/><text fill="#000000" font-family="sans-serif" font-size="12" lengthAdjust="spacingAndGlyphs" textLength="84" x="260.5" y="460.1543">ColorChooser</text><rect fill="#FFFFFF" height="15.9688" style="stroke: #000000; stroke-width: 1.0; stroke-dasharray: 2.0,2.0;" width="59" x="352.5" y="437"/><text fill="#000000" font-family="sans-serif" font-size="12" font-style="italic" lengthAdjust="spacingAndGlyphs" textLength="57" x="353.5" y="449.1387">Interface</text><!--MD5=[acc5b5b316ed3c54257881e3fd1d8699]
class Gnome::Gtk3::FontChooser--><rect codeLine="28" fill="#FEFECE" filter="url(#fsyv92j5ksdxw)" height="32" id="Gnome::Gtk3::FontChooser" style="stroke: #A80036; stroke-width: 1.5;" width="173" x="23.5" y="440"/><ellipse cx="38.5" cy="456" fill="#80FFFF" rx="11" ry="11" style="stroke: #A80036; stroke-width: 1.0;"/><path d="M39.7031,456.1406 Q40.0625,456.2188 40.3281,456.5 Q40.6094,456.7656 41,457.5469 L43.2344,462 L40.5469,462 L39.0469,458.875 Q38.9844,458.7344 38.875,458.5 Q38.2188,457.1094 37.3281,457.1094 L36.5469,457.1094 L36.5469,462 L34.1094,462 L34.1094,449.6094 L37.6406,449.6094 Q40.0313,449.6094 41.0625,450.4531 Q42.1094,451.2969 42.1094,453.2031 Q42.1094,454.4844 41.4844,455.25 Q40.875,456 39.7031,456.1406 Z M36.5469,451.6719 L36.5469,455.0469 L37.7031,455.0469 Q38.7188,455.0469 39.1406,454.6563 Q39.5781,454.25 39.5781,453.3438 Q39.5781,452.4531 39.1406,452.0625 Q38.7188,451.6719 37.7031,451.6719 L36.5469,451.6719 Z "/><text fill="#000000" font-family="sans-serif" font-size="12" lengthAdjust="spacingAndGlyphs" textLength="80" x="52.5" y="460.1543">FontChooser</text><rect fill="#FFFFFF" height="15.9688" style="stroke: #000000; stroke-width: 1.0; stroke-dasharray: 2.0,2.0;" width="59" x="140.5" y="437"/><text fill="#000000" font-family="sans-serif" font-size="12" font-style="italic" lengthAdjust="spacingAndGlyphs" textLength="57" x="141.5" y="449.1387">Interface</text><!--MD5=[99c1fd59bdfde6048aec9e6766dd53ef]
class Gnome::Gtk3::Widget--><rect fill="#FEFECE" filter="url(#fsyv92j5ksdxw)" height="32" id="Gnome::Gtk3::Widget" style="stroke: #A80036; stroke-width: 1.5;" width="75" x="569.5" y="348"/><ellipse cx="584.5" cy="364" fill="#80FFFF" rx="11" ry="11" style="stroke: #A80036; stroke-width: 1.0;"/><path d="M587.4688,369.6406 Q586.8906,369.9375 586.25,370.0781 Q585.6094,370.2344 584.9063,370.2344 Q582.4063,370.2344 581.0781,368.5938 Q579.7656,366.9375 579.7656,363.8125 Q579.7656,360.6875 581.0781,359.0313 Q582.4063,357.375 584.9063,357.375 Q585.6094,357.375 586.25,357.5313 Q586.9063,357.6875 587.4688,357.9844 L587.4688,360.7031 Q586.8438,360.125 586.25,359.8594 Q585.6563,359.5781 585.0313,359.5781 Q583.6875,359.5781 583,360.6563 Q582.3125,361.7188 582.3125,363.8125 Q582.3125,365.9063 583,366.9844 Q583.6875,368.0469 585.0313,368.0469 Q585.6563,368.0469 586.25,367.7813 Q586.8438,367.5 587.4688,366.9219 L587.4688,369.6406 Z "/><text fill="#000000" font-family="sans-serif" font-size="12" lengthAdjust="spacingAndGlyphs" textLength="43" x="598.5" y="368.1543">Widget</text><!--MD5=[9e3cc955f682d05594420e46d2e4e3ea]
class Gnome::Gtk3::Container--><rect fill="#FEFECE" filter="url(#fsyv92j5ksdxw)" height="32" id="Gnome::Gtk3::Container" style="stroke: #A80036; stroke-width: 1.5;" width="93" x="679.5" y="348"/><ellipse cx="694.5" cy="364" fill="#80FFFF" rx="11" ry="11" style="stroke: #A80036; stroke-width: 1.0;"/><path d="M697.4688,369.6406 Q696.8906,369.9375 696.25,370.0781 Q695.6094,370.2344 694.9063,370.2344 Q692.4063,370.2344 691.0781,368.5938 Q689.7656,366.9375 689.7656,363.8125 Q689.7656,360.6875 691.0781,359.0313 Q692.4063,357.375 694.9063,357.375 Q695.6094,357.375 696.25,357.5313 Q696.9063,357.6875 697.4688,357.9844 L697.4688,360.7031 Q696.8438,360.125 696.25,359.8594 Q695.6563,359.5781 695.0313,359.5781 Q693.6875,359.5781 693,360.6563 Q692.3125,361.7188 692.3125,363.8125 Q692.3125,365.9063 693,366.9844 Q693.6875,368.0469 695.0313,368.0469 Q695.6563,368.0469 696.25,367.7813 Q696.8438,367.5 697.4688,366.9219 L697.4688,369.6406 Z "/><text fill="#000000" font-family="sans-serif" font-size="12" lengthAdjust="spacingAndGlyphs" textLength="61" x="708.5" y="368.1543">Container</text><!--MD5=[6ac0a199e9a9e53d446254a1d59f3468]
class Gnome::Gtk3::Bin--><rect fill="#FEFECE" filter="url(#fsyv92j5ksdxw)" height="32" id="Gnome::Gtk3::Bin" style="stroke: #A80036; stroke-width: 1.5;" width="51" x="807.5" y="348"/><ellipse cx="822.5" cy="364" fill="#80FFFF" rx="11" ry="11" style="stroke: #A80036; stroke-width: 1.0;"/><path d="M825.4688,369.6406 Q824.8906,369.9375 824.25,370.0781 Q823.6094,370.2344 822.9063,370.2344 Q820.4063,370.2344 819.0781,368.5938 Q817.7656,366.9375 817.7656,363.8125 Q817.7656,360.6875 819.0781,359.0313 Q820.4063,357.375 822.9063,357.375 Q823.6094,357.375 824.25,357.5313 Q824.9063,357.6875 825.4688,357.9844 L825.4688,360.7031 Q824.8438,360.125 824.25,359.8594 Q823.6563,359.5781 823.0313,359.5781 Q821.6875,359.5781 821,360.6563 Q820.3125,361.7188 820.3125,363.8125 Q820.3125,365.9063 821,366.9844 Q821.6875,368.0469 823.0313,368.0469 Q823.6563,368.0469 824.25,367.7813 Q824.8438,367.5 825.4688,366.9219 L825.4688,369.6406 Z "/><text fill="#000000" font-family="sans-serif" font-size="12" lengthAdjust="spacingAndGlyphs" textLength="19" x="836.5" y="368.1543">Bin</text><!--MD5=[3e2f051a85f4b2b2d9fbae0180460565]
class Gnome::Gtk3::Button--><rect fill="#FEFECE" filter="url(#fsyv92j5ksdxw)" height="32" id="Gnome::Gtk3::Button" style="stroke: #A80036; stroke-width: 1.5;" width="74" x="607" y="532"/><ellipse cx="622" cy="548" fill="#80FFFF" rx="11" ry="11" style="stroke: #A80036; stroke-width: 1.0;"/><path d="M624.9688,553.6406 Q624.3906,553.9375 623.75,554.0781 Q623.1094,554.2344 622.4063,554.2344 Q619.9063,554.2344 618.5781,552.5938 Q617.2656,550.9375 617.2656,547.8125 Q617.2656,544.6875 618.5781,543.0313 Q619.9063,541.375 622.4063,541.375 Q623.1094,541.375 623.75,541.5313 Q624.4063,541.6875 624.9688,541.9844 L624.9688,544.7031 Q624.3438,544.125 623.75,543.8594 Q623.1563,543.5781 622.5313,543.5781 Q621.1875,543.5781 620.5,544.6563 Q619.8125,545.7188 619.8125,547.8125 Q619.8125,549.9063 620.5,550.9844 Q621.1875,552.0469 622.5313,552.0469 Q623.1563,552.0469 623.75,551.7813 Q624.3438,551.5 624.9688,550.9219 L624.9688,553.6406 Z "/><text fill="#000000" font-family="sans-serif" font-size="12" lengthAdjust="spacingAndGlyphs" textLength="42" x="636" y="552.1543">Button</text><!--MD5=[a12fe568539dbea7527b654c5254dd02]
class Gnome::Gtk3::ScaleButton--><rect fill="#FEFECE" filter="url(#fsyv92j5ksdxw)" height="32" id="Gnome::Gtk3::ScaleButton" style="stroke: #A80036; stroke-width: 1.5;" width="108" x="301" y="624"/><ellipse cx="316" cy="640" fill="#80FFFF" rx="11" ry="11" style="stroke: #A80036; stroke-width: 1.0;"/><path d="M318.9688,645.6406 Q318.3906,645.9375 317.75,646.0781 Q317.1094,646.2344 316.4063,646.2344 Q313.9063,646.2344 312.5781,644.5938 Q311.2656,642.9375 311.2656,639.8125 Q311.2656,636.6875 312.5781,635.0313 Q313.9063,633.375 316.4063,633.375 Q317.1094,633.375 317.75,633.5313 Q318.4063,633.6875 318.9688,633.9844 L318.9688,636.7031 Q318.3438,636.125 317.75,635.8594 Q317.1563,635.5781 316.5313,635.5781 Q315.1875,635.5781 314.5,636.6563 Q313.8125,637.7188 313.8125,639.8125 Q313.8125,641.9063 314.5,642.9844 Q315.1875,644.0469 316.5313,644.0469 Q317.1563,644.0469 317.75,643.7813 Q318.3438,643.5 318.9688,642.9219 L318.9688,645.6406 Z "/><text fill="#000000" font-family="sans-serif" font-size="12" lengthAdjust="spacingAndGlyphs" textLength="76" x="330" y="644.1543">ScaleButton</text><!--MD5=[7f71f02196fbda3b4976afb053cac23c]
class Gnome::Gtk3::ColorButton--><rect fill="#FEFECE" filter="url(#fsyv92j5ksdxw)" height="32" id="Gnome::Gtk3::ColorButton" style="stroke: #A80036; stroke-width: 1.5;" width="106" x="160" y="624"/><ellipse cx="175" cy="640" fill="#80FFFF" rx="11" ry="11" style="stroke: #A80036; stroke-width: 1.0;"/><path d="M177.9688,645.6406 Q177.3906,645.9375 176.75,646.0781 Q176.1094,646.2344 175.4063,646.2344 Q172.9063,646.2344 171.5781,644.5938 Q170.2656,642.9375 170.2656,639.8125 Q170.2656,636.6875 171.5781,635.0313 Q172.9063,633.375 175.4063,633.375 Q176.1094,633.375 176.75,633.5313 Q177.4063,633.6875 177.9688,633.9844 L177.9688,636.7031 Q177.3438,636.125 176.75,635.8594 Q176.1563,635.5781 175.5313,635.5781 Q174.1875,635.5781 173.5,636.6563 Q172.8125,637.7188 172.8125,639.8125 Q172.8125,641.9063 173.5,642.9844 Q174.1875,644.0469 175.5313,644.0469 Q176.1563,644.0469 176.75,643.7813 Q177.3438,643.5 177.9688,642.9219 L177.9688,645.6406 Z "/><text fill="#000000" font-family="sans-serif" font-size="12" lengthAdjust="spacingAndGlyphs" textLength="74" x="189" y="644.1543">ColorButton</text><!--MD5=[b011894cb1b6e88ef38539ad57f98a0d]
class Gnome::Gtk3::FontButton--><rect fill="#FEFECE" filter="url(#fsyv92j5ksdxw)" height="32" id="Gnome::Gtk3::FontButton" style="stroke: #A80036; stroke-width: 1.5;" width="102" x="23" y="624"/><ellipse cx="38" cy="640" fill="#80FFFF" rx="11" ry="11" style="stroke: #A80036; stroke-width: 1.0;"/><path d="M40.9688,645.6406 Q40.3906,645.9375 39.75,646.0781 Q39.1094,646.2344 38.4063,646.2344 Q35.9063,646.2344 34.5781,644.5938 Q33.2656,642.9375 33.2656,639.8125 Q33.2656,636.6875 34.5781,635.0313 Q35.9063,633.375 38.4063,633.375 Q39.1094,633.375 39.75,633.5313 Q40.4063,633.6875 40.9688,633.9844 L40.9688,636.7031 Q40.3438,636.125 39.75,635.8594 Q39.1563,635.5781 38.5313,635.5781 Q37.1875,635.5781 36.5,636.6563 Q35.8125,637.7188 35.8125,639.8125 Q35.8125,641.9063 36.5,642.9844 Q37.1875,644.0469 38.5313,644.0469 Q39.1563,644.0469 39.75,643.7813 Q40.3438,643.5 40.9688,642.9219 L40.9688,645.6406 Z "/><text fill="#000000" font-family="sans-serif" font-size="12" lengthAdjust="spacingAndGlyphs" textLength="70" x="52" y="644.1543">FontButton</text><!--MD5=[fe3e4e75f5a635694dd263d0e12df184]
class Gnome::Gtk3::ToggleButton--><rect fill="#FEFECE" filter="url(#fsyv92j5ksdxw)" height="32" id="Gnome::Gtk3::ToggleButton" style="stroke: #A80036; stroke-width: 1.5;" width="116" x="444" y="624"/><ellipse cx="459" cy="640" fill="#80FFFF" rx="11" ry="11" style="stroke: #A80036; stroke-width: 1.0;"/><path d="M461.9688,645.6406 Q461.3906,645.9375 460.75,646.0781 Q460.1094,646.2344 459.4063,646.2344 Q456.9063,646.2344 455.5781,644.5938 Q454.2656,642.9375 454.2656,639.8125 Q454.2656,636.6875 455.5781,635.0313 Q456.9063,633.375 459.4063,633.375 Q460.1094,633.375 460.75,633.5313 Q461.4063,633.6875 461.9688,633.9844 L461.9688,636.7031 Q461.3438,636.125 460.75,635.8594 Q460.1563,635.5781 459.5313,635.5781 Q458.1875,635.5781 457.5,636.6563 Q456.8125,637.7188 456.8125,639.8125 Q456.8125,641.9063 457.5,642.9844 Q458.1875,644.0469 459.5313,644.0469 Q460.1563,644.0469 460.75,643.7813 Q461.3438,643.5 461.9688,642.9219 L461.9688,645.6406 Z "/><text fill="#000000" font-family="sans-serif" font-size="12" lengthAdjust="spacingAndGlyphs" textLength="84" x="473" y="644.1543">ToggleButton</text><!--MD5=[a154b41ba300eaeb1ba14680ab512360]
class Gnome::Gtk3::CheckButton--><rect fill="#FEFECE" filter="url(#fsyv92j5ksdxw)" height="32" id="Gnome::Gtk3::CheckButton" style="stroke: #A80036; stroke-width: 1.5;" width="112" x="446" y="716"/><ellipse cx="461" cy="732" fill="#80FFFF" rx="11" ry="11" style="stroke: #A80036; stroke-width: 1.0;"/><path d="M463.9688,737.6406 Q463.3906,737.9375 462.75,738.0781 Q462.1094,738.2344 461.4063,738.2344 Q458.9063,738.2344 457.5781,736.5938 Q456.2656,734.9375 456.2656,731.8125 Q456.2656,728.6875 457.5781,727.0313 Q458.9063,725.375 461.4063,725.375 Q462.1094,725.375 462.75,725.5313 Q463.4063,725.6875 463.9688,725.9844 L463.9688,728.7031 Q463.3438,728.125 462.75,727.8594 Q462.1563,727.5781 461.5313,727.5781 Q460.1875,727.5781 459.5,728.6563 Q458.8125,729.7188 458.8125,731.8125 Q458.8125,733.9063 459.5,734.9844 Q460.1875,736.0469 461.5313,736.0469 Q462.1563,736.0469 462.75,735.7813 Q463.3438,735.5 463.9688,734.9219 L463.9688,737.6406 Z "/><text fill="#000000" font-family="sans-serif" font-size="12" lengthAdjust="spacingAndGlyphs" textLength="80" x="475" y="736.1543">CheckButton</text><!--MD5=[5c742fe68c78eb90cae2964e8d67e944]
class Gnome::Gtk3::MenuButton--><rect fill="#FEFECE" filter="url(#fsyv92j5ksdxw)" height="32" id="Gnome::Gtk3::MenuButton" style="stroke: #A80036; stroke-width: 1.5;" width="108" x="593" y="716"/><ellipse cx="608" cy="732" fill="#80FFFF" rx="11" ry="11" style="stroke: #A80036; stroke-width: 1.0;"/><path d="M610.9688,737.6406 Q610.3906,737.9375 609.75,738.0781 Q609.1094,738.2344 608.4063,738.2344 Q605.9063,738.2344 604.5781,736.5938 Q603.2656,734.9375 603.2656,731.8125 Q603.2656,728.6875 604.5781,727.0313 Q605.9063,725.375 608.4063,725.375 Q609.1094,725.375 609.75,725.5313 Q610.4063,725.6875 610.9688,725.9844 L610.9688,728.7031 Q610.3438,728.125 609.75,727.8594 Q609.1563,727.5781 608.5313,727.5781 Q607.1875,727.5781 606.5,728.6563 Q605.8125,729.7188 605.8125,731.8125 Q605.8125,733.9063 606.5,734.9844 Q607.1875,736.0469 608.5313,736.0469 Q609.1563,736.0469 609.75,735.7813 Q610.3438,735.5 610.9688,734.9219 L610.9688,737.6406 Z "/><text fill="#000000" font-family="sans-serif" font-size="12" lengthAdjust="spacingAndGlyphs" textLength="76" x="622" y="736.1543">MenuButton</text><!--MD5=[de1c90d606af42dd00132e5c6d159299]
class Gnome::Gtk3::RadioButton--><rect fill="#FEFECE" filter="url(#fsyv92j5ksdxw)" height="32" id="Gnome::Gtk3::RadioButton" style="stroke: #A80036; stroke-width: 1.5;" width="109" x="447.5" y="808"/><ellipse cx="462.5" cy="824" fill="#80FFFF" rx="11" ry="11" style="stroke: #A80036; stroke-width: 1.0;"/><path d="M465.4688,829.6406 Q464.8906,829.9375 464.25,830.0781 Q463.6094,830.2344 462.9063,830.2344 Q460.4063,830.2344 459.0781,828.5938 Q457.7656,826.9375 457.7656,823.8125 Q457.7656,820.6875 459.0781,819.0313 Q460.4063,817.375 462.9063,817.375 Q463.6094,817.375 464.25,817.5313 Q464.9063,817.6875 465.4688,817.9844 L465.4688,820.7031 Q464.8438,820.125 464.25,819.8594 Q463.6563,819.5781 463.0313,819.5781 Q461.6875,819.5781 461,820.6563 Q460.3125,821.7188 460.3125,823.8125 Q460.3125,825.9063 461,826.9844 Q461.6875,828.0469 463.0313,828.0469 Q463.6563,828.0469 464.25,827.7813 Q464.8438,827.5 465.4688,826.9219 L465.4688,829.6406 Z "/><text fill="#000000" font-family="sans-serif" font-size="12" lengthAdjust="spacingAndGlyphs" textLength="77" x="476.5" y="828.1543">RadioButton</text><!--MD5=[e2f136bcc2a5420333bce6169265751f]
class Gnome::Gtk3::LinkButton--><rect fill="#FEFECE" filter="url(#fsyv92j5ksdxw)" height="32" id="Gnome::Gtk3::LinkButton" style="stroke: #A80036; stroke-width: 1.5;" width="98" x="595" y="624"/><ellipse cx="610" cy="640" fill="#80FFFF" rx="11" ry="11" style="stroke: #A80036; stroke-width: 1.0;"/><path d="M612.9688,645.6406 Q612.3906,645.9375 611.75,646.0781 Q611.1094,646.2344 610.4063,646.2344 Q607.9063,646.2344 606.5781,644.5938 Q605.2656,642.9375 605.2656,639.8125 Q605.2656,636.6875 606.5781,635.0313 Q607.9063,633.375 610.4063,633.375 Q611.1094,633.375 611.75,633.5313 Q612.4063,633.6875 612.9688,633.9844 L612.9688,636.7031 Q612.3438,636.125 611.75,635.8594 Q611.1563,635.5781 610.5313,635.5781 Q609.1875,635.5781 608.5,636.6563 Q607.8125,637.7188 607.8125,639.8125 Q607.8125,641.9063 608.5,642.9844 Q609.1875,644.0469 610.5313,644.0469 Q611.1563,644.0469 611.75,643.7813 Q612.3438,643.5 612.9688,642.9219 L612.9688,645.6406 Z "/><text fill="#000000" font-family="sans-serif" font-size="12" lengthAdjust="spacingAndGlyphs" textLength="66" x="624" y="644.1543">LinkButton</text><!--MD5=[675c636776d16f995f2c836c6478ef97]
class Gnome::Gtk3::LockButton--><rect fill="#FEFECE" filter="url(#fsyv92j5ksdxw)" height="32" id="Gnome::Gtk3::LockButton" style="stroke: #A80036; stroke-width: 1.5;" width="102" x="728" y="624"/><ellipse cx="743" cy="640" fill="#80FFFF" rx="11" ry="11" style="stroke: #A80036; stroke-width: 1.0;"/><path d="M745.9688,645.6406 Q745.3906,645.9375 744.75,646.0781 Q744.1094,646.2344 743.4063,646.2344 Q740.9063,646.2344 739.5781,644.5938 Q738.2656,642.9375 738.2656,639.8125 Q738.2656,636.6875 739.5781,635.0313 Q740.9063,633.375 743.4063,633.375 Q744.1094,633.375 744.75,633.5313 Q745.4063,633.6875 745.9688,633.9844 L745.9688,636.7031 Q745.3438,636.125 744.75,635.8594 Q744.1563,635.5781 743.5313,635.5781 Q742.1875,635.5781 741.5,636.6563 Q740.8125,637.7188 740.8125,639.8125 Q740.8125,641.9063 741.5,642.9844 Q742.1875,644.0469 743.5313,644.0469 Q744.1563,644.0469 744.75,643.7813 Q745.3438,643.5 745.9688,642.9219 L745.9688,645.6406 Z "/><text fill="#000000" font-family="sans-serif" font-size="12" lengthAdjust="spacingAndGlyphs" textLength="70" x="757" y="644.1543">LockButton</text><!--MD5=[3581c954b44b4c12a528bea9fc793b2c]
class Gnome::Gtk3::ModelButton--><rect fill="#FEFECE" filter="url(#fsyv92j5ksdxw)" height="32" id="Gnome::Gtk3::ModelButton" style="stroke: #A80036; stroke-width: 1.5;" width="111" x="865.5" y="624"/><ellipse cx="880.5" cy="640" fill="#80FFFF" rx="11" ry="11" style="stroke: #A80036; stroke-width: 1.0;"/><path d="M883.4688,645.6406 Q882.8906,645.9375 882.25,646.0781 Q881.6094,646.2344 880.9063,646.2344 Q878.4063,646.2344 877.0781,644.5938 Q875.7656,642.9375 875.7656,639.8125 Q875.7656,636.6875 877.0781,635.0313 Q878.4063,633.375 880.9063,633.375 Q881.6094,633.375 882.25,633.5313 Q882.9063,633.6875 883.4688,633.9844 L883.4688,636.7031 Q882.8438,636.125 882.25,635.8594 Q881.6563,635.5781 881.0313,635.5781 Q879.6875,635.5781 879,636.6563 Q878.3125,637.7188 878.3125,639.8125 Q878.3125,641.9063 879,642.9844 Q879.6875,644.0469 881.0313,644.0469 Q881.6563,644.0469 882.25,643.7813 Q882.8438,643.5 883.4688,642.9219 L883.4688,645.6406 Z "/><text fill="#000000" font-family="sans-serif" font-size="12" lengthAdjust="spacingAndGlyphs" textLength="79" x="894.5" y="644.1543">ModelButton</text><!--MD5=[f4e2f7bd30f00e4efd805e93af97de4a]
class Gnome::Gtk3::VolumeButton--><rect fill="#FEFECE" filter="url(#fsyv92j5ksdxw)" height="32" id="Gnome::Gtk3::VolumeButton" style="stroke: #A80036; stroke-width: 1.5;" width="120" x="291" y="716"/><ellipse cx="306" cy="732" fill="#80FFFF" rx="11" ry="11" style="stroke: #A80036; stroke-width: 1.0;"/><path d="M308.9688,737.6406 Q308.3906,737.9375 307.75,738.0781 Q307.1094,738.2344 306.4063,738.2344 Q303.9063,738.2344 302.5781,736.5938 Q301.2656,734.9375 301.2656,731.8125 Q301.2656,728.6875 302.5781,727.0313 Q303.9063,725.375 306.4063,725.375 Q307.1094,725.375 307.75,725.5313 Q308.4063,725.6875 308.9688,725.9844 L308.9688,728.7031 Q308.3438,728.125 307.75,727.8594 Q307.1563,727.5781 306.5313,727.5781 Q305.1875,727.5781 304.5,728.6563 Q303.8125,729.7188 303.8125,731.8125 Q303.8125,733.9063 304.5,734.9844 Q305.1875,736.0469 306.5313,736.0469 Q307.1563,736.0469 307.75,735.7813 Q308.3438,735.5 308.9688,734.9219 L308.9688,737.6406 Z "/><text fill="#000000" font-family="sans-serif" font-size="12" lengthAdjust="spacingAndGlyphs" textLength="88" x="320" y="736.1543">VolumeButton</text><!--MD5=[e23b679cf607d12ac81e9c5301595709]
reverse link Gnome::N::TopLevelClassSupport to Gnome::GObject::Object--><path codeLine="34" d="M636,94.1 C636,112.76 636,134.73 636,148.98 " fill="none" id="Gnome::N::TopLevelClassSupport-backto-Gnome::GObject::Object" style="stroke: #A80036; stroke-width: 1.0;"/><polygon fill="none" points="629,94.04,636,74.04,643,94.04,629,94.04" style="stroke: #A80036; stroke-width: 1.0;"/><!--MD5=[2e57c6084092ea441ae4a3f826779dd8]
reverse link Gnome::GObject::Object to Gnome::GObject::InitialyUnowned--><path codeLine="35" d="M624.84,200.63 C620.34,214.59 615.39,229.96 611.85,240.96 " fill="none" id="Gnome::GObject::Object-backto-Gnome::GObject::InitialyUnowned" style="stroke: #A80036; stroke-width: 1.0;"/><polygon fill="none" points="618.28,198.16,631.08,181.27,631.61,202.45,618.28,198.16" style="stroke: #A80036; stroke-width: 1.0;"/><!--MD5=[f8ffcf4587ba956cb48626a4231e4d21]
reverse link Gnome::GObject::Signal to Gnome::GObject::Object--><path codeLine="37" d="M584.77,165 C589.85,165 594.92,165 600,165 " fill="none" id="Gnome::GObject::Signal-backto-Gnome::GObject::Object" style="stroke: #A80036; stroke-width: 1.0; stroke-dasharray: 7.0,7.0;"/><polygon fill="none" points="584.56,172,564.56,165,584.56,158,584.56,172" style="stroke: #A80036; stroke-width: 1.0;"/><!--MD5=[aa49dbc803ccf1c2ef8546b297b1dcfd]
reverse link Gnome::GObject::InitialyUnowned to Gnome::Gtk3::Widget--><path codeLine="39" d="M607,293.1 C607,311.76 607,333.73 607,347.98 " fill="none" id="Gnome::GObject::InitialyUnowned-backto-Gnome::Gtk3::Widget" style="stroke: #A80036; stroke-width: 1.0;"/><polygon fill="none" points="600,293.04,607,273.04,614,293.04,600,293.04" style="stroke: #A80036; stroke-width: 1.0;"/><!--MD5=[940ddf52f8156166e52a90b7ba66cda5]
reverse link Gnome::Gtk3::Widget to Gnome::Gtk3::Container--><path codeLine="41" d="M664.68,364 C669.55,364 674.42,364 679.29,364 " fill="none" id="Gnome::Gtk3::Widget-backto-Gnome::Gtk3::Container" style="stroke: #A80036; stroke-width: 1.0;"/><polygon fill="none" points="664.65,371,644.65,364,664.65,357,664.65,371" style="stroke: #A80036; stroke-width: 1.0;"/><!--MD5=[23a2b14019610824d048d16339c059f6]
reverse link Gnome::Gtk3::Container to Gnome::Gtk3::Bin--><path codeLine="42" d="M792.93,364 C797.66,364 802.4,364 807.14,364 " fill="none" id="Gnome::Gtk3::Container-backto-Gnome::Gtk3::Bin" style="stroke: #A80036; stroke-width: 1.0;"/><polygon fill="none" points="792.81,371,772.81,364,792.81,357,792.81,371" style="stroke: #A80036; stroke-width: 1.0;"/><!--MD5=[57346a5a2f8a6d47c457a3ec18cb2dff]
reverse link Gnome::Gtk3::Bin to Gnome::Gtk3::Button--><path codeLine="43" d="M834.83,400.31 C834.2,422.99 829.81,451.85 814,472 C781.23,513.74 720.38,532.81 681.07,541.1 " fill="none" id="Gnome::Gtk3::Bin-backto-Gnome::Gtk3::Button" style="stroke: #A80036; stroke-width: 1.0;"/><polygon fill="none" points="827.83,400.37,834.49,380.25,841.83,400.13,827.83,400.37" style="stroke: #A80036; stroke-width: 1.0;"/><!--MD5=[1335099fcd58edb25b444005b6858935]
reverse link Gnome::Gtk3::Buildable to Gnome::Gtk3::Widget--><path codeLine="47" d="M554.28,364 C559.33,364 564.39,364 569.44,364 " fill="none" id="Gnome::Gtk3::Buildable-backto-Gnome::Gtk3::Widget" style="stroke: #A80036; stroke-width: 1.0; stroke-dasharray: 7.0,7.0;"/><polygon fill="none" points="554.16,371,534.16,364,554.16,357,554.16,371" style="stroke: #A80036; stroke-width: 1.0;"/><!--MD5=[8bdd4f881f468460e9697efdeeac0b00]
reverse link Gnome::Gtk3::Actionable to Gnome::Gtk3::Button--><path codeLine="49" d="M691.69,488.21 C679.67,503.03 665.86,520.06 656.2,531.96 " fill="none" id="Gnome::Gtk3::Actionable-backto-Gnome::Gtk3::Button" style="stroke: #A80036; stroke-width: 1.0; stroke-dasharray: 7.0,7.0;"/><polygon fill="none" points="686.58,483.39,704.62,472.27,697.45,492.21,686.58,483.39" style="stroke: #A80036; stroke-width: 1.0;"/><!--MD5=[b3e7eca2d31578a4c7ea7c19ff318e81]
reverse link Gnome::Gtk3::Orientable to Gnome::Gtk3::ScaleButton--><path codeLine="51" d="M495.38,486.92 C459.04,526.29 396.55,593.99 368.88,623.97 " fill="none" id="Gnome::Gtk3::Orientable-backto-Gnome::Gtk3::ScaleButton" style="stroke: #A80036; stroke-width: 1.0; stroke-dasharray: 7.0,7.0;"/><polygon fill="none" points="490.26,482.15,508.97,472.2,500.54,491.65,490.26,482.15" style="stroke: #A80036; stroke-width: 1.0;"/><!--MD5=[43bbe5d8aa9b07ab53129b358f4b52b5]
reverse link Gnome::Gtk3::ColorChooser to Gnome::Gtk3::ColorButton--><path codeLine="53" d="M300.84,489.59 C277.5,529.29 239.07,594.66 221.84,623.97 " fill="none" id="Gnome::Gtk3::ColorChooser-backto-Gnome::Gtk3::ColorButton" style="stroke: #A80036; stroke-width: 1.0; stroke-dasharray: 7.0,7.0;"/><polygon fill="none" points="294.89,485.9,311.06,472.2,306.96,492.99,294.89,485.9" style="stroke: #A80036; stroke-width: 1.0;"/><!--MD5=[8f219e82e54ec5461f5dd63389ecddcc]
reverse link Gnome::Gtk3::FontChooser to Gnome::Gtk3::FontButton--><path codeLine="55" d="M103.06,492.07 C95.17,531.95 82.65,595.26 76.97,623.97 " fill="none" id="Gnome::Gtk3::FontChooser-backto-Gnome::Gtk3::FontButton" style="stroke: #A80036; stroke-width: 1.0; stroke-dasharray: 7.0,7.0;"/><polygon fill="none" points="96.24,490.47,106.99,472.2,109.98,493.18,96.24,490.47" style="stroke: #A80036; stroke-width: 1.0;"/><!--MD5=[ff93a10ef2c20b131d4ccefed1197e64]
reverse link Gnome::Gtk3::Button to Gnome::Gtk3::ToggleButton--><path codeLine="61" d="M603.31,574.79 C578.24,590.68 546.96,610.5 525.85,623.89 " fill="none" id="Gnome::Gtk3::Button-backto-Gnome::Gtk3::ToggleButton" style="stroke: #A80036; stroke-width: 1.0;"/><polygon fill="none" points="599.59,568.86,620.23,564.06,607.09,580.68,599.59,568.86" style="stroke: #A80036; stroke-width: 1.0;"/><!--MD5=[644a9819c5ea0dfce16c344105eb1f0e]
reverse link Gnome::Gtk3::Button to Gnome::Gtk3::ColorButton--><path codeLine="62" d="M587.15,560.79 C516.19,575.52 391.11,601.53 284,624 C278.2,625.22 272.14,626.49 266.11,627.76 " fill="none" id="Gnome::Gtk3::Button-backto-Gnome::Gtk3::ColorButton" style="stroke: #A80036; stroke-width: 1.0;"/><polygon fill="none" points="585.93,553.9,606.94,556.69,588.78,567.6,585.93,553.9" style="stroke: #A80036; stroke-width: 1.0;"/><!--MD5=[57fcd58441f95cd447ba07a21a611f12]
reverse link Gnome::Gtk3::ToggleButton to Gnome::Gtk3::CheckButton--><path codeLine="63" d="M502,676.61 C502,690.31 502,705.22 502,715.96 " fill="none" id="Gnome::Gtk3::ToggleButton-backto-Gnome::Gtk3::CheckButton" style="stroke: #A80036; stroke-width: 1.0;"/><polygon fill="none" points="495,676.27,502,656.27,509,676.27,495,676.27" style="stroke: #A80036; stroke-width: 1.0;"/><!--MD5=[b24bbea7934aa8a25dceeeb413191a63]
reverse link Gnome::Gtk3::ToggleButton to Gnome::Gtk3::MenuButton--><path codeLine="64" d="M543.55,666.79 C569.15,682.68 601.09,702.5 622.65,715.89 " fill="none" id="Gnome::Gtk3::ToggleButton-backto-Gnome::Gtk3::MenuButton" style="stroke: #A80036; stroke-width: 1.0;"/><polygon fill="none" points="539.57,672.56,526.27,656.06,546.95,660.66,539.57,672.56" style="stroke: #A80036; stroke-width: 1.0;"/><!--MD5=[b50614f02782d20db92c7ff280b8fd7c]
reverse link Gnome::Gtk3::CheckButton to Gnome::Gtk3::RadioButton--><path codeLine="65" d="M502,768.61 C502,782.31 502,797.22 502,807.96 " fill="none" id="Gnome::Gtk3::CheckButton-backto-Gnome::Gtk3::RadioButton" style="stroke: #A80036; stroke-width: 1.0;"/><polygon fill="none" points="495,768.27,502,748.27,509,768.27,495,768.27" style="stroke: #A80036; stroke-width: 1.0;"/><!--MD5=[b663d094bbd1ac399f49019dff4a5d8d]
reverse link Gnome::Gtk3::Button to Gnome::Gtk3::FontButton--><path codeLine="66" d="M586.7,556.26 C493.25,568.38 302.38,594.37 142,624 C136.53,625.01 130.83,626.14 125.16,627.32 " fill="none" id="Gnome::Gtk3::Button-backto-Gnome::Gtk3::FontButton" style="stroke: #A80036; stroke-width: 1.0;"/><polygon fill="none" points="585.97,549.29,606.7,553.68,587.76,563.18,585.97,549.29" style="stroke: #A80036; stroke-width: 1.0;"/><!--MD5=[d0ea80e45ae6a26abfe7ee734ae7e44a]
reverse link Gnome::Gtk3::Button to Gnome::Gtk3::LinkButton--><path codeLine="67" d="M644,584.61 C644,598.31 644,613.22 644,623.96 " fill="none" id="Gnome::Gtk3::Button-backto-Gnome::Gtk3::LinkButton" style="stroke: #A80036; stroke-width: 1.0;"/><polygon fill="none" points="637,584.27,644,564.27,651,584.27,637,584.27" style="stroke: #A80036; stroke-width: 1.0;"/><!--MD5=[8564d9f33bb25f19f52cbb2302cf22fd]
reverse link Gnome::Gtk3::Button to Gnome::Gtk3::LockButton--><path codeLine="68" d="M683.38,575.25 C707.1,591.06 736.45,610.63 756.33,623.89 " fill="none" id="Gnome::Gtk3::Button-backto-Gnome::Gtk3::LockButton" style="stroke: #A80036; stroke-width: 1.0;"/><polygon fill="none" points="679.35,580.98,666.6,564.06,687.12,569.33,679.35,580.98" style="stroke: #A80036; stroke-width: 1.0;"/><!--MD5=[b88d80e147d9ef33b01cc4d2b2efaf74]
reverse link Gnome::Gtk3::Button to Gnome::Gtk3::ModelButton--><path codeLine="69" d="M700.13,567.24 C751.43,583.9 826.4,608.26 874.45,623.88 " fill="none" id="Gnome::Gtk3::Button-backto-Gnome::Gtk3::ModelButton" style="stroke: #A80036; stroke-width: 1.0;"/><polygon fill="none" points="697.93,573.88,681.07,561.04,702.25,560.57,697.93,573.88" style="stroke: #A80036; stroke-width: 1.0;"/><!--MD5=[ce7bb40c383c75a8ae657e5586451250]
reverse link Gnome::Gtk3::Button to Gnome::Gtk3::ScaleButton--><path codeLine="70" d="M587.65,566.55 C534.02,583.25 454.17,608.12 403.36,623.94 " fill="none" id="Gnome::Gtk3::Button-backto-Gnome::Gtk3::ScaleButton" style="stroke: #A80036; stroke-width: 1.0;"/><polygon fill="none" points="585.63,559.85,606.81,560.58,589.8,573.21,585.63,559.85" style="stroke: #A80036; stroke-width: 1.0;"/><!--MD5=[58a051e7cf4ec597b876b9b08e054b34]
reverse link Gnome::Gtk3::ScaleButton to Gnome::Gtk3::VolumeButton--><path codeLine="71" d="M353.42,676.61 C352.81,690.31 352.15,705.22 351.67,715.96 " fill="none" id="Gnome::Gtk3::ScaleButton-backto-Gnome::Gtk3::VolumeButton" style="stroke: #A80036; stroke-width: 1.0;"/><polygon fill="none" points="346.44,675.94,354.32,656.27,360.43,676.56,346.44,675.94" style="stroke: #A80036; stroke-width: 1.0;"/><!--MD5=[6c2fc87d4e40fcd643710d37aae4abe5]
@startuml
'scale 0.9
skinparam packageStyle rectangle
skinparam stereotypeCBackgroundColor #80ffff
set namespaceSeparator ::
hide members


'Class and interface decorations
class Gnome::N::TopLevelClassSupport < Catch all class >

Interface Gnome::GObject::Signal <Interface>
class Gnome::GObject::Signal <<(R,#80ffff)>>

Interface Gnome::Gtk3::Buildable <Interface>
class Gnome::Gtk3::Buildable <<(R,#80ffff)>>

Interface Gnome::Gtk3::Actionable <Interface>
class Gnome::Gtk3::Actionable <<(R,#80ffff)>>

Interface Gnome::Gtk3::Orientable <Interface>
class Gnome::Gtk3::Orientable <<(R,#80ffff)>>

Interface Gnome::Gtk3::ColorChooser <Interface>
class Gnome::Gtk3::ColorChooser <<(R,#80ffff)>>

Interface Gnome::Gtk3::FontChooser <Interface>
class Gnome::Gtk3::FontChooser <<(R,#80ffff)>>



'Class references

Gnome::N::TopLevelClassSupport <|- - Gnome::GObject::Object
Gnome::GObject::Object <|- - Gnome::GObject::InitialyUnowned
'Gnome::GObject::Object *-> Gnome::GObject::Signal
Gnome::GObject::Signal <|. Gnome::GObject::Object

Gnome::GObject::InitialyUnowned <|- - Gnome::Gtk3::Widget

Gnome::Gtk3::Widget <|- Gnome::Gtk3::Container
Gnome::Gtk3::Container <|- Gnome::Gtk3::Bin
Gnome::Gtk3::Bin <|- - - Gnome::Gtk3::Button



Gnome::Gtk3::Buildable <|. Gnome::Gtk3::Widget

Gnome::Gtk3::Actionable <|.. Gnome::Gtk3::Button

Gnome::Gtk3::Orientable <|... Gnome::Gtk3::ScaleButton

Gnome::Gtk3::ColorChooser <|... Gnome::Gtk3::ColorButton

Gnome::Gtk3::FontChooser <|... Gnome::Gtk3::FontButton

'Gnome::GObject <- -[hidden]- Gnome::Gtk3



Gnome::Gtk3::Button <|- - Gnome::Gtk3::ToggleButton
Gnome::Gtk3::Button <|- - Gnome::Gtk3::ColorButton
Gnome::Gtk3::ToggleButton <|- - Gnome::Gtk3::CheckButton
Gnome::Gtk3::ToggleButton <|- - Gnome::Gtk3::MenuButton
Gnome::Gtk3::CheckButton <|- - Gnome::Gtk3::RadioButton
Gnome::Gtk3::Button <|- - Gnome::Gtk3::FontButton
Gnome::Gtk3::Button <|- - Gnome::Gtk3::LinkButton
Gnome::Gtk3::Button <|- - Gnome::Gtk3::LockButton
Gnome::Gtk3::Button <|- - Gnome::Gtk3::ModelButton
Gnome::Gtk3::Button <|- - Gnome::Gtk3::ScaleButton
Gnome::Gtk3::ScaleButton <|- - Gnome::Gtk3::VolumeButton

@enduml

@startuml
skinparam packageStyle rectangle
skinparam stereotypeCBackgroundColor #80ffff
set namespaceSeparator ::
hide members


class Gnome::N::TopLevelClassSupport < Catch all class >

Interface Gnome::GObject::Signal <Interface>
class Gnome::GObject::Signal <<(R,#80ffff)>>

Interface Gnome::Gtk3::Buildable <Interface>
class Gnome::Gtk3::Buildable <<(R,#80ffff)>>

Interface Gnome::Gtk3::Actionable <Interface>
class Gnome::Gtk3::Actionable <<(R,#80ffff)>>

Interface Gnome::Gtk3::Orientable <Interface>
class Gnome::Gtk3::Orientable <<(R,#80ffff)>>

Interface Gnome::Gtk3::ColorChooser <Interface>
class Gnome::Gtk3::ColorChooser <<(R,#80ffff)>>

Interface Gnome::Gtk3::FontChooser <Interface>
class Gnome::Gtk3::FontChooser <<(R,#80ffff)>>




Gnome::N::TopLevelClassSupport <|- - Gnome::GObject::Object
Gnome::GObject::Object <|- - Gnome::GObject::InitialyUnowned
Gnome::GObject::Signal <|. Gnome::GObject::Object

Gnome::GObject::InitialyUnowned <|- - Gnome::Gtk3::Widget

Gnome::Gtk3::Widget <|- Gnome::Gtk3::Container
Gnome::Gtk3::Container <|- Gnome::Gtk3::Bin
Gnome::Gtk3::Bin <|- - - Gnome::Gtk3::Button



Gnome::Gtk3::Buildable <|. Gnome::Gtk3::Widget

Gnome::Gtk3::Actionable <|.. Gnome::Gtk3::Button

Gnome::Gtk3::Orientable <|... Gnome::Gtk3::ScaleButton

Gnome::Gtk3::ColorChooser <|... Gnome::Gtk3::ColorButton

Gnome::Gtk3::FontChooser <|... Gnome::Gtk3::FontButton




Gnome::Gtk3::Button <|- - Gnome::Gtk3::ToggleButton
Gnome::Gtk3::Button <|- - Gnome::Gtk3::ColorButton
Gnome::Gtk3::ToggleButton <|- - Gnome::Gtk3::CheckButton
Gnome::Gtk3::ToggleButton <|- - Gnome::Gtk3::MenuButton
Gnome::Gtk3::CheckButton <|- - Gnome::Gtk3::RadioButton
Gnome::Gtk3::Button <|- - Gnome::Gtk3::FontButton
Gnome::Gtk3::Button <|- - Gnome::Gtk3::LinkButton
Gnome::Gtk3::Button <|- - Gnome::Gtk3::LockButton
Gnome::Gtk3::Button <|- - Gnome::Gtk3::ModelButton
Gnome::Gtk3::Button <|- - Gnome::Gtk3::ScaleButton
Gnome::Gtk3::ScaleButton <|- - Gnome::Gtk3::VolumeButton

@enduml

PlantUML version 1.2020.19(Mon Oct 12 17:10:01 CEST 2020)
(GPL source distribution)
Java Runtime: OpenJDK Runtime Environment
JVM: OpenJDK 64-Bit Server VM
Default Encoding: UTF-8
Language: en
Country: US
--></g></svg>