<?xml version="1.0" encoding="UTF-8" standalone="no"?><svg xmlns="http://www.w3.org/2000/svg" xmlns:xlink="http://www.w3.org/1999/xlink" contentScriptType="application/ecmascript" contentStyleType="text/css" height="554px" preserveAspectRatio="none" style="width:701px;height:554px;" version="1.1" viewBox="0 0 701 554" width="701px" zoomAndPan="magnify"><defs><filter height="300%" id="fm3wmoeskgio3" width="300%" x="-1" y="-1"><feGaussianBlur result="blurOut" stdDeviation="2.0"/><feColorMatrix in="blurOut" result="blurOut2" type="matrix" values="0 0 0 0 0 0 0 0 0 0 0 0 0 0 0 0 0 0 .4 0"/><feOffset dx="4.0" dy="4.0" in="blurOut2" result="blurOut3"/><feBlend in="SourceGraphic" in2="blurOut3" mode="normal"/></filter></defs><g><!--cluster Gnome::N--><rect fill="#FFFFFF" filter="url(#fm3wmoeskgio3)" height="67" style="stroke: #000000; stroke-width: 1.5;" width="286" x="404" y="16"/><text fill="#000000" font-family="sans-serif" font-size="14" font-weight="bold" lengthAdjust="spacingAndGlyphs" textLength="79" x="507.5" y="30.9951">Gnome::N</text><!--cluster Gnome::GObject--><rect fill="#FFFFFF" filter="url(#fm3wmoeskgio3)" height="251" style="stroke: #000000; stroke-width: 1.5;" width="148" x="354" y="108"/><text fill="#000000" font-family="sans-serif" font-size="14" font-weight="bold" lengthAdjust="spacingAndGlyphs" textLength="131" x="362.5" y="122.9951">Gnome::GObject</text><!--cluster Gnome::Gtk3--><rect fill="#FFFFFF" filter="url(#fm3wmoeskgio3)" height="159" style="stroke: #000000; stroke-width: 1.5;" width="415" x="14" y="384"/><text fill="#000000" font-family="sans-serif" font-size="14" font-weight="bold" lengthAdjust="spacingAndGlyphs" textLength="105" x="169" y="398.9951">Gnome::Gtk3</text><!--class Gnome::N::TopLevelClassSupport--><rect fill="#FEFECE" filter="url(#fm3wmoeskgio3)" height="32" id="Gnome::N::TopLevelClassSupport" style="stroke: #A80036; stroke-width: 1.5;" width="269" x="412.5" y="43"/><ellipse cx="427.5" cy="59" fill="#80FFFF" rx="11" ry="11" style="stroke: #A80036; stroke-width: 1.0;"/><path d="M430.4688,64.6406 Q429.8906,64.9375 429.25,65.0781 Q428.6094,65.2344 427.9063,65.2344 Q425.4063,65.2344 424.0781,63.5938 Q422.7656,61.9375 422.7656,58.8125 Q422.7656,55.6875 424.0781,54.0313 Q425.4063,52.375 427.9063,52.375 Q428.6094,52.375 429.25,52.5313 Q429.9063,52.6875 430.4688,52.9844 L430.4688,55.7031 Q429.8438,55.125 429.25,54.8594 Q428.6563,54.5781 428.0313,54.5781 Q426.6875,54.5781 426,55.6563 Q425.3125,56.7188 425.3125,58.8125 Q425.3125,60.9063 426,61.9844 Q426.6875,63.0469 428.0313,63.0469 Q428.6563,63.0469 429.25,62.7813 Q429.8438,62.5 430.4688,61.9219 L430.4688,64.6406 Z "/><text fill="#000000" font-family="sans-serif" font-size="12" lengthAdjust="spacingAndGlyphs" textLength="137" x="441.5" y="63.1807">TopLevelClassSupport</text><rect fill="#FFFFFF" height="15.9688" style="stroke: #000000; stroke-width: 1.0; stroke-dasharray: 2.0,2.0;" width="98" x="586.5" y="40"/><text fill="#000000" font-family="sans-serif" font-size="12" font-style="italic" lengthAdjust="spacingAndGlyphs" textLength="88" x="591.5" y="52.1387">Catch all class</text><!--class Gnome::GObject::Signal--><rect fill="#FEFECE" filter="url(#fm3wmoeskgio3)" height="32" id="Gnome::GObject::Signal" style="stroke: #A80036; stroke-width: 1.5;" width="131" x="362.5" y="135"/><ellipse cx="377.5" cy="151" fill="#80FFFF" rx="11" ry="11" style="stroke: #A80036; stroke-width: 1.0;"/><path d="M378.7031,151.1406 Q379.0625,151.2188 379.3281,151.5 Q379.6094,151.7656 380,152.5469 L382.2344,157 L379.5469,157 L378.0469,153.875 Q377.9844,153.7344 377.875,153.5 Q377.2188,152.1094 376.3281,152.1094 L375.5469,152.1094 L375.5469,157 L373.1094,157 L373.1094,144.6094 L376.6406,144.6094 Q379.0313,144.6094 380.0625,145.4531 Q381.1094,146.2969 381.1094,148.2031 Q381.1094,149.4844 380.4844,150.25 Q379.875,151 378.7031,151.1406 Z M375.5469,146.6719 L375.5469,150.0469 L376.7031,150.0469 Q377.7188,150.0469 378.1406,149.6563 Q378.5781,149.25 378.5781,148.3438 Q378.5781,147.4531 378.1406,147.0625 Q377.7188,146.6719 376.7031,146.6719 L375.5469,146.6719 Z "/><text fill="#000000" font-family="sans-serif" font-size="12" lengthAdjust="spacingAndGlyphs" textLength="38" x="391.5" y="155.1807">Signal</text><rect fill="#FFFFFF" height="15.9688" style="stroke: #000000; stroke-width: 1.0; stroke-dasharray: 2.0,2.0;" width="59" x="437.5" y="132"/><text fill="#000000" font-family="sans-serif" font-size="12" font-style="italic" lengthAdjust="spacingAndGlyphs" textLength="57" x="438.5" y="144.1387">Interface</text><!--class Gnome::GObject::Object--><rect fill="#FEFECE" filter="url(#fm3wmoeskgio3)" height="32" id="Gnome::GObject::Object" style="stroke: #A80036; stroke-width: 1.5;" width="72" x="392" y="227"/><ellipse cx="407" cy="243" fill="#80FFFF" rx="11" ry="11" style="stroke: #A80036; stroke-width: 1.0;"/><path d="M409.9688,248.6406 Q409.3906,248.9375 408.75,249.0781 Q408.1094,249.2344 407.4063,249.2344 Q404.9063,249.2344 403.5781,247.5938 Q402.2656,245.9375 402.2656,242.8125 Q402.2656,239.6875 403.5781,238.0313 Q404.9063,236.375 407.4063,236.375 Q408.1094,236.375 408.75,236.5313 Q409.4063,236.6875 409.9688,236.9844 L409.9688,239.7031 Q409.3438,239.125 408.75,238.8594 Q408.1563,238.5781 407.5313,238.5781 Q406.1875,238.5781 405.5,239.6563 Q404.8125,240.7188 404.8125,242.8125 Q404.8125,244.9063 405.5,245.9844 Q406.1875,247.0469 407.5313,247.0469 Q408.1563,247.0469 408.75,246.7813 Q409.3438,246.5 409.9688,245.9219 L409.9688,248.6406 Z "/><text fill="#000000" font-family="sans-serif" font-size="12" lengthAdjust="spacingAndGlyphs" textLength="40" x="421" y="247.1807">Object</text><!--class Gnome::GObject::InitialyUnowned--><rect fill="#FEFECE" filter="url(#fm3wmoeskgio3)" height="32" id="Gnome::GObject::InitialyUnowned" style="stroke: #A80036; stroke-width: 1.5;" width="129" x="363.5" y="319"/><ellipse cx="378.5" cy="335" fill="#80FFFF" rx="11" ry="11" style="stroke: #A80036; stroke-width: 1.0;"/><path d="M381.4688,340.6406 Q380.8906,340.9375 380.25,341.0781 Q379.6094,341.2344 378.9063,341.2344 Q376.4063,341.2344 375.0781,339.5938 Q373.7656,337.9375 373.7656,334.8125 Q373.7656,331.6875 375.0781,330.0313 Q376.4063,328.375 378.9063,328.375 Q379.6094,328.375 380.25,328.5313 Q380.9063,328.6875 381.4688,328.9844 L381.4688,331.7031 Q380.8438,331.125 380.25,330.8594 Q379.6563,330.5781 379.0313,330.5781 Q377.6875,330.5781 377,331.6563 Q376.3125,332.7188 376.3125,334.8125 Q376.3125,336.9063 377,337.9844 Q377.6875,339.0469 379.0313,339.0469 Q379.6563,339.0469 380.25,338.7813 Q380.8438,338.5 381.4688,337.9219 L381.4688,340.6406 Z "/><text fill="#000000" font-family="sans-serif" font-size="12" lengthAdjust="spacingAndGlyphs" textLength="97" x="392.5" y="339.1807">InitialyUnowned</text><!--class Gnome::Gtk3::Buildable--><rect fill="#FEFECE" filter="url(#fm3wmoeskgio3)" height="32" id="Gnome::Gtk3::Buildable" style="stroke: #A80036; stroke-width: 1.5;" width="150" x="225" y="411"/><ellipse cx="240" cy="427" fill="#80FFFF" rx="11" ry="11" style="stroke: #A80036; stroke-width: 1.0;"/><path d="M241.2031,427.1406 Q241.5625,427.2188 241.8281,427.5 Q242.1094,427.7656 242.5,428.5469 L244.7344,433 L242.0469,433 L240.5469,429.875 Q240.4844,429.7344 240.375,429.5 Q239.7188,428.1094 238.8281,428.1094 L238.0469,428.1094 L238.0469,433 L235.6094,433 L235.6094,420.6094 L239.1406,420.6094 Q241.5313,420.6094 242.5625,421.4531 Q243.6094,422.2969 243.6094,424.2031 Q243.6094,425.4844 242.9844,426.25 Q242.375,427 241.2031,427.1406 Z M238.0469,422.6719 L238.0469,426.0469 L239.2031,426.0469 Q240.2188,426.0469 240.6406,425.6563 Q241.0781,425.25 241.0781,424.3438 Q241.0781,423.4531 240.6406,423.0625 Q240.2188,422.6719 239.2031,422.6719 L238.0469,422.6719 Z "/><text fill="#000000" font-family="sans-serif" font-size="12" lengthAdjust="spacingAndGlyphs" textLength="57" x="254" y="431.1807">Buildable</text><rect fill="#FFFFFF" height="15.9688" style="stroke: #000000; stroke-width: 1.0; stroke-dasharray: 2.0,2.0;" width="59" x="319" y="408"/><text fill="#000000" font-family="sans-serif" font-size="12" font-style="italic" lengthAdjust="spacingAndGlyphs" textLength="57" x="320" y="420.1387">Interface</text><!--class Gnome::Gtk3::Widget--><rect fill="#FEFECE" filter="url(#fm3wmoeskgio3)" height="32" id="Gnome::Gtk3::Widget" style="stroke: #A80036; stroke-width: 1.5;" width="75" x="345.5" y="503"/><ellipse cx="360.5" cy="519" fill="#80FFFF" rx="11" ry="11" style="stroke: #A80036; stroke-width: 1.0;"/><path d="M363.4688,524.6406 Q362.8906,524.9375 362.25,525.0781 Q361.6094,525.2344 360.9063,525.2344 Q358.4063,525.2344 357.0781,523.5938 Q355.7656,521.9375 355.7656,518.8125 Q355.7656,515.6875 357.0781,514.0313 Q358.4063,512.375 360.9063,512.375 Q361.6094,512.375 362.25,512.5313 Q362.9063,512.6875 363.4688,512.9844 L363.4688,515.7031 Q362.8438,515.125 362.25,514.8594 Q361.6563,514.5781 361.0313,514.5781 Q359.6875,514.5781 359,515.6563 Q358.3125,516.7188 358.3125,518.8125 Q358.3125,520.9063 359,521.9844 Q359.6875,523.0469 361.0313,523.0469 Q361.6563,523.0469 362.25,522.7813 Q362.8438,522.5 363.4688,521.9219 L363.4688,524.6406 Z "/><text fill="#000000" font-family="sans-serif" font-size="12" lengthAdjust="spacingAndGlyphs" textLength="43" x="374.5" y="523.1807">Widget</text><!--class Gnome::Gtk3::Button--><rect fill="#FEFECE" filter="url(#fm3wmoeskgio3)" height="32" id="Gnome::Gtk3::Button" style="stroke: #A80036; stroke-width: 1.5;" width="74" x="22" y="503"/><ellipse cx="37" cy="519" fill="#80FFFF" rx="11" ry="11" style="stroke: #A80036; stroke-width: 1.0;"/><path d="M39.9688,524.6406 Q39.3906,524.9375 38.75,525.0781 Q38.1094,525.2344 37.4063,525.2344 Q34.9063,525.2344 33.5781,523.5938 Q32.2656,521.9375 32.2656,518.8125 Q32.2656,515.6875 33.5781,514.0313 Q34.9063,512.375 37.4063,512.375 Q38.1094,512.375 38.75,512.5313 Q39.4063,512.6875 39.9688,512.9844 L39.9688,515.7031 Q39.3438,515.125 38.75,514.8594 Q38.1563,514.5781 37.5313,514.5781 Q36.1875,514.5781 35.5,515.6563 Q34.8125,516.7188 34.8125,518.8125 Q34.8125,520.9063 35.5,521.9844 Q36.1875,523.0469 37.5313,523.0469 Q38.1563,523.0469 38.75,522.7813 Q39.3438,522.5 39.9688,521.9219 L39.9688,524.6406 Z "/><text fill="#000000" font-family="sans-serif" font-size="12" lengthAdjust="spacingAndGlyphs" textLength="42" x="51" y="523.1807">Button</text><!--class Gnome::Gtk3::Bin--><rect fill="#FEFECE" filter="url(#fm3wmoeskgio3)" height="32" id="Gnome::Gtk3::Bin" style="stroke: #A80036; stroke-width: 1.5;" width="51" x="131.5" y="503"/><ellipse cx="146.5" cy="519" fill="#80FFFF" rx="11" ry="11" style="stroke: #A80036; stroke-width: 1.0;"/><path d="M149.4688,524.6406 Q148.8906,524.9375 148.25,525.0781 Q147.6094,525.2344 146.9063,525.2344 Q144.4063,525.2344 143.0781,523.5938 Q141.7656,521.9375 141.7656,518.8125 Q141.7656,515.6875 143.0781,514.0313 Q144.4063,512.375 146.9063,512.375 Q147.6094,512.375 148.25,512.5313 Q148.9063,512.6875 149.4688,512.9844 L149.4688,515.7031 Q148.8438,515.125 148.25,514.8594 Q147.6563,514.5781 147.0313,514.5781 Q145.6875,514.5781 145,515.6563 Q144.3125,516.7188 144.3125,518.8125 Q144.3125,520.9063 145,521.9844 Q145.6875,523.0469 147.0313,523.0469 Q147.6563,523.0469 148.25,522.7813 Q148.8438,522.5 149.4688,521.9219 L149.4688,524.6406 Z "/><text fill="#000000" font-family="sans-serif" font-size="12" lengthAdjust="spacingAndGlyphs" textLength="19" x="160.5" y="523.1807">Bin</text><!--class Gnome::Gtk3::Container--><rect fill="#FEFECE" filter="url(#fm3wmoeskgio3)" height="32" id="Gnome::Gtk3::Container" style="stroke: #A80036; stroke-width: 1.5;" width="93" x="217.5" y="503"/><ellipse cx="232.5" cy="519" fill="#80FFFF" rx="11" ry="11" style="stroke: #A80036; stroke-width: 1.0;"/><path d="M235.4688,524.6406 Q234.8906,524.9375 234.25,525.0781 Q233.6094,525.2344 232.9063,525.2344 Q230.4063,525.2344 229.0781,523.5938 Q227.7656,521.9375 227.7656,518.8125 Q227.7656,515.6875 229.0781,514.0313 Q230.4063,512.375 232.9063,512.375 Q233.6094,512.375 234.25,512.5313 Q234.9063,512.6875 235.4688,512.9844 L235.4688,515.7031 Q234.8438,515.125 234.25,514.8594 Q233.6563,514.5781 233.0313,514.5781 Q231.6875,514.5781 231,515.6563 Q230.3125,516.7188 230.3125,518.8125 Q230.3125,520.9063 231,521.9844 Q231.6875,523.0469 233.0313,523.0469 Q233.6563,523.0469 234.25,522.7813 Q234.8438,522.5 235.4688,521.9219 L235.4688,524.6406 Z "/><text fill="#000000" font-family="sans-serif" font-size="12" lengthAdjust="spacingAndGlyphs" textLength="61" x="246.5" y="523.1807">Container</text><!--link Gnome::Gtk3::Buildable to Gnome::Gtk3::Widget--><path d="M328.0057,458.0424 C341.5643,473.0713 357.2795,490.4905 368.4297,502.8498 " fill="none" id="Gnome::Gtk3::Buildable-Gnome::Gtk3::Widget" style="stroke: #A80036; stroke-width: 1.0; stroke-dasharray: 7.0,7.0;"/><polygon fill="none" points="322.6572,462.564,314.4575,443.0252,333.0521,453.186,322.6572,462.564" style="stroke: #A80036; stroke-width: 1.0;"/><!--link Gnome::N::TopLevelClassSupport to Gnome::GObject::Object--><path d="M539.9322,94.6906 C534.4316,116.7659 525.2812,144.9903 511,167 C495.2604,191.2573 469.9788,212.8684 451.4487,226.7856 " fill="none" id="Gnome::N::TopLevelClassSupport-Gnome::GObject::Object" style="stroke: #A80036; stroke-width: 1.0;"/><polygon fill="none" points="533.1074,93.1333,544.271,75.1229,546.7754,96.164,533.1074,93.1333" style="stroke: #A80036; stroke-width: 1.0;"/><!--link Gnome::GObject::Object to Gnome::GObject::InitialyUnowned--><path d="M428,279.4048 C428,293.0788 428,307.9368 428,318.8498 " fill="none" id="Gnome::GObject::Object-Gnome::GObject::InitialyUnowned" style="stroke: #A80036; stroke-width: 1.0;"/><polygon fill="none" points="421.0001,279.0252,428,259.0252,435.0001,279.0251,421.0001,279.0252" style="stroke: #A80036; stroke-width: 1.0;"/><!--link Gnome::GObject::Signal to Gnome::GObject::Object--><path d="M428,187.4048 C428,201.0788 428,215.9368 428,226.8498 " fill="none" id="Gnome::GObject::Signal-Gnome::GObject::Object" style="stroke: #A80036; stroke-width: 1.0; stroke-dasharray: 7.0,7.0;"/><polygon fill="none" points="421.0001,187.0252,428,167.0252,435.0001,187.0251,421.0001,187.0252" style="stroke: #A80036; stroke-width: 1.0;"/><!--link Gnome::GObject::InitialyUnowned to Gnome::Gtk3::Widget--><path d="M419.2672,370.7074 C409.5029,410.6327 394.1194,473.534 386.9377,502.8991 " fill="none" id="Gnome::GObject::InitialyUnowned-Gnome::Gtk3::Widget" style="stroke: #A80036; stroke-width: 1.0;"/><polygon fill="none" points="412.5343,368.7714,424.0853,351.0069,426.1335,372.0973,412.5343,368.7714" style="stroke: #A80036; stroke-width: 1.0;"/><!--link Gnome::Gtk3::Button to Gnome::Gtk3::Bin--><path d="M96.1328,519 C101.1729,519 106.2129,519 111.253,519 " fill="none" id="Gnome::Gtk3::Button-Gnome::Gtk3::Bin" style="stroke: #A80036; stroke-width: 1.0;"/><polygon fill="none" points="111.3217,511.9999,131.3217,519,111.3216,525.9999,111.3217,511.9999" style="stroke: #A80036; stroke-width: 1.0;"/><!--link Gnome::Gtk3::Bin to Gnome::Gtk3::Container--><path d="M182.9141,519 C187.6792,519 192.4444,519 197.2095,519 " fill="none" id="Gnome::Gtk3::Bin-Gnome::Gtk3::Container" style="stroke: #A80036; stroke-width: 1.0;"/><polygon fill="none" points="197.439,511.9999,217.4389,519,197.4389,525.9999,197.439,511.9999" style="stroke: #A80036; stroke-width: 1.0;"/><!--link Gnome::Gtk3::Container to Gnome::Gtk3::Widget--><path d="M310.9492,519 C315.6884,519 320.4276,519 325.1668,519 " fill="none" id="Gnome::Gtk3::Container-Gnome::Gtk3::Widget" style="stroke: #A80036; stroke-width: 1.0;"/><polygon fill="none" points="325.286,511.9999,345.2859,519,325.2859,525.9999,325.286,511.9999" style="stroke: #A80036; stroke-width: 1.0;"/><!--
@startuml
skinparam packageStyle rectangle
skinparam stereotypeCBackgroundColor #80ffff
set namespaceSeparator ::
hide members

class Gnome::N::TopLevelClassSupport < Catch all class >

Interface Gnome::GObject::Signal <Interface>
class Gnome::GObject::Signal <<(R,#80ffff)>>

Interface Gnome::Gtk3::Buildable <Interface>
class Gnome::Gtk3::Buildable <<(R,#80ffff)>>

class Gnome::Gtk3::Widget implements Gnome::Gtk3::Buildable

Gnome::N::TopLevelClassSupport <|- - - Gnome::GObject::Object
Gnome::GObject::Object <|- - Gnome::GObject::InitialyUnowned
Gnome::GObject::Signal <|.. Gnome::GObject::Object

Gnome::GObject::InitialyUnowned <|- - - Gnome::Gtk3::Widget

Gnome::Gtk3::Button -|> Gnome::Gtk3::Bin
Gnome::Gtk3::Bin -|> Gnome::Gtk3::Container
Gnome::Gtk3::Container -|> Gnome::Gtk3::Widget










@enduml

PlantUML version 1.2019.01(Sat Feb 09 16:32:04 CET 2019)
(LGPL source distribution)
Java Runtime: OpenJDK Runtime Environment
JVM: OpenJDK 64-Bit Server VM
Java Version: 1.8.0_265-b01
Operating System: Linux
OS Version: 5.8.8-100.fc31.x86_64
Default Encoding: UTF-8
Language: en
Country: null
--></g></svg>