<?xml version="1.0" encoding="UTF-8" standalone="no"?><svg xmlns="http://www.w3.org/2000/svg" xmlns:xlink="http://www.w3.org/1999/xlink" contentScriptType="application/ecmascript" contentStyleType="text/css" height="500px" preserveAspectRatio="none" style="width:576px;height:500px;" version="1.1" viewBox="0 0 576 500" width="576px" zoomAndPan="magnify"><defs><filter height="300%" id="f1koifuzyjq598" width="300%" x="-1" y="-1"><feGaussianBlur result="blurOut" stdDeviation="2.0"/><feColorMatrix in="blurOut" result="blurOut2" type="matrix" values="0 0 0 0 0 0 0 0 0 0 0 0 0 0 0 0 0 0 .4 0"/><feOffset dx="4.0" dy="4.0" in="blurOut2" result="blurOut3"/><feBlend in="SourceGraphic" in2="blurOut3" mode="normal"/></filter></defs><g><!--MD5=[b969295f0ec9b4fa482091c3e26049be]
cluster Gnome::N--><rect fill="#FFFFFF" filter="url(#f1koifuzyjq598)" height="83" style="stroke: #000000; stroke-width: 1.5;" width="302" x="262" y="7"/><text fill="#000000" font-family="sans-serif" font-size="14" font-weight="bold" lengthAdjust="spacingAndGlyphs" textLength="79" x="373.5" y="21.9951">Gnome::N</text><!--MD5=[2fb3f9b624b0544b9841d5da78ec0508]
cluster Gnome::GObject--><rect fill="#FFFFFF" filter="url(#f1koifuzyjq598)" height="175" style="stroke: #000000; stroke-width: 1.5;" width="271" x="194" y="114"/><text fill="#000000" font-family="sans-serif" font-size="14" font-weight="bold" lengthAdjust="spacingAndGlyphs" textLength="131" x="264" y="128.9951">Gnome::GObject</text><!--MD5=[7d67f77911969026863717fbb204e273]
cluster Gnome::Gtk3--><rect fill="#FFFFFF" filter="url(#f1koifuzyjq598)" height="175" style="stroke: #000000; stroke-width: 1.5;" width="431" x="7" y="313"/><text fill="#000000" font-family="sans-serif" font-size="14" font-weight="bold" lengthAdjust="spacingAndGlyphs" textLength="105" x="170" y="327.9951">Gnome::Gtk3</text><!--MD5=[0b8e281ccd00c72019a31d78e9f95b5d]
class Gnome::N::TopLevelClassSupport--><rect codeLine="9" fill="#FEFECE" filter="url(#f1koifuzyjq598)" height="32" id="Gnome::N::TopLevelClassSupport" style="stroke: #A80036; stroke-width: 1.5;" width="269" x="278.5" y="42"/><ellipse cx="293.5" cy="58" fill="#80FFFF" rx="11" ry="11" style="stroke: #A80036; stroke-width: 1.0;"/><path d="M296.4688,63.6406 Q295.8906,63.9375 295.25,64.0781 Q294.6094,64.2344 293.9063,64.2344 Q291.4063,64.2344 290.0781,62.5938 Q288.7656,60.9375 288.7656,57.8125 Q288.7656,54.6875 290.0781,53.0313 Q291.4063,51.375 293.9063,51.375 Q294.6094,51.375 295.25,51.5313 Q295.9063,51.6875 296.4688,51.9844 L296.4688,54.7031 Q295.8438,54.125 295.25,53.8594 Q294.6563,53.5781 294.0313,53.5781 Q292.6875,53.5781 292,54.6563 Q291.3125,55.7188 291.3125,57.8125 Q291.3125,59.9063 292,60.9844 Q292.6875,62.0469 294.0313,62.0469 Q294.6563,62.0469 295.25,61.7813 Q295.8438,61.5 296.4688,60.9219 L296.4688,63.6406 Z "/><text fill="#000000" font-family="sans-serif" font-size="12" lengthAdjust="spacingAndGlyphs" textLength="137" x="307.5" y="62.1807">TopLevelClassSupport</text><rect fill="#FFFFFF" height="15.9688" style="stroke: #000000; stroke-width: 1.0; stroke-dasharray: 2.0,2.0;" width="98" x="452.5" y="39"/><text fill="#000000" font-family="sans-serif" font-size="12" font-style="italic" lengthAdjust="spacingAndGlyphs" textLength="88" x="457.5" y="51.1387">Catch all class</text><!--MD5=[52303d185de782118d4739c052001bf2]
class Gnome::GObject::Signal--><rect codeLine="12" fill="#FEFECE" filter="url(#f1koifuzyjq598)" height="32" id="Gnome::GObject::Signal" style="stroke: #A80036; stroke-width: 1.5;" width="131" x="210.5" y="149"/><ellipse cx="225.5" cy="165" fill="#80FFFF" rx="11" ry="11" style="stroke: #A80036; stroke-width: 1.0;"/><path d="M226.7031,165.1406 Q227.0625,165.2188 227.3281,165.5 Q227.6094,165.7656 228,166.5469 L230.2344,171 L227.5469,171 L226.0469,167.875 Q225.9844,167.7344 225.875,167.5 Q225.2188,166.1094 224.3281,166.1094 L223.5469,166.1094 L223.5469,171 L221.1094,171 L221.1094,158.6094 L224.6406,158.6094 Q227.0313,158.6094 228.0625,159.4531 Q229.1094,160.2969 229.1094,162.2031 Q229.1094,163.4844 228.4844,164.25 Q227.875,165 226.7031,165.1406 Z M223.5469,160.6719 L223.5469,164.0469 L224.7031,164.0469 Q225.7188,164.0469 226.1406,163.6563 Q226.5781,163.25 226.5781,162.3438 Q226.5781,161.4531 226.1406,161.0625 Q225.7188,160.6719 224.7031,160.6719 L223.5469,160.6719 Z "/><text fill="#000000" font-family="sans-serif" font-size="12" lengthAdjust="spacingAndGlyphs" textLength="38" x="239.5" y="169.1807">Signal</text><rect fill="#FFFFFF" height="15.9688" style="stroke: #000000; stroke-width: 1.0; stroke-dasharray: 2.0,2.0;" width="59" x="285.5" y="146"/><text fill="#000000" font-family="sans-serif" font-size="12" font-style="italic" lengthAdjust="spacingAndGlyphs" textLength="57" x="286.5" y="158.1387">Interface</text><!--MD5=[c2016d28441601ceb0a74f47a4537d14]
class Gnome::GObject::Object--><rect fill="#FEFECE" filter="url(#f1koifuzyjq598)" height="32" id="Gnome::GObject::Object" style="stroke: #A80036; stroke-width: 1.5;" width="72" x="377" y="149"/><ellipse cx="392" cy="165" fill="#80FFFF" rx="11" ry="11" style="stroke: #A80036; stroke-width: 1.0;"/><path d="M394.9688,170.6406 Q394.3906,170.9375 393.75,171.0781 Q393.1094,171.2344 392.4063,171.2344 Q389.9063,171.2344 388.5781,169.5938 Q387.2656,167.9375 387.2656,164.8125 Q387.2656,161.6875 388.5781,160.0313 Q389.9063,158.375 392.4063,158.375 Q393.1094,158.375 393.75,158.5313 Q394.4063,158.6875 394.9688,158.9844 L394.9688,161.7031 Q394.3438,161.125 393.75,160.8594 Q393.1563,160.5781 392.5313,160.5781 Q391.1875,160.5781 390.5,161.6563 Q389.8125,162.7188 389.8125,164.8125 Q389.8125,166.9063 390.5,167.9844 Q391.1875,169.0469 392.5313,169.0469 Q393.1563,169.0469 393.75,168.7813 Q394.3438,168.5 394.9688,167.9219 L394.9688,170.6406 Z "/><text fill="#000000" font-family="sans-serif" font-size="12" lengthAdjust="spacingAndGlyphs" textLength="40" x="406" y="169.1807">Object</text><!--MD5=[f47b9a4a06d3f9bed948fa39f8c5540e]
class Gnome::GObject::InitialyUnowned--><rect fill="#FEFECE" filter="url(#f1koifuzyjq598)" height="32" id="Gnome::GObject::InitialyUnowned" style="stroke: #A80036; stroke-width: 1.5;" width="129" x="319.5" y="241"/><ellipse cx="334.5" cy="257" fill="#80FFFF" rx="11" ry="11" style="stroke: #A80036; stroke-width: 1.0;"/><path d="M337.4688,262.6406 Q336.8906,262.9375 336.25,263.0781 Q335.6094,263.2344 334.9063,263.2344 Q332.4063,263.2344 331.0781,261.5938 Q329.7656,259.9375 329.7656,256.8125 Q329.7656,253.6875 331.0781,252.0313 Q332.4063,250.375 334.9063,250.375 Q335.6094,250.375 336.25,250.5313 Q336.9063,250.6875 337.4688,250.9844 L337.4688,253.7031 Q336.8438,253.125 336.25,252.8594 Q335.6563,252.5781 335.0313,252.5781 Q333.6875,252.5781 333,253.6563 Q332.3125,254.7188 332.3125,256.8125 Q332.3125,258.9063 333,259.9844 Q333.6875,261.0469 335.0313,261.0469 Q335.6563,261.0469 336.25,260.7813 Q336.8438,260.5 337.4688,259.9219 L337.4688,262.6406 Z "/><text fill="#000000" font-family="sans-serif" font-size="12" lengthAdjust="spacingAndGlyphs" textLength="97" x="348.5" y="261.1807">InitialyUnowned</text><!--MD5=[fc528952aa489a9a9f8514412a46a5d5]
class Gnome::Gtk3::Buildable--><rect codeLine="15" fill="#FEFECE" filter="url(#f1koifuzyjq598)" height="32" id="Gnome::Gtk3::Buildable" style="stroke: #A80036; stroke-width: 1.5;" width="150" x="272" y="440"/><ellipse cx="287" cy="456" fill="#80FFFF" rx="11" ry="11" style="stroke: #A80036; stroke-width: 1.0;"/><path d="M288.2031,456.1406 Q288.5625,456.2188 288.8281,456.5 Q289.1094,456.7656 289.5,457.5469 L291.7344,462 L289.0469,462 L287.5469,458.875 Q287.4844,458.7344 287.375,458.5 Q286.7188,457.1094 285.8281,457.1094 L285.0469,457.1094 L285.0469,462 L282.6094,462 L282.6094,449.6094 L286.1406,449.6094 Q288.5313,449.6094 289.5625,450.4531 Q290.6094,451.2969 290.6094,453.2031 Q290.6094,454.4844 289.9844,455.25 Q289.375,456 288.2031,456.1406 Z M285.0469,451.6719 L285.0469,455.0469 L286.2031,455.0469 Q287.2188,455.0469 287.6406,454.6563 Q288.0781,454.25 288.0781,453.3438 Q288.0781,452.4531 287.6406,452.0625 Q287.2188,451.6719 286.2031,451.6719 L285.0469,451.6719 Z "/><text fill="#000000" font-family="sans-serif" font-size="12" lengthAdjust="spacingAndGlyphs" textLength="57" x="301" y="460.1807">Buildable</text><rect fill="#FFFFFF" height="15.9688" style="stroke: #000000; stroke-width: 1.0; stroke-dasharray: 2.0,2.0;" width="59" x="366" y="437"/><text fill="#000000" font-family="sans-serif" font-size="12" font-style="italic" lengthAdjust="spacingAndGlyphs" textLength="57" x="367" y="449.1387">Interface</text><!--MD5=[f76e7f9c868e6478fc523c72aca903a7]
class Gnome::Gtk3::Actionable--><rect codeLine="18" fill="#FEFECE" filter="url(#f1koifuzyjq598)" height="32" id="Gnome::Gtk3::Actionable" style="stroke: #A80036; stroke-width: 1.5;" width="159" x="23.5" y="440"/><ellipse cx="38.5" cy="456" fill="#80FFFF" rx="11" ry="11" style="stroke: #A80036; stroke-width: 1.0;"/><path d="M39.7031,456.1406 Q40.0625,456.2188 40.3281,456.5 Q40.6094,456.7656 41,457.5469 L43.2344,462 L40.5469,462 L39.0469,458.875 Q38.9844,458.7344 38.875,458.5 Q38.2188,457.1094 37.3281,457.1094 L36.5469,457.1094 L36.5469,462 L34.1094,462 L34.1094,449.6094 L37.6406,449.6094 Q40.0313,449.6094 41.0625,450.4531 Q42.1094,451.2969 42.1094,453.2031 Q42.1094,454.4844 41.4844,455.25 Q40.875,456 39.7031,456.1406 Z M36.5469,451.6719 L36.5469,455.0469 L37.7031,455.0469 Q38.7188,455.0469 39.1406,454.6563 Q39.5781,454.25 39.5781,453.3438 Q39.5781,452.4531 39.1406,452.0625 Q38.7188,451.6719 37.7031,451.6719 L36.5469,451.6719 Z "/><text fill="#000000" font-family="sans-serif" font-size="12" lengthAdjust="spacingAndGlyphs" textLength="66" x="52.5" y="460.1807">Actionable</text><rect fill="#FFFFFF" height="15.9688" style="stroke: #000000; stroke-width: 1.0; stroke-dasharray: 2.0,2.0;" width="59" x="126.5" y="437"/><text fill="#000000" font-family="sans-serif" font-size="12" font-style="italic" lengthAdjust="spacingAndGlyphs" textLength="57" x="127.5" y="449.1387">Interface</text><!--MD5=[99c1fd59bdfde6048aec9e6766dd53ef]
class Gnome::Gtk3::Widget--><rect fill="#FEFECE" filter="url(#f1koifuzyjq598)" height="32" id="Gnome::Gtk3::Widget" style="stroke: #A80036; stroke-width: 1.5;" width="75" x="346.5" y="348"/><ellipse cx="361.5" cy="364" fill="#80FFFF" rx="11" ry="11" style="stroke: #A80036; stroke-width: 1.0;"/><path d="M364.4688,369.6406 Q363.8906,369.9375 363.25,370.0781 Q362.6094,370.2344 361.9063,370.2344 Q359.4063,370.2344 358.0781,368.5938 Q356.7656,366.9375 356.7656,363.8125 Q356.7656,360.6875 358.0781,359.0313 Q359.4063,357.375 361.9063,357.375 Q362.6094,357.375 363.25,357.5313 Q363.9063,357.6875 364.4688,357.9844 L364.4688,360.7031 Q363.8438,360.125 363.25,359.8594 Q362.6563,359.5781 362.0313,359.5781 Q360.6875,359.5781 360,360.6563 Q359.3125,361.7188 359.3125,363.8125 Q359.3125,365.9063 360,366.9844 Q360.6875,368.0469 362.0313,368.0469 Q362.6563,368.0469 363.25,367.7813 Q363.8438,367.5 364.4688,366.9219 L364.4688,369.6406 Z "/><text fill="#000000" font-family="sans-serif" font-size="12" lengthAdjust="spacingAndGlyphs" textLength="43" x="375.5" y="368.1807">Widget</text><!--MD5=[3e2f051a85f4b2b2d9fbae0180460565]
class Gnome::Gtk3::Button--><rect fill="#FEFECE" filter="url(#f1koifuzyjq598)" height="32" id="Gnome::Gtk3::Button" style="stroke: #A80036; stroke-width: 1.5;" width="74" x="23" y="348"/><ellipse cx="38" cy="364" fill="#80FFFF" rx="11" ry="11" style="stroke: #A80036; stroke-width: 1.0;"/><path d="M40.9688,369.6406 Q40.3906,369.9375 39.75,370.0781 Q39.1094,370.2344 38.4063,370.2344 Q35.9063,370.2344 34.5781,368.5938 Q33.2656,366.9375 33.2656,363.8125 Q33.2656,360.6875 34.5781,359.0313 Q35.9063,357.375 38.4063,357.375 Q39.1094,357.375 39.75,357.5313 Q40.4063,357.6875 40.9688,357.9844 L40.9688,360.7031 Q40.3438,360.125 39.75,359.8594 Q39.1563,359.5781 38.5313,359.5781 Q37.1875,359.5781 36.5,360.6563 Q35.8125,361.7188 35.8125,363.8125 Q35.8125,365.9063 36.5,366.9844 Q37.1875,368.0469 38.5313,368.0469 Q39.1563,368.0469 39.75,367.7813 Q40.3438,367.5 40.9688,366.9219 L40.9688,369.6406 Z "/><text fill="#000000" font-family="sans-serif" font-size="12" lengthAdjust="spacingAndGlyphs" textLength="42" x="52" y="368.1807">Button</text><!--MD5=[6ac0a199e9a9e53d446254a1d59f3468]
class Gnome::Gtk3::Bin--><rect fill="#FEFECE" filter="url(#f1koifuzyjq598)" height="32" id="Gnome::Gtk3::Bin" style="stroke: #A80036; stroke-width: 1.5;" width="51" x="132.5" y="348"/><ellipse cx="147.5" cy="364" fill="#80FFFF" rx="11" ry="11" style="stroke: #A80036; stroke-width: 1.0;"/><path d="M150.4688,369.6406 Q149.8906,369.9375 149.25,370.0781 Q148.6094,370.2344 147.9063,370.2344 Q145.4063,370.2344 144.0781,368.5938 Q142.7656,366.9375 142.7656,363.8125 Q142.7656,360.6875 144.0781,359.0313 Q145.4063,357.375 147.9063,357.375 Q148.6094,357.375 149.25,357.5313 Q149.9063,357.6875 150.4688,357.9844 L150.4688,360.7031 Q149.8438,360.125 149.25,359.8594 Q148.6563,359.5781 148.0313,359.5781 Q146.6875,359.5781 146,360.6563 Q145.3125,361.7188 145.3125,363.8125 Q145.3125,365.9063 146,366.9844 Q146.6875,368.0469 148.0313,368.0469 Q148.6563,368.0469 149.25,367.7813 Q149.8438,367.5 150.4688,366.9219 L150.4688,369.6406 Z "/><text fill="#000000" font-family="sans-serif" font-size="12" lengthAdjust="spacingAndGlyphs" textLength="19" x="161.5" y="368.1807">Bin</text><!--MD5=[9e3cc955f682d05594420e46d2e4e3ea]
class Gnome::Gtk3::Container--><rect fill="#FEFECE" filter="url(#f1koifuzyjq598)" height="32" id="Gnome::Gtk3::Container" style="stroke: #A80036; stroke-width: 1.5;" width="93" x="218.5" y="348"/><ellipse cx="233.5" cy="364" fill="#80FFFF" rx="11" ry="11" style="stroke: #A80036; stroke-width: 1.0;"/><path d="M236.4688,369.6406 Q235.8906,369.9375 235.25,370.0781 Q234.6094,370.2344 233.9063,370.2344 Q231.4063,370.2344 230.0781,368.5938 Q228.7656,366.9375 228.7656,363.8125 Q228.7656,360.6875 230.0781,359.0313 Q231.4063,357.375 233.9063,357.375 Q234.6094,357.375 235.25,357.5313 Q235.9063,357.6875 236.4688,357.9844 L236.4688,360.7031 Q235.8438,360.125 235.25,359.8594 Q234.6563,359.5781 234.0313,359.5781 Q232.6875,359.5781 232,360.6563 Q231.3125,361.7188 231.3125,363.8125 Q231.3125,365.9063 232,366.9844 Q232.6875,368.0469 234.0313,368.0469 Q234.6563,368.0469 235.25,367.7813 Q235.8438,367.5 236.4688,366.9219 L236.4688,369.6406 Z "/><text fill="#000000" font-family="sans-serif" font-size="12" lengthAdjust="spacingAndGlyphs" textLength="61" x="247.5" y="368.1807">Container</text><!--MD5=[e23b679cf607d12ac81e9c5301595709]
reverse link Gnome::N::TopLevelClassSupport to Gnome::GObject::Object--><path codeLine="22" d="M413,94.1 C413,112.76 413,134.73 413,148.98 " fill="none" id="Gnome::N::TopLevelClassSupport-backto-Gnome::GObject::Object" style="stroke: #A80036; stroke-width: 1.0;"/><polygon fill="none" points="406,94.04,413,74.04,420,94.04,406,94.04" style="stroke: #A80036; stroke-width: 1.0;"/><!--MD5=[2e57c6084092ea441ae4a3f826779dd8]
reverse link Gnome::GObject::Object to Gnome::GObject::InitialyUnowned--><path codeLine="23" d="M401.84,200.63 C397.34,214.59 392.39,229.96 388.85,240.96 " fill="none" id="Gnome::GObject::Object-backto-Gnome::GObject::InitialyUnowned" style="stroke: #A80036; stroke-width: 1.0;"/><polygon fill="none" points="395.28,198.16,408.08,181.27,408.61,202.45,395.28,198.16" style="stroke: #A80036; stroke-width: 1.0;"/><!--MD5=[f8ffcf4587ba956cb48626a4231e4d21]
reverse link Gnome::GObject::Signal to Gnome::GObject::Object--><path codeLine="24" d="M361.77,165 C366.85,165 371.92,165 377,165 " fill="none" id="Gnome::GObject::Signal-backto-Gnome::GObject::Object" style="stroke: #A80036; stroke-width: 1.0; stroke-dasharray: 7.0,7.0;"/><polygon fill="none" points="361.56,172,341.56,165,361.56,158,361.56,172" style="stroke: #A80036; stroke-width: 1.0;"/><!--MD5=[aa49dbc803ccf1c2ef8546b297b1dcfd]
reverse link Gnome::GObject::InitialyUnowned to Gnome::Gtk3::Widget--><path codeLine="26" d="M384,293.1 C384,311.76 384,333.73 384,347.98 " fill="none" id="Gnome::GObject::InitialyUnowned-backto-Gnome::Gtk3::Widget" style="stroke: #A80036; stroke-width: 1.0;"/><polygon fill="none" points="377,293.04,384,273.04,391,293.04,377,293.04" style="stroke: #A80036; stroke-width: 1.0;"/><!--MD5=[e1568b3b4ceade3a3349f45f19b4c32a]
link Gnome::Gtk3::Widget to Gnome::Gtk3::Buildable--><path codeLine="27" d="M377.72,380.27 C373.12,391.45 366.7,407.08 360.92,421.15 " fill="none" id="Gnome::Gtk3::Widget-to-Gnome::Gtk3::Buildable" style="stroke: #A80036; stroke-width: 1.0; stroke-dasharray: 7.0,7.0;"/><polygon fill="none" points="367.26,424.12,353.18,439.96,354.31,418.8,367.26,424.12" style="stroke: #A80036; stroke-width: 1.0;"/><!--MD5=[f64fb4f408a3c61f014875bc62ea5d16]
link Gnome::Gtk3::Button to Gnome::Gtk3::Bin--><path codeLine="29" d="M97.13,364 C102.17,364 107.21,364 112.25,364 " fill="none" id="Gnome::Gtk3::Button-to-Gnome::Gtk3::Bin" style="stroke: #A80036; stroke-width: 1.0;"/><polygon fill="none" points="112.32,357,132.32,364,112.32,371,112.32,357" style="stroke: #A80036; stroke-width: 1.0;"/><!--MD5=[d7b10450ecb8b9b6a7276c3f6fc07b93]
link Gnome::Gtk3::Button to Gnome::Gtk3::Actionable--><path codeLine="30" d="M67.29,380.27 C72.7,391.58 80.28,407.44 87.06,421.64 " fill="none" id="Gnome::Gtk3::Button-to-Gnome::Gtk3::Actionable" style="stroke: #A80036; stroke-width: 1.0; stroke-dasharray: 7.0,7.0;"/><polygon fill="none" points="93.51,418.89,95.81,439.96,80.88,424.93,93.51,418.89" style="stroke: #A80036; stroke-width: 1.0;"/><!--MD5=[aa2b56f221bfaa2860ef37394f2d22b5]
link Gnome::Gtk3::Bin to Gnome::Gtk3::Container--><path codeLine="31" d="M183.91,364 C188.68,364 193.44,364 198.21,364 " fill="none" id="Gnome::Gtk3::Bin-to-Gnome::Gtk3::Container" style="stroke: #A80036; stroke-width: 1.0;"/><polygon fill="none" points="198.44,357,218.44,364,198.44,371,198.44,357" style="stroke: #A80036; stroke-width: 1.0;"/><!--MD5=[aaf476f5d2312b98d0ee61e81272172c]
link Gnome::Gtk3::Container to Gnome::Gtk3::Widget--><path codeLine="32" d="M311.95,364 C316.69,364 321.43,364 326.17,364 " fill="none" id="Gnome::Gtk3::Container-to-Gnome::Gtk3::Widget" style="stroke: #A80036; stroke-width: 1.0;"/><polygon fill="none" points="326.29,357,346.29,364,326.29,371,326.29,357" style="stroke: #A80036; stroke-width: 1.0;"/><!--MD5=[cc319a9371dd83b69bdab783d2e46421]
@startuml
'scale 0.9
skinparam packageStyle rectangle
skinparam stereotypeCBackgroundColor #80ffff
set namespaceSeparator ::
hide members

'Class and interface decorations
class Gnome::N::TopLevelClassSupport < Catch all class >

Interface Gnome::GObject::Signal <Interface>
class Gnome::GObject::Signal <<(R,#80ffff)>>

Interface Gnome::Gtk3::Buildable <Interface>
class Gnome::Gtk3::Buildable <<(R,#80ffff)>>

Interface Gnome::Gtk3::Actionable <Interface>
class Gnome::Gtk3::Actionable <<(R,#80ffff)>>


'class connections
Gnome::N::TopLevelClassSupport <|- - Gnome::GObject::Object
Gnome::GObject::Object <|- - Gnome::GObject::InitialyUnowned
Gnome::GObject::Signal <|. Gnome::GObject::Object

Gnome::GObject::InitialyUnowned <|- - Gnome::Gtk3::Widget
Gnome::Gtk3::Widget ..|> Gnome::Gtk3::Buildable

Gnome::Gtk3::Button -|> Gnome::Gtk3::Bin
Gnome::Gtk3::Button ..|> Gnome::Gtk3::Actionable
Gnome::Gtk3::Bin -|> Gnome::Gtk3::Container
Gnome::Gtk3::Container -|> Gnome::Gtk3::Widget

@enduml

@startuml
skinparam packageStyle rectangle
skinparam stereotypeCBackgroundColor #80ffff
set namespaceSeparator ::
hide members

class Gnome::N::TopLevelClassSupport < Catch all class >

Interface Gnome::GObject::Signal <Interface>
class Gnome::GObject::Signal <<(R,#80ffff)>>

Interface Gnome::Gtk3::Buildable <Interface>
class Gnome::Gtk3::Buildable <<(R,#80ffff)>>

Interface Gnome::Gtk3::Actionable <Interface>
class Gnome::Gtk3::Actionable <<(R,#80ffff)>>


Gnome::N::TopLevelClassSupport <|- - Gnome::GObject::Object
Gnome::GObject::Object <|- - Gnome::GObject::InitialyUnowned
Gnome::GObject::Signal <|. Gnome::GObject::Object

Gnome::GObject::InitialyUnowned <|- - Gnome::Gtk3::Widget
Gnome::Gtk3::Widget ..|> Gnome::Gtk3::Buildable

Gnome::Gtk3::Button -|> Gnome::Gtk3::Bin
Gnome::Gtk3::Button ..|> Gnome::Gtk3::Actionable
Gnome::Gtk3::Bin -|> Gnome::Gtk3::Container
Gnome::Gtk3::Container -|> Gnome::Gtk3::Widget

@enduml

PlantUML version 1.2020.19(Mon Oct 12 17:10:01 CEST 2020)
(GPL source distribution)
Java Runtime: OpenJDK Runtime Environment
JVM: OpenJDK 64-Bit Server VM
Default Encoding: UTF-8
Language: en
Country: null
--></g></svg>