<?xml version="1.0" encoding="UTF-8" standalone="no"?><svg xmlns="http://www.w3.org/2000/svg" xmlns:xlink="http://www.w3.org/1999/xlink" contentScriptType="application/ecmascript" contentStyleType="text/css" height="462px" preserveAspectRatio="none" style="width:559px;height:462px;" version="1.1" viewBox="0 0 559 462" width="559px" zoomAndPan="magnify"><defs><filter height="300%" id="f9c7jvjplwiak" width="300%" x="-1" y="-1"><feGaussianBlur result="blurOut" stdDeviation="2.0"/><feColorMatrix in="blurOut" result="blurOut2" type="matrix" values="0 0 0 0 0 0 0 0 0 0 0 0 0 0 0 0 0 0 .4 0"/><feOffset dx="4.0" dy="4.0" in="blurOut2" result="blurOut3"/><feBlend in="SourceGraphic" in2="blurOut3" mode="normal"/></filter></defs><g><!--cluster Gnome::Gtk3--><rect fill="#FFFFFF" filter="url(#f9c7jvjplwiak)" height="159" style="stroke: #000000; stroke-width: 1.5;" width="415" x="14" y="292"/><text fill="#000000" font-family="sans-serif" font-size="14" font-weight="bold" lengthAdjust="spacingAndGlyphs" textLength="105" x="169" y="306.9951">Gnome::Gtk3</text><!--cluster Gnome::N--><rect fill="#FFFFFF" filter="url(#f9c7jvjplwiak)" height="67" style="stroke: #000000; stroke-width: 1.5;" width="286" x="256" y="16"/><text fill="#000000" font-family="sans-serif" font-size="14" font-weight="bold" lengthAdjust="spacingAndGlyphs" textLength="79" x="359.5" y="30.9951">Gnome::N</text><!--cluster Gnome::GObject--><rect fill="#FFFFFF" filter="url(#f9c7jvjplwiak)" height="159" style="stroke: #000000; stroke-width: 1.5;" width="193" x="355" y="108"/><text fill="#000000" font-family="sans-serif" font-size="14" font-weight="bold" lengthAdjust="spacingAndGlyphs" textLength="131" x="386" y="122.9951">Gnome::GObject</text><!--class Gnome::Gtk3::Buildable--><rect fill="#FEFECE" filter="url(#f9c7jvjplwiak)" height="32" id="Gnome::Gtk3::Buildable" style="stroke: #A80036; stroke-width: 1.5;" width="89" x="285.5" y="319"/><ellipse cx="300.5" cy="335" fill="#80FFFF" rx="11" ry="11" style="stroke: #A80036; stroke-width: 1.0;"/><path d="M301.7031,335.1406 Q302.0625,335.2188 302.3281,335.5 Q302.6094,335.7656 303,336.5469 L305.2344,341 L302.5469,341 L301.0469,337.875 Q300.9844,337.7344 300.875,337.5 Q300.2188,336.1094 299.3281,336.1094 L298.5469,336.1094 L298.5469,341 L296.1094,341 L296.1094,328.6094 L299.6406,328.6094 Q302.0313,328.6094 303.0625,329.4531 Q304.1094,330.2969 304.1094,332.2031 Q304.1094,333.4844 303.4844,334.25 Q302.875,335 301.7031,335.1406 Z M298.5469,330.6719 L298.5469,334.0469 L299.7031,334.0469 Q300.7188,334.0469 301.1406,333.6563 Q301.5781,333.25 301.5781,332.3438 Q301.5781,331.4531 301.1406,331.0625 Q300.7188,330.6719 299.7031,330.6719 L298.5469,330.6719 Z "/><text fill="#000000" font-family="sans-serif" font-size="12" lengthAdjust="spacingAndGlyphs" textLength="57" x="314.5" y="339.1807">Buildable</text><!--class Gnome::Gtk3::Widget--><rect fill="#FEFECE" filter="url(#f9c7jvjplwiak)" height="32" id="Gnome::Gtk3::Widget" style="stroke: #A80036; stroke-width: 1.5;" width="75" x="345.5" y="411"/><ellipse cx="360.5" cy="427" fill="#80FFFF" rx="11" ry="11" style="stroke: #A80036; stroke-width: 1.0;"/><path d="M363.4688,432.6406 Q362.8906,432.9375 362.25,433.0781 Q361.6094,433.2344 360.9063,433.2344 Q358.4063,433.2344 357.0781,431.5938 Q355.7656,429.9375 355.7656,426.8125 Q355.7656,423.6875 357.0781,422.0313 Q358.4063,420.375 360.9063,420.375 Q361.6094,420.375 362.25,420.5313 Q362.9063,420.6875 363.4688,420.9844 L363.4688,423.7031 Q362.8438,423.125 362.25,422.8594 Q361.6563,422.5781 361.0313,422.5781 Q359.6875,422.5781 359,423.6563 Q358.3125,424.7188 358.3125,426.8125 Q358.3125,428.9063 359,429.9844 Q359.6875,431.0469 361.0313,431.0469 Q361.6563,431.0469 362.25,430.7813 Q362.8438,430.5 363.4688,429.9219 L363.4688,432.6406 Z "/><text fill="#000000" font-family="sans-serif" font-size="12" lengthAdjust="spacingAndGlyphs" textLength="43" x="374.5" y="431.1807">Widget</text><!--class Gnome::Gtk3::Button--><rect fill="#FEFECE" filter="url(#f9c7jvjplwiak)" height="32" id="Gnome::Gtk3::Button" style="stroke: #A80036; stroke-width: 1.5;" width="74" x="22" y="411"/><ellipse cx="37" cy="427" fill="#80FFFF" rx="11" ry="11" style="stroke: #A80036; stroke-width: 1.0;"/><path d="M39.9688,432.6406 Q39.3906,432.9375 38.75,433.0781 Q38.1094,433.2344 37.4063,433.2344 Q34.9063,433.2344 33.5781,431.5938 Q32.2656,429.9375 32.2656,426.8125 Q32.2656,423.6875 33.5781,422.0313 Q34.9063,420.375 37.4063,420.375 Q38.1094,420.375 38.75,420.5313 Q39.4063,420.6875 39.9688,420.9844 L39.9688,423.7031 Q39.3438,423.125 38.75,422.8594 Q38.1563,422.5781 37.5313,422.5781 Q36.1875,422.5781 35.5,423.6563 Q34.8125,424.7188 34.8125,426.8125 Q34.8125,428.9063 35.5,429.9844 Q36.1875,431.0469 37.5313,431.0469 Q38.1563,431.0469 38.75,430.7813 Q39.3438,430.5 39.9688,429.9219 L39.9688,432.6406 Z "/><text fill="#000000" font-family="sans-serif" font-size="12" lengthAdjust="spacingAndGlyphs" textLength="42" x="51" y="431.1807">Button</text><!--class Gnome::Gtk3::Bin--><rect fill="#FEFECE" filter="url(#f9c7jvjplwiak)" height="32" id="Gnome::Gtk3::Bin" style="stroke: #A80036; stroke-width: 1.5;" width="51" x="131.5" y="411"/><ellipse cx="146.5" cy="427" fill="#80FFFF" rx="11" ry="11" style="stroke: #A80036; stroke-width: 1.0;"/><path d="M149.4688,432.6406 Q148.8906,432.9375 148.25,433.0781 Q147.6094,433.2344 146.9063,433.2344 Q144.4063,433.2344 143.0781,431.5938 Q141.7656,429.9375 141.7656,426.8125 Q141.7656,423.6875 143.0781,422.0313 Q144.4063,420.375 146.9063,420.375 Q147.6094,420.375 148.25,420.5313 Q148.9063,420.6875 149.4688,420.9844 L149.4688,423.7031 Q148.8438,423.125 148.25,422.8594 Q147.6563,422.5781 147.0313,422.5781 Q145.6875,422.5781 145,423.6563 Q144.3125,424.7188 144.3125,426.8125 Q144.3125,428.9063 145,429.9844 Q145.6875,431.0469 147.0313,431.0469 Q147.6563,431.0469 148.25,430.7813 Q148.8438,430.5 149.4688,429.9219 L149.4688,432.6406 Z "/><text fill="#000000" font-family="sans-serif" font-size="12" lengthAdjust="spacingAndGlyphs" textLength="19" x="160.5" y="431.1807">Bin</text><!--class Gnome::Gtk3::Container--><rect fill="#FEFECE" filter="url(#f9c7jvjplwiak)" height="32" id="Gnome::Gtk3::Container" style="stroke: #A80036; stroke-width: 1.5;" width="93" x="217.5" y="411"/><ellipse cx="232.5" cy="427" fill="#80FFFF" rx="11" ry="11" style="stroke: #A80036; stroke-width: 1.0;"/><path d="M235.4688,432.6406 Q234.8906,432.9375 234.25,433.0781 Q233.6094,433.2344 232.9063,433.2344 Q230.4063,433.2344 229.0781,431.5938 Q227.7656,429.9375 227.7656,426.8125 Q227.7656,423.6875 229.0781,422.0313 Q230.4063,420.375 232.9063,420.375 Q233.6094,420.375 234.25,420.5313 Q234.9063,420.6875 235.4688,420.9844 L235.4688,423.7031 Q234.8438,423.125 234.25,422.8594 Q233.6563,422.5781 233.0313,422.5781 Q231.6875,422.5781 231,423.6563 Q230.3125,424.7188 230.3125,426.8125 Q230.3125,428.9063 231,429.9844 Q231.6875,431.0469 233.0313,431.0469 Q233.6563,431.0469 234.25,430.7813 Q234.8438,430.5 235.4688,429.9219 L235.4688,432.6406 Z "/><text fill="#000000" font-family="sans-serif" font-size="12" lengthAdjust="spacingAndGlyphs" textLength="61" x="246.5" y="431.1807">Container</text><!--class Gnome::N::TopLevelClassSupport--><rect fill="#FEFECE" filter="url(#f9c7jvjplwiak)" height="32" id="Gnome::N::TopLevelClassSupport" style="stroke: #A80036; stroke-width: 1.5;" width="269" x="264.5" y="43"/><ellipse cx="279.5" cy="59" fill="#80FFFF" rx="11" ry="11" style="stroke: #A80036; stroke-width: 1.0;"/><path d="M282.4688,64.6406 Q281.8906,64.9375 281.25,65.0781 Q280.6094,65.2344 279.9063,65.2344 Q277.4063,65.2344 276.0781,63.5938 Q274.7656,61.9375 274.7656,58.8125 Q274.7656,55.6875 276.0781,54.0313 Q277.4063,52.375 279.9063,52.375 Q280.6094,52.375 281.25,52.5313 Q281.9063,52.6875 282.4688,52.9844 L282.4688,55.7031 Q281.8438,55.125 281.25,54.8594 Q280.6563,54.5781 280.0313,54.5781 Q278.6875,54.5781 278,55.6563 Q277.3125,56.7188 277.3125,58.8125 Q277.3125,60.9063 278,61.9844 Q278.6875,63.0469 280.0313,63.0469 Q280.6563,63.0469 281.25,62.7813 Q281.8438,62.5 282.4688,61.9219 L282.4688,64.6406 Z "/><text fill="#000000" font-family="sans-serif" font-size="12" lengthAdjust="spacingAndGlyphs" textLength="137" x="293.5" y="63.1807">TopLevelClassSupport</text><rect fill="#FFFFFF" height="15.9688" style="stroke: #000000; stroke-width: 1.0; stroke-dasharray: 2.0,2.0;" width="98" x="438.5" y="40"/><text fill="#000000" font-family="sans-serif" font-size="12" font-style="italic" lengthAdjust="spacingAndGlyphs" textLength="88" x="443.5" y="52.1387">Catch all class</text><!--class Gnome::GObject::Object--><rect fill="#FEFECE" filter="url(#f9c7jvjplwiak)" height="32" id="Gnome::GObject::Object" style="stroke: #A80036; stroke-width: 1.5;" width="72" x="363" y="135"/><ellipse cx="378" cy="151" fill="#80FFFF" rx="11" ry="11" style="stroke: #A80036; stroke-width: 1.0;"/><path d="M380.9688,156.6406 Q380.3906,156.9375 379.75,157.0781 Q379.1094,157.2344 378.4063,157.2344 Q375.9063,157.2344 374.5781,155.5938 Q373.2656,153.9375 373.2656,150.8125 Q373.2656,147.6875 374.5781,146.0313 Q375.9063,144.375 378.4063,144.375 Q379.1094,144.375 379.75,144.5313 Q380.4063,144.6875 380.9688,144.9844 L380.9688,147.7031 Q380.3438,147.125 379.75,146.8594 Q379.1563,146.5781 378.5313,146.5781 Q377.1875,146.5781 376.5,147.6563 Q375.8125,148.7188 375.8125,150.8125 Q375.8125,152.9063 376.5,153.9844 Q377.1875,155.0469 378.5313,155.0469 Q379.1563,155.0469 379.75,154.7813 Q380.3438,154.5 380.9688,153.9219 L380.9688,156.6406 Z "/><text fill="#000000" font-family="sans-serif" font-size="12" lengthAdjust="spacingAndGlyphs" textLength="40" x="392" y="155.1807">Object</text><!--class Gnome::GObject::InitialyUnowned--><rect fill="#FEFECE" filter="url(#f9c7jvjplwiak)" height="32" id="Gnome::GObject::InitialyUnowned" style="stroke: #A80036; stroke-width: 1.5;" width="129" x="363.5" y="227"/><ellipse cx="378.5" cy="243" fill="#80FFFF" rx="11" ry="11" style="stroke: #A80036; stroke-width: 1.0;"/><path d="M381.4688,248.6406 Q380.8906,248.9375 380.25,249.0781 Q379.6094,249.2344 378.9063,249.2344 Q376.4063,249.2344 375.0781,247.5938 Q373.7656,245.9375 373.7656,242.8125 Q373.7656,239.6875 375.0781,238.0313 Q376.4063,236.375 378.9063,236.375 Q379.6094,236.375 380.25,236.5313 Q380.9063,236.6875 381.4688,236.9844 L381.4688,239.7031 Q380.8438,239.125 380.25,238.8594 Q379.6563,238.5781 379.0313,238.5781 Q377.6875,238.5781 377,239.6563 Q376.3125,240.7188 376.3125,242.8125 Q376.3125,244.9063 377,245.9844 Q377.6875,247.0469 379.0313,247.0469 Q379.6563,247.0469 380.25,246.7813 Q380.8438,246.5 381.4688,245.9219 L381.4688,248.6406 Z "/><text fill="#000000" font-family="sans-serif" font-size="12" lengthAdjust="spacingAndGlyphs" textLength="97" x="392.5" y="247.1807">InitialyUnowned</text><!--class Gnome::GObject::Signal--><rect fill="#FEFECE" filter="url(#f9c7jvjplwiak)" height="32" id="Gnome::GObject::Signal" style="stroke: #A80036; stroke-width: 1.5;" width="70" x="470" y="135"/><ellipse cx="485" cy="151" fill="#80FFFF" rx="11" ry="11" style="stroke: #A80036; stroke-width: 1.0;"/><path d="M487.9688,156.6406 Q487.3906,156.9375 486.75,157.0781 Q486.1094,157.2344 485.4063,157.2344 Q482.9063,157.2344 481.5781,155.5938 Q480.2656,153.9375 480.2656,150.8125 Q480.2656,147.6875 481.5781,146.0313 Q482.9063,144.375 485.4063,144.375 Q486.1094,144.375 486.75,144.5313 Q487.4063,144.6875 487.9688,144.9844 L487.9688,147.7031 Q487.3438,147.125 486.75,146.8594 Q486.1563,146.5781 485.5313,146.5781 Q484.1875,146.5781 483.5,147.6563 Q482.8125,148.7188 482.8125,150.8125 Q482.8125,152.9063 483.5,153.9844 Q484.1875,155.0469 485.5313,155.0469 Q486.1563,155.0469 486.75,154.7813 Q487.3438,154.5 487.9688,153.9219 L487.9688,156.6406 Z "/><text fill="#000000" font-family="sans-serif" font-size="12" lengthAdjust="spacingAndGlyphs" textLength="38" x="499" y="155.1807">Signal</text><!--link Gnome::N::TopLevelClassSupport to Gnome::GObject::Object--><path d="M399,95.4048 C399,109.0788 399,123.9368 399,134.8498 " fill="none" id="Gnome::N::TopLevelClassSupport-Gnome::GObject::Object" style="stroke: #A80036; stroke-width: 1.0;"/><polygon fill="none" points="392.0001,95.0252,399,75.0252,406.0001,95.0251,392.0001,95.0252" style="stroke: #A80036; stroke-width: 1.0;"/><!--link Gnome::GObject::Object to Gnome::GObject::InitialyUnowned--><path d="M410.1645,186.4184 C414.5593,200.3605 419.3863,215.6738 422.9092,226.8498 " fill="none" id="Gnome::GObject::Object-Gnome::GObject::InitialyUnowned" style="stroke: #A80036; stroke-width: 1.0;"/><polygon fill="none" points="403.388,188.2044,404.0514,167.0252,416.7404,183.9955,403.388,188.2044" style="stroke: #A80036; stroke-width: 1.0;"/><!--link Gnome::GObject::Object to Gnome::GObject::Signal--><path d="M448.0415,151 C450.8666,151 453.6918,151 456.5169,151 " fill="none" id="Gnome::GObject::Object-Gnome::GObject::Signal" style="stroke: #A80036; stroke-width: 1.0;"/><polygon fill="#A80036" points="469.7384,151,460.7384,147,464.7384,151,460.7384,155,469.7384,151" style="stroke: #A80036; stroke-width: 1.0;"/><line style="stroke: #A80036; stroke-width: 1.0;" x1="464.7384" x2="456.7383" y1="151" y2="150.9999"/><polygon fill="#A80036" points="435.0234,151,441.0234,155,447.0234,151,441.0234,147,435.0234,151" style="stroke: #A80036; stroke-width: 1.0;"/><!--link Gnome::GObject::InitialyUnowned to Gnome::Gtk3::Widget--><path d="M419.2672,278.7074 C409.5029,318.6327 394.1194,381.534 386.9377,410.8991 " fill="none" id="Gnome::GObject::InitialyUnowned-Gnome::Gtk3::Widget" style="stroke: #A80036; stroke-width: 1.0;"/><polygon fill="none" points="412.5343,276.7714,424.0853,259.0069,426.1335,280.0973,412.5343,276.7714" style="stroke: #A80036; stroke-width: 1.0;"/><!--link Gnome::Gtk3::Buildable to Gnome::Gtk3::Widget--><path d="M349.2758,368.4598 C357.6004,382.9101 366.9548,399.1479 373.6961,410.8498 " fill="none" id="Gnome::Gtk3::Buildable-Gnome::Gtk3::Widget" style="stroke: #A80036; stroke-width: 1.0; stroke-dasharray: 7.0,7.0;"/><polygon fill="none" points="343.15,371.8494,339.2319,351.0252,355.281,364.8609,343.15,371.8494" style="stroke: #A80036; stroke-width: 1.0;"/><!--link Gnome::Gtk3::Button to Gnome::Gtk3::Bin--><path d="M96.1328,427 C101.1729,427 106.2129,427 111.253,427 " fill="none" id="Gnome::Gtk3::Button-Gnome::Gtk3::Bin" style="stroke: #A80036; stroke-width: 1.0;"/><polygon fill="none" points="111.3217,419.9999,131.3217,427,111.3216,433.9999,111.3217,419.9999" style="stroke: #A80036; stroke-width: 1.0;"/><!--link Gnome::Gtk3::Bin to Gnome::Gtk3::Container--><path d="M182.9141,427 C187.6792,427 192.4444,427 197.2095,427 " fill="none" id="Gnome::Gtk3::Bin-Gnome::Gtk3::Container" style="stroke: #A80036; stroke-width: 1.0;"/><polygon fill="none" points="197.439,419.9999,217.4389,427,197.4389,433.9999,197.439,419.9999" style="stroke: #A80036; stroke-width: 1.0;"/><!--link Gnome::Gtk3::Container to Gnome::Gtk3::Widget--><path d="M310.9492,427 C315.6884,427 320.4276,427 325.1668,427 " fill="none" id="Gnome::Gtk3::Container-Gnome::Gtk3::Widget" style="stroke: #A80036; stroke-width: 1.0;"/><polygon fill="none" points="325.286,419.9999,345.2859,427,325.2859,433.9999,325.286,419.9999" style="stroke: #A80036; stroke-width: 1.0;"/><!--
@startuml
skinparam packageStyle rectangle
skinparam stereotypeCBackgroundColor #80ffff
set namespaceSeparator ::
hide members

class Gnome::Gtk3::Buildable <<(R,#80ffff)>>

class Gnome::N::TopLevelClassSupport < Catch all class >
Gnome::N::TopLevelClassSupport <|- - Gnome::GObject::Object

Gnome::GObject::Object <|- - Gnome::GObject::InitialyUnowned
Gnome::GObject::Object *-> Gnome::GObject::Signal

Gnome::GObject::InitialyUnowned <|- - - Gnome::Gtk3::Widget

class Gnome::Gtk3::Widget implements Gnome::Gtk3::Buildable

Gnome::Gtk3::Button -|> Gnome::Gtk3::Bin
Gnome::Gtk3::Bin -|> Gnome::Gtk3::Container
Gnome::Gtk3::Container -|> Gnome::Gtk3::Widget










@enduml

PlantUML version 1.2019.01(Sat Feb 09 16:32:04 CET 2019)
(LGPL source distribution)
Java Runtime: OpenJDK Runtime Environment
JVM: OpenJDK 64-Bit Server VM
Java Version: 1.8.0_265-b01
Operating System: Linux
OS Version: 5.8.8-100.fc31.x86_64
Default Encoding: UTF-8
Language: en
Country: null
--></g></svg>