<?xml version="1.0" encoding="UTF-8" standalone="no"?><svg xmlns="http://www.w3.org/2000/svg" xmlns:xlink="http://www.w3.org/1999/xlink" contentScriptType="application/ecmascript" contentStyleType="text/css" height="684px" preserveAspectRatio="none" style="width:768px;height:684px;" version="1.1" viewBox="0 0 768 684" width="768px" zoomAndPan="magnify"><defs><filter height="300%" id="f11ml2ewl1kc8t" width="300%" x="-1" y="-1"><feGaussianBlur result="blurOut" stdDeviation="2.0"/><feColorMatrix in="blurOut" result="blurOut2" type="matrix" values="0 0 0 0 0 0 0 0 0 0 0 0 0 0 0 0 0 0 .4 0"/><feOffset dx="4.0" dy="4.0" in="blurOut2" result="blurOut3"/><feBlend in="SourceGraphic" in2="blurOut3" mode="normal"/></filter></defs><g><!--MD5=[b969295f0ec9b4fa482091c3e26049be]
cluster Gnome::N--><rect fill="#FFFFFF" filter="url(#f11ml2ewl1kc8t)" height="83" style="stroke: #000000; stroke-width: 1.5;" width="302" x="340" y="7"/><text fill="#000000" font-family="sans-serif" font-size="14" font-weight="bold" lengthAdjust="spacingAndGlyphs" textLength="79" x="451.5" y="21.9951">Gnome::N</text><!--MD5=[2fb3f9b624b0544b9841d5da78ec0508]
cluster Gnome::GObject--><rect fill="#FFFFFF" filter="url(#f11ml2ewl1kc8t)" height="175" style="stroke: #000000; stroke-width: 1.5;" width="271" x="272" y="114"/><text fill="#000000" font-family="sans-serif" font-size="14" font-weight="bold" lengthAdjust="spacingAndGlyphs" textLength="131" x="342" y="128.9951">Gnome::GObject</text><!--MD5=[7d67f77911969026863717fbb204e273]
cluster Gnome::Gtk3--><rect fill="#FFFFFF" filter="url(#f11ml2ewl1kc8t)" height="359" style="stroke: #000000; stroke-width: 1.5;" width="749" x="7" y="313"/><text fill="#000000" font-family="sans-serif" font-size="14" font-weight="bold" lengthAdjust="spacingAndGlyphs" textLength="105" x="329" y="327.9951">Gnome::Gtk3</text><!--MD5=[0b8e281ccd00c72019a31d78e9f95b5d]
class Gnome::N::TopLevelClassSupport--><rect codeLine="9" fill="#FEFECE" filter="url(#f11ml2ewl1kc8t)" height="32" id="Gnome::N::TopLevelClassSupport" style="stroke: #A80036; stroke-width: 1.5;" width="269" x="356.5" y="42"/><ellipse cx="371.5" cy="58" fill="#80FFFF" rx="11" ry="11" style="stroke: #A80036; stroke-width: 1.0;"/><path d="M374.4688,63.6406 Q373.8906,63.9375 373.25,64.0781 Q372.6094,64.2344 371.9063,64.2344 Q369.4063,64.2344 368.0781,62.5938 Q366.7656,60.9375 366.7656,57.8125 Q366.7656,54.6875 368.0781,53.0313 Q369.4063,51.375 371.9063,51.375 Q372.6094,51.375 373.25,51.5313 Q373.9063,51.6875 374.4688,51.9844 L374.4688,54.7031 Q373.8438,54.125 373.25,53.8594 Q372.6563,53.5781 372.0313,53.5781 Q370.6875,53.5781 370,54.6563 Q369.3125,55.7188 369.3125,57.8125 Q369.3125,59.9063 370,60.9844 Q370.6875,62.0469 372.0313,62.0469 Q372.6563,62.0469 373.25,61.7813 Q373.8438,61.5 374.4688,60.9219 L374.4688,63.6406 Z "/><text fill="#000000" font-family="sans-serif" font-size="12" lengthAdjust="spacingAndGlyphs" textLength="137" x="385.5" y="62.1543">TopLevelClassSupport</text><rect fill="#FFFFFF" height="15.9688" style="stroke: #000000; stroke-width: 1.0; stroke-dasharray: 2.0,2.0;" width="98" x="530.5" y="39"/><text fill="#000000" font-family="sans-serif" font-size="12" font-style="italic" lengthAdjust="spacingAndGlyphs" textLength="88" x="535.5" y="51.1387">Catch all class</text><!--MD5=[c2016d28441601ceb0a74f47a4537d14]
class Gnome::GObject::Object--><rect fill="#FEFECE" filter="url(#f11ml2ewl1kc8t)" height="32" id="Gnome::GObject::Object" style="stroke: #A80036; stroke-width: 1.5;" width="72" x="455" y="149"/><ellipse cx="470" cy="165" fill="#80FFFF" rx="11" ry="11" style="stroke: #A80036; stroke-width: 1.0;"/><path d="M472.9688,170.6406 Q472.3906,170.9375 471.75,171.0781 Q471.1094,171.2344 470.4063,171.2344 Q467.9063,171.2344 466.5781,169.5938 Q465.2656,167.9375 465.2656,164.8125 Q465.2656,161.6875 466.5781,160.0313 Q467.9063,158.375 470.4063,158.375 Q471.1094,158.375 471.75,158.5313 Q472.4063,158.6875 472.9688,158.9844 L472.9688,161.7031 Q472.3438,161.125 471.75,160.8594 Q471.1563,160.5781 470.5313,160.5781 Q469.1875,160.5781 468.5,161.6563 Q467.8125,162.7188 467.8125,164.8125 Q467.8125,166.9063 468.5,167.9844 Q469.1875,169.0469 470.5313,169.0469 Q471.1563,169.0469 471.75,168.7813 Q472.3438,168.5 472.9688,167.9219 L472.9688,170.6406 Z "/><text fill="#000000" font-family="sans-serif" font-size="12" lengthAdjust="spacingAndGlyphs" textLength="40" x="484" y="169.1543">Object</text><!--MD5=[52303d185de782118d4739c052001bf2]
class Gnome::GObject::Signal--><rect codeLine="13" fill="#FEFECE" filter="url(#f11ml2ewl1kc8t)" height="32" id="Gnome::GObject::Signal" style="stroke: #A80036; stroke-width: 1.5;" width="131" x="288.5" y="149"/><ellipse cx="303.5" cy="165" fill="#80FFFF" rx="11" ry="11" style="stroke: #A80036; stroke-width: 1.0;"/><path d="M304.7031,165.1406 Q305.0625,165.2188 305.3281,165.5 Q305.6094,165.7656 306,166.5469 L308.2344,171 L305.5469,171 L304.0469,167.875 Q303.9844,167.7344 303.875,167.5 Q303.2188,166.1094 302.3281,166.1094 L301.5469,166.1094 L301.5469,171 L299.1094,171 L299.1094,158.6094 L302.6406,158.6094 Q305.0313,158.6094 306.0625,159.4531 Q307.1094,160.2969 307.1094,162.2031 Q307.1094,163.4844 306.4844,164.25 Q305.875,165 304.7031,165.1406 Z M301.5469,160.6719 L301.5469,164.0469 L302.7031,164.0469 Q303.7188,164.0469 304.1406,163.6563 Q304.5781,163.25 304.5781,162.3438 Q304.5781,161.4531 304.1406,161.0625 Q303.7188,160.6719 302.7031,160.6719 L301.5469,160.6719 Z "/><text fill="#000000" font-family="sans-serif" font-size="12" lengthAdjust="spacingAndGlyphs" textLength="38" x="317.5" y="169.1543">Signal</text><rect fill="#FFFFFF" height="15.9688" style="stroke: #000000; stroke-width: 1.0; stroke-dasharray: 2.0,2.0;" width="59" x="363.5" y="146"/><text fill="#000000" font-family="sans-serif" font-size="12" font-style="italic" lengthAdjust="spacingAndGlyphs" textLength="57" x="364.5" y="158.1387">Interface</text><!--MD5=[f47b9a4a06d3f9bed948fa39f8c5540e]
class Gnome::GObject::InitialyUnowned--><rect fill="#FEFECE" filter="url(#f11ml2ewl1kc8t)" height="32" id="Gnome::GObject::InitialyUnowned" style="stroke: #A80036; stroke-width: 1.5;" width="129" x="397.5" y="241"/><ellipse cx="412.5" cy="257" fill="#80FFFF" rx="11" ry="11" style="stroke: #A80036; stroke-width: 1.0;"/><path d="M415.4688,262.6406 Q414.8906,262.9375 414.25,263.0781 Q413.6094,263.2344 412.9063,263.2344 Q410.4063,263.2344 409.0781,261.5938 Q407.7656,259.9375 407.7656,256.8125 Q407.7656,253.6875 409.0781,252.0313 Q410.4063,250.375 412.9063,250.375 Q413.6094,250.375 414.25,250.5313 Q414.9063,250.6875 415.4688,250.9844 L415.4688,253.7031 Q414.8438,253.125 414.25,252.8594 Q413.6563,252.5781 413.0313,252.5781 Q411.6875,252.5781 411,253.6563 Q410.3125,254.7188 410.3125,256.8125 Q410.3125,258.9063 411,259.9844 Q411.6875,261.0469 413.0313,261.0469 Q413.6563,261.0469 414.25,260.7813 Q414.8438,260.5 415.4688,259.9219 L415.4688,262.6406 Z "/><text fill="#000000" font-family="sans-serif" font-size="12" lengthAdjust="spacingAndGlyphs" textLength="97" x="426.5" y="261.1543">InitialyUnowned</text><!--MD5=[865b113cd38444117c4dca48a702f1ee]
class Gnome::Gtk3::Orientable--><rect codeLine="16" fill="#FEFECE" filter="url(#f11ml2ewl1kc8t)" height="32" id="Gnome::Gtk3::Orientable" style="stroke: #A80036; stroke-width: 1.5;" width="158" x="577" y="624"/><ellipse cx="592" cy="640" fill="#80FFFF" rx="11" ry="11" style="stroke: #A80036; stroke-width: 1.0;"/><path d="M593.2031,640.1406 Q593.5625,640.2188 593.8281,640.5 Q594.1094,640.7656 594.5,641.5469 L596.7344,646 L594.0469,646 L592.5469,642.875 Q592.4844,642.7344 592.375,642.5 Q591.7188,641.1094 590.8281,641.1094 L590.0469,641.1094 L590.0469,646 L587.6094,646 L587.6094,633.6094 L591.1406,633.6094 Q593.5313,633.6094 594.5625,634.4531 Q595.6094,635.2969 595.6094,637.2031 Q595.6094,638.4844 594.9844,639.25 Q594.375,640 593.2031,640.1406 Z M590.0469,635.6719 L590.0469,639.0469 L591.2031,639.0469 Q592.2188,639.0469 592.6406,638.6563 Q593.0781,638.25 593.0781,637.3438 Q593.0781,636.4531 592.6406,636.0625 Q592.2188,635.6719 591.2031,635.6719 L590.0469,635.6719 Z "/><text fill="#000000" font-family="sans-serif" font-size="12" lengthAdjust="spacingAndGlyphs" textLength="65" x="606" y="644.1543">Orientable</text><rect fill="#FFFFFF" height="15.9688" style="stroke: #000000; stroke-width: 1.0; stroke-dasharray: 2.0,2.0;" width="59" x="679" y="621"/><text fill="#000000" font-family="sans-serif" font-size="12" font-style="italic" lengthAdjust="spacingAndGlyphs" textLength="57" x="680" y="633.1387">Interface</text><!--MD5=[da682118298051b87a657dbcfc410a1b]
class Gnome::Gtk3::CellRenderer--><rect fill="#FEFECE" filter="url(#f11ml2ewl1kc8t)" height="32" id="Gnome::Gtk3::CellRenderer" style="stroke: #A80036; stroke-width: 1.5;" width="112" x="406" y="348"/><ellipse cx="421" cy="364" fill="#80FFFF" rx="11" ry="11" style="stroke: #A80036; stroke-width: 1.0;"/><path d="M423.9688,369.6406 Q423.3906,369.9375 422.75,370.0781 Q422.1094,370.2344 421.4063,370.2344 Q418.9063,370.2344 417.5781,368.5938 Q416.2656,366.9375 416.2656,363.8125 Q416.2656,360.6875 417.5781,359.0313 Q418.9063,357.375 421.4063,357.375 Q422.1094,357.375 422.75,357.5313 Q423.4063,357.6875 423.9688,357.9844 L423.9688,360.7031 Q423.3438,360.125 422.75,359.8594 Q422.1563,359.5781 421.5313,359.5781 Q420.1875,359.5781 419.5,360.6563 Q418.8125,361.7188 418.8125,363.8125 Q418.8125,365.9063 419.5,366.9844 Q420.1875,368.0469 421.5313,368.0469 Q422.1563,368.0469 422.75,367.7813 Q423.3438,367.5 423.9688,366.9219 L423.9688,369.6406 Z "/><text fill="#000000" font-family="sans-serif" font-size="12" lengthAdjust="spacingAndGlyphs" textLength="80" x="435" y="368.1543">CellRenderer</text><!--MD5=[7fca1b0629d9678ed685dbd10d9e3a4b]
class Gnome::Gtk3::CellRendererText--><rect fill="#FEFECE" filter="url(#f11ml2ewl1kc8t)" height="32" id="Gnome::Gtk3::CellRendererText" style="stroke: #A80036; stroke-width: 1.5;" width="138" x="214" y="440"/><ellipse cx="229" cy="456" fill="#80FFFF" rx="11" ry="11" style="stroke: #A80036; stroke-width: 1.0;"/><path d="M231.9688,461.6406 Q231.3906,461.9375 230.75,462.0781 Q230.1094,462.2344 229.4063,462.2344 Q226.9063,462.2344 225.5781,460.5938 Q224.2656,458.9375 224.2656,455.8125 Q224.2656,452.6875 225.5781,451.0313 Q226.9063,449.375 229.4063,449.375 Q230.1094,449.375 230.75,449.5313 Q231.4063,449.6875 231.9688,449.9844 L231.9688,452.7031 Q231.3438,452.125 230.75,451.8594 Q230.1563,451.5781 229.5313,451.5781 Q228.1875,451.5781 227.5,452.6563 Q226.8125,453.7188 226.8125,455.8125 Q226.8125,457.9063 227.5,458.9844 Q228.1875,460.0469 229.5313,460.0469 Q230.1563,460.0469 230.75,459.7813 Q231.3438,459.5 231.9688,458.9219 L231.9688,461.6406 Z "/><text fill="#000000" font-family="sans-serif" font-size="12" lengthAdjust="spacingAndGlyphs" textLength="106" x="243" y="460.1543">CellRendererText</text><!--MD5=[e15283872c6e8b8d5957512545243dfd]
class Gnome::Gtk3::CellRendererPixbuf--><rect fill="#FEFECE" filter="url(#f11ml2ewl1kc8t)" height="32" id="Gnome::Gtk3::CellRendererPixbuf" style="stroke: #A80036; stroke-width: 1.5;" width="149" x="387.5" y="532"/><ellipse cx="402.5" cy="548" fill="#80FFFF" rx="11" ry="11" style="stroke: #A80036; stroke-width: 1.0;"/><path d="M405.4688,553.6406 Q404.8906,553.9375 404.25,554.0781 Q403.6094,554.2344 402.9063,554.2344 Q400.4063,554.2344 399.0781,552.5938 Q397.7656,550.9375 397.7656,547.8125 Q397.7656,544.6875 399.0781,543.0313 Q400.4063,541.375 402.9063,541.375 Q403.6094,541.375 404.25,541.5313 Q404.9063,541.6875 405.4688,541.9844 L405.4688,544.7031 Q404.8438,544.125 404.25,543.8594 Q403.6563,543.5781 403.0313,543.5781 Q401.6875,543.5781 401,544.6563 Q400.3125,545.7188 400.3125,547.8125 Q400.3125,549.9063 401,550.9844 Q401.6875,552.0469 403.0313,552.0469 Q403.6563,552.0469 404.25,551.7813 Q404.8438,551.5 405.4688,550.9219 L405.4688,553.6406 Z "/><text fill="#000000" font-family="sans-serif" font-size="12" lengthAdjust="spacingAndGlyphs" textLength="117" x="416.5" y="552.1543">CellRendererPixbuf</text><!--MD5=[a286676da88996a9f02381aab80b120b]
class Gnome::Gtk3::CellRendererProgress--><rect fill="#FEFECE" filter="url(#f11ml2ewl1kc8t)" height="32" id="Gnome::Gtk3::CellRendererProgress" style="stroke: #A80036; stroke-width: 1.5;" width="168" x="572" y="532"/><ellipse cx="587" cy="548" fill="#80FFFF" rx="11" ry="11" style="stroke: #A80036; stroke-width: 1.0;"/><path d="M589.9688,553.6406 Q589.3906,553.9375 588.75,554.0781 Q588.1094,554.2344 587.4063,554.2344 Q584.9063,554.2344 583.5781,552.5938 Q582.2656,550.9375 582.2656,547.8125 Q582.2656,544.6875 583.5781,543.0313 Q584.9063,541.375 587.4063,541.375 Q588.1094,541.375 588.75,541.5313 Q589.4063,541.6875 589.9688,541.9844 L589.9688,544.7031 Q589.3438,544.125 588.75,543.8594 Q588.1563,543.5781 587.5313,543.5781 Q586.1875,543.5781 585.5,544.6563 Q584.8125,545.7188 584.8125,547.8125 Q584.8125,549.9063 585.5,550.9844 Q586.1875,552.0469 587.5313,552.0469 Q588.1563,552.0469 588.75,551.7813 Q589.3438,551.5 589.9688,550.9219 L589.9688,553.6406 Z "/><text fill="#000000" font-family="sans-serif" font-size="12" lengthAdjust="spacingAndGlyphs" textLength="136" x="601" y="552.1543">CellRendererProgress</text><!--MD5=[2fc32e2537ed0d9cf591e5045bf5b931]
class Gnome::Gtk3::CellRendererSpinner--><rect fill="#FEFECE" filter="url(#f11ml2ewl1kc8t)" height="32" id="Gnome::Gtk3::CellRendererSpinner" style="stroke: #A80036; stroke-width: 1.5;" width="160" x="553" y="348"/><ellipse cx="568" cy="364" fill="#80FFFF" rx="11" ry="11" style="stroke: #A80036; stroke-width: 1.0;"/><path d="M570.9688,369.6406 Q570.3906,369.9375 569.75,370.0781 Q569.1094,370.2344 568.4063,370.2344 Q565.9063,370.2344 564.5781,368.5938 Q563.2656,366.9375 563.2656,363.8125 Q563.2656,360.6875 564.5781,359.0313 Q565.9063,357.375 568.4063,357.375 Q569.1094,357.375 569.75,357.5313 Q570.4063,357.6875 570.9688,357.9844 L570.9688,360.7031 Q570.3438,360.125 569.75,359.8594 Q569.1563,359.5781 568.5313,359.5781 Q567.1875,359.5781 566.5,360.6563 Q565.8125,361.7188 565.8125,363.8125 Q565.8125,365.9063 566.5,366.9844 Q567.1875,368.0469 568.5313,368.0469 Q569.1563,368.0469 569.75,367.7813 Q570.3438,367.5 570.9688,366.9219 L570.9688,369.6406 Z "/><text fill="#000000" font-family="sans-serif" font-size="12" lengthAdjust="spacingAndGlyphs" textLength="128" x="582" y="368.1543">CellRendererSpinner</text><!--MD5=[a005f66d13fce2a40ee1e5ae90c20c08]
class Gnome::Gtk3::CellRendererToggle--><rect fill="#FEFECE" filter="url(#f11ml2ewl1kc8t)" height="32" id="Gnome::Gtk3::CellRendererToggle" style="stroke: #A80036; stroke-width: 1.5;" width="154" x="217" y="348"/><ellipse cx="232" cy="364" fill="#80FFFF" rx="11" ry="11" style="stroke: #A80036; stroke-width: 1.0;"/><path d="M234.9688,369.6406 Q234.3906,369.9375 233.75,370.0781 Q233.1094,370.2344 232.4063,370.2344 Q229.9063,370.2344 228.5781,368.5938 Q227.2656,366.9375 227.2656,363.8125 Q227.2656,360.6875 228.5781,359.0313 Q229.9063,357.375 232.4063,357.375 Q233.1094,357.375 233.75,357.5313 Q234.4063,357.6875 234.9688,357.9844 L234.9688,360.7031 Q234.3438,360.125 233.75,359.8594 Q233.1563,359.5781 232.5313,359.5781 Q231.1875,359.5781 230.5,360.6563 Q229.8125,361.7188 229.8125,363.8125 Q229.8125,365.9063 230.5,366.9844 Q231.1875,368.0469 232.5313,368.0469 Q233.1563,368.0469 233.75,367.7813 Q234.3438,367.5 234.9688,366.9219 L234.9688,369.6406 Z "/><text fill="#000000" font-family="sans-serif" font-size="12" lengthAdjust="spacingAndGlyphs" textLength="122" x="246" y="368.1543">CellRendererToggle</text><!--MD5=[91d926c2387aaeb5699d5e75cbb83166]
class Gnome::Gtk3::CellRendererAccel--><rect fill="#FEFECE" filter="url(#f11ml2ewl1kc8t)" height="32" id="Gnome::Gtk3::CellRendererAccel" style="stroke: #A80036; stroke-width: 1.5;" width="145" x="33.5" y="440"/><ellipse cx="48.5" cy="456" fill="#80FFFF" rx="11" ry="11" style="stroke: #A80036; stroke-width: 1.0;"/><path d="M51.4688,461.6406 Q50.8906,461.9375 50.25,462.0781 Q49.6094,462.2344 48.9063,462.2344 Q46.4063,462.2344 45.0781,460.5938 Q43.7656,458.9375 43.7656,455.8125 Q43.7656,452.6875 45.0781,451.0313 Q46.4063,449.375 48.9063,449.375 Q49.6094,449.375 50.25,449.5313 Q50.9063,449.6875 51.4688,449.9844 L51.4688,452.7031 Q50.8438,452.125 50.25,451.8594 Q49.6563,451.5781 49.0313,451.5781 Q47.6875,451.5781 47,452.6563 Q46.3125,453.7188 46.3125,455.8125 Q46.3125,457.9063 47,458.9844 Q47.6875,460.0469 49.0313,460.0469 Q49.6563,460.0469 50.25,459.7813 Q50.8438,459.5 51.4688,458.9219 L51.4688,461.6406 Z "/><text fill="#000000" font-family="sans-serif" font-size="12" lengthAdjust="spacingAndGlyphs" textLength="113" x="62.5" y="460.1543">CellRendererAccel</text><!--MD5=[c529d667d2525a6fbc89bd318977f07f]
class Gnome::Gtk3::CellRendererCombo--><rect fill="#FEFECE" filter="url(#f11ml2ewl1kc8t)" height="32" id="Gnome::Gtk3::CellRendererCombo" style="stroke: #A80036; stroke-width: 1.5;" width="155" x="23.5" y="532"/><ellipse cx="38.5" cy="548" fill="#80FFFF" rx="11" ry="11" style="stroke: #A80036; stroke-width: 1.0;"/><path d="M41.4688,553.6406 Q40.8906,553.9375 40.25,554.0781 Q39.6094,554.2344 38.9063,554.2344 Q36.4063,554.2344 35.0781,552.5938 Q33.7656,550.9375 33.7656,547.8125 Q33.7656,544.6875 35.0781,543.0313 Q36.4063,541.375 38.9063,541.375 Q39.6094,541.375 40.25,541.5313 Q40.9063,541.6875 41.4688,541.9844 L41.4688,544.7031 Q40.8438,544.125 40.25,543.8594 Q39.6563,543.5781 39.0313,543.5781 Q37.6875,543.5781 37,544.6563 Q36.3125,545.7188 36.3125,547.8125 Q36.3125,549.9063 37,550.9844 Q37.6875,552.0469 39.0313,552.0469 Q39.6563,552.0469 40.25,551.7813 Q40.8438,551.5 41.4688,550.9219 L41.4688,553.6406 Z "/><text fill="#000000" font-family="sans-serif" font-size="12" lengthAdjust="spacingAndGlyphs" textLength="123" x="52.5" y="552.1543">CellRendererCombo</text><!--MD5=[15cd035f1d953b3478751c2a62824e18]
class Gnome::Gtk3::CellRendererSpin--><rect fill="#FEFECE" filter="url(#f11ml2ewl1kc8t)" height="32" id="Gnome::Gtk3::CellRendererSpin" style="stroke: #A80036; stroke-width: 1.5;" width="139" x="213.5" y="532"/><ellipse cx="228.5" cy="548" fill="#80FFFF" rx="11" ry="11" style="stroke: #A80036; stroke-width: 1.0;"/><path d="M231.4688,553.6406 Q230.8906,553.9375 230.25,554.0781 Q229.6094,554.2344 228.9063,554.2344 Q226.4063,554.2344 225.0781,552.5938 Q223.7656,550.9375 223.7656,547.8125 Q223.7656,544.6875 225.0781,543.0313 Q226.4063,541.375 228.9063,541.375 Q229.6094,541.375 230.25,541.5313 Q230.9063,541.6875 231.4688,541.9844 L231.4688,544.7031 Q230.8438,544.125 230.25,543.8594 Q229.6563,543.5781 229.0313,543.5781 Q227.6875,543.5781 227,544.6563 Q226.3125,545.7188 226.3125,547.8125 Q226.3125,549.9063 227,550.9844 Q227.6875,552.0469 229.0313,552.0469 Q229.6563,552.0469 230.25,551.7813 Q230.8438,551.5 231.4688,550.9219 L231.4688,553.6406 Z "/><text fill="#000000" font-family="sans-serif" font-size="12" lengthAdjust="spacingAndGlyphs" textLength="107" x="242.5" y="552.1543">CellRendererSpin</text><!--MD5=[e23b679cf607d12ac81e9c5301595709]
reverse link Gnome::N::TopLevelClassSupport to Gnome::GObject::Object--><path codeLine="10" d="M491,94.1 C491,112.76 491,134.73 491,148.98 " fill="none" id="Gnome::N::TopLevelClassSupport-backto-Gnome::GObject::Object" style="stroke: #A80036; stroke-width: 1.0;"/><polygon fill="none" points="484,94.04,491,74.04,498,94.04,484,94.04" style="stroke: #A80036; stroke-width: 1.0;"/><!--MD5=[2e57c6084092ea441ae4a3f826779dd8]
reverse link Gnome::GObject::Object to Gnome::GObject::InitialyUnowned--><path codeLine="18" d="M479.84,200.63 C475.34,214.59 470.39,229.96 466.85,240.96 " fill="none" id="Gnome::GObject::Object-backto-Gnome::GObject::InitialyUnowned" style="stroke: #A80036; stroke-width: 1.0;"/><polygon fill="none" points="473.28,198.16,486.08,181.27,486.61,202.45,473.28,198.16" style="stroke: #A80036; stroke-width: 1.0;"/><!--MD5=[f8ffcf4587ba956cb48626a4231e4d21]
reverse link Gnome::GObject::Signal to Gnome::GObject::Object--><path codeLine="22" d="M439.77,165 C444.85,165 449.92,165 455,165 " fill="none" id="Gnome::GObject::Signal-backto-Gnome::GObject::Object" style="stroke: #A80036; stroke-width: 1.0; stroke-dasharray: 7.0,7.0;"/><polygon fill="none" points="439.56,172,419.56,165,439.56,158,439.56,172" style="stroke: #A80036; stroke-width: 1.0;"/><!--MD5=[4ea0bc36946dc023dc9c9b820bcd401e]
reverse link Gnome::GObject::InitialyUnowned to Gnome::Gtk3::CellRenderer--><path codeLine="24" d="M462,293.1 C462,311.76 462,333.73 462,347.98 " fill="none" id="Gnome::GObject::InitialyUnowned-backto-Gnome::Gtk3::CellRenderer" style="stroke: #A80036; stroke-width: 1.0;"/><polygon fill="none" points="455,293.04,462,273.04,469,293.04,455,293.04" style="stroke: #A80036; stroke-width: 1.0;"/><!--MD5=[135ec4e23e05c1080872d7aee9eae782]
reverse link Gnome::Gtk3::CellRenderer to Gnome::Gtk3::CellRendererText--><path codeLine="25" d="M413.9,389.18 C381.8,405.32 340.58,426.05 313.06,439.89 " fill="none" id="Gnome::Gtk3::CellRenderer-backto-Gnome::Gtk3::CellRendererText" style="stroke: #A80036; stroke-width: 1.0;"/><polygon fill="none" points="411.03,382.79,432.04,380.06,417.32,395.3,411.03,382.79" style="stroke: #A80036; stroke-width: 1.0;"/><!--MD5=[750d2b0f106a793cd128f77dceca2ed1]
reverse link Gnome::Gtk3::CellRenderer to Gnome::Gtk3::CellRendererPixbuf--><path codeLine="26" d="M462,400.34 C462,440.25 462,503.33 462,531.97 " fill="none" id="Gnome::Gtk3::CellRenderer-backto-Gnome::Gtk3::CellRendererPixbuf" style="stroke: #A80036; stroke-width: 1.0;"/><polygon fill="none" points="455,400.2,462,380.2,469,400.2,455,400.2" style="stroke: #A80036; stroke-width: 1.0;"/><!--MD5=[d772ac23ccf8771eb0793ec7319a2e9c]
reverse link Gnome::Gtk3::CellRenderer to Gnome::Gtk3::CellRendererProgress--><path codeLine="27" d="M493.06,394.14 C534.89,433.38 607.81,501.79 639.98,531.97 " fill="none" id="Gnome::Gtk3::CellRenderer-backto-Gnome::Gtk3::CellRendererProgress" style="stroke: #A80036; stroke-width: 1.0;"/><polygon fill="none" points="488,398.99,478.21,380.2,497.58,388.78,488,398.99" style="stroke: #A80036; stroke-width: 1.0;"/><!--MD5=[4db646024be406812c1aa003f1d4175f]
reverse link Gnome::Gtk3::CellRenderer to Gnome::Gtk3::CellRendererSpinner--><path codeLine="28" d="M538.36,364 C543.13,364 547.9,364 552.67,364 " fill="none" id="Gnome::Gtk3::CellRenderer-backto-Gnome::Gtk3::CellRendererSpinner" style="stroke: #A80036; stroke-width: 1.0;"/><polygon fill="none" points="538.11,371,518.11,364,538.11,357,538.11,371" style="stroke: #A80036; stroke-width: 1.0;"/><!--MD5=[6e5a69d32d7ba45f46b912f3ca3fee52]
link Gnome::Gtk3::CellRendererToggle to Gnome::Gtk3::CellRenderer--><path codeLine="29" d="M371.11,364 C376,364 380.9,364 385.79,364 " fill="none" id="Gnome::Gtk3::CellRendererToggle-to-Gnome::Gtk3::CellRenderer" style="stroke: #A80036; stroke-width: 1.0;"/><polygon fill="none" points="385.9,357,405.9,364,385.9,371,385.9,357" style="stroke: #A80036; stroke-width: 1.0;"/><!--MD5=[a583fc66f53268e70de42c56c72bff78]
link Gnome::Gtk3::CellRendererAccel to Gnome::Gtk3::CellRendererText--><path codeLine="31" d="M178.6,456 C183.62,456 188.64,456 193.67,456 " fill="none" id="Gnome::Gtk3::CellRendererAccel-to-Gnome::Gtk3::CellRendererText" style="stroke: #A80036; stroke-width: 1.0;"/><polygon fill="none" points="193.67,449,213.67,456,193.67,463,193.67,449" style="stroke: #A80036; stroke-width: 1.0;"/><!--MD5=[c7f0809726517f7c1f7ba303d26c1477]
reverse link Gnome::Gtk3::CellRendererText to Gnome::Gtk3::CellRendererCombo--><path codeLine="32" d="M234.55,480.96 C201.85,497.13 159.68,517.98 131.56,531.89 " fill="none" id="Gnome::Gtk3::CellRendererText-backto-Gnome::Gtk3::CellRendererCombo" style="stroke: #A80036; stroke-width: 1.0;"/><polygon fill="none" points="231.51,474.65,252.54,472.06,237.71,487.2,231.51,474.65" style="stroke: #A80036; stroke-width: 1.0;"/><!--MD5=[3feaf821c450a4c9ea645a0508203fc3]
reverse link Gnome::Gtk3::CellRendererText to Gnome::Gtk3::CellRendererSpin--><path codeLine="33" d="M283,492.61 C283,506.31 283,521.22 283,531.96 " fill="none" id="Gnome::Gtk3::CellRendererText-backto-Gnome::Gtk3::CellRendererSpin" style="stroke: #A80036; stroke-width: 1.0;"/><polygon fill="none" points="276,492.27,283,472.27,290,492.27,276,492.27" style="stroke: #A80036; stroke-width: 1.0;"/><!--MD5=[675919d09b873b3ac583882b109eac0a]
link Gnome::Gtk3::CellRendererProgress to Gnome::Gtk3::Orientable--><path codeLine="35" d="M656,564.27 C656,575.06 656,589.99 656,603.67 " fill="none" id="Gnome::Gtk3::CellRendererProgress-to-Gnome::Gtk3::Orientable" style="stroke: #A80036; stroke-width: 1.0; stroke-dasharray: 7.0,7.0;"/><polygon fill="none" points="663,603.96,656,623.96,649,603.96,663,603.96" style="stroke: #A80036; stroke-width: 1.0;"/><!--MD5=[2caa4d195c3b61e6df51a6966929f8b0]
@startuml
'scale 0.9
skinparam packageStyle rectangle
skinparam stereotypeCBackgroundColor #80ffff
set namespaceSeparator ::
hide members


class Gnome::N::TopLevelClassSupport < Catch all class >
Gnome::N::TopLevelClassSupport <|- - Gnome::GObject::Object

Interface Gnome::GObject::Signal <Interface>
class Gnome::GObject::Signal <<(R,#80ffff)>>

Interface Gnome::Gtk3::Orientable <Interface>
class Gnome::Gtk3::Orientable <<(R,#80ffff)>>

Gnome::GObject::Object <|- - Gnome::GObject::InitialyUnowned



Gnome::GObject::Signal <|. Gnome::GObject::Object

Gnome::GObject::InitialyUnowned <|- - Gnome::Gtk3::CellRenderer
Gnome::Gtk3::CellRenderer <|- - Gnome::Gtk3::CellRendererText
Gnome::Gtk3::CellRenderer <|- - - Gnome::Gtk3::CellRendererPixbuf
Gnome::Gtk3::CellRenderer <|- - - Gnome::Gtk3::CellRendererProgress
Gnome::Gtk3::CellRenderer <|-right- Gnome::Gtk3::CellRendererSpinner
Gnome::Gtk3::CellRenderer <|-left- Gnome::Gtk3::CellRendererToggle

Gnome::Gtk3::CellRendererText <|-left- Gnome::Gtk3::CellRendererAccel
Gnome::Gtk3::CellRendererText <|- - Gnome::Gtk3::CellRendererCombo
Gnome::Gtk3::CellRendererText <|- - Gnome::Gtk3::CellRendererSpin

Gnome::Gtk3::CellRendererProgress ..|> Gnome::Gtk3::Orientable
@enduml

@startuml
skinparam packageStyle rectangle
skinparam stereotypeCBackgroundColor #80ffff
set namespaceSeparator ::
hide members


class Gnome::N::TopLevelClassSupport < Catch all class >
Gnome::N::TopLevelClassSupport <|- - Gnome::GObject::Object

Interface Gnome::GObject::Signal <Interface>
class Gnome::GObject::Signal <<(R,#80ffff)>>

Interface Gnome::Gtk3::Orientable <Interface>
class Gnome::Gtk3::Orientable <<(R,#80ffff)>>

Gnome::GObject::Object <|- - Gnome::GObject::InitialyUnowned



Gnome::GObject::Signal <|. Gnome::GObject::Object

Gnome::GObject::InitialyUnowned <|- - Gnome::Gtk3::CellRenderer
Gnome::Gtk3::CellRenderer <|- - Gnome::Gtk3::CellRendererText
Gnome::Gtk3::CellRenderer <|- - - Gnome::Gtk3::CellRendererPixbuf
Gnome::Gtk3::CellRenderer <|- - - Gnome::Gtk3::CellRendererProgress
Gnome::Gtk3::CellRenderer <|-right- Gnome::Gtk3::CellRendererSpinner
Gnome::Gtk3::CellRenderer <|-left- Gnome::Gtk3::CellRendererToggle

Gnome::Gtk3::CellRendererText <|-left- Gnome::Gtk3::CellRendererAccel
Gnome::Gtk3::CellRendererText <|- - Gnome::Gtk3::CellRendererCombo
Gnome::Gtk3::CellRendererText <|- - Gnome::Gtk3::CellRendererSpin

Gnome::Gtk3::CellRendererProgress ..|> Gnome::Gtk3::Orientable
@enduml

PlantUML version 1.2020.19(Mon Oct 12 17:10:01 CEST 2020)
(GPL source distribution)
Java Runtime: OpenJDK Runtime Environment
JVM: OpenJDK 64-Bit Server VM
Default Encoding: UTF-8
Language: en
Country: US
--></g></svg>