<?xml version="1.0" encoding="UTF-8" standalone="no"?><svg xmlns="http://www.w3.org/2000/svg" xmlns:xlink="http://www.w3.org/1999/xlink" contentScriptType="application/ecmascript" contentStyleType="text/css" height="500px" preserveAspectRatio="none" style="width:663px;height:500px;" version="1.1" viewBox="0 0 663 500" width="663px" zoomAndPan="magnify"><defs><filter height="300%" id="f1jlpctk771f2j" width="300%" x="-1" y="-1"><feGaussianBlur result="blurOut" stdDeviation="2.0"/><feColorMatrix in="blurOut" result="blurOut2" type="matrix" values="0 0 0 0 0 0 0 0 0 0 0 0 0 0 0 0 0 0 .4 0"/><feOffset dx="4.0" dy="4.0" in="blurOut2" result="blurOut3"/><feBlend in="SourceGraphic" in2="blurOut3" mode="normal"/></filter></defs><g><!--MD5=[b969295f0ec9b4fa482091c3e26049be]
cluster Gnome::N--><rect fill="#FFFFFF" filter="url(#f1jlpctk771f2j)" height="83" style="stroke: #000000; stroke-width: 1.5;" width="302" x="349" y="7"/><text fill="#000000" font-family="sans-serif" font-size="14" font-weight="bold" lengthAdjust="spacingAndGlyphs" textLength="79" x="460.5" y="21.9951">Gnome::N</text><!--MD5=[2fb3f9b624b0544b9841d5da78ec0508]
cluster Gnome::GObject--><rect fill="#FFFFFF" filter="url(#f1jlpctk771f2j)" height="175" style="stroke: #000000; stroke-width: 1.5;" width="271" x="281" y="114"/><text fill="#000000" font-family="sans-serif" font-size="14" font-weight="bold" lengthAdjust="spacingAndGlyphs" textLength="131" x="351" y="128.9951">Gnome::GObject</text><!--MD5=[7d67f77911969026863717fbb204e273]
cluster Gnome::Gtk3--><rect fill="#FFFFFF" filter="url(#f1jlpctk771f2j)" height="175" style="stroke: #000000; stroke-width: 1.5;" width="518" x="7" y="313"/><text fill="#000000" font-family="sans-serif" font-size="14" font-weight="bold" lengthAdjust="spacingAndGlyphs" textLength="105" x="213.5" y="327.9951">Gnome::Gtk3</text><!--MD5=[0b8e281ccd00c72019a31d78e9f95b5d]
class Gnome::N::TopLevelClassSupport--><rect codeLine="10" fill="#FEFECE" filter="url(#f1jlpctk771f2j)" height="32" id="Gnome::N::TopLevelClassSupport" style="stroke: #A80036; stroke-width: 1.5;" width="269" x="365.5" y="42"/><ellipse cx="380.5" cy="58" fill="#80FFFF" rx="11" ry="11" style="stroke: #A80036; stroke-width: 1.0;"/><path d="M383.4688,63.6406 Q382.8906,63.9375 382.25,64.0781 Q381.6094,64.2344 380.9063,64.2344 Q378.4063,64.2344 377.0781,62.5938 Q375.7656,60.9375 375.7656,57.8125 Q375.7656,54.6875 377.0781,53.0313 Q378.4063,51.375 380.9063,51.375 Q381.6094,51.375 382.25,51.5313 Q382.9063,51.6875 383.4688,51.9844 L383.4688,54.7031 Q382.8438,54.125 382.25,53.8594 Q381.6563,53.5781 381.0313,53.5781 Q379.6875,53.5781 379,54.6563 Q378.3125,55.7188 378.3125,57.8125 Q378.3125,59.9063 379,60.9844 Q379.6875,62.0469 381.0313,62.0469 Q381.6563,62.0469 382.25,61.7813 Q382.8438,61.5 383.4688,60.9219 L383.4688,63.6406 Z "/><text fill="#000000" font-family="sans-serif" font-size="12" lengthAdjust="spacingAndGlyphs" textLength="137" x="394.5" y="62.1543">TopLevelClassSupport</text><rect fill="#FFFFFF" height="15.9688" style="stroke: #000000; stroke-width: 1.0; stroke-dasharray: 2.0,2.0;" width="98" x="539.5" y="39"/><text fill="#000000" font-family="sans-serif" font-size="12" font-style="italic" lengthAdjust="spacingAndGlyphs" textLength="88" x="544.5" y="51.1387">Catch all class</text><!--MD5=[52303d185de782118d4739c052001bf2]
class Gnome::GObject::Signal--><rect codeLine="13" fill="#FEFECE" filter="url(#f1jlpctk771f2j)" height="32" id="Gnome::GObject::Signal" style="stroke: #A80036; stroke-width: 1.5;" width="131" x="297.5" y="149"/><ellipse cx="312.5" cy="165" fill="#80FFFF" rx="11" ry="11" style="stroke: #A80036; stroke-width: 1.0;"/><path d="M313.7031,165.1406 Q314.0625,165.2188 314.3281,165.5 Q314.6094,165.7656 315,166.5469 L317.2344,171 L314.5469,171 L313.0469,167.875 Q312.9844,167.7344 312.875,167.5 Q312.2188,166.1094 311.3281,166.1094 L310.5469,166.1094 L310.5469,171 L308.1094,171 L308.1094,158.6094 L311.6406,158.6094 Q314.0313,158.6094 315.0625,159.4531 Q316.1094,160.2969 316.1094,162.2031 Q316.1094,163.4844 315.4844,164.25 Q314.875,165 313.7031,165.1406 Z M310.5469,160.6719 L310.5469,164.0469 L311.7031,164.0469 Q312.7188,164.0469 313.1406,163.6563 Q313.5781,163.25 313.5781,162.3438 Q313.5781,161.4531 313.1406,161.0625 Q312.7188,160.6719 311.7031,160.6719 L310.5469,160.6719 Z "/><text fill="#000000" font-family="sans-serif" font-size="12" lengthAdjust="spacingAndGlyphs" textLength="38" x="326.5" y="169.1543">Signal</text><rect fill="#FFFFFF" height="15.9688" style="stroke: #000000; stroke-width: 1.0; stroke-dasharray: 2.0,2.0;" width="59" x="372.5" y="146"/><text fill="#000000" font-family="sans-serif" font-size="12" font-style="italic" lengthAdjust="spacingAndGlyphs" textLength="57" x="373.5" y="158.1387">Interface</text><!--MD5=[c2016d28441601ceb0a74f47a4537d14]
class Gnome::GObject::Object--><rect fill="#FEFECE" filter="url(#f1jlpctk771f2j)" height="32" id="Gnome::GObject::Object" style="stroke: #A80036; stroke-width: 1.5;" width="72" x="464" y="149"/><ellipse cx="479" cy="165" fill="#80FFFF" rx="11" ry="11" style="stroke: #A80036; stroke-width: 1.0;"/><path d="M481.9688,170.6406 Q481.3906,170.9375 480.75,171.0781 Q480.1094,171.2344 479.4063,171.2344 Q476.9063,171.2344 475.5781,169.5938 Q474.2656,167.9375 474.2656,164.8125 Q474.2656,161.6875 475.5781,160.0313 Q476.9063,158.375 479.4063,158.375 Q480.1094,158.375 480.75,158.5313 Q481.4063,158.6875 481.9688,158.9844 L481.9688,161.7031 Q481.3438,161.125 480.75,160.8594 Q480.1563,160.5781 479.5313,160.5781 Q478.1875,160.5781 477.5,161.6563 Q476.8125,162.7188 476.8125,164.8125 Q476.8125,166.9063 477.5,167.9844 Q478.1875,169.0469 479.5313,169.0469 Q480.1563,169.0469 480.75,168.7813 Q481.3438,168.5 481.9688,167.9219 L481.9688,170.6406 Z "/><text fill="#000000" font-family="sans-serif" font-size="12" lengthAdjust="spacingAndGlyphs" textLength="40" x="493" y="169.1543">Object</text><!--MD5=[f47b9a4a06d3f9bed948fa39f8c5540e]
class Gnome::GObject::InitialyUnowned--><rect fill="#FEFECE" filter="url(#f1jlpctk771f2j)" height="32" id="Gnome::GObject::InitialyUnowned" style="stroke: #A80036; stroke-width: 1.5;" width="129" x="406.5" y="241"/><ellipse cx="421.5" cy="257" fill="#80FFFF" rx="11" ry="11" style="stroke: #A80036; stroke-width: 1.0;"/><path d="M424.4688,262.6406 Q423.8906,262.9375 423.25,263.0781 Q422.6094,263.2344 421.9063,263.2344 Q419.4063,263.2344 418.0781,261.5938 Q416.7656,259.9375 416.7656,256.8125 Q416.7656,253.6875 418.0781,252.0313 Q419.4063,250.375 421.9063,250.375 Q422.6094,250.375 423.25,250.5313 Q423.9063,250.6875 424.4688,250.9844 L424.4688,253.7031 Q423.8438,253.125 423.25,252.8594 Q422.6563,252.5781 422.0313,252.5781 Q420.6875,252.5781 420,253.6563 Q419.3125,254.7188 419.3125,256.8125 Q419.3125,258.9063 420,259.9844 Q420.6875,261.0469 422.0313,261.0469 Q422.6563,261.0469 423.25,260.7813 Q423.8438,260.5 424.4688,259.9219 L424.4688,262.6406 Z "/><text fill="#000000" font-family="sans-serif" font-size="12" lengthAdjust="spacingAndGlyphs" textLength="97" x="435.5" y="261.1543">InitialyUnowned</text><!--MD5=[fc528952aa489a9a9f8514412a46a5d5]
class Gnome::Gtk3::Buildable--><rect codeLine="16" fill="#FEFECE" filter="url(#f1jlpctk771f2j)" height="32" id="Gnome::Gtk3::Buildable" style="stroke: #A80036; stroke-width: 1.5;" width="150" x="359" y="440"/><ellipse cx="374" cy="456" fill="#80FFFF" rx="11" ry="11" style="stroke: #A80036; stroke-width: 1.0;"/><path d="M375.2031,456.1406 Q375.5625,456.2188 375.8281,456.5 Q376.1094,456.7656 376.5,457.5469 L378.7344,462 L376.0469,462 L374.5469,458.875 Q374.4844,458.7344 374.375,458.5 Q373.7188,457.1094 372.8281,457.1094 L372.0469,457.1094 L372.0469,462 L369.6094,462 L369.6094,449.6094 L373.1406,449.6094 Q375.5313,449.6094 376.5625,450.4531 Q377.6094,451.2969 377.6094,453.2031 Q377.6094,454.4844 376.9844,455.25 Q376.375,456 375.2031,456.1406 Z M372.0469,451.6719 L372.0469,455.0469 L373.2031,455.0469 Q374.2188,455.0469 374.6406,454.6563 Q375.0781,454.25 375.0781,453.3438 Q375.0781,452.4531 374.6406,452.0625 Q374.2188,451.6719 373.2031,451.6719 L372.0469,451.6719 Z "/><text fill="#000000" font-family="sans-serif" font-size="12" lengthAdjust="spacingAndGlyphs" textLength="57" x="388" y="460.1543">Buildable</text><rect fill="#FFFFFF" height="15.9688" style="stroke: #000000; stroke-width: 1.0; stroke-dasharray: 2.0,2.0;" width="59" x="453" y="437"/><text fill="#000000" font-family="sans-serif" font-size="12" font-style="italic" lengthAdjust="spacingAndGlyphs" textLength="57" x="454" y="449.1387">Interface</text><!--MD5=[865b113cd38444117c4dca48a702f1ee]
class Gnome::Gtk3::Orientable--><rect codeLine="19" fill="#FEFECE" filter="url(#f1jlpctk771f2j)" height="32" id="Gnome::Gtk3::Orientable" style="stroke: #A80036; stroke-width: 1.5;" width="158" x="23" y="348"/><ellipse cx="38" cy="364" fill="#80FFFF" rx="11" ry="11" style="stroke: #A80036; stroke-width: 1.0;"/><path d="M39.2031,364.1406 Q39.5625,364.2188 39.8281,364.5 Q40.1094,364.7656 40.5,365.5469 L42.7344,370 L40.0469,370 L38.5469,366.875 Q38.4844,366.7344 38.375,366.5 Q37.7188,365.1094 36.8281,365.1094 L36.0469,365.1094 L36.0469,370 L33.6094,370 L33.6094,357.6094 L37.1406,357.6094 Q39.5313,357.6094 40.5625,358.4531 Q41.6094,359.2969 41.6094,361.2031 Q41.6094,362.4844 40.9844,363.25 Q40.375,364 39.2031,364.1406 Z M36.0469,359.6719 L36.0469,363.0469 L37.2031,363.0469 Q38.2188,363.0469 38.6406,362.6563 Q39.0781,362.25 39.0781,361.3438 Q39.0781,360.4531 38.6406,360.0625 Q38.2188,359.6719 37.2031,359.6719 L36.0469,359.6719 Z "/><text fill="#000000" font-family="sans-serif" font-size="12" lengthAdjust="spacingAndGlyphs" textLength="65" x="52" y="368.1543">Orientable</text><rect fill="#FFFFFF" height="15.9688" style="stroke: #000000; stroke-width: 1.0; stroke-dasharray: 2.0,2.0;" width="59" x="125" y="345"/><text fill="#000000" font-family="sans-serif" font-size="12" font-style="italic" lengthAdjust="spacingAndGlyphs" textLength="57" x="126" y="357.1387">Interface</text><!--MD5=[99c1fd59bdfde6048aec9e6766dd53ef]
class Gnome::Gtk3::Widget--><rect fill="#FEFECE" filter="url(#f1jlpctk771f2j)" height="32" id="Gnome::Gtk3::Widget" style="stroke: #A80036; stroke-width: 1.5;" width="75" x="433.5" y="348"/><ellipse cx="448.5" cy="364" fill="#80FFFF" rx="11" ry="11" style="stroke: #A80036; stroke-width: 1.0;"/><path d="M451.4688,369.6406 Q450.8906,369.9375 450.25,370.0781 Q449.6094,370.2344 448.9063,370.2344 Q446.4063,370.2344 445.0781,368.5938 Q443.7656,366.9375 443.7656,363.8125 Q443.7656,360.6875 445.0781,359.0313 Q446.4063,357.375 448.9063,357.375 Q449.6094,357.375 450.25,357.5313 Q450.9063,357.6875 451.4688,357.9844 L451.4688,360.7031 Q450.8438,360.125 450.25,359.8594 Q449.6563,359.5781 449.0313,359.5781 Q447.6875,359.5781 447,360.6563 Q446.3125,361.7188 446.3125,363.8125 Q446.3125,365.9063 447,366.9844 Q447.6875,368.0469 449.0313,368.0469 Q449.6563,368.0469 450.25,367.7813 Q450.8438,367.5 451.4688,366.9219 L451.4688,369.6406 Z "/><text fill="#000000" font-family="sans-serif" font-size="12" lengthAdjust="spacingAndGlyphs" textLength="43" x="462.5" y="368.1543">Widget</text><!--MD5=[9e3cc955f682d05594420e46d2e4e3ea]
class Gnome::Gtk3::Container--><rect fill="#FEFECE" filter="url(#f1jlpctk771f2j)" height="32" id="Gnome::Gtk3::Container" style="stroke: #A80036; stroke-width: 1.5;" width="93" x="305.5" y="348"/><ellipse cx="320.5" cy="364" fill="#80FFFF" rx="11" ry="11" style="stroke: #A80036; stroke-width: 1.0;"/><path d="M323.4688,369.6406 Q322.8906,369.9375 322.25,370.0781 Q321.6094,370.2344 320.9063,370.2344 Q318.4063,370.2344 317.0781,368.5938 Q315.7656,366.9375 315.7656,363.8125 Q315.7656,360.6875 317.0781,359.0313 Q318.4063,357.375 320.9063,357.375 Q321.6094,357.375 322.25,357.5313 Q322.9063,357.6875 323.4688,357.9844 L323.4688,360.7031 Q322.8438,360.125 322.25,359.8594 Q321.6563,359.5781 321.0313,359.5781 Q319.6875,359.5781 319,360.6563 Q318.3125,361.7188 318.3125,363.8125 Q318.3125,365.9063 319,366.9844 Q319.6875,368.0469 321.0313,368.0469 Q321.6563,368.0469 322.25,367.7813 Q322.8438,367.5 323.4688,366.9219 L323.4688,369.6406 Z "/><text fill="#000000" font-family="sans-serif" font-size="12" lengthAdjust="spacingAndGlyphs" textLength="61" x="334.5" y="368.1543">Container</text><!--MD5=[1a4770efc7afe469e38e2fcdc96960c5]
class Gnome::Gtk3::Box--><rect fill="#FEFECE" filter="url(#f1jlpctk771f2j)" height="32" id="Gnome::Gtk3::Box" style="stroke: #A80036; stroke-width: 1.5;" width="54" x="216" y="348"/><ellipse cx="231" cy="364" fill="#80FFFF" rx="11" ry="11" style="stroke: #A80036; stroke-width: 1.0;"/><path d="M233.9688,369.6406 Q233.3906,369.9375 232.75,370.0781 Q232.1094,370.2344 231.4063,370.2344 Q228.9063,370.2344 227.5781,368.5938 Q226.2656,366.9375 226.2656,363.8125 Q226.2656,360.6875 227.5781,359.0313 Q228.9063,357.375 231.4063,357.375 Q232.1094,357.375 232.75,357.5313 Q233.4063,357.6875 233.9688,357.9844 L233.9688,360.7031 Q233.3438,360.125 232.75,359.8594 Q232.1563,359.5781 231.5313,359.5781 Q230.1875,359.5781 229.5,360.6563 Q228.8125,361.7188 228.8125,363.8125 Q228.8125,365.9063 229.5,366.9844 Q230.1875,368.0469 231.5313,368.0469 Q232.1563,368.0469 232.75,367.7813 Q233.3438,367.5 233.9688,366.9219 L233.9688,369.6406 Z "/><text fill="#000000" font-family="sans-serif" font-size="12" lengthAdjust="spacingAndGlyphs" textLength="22" x="245" y="368.1543">Box</text><!--MD5=[33b1132648775d6463a5ba596eb57913]
class Gnome::Gtk3::ColorChooserWidget--><rect fill="#FEFECE" filter="url(#f1jlpctk771f2j)" height="32" id="Gnome::Gtk3::ColorChooserWidget" style="stroke: #A80036; stroke-width: 1.5;" width="159" x="163.5" y="440"/><ellipse cx="178.5" cy="456" fill="#80FFFF" rx="11" ry="11" style="stroke: #A80036; stroke-width: 1.0;"/><path d="M181.4688,461.6406 Q180.8906,461.9375 180.25,462.0781 Q179.6094,462.2344 178.9063,462.2344 Q176.4063,462.2344 175.0781,460.5938 Q173.7656,458.9375 173.7656,455.8125 Q173.7656,452.6875 175.0781,451.0313 Q176.4063,449.375 178.9063,449.375 Q179.6094,449.375 180.25,449.5313 Q180.9063,449.6875 181.4688,449.9844 L181.4688,452.7031 Q180.8438,452.125 180.25,451.8594 Q179.6563,451.5781 179.0313,451.5781 Q177.6875,451.5781 177,452.6563 Q176.3125,453.7188 176.3125,455.8125 Q176.3125,457.9063 177,458.9844 Q177.6875,460.0469 179.0313,460.0469 Q179.6563,460.0469 180.25,459.7813 Q180.8438,459.5 181.4688,458.9219 L181.4688,461.6406 Z "/><text fill="#000000" font-family="sans-serif" font-size="12" lengthAdjust="spacingAndGlyphs" textLength="127" x="192.5" y="460.1543">ColorChooserWidget</text><!--MD5=[e23b679cf607d12ac81e9c5301595709]
reverse link Gnome::N::TopLevelClassSupport to Gnome::GObject::Object--><path codeLine="23" d="M500,94.1 C500,112.76 500,134.73 500,148.98 " fill="none" id="Gnome::N::TopLevelClassSupport-backto-Gnome::GObject::Object" style="stroke: #A80036; stroke-width: 1.0;"/><polygon fill="none" points="493,94.04,500,74.04,507,94.04,493,94.04" style="stroke: #A80036; stroke-width: 1.0;"/><!--MD5=[aa49dbc803ccf1c2ef8546b297b1dcfd]
reverse link Gnome::GObject::InitialyUnowned to Gnome::Gtk3::Widget--><path codeLine="24" d="M471,293.1 C471,311.76 471,333.73 471,347.98 " fill="none" id="Gnome::GObject::InitialyUnowned-backto-Gnome::Gtk3::Widget" style="stroke: #A80036; stroke-width: 1.0;"/><polygon fill="none" points="464,293.04,471,273.04,478,293.04,464,293.04" style="stroke: #A80036; stroke-width: 1.0;"/><!--MD5=[e1568b3b4ceade3a3349f45f19b4c32a]
link Gnome::Gtk3::Widget to Gnome::Gtk3::Buildable--><path codeLine="25" d="M464.72,380.27 C460.12,391.45 453.7,407.08 447.92,421.15 " fill="none" id="Gnome::Gtk3::Widget-to-Gnome::Gtk3::Buildable" style="stroke: #A80036; stroke-width: 1.0; stroke-dasharray: 7.0,7.0;"/><polygon fill="none" points="454.26,424.12,440.18,439.96,441.31,418.8,454.26,424.12" style="stroke: #A80036; stroke-width: 1.0;"/><!--MD5=[2e57c6084092ea441ae4a3f826779dd8]
reverse link Gnome::GObject::Object to Gnome::GObject::InitialyUnowned--><path codeLine="26" d="M488.84,200.63 C484.34,214.59 479.39,229.96 475.85,240.96 " fill="none" id="Gnome::GObject::Object-backto-Gnome::GObject::InitialyUnowned" style="stroke: #A80036; stroke-width: 1.0;"/><polygon fill="none" points="482.28,198.16,495.08,181.27,495.61,202.45,482.28,198.16" style="stroke: #A80036; stroke-width: 1.0;"/><!--MD5=[f8ffcf4587ba956cb48626a4231e4d21]
reverse link Gnome::GObject::Signal to Gnome::GObject::Object--><path codeLine="27" d="M448.77,165 C453.85,165 458.92,165 464,165 " fill="none" id="Gnome::GObject::Signal-backto-Gnome::GObject::Object" style="stroke: #A80036; stroke-width: 1.0; stroke-dasharray: 7.0,7.0;"/><polygon fill="none" points="448.56,172,428.56,165,448.56,158,448.56,172" style="stroke: #A80036; stroke-width: 1.0;"/><!--MD5=[aaf476f5d2312b98d0ee61e81272172c]
link Gnome::Gtk3::Container to Gnome::Gtk3::Widget--><path codeLine="29" d="M398.95,364 C403.69,364 408.43,364 413.17,364 " fill="none" id="Gnome::Gtk3::Container-to-Gnome::Gtk3::Widget" style="stroke: #A80036; stroke-width: 1.0;"/><polygon fill="none" points="413.29,357,433.29,364,413.29,371,413.29,357" style="stroke: #A80036; stroke-width: 1.0;"/><!--MD5=[b6e1396316cda9879a2d2856e93e7af0]
link Gnome::Gtk3::Box to Gnome::Gtk3::Container--><path codeLine="30" d="M270.25,364 C275.28,364 280.31,364 285.34,364 " fill="none" id="Gnome::Gtk3::Box-to-Gnome::Gtk3::Container" style="stroke: #A80036; stroke-width: 1.0;"/><polygon fill="none" points="285.38,357,305.38,364,285.38,371,285.38,357" style="stroke: #A80036; stroke-width: 1.0;"/><!--MD5=[fba9e00c5303c23e9d9423f7b7ec249c]
reverse link Gnome::Gtk3::Orientable to Gnome::Gtk3::Box--><path codeLine="31" d="M201.19,364 C206.09,364 210.99,364 215.89,364 " fill="none" id="Gnome::Gtk3::Orientable-backto-Gnome::Gtk3::Box" style="stroke: #A80036; stroke-width: 1.0; stroke-dasharray: 7.0,7.0;"/><polygon fill="none" points="201.04,371,181.04,364,201.04,357,201.04,371" style="stroke: #A80036; stroke-width: 1.0;"/><!--MD5=[4a0240af46a6eb32be8eacf20498f17f]
reverse link Gnome::Gtk3::Box to Gnome::Gtk3::ColorChooserWidget--><path codeLine="32" d="M243,385.62 C243,402.19 243,425.08 243,439.96 " fill="none" id="Gnome::Gtk3::Box-backto-Gnome::Gtk3::ColorChooserWidget" style="stroke: #A80036; stroke-width: 1.0;"/><polygon fill="#A80036" points="243,380.27,239,389.27,243,385.27,247,389.27,243,380.27" style="stroke: #A80036; stroke-width: 1.0;"/><!--MD5=[306b22e96815a503c0eebcc09ede1c40]
@startuml
'scale 0.9
skinparam packageStyle rectangle
skinparam stereotypeCBackgroundColor #80ffff
set namespaceSeparator ::
hide members


'Class and interface declarations
class Gnome::N::TopLevelClassSupport < Catch all class >

Interface Gnome::GObject::Signal <Interface>
class Gnome::GObject::Signal <<(R,#80ffff)>>

Interface Gnome::Gtk3::Buildable <Interface>
class Gnome::Gtk3::Buildable <<(R,#80ffff)>>

Interface Gnome::Gtk3::Orientable <Interface>
class Gnome::Gtk3::Orientable <<(R,#80ffff)>>


'Class connections
Gnome::N::TopLevelClassSupport <|- - Gnome::GObject::Object
Gnome::GObject::InitialyUnowned <|- - Gnome::Gtk3::Widget
Gnome::Gtk3::Widget ..|> Gnome::Gtk3::Buildable
Gnome::GObject::Object <|- - Gnome::GObject::InitialyUnowned
Gnome::GObject::Signal <|. Gnome::GObject::Object

Gnome::Gtk3::Container -|> Gnome::Gtk3::Widget
Gnome::Gtk3::Box -|> Gnome::Gtk3::Container
Gnome::Gtk3::Orientable <|. Gnome::Gtk3::Box
Gnome::Gtk3::Box <- - Gnome::Gtk3::ColorChooserWidget

@enduml

@startuml
skinparam packageStyle rectangle
skinparam stereotypeCBackgroundColor #80ffff
set namespaceSeparator ::
hide members


class Gnome::N::TopLevelClassSupport < Catch all class >

Interface Gnome::GObject::Signal <Interface>
class Gnome::GObject::Signal <<(R,#80ffff)>>

Interface Gnome::Gtk3::Buildable <Interface>
class Gnome::Gtk3::Buildable <<(R,#80ffff)>>

Interface Gnome::Gtk3::Orientable <Interface>
class Gnome::Gtk3::Orientable <<(R,#80ffff)>>


Gnome::N::TopLevelClassSupport <|- - Gnome::GObject::Object
Gnome::GObject::InitialyUnowned <|- - Gnome::Gtk3::Widget
Gnome::Gtk3::Widget ..|> Gnome::Gtk3::Buildable
Gnome::GObject::Object <|- - Gnome::GObject::InitialyUnowned
Gnome::GObject::Signal <|. Gnome::GObject::Object

Gnome::Gtk3::Container -|> Gnome::Gtk3::Widget
Gnome::Gtk3::Box -|> Gnome::Gtk3::Container
Gnome::Gtk3::Orientable <|. Gnome::Gtk3::Box
Gnome::Gtk3::Box <- - Gnome::Gtk3::ColorChooserWidget

@enduml

PlantUML version 1.2020.19(Mon Oct 12 17:10:01 CEST 2020)
(GPL source distribution)
Java Runtime: OpenJDK Runtime Environment
JVM: OpenJDK 64-Bit Server VM
Default Encoding: UTF-8
Language: en
Country: US
--></g></svg>