<?xml version="1.0" encoding="UTF-8" standalone="no"?><svg xmlns="http://www.w3.org/2000/svg" xmlns:xlink="http://www.w3.org/1999/xlink" contentScriptType="application/ecmascript" contentStyleType="text/css" height="462px" preserveAspectRatio="none" style="width:383px;height:462px;" version="1.1" viewBox="0 0 383 462" width="383px" zoomAndPan="magnify"><defs><filter height="300%" id="fpz7jjn18np19" width="300%" x="-1" y="-1"><feGaussianBlur result="blurOut" stdDeviation="2.0"/><feColorMatrix in="blurOut" result="blurOut2" type="matrix" values="0 0 0 0 0 0 0 0 0 0 0 0 0 0 0 0 0 0 .4 0"/><feOffset dx="4.0" dy="4.0" in="blurOut2" result="blurOut3"/><feBlend in="SourceGraphic" in2="blurOut3" mode="normal"/></filter></defs><g><!--cluster Gnome::N--><rect fill="#FFFFFF" filter="url(#fpz7jjn18np19)" height="67" style="stroke: #000000; stroke-width: 1.5;" width="286" x="80" y="16"/><text fill="#000000" font-family="sans-serif" font-size="14" font-weight="bold" lengthAdjust="spacingAndGlyphs" textLength="79" x="183.5" y="30.9951">Gnome::N</text><!--cluster Gnome::GObject--><rect fill="#FFFFFF" filter="url(#fpz7jjn18np19)" height="159" style="stroke: #000000; stroke-width: 1.5;" width="193" x="179" y="108"/><text fill="#000000" font-family="sans-serif" font-size="14" font-weight="bold" lengthAdjust="spacingAndGlyphs" textLength="131" x="210" y="122.9951">Gnome::GObject</text><!--cluster Gnome::Gtk3--><rect fill="#FFFFFF" filter="url(#fpz7jjn18np19)" height="159" style="stroke: #000000; stroke-width: 1.5;" width="220" x="14" y="292"/><text fill="#000000" font-family="sans-serif" font-size="14" font-weight="bold" lengthAdjust="spacingAndGlyphs" textLength="105" x="71.5" y="306.9951">Gnome::Gtk3</text><!--class Gnome::N::TopLevelClassSupport--><rect fill="#FEFECE" filter="url(#fpz7jjn18np19)" height="32" id="Gnome::N::TopLevelClassSupport" style="stroke: #A80036; stroke-width: 1.5;" width="269" x="88.5" y="43"/><ellipse cx="103.5" cy="59" fill="#80FFFF" rx="11" ry="11" style="stroke: #A80036; stroke-width: 1.0;"/><path d="M106.4688,64.6406 Q105.8906,64.9375 105.25,65.0781 Q104.6094,65.2344 103.9063,65.2344 Q101.4063,65.2344 100.0781,63.5938 Q98.7656,61.9375 98.7656,58.8125 Q98.7656,55.6875 100.0781,54.0313 Q101.4063,52.375 103.9063,52.375 Q104.6094,52.375 105.25,52.5313 Q105.9063,52.6875 106.4688,52.9844 L106.4688,55.7031 Q105.8438,55.125 105.25,54.8594 Q104.6563,54.5781 104.0313,54.5781 Q102.6875,54.5781 102,55.6563 Q101.3125,56.7188 101.3125,58.8125 Q101.3125,60.9063 102,61.9844 Q102.6875,63.0469 104.0313,63.0469 Q104.6563,63.0469 105.25,62.7813 Q105.8438,62.5 106.4688,61.9219 L106.4688,64.6406 Z "/><text fill="#000000" font-family="sans-serif" font-size="12" lengthAdjust="spacingAndGlyphs" textLength="137" x="117.5" y="63.1807">TopLevelClassSupport</text><rect fill="#FFFFFF" height="15.9688" style="stroke: #000000; stroke-width: 1.0; stroke-dasharray: 2.0,2.0;" width="98" x="262.5" y="40"/><text fill="#000000" font-family="sans-serif" font-size="12" font-style="italic" lengthAdjust="spacingAndGlyphs" textLength="88" x="267.5" y="52.1387">Catch all class</text><!--class Gnome::GObject::Object--><rect fill="#FEFECE" filter="url(#fpz7jjn18np19)" height="32" id="Gnome::GObject::Object" style="stroke: #A80036; stroke-width: 1.5;" width="72" x="187" y="135"/><ellipse cx="202" cy="151" fill="#80FFFF" rx="11" ry="11" style="stroke: #A80036; stroke-width: 1.0;"/><path d="M204.9688,156.6406 Q204.3906,156.9375 203.75,157.0781 Q203.1094,157.2344 202.4063,157.2344 Q199.9063,157.2344 198.5781,155.5938 Q197.2656,153.9375 197.2656,150.8125 Q197.2656,147.6875 198.5781,146.0313 Q199.9063,144.375 202.4063,144.375 Q203.1094,144.375 203.75,144.5313 Q204.4063,144.6875 204.9688,144.9844 L204.9688,147.7031 Q204.3438,147.125 203.75,146.8594 Q203.1563,146.5781 202.5313,146.5781 Q201.1875,146.5781 200.5,147.6563 Q199.8125,148.7188 199.8125,150.8125 Q199.8125,152.9063 200.5,153.9844 Q201.1875,155.0469 202.5313,155.0469 Q203.1563,155.0469 203.75,154.7813 Q204.3438,154.5 204.9688,153.9219 L204.9688,156.6406 Z "/><text fill="#000000" font-family="sans-serif" font-size="12" lengthAdjust="spacingAndGlyphs" textLength="40" x="216" y="155.1807">Object</text><!--class Gnome::GObject::InitialyUnowned--><rect fill="#FEFECE" filter="url(#fpz7jjn18np19)" height="32" id="Gnome::GObject::InitialyUnowned" style="stroke: #A80036; stroke-width: 1.5;" width="129" x="187.5" y="227"/><ellipse cx="202.5" cy="243" fill="#80FFFF" rx="11" ry="11" style="stroke: #A80036; stroke-width: 1.0;"/><path d="M205.4688,248.6406 Q204.8906,248.9375 204.25,249.0781 Q203.6094,249.2344 202.9063,249.2344 Q200.4063,249.2344 199.0781,247.5938 Q197.7656,245.9375 197.7656,242.8125 Q197.7656,239.6875 199.0781,238.0313 Q200.4063,236.375 202.9063,236.375 Q203.6094,236.375 204.25,236.5313 Q204.9063,236.6875 205.4688,236.9844 L205.4688,239.7031 Q204.8438,239.125 204.25,238.8594 Q203.6563,238.5781 203.0313,238.5781 Q201.6875,238.5781 201,239.6563 Q200.3125,240.7188 200.3125,242.8125 Q200.3125,244.9063 201,245.9844 Q201.6875,247.0469 203.0313,247.0469 Q203.6563,247.0469 204.25,246.7813 Q204.8438,246.5 205.4688,245.9219 L205.4688,248.6406 Z "/><text fill="#000000" font-family="sans-serif" font-size="12" lengthAdjust="spacingAndGlyphs" textLength="97" x="216.5" y="247.1807">InitialyUnowned</text><!--class Gnome::GObject::Signal--><rect fill="#FEFECE" filter="url(#fpz7jjn18np19)" height="32" id="Gnome::GObject::Signal" style="stroke: #A80036; stroke-width: 1.5;" width="70" x="294" y="135"/><ellipse cx="309" cy="151" fill="#80FFFF" rx="11" ry="11" style="stroke: #A80036; stroke-width: 1.0;"/><path d="M311.9688,156.6406 Q311.3906,156.9375 310.75,157.0781 Q310.1094,157.2344 309.4063,157.2344 Q306.9063,157.2344 305.5781,155.5938 Q304.2656,153.9375 304.2656,150.8125 Q304.2656,147.6875 305.5781,146.0313 Q306.9063,144.375 309.4063,144.375 Q310.1094,144.375 310.75,144.5313 Q311.4063,144.6875 311.9688,144.9844 L311.9688,147.7031 Q311.3438,147.125 310.75,146.8594 Q310.1563,146.5781 309.5313,146.5781 Q308.1875,146.5781 307.5,147.6563 Q306.8125,148.7188 306.8125,150.8125 Q306.8125,152.9063 307.5,153.9844 Q308.1875,155.0469 309.5313,155.0469 Q310.1563,155.0469 310.75,154.7813 Q311.3438,154.5 311.9688,153.9219 L311.9688,156.6406 Z "/><text fill="#000000" font-family="sans-serif" font-size="12" lengthAdjust="spacingAndGlyphs" textLength="38" x="323" y="155.1807">Signal</text><!--class Gnome::Gtk3::Widget--><rect fill="#FEFECE" filter="url(#fpz7jjn18np19)" height="32" id="Gnome::Gtk3::Widget" style="stroke: #A80036; stroke-width: 1.5;" width="75" x="150.5" y="411"/><ellipse cx="165.5" cy="427" fill="#80FFFF" rx="11" ry="11" style="stroke: #A80036; stroke-width: 1.0;"/><path d="M168.4688,432.6406 Q167.8906,432.9375 167.25,433.0781 Q166.6094,433.2344 165.9063,433.2344 Q163.4063,433.2344 162.0781,431.5938 Q160.7656,429.9375 160.7656,426.8125 Q160.7656,423.6875 162.0781,422.0313 Q163.4063,420.375 165.9063,420.375 Q166.6094,420.375 167.25,420.5313 Q167.9063,420.6875 168.4688,420.9844 L168.4688,423.7031 Q167.8438,423.125 167.25,422.8594 Q166.6563,422.5781 166.0313,422.5781 Q164.6875,422.5781 164,423.6563 Q163.3125,424.7188 163.3125,426.8125 Q163.3125,428.9063 164,429.9844 Q164.6875,431.0469 166.0313,431.0469 Q166.6563,431.0469 167.25,430.7813 Q167.8438,430.5 168.4688,429.9219 L168.4688,432.6406 Z "/><text fill="#000000" font-family="sans-serif" font-size="12" lengthAdjust="spacingAndGlyphs" textLength="43" x="179.5" y="431.1807">Widget</text><!--class Gnome::Gtk3::Buildable--><rect fill="#FEFECE" filter="url(#fpz7jjn18np19)" height="32" id="Gnome::Gtk3::Buildable" style="stroke: #A80036; stroke-width: 1.5;" width="150" x="49" y="319"/><ellipse cx="64" cy="335" fill="#80FFFF" rx="11" ry="11" style="stroke: #A80036; stroke-width: 1.0;"/><path d="M65.2031,335.1406 Q65.5625,335.2188 65.8281,335.5 Q66.1094,335.7656 66.5,336.5469 L68.7344,341 L66.0469,341 L64.5469,337.875 Q64.4844,337.7344 64.375,337.5 Q63.7188,336.1094 62.8281,336.1094 L62.0469,336.1094 L62.0469,341 L59.6094,341 L59.6094,328.6094 L63.1406,328.6094 Q65.5313,328.6094 66.5625,329.4531 Q67.6094,330.2969 67.6094,332.2031 Q67.6094,333.4844 66.9844,334.25 Q66.375,335 65.2031,335.1406 Z M62.0469,330.6719 L62.0469,334.0469 L63.2031,334.0469 Q64.2188,334.0469 64.6406,333.6563 Q65.0781,333.25 65.0781,332.3438 Q65.0781,331.4531 64.6406,331.0625 Q64.2188,330.6719 63.2031,330.6719 L62.0469,330.6719 Z "/><text fill="#000000" font-family="sans-serif" font-size="12" lengthAdjust="spacingAndGlyphs" textLength="57" x="78" y="339.1807">Buildable</text><rect fill="#FFFFFF" height="15.9688" style="stroke: #000000; stroke-width: 1.0; stroke-dasharray: 2.0,2.0;" width="59" x="143" y="316"/><text fill="#000000" font-family="sans-serif" font-size="12" font-style="italic" lengthAdjust="spacingAndGlyphs" textLength="57" x="144" y="328.1387">Interface</text><!--class Gnome::Gtk3::Container--><rect fill="#FEFECE" filter="url(#fpz7jjn18np19)" height="32" id="Gnome::Gtk3::Container" style="stroke: #A80036; stroke-width: 1.5;" width="93" x="22.5" y="411"/><ellipse cx="37.5" cy="427" fill="#80FFFF" rx="11" ry="11" style="stroke: #A80036; stroke-width: 1.0;"/><path d="M40.4688,432.6406 Q39.8906,432.9375 39.25,433.0781 Q38.6094,433.2344 37.9063,433.2344 Q35.4063,433.2344 34.0781,431.5938 Q32.7656,429.9375 32.7656,426.8125 Q32.7656,423.6875 34.0781,422.0313 Q35.4063,420.375 37.9063,420.375 Q38.6094,420.375 39.25,420.5313 Q39.9063,420.6875 40.4688,420.9844 L40.4688,423.7031 Q39.8438,423.125 39.25,422.8594 Q38.6563,422.5781 38.0313,422.5781 Q36.6875,422.5781 36,423.6563 Q35.3125,424.7188 35.3125,426.8125 Q35.3125,428.9063 36,429.9844 Q36.6875,431.0469 38.0313,431.0469 Q38.6563,431.0469 39.25,430.7813 Q39.8438,430.5 40.4688,429.9219 L40.4688,432.6406 Z "/><text fill="#000000" font-family="sans-serif" font-size="12" lengthAdjust="spacingAndGlyphs" textLength="61" x="51.5" y="431.1807">Container</text><!--link Gnome::N::TopLevelClassSupport to Gnome::GObject::Object--><path d="M223,95.4048 C223,109.0788 223,123.9368 223,134.8498 " fill="none" id="Gnome::N::TopLevelClassSupport-Gnome::GObject::Object" style="stroke: #A80036; stroke-width: 1.0;"/><polygon fill="none" points="216.0001,95.0252,223,75.0252,230.0001,95.0251,216.0001,95.0252" style="stroke: #A80036; stroke-width: 1.0;"/><!--link Gnome::GObject::Object to Gnome::GObject::InitialyUnowned--><path d="M234.1645,186.4184 C238.5593,200.3605 243.3863,215.6738 246.9092,226.8498 " fill="none" id="Gnome::GObject::Object-Gnome::GObject::InitialyUnowned" style="stroke: #A80036; stroke-width: 1.0;"/><polygon fill="none" points="227.388,188.2044,228.0514,167.0252,240.7404,183.9955,227.388,188.2044" style="stroke: #A80036; stroke-width: 1.0;"/><!--link Gnome::GObject::Object to Gnome::GObject::Signal--><path d="M272.0415,151 C274.8666,151 277.6918,151 280.5169,151 " fill="none" id="Gnome::GObject::Object-Gnome::GObject::Signal" style="stroke: #A80036; stroke-width: 1.0;"/><polygon fill="#A80036" points="293.7384,151,284.7384,147,288.7384,151,284.7384,155,293.7384,151" style="stroke: #A80036; stroke-width: 1.0;"/><line style="stroke: #A80036; stroke-width: 1.0;" x1="288.7384" x2="280.7383" y1="151" y2="150.9999"/><polygon fill="#A80036" points="259.0234,151,265.0234,155,271.0234,151,265.0234,147,259.0234,151" style="stroke: #A80036; stroke-width: 1.0;"/><!--link Gnome::GObject::InitialyUnowned to Gnome::Gtk3::Widget--><path d="M240.5738,278.2023 C233.63,299.3593 224.493,326.7884 216,351 C208.7391,371.6993 199.93,395.393 194.1557,410.7452 " fill="none" id="Gnome::GObject::InitialyUnowned-Gnome::Gtk3::Widget" style="stroke: #A80036; stroke-width: 1.0;"/><polygon fill="none" points="233.9301,275.997,246.7892,259.1553,247.2394,280.3402,233.9301,275.997" style="stroke: #A80036; stroke-width: 1.0;"/><!--link Gnome::Gtk3::Buildable to Gnome::Gtk3::Widget--><path d="M146.6006,367.4884 C156.8195,382.178 168.4417,398.8849 176.7651,410.8498 " fill="none" id="Gnome::Gtk3::Buildable-Gnome::Gtk3::Widget" style="stroke: #A80036; stroke-width: 1.0; stroke-dasharray: 7.0,7.0;"/><polygon fill="none" points="140.8229,371.4408,135.1479,351.0252,152.3156,363.4458,140.8229,371.4408" style="stroke: #A80036; stroke-width: 1.0;"/><!--link Gnome::Gtk3::Container to Gnome::Gtk3::Widget--><path d="M115.9492,427 C120.6884,427 125.4276,427 130.1668,427 " fill="none" id="Gnome::Gtk3::Container-Gnome::Gtk3::Widget" style="stroke: #A80036; stroke-width: 1.0;"/><polygon fill="none" points="130.286,419.9999,150.2859,427,130.2859,433.9999,130.286,419.9999" style="stroke: #A80036; stroke-width: 1.0;"/><!--
@startuml
skinparam packageStyle rectangle
skinparam stereotypeCBackgroundColor #80ffff
set namespaceSeparator ::
hide members


class Gnome::N::TopLevelClassSupport < Catch all class >
Gnome::N::TopLevelClassSupport <|- - Gnome::GObject::Object

Gnome::GObject::Object <|- - Gnome::GObject::InitialyUnowned
Gnome::GObject::Object *-> Gnome::GObject::Signal

Gnome::GObject::InitialyUnowned <|- - - Gnome::Gtk3::Widget

class Gnome::Gtk3::Widget implements Gnome::Gtk3::Buildable
Interface Gnome::Gtk3::Buildable <Interface>
class Gnome::Gtk3::Buildable <<(R,#80ffff)>>

Gnome::Gtk3::Container -|> Gnome::Gtk3::Widget










@enduml

PlantUML version 1.2019.01(Sat Feb 09 16:32:04 CET 2019)
(LGPL source distribution)
Java Runtime: OpenJDK Runtime Environment
JVM: OpenJDK 64-Bit Server VM
Java Version: 1.8.0_265-b01
Operating System: Linux
OS Version: 5.8.8-100.fc31.x86_64
Default Encoding: UTF-8
Language: en
Country: null
--></g></svg>