<?xml version="1.0" encoding="UTF-8" standalone="no"?><svg xmlns="http://www.w3.org/2000/svg" xmlns:xlink="http://www.w3.org/1999/xlink" contentScriptType="application/ecmascript" contentStyleType="text/css" height="554px" preserveAspectRatio="none" style="width:525px;height:554px;" version="1.1" viewBox="0 0 525 554" width="525px" zoomAndPan="magnify"><defs><filter height="300%" id="f1tu0zczva9gpf" width="300%" x="-1" y="-1"><feGaussianBlur result="blurOut" stdDeviation="2.0"/><feColorMatrix in="blurOut" result="blurOut2" type="matrix" values="0 0 0 0 0 0 0 0 0 0 0 0 0 0 0 0 0 0 .4 0"/><feOffset dx="4.0" dy="4.0" in="blurOut2" result="blurOut3"/><feBlend in="SourceGraphic" in2="blurOut3" mode="normal"/></filter></defs><g><!--cluster Gnome::N--><rect fill="#FFFFFF" filter="url(#f1tu0zczva9gpf)" height="67" style="stroke: #000000; stroke-width: 1.5;" width="286" x="228" y="16"/><text fill="#000000" font-family="sans-serif" font-size="14" font-weight="bold" lengthAdjust="spacingAndGlyphs" textLength="79" x="331.5" y="30.9951">Gnome::N</text><!--cluster Gnome::GObject--><rect fill="#FFFFFF" filter="url(#f1tu0zczva9gpf)" height="251" style="stroke: #000000; stroke-width: 1.5;" width="148" x="178" y="108"/><text fill="#000000" font-family="sans-serif" font-size="14" font-weight="bold" lengthAdjust="spacingAndGlyphs" textLength="131" x="186.5" y="122.9951">Gnome::GObject</text><!--cluster Gnome::Gtk3--><rect fill="#FFFFFF" filter="url(#f1tu0zczva9gpf)" height="159" style="stroke: #000000; stroke-width: 1.5;" width="220" x="14" y="384"/><text fill="#000000" font-family="sans-serif" font-size="14" font-weight="bold" lengthAdjust="spacingAndGlyphs" textLength="105" x="71.5" y="398.9951">Gnome::Gtk3</text><!--class Gnome::N::TopLevelClassSupport--><rect fill="#FEFECE" filter="url(#f1tu0zczva9gpf)" height="32" id="Gnome::N::TopLevelClassSupport" style="stroke: #A80036; stroke-width: 1.5;" width="269" x="236.5" y="43"/><ellipse cx="251.5" cy="59" fill="#80FFFF" rx="11" ry="11" style="stroke: #A80036; stroke-width: 1.0;"/><path d="M254.4688,64.6406 Q253.8906,64.9375 253.25,65.0781 Q252.6094,65.2344 251.9063,65.2344 Q249.4063,65.2344 248.0781,63.5938 Q246.7656,61.9375 246.7656,58.8125 Q246.7656,55.6875 248.0781,54.0313 Q249.4063,52.375 251.9063,52.375 Q252.6094,52.375 253.25,52.5313 Q253.9063,52.6875 254.4688,52.9844 L254.4688,55.7031 Q253.8438,55.125 253.25,54.8594 Q252.6563,54.5781 252.0313,54.5781 Q250.6875,54.5781 250,55.6563 Q249.3125,56.7188 249.3125,58.8125 Q249.3125,60.9063 250,61.9844 Q250.6875,63.0469 252.0313,63.0469 Q252.6563,63.0469 253.25,62.7813 Q253.8438,62.5 254.4688,61.9219 L254.4688,64.6406 Z "/><text fill="#000000" font-family="sans-serif" font-size="12" lengthAdjust="spacingAndGlyphs" textLength="137" x="265.5" y="63.1807">TopLevelClassSupport</text><rect fill="#FFFFFF" height="15.9688" style="stroke: #000000; stroke-width: 1.0; stroke-dasharray: 2.0,2.0;" width="98" x="410.5" y="40"/><text fill="#000000" font-family="sans-serif" font-size="12" font-style="italic" lengthAdjust="spacingAndGlyphs" textLength="88" x="415.5" y="52.1387">Catch all class</text><!--class Gnome::GObject::Signal--><rect fill="#FEFECE" filter="url(#f1tu0zczva9gpf)" height="32" id="Gnome::GObject::Signal" style="stroke: #A80036; stroke-width: 1.5;" width="131" x="186.5" y="135"/><ellipse cx="201.5" cy="151" fill="#80FFFF" rx="11" ry="11" style="stroke: #A80036; stroke-width: 1.0;"/><path d="M202.7031,151.1406 Q203.0625,151.2188 203.3281,151.5 Q203.6094,151.7656 204,152.5469 L206.2344,157 L203.5469,157 L202.0469,153.875 Q201.9844,153.7344 201.875,153.5 Q201.2188,152.1094 200.3281,152.1094 L199.5469,152.1094 L199.5469,157 L197.1094,157 L197.1094,144.6094 L200.6406,144.6094 Q203.0313,144.6094 204.0625,145.4531 Q205.1094,146.2969 205.1094,148.2031 Q205.1094,149.4844 204.4844,150.25 Q203.875,151 202.7031,151.1406 Z M199.5469,146.6719 L199.5469,150.0469 L200.7031,150.0469 Q201.7188,150.0469 202.1406,149.6563 Q202.5781,149.25 202.5781,148.3438 Q202.5781,147.4531 202.1406,147.0625 Q201.7188,146.6719 200.7031,146.6719 L199.5469,146.6719 Z "/><text fill="#000000" font-family="sans-serif" font-size="12" lengthAdjust="spacingAndGlyphs" textLength="38" x="215.5" y="155.1807">Signal</text><rect fill="#FFFFFF" height="15.9688" style="stroke: #000000; stroke-width: 1.0; stroke-dasharray: 2.0,2.0;" width="59" x="261.5" y="132"/><text fill="#000000" font-family="sans-serif" font-size="12" font-style="italic" lengthAdjust="spacingAndGlyphs" textLength="57" x="262.5" y="144.1387">Interface</text><!--class Gnome::GObject::Object--><rect fill="#FEFECE" filter="url(#f1tu0zczva9gpf)" height="32" id="Gnome::GObject::Object" style="stroke: #A80036; stroke-width: 1.5;" width="72" x="216" y="227"/><ellipse cx="231" cy="243" fill="#80FFFF" rx="11" ry="11" style="stroke: #A80036; stroke-width: 1.0;"/><path d="M233.9688,248.6406 Q233.3906,248.9375 232.75,249.0781 Q232.1094,249.2344 231.4063,249.2344 Q228.9063,249.2344 227.5781,247.5938 Q226.2656,245.9375 226.2656,242.8125 Q226.2656,239.6875 227.5781,238.0313 Q228.9063,236.375 231.4063,236.375 Q232.1094,236.375 232.75,236.5313 Q233.4063,236.6875 233.9688,236.9844 L233.9688,239.7031 Q233.3438,239.125 232.75,238.8594 Q232.1563,238.5781 231.5313,238.5781 Q230.1875,238.5781 229.5,239.6563 Q228.8125,240.7188 228.8125,242.8125 Q228.8125,244.9063 229.5,245.9844 Q230.1875,247.0469 231.5313,247.0469 Q232.1563,247.0469 232.75,246.7813 Q233.3438,246.5 233.9688,245.9219 L233.9688,248.6406 Z "/><text fill="#000000" font-family="sans-serif" font-size="12" lengthAdjust="spacingAndGlyphs" textLength="40" x="245" y="247.1807">Object</text><!--class Gnome::GObject::InitialyUnowned--><rect fill="#FEFECE" filter="url(#f1tu0zczva9gpf)" height="32" id="Gnome::GObject::InitialyUnowned" style="stroke: #A80036; stroke-width: 1.5;" width="129" x="187.5" y="319"/><ellipse cx="202.5" cy="335" fill="#80FFFF" rx="11" ry="11" style="stroke: #A80036; stroke-width: 1.0;"/><path d="M205.4688,340.6406 Q204.8906,340.9375 204.25,341.0781 Q203.6094,341.2344 202.9063,341.2344 Q200.4063,341.2344 199.0781,339.5938 Q197.7656,337.9375 197.7656,334.8125 Q197.7656,331.6875 199.0781,330.0313 Q200.4063,328.375 202.9063,328.375 Q203.6094,328.375 204.25,328.5313 Q204.9063,328.6875 205.4688,328.9844 L205.4688,331.7031 Q204.8438,331.125 204.25,330.8594 Q203.6563,330.5781 203.0313,330.5781 Q201.6875,330.5781 201,331.6563 Q200.3125,332.7188 200.3125,334.8125 Q200.3125,336.9063 201,337.9844 Q201.6875,339.0469 203.0313,339.0469 Q203.6563,339.0469 204.25,338.7813 Q204.8438,338.5 205.4688,337.9219 L205.4688,340.6406 Z "/><text fill="#000000" font-family="sans-serif" font-size="12" lengthAdjust="spacingAndGlyphs" textLength="97" x="216.5" y="339.1807">InitialyUnowned</text><!--class Gnome::Gtk3::Widget--><rect fill="#FEFECE" filter="url(#f1tu0zczva9gpf)" height="32" id="Gnome::Gtk3::Widget" style="stroke: #A80036; stroke-width: 1.5;" width="75" x="150.5" y="503"/><ellipse cx="165.5" cy="519" fill="#80FFFF" rx="11" ry="11" style="stroke: #A80036; stroke-width: 1.0;"/><path d="M168.4688,524.6406 Q167.8906,524.9375 167.25,525.0781 Q166.6094,525.2344 165.9063,525.2344 Q163.4063,525.2344 162.0781,523.5938 Q160.7656,521.9375 160.7656,518.8125 Q160.7656,515.6875 162.0781,514.0313 Q163.4063,512.375 165.9063,512.375 Q166.6094,512.375 167.25,512.5313 Q167.9063,512.6875 168.4688,512.9844 L168.4688,515.7031 Q167.8438,515.125 167.25,514.8594 Q166.6563,514.5781 166.0313,514.5781 Q164.6875,514.5781 164,515.6563 Q163.3125,516.7188 163.3125,518.8125 Q163.3125,520.9063 164,521.9844 Q164.6875,523.0469 166.0313,523.0469 Q166.6563,523.0469 167.25,522.7813 Q167.8438,522.5 168.4688,521.9219 L168.4688,524.6406 Z "/><text fill="#000000" font-family="sans-serif" font-size="12" lengthAdjust="spacingAndGlyphs" textLength="43" x="179.5" y="523.1807">Widget</text><!--class Gnome::Gtk3::Buildable--><rect fill="#FEFECE" filter="url(#f1tu0zczva9gpf)" height="32" id="Gnome::Gtk3::Buildable" style="stroke: #A80036; stroke-width: 1.5;" width="150" x="49" y="411"/><ellipse cx="64" cy="427" fill="#80FFFF" rx="11" ry="11" style="stroke: #A80036; stroke-width: 1.0;"/><path d="M65.2031,427.1406 Q65.5625,427.2188 65.8281,427.5 Q66.1094,427.7656 66.5,428.5469 L68.7344,433 L66.0469,433 L64.5469,429.875 Q64.4844,429.7344 64.375,429.5 Q63.7188,428.1094 62.8281,428.1094 L62.0469,428.1094 L62.0469,433 L59.6094,433 L59.6094,420.6094 L63.1406,420.6094 Q65.5313,420.6094 66.5625,421.4531 Q67.6094,422.2969 67.6094,424.2031 Q67.6094,425.4844 66.9844,426.25 Q66.375,427 65.2031,427.1406 Z M62.0469,422.6719 L62.0469,426.0469 L63.2031,426.0469 Q64.2188,426.0469 64.6406,425.6563 Q65.0781,425.25 65.0781,424.3438 Q65.0781,423.4531 64.6406,423.0625 Q64.2188,422.6719 63.2031,422.6719 L62.0469,422.6719 Z "/><text fill="#000000" font-family="sans-serif" font-size="12" lengthAdjust="spacingAndGlyphs" textLength="57" x="78" y="431.1807">Buildable</text><rect fill="#FFFFFF" height="15.9688" style="stroke: #000000; stroke-width: 1.0; stroke-dasharray: 2.0,2.0;" width="59" x="143" y="408"/><text fill="#000000" font-family="sans-serif" font-size="12" font-style="italic" lengthAdjust="spacingAndGlyphs" textLength="57" x="144" y="420.1387">Interface</text><!--class Gnome::Gtk3::Container--><rect fill="#FEFECE" filter="url(#f1tu0zczva9gpf)" height="32" id="Gnome::Gtk3::Container" style="stroke: #A80036; stroke-width: 1.5;" width="93" x="22.5" y="503"/><ellipse cx="37.5" cy="519" fill="#80FFFF" rx="11" ry="11" style="stroke: #A80036; stroke-width: 1.0;"/><path d="M40.4688,524.6406 Q39.8906,524.9375 39.25,525.0781 Q38.6094,525.2344 37.9063,525.2344 Q35.4063,525.2344 34.0781,523.5938 Q32.7656,521.9375 32.7656,518.8125 Q32.7656,515.6875 34.0781,514.0313 Q35.4063,512.375 37.9063,512.375 Q38.6094,512.375 39.25,512.5313 Q39.9063,512.6875 40.4688,512.9844 L40.4688,515.7031 Q39.8438,515.125 39.25,514.8594 Q38.6563,514.5781 38.0313,514.5781 Q36.6875,514.5781 36,515.6563 Q35.3125,516.7188 35.3125,518.8125 Q35.3125,520.9063 36,521.9844 Q36.6875,523.0469 38.0313,523.0469 Q38.6563,523.0469 39.25,522.7813 Q39.8438,522.5 40.4688,521.9219 L40.4688,524.6406 Z "/><text fill="#000000" font-family="sans-serif" font-size="12" lengthAdjust="spacingAndGlyphs" textLength="61" x="51.5" y="523.1807">Container</text><!--link Gnome::Gtk3::Buildable to Gnome::Gtk3::Widget--><path d="M146.6006,459.4884 C156.8195,474.178 168.4417,490.8849 176.7651,502.8498 " fill="none" id="Gnome::Gtk3::Buildable-Gnome::Gtk3::Widget" style="stroke: #A80036; stroke-width: 1.0; stroke-dasharray: 7.0,7.0;"/><polygon fill="none" points="140.8229,463.4408,135.1479,443.0252,152.3156,455.4458,140.8229,463.4408" style="stroke: #A80036; stroke-width: 1.0;"/><!--link Gnome::N::TopLevelClassSupport to Gnome::GObject::Object--><path d="M363.9322,94.6906 C358.4316,116.7659 349.2812,144.9903 335,167 C319.2604,191.2573 293.9788,212.8684 275.4487,226.7856 " fill="none" id="Gnome::N::TopLevelClassSupport-Gnome::GObject::Object" style="stroke: #A80036; stroke-width: 1.0;"/><polygon fill="none" points="357.1074,93.1333,368.271,75.1229,370.7754,96.164,357.1074,93.1333" style="stroke: #A80036; stroke-width: 1.0;"/><!--link Gnome::GObject::InitialyUnowned to Gnome::Gtk3::Widget--><path d="M240.5738,370.2023 C233.63,391.3593 224.493,418.7884 216,443 C208.7391,463.6993 199.93,487.393 194.1557,502.7452 " fill="none" id="Gnome::GObject::InitialyUnowned-Gnome::Gtk3::Widget" style="stroke: #A80036; stroke-width: 1.0;"/><polygon fill="none" points="233.9301,367.997,246.7892,351.1553,247.2394,372.3402,233.9301,367.997" style="stroke: #A80036; stroke-width: 1.0;"/><!--link Gnome::GObject::Object to Gnome::GObject::InitialyUnowned--><path d="M252,279.4048 C252,293.0788 252,307.9368 252,318.8498 " fill="none" id="Gnome::GObject::Object-Gnome::GObject::InitialyUnowned" style="stroke: #A80036; stroke-width: 1.0;"/><polygon fill="none" points="245.0001,279.0252,252,259.0252,259.0001,279.0251,245.0001,279.0252" style="stroke: #A80036; stroke-width: 1.0;"/><!--link Gnome::GObject::Signal to Gnome::GObject::Object--><path d="M252,187.4048 C252,201.0788 252,215.9368 252,226.8498 " fill="none" id="Gnome::GObject::Signal-Gnome::GObject::Object" style="stroke: #A80036; stroke-width: 1.0; stroke-dasharray: 7.0,7.0;"/><polygon fill="none" points="245.0001,187.0252,252,167.0252,259.0001,187.0251,245.0001,187.0252" style="stroke: #A80036; stroke-width: 1.0;"/><!--link Gnome::Gtk3::Container to Gnome::Gtk3::Widget--><path d="M115.9492,519 C120.6884,519 125.4276,519 130.1668,519 " fill="none" id="Gnome::Gtk3::Container-Gnome::Gtk3::Widget" style="stroke: #A80036; stroke-width: 1.0;"/><polygon fill="none" points="130.286,511.9999,150.2859,519,130.2859,525.9999,130.286,511.9999" style="stroke: #A80036; stroke-width: 1.0;"/><!--
@startuml
skinparam packageStyle rectangle
skinparam stereotypeCBackgroundColor #80ffff
set namespaceSeparator ::
hide members


class Gnome::N::TopLevelClassSupport < Catch all class >

Interface Gnome::GObject::Signal <Interface>
class Gnome::GObject::Signal <<(R,#80ffff)>>



class Gnome::Gtk3::Widget implements Gnome::Gtk3::Buildable
Interface Gnome::Gtk3::Buildable <Interface>
class Gnome::Gtk3::Buildable <<(R,#80ffff)>>

Gnome::N::TopLevelClassSupport <|- - - Gnome::GObject::Object
Gnome::GObject::InitialyUnowned <|- - - Gnome::Gtk3::Widget
Gnome::GObject::Object <|- - Gnome::GObject::InitialyUnowned
Gnome::GObject::Signal <|.. Gnome::GObject::Object

Gnome::Gtk3::Container -|> Gnome::Gtk3::Widget










@enduml

PlantUML version 1.2019.01(Sat Feb 09 16:32:04 CET 2019)
(LGPL source distribution)
Java Runtime: OpenJDK Runtime Environment
JVM: OpenJDK 64-Bit Server VM
Java Version: 1.8.0_265-b01
Operating System: Linux
OS Version: 5.8.8-100.fc31.x86_64
Default Encoding: UTF-8
Language: en
Country: null
--></g></svg>