<?xml version="1.0" encoding="UTF-8" standalone="no"?><svg xmlns="http://www.w3.org/2000/svg" xmlns:xlink="http://www.w3.org/1999/xlink" contentScriptType="application/ecmascript" contentStyleType="text/css" height="408px" preserveAspectRatio="none" style="width:458px;height:408px;" version="1.1" viewBox="0 0 458 408" width="458px" zoomAndPan="magnify"><defs><filter height="300%" id="f1bv52nlhgu42m" width="300%" x="-1" y="-1"><feGaussianBlur result="blurOut" stdDeviation="2.0"/><feColorMatrix in="blurOut" result="blurOut2" type="matrix" values="0 0 0 0 0 0 0 0 0 0 0 0 0 0 0 0 0 0 .4 0"/><feOffset dx="4.0" dy="4.0" in="blurOut2" result="blurOut3"/><feBlend in="SourceGraphic" in2="blurOut3" mode="normal"/></filter></defs><g><!--MD5=[b969295f0ec9b4fa482091c3e26049be]
cluster Gnome::N--><rect fill="#FFFFFF" filter="url(#f1bv52nlhgu42m)" height="83" style="stroke: #000000; stroke-width: 1.5;" width="302" x="124" y="7"/><text fill="#000000" font-family="sans-serif" font-size="14" font-weight="bold" lengthAdjust="spacingAndGlyphs" textLength="79" x="235.5" y="21.9951">Gnome::N</text><!--MD5=[2fb3f9b624b0544b9841d5da78ec0508]
cluster Gnome::GObject--><rect fill="#FFFFFF" filter="url(#f1bv52nlhgu42m)" height="175" style="stroke: #000000; stroke-width: 1.5;" width="271" x="56" y="114"/><text fill="#000000" font-family="sans-serif" font-size="14" font-weight="bold" lengthAdjust="spacingAndGlyphs" textLength="131" x="126" y="128.9951">Gnome::GObject</text><!--MD5=[7d67f77911969026863717fbb204e273]
cluster Gnome::Gtk3--><rect fill="#FFFFFF" filter="url(#f1bv52nlhgu42m)" height="83" style="stroke: #000000; stroke-width: 1.5;" width="439" x="7" y="313"/><text fill="#000000" font-family="sans-serif" font-size="14" font-weight="bold" lengthAdjust="spacingAndGlyphs" textLength="105" x="174" y="327.9951">Gnome::Gtk3</text><!--MD5=[0b8e281ccd00c72019a31d78e9f95b5d]
class Gnome::N::TopLevelClassSupport--><rect codeLine="9" fill="#FEFECE" filter="url(#f1bv52nlhgu42m)" height="32" id="Gnome::N::TopLevelClassSupport" style="stroke: #A80036; stroke-width: 1.5;" width="269" x="140.5" y="42"/><ellipse cx="155.5" cy="58" fill="#80FFFF" rx="11" ry="11" style="stroke: #A80036; stroke-width: 1.0;"/><path d="M158.4688,63.6406 Q157.8906,63.9375 157.25,64.0781 Q156.6094,64.2344 155.9063,64.2344 Q153.4063,64.2344 152.0781,62.5938 Q150.7656,60.9375 150.7656,57.8125 Q150.7656,54.6875 152.0781,53.0313 Q153.4063,51.375 155.9063,51.375 Q156.6094,51.375 157.25,51.5313 Q157.9063,51.6875 158.4688,51.9844 L158.4688,54.7031 Q157.8438,54.125 157.25,53.8594 Q156.6563,53.5781 156.0313,53.5781 Q154.6875,53.5781 154,54.6563 Q153.3125,55.7188 153.3125,57.8125 Q153.3125,59.9063 154,60.9844 Q154.6875,62.0469 156.0313,62.0469 Q156.6563,62.0469 157.25,61.7813 Q157.8438,61.5 158.4688,60.9219 L158.4688,63.6406 Z "/><text fill="#000000" font-family="sans-serif" font-size="12" lengthAdjust="spacingAndGlyphs" textLength="137" x="169.5" y="62.1807">TopLevelClassSupport</text><rect fill="#FFFFFF" height="15.9688" style="stroke: #000000; stroke-width: 1.0; stroke-dasharray: 2.0,2.0;" width="98" x="314.5" y="39"/><text fill="#000000" font-family="sans-serif" font-size="12" font-style="italic" lengthAdjust="spacingAndGlyphs" textLength="88" x="319.5" y="51.1387">Catch all class</text><!--MD5=[c2016d28441601ceb0a74f47a4537d14]
class Gnome::GObject::Object--><rect fill="#FEFECE" filter="url(#f1bv52nlhgu42m)" height="32" id="Gnome::GObject::Object" style="stroke: #A80036; stroke-width: 1.5;" width="72" x="239" y="149"/><ellipse cx="254" cy="165" fill="#80FFFF" rx="11" ry="11" style="stroke: #A80036; stroke-width: 1.0;"/><path d="M256.9688,170.6406 Q256.3906,170.9375 255.75,171.0781 Q255.1094,171.2344 254.4063,171.2344 Q251.9063,171.2344 250.5781,169.5938 Q249.2656,167.9375 249.2656,164.8125 Q249.2656,161.6875 250.5781,160.0313 Q251.9063,158.375 254.4063,158.375 Q255.1094,158.375 255.75,158.5313 Q256.4063,158.6875 256.9688,158.9844 L256.9688,161.7031 Q256.3438,161.125 255.75,160.8594 Q255.1563,160.5781 254.5313,160.5781 Q253.1875,160.5781 252.5,161.6563 Q251.8125,162.7188 251.8125,164.8125 Q251.8125,166.9063 252.5,167.9844 Q253.1875,169.0469 254.5313,169.0469 Q255.1563,169.0469 255.75,168.7813 Q256.3438,168.5 256.9688,167.9219 L256.9688,170.6406 Z "/><text fill="#000000" font-family="sans-serif" font-size="12" lengthAdjust="spacingAndGlyphs" textLength="40" x="268" y="169.1807">Object</text><!--MD5=[52303d185de782118d4739c052001bf2]
class Gnome::GObject::Signal--><rect codeLine="13" fill="#FEFECE" filter="url(#f1bv52nlhgu42m)" height="32" id="Gnome::GObject::Signal" style="stroke: #A80036; stroke-width: 1.5;" width="131" x="72.5" y="149"/><ellipse cx="87.5" cy="165" fill="#80FFFF" rx="11" ry="11" style="stroke: #A80036; stroke-width: 1.0;"/><path d="M88.7031,165.1406 Q89.0625,165.2188 89.3281,165.5 Q89.6094,165.7656 90,166.5469 L92.2344,171 L89.5469,171 L88.0469,167.875 Q87.9844,167.7344 87.875,167.5 Q87.2188,166.1094 86.3281,166.1094 L85.5469,166.1094 L85.5469,171 L83.1094,171 L83.1094,158.6094 L86.6406,158.6094 Q89.0313,158.6094 90.0625,159.4531 Q91.1094,160.2969 91.1094,162.2031 Q91.1094,163.4844 90.4844,164.25 Q89.875,165 88.7031,165.1406 Z M85.5469,160.6719 L85.5469,164.0469 L86.7031,164.0469 Q87.7188,164.0469 88.1406,163.6563 Q88.5781,163.25 88.5781,162.3438 Q88.5781,161.4531 88.1406,161.0625 Q87.7188,160.6719 86.7031,160.6719 L85.5469,160.6719 Z "/><text fill="#000000" font-family="sans-serif" font-size="12" lengthAdjust="spacingAndGlyphs" textLength="38" x="101.5" y="169.1807">Signal</text><rect fill="#FFFFFF" height="15.9688" style="stroke: #000000; stroke-width: 1.0; stroke-dasharray: 2.0,2.0;" width="59" x="147.5" y="146"/><text fill="#000000" font-family="sans-serif" font-size="12" font-style="italic" lengthAdjust="spacingAndGlyphs" textLength="57" x="148.5" y="158.1387">Interface</text><!--MD5=[f47b9a4a06d3f9bed948fa39f8c5540e]
class Gnome::GObject::InitialyUnowned--><rect fill="#FEFECE" filter="url(#f1bv52nlhgu42m)" height="32" id="Gnome::GObject::InitialyUnowned" style="stroke: #A80036; stroke-width: 1.5;" width="129" x="181.5" y="241"/><ellipse cx="196.5" cy="257" fill="#80FFFF" rx="11" ry="11" style="stroke: #A80036; stroke-width: 1.0;"/><path d="M199.4688,262.6406 Q198.8906,262.9375 198.25,263.0781 Q197.6094,263.2344 196.9063,263.2344 Q194.4063,263.2344 193.0781,261.5938 Q191.7656,259.9375 191.7656,256.8125 Q191.7656,253.6875 193.0781,252.0313 Q194.4063,250.375 196.9063,250.375 Q197.6094,250.375 198.25,250.5313 Q198.9063,250.6875 199.4688,250.9844 L199.4688,253.7031 Q198.8438,253.125 198.25,252.8594 Q197.6563,252.5781 197.0313,252.5781 Q195.6875,252.5781 195,253.6563 Q194.3125,254.7188 194.3125,256.8125 Q194.3125,258.9063 195,259.9844 Q195.6875,261.0469 197.0313,261.0469 Q197.6563,261.0469 198.25,260.7813 Q198.8438,260.5 199.4688,259.9219 L199.4688,262.6406 Z "/><text fill="#000000" font-family="sans-serif" font-size="12" lengthAdjust="spacingAndGlyphs" textLength="97" x="210.5" y="261.1807">InitialyUnowned</text><!--MD5=[fc528952aa489a9a9f8514412a46a5d5]
class Gnome::Gtk3::Buildable--><rect codeLine="16" fill="#FEFECE" filter="url(#f1bv52nlhgu42m)" height="32" id="Gnome::Gtk3::Buildable" style="stroke: #A80036; stroke-width: 1.5;" width="150" x="23" y="348"/><ellipse cx="38" cy="364" fill="#80FFFF" rx="11" ry="11" style="stroke: #A80036; stroke-width: 1.0;"/><path d="M39.2031,364.1406 Q39.5625,364.2188 39.8281,364.5 Q40.1094,364.7656 40.5,365.5469 L42.7344,370 L40.0469,370 L38.5469,366.875 Q38.4844,366.7344 38.375,366.5 Q37.7188,365.1094 36.8281,365.1094 L36.0469,365.1094 L36.0469,370 L33.6094,370 L33.6094,357.6094 L37.1406,357.6094 Q39.5313,357.6094 40.5625,358.4531 Q41.6094,359.2969 41.6094,361.2031 Q41.6094,362.4844 40.9844,363.25 Q40.375,364 39.2031,364.1406 Z M36.0469,359.6719 L36.0469,363.0469 L37.2031,363.0469 Q38.2188,363.0469 38.6406,362.6563 Q39.0781,362.25 39.0781,361.3438 Q39.0781,360.4531 38.6406,360.0625 Q38.2188,359.6719 37.2031,359.6719 L36.0469,359.6719 Z "/><text fill="#000000" font-family="sans-serif" font-size="12" lengthAdjust="spacingAndGlyphs" textLength="57" x="52" y="368.1807">Buildable</text><rect fill="#FFFFFF" height="15.9688" style="stroke: #000000; stroke-width: 1.0; stroke-dasharray: 2.0,2.0;" width="59" x="117" y="345"/><text fill="#000000" font-family="sans-serif" font-size="12" font-style="italic" lengthAdjust="spacingAndGlyphs" textLength="57" x="118" y="357.1387">Interface</text><!--MD5=[99c1fd59bdfde6048aec9e6766dd53ef]
class Gnome::Gtk3::Widget--><rect fill="#FEFECE" filter="url(#f1bv52nlhgu42m)" height="32" id="Gnome::Gtk3::Widget" style="stroke: #A80036; stroke-width: 1.5;" width="75" x="208.5" y="348"/><ellipse cx="223.5" cy="364" fill="#80FFFF" rx="11" ry="11" style="stroke: #A80036; stroke-width: 1.0;"/><path d="M226.4688,369.6406 Q225.8906,369.9375 225.25,370.0781 Q224.6094,370.2344 223.9063,370.2344 Q221.4063,370.2344 220.0781,368.5938 Q218.7656,366.9375 218.7656,363.8125 Q218.7656,360.6875 220.0781,359.0313 Q221.4063,357.375 223.9063,357.375 Q224.6094,357.375 225.25,357.5313 Q225.9063,357.6875 226.4688,357.9844 L226.4688,360.7031 Q225.8438,360.125 225.25,359.8594 Q224.6563,359.5781 224.0313,359.5781 Q222.6875,359.5781 222,360.6563 Q221.3125,361.7188 221.3125,363.8125 Q221.3125,365.9063 222,366.9844 Q222.6875,368.0469 224.0313,368.0469 Q224.6563,368.0469 225.25,367.7813 Q225.8438,367.5 226.4688,366.9219 L226.4688,369.6406 Z "/><text fill="#000000" font-family="sans-serif" font-size="12" lengthAdjust="spacingAndGlyphs" textLength="43" x="237.5" y="368.1807">Widget</text><!--MD5=[c080506a917ff8c7e8f4f88ebf50f42e]
class Gnome::Gtk3::DrawingArea--><rect fill="#FEFECE" filter="url(#f1bv52nlhgu42m)" height="32" id="Gnome::Gtk3::DrawingArea" style="stroke: #A80036; stroke-width: 1.5;" width="111" x="318.5" y="348"/><ellipse cx="333.5" cy="364" fill="#80FFFF" rx="11" ry="11" style="stroke: #A80036; stroke-width: 1.0;"/><path d="M336.4688,369.6406 Q335.8906,369.9375 335.25,370.0781 Q334.6094,370.2344 333.9063,370.2344 Q331.4063,370.2344 330.0781,368.5938 Q328.7656,366.9375 328.7656,363.8125 Q328.7656,360.6875 330.0781,359.0313 Q331.4063,357.375 333.9063,357.375 Q334.6094,357.375 335.25,357.5313 Q335.9063,357.6875 336.4688,357.9844 L336.4688,360.7031 Q335.8438,360.125 335.25,359.8594 Q334.6563,359.5781 334.0313,359.5781 Q332.6875,359.5781 332,360.6563 Q331.3125,361.7188 331.3125,363.8125 Q331.3125,365.9063 332,366.9844 Q332.6875,368.0469 334.0313,368.0469 Q334.6563,368.0469 335.25,367.7813 Q335.8438,367.5 336.4688,366.9219 L336.4688,369.6406 Z "/><text fill="#000000" font-family="sans-serif" font-size="12" lengthAdjust="spacingAndGlyphs" textLength="79" x="347.5" y="368.1807">DrawingArea</text><!--MD5=[e23b679cf607d12ac81e9c5301595709]
reverse link Gnome::N::TopLevelClassSupport to Gnome::GObject::Object--><path codeLine="10" d="M275,94.1 C275,112.76 275,134.73 275,148.98 " fill="none" id="Gnome::N::TopLevelClassSupport-backto-Gnome::GObject::Object" style="stroke: #A80036; stroke-width: 1.0;"/><polygon fill="none" points="268,94.04,275,74.04,282,94.04,268,94.04" style="stroke: #A80036; stroke-width: 1.0;"/><!--MD5=[2e57c6084092ea441ae4a3f826779dd8]
reverse link Gnome::GObject::Object to Gnome::GObject::InitialyUnowned--><path codeLine="18" d="M263.84,200.63 C259.34,214.59 254.39,229.96 250.85,240.96 " fill="none" id="Gnome::GObject::Object-backto-Gnome::GObject::InitialyUnowned" style="stroke: #A80036; stroke-width: 1.0;"/><polygon fill="none" points="257.28,198.16,270.08,181.27,270.61,202.45,257.28,198.16" style="stroke: #A80036; stroke-width: 1.0;"/><!--MD5=[f8ffcf4587ba956cb48626a4231e4d21]
reverse link Gnome::GObject::Signal to Gnome::GObject::Object--><path codeLine="19" d="M223.77,165 C228.85,165 233.92,165 239,165 " fill="none" id="Gnome::GObject::Signal-backto-Gnome::GObject::Object" style="stroke: #A80036; stroke-width: 1.0; stroke-dasharray: 7.0,7.0;"/><polygon fill="none" points="223.56,172,203.56,165,223.56,158,223.56,172" style="stroke: #A80036; stroke-width: 1.0;"/><!--MD5=[aa49dbc803ccf1c2ef8546b297b1dcfd]
reverse link Gnome::GObject::InitialyUnowned to Gnome::Gtk3::Widget--><path codeLine="21" d="M246,293.1 C246,311.76 246,333.73 246,347.98 " fill="none" id="Gnome::GObject::InitialyUnowned-backto-Gnome::Gtk3::Widget" style="stroke: #A80036; stroke-width: 1.0;"/><polygon fill="none" points="239,293.04,246,273.04,253,293.04,239,293.04" style="stroke: #A80036; stroke-width: 1.0;"/><!--MD5=[1335099fcd58edb25b444005b6858935]
reverse link Gnome::Gtk3::Buildable to Gnome::Gtk3::Widget--><path codeLine="22" d="M193.28,364 C198.33,364 203.39,364 208.44,364 " fill="none" id="Gnome::Gtk3::Buildable-backto-Gnome::Gtk3::Widget" style="stroke: #A80036; stroke-width: 1.0; stroke-dasharray: 7.0,7.0;"/><polygon fill="none" points="193.16,371,173.16,364,193.16,357,193.16,371" style="stroke: #A80036; stroke-width: 1.0;"/><!--MD5=[fd9b1a8e086578a3c99891815405f214]
reverse link Gnome::Gtk3::Widget to Gnome::Gtk3::DrawingArea--><path codeLine="24" d="M304.19,364 C308.94,364 313.7,364 318.45,364 " fill="none" id="Gnome::Gtk3::Widget-backto-Gnome::Gtk3::DrawingArea" style="stroke: #A80036; stroke-width: 1.0;"/><polygon fill="none" points="304,371,284,364,304,357,304,371" style="stroke: #A80036; stroke-width: 1.0;"/><!--MD5=[2f8acbe5118cec3ddc29be5800fa6663]
@startuml
'scale 0.9
skinparam packageStyle rectangle
skinparam stereotypeCBackgroundColor #80ffff
set namespaceSeparator ::
hide members


class Gnome::N::TopLevelClassSupport < Catch all class >
Gnome::N::TopLevelClassSupport <|- - Gnome::GObject::Object

Interface Gnome::GObject::Signal <Interface>
class Gnome::GObject::Signal <<(R,#80ffff)>>

Interface Gnome::Gtk3::Buildable <Interface>
class Gnome::Gtk3::Buildable <<(R,#80ffff)>>

Gnome::GObject::Object <|- - Gnome::GObject::InitialyUnowned
Gnome::GObject::Signal <|. Gnome::GObject::Object

Gnome::GObject::InitialyUnowned <|- - Gnome::Gtk3::Widget
Gnome::Gtk3::Buildable <|. Gnome::Gtk3::Widget

Gnome::Gtk3::Widget <|- Gnome::Gtk3::DrawingArea
@enduml

@startuml
skinparam packageStyle rectangle
skinparam stereotypeCBackgroundColor #80ffff
set namespaceSeparator ::
hide members


class Gnome::N::TopLevelClassSupport < Catch all class >
Gnome::N::TopLevelClassSupport <|- - Gnome::GObject::Object

Interface Gnome::GObject::Signal <Interface>
class Gnome::GObject::Signal <<(R,#80ffff)>>

Interface Gnome::Gtk3::Buildable <Interface>
class Gnome::Gtk3::Buildable <<(R,#80ffff)>>

Gnome::GObject::Object <|- - Gnome::GObject::InitialyUnowned
Gnome::GObject::Signal <|. Gnome::GObject::Object

Gnome::GObject::InitialyUnowned <|- - Gnome::Gtk3::Widget
Gnome::Gtk3::Buildable <|. Gnome::Gtk3::Widget

Gnome::Gtk3::Widget <|- Gnome::Gtk3::DrawingArea
@enduml

PlantUML version 1.2020.19(Mon Oct 12 17:10:01 CEST 2020)
(GPL source distribution)
Java Runtime: OpenJDK Runtime Environment
JVM: OpenJDK 64-Bit Server VM
Default Encoding: UTF-8
Language: en
Country: null
--></g></svg>