<?xml version="1.0" encoding="UTF-8" standalone="no"?><svg xmlns="http://www.w3.org/2000/svg" xmlns:xlink="http://www.w3.org/1999/xlink" contentScriptType="application/ecmascript" contentStyleType="text/css" height="523px" preserveAspectRatio="none" style="width:674px;height:523px;" version="1.1" viewBox="0 0 674 523" width="674px" zoomAndPan="magnify"><defs><filter height="300%" id="faa1z3emjy45n" width="300%" x="-1" y="-1"><feGaussianBlur result="blurOut" stdDeviation="2.0"/><feColorMatrix in="blurOut" result="blurOut2" type="matrix" values="0 0 0 0 0 0 0 0 0 0 0 0 0 0 0 0 0 0 .4 0"/><feOffset dx="4.0" dy="4.0" in="blurOut2" result="blurOut3"/><feBlend in="SourceGraphic" in2="blurOut3" mode="normal"/></filter></defs><g><!--cluster Gnome::N--><rect fill="#FFFFFF" filter="url(#faa1z3emjy45n)" height="67" style="stroke: #000000; stroke-width: 1.5;" width="286" x="377" y="16"/><text fill="#000000" font-family="sans-serif" font-size="14" font-weight="bold" lengthAdjust="spacingAndGlyphs" textLength="79" x="480.5" y="30.9951">Gnome::N</text><!--cluster Gnome::GObject--><rect fill="#FFFFFF" filter="url(#faa1z3emjy45n)" height="159" style="stroke: #000000; stroke-width: 1.5;" width="255" x="309" y="108"/><text fill="#000000" font-family="sans-serif" font-size="14" font-weight="bold" lengthAdjust="spacingAndGlyphs" textLength="131" x="371" y="122.9951">Gnome::GObject</text><!--cluster Gnome::Gtk3--><rect fill="#FFFFFF" filter="url(#faa1z3emjy45n)" height="159" style="stroke: #000000; stroke-width: 1.5;" width="560" x="14" y="353"/><text fill="#000000" font-family="sans-serif" font-size="14" font-weight="bold" lengthAdjust="spacingAndGlyphs" textLength="105" x="241.5" y="367.9951">Gnome::Gtk3</text><!--class Gnome::N::TopLevelClassSupport--><rect fill="#FEFECE" filter="url(#faa1z3emjy45n)" height="32" id="Gnome::N::TopLevelClassSupport" style="stroke: #A80036; stroke-width: 1.5;" width="269" x="385.5" y="43"/><ellipse cx="400.5" cy="59" fill="#80FFFF" rx="11" ry="11" style="stroke: #A80036; stroke-width: 1.0;"/><path d="M403.4688,64.6406 Q402.8906,64.9375 402.25,65.0781 Q401.6094,65.2344 400.9063,65.2344 Q398.4063,65.2344 397.0781,63.5938 Q395.7656,61.9375 395.7656,58.8125 Q395.7656,55.6875 397.0781,54.0313 Q398.4063,52.375 400.9063,52.375 Q401.6094,52.375 402.25,52.5313 Q402.9063,52.6875 403.4688,52.9844 L403.4688,55.7031 Q402.8438,55.125 402.25,54.8594 Q401.6563,54.5781 401.0313,54.5781 Q399.6875,54.5781 399,55.6563 Q398.3125,56.7188 398.3125,58.8125 Q398.3125,60.9063 399,61.9844 Q399.6875,63.0469 401.0313,63.0469 Q401.6563,63.0469 402.25,62.7813 Q402.8438,62.5 403.4688,61.9219 L403.4688,64.6406 Z "/><text fill="#000000" font-family="sans-serif" font-size="12" lengthAdjust="spacingAndGlyphs" textLength="137" x="414.5" y="63.1807">TopLevelClassSupport</text><rect fill="#FFFFFF" height="15.9688" style="stroke: #000000; stroke-width: 1.0; stroke-dasharray: 2.0,2.0;" width="98" x="559.5" y="40"/><text fill="#000000" font-family="sans-serif" font-size="12" font-style="italic" lengthAdjust="spacingAndGlyphs" textLength="88" x="564.5" y="52.1387">Catch all class</text><!--class Gnome::GObject::Signal--><rect fill="#FEFECE" filter="url(#faa1z3emjy45n)" height="32" id="Gnome::GObject::Signal" style="stroke: #A80036; stroke-width: 1.5;" width="131" x="317.5" y="135"/><ellipse cx="332.5" cy="151" fill="#80FFFF" rx="11" ry="11" style="stroke: #A80036; stroke-width: 1.0;"/><path d="M333.7031,151.1406 Q334.0625,151.2188 334.3281,151.5 Q334.6094,151.7656 335,152.5469 L337.2344,157 L334.5469,157 L333.0469,153.875 Q332.9844,153.7344 332.875,153.5 Q332.2188,152.1094 331.3281,152.1094 L330.5469,152.1094 L330.5469,157 L328.1094,157 L328.1094,144.6094 L331.6406,144.6094 Q334.0313,144.6094 335.0625,145.4531 Q336.1094,146.2969 336.1094,148.2031 Q336.1094,149.4844 335.4844,150.25 Q334.875,151 333.7031,151.1406 Z M330.5469,146.6719 L330.5469,150.0469 L331.7031,150.0469 Q332.7188,150.0469 333.1406,149.6563 Q333.5781,149.25 333.5781,148.3438 Q333.5781,147.4531 333.1406,147.0625 Q332.7188,146.6719 331.7031,146.6719 L330.5469,146.6719 Z "/><text fill="#000000" font-family="sans-serif" font-size="12" lengthAdjust="spacingAndGlyphs" textLength="38" x="346.5" y="155.1807">Signal</text><rect fill="#FFFFFF" height="15.9688" style="stroke: #000000; stroke-width: 1.0; stroke-dasharray: 2.0,2.0;" width="59" x="392.5" y="132"/><text fill="#000000" font-family="sans-serif" font-size="12" font-style="italic" lengthAdjust="spacingAndGlyphs" textLength="57" x="393.5" y="144.1387">Interface</text><!--class Gnome::GObject::Object--><rect fill="#FEFECE" filter="url(#faa1z3emjy45n)" height="32" id="Gnome::GObject::Object" style="stroke: #A80036; stroke-width: 1.5;" width="72" x="484" y="135"/><ellipse cx="499" cy="151" fill="#80FFFF" rx="11" ry="11" style="stroke: #A80036; stroke-width: 1.0;"/><path d="M501.9688,156.6406 Q501.3906,156.9375 500.75,157.0781 Q500.1094,157.2344 499.4063,157.2344 Q496.9063,157.2344 495.5781,155.5938 Q494.2656,153.9375 494.2656,150.8125 Q494.2656,147.6875 495.5781,146.0313 Q496.9063,144.375 499.4063,144.375 Q500.1094,144.375 500.75,144.5313 Q501.4063,144.6875 501.9688,144.9844 L501.9688,147.7031 Q501.3438,147.125 500.75,146.8594 Q500.1563,146.5781 499.5313,146.5781 Q498.1875,146.5781 497.5,147.6563 Q496.8125,148.7188 496.8125,150.8125 Q496.8125,152.9063 497.5,153.9844 Q498.1875,155.0469 499.5313,155.0469 Q500.1563,155.0469 500.75,154.7813 Q501.3438,154.5 501.9688,153.9219 L501.9688,156.6406 Z "/><text fill="#000000" font-family="sans-serif" font-size="12" lengthAdjust="spacingAndGlyphs" textLength="40" x="513" y="155.1807">Object</text><!--class Gnome::GObject::InitialyUnowned--><rect fill="#FEFECE" filter="url(#faa1z3emjy45n)" height="32" id="Gnome::GObject::InitialyUnowned" style="stroke: #A80036; stroke-width: 1.5;" width="129" x="426.5" y="227"/><ellipse cx="441.5" cy="243" fill="#80FFFF" rx="11" ry="11" style="stroke: #A80036; stroke-width: 1.0;"/><path d="M444.4688,248.6406 Q443.8906,248.9375 443.25,249.0781 Q442.6094,249.2344 441.9063,249.2344 Q439.4063,249.2344 438.0781,247.5938 Q436.7656,245.9375 436.7656,242.8125 Q436.7656,239.6875 438.0781,238.0313 Q439.4063,236.375 441.9063,236.375 Q442.6094,236.375 443.25,236.5313 Q443.9063,236.6875 444.4688,236.9844 L444.4688,239.7031 Q443.8438,239.125 443.25,238.8594 Q442.6563,238.5781 442.0313,238.5781 Q440.6875,238.5781 440,239.6563 Q439.3125,240.7188 439.3125,242.8125 Q439.3125,244.9063 440,245.9844 Q440.6875,247.0469 442.0313,247.0469 Q442.6563,247.0469 443.25,246.7813 Q443.8438,246.5 444.4688,245.9219 L444.4688,248.6406 Z "/><text fill="#000000" font-family="sans-serif" font-size="12" lengthAdjust="spacingAndGlyphs" textLength="97" x="455.5" y="247.1807">InitialyUnowned</text><!--class Gnome::Gtk3::Orientable--><rect fill="#FEFECE" filter="url(#faa1z3emjy45n)" height="32" id="Gnome::Gtk3::Orientable" style="stroke: #A80036; stroke-width: 1.5;" width="158" x="223" y="472"/><ellipse cx="238" cy="488" fill="#80FFFF" rx="11" ry="11" style="stroke: #A80036; stroke-width: 1.0;"/><path d="M239.2031,488.1406 Q239.5625,488.2188 239.8281,488.5 Q240.1094,488.7656 240.5,489.5469 L242.7344,494 L240.0469,494 L238.5469,490.875 Q238.4844,490.7344 238.375,490.5 Q237.7188,489.1094 236.8281,489.1094 L236.0469,489.1094 L236.0469,494 L233.6094,494 L233.6094,481.6094 L237.1406,481.6094 Q239.5313,481.6094 240.5625,482.4531 Q241.6094,483.2969 241.6094,485.2031 Q241.6094,486.4844 240.9844,487.25 Q240.375,488 239.2031,488.1406 Z M236.0469,483.6719 L236.0469,487.0469 L237.2031,487.0469 Q238.2188,487.0469 238.6406,486.6563 Q239.0781,486.25 239.0781,485.3438 Q239.0781,484.4531 238.6406,484.0625 Q238.2188,483.6719 237.2031,483.6719 L236.0469,483.6719 Z "/><text fill="#000000" font-family="sans-serif" font-size="12" lengthAdjust="spacingAndGlyphs" textLength="65" x="252" y="492.1807">Orientable</text><rect fill="#FFFFFF" height="15.9688" style="stroke: #000000; stroke-width: 1.0; stroke-dasharray: 2.0,2.0;" width="59" x="325" y="469"/><text fill="#000000" font-family="sans-serif" font-size="12" font-style="italic" lengthAdjust="spacingAndGlyphs" textLength="57" x="326" y="481.1387">Interface</text><!--class Gnome::Gtk3::Buildable--><rect fill="#FEFECE" filter="url(#faa1z3emjy45n)" height="32" id="Gnome::Gtk3::Buildable" style="stroke: #A80036; stroke-width: 1.5;" width="150" x="416" y="472"/><ellipse cx="431" cy="488" fill="#80FFFF" rx="11" ry="11" style="stroke: #A80036; stroke-width: 1.0;"/><path d="M432.2031,488.1406 Q432.5625,488.2188 432.8281,488.5 Q433.1094,488.7656 433.5,489.5469 L435.7344,494 L433.0469,494 L431.5469,490.875 Q431.4844,490.7344 431.375,490.5 Q430.7188,489.1094 429.8281,489.1094 L429.0469,489.1094 L429.0469,494 L426.6094,494 L426.6094,481.6094 L430.1406,481.6094 Q432.5313,481.6094 433.5625,482.4531 Q434.6094,483.2969 434.6094,485.2031 Q434.6094,486.4844 433.9844,487.25 Q433.375,488 432.2031,488.1406 Z M429.0469,483.6719 L429.0469,487.0469 L430.2031,487.0469 Q431.2188,487.0469 431.6406,486.6563 Q432.0781,486.25 432.0781,485.3438 Q432.0781,484.4531 431.6406,484.0625 Q431.2188,483.6719 430.2031,483.6719 L429.0469,483.6719 Z "/><text fill="#000000" font-family="sans-serif" font-size="12" lengthAdjust="spacingAndGlyphs" textLength="57" x="445" y="492.1807">Buildable</text><rect fill="#FFFFFF" height="15.9688" style="stroke: #000000; stroke-width: 1.0; stroke-dasharray: 2.0,2.0;" width="59" x="510" y="469"/><text fill="#000000" font-family="sans-serif" font-size="12" font-style="italic" lengthAdjust="spacingAndGlyphs" textLength="57" x="511" y="481.1387">Interface</text><!--class Gnome::Gtk3::FileChooser--><rect fill="#FEFECE" filter="url(#faa1z3emjy45n)" height="32" id="Gnome::Gtk3::FileChooser" style="stroke: #A80036; stroke-width: 1.5;" width="166" x="22" y="472"/><ellipse cx="37" cy="488" fill="#80FFFF" rx="11" ry="11" style="stroke: #A80036; stroke-width: 1.0;"/><path d="M38.2031,488.1406 Q38.5625,488.2188 38.8281,488.5 Q39.1094,488.7656 39.5,489.5469 L41.7344,494 L39.0469,494 L37.5469,490.875 Q37.4844,490.7344 37.375,490.5 Q36.7188,489.1094 35.8281,489.1094 L35.0469,489.1094 L35.0469,494 L32.6094,494 L32.6094,481.6094 L36.1406,481.6094 Q38.5313,481.6094 39.5625,482.4531 Q40.6094,483.2969 40.6094,485.2031 Q40.6094,486.4844 39.9844,487.25 Q39.375,488 38.2031,488.1406 Z M35.0469,483.6719 L35.0469,487.0469 L36.2031,487.0469 Q37.2188,487.0469 37.6406,486.6563 Q38.0781,486.25 38.0781,485.3438 Q38.0781,484.4531 37.6406,484.0625 Q37.2188,483.6719 36.2031,483.6719 L35.0469,483.6719 Z "/><text fill="#000000" font-family="sans-serif" font-size="12" lengthAdjust="spacingAndGlyphs" textLength="73" x="51" y="492.1807">FileChooser</text><rect fill="#FFFFFF" height="15.9688" style="stroke: #000000; stroke-width: 1.0; stroke-dasharray: 2.0,2.0;" width="59" x="132" y="469"/><text fill="#000000" font-family="sans-serif" font-size="12" font-style="italic" lengthAdjust="spacingAndGlyphs" textLength="57" x="133" y="481.1387">Interface</text><!--class Gnome::Gtk3::Widget--><rect fill="#FEFECE" filter="url(#faa1z3emjy45n)" height="32" id="Gnome::Gtk3::Widget" style="stroke: #A80036; stroke-width: 1.5;" width="75" x="453.5" y="380"/><ellipse cx="468.5" cy="396" fill="#80FFFF" rx="11" ry="11" style="stroke: #A80036; stroke-width: 1.0;"/><path d="M471.4688,401.6406 Q470.8906,401.9375 470.25,402.0781 Q469.6094,402.2344 468.9063,402.2344 Q466.4063,402.2344 465.0781,400.5938 Q463.7656,398.9375 463.7656,395.8125 Q463.7656,392.6875 465.0781,391.0313 Q466.4063,389.375 468.9063,389.375 Q469.6094,389.375 470.25,389.5313 Q470.9063,389.6875 471.4688,389.9844 L471.4688,392.7031 Q470.8438,392.125 470.25,391.8594 Q469.6563,391.5781 469.0313,391.5781 Q467.6875,391.5781 467,392.6563 Q466.3125,393.7188 466.3125,395.8125 Q466.3125,397.9063 467,398.9844 Q467.6875,400.0469 469.0313,400.0469 Q469.6563,400.0469 470.25,399.7813 Q470.8438,399.5 471.4688,398.9219 L471.4688,401.6406 Z "/><text fill="#000000" font-family="sans-serif" font-size="12" lengthAdjust="spacingAndGlyphs" textLength="43" x="482.5" y="400.1807">Widget</text><!--class Gnome::Gtk3::Container--><rect fill="#FEFECE" filter="url(#faa1z3emjy45n)" height="32" id="Gnome::Gtk3::Container" style="stroke: #A80036; stroke-width: 1.5;" width="93" x="325.5" y="380"/><ellipse cx="340.5" cy="396" fill="#80FFFF" rx="11" ry="11" style="stroke: #A80036; stroke-width: 1.0;"/><path d="M343.4688,401.6406 Q342.8906,401.9375 342.25,402.0781 Q341.6094,402.2344 340.9063,402.2344 Q338.4063,402.2344 337.0781,400.5938 Q335.7656,398.9375 335.7656,395.8125 Q335.7656,392.6875 337.0781,391.0313 Q338.4063,389.375 340.9063,389.375 Q341.6094,389.375 342.25,389.5313 Q342.9063,389.6875 343.4688,389.9844 L343.4688,392.7031 Q342.8438,392.125 342.25,391.8594 Q341.6563,391.5781 341.0313,391.5781 Q339.6875,391.5781 339,392.6563 Q338.3125,393.7188 338.3125,395.8125 Q338.3125,397.9063 339,398.9844 Q339.6875,400.0469 341.0313,400.0469 Q341.6563,400.0469 342.25,399.7813 Q342.8438,399.5 343.4688,398.9219 L343.4688,401.6406 Z "/><text fill="#000000" font-family="sans-serif" font-size="12" lengthAdjust="spacingAndGlyphs" textLength="61" x="354.5" y="400.1807">Container</text><!--class Gnome::Gtk3::Box--><rect fill="#FEFECE" filter="url(#faa1z3emjy45n)" height="32" id="Gnome::Gtk3::Box" style="stroke: #A80036; stroke-width: 1.5;" width="54" x="236" y="380"/><ellipse cx="251" cy="396" fill="#80FFFF" rx="11" ry="11" style="stroke: #A80036; stroke-width: 1.0;"/><path d="M253.9688,401.6406 Q253.3906,401.9375 252.75,402.0781 Q252.1094,402.2344 251.4063,402.2344 Q248.9063,402.2344 247.5781,400.5938 Q246.2656,398.9375 246.2656,395.8125 Q246.2656,392.6875 247.5781,391.0313 Q248.9063,389.375 251.4063,389.375 Q252.1094,389.375 252.75,389.5313 Q253.4063,389.6875 253.9688,389.9844 L253.9688,392.7031 Q253.3438,392.125 252.75,391.8594 Q252.1563,391.5781 251.5313,391.5781 Q250.1875,391.5781 249.5,392.6563 Q248.8125,393.7188 248.8125,395.8125 Q248.8125,397.9063 249.5,398.9844 Q250.1875,400.0469 251.5313,400.0469 Q252.1563,400.0469 252.75,399.7813 Q253.3438,399.5 253.9688,398.9219 L253.9688,401.6406 Z "/><text fill="#000000" font-family="sans-serif" font-size="12" lengthAdjust="spacingAndGlyphs" textLength="22" x="265" y="400.1807">Box</text><!--class Gnome::Gtk3::FileChooserButton--><rect fill="#FEFECE" filter="url(#faa1z3emjy45n)" height="32" id="Gnome::Gtk3::FileChooserButton" style="stroke: #A80036; stroke-width: 1.5;" width="147" x="42.5" y="380"/><ellipse cx="57.5" cy="396" fill="#80FFFF" rx="11" ry="11" style="stroke: #A80036; stroke-width: 1.0;"/><path d="M60.4688,401.6406 Q59.8906,401.9375 59.25,402.0781 Q58.6094,402.2344 57.9063,402.2344 Q55.4063,402.2344 54.0781,400.5938 Q52.7656,398.9375 52.7656,395.8125 Q52.7656,392.6875 54.0781,391.0313 Q55.4063,389.375 57.9063,389.375 Q58.6094,389.375 59.25,389.5313 Q59.9063,389.6875 60.4688,389.9844 L60.4688,392.7031 Q59.8438,392.125 59.25,391.8594 Q58.6563,391.5781 58.0313,391.5781 Q56.6875,391.5781 56,392.6563 Q55.3125,393.7188 55.3125,395.8125 Q55.3125,397.9063 56,398.9844 Q56.6875,400.0469 58.0313,400.0469 Q58.6563,400.0469 59.25,399.7813 Q59.8438,399.5 60.4688,398.9219 L60.4688,401.6406 Z "/><text fill="#000000" font-family="sans-serif" font-size="12" lengthAdjust="spacingAndGlyphs" textLength="115" x="71.5" y="400.1807">FileChooserButton</text><!--link Gnome::N::TopLevelClassSupport to Gnome::GObject::Object--><path d="M520,95.4048 C520,109.0788 520,123.9368 520,134.8498 " fill="none" id="Gnome::N::TopLevelClassSupport-Gnome::GObject::Object" style="stroke: #A80036; stroke-width: 1.0;"/><polygon fill="none" points="513.0001,95.0252,520,75.0252,527.0001,95.0251,513.0001,95.0252" style="stroke: #A80036; stroke-width: 1.0;"/><!--link Gnome::GObject::Object to Gnome::GObject::InitialyUnowned--><path d="M508.8355,186.4184 C504.4407,200.3605 499.6137,215.6738 496.0908,226.8498 " fill="none" id="Gnome::GObject::Object-Gnome::GObject::InitialyUnowned" style="stroke: #A80036; stroke-width: 1.0;"/><polygon fill="none" points="502.2596,183.9955,514.9486,167.0252,515.612,188.2044,502.2596,183.9955" style="stroke: #A80036; stroke-width: 1.0;"/><!--link Gnome::GObject::InitialyUnowned to Gnome::Gtk3::Widget--><path d="M491,279.4918 C491,311.2971 491,355.9418 491,379.6705 " fill="none" id="Gnome::GObject::InitialyUnowned-Gnome::Gtk3::Widget" style="stroke: #A80036; stroke-width: 1.0;"/><polygon fill="none" points="484.0001,279.0845,491,259.0845,498.0001,279.0845,484.0001,279.0845" style="stroke: #A80036; stroke-width: 1.0;"/><!--link Gnome::Gtk3::Container to Gnome::Gtk3::Widget--><path d="M418.9492,396 C423.6884,396 428.4276,396 433.1668,396 " fill="none" id="Gnome::Gtk3::Container-Gnome::Gtk3::Widget" style="stroke: #A80036; stroke-width: 1.0;"/><polygon fill="none" points="433.286,388.9999,453.2859,396,433.2859,402.9999,433.286,388.9999" style="stroke: #A80036; stroke-width: 1.0;"/><!--link Gnome::Gtk3::Box to Gnome::Gtk3::Container--><path d="M290.25,396 C295.2812,396 300.3124,396 305.3436,396 " fill="none" id="Gnome::Gtk3::Box-Gnome::Gtk3::Container" style="stroke: #A80036; stroke-width: 1.0;"/><polygon fill="none" points="305.377,388.9999,325.377,396,305.3769,402.9999,305.377,388.9999" style="stroke: #A80036; stroke-width: 1.0;"/><!--link Gnome::Gtk3::FileChooserButton to Gnome::Gtk3::Box--><path d="M189.7871,396 C198.4204,396 207.0536,396 215.6869,396 " fill="none" id="Gnome::Gtk3::FileChooserButton-Gnome::Gtk3::Box" style="stroke: #A80036; stroke-width: 1.0;"/><polygon fill="none" points="215.8312,388.9999,235.8312,396,215.8311,402.9999,215.8312,388.9999" style="stroke: #A80036; stroke-width: 1.0;"/><!--link Gnome::GObject::Signal to Gnome::GObject::Object--><path d="M468.77,151 C473.8464,151 478.9228,151 483.9992,151 " fill="none" id="Gnome::GObject::Signal-Gnome::GObject::Object" style="stroke: #A80036; stroke-width: 1.0; stroke-dasharray: 7.0,7.0;"/><polygon fill="none" points="468.5567,157.9999,448.5566,151,468.5566,143.9999,468.5567,157.9999" style="stroke: #A80036; stroke-width: 1.0;"/><!--link Gnome::Gtk3::Box to Gnome::Gtk3::Orientable--><path d="M269.7933,412.0252 C274.6289,423.4324 281.3111,439.1955 287.3359,453.4079 " fill="none" id="Gnome::Gtk3::Box-Gnome::Gtk3::Orientable" style="stroke: #A80036; stroke-width: 1.0; stroke-dasharray: 7.0,7.0;"/><polygon fill="none" points="293.7926,450.7039,295.1537,471.8498,280.903,456.168,293.7926,450.7039" style="stroke: #A80036; stroke-width: 1.0;"/><!--link Gnome::Gtk3::Widget to Gnome::Gtk3::Buildable--><path d="M491,412.0252 C491,422.9079 491,437.7552 491,451.4383 " fill="none" id="Gnome::Gtk3::Widget-Gnome::Gtk3::Buildable" style="stroke: #A80036; stroke-width: 1.0; stroke-dasharray: 7.0,7.0;"/><polygon fill="none" points="498.0001,451.8498,491,471.8498,484.0001,451.8497,498.0001,451.8498" style="stroke: #A80036; stroke-width: 1.0;"/><!--link Gnome::Gtk3::FileChooserButton to Gnome::Gtk3::FileChooser--><path d="M114.0839,412.0252 C112.7671,423.039 110.9647,438.1136 109.3124,451.9323 " fill="none" id="Gnome::Gtk3::FileChooserButton-Gnome::Gtk3::FileChooser" style="stroke: #A80036; stroke-width: 1.0; stroke-dasharray: 7.0,7.0;"/><polygon fill="none" points="116.256,452.8223,106.931,471.8498,102.355,451.1602,116.256,452.8223" style="stroke: #A80036; stroke-width: 1.0;"/><!--
@startuml
skinparam packageStyle rectangle
skinparam stereotypeCBackgroundColor #80ffff
set namespaceSeparator ::
hide members


class Gnome::N::TopLevelClassSupport < Catch all class >

Interface Gnome::GObject::Signal <Interface>
class Gnome::GObject::Signal <<(R,#80ffff)>>

Interface Gnome::Gtk3::Orientable <Interface>
class Gnome::Gtk3::Orientable <<(R,#80ffff)>>

Interface Gnome::Gtk3::Buildable <Interface>
class Gnome::Gtk3::Buildable <<(R,#80ffff)>>

Interface Gnome::Gtk3::FileChooser <Interface>
class Gnome::Gtk3::FileChooser <<(R,#80ffff)>>

Gnome::N::TopLevelClassSupport <|- - Gnome::GObject::Object
Gnome::GObject::Object <|- - Gnome::GObject::InitialyUnowned
Gnome::GObject::InitialyUnowned <|- - - Gnome::Gtk3::Widget
Gnome::Gtk3::Container -|> Gnome::Gtk3::Widget
Gnome::Gtk3::Box -|> Gnome::Gtk3::Container
Gnome::Gtk3::FileChooserButton -|> Gnome::Gtk3::Box

Gnome::GObject::Signal <|. Gnome::GObject::Object
Gnome::Gtk3::Box ..|> Gnome::Gtk3::Orientable
Gnome::Gtk3::Widget ..|> Gnome::Gtk3::Buildable
Gnome::Gtk3::FileChooserButton ..|> Gnome::Gtk3::FileChooser



@enduml

PlantUML version 1.2019.01(Sat Feb 09 16:32:04 CET 2019)
(LGPL source distribution)
Java Runtime: OpenJDK Runtime Environment
JVM: OpenJDK 64-Bit Server VM
Java Version: 1.8.0_265-b01
Operating System: Linux
OS Version: 5.8.13-100.fc31.x86_64
Default Encoding: UTF-8
Language: en
Country: null
--></g></svg>