<?xml version="1.0" encoding="UTF-8" standalone="no"?><svg xmlns="http://www.w3.org/2000/svg" xmlns:xlink="http://www.w3.org/1999/xlink" contentScriptType="application/ecmascript" contentStyleType="text/css" height="500px" preserveAspectRatio="none" style="width:684px;height:500px;" version="1.1" viewBox="0 0 684 500" width="684px" zoomAndPan="magnify"><defs><filter height="300%" id="fmrkyrnh4cg06" width="300%" x="-1" y="-1"><feGaussianBlur result="blurOut" stdDeviation="2.0"/><feColorMatrix in="blurOut" result="blurOut2" type="matrix" values="0 0 0 0 0 0 0 0 0 0 0 0 0 0 0 0 0 0 .4 0"/><feOffset dx="4.0" dy="4.0" in="blurOut2" result="blurOut3"/><feBlend in="SourceGraphic" in2="blurOut3" mode="normal"/></filter></defs><g><!--MD5=[b969295f0ec9b4fa482091c3e26049be]
cluster Gnome::N--><rect fill="#FFFFFF" filter="url(#fmrkyrnh4cg06)" height="83" style="stroke: #000000; stroke-width: 1.5;" width="302" x="370" y="7"/><text fill="#000000" font-family="sans-serif" font-size="14" font-weight="bold" lengthAdjust="spacingAndGlyphs" textLength="79" x="481.5" y="21.9951">Gnome::N</text><!--MD5=[2fb3f9b624b0544b9841d5da78ec0508]
cluster Gnome::GObject--><rect fill="#FFFFFF" filter="url(#fmrkyrnh4cg06)" height="175" style="stroke: #000000; stroke-width: 1.5;" width="271" x="302" y="114"/><text fill="#000000" font-family="sans-serif" font-size="14" font-weight="bold" lengthAdjust="spacingAndGlyphs" textLength="131" x="372" y="128.9951">Gnome::GObject</text><!--MD5=[7d67f77911969026863717fbb204e273]
cluster Gnome::Gtk3--><rect fill="#FFFFFF" filter="url(#fmrkyrnh4cg06)" height="175" style="stroke: #000000; stroke-width: 1.5;" width="576" x="7" y="313"/><text fill="#000000" font-family="sans-serif" font-size="14" font-weight="bold" lengthAdjust="spacingAndGlyphs" textLength="105" x="242.5" y="327.9951">Gnome::Gtk3</text><!--MD5=[0b8e281ccd00c72019a31d78e9f95b5d]
class Gnome::N::TopLevelClassSupport--><rect codeLine="10" fill="#FEFECE" filter="url(#fmrkyrnh4cg06)" height="32" id="Gnome::N::TopLevelClassSupport" style="stroke: #A80036; stroke-width: 1.5;" width="269" x="386.5" y="42"/><ellipse cx="401.5" cy="58" fill="#80FFFF" rx="11" ry="11" style="stroke: #A80036; stroke-width: 1.0;"/><path d="M404.4688,63.6406 Q403.8906,63.9375 403.25,64.0781 Q402.6094,64.2344 401.9063,64.2344 Q399.4063,64.2344 398.0781,62.5938 Q396.7656,60.9375 396.7656,57.8125 Q396.7656,54.6875 398.0781,53.0313 Q399.4063,51.375 401.9063,51.375 Q402.6094,51.375 403.25,51.5313 Q403.9063,51.6875 404.4688,51.9844 L404.4688,54.7031 Q403.8438,54.125 403.25,53.8594 Q402.6563,53.5781 402.0313,53.5781 Q400.6875,53.5781 400,54.6563 Q399.3125,55.7188 399.3125,57.8125 Q399.3125,59.9063 400,60.9844 Q400.6875,62.0469 402.0313,62.0469 Q402.6563,62.0469 403.25,61.7813 Q403.8438,61.5 404.4688,60.9219 L404.4688,63.6406 Z "/><text fill="#000000" font-family="sans-serif" font-size="12" lengthAdjust="spacingAndGlyphs" textLength="137" x="415.5" y="62.1543">TopLevelClassSupport</text><rect fill="#FFFFFF" height="15.9688" style="stroke: #000000; stroke-width: 1.0; stroke-dasharray: 2.0,2.0;" width="98" x="560.5" y="39"/><text fill="#000000" font-family="sans-serif" font-size="12" font-style="italic" lengthAdjust="spacingAndGlyphs" textLength="88" x="565.5" y="51.1387">Catch all class</text><!--MD5=[52303d185de782118d4739c052001bf2]
class Gnome::GObject::Signal--><rect codeLine="13" fill="#FEFECE" filter="url(#fmrkyrnh4cg06)" height="32" id="Gnome::GObject::Signal" style="stroke: #A80036; stroke-width: 1.5;" width="131" x="318.5" y="149"/><ellipse cx="333.5" cy="165" fill="#80FFFF" rx="11" ry="11" style="stroke: #A80036; stroke-width: 1.0;"/><path d="M334.7031,165.1406 Q335.0625,165.2188 335.3281,165.5 Q335.6094,165.7656 336,166.5469 L338.2344,171 L335.5469,171 L334.0469,167.875 Q333.9844,167.7344 333.875,167.5 Q333.2188,166.1094 332.3281,166.1094 L331.5469,166.1094 L331.5469,171 L329.1094,171 L329.1094,158.6094 L332.6406,158.6094 Q335.0313,158.6094 336.0625,159.4531 Q337.1094,160.2969 337.1094,162.2031 Q337.1094,163.4844 336.4844,164.25 Q335.875,165 334.7031,165.1406 Z M331.5469,160.6719 L331.5469,164.0469 L332.7031,164.0469 Q333.7188,164.0469 334.1406,163.6563 Q334.5781,163.25 334.5781,162.3438 Q334.5781,161.4531 334.1406,161.0625 Q333.7188,160.6719 332.7031,160.6719 L331.5469,160.6719 Z "/><text fill="#000000" font-family="sans-serif" font-size="12" lengthAdjust="spacingAndGlyphs" textLength="38" x="347.5" y="169.1543">Signal</text><rect fill="#FFFFFF" height="15.9688" style="stroke: #000000; stroke-width: 1.0; stroke-dasharray: 2.0,2.0;" width="59" x="393.5" y="146"/><text fill="#000000" font-family="sans-serif" font-size="12" font-style="italic" lengthAdjust="spacingAndGlyphs" textLength="57" x="394.5" y="158.1387">Interface</text><!--MD5=[c2016d28441601ceb0a74f47a4537d14]
class Gnome::GObject::Object--><rect fill="#FEFECE" filter="url(#fmrkyrnh4cg06)" height="32" id="Gnome::GObject::Object" style="stroke: #A80036; stroke-width: 1.5;" width="72" x="485" y="149"/><ellipse cx="500" cy="165" fill="#80FFFF" rx="11" ry="11" style="stroke: #A80036; stroke-width: 1.0;"/><path d="M502.9688,170.6406 Q502.3906,170.9375 501.75,171.0781 Q501.1094,171.2344 500.4063,171.2344 Q497.9063,171.2344 496.5781,169.5938 Q495.2656,167.9375 495.2656,164.8125 Q495.2656,161.6875 496.5781,160.0313 Q497.9063,158.375 500.4063,158.375 Q501.1094,158.375 501.75,158.5313 Q502.4063,158.6875 502.9688,158.9844 L502.9688,161.7031 Q502.3438,161.125 501.75,160.8594 Q501.1563,160.5781 500.5313,160.5781 Q499.1875,160.5781 498.5,161.6563 Q497.8125,162.7188 497.8125,164.8125 Q497.8125,166.9063 498.5,167.9844 Q499.1875,169.0469 500.5313,169.0469 Q501.1563,169.0469 501.75,168.7813 Q502.3438,168.5 502.9688,167.9219 L502.9688,170.6406 Z "/><text fill="#000000" font-family="sans-serif" font-size="12" lengthAdjust="spacingAndGlyphs" textLength="40" x="514" y="169.1543">Object</text><!--MD5=[f47b9a4a06d3f9bed948fa39f8c5540e]
class Gnome::GObject::InitialyUnowned--><rect fill="#FEFECE" filter="url(#fmrkyrnh4cg06)" height="32" id="Gnome::GObject::InitialyUnowned" style="stroke: #A80036; stroke-width: 1.5;" width="129" x="427.5" y="241"/><ellipse cx="442.5" cy="257" fill="#80FFFF" rx="11" ry="11" style="stroke: #A80036; stroke-width: 1.0;"/><path d="M445.4688,262.6406 Q444.8906,262.9375 444.25,263.0781 Q443.6094,263.2344 442.9063,263.2344 Q440.4063,263.2344 439.0781,261.5938 Q437.7656,259.9375 437.7656,256.8125 Q437.7656,253.6875 439.0781,252.0313 Q440.4063,250.375 442.9063,250.375 Q443.6094,250.375 444.25,250.5313 Q444.9063,250.6875 445.4688,250.9844 L445.4688,253.7031 Q444.8438,253.125 444.25,252.8594 Q443.6563,252.5781 443.0313,252.5781 Q441.6875,252.5781 441,253.6563 Q440.3125,254.7188 440.3125,256.8125 Q440.3125,258.9063 441,259.9844 Q441.6875,261.0469 443.0313,261.0469 Q443.6563,261.0469 444.25,260.7813 Q444.8438,260.5 445.4688,259.9219 L445.4688,262.6406 Z "/><text fill="#000000" font-family="sans-serif" font-size="12" lengthAdjust="spacingAndGlyphs" textLength="97" x="456.5" y="261.1543">InitialyUnowned</text><!--MD5=[865b113cd38444117c4dca48a702f1ee]
class Gnome::Gtk3::Orientable--><rect codeLine="16" fill="#FEFECE" filter="url(#fmrkyrnh4cg06)" height="32" id="Gnome::Gtk3::Orientable" style="stroke: #A80036; stroke-width: 1.5;" width="158" x="224" y="440"/><ellipse cx="239" cy="456" fill="#80FFFF" rx="11" ry="11" style="stroke: #A80036; stroke-width: 1.0;"/><path d="M240.2031,456.1406 Q240.5625,456.2188 240.8281,456.5 Q241.1094,456.7656 241.5,457.5469 L243.7344,462 L241.0469,462 L239.5469,458.875 Q239.4844,458.7344 239.375,458.5 Q238.7188,457.1094 237.8281,457.1094 L237.0469,457.1094 L237.0469,462 L234.6094,462 L234.6094,449.6094 L238.1406,449.6094 Q240.5313,449.6094 241.5625,450.4531 Q242.6094,451.2969 242.6094,453.2031 Q242.6094,454.4844 241.9844,455.25 Q241.375,456 240.2031,456.1406 Z M237.0469,451.6719 L237.0469,455.0469 L238.2031,455.0469 Q239.2188,455.0469 239.6406,454.6563 Q240.0781,454.25 240.0781,453.3438 Q240.0781,452.4531 239.6406,452.0625 Q239.2188,451.6719 238.2031,451.6719 L237.0469,451.6719 Z "/><text fill="#000000" font-family="sans-serif" font-size="12" lengthAdjust="spacingAndGlyphs" textLength="65" x="253" y="460.1543">Orientable</text><rect fill="#FFFFFF" height="15.9688" style="stroke: #000000; stroke-width: 1.0; stroke-dasharray: 2.0,2.0;" width="59" x="326" y="437"/><text fill="#000000" font-family="sans-serif" font-size="12" font-style="italic" lengthAdjust="spacingAndGlyphs" textLength="57" x="327" y="449.1387">Interface</text><!--MD5=[fc528952aa489a9a9f8514412a46a5d5]
class Gnome::Gtk3::Buildable--><rect codeLine="19" fill="#FEFECE" filter="url(#fmrkyrnh4cg06)" height="32" id="Gnome::Gtk3::Buildable" style="stroke: #A80036; stroke-width: 1.5;" width="150" x="417" y="440"/><ellipse cx="432" cy="456" fill="#80FFFF" rx="11" ry="11" style="stroke: #A80036; stroke-width: 1.0;"/><path d="M433.2031,456.1406 Q433.5625,456.2188 433.8281,456.5 Q434.1094,456.7656 434.5,457.5469 L436.7344,462 L434.0469,462 L432.5469,458.875 Q432.4844,458.7344 432.375,458.5 Q431.7188,457.1094 430.8281,457.1094 L430.0469,457.1094 L430.0469,462 L427.6094,462 L427.6094,449.6094 L431.1406,449.6094 Q433.5313,449.6094 434.5625,450.4531 Q435.6094,451.2969 435.6094,453.2031 Q435.6094,454.4844 434.9844,455.25 Q434.375,456 433.2031,456.1406 Z M430.0469,451.6719 L430.0469,455.0469 L431.2031,455.0469 Q432.2188,455.0469 432.6406,454.6563 Q433.0781,454.25 433.0781,453.3438 Q433.0781,452.4531 432.6406,452.0625 Q432.2188,451.6719 431.2031,451.6719 L430.0469,451.6719 Z "/><text fill="#000000" font-family="sans-serif" font-size="12" lengthAdjust="spacingAndGlyphs" textLength="57" x="446" y="460.1543">Buildable</text><rect fill="#FFFFFF" height="15.9688" style="stroke: #000000; stroke-width: 1.0; stroke-dasharray: 2.0,2.0;" width="59" x="511" y="437"/><text fill="#000000" font-family="sans-serif" font-size="12" font-style="italic" lengthAdjust="spacingAndGlyphs" textLength="57" x="512" y="449.1387">Interface</text><!--MD5=[37ab7fa61bdb8cc530408bb2be8ebe6a]
class Gnome::Gtk3::FileChooser--><rect codeLine="22" fill="#FEFECE" filter="url(#fmrkyrnh4cg06)" height="32" id="Gnome::Gtk3::FileChooser" style="stroke: #A80036; stroke-width: 1.5;" width="166" x="23" y="440"/><ellipse cx="38" cy="456" fill="#80FFFF" rx="11" ry="11" style="stroke: #A80036; stroke-width: 1.0;"/><path d="M39.2031,456.1406 Q39.5625,456.2188 39.8281,456.5 Q40.1094,456.7656 40.5,457.5469 L42.7344,462 L40.0469,462 L38.5469,458.875 Q38.4844,458.7344 38.375,458.5 Q37.7188,457.1094 36.8281,457.1094 L36.0469,457.1094 L36.0469,462 L33.6094,462 L33.6094,449.6094 L37.1406,449.6094 Q39.5313,449.6094 40.5625,450.4531 Q41.6094,451.2969 41.6094,453.2031 Q41.6094,454.4844 40.9844,455.25 Q40.375,456 39.2031,456.1406 Z M36.0469,451.6719 L36.0469,455.0469 L37.2031,455.0469 Q38.2188,455.0469 38.6406,454.6563 Q39.0781,454.25 39.0781,453.3438 Q39.0781,452.4531 38.6406,452.0625 Q38.2188,451.6719 37.2031,451.6719 L36.0469,451.6719 Z "/><text fill="#000000" font-family="sans-serif" font-size="12" lengthAdjust="spacingAndGlyphs" textLength="73" x="52" y="460.1543">FileChooser</text><rect fill="#FFFFFF" height="15.9688" style="stroke: #000000; stroke-width: 1.0; stroke-dasharray: 2.0,2.0;" width="59" x="133" y="437"/><text fill="#000000" font-family="sans-serif" font-size="12" font-style="italic" lengthAdjust="spacingAndGlyphs" textLength="57" x="134" y="449.1387">Interface</text><!--MD5=[99c1fd59bdfde6048aec9e6766dd53ef]
class Gnome::Gtk3::Widget--><rect fill="#FEFECE" filter="url(#fmrkyrnh4cg06)" height="32" id="Gnome::Gtk3::Widget" style="stroke: #A80036; stroke-width: 1.5;" width="75" x="454.5" y="348"/><ellipse cx="469.5" cy="364" fill="#80FFFF" rx="11" ry="11" style="stroke: #A80036; stroke-width: 1.0;"/><path d="M472.4688,369.6406 Q471.8906,369.9375 471.25,370.0781 Q470.6094,370.2344 469.9063,370.2344 Q467.4063,370.2344 466.0781,368.5938 Q464.7656,366.9375 464.7656,363.8125 Q464.7656,360.6875 466.0781,359.0313 Q467.4063,357.375 469.9063,357.375 Q470.6094,357.375 471.25,357.5313 Q471.9063,357.6875 472.4688,357.9844 L472.4688,360.7031 Q471.8438,360.125 471.25,359.8594 Q470.6563,359.5781 470.0313,359.5781 Q468.6875,359.5781 468,360.6563 Q467.3125,361.7188 467.3125,363.8125 Q467.3125,365.9063 468,366.9844 Q468.6875,368.0469 470.0313,368.0469 Q470.6563,368.0469 471.25,367.7813 Q471.8438,367.5 472.4688,366.9219 L472.4688,369.6406 Z "/><text fill="#000000" font-family="sans-serif" font-size="12" lengthAdjust="spacingAndGlyphs" textLength="43" x="483.5" y="368.1543">Widget</text><!--MD5=[9e3cc955f682d05594420e46d2e4e3ea]
class Gnome::Gtk3::Container--><rect fill="#FEFECE" filter="url(#fmrkyrnh4cg06)" height="32" id="Gnome::Gtk3::Container" style="stroke: #A80036; stroke-width: 1.5;" width="93" x="326.5" y="348"/><ellipse cx="341.5" cy="364" fill="#80FFFF" rx="11" ry="11" style="stroke: #A80036; stroke-width: 1.0;"/><path d="M344.4688,369.6406 Q343.8906,369.9375 343.25,370.0781 Q342.6094,370.2344 341.9063,370.2344 Q339.4063,370.2344 338.0781,368.5938 Q336.7656,366.9375 336.7656,363.8125 Q336.7656,360.6875 338.0781,359.0313 Q339.4063,357.375 341.9063,357.375 Q342.6094,357.375 343.25,357.5313 Q343.9063,357.6875 344.4688,357.9844 L344.4688,360.7031 Q343.8438,360.125 343.25,359.8594 Q342.6563,359.5781 342.0313,359.5781 Q340.6875,359.5781 340,360.6563 Q339.3125,361.7188 339.3125,363.8125 Q339.3125,365.9063 340,366.9844 Q340.6875,368.0469 342.0313,368.0469 Q342.6563,368.0469 343.25,367.7813 Q343.8438,367.5 344.4688,366.9219 L344.4688,369.6406 Z "/><text fill="#000000" font-family="sans-serif" font-size="12" lengthAdjust="spacingAndGlyphs" textLength="61" x="355.5" y="368.1543">Container</text><!--MD5=[1a4770efc7afe469e38e2fcdc96960c5]
class Gnome::Gtk3::Box--><rect fill="#FEFECE" filter="url(#fmrkyrnh4cg06)" height="32" id="Gnome::Gtk3::Box" style="stroke: #A80036; stroke-width: 1.5;" width="54" x="237" y="348"/><ellipse cx="252" cy="364" fill="#80FFFF" rx="11" ry="11" style="stroke: #A80036; stroke-width: 1.0;"/><path d="M254.9688,369.6406 Q254.3906,369.9375 253.75,370.0781 Q253.1094,370.2344 252.4063,370.2344 Q249.9063,370.2344 248.5781,368.5938 Q247.2656,366.9375 247.2656,363.8125 Q247.2656,360.6875 248.5781,359.0313 Q249.9063,357.375 252.4063,357.375 Q253.1094,357.375 253.75,357.5313 Q254.4063,357.6875 254.9688,357.9844 L254.9688,360.7031 Q254.3438,360.125 253.75,359.8594 Q253.1563,359.5781 252.5313,359.5781 Q251.1875,359.5781 250.5,360.6563 Q249.8125,361.7188 249.8125,363.8125 Q249.8125,365.9063 250.5,366.9844 Q251.1875,368.0469 252.5313,368.0469 Q253.1563,368.0469 253.75,367.7813 Q254.3438,367.5 254.9688,366.9219 L254.9688,369.6406 Z "/><text fill="#000000" font-family="sans-serif" font-size="12" lengthAdjust="spacingAndGlyphs" textLength="22" x="266" y="368.1543">Box</text><!--MD5=[18b421e183ed48c1ecce2d6823a90773]
class Gnome::Gtk3::FileChooserWidget--><rect fill="#FEFECE" filter="url(#fmrkyrnh4cg06)" height="32" id="Gnome::Gtk3::FileChooserWidget" style="stroke: #A80036; stroke-width: 1.5;" width="148" x="43" y="348"/><ellipse cx="58" cy="364" fill="#80FFFF" rx="11" ry="11" style="stroke: #A80036; stroke-width: 1.0;"/><path d="M60.9688,369.6406 Q60.3906,369.9375 59.75,370.0781 Q59.1094,370.2344 58.4063,370.2344 Q55.9063,370.2344 54.5781,368.5938 Q53.2656,366.9375 53.2656,363.8125 Q53.2656,360.6875 54.5781,359.0313 Q55.9063,357.375 58.4063,357.375 Q59.1094,357.375 59.75,357.5313 Q60.4063,357.6875 60.9688,357.9844 L60.9688,360.7031 Q60.3438,360.125 59.75,359.8594 Q59.1563,359.5781 58.5313,359.5781 Q57.1875,359.5781 56.5,360.6563 Q55.8125,361.7188 55.8125,363.8125 Q55.8125,365.9063 56.5,366.9844 Q57.1875,368.0469 58.5313,368.0469 Q59.1563,368.0469 59.75,367.7813 Q60.3438,367.5 60.9688,366.9219 L60.9688,369.6406 Z "/><text fill="#000000" font-family="sans-serif" font-size="12" lengthAdjust="spacingAndGlyphs" textLength="116" x="72" y="368.1543">FileChooserWidget</text><!--MD5=[e23b679cf607d12ac81e9c5301595709]
reverse link Gnome::N::TopLevelClassSupport to Gnome::GObject::Object--><path codeLine="25" d="M521,94.1 C521,112.76 521,134.73 521,148.98 " fill="none" id="Gnome::N::TopLevelClassSupport-backto-Gnome::GObject::Object" style="stroke: #A80036; stroke-width: 1.0;"/><polygon fill="none" points="514,94.04,521,74.04,528,94.04,514,94.04" style="stroke: #A80036; stroke-width: 1.0;"/><!--MD5=[2e57c6084092ea441ae4a3f826779dd8]
reverse link Gnome::GObject::Object to Gnome::GObject::InitialyUnowned--><path codeLine="26" d="M509.84,200.63 C505.34,214.59 500.39,229.96 496.85,240.96 " fill="none" id="Gnome::GObject::Object-backto-Gnome::GObject::InitialyUnowned" style="stroke: #A80036; stroke-width: 1.0;"/><polygon fill="none" points="503.28,198.16,516.08,181.27,516.61,202.45,503.28,198.16" style="stroke: #A80036; stroke-width: 1.0;"/><!--MD5=[aa49dbc803ccf1c2ef8546b297b1dcfd]
reverse link Gnome::GObject::InitialyUnowned to Gnome::Gtk3::Widget--><path codeLine="27" d="M492,293.1 C492,311.76 492,333.73 492,347.98 " fill="none" id="Gnome::GObject::InitialyUnowned-backto-Gnome::Gtk3::Widget" style="stroke: #A80036; stroke-width: 1.0;"/><polygon fill="none" points="485,293.04,492,273.04,499,293.04,485,293.04" style="stroke: #A80036; stroke-width: 1.0;"/><!--MD5=[aaf476f5d2312b98d0ee61e81272172c]
link Gnome::Gtk3::Container to Gnome::Gtk3::Widget--><path codeLine="28" d="M419.95,364 C424.69,364 429.43,364 434.17,364 " fill="none" id="Gnome::Gtk3::Container-to-Gnome::Gtk3::Widget" style="stroke: #A80036; stroke-width: 1.0;"/><polygon fill="none" points="434.29,357,454.29,364,434.29,371,434.29,357" style="stroke: #A80036; stroke-width: 1.0;"/><!--MD5=[b6e1396316cda9879a2d2856e93e7af0]
link Gnome::Gtk3::Box to Gnome::Gtk3::Container--><path codeLine="29" d="M291.25,364 C296.28,364 301.31,364 306.34,364 " fill="none" id="Gnome::Gtk3::Box-to-Gnome::Gtk3::Container" style="stroke: #A80036; stroke-width: 1.0;"/><polygon fill="none" points="306.38,357,326.38,364,306.38,371,306.38,357" style="stroke: #A80036; stroke-width: 1.0;"/><!--MD5=[a0e8ae9074f3a6ea5af71b4e9a4572e4]
link Gnome::Gtk3::FileChooserWidget to Gnome::Gtk3::Box--><path codeLine="30" d="M191.07,364 C199.67,364 208.27,364 216.87,364 " fill="none" id="Gnome::Gtk3::FileChooserWidget-to-Gnome::Gtk3::Box" style="stroke: #A80036; stroke-width: 1.0;"/><polygon fill="none" points="216.94,357,236.94,364,216.94,371,216.94,357" style="stroke: #A80036; stroke-width: 1.0;"/><!--MD5=[f8ffcf4587ba956cb48626a4231e4d21]
reverse link Gnome::GObject::Signal to Gnome::GObject::Object--><path codeLine="33" d="M469.77,165 C474.85,165 479.92,165 485,165 " fill="none" id="Gnome::GObject::Signal-backto-Gnome::GObject::Object" style="stroke: #A80036; stroke-width: 1.0; stroke-dasharray: 7.0,7.0;"/><polygon fill="none" points="469.56,172,449.56,165,469.56,158,469.56,172" style="stroke: #A80036; stroke-width: 1.0;"/><!--MD5=[a6b00b89fd018b89a6ad3c119dbe5dbe]
link Gnome::Gtk3::Box to Gnome::Gtk3::Orientable--><path codeLine="34" d="M270.62,380.27 C275.46,391.45 282.23,407.08 288.33,421.15 " fill="none" id="Gnome::Gtk3::Box-to-Gnome::Gtk3::Orientable" style="stroke: #A80036; stroke-width: 1.0; stroke-dasharray: 7.0,7.0;"/><polygon fill="none" points="294.95,418.82,296.48,439.96,282.11,424.39,294.95,418.82" style="stroke: #A80036; stroke-width: 1.0;"/><!--MD5=[e1568b3b4ceade3a3349f45f19b4c32a]
link Gnome::Gtk3::Widget to Gnome::Gtk3::Buildable--><path codeLine="35" d="M492,380.27 C492,391.06 492,405.99 492,419.67 " fill="none" id="Gnome::Gtk3::Widget-to-Gnome::Gtk3::Buildable" style="stroke: #A80036; stroke-width: 1.0; stroke-dasharray: 7.0,7.0;"/><polygon fill="none" points="499,419.96,492,439.96,485,419.96,499,419.96" style="stroke: #A80036; stroke-width: 1.0;"/><!--MD5=[b6a71faad8bba39ba3957efd9a5131b5]
link Gnome::Gtk3::FileChooserWidget to Gnome::Gtk3::FileChooser--><path codeLine="36" d="M115.13,380.27 C113.81,391.06 111.99,405.99 110.32,419.67 " fill="none" id="Gnome::Gtk3::FileChooserWidget-to-Gnome::Gtk3::FileChooser" style="stroke: #A80036; stroke-width: 1.0; stroke-dasharray: 7.0,7.0;"/><polygon fill="none" points="117.21,420.96,107.84,439.96,103.32,419.26,117.21,420.96" style="stroke: #A80036; stroke-width: 1.0;"/><!--MD5=[e0ff2c5393013f67b7bd64c0ed00b7dc]
@startuml
'scale 0.9
skinparam packageStyle rectangle
skinparam stereotypeCBackgroundColor #80ffff
set namespaceSeparator ::
hide members


'Class and interface declarations
class Gnome::N::TopLevelClassSupport < Catch all class >

Interface Gnome::GObject::Signal <Interface>
class Gnome::GObject::Signal <<(R,#80ffff)>>

Interface Gnome::Gtk3::Orientable <Interface>
class Gnome::Gtk3::Orientable <<(R,#80ffff)>>

Interface Gnome::Gtk3::Buildable <Interface>
class Gnome::Gtk3::Buildable <<(R,#80ffff)>>

Interface Gnome::Gtk3::FileChooser <Interface>
class Gnome::Gtk3::FileChooser <<(R,#80ffff)>>

'Class connections
Gnome::N::TopLevelClassSupport <|- - Gnome::GObject::Object
Gnome::GObject::Object <|- - Gnome::GObject::InitialyUnowned
Gnome::GObject::InitialyUnowned <|- - Gnome::Gtk3::Widget
Gnome::Gtk3::Container -|> Gnome::Gtk3::Widget
Gnome::Gtk3::Box -|> Gnome::Gtk3::Container
Gnome::Gtk3::FileChooserWidget -|> Gnome::Gtk3::Box

'Interface connections
Gnome::GObject::Signal <|. Gnome::GObject::Object
Gnome::Gtk3::Box ..|> Gnome::Gtk3::Orientable
Gnome::Gtk3::Widget ..|> Gnome::Gtk3::Buildable
Gnome::Gtk3::FileChooserWidget ..|> Gnome::Gtk3::FileChooser

@enduml

@startuml
skinparam packageStyle rectangle
skinparam stereotypeCBackgroundColor #80ffff
set namespaceSeparator ::
hide members


class Gnome::N::TopLevelClassSupport < Catch all class >

Interface Gnome::GObject::Signal <Interface>
class Gnome::GObject::Signal <<(R,#80ffff)>>

Interface Gnome::Gtk3::Orientable <Interface>
class Gnome::Gtk3::Orientable <<(R,#80ffff)>>

Interface Gnome::Gtk3::Buildable <Interface>
class Gnome::Gtk3::Buildable <<(R,#80ffff)>>

Interface Gnome::Gtk3::FileChooser <Interface>
class Gnome::Gtk3::FileChooser <<(R,#80ffff)>>

Gnome::N::TopLevelClassSupport <|- - Gnome::GObject::Object
Gnome::GObject::Object <|- - Gnome::GObject::InitialyUnowned
Gnome::GObject::InitialyUnowned <|- - Gnome::Gtk3::Widget
Gnome::Gtk3::Container -|> Gnome::Gtk3::Widget
Gnome::Gtk3::Box -|> Gnome::Gtk3::Container
Gnome::Gtk3::FileChooserWidget -|> Gnome::Gtk3::Box

Gnome::GObject::Signal <|. Gnome::GObject::Object
Gnome::Gtk3::Box ..|> Gnome::Gtk3::Orientable
Gnome::Gtk3::Widget ..|> Gnome::Gtk3::Buildable
Gnome::Gtk3::FileChooserWidget ..|> Gnome::Gtk3::FileChooser

@enduml

PlantUML version 1.2020.19(Mon Oct 12 17:10:01 CEST 2020)
(GPL source distribution)
Java Runtime: OpenJDK Runtime Environment
JVM: OpenJDK 64-Bit Server VM
Default Encoding: UTF-8
Language: en
Country: US
--></g></svg>