<?xml version="1.0" encoding="UTF-8" standalone="no"?><svg xmlns="http://www.w3.org/2000/svg" xmlns:xlink="http://www.w3.org/1999/xlink" contentScriptType="application/ecmascript" contentStyleType="text/css" height="408px" preserveAspectRatio="none" style="width:452px;height:408px;" version="1.1" viewBox="0 0 452 408" width="452px" zoomAndPan="magnify"><defs><filter height="300%" id="fmp1jseacadvh" width="300%" x="-1" y="-1"><feGaussianBlur result="blurOut" stdDeviation="2.0"/><feColorMatrix in="blurOut" result="blurOut2" type="matrix" values="0 0 0 0 0 0 0 0 0 0 0 0 0 0 0 0 0 0 .4 0"/><feOffset dx="4.0" dy="4.0" in="blurOut2" result="blurOut3"/><feBlend in="SourceGraphic" in2="blurOut3" mode="normal"/></filter></defs><g><!--MD5=[b969295f0ec9b4fa482091c3e26049be]
cluster Gnome::N--><rect fill="#FFFFFF" filter="url(#fmp1jseacadvh)" height="83" style="stroke: #000000; stroke-width: 1.5;" width="302" x="75" y="7"/><text fill="#000000" font-family="sans-serif" font-size="14" font-weight="bold" lengthAdjust="spacingAndGlyphs" textLength="79" x="186.5" y="21.9951">Gnome::N</text><!--MD5=[2fb3f9b624b0544b9841d5da78ec0508]
cluster Gnome::GObject--><rect fill="#FFFFFF" filter="url(#fmp1jseacadvh)" height="175" style="stroke: #000000; stroke-width: 1.5;" width="271" x="7" y="114"/><text fill="#000000" font-family="sans-serif" font-size="14" font-weight="bold" lengthAdjust="spacingAndGlyphs" textLength="131" x="77" y="128.9951">Gnome::GObject</text><!--MD5=[7d67f77911969026863717fbb204e273]
cluster Gnome::Gtk3--><rect fill="#FFFFFF" filter="url(#fmp1jseacadvh)" height="83" style="stroke: #000000; stroke-width: 1.5;" width="301" x="139" y="313"/><text fill="#000000" font-family="sans-serif" font-size="14" font-weight="bold" lengthAdjust="spacingAndGlyphs" textLength="105" x="237" y="327.9951">Gnome::Gtk3</text><!--MD5=[0b8e281ccd00c72019a31d78e9f95b5d]
class Gnome::N::TopLevelClassSupport--><rect codeLine="9" fill="#FEFECE" filter="url(#fmp1jseacadvh)" height="32" id="Gnome::N::TopLevelClassSupport" style="stroke: #A80036; stroke-width: 1.5;" width="269" x="91.5" y="42"/><ellipse cx="106.5" cy="58" fill="#80FFFF" rx="11" ry="11" style="stroke: #A80036; stroke-width: 1.0;"/><path d="M109.4688,63.6406 Q108.8906,63.9375 108.25,64.0781 Q107.6094,64.2344 106.9063,64.2344 Q104.4063,64.2344 103.0781,62.5938 Q101.7656,60.9375 101.7656,57.8125 Q101.7656,54.6875 103.0781,53.0313 Q104.4063,51.375 106.9063,51.375 Q107.6094,51.375 108.25,51.5313 Q108.9063,51.6875 109.4688,51.9844 L109.4688,54.7031 Q108.8438,54.125 108.25,53.8594 Q107.6563,53.5781 107.0313,53.5781 Q105.6875,53.5781 105,54.6563 Q104.3125,55.7188 104.3125,57.8125 Q104.3125,59.9063 105,60.9844 Q105.6875,62.0469 107.0313,62.0469 Q107.6563,62.0469 108.25,61.7813 Q108.8438,61.5 109.4688,60.9219 L109.4688,63.6406 Z "/><text fill="#000000" font-family="sans-serif" font-size="12" lengthAdjust="spacingAndGlyphs" textLength="137" x="120.5" y="62.1543">TopLevelClassSupport</text><rect fill="#FFFFFF" height="15.9688" style="stroke: #000000; stroke-width: 1.0; stroke-dasharray: 2.0,2.0;" width="98" x="265.5" y="39"/><text fill="#000000" font-family="sans-serif" font-size="12" font-style="italic" lengthAdjust="spacingAndGlyphs" textLength="88" x="270.5" y="51.1387">Catch all class</text><!--MD5=[c2016d28441601ceb0a74f47a4537d14]
class Gnome::GObject::Object--><rect fill="#FEFECE" filter="url(#fmp1jseacadvh)" height="32" id="Gnome::GObject::Object" style="stroke: #A80036; stroke-width: 1.5;" width="72" x="190" y="149"/><ellipse cx="205" cy="165" fill="#80FFFF" rx="11" ry="11" style="stroke: #A80036; stroke-width: 1.0;"/><path d="M207.9688,170.6406 Q207.3906,170.9375 206.75,171.0781 Q206.1094,171.2344 205.4063,171.2344 Q202.9063,171.2344 201.5781,169.5938 Q200.2656,167.9375 200.2656,164.8125 Q200.2656,161.6875 201.5781,160.0313 Q202.9063,158.375 205.4063,158.375 Q206.1094,158.375 206.75,158.5313 Q207.4063,158.6875 207.9688,158.9844 L207.9688,161.7031 Q207.3438,161.125 206.75,160.8594 Q206.1563,160.5781 205.5313,160.5781 Q204.1875,160.5781 203.5,161.6563 Q202.8125,162.7188 202.8125,164.8125 Q202.8125,166.9063 203.5,167.9844 Q204.1875,169.0469 205.5313,169.0469 Q206.1563,169.0469 206.75,168.7813 Q207.3438,168.5 207.9688,167.9219 L207.9688,170.6406 Z "/><text fill="#000000" font-family="sans-serif" font-size="12" lengthAdjust="spacingAndGlyphs" textLength="40" x="219" y="169.1543">Object</text><!--MD5=[52303d185de782118d4739c052001bf2]
class Gnome::GObject::Signal--><rect codeLine="13" fill="#FEFECE" filter="url(#fmp1jseacadvh)" height="32" id="Gnome::GObject::Signal" style="stroke: #A80036; stroke-width: 1.5;" width="131" x="23.5" y="149"/><ellipse cx="38.5" cy="165" fill="#80FFFF" rx="11" ry="11" style="stroke: #A80036; stroke-width: 1.0;"/><path d="M39.7031,165.1406 Q40.0625,165.2188 40.3281,165.5 Q40.6094,165.7656 41,166.5469 L43.2344,171 L40.5469,171 L39.0469,167.875 Q38.9844,167.7344 38.875,167.5 Q38.2188,166.1094 37.3281,166.1094 L36.5469,166.1094 L36.5469,171 L34.1094,171 L34.1094,158.6094 L37.6406,158.6094 Q40.0313,158.6094 41.0625,159.4531 Q42.1094,160.2969 42.1094,162.2031 Q42.1094,163.4844 41.4844,164.25 Q40.875,165 39.7031,165.1406 Z M36.5469,160.6719 L36.5469,164.0469 L37.7031,164.0469 Q38.7188,164.0469 39.1406,163.6563 Q39.5781,163.25 39.5781,162.3438 Q39.5781,161.4531 39.1406,161.0625 Q38.7188,160.6719 37.7031,160.6719 L36.5469,160.6719 Z "/><text fill="#000000" font-family="sans-serif" font-size="12" lengthAdjust="spacingAndGlyphs" textLength="38" x="52.5" y="169.1543">Signal</text><rect fill="#FFFFFF" height="15.9688" style="stroke: #000000; stroke-width: 1.0; stroke-dasharray: 2.0,2.0;" width="59" x="98.5" y="146"/><text fill="#000000" font-family="sans-serif" font-size="12" font-style="italic" lengthAdjust="spacingAndGlyphs" textLength="57" x="99.5" y="158.1387">Interface</text><!--MD5=[f47b9a4a06d3f9bed948fa39f8c5540e]
class Gnome::GObject::InitialyUnowned--><rect fill="#FEFECE" filter="url(#fmp1jseacadvh)" height="32" id="Gnome::GObject::InitialyUnowned" style="stroke: #A80036; stroke-width: 1.5;" width="129" x="132.5" y="241"/><ellipse cx="147.5" cy="257" fill="#80FFFF" rx="11" ry="11" style="stroke: #A80036; stroke-width: 1.0;"/><path d="M150.4688,262.6406 Q149.8906,262.9375 149.25,263.0781 Q148.6094,263.2344 147.9063,263.2344 Q145.4063,263.2344 144.0781,261.5938 Q142.7656,259.9375 142.7656,256.8125 Q142.7656,253.6875 144.0781,252.0313 Q145.4063,250.375 147.9063,250.375 Q148.6094,250.375 149.25,250.5313 Q149.9063,250.6875 150.4688,250.9844 L150.4688,253.7031 Q149.8438,253.125 149.25,252.8594 Q148.6563,252.5781 148.0313,252.5781 Q146.6875,252.5781 146,253.6563 Q145.3125,254.7188 145.3125,256.8125 Q145.3125,258.9063 146,259.9844 Q146.6875,261.0469 148.0313,261.0469 Q148.6563,261.0469 149.25,260.7813 Q149.8438,260.5 150.4688,259.9219 L150.4688,262.6406 Z "/><text fill="#000000" font-family="sans-serif" font-size="12" lengthAdjust="spacingAndGlyphs" textLength="97" x="161.5" y="261.1543">InitialyUnowned</text><!--MD5=[fc528952aa489a9a9f8514412a46a5d5]
class Gnome::Gtk3::Buildable--><rect codeLine="16" fill="#FEFECE" filter="url(#fmp1jseacadvh)" height="32" id="Gnome::Gtk3::Buildable" style="stroke: #A80036; stroke-width: 1.5;" width="150" x="274" y="348"/><ellipse cx="289" cy="364" fill="#80FFFF" rx="11" ry="11" style="stroke: #A80036; stroke-width: 1.0;"/><path d="M290.2031,364.1406 Q290.5625,364.2188 290.8281,364.5 Q291.1094,364.7656 291.5,365.5469 L293.7344,370 L291.0469,370 L289.5469,366.875 Q289.4844,366.7344 289.375,366.5 Q288.7188,365.1094 287.8281,365.1094 L287.0469,365.1094 L287.0469,370 L284.6094,370 L284.6094,357.6094 L288.1406,357.6094 Q290.5313,357.6094 291.5625,358.4531 Q292.6094,359.2969 292.6094,361.2031 Q292.6094,362.4844 291.9844,363.25 Q291.375,364 290.2031,364.1406 Z M287.0469,359.6719 L287.0469,363.0469 L288.2031,363.0469 Q289.2188,363.0469 289.6406,362.6563 Q290.0781,362.25 290.0781,361.3438 Q290.0781,360.4531 289.6406,360.0625 Q289.2188,359.6719 288.2031,359.6719 L287.0469,359.6719 Z "/><text fill="#000000" font-family="sans-serif" font-size="12" lengthAdjust="spacingAndGlyphs" textLength="57" x="303" y="368.1543">Buildable</text><rect fill="#FFFFFF" height="15.9688" style="stroke: #000000; stroke-width: 1.0; stroke-dasharray: 2.0,2.0;" width="59" x="368" y="345"/><text fill="#000000" font-family="sans-serif" font-size="12" font-style="italic" lengthAdjust="spacingAndGlyphs" textLength="57" x="369" y="357.1387">Interface</text><!--MD5=[3e9ba95683705f8ab1956ff0a70c92e5]
class Gnome::Gtk3::FileFilter--><rect fill="#FEFECE" filter="url(#fmp1jseacadvh)" height="32" id="Gnome::Gtk3::FileFilter" style="stroke: #A80036; stroke-width: 1.5;" width="84" x="155" y="348"/><ellipse cx="170" cy="364" fill="#80FFFF" rx="11" ry="11" style="stroke: #A80036; stroke-width: 1.0;"/><path d="M172.9688,369.6406 Q172.3906,369.9375 171.75,370.0781 Q171.1094,370.2344 170.4063,370.2344 Q167.9063,370.2344 166.5781,368.5938 Q165.2656,366.9375 165.2656,363.8125 Q165.2656,360.6875 166.5781,359.0313 Q167.9063,357.375 170.4063,357.375 Q171.1094,357.375 171.75,357.5313 Q172.4063,357.6875 172.9688,357.9844 L172.9688,360.7031 Q172.3438,360.125 171.75,359.8594 Q171.1563,359.5781 170.5313,359.5781 Q169.1875,359.5781 168.5,360.6563 Q167.8125,361.7188 167.8125,363.8125 Q167.8125,365.9063 168.5,366.9844 Q169.1875,368.0469 170.5313,368.0469 Q171.1563,368.0469 171.75,367.7813 Q172.3438,367.5 172.9688,366.9219 L172.9688,369.6406 Z "/><text fill="#000000" font-family="sans-serif" font-size="12" lengthAdjust="spacingAndGlyphs" textLength="52" x="184" y="368.1543">FileFilter</text><!--MD5=[e23b679cf607d12ac81e9c5301595709]
reverse link Gnome::N::TopLevelClassSupport to Gnome::GObject::Object--><path codeLine="10" d="M226,94.1 C226,112.76 226,134.73 226,148.98 " fill="none" id="Gnome::N::TopLevelClassSupport-backto-Gnome::GObject::Object" style="stroke: #A80036; stroke-width: 1.0;"/><polygon fill="none" points="219,94.04,226,74.04,233,94.04,219,94.04" style="stroke: #A80036; stroke-width: 1.0;"/><!--MD5=[2e57c6084092ea441ae4a3f826779dd8]
reverse link Gnome::GObject::Object to Gnome::GObject::InitialyUnowned--><path codeLine="18" d="M214.84,200.63 C210.34,214.59 205.39,229.96 201.85,240.96 " fill="none" id="Gnome::GObject::Object-backto-Gnome::GObject::InitialyUnowned" style="stroke: #A80036; stroke-width: 1.0;"/><polygon fill="none" points="208.28,198.16,221.08,181.27,221.61,202.45,208.28,198.16" style="stroke: #A80036; stroke-width: 1.0;"/><!--MD5=[f8ffcf4587ba956cb48626a4231e4d21]
reverse link Gnome::GObject::Signal to Gnome::GObject::Object--><path codeLine="19" d="M174.77,165 C179.85,165 184.92,165 190,165 " fill="none" id="Gnome::GObject::Signal-backto-Gnome::GObject::Object" style="stroke: #A80036; stroke-width: 1.0; stroke-dasharray: 7.0,7.0;"/><polygon fill="none" points="174.56,172,154.56,165,174.56,158,174.56,172" style="stroke: #A80036; stroke-width: 1.0;"/><!--MD5=[d70e4d3a437dba6a3162969b5f210984]
reverse link Gnome::GObject::InitialyUnowned to Gnome::Gtk3::FileFilter--><path codeLine="21" d="M197,293.1 C197,311.76 197,333.73 197,347.98 " fill="none" id="Gnome::GObject::InitialyUnowned-backto-Gnome::Gtk3::FileFilter" style="stroke: #A80036; stroke-width: 1.0;"/><polygon fill="none" points="190,293.04,197,273.04,204,293.04,190,293.04" style="stroke: #A80036; stroke-width: 1.0;"/><!--MD5=[c2e290601bbbf1003f06c87a532f2490]
link Gnome::Gtk3::FileFilter to Gnome::Gtk3::Buildable--><path codeLine="23" d="M239.16,364 C244.04,364 248.93,364 253.82,364 " fill="none" id="Gnome::Gtk3::FileFilter-to-Gnome::Gtk3::Buildable" style="stroke: #A80036; stroke-width: 1.0; stroke-dasharray: 7.0,7.0;"/><polygon fill="none" points="253.91,357,273.91,364,253.91,371,253.91,357" style="stroke: #A80036; stroke-width: 1.0;"/><!--MD5=[05d3e4f978cbcd70d3e11772c59e9177]
@startuml
'scale 0.9
skinparam packageStyle rectangle
skinparam stereotypeCBackgroundColor #80ffff
set namespaceSeparator ::
hide members


class Gnome::N::TopLevelClassSupport < Catch all class >
Gnome::N::TopLevelClassSupport <|- - Gnome::GObject::Object

Interface Gnome::GObject::Signal <Interface>
class Gnome::GObject::Signal <<(R,#80ffff)>>

Interface Gnome::Gtk3::Buildable <Interface>
class Gnome::Gtk3::Buildable <<(R,#80ffff)>>

Gnome::GObject::Object <|- - Gnome::GObject::InitialyUnowned
Gnome::GObject::Signal <|. Gnome::GObject::Object

Gnome::GObject::InitialyUnowned <|- - Gnome::Gtk3::FileFilter

Gnome::Gtk3::FileFilter .|> Gnome::Gtk3::Buildable

'Gnome::Gtk3::Bin <|- Gnome::Gtk3::Button
'Gnome::Gtk3::Container <|- Gnome::Gtk3::Bin
'Gnome::Gtk3::Widget <|- Gnome::Gtk3::Container

'Gnome::Gtk3::Button -|> Gnome::Gtk3::Bin
'Gnome::Gtk3::Bin -|> Gnome::Gtk3::Container
'Gnome::Gtk3::Container -|> Gnome::Gtk3::Widget
'Gnome::Gtk3::Stack -|> Gnome::Gtk3::Container



'class Gnome::Gtk3::Button implements Gnome::Gtk3::Actionable

'Interface Gnome::Gtk3::Orientable <Interface>
'Gnome::Gtk3::Orientable <|- - Gnome::Gtk3::ScaleButton

'Interface Gnome::Gtk3::ColorChooser <Interface>
'Gnome::Gtk3::ColorChooser <|- - Gnome::Gtk3::ColorButton

'Interface Gnome::Gtk3::FontChooser <Interface>
'Gnome::Gtk3::FontChooser <|- - Gnome::Gtk3::FontButton

'Gnome::GObject <- -[hidden]- Gnome::Gtk3



'Gnome::Gtk3::Button <|- - Gnome::Gtk3::ToggleButton
'Gnome::Gtk3::Button <|- - Gnome::Gtk3::ColorButton
'Gnome::Gtk3::ToggleButton <|- - Gnome::Gtk3::CheckButton
'Gnome::Gtk3::ToggleButton <|- - Gnome::Gtk3::MenuButton
'Gnome::Gtk3::CheckButton <|- - Gnome::Gtk3::RadioButton
'Gnome::Gtk3::Button <|- - - Gnome::Gtk3::FontButton
'Gnome::Gtk3::Button <|- - Gnome::Gtk3::LinkButton
'Gnome::Gtk3::Button <|- - Gnome::Gtk3::LockButton
'Gnome::Gtk3::Button <|- - Gnome::Gtk3::ModelButton
'Gnome::Gtk3::Button <|- - Gnome::Gtk3::ScaleButton
'Gnome::Gtk3::ScaleButton <|- - Gnome::Gtk3::VolumeButton
@enduml

@startuml
skinparam packageStyle rectangle
skinparam stereotypeCBackgroundColor #80ffff
set namespaceSeparator ::
hide members


class Gnome::N::TopLevelClassSupport < Catch all class >
Gnome::N::TopLevelClassSupport <|- - Gnome::GObject::Object

Interface Gnome::GObject::Signal <Interface>
class Gnome::GObject::Signal <<(R,#80ffff)>>

Interface Gnome::Gtk3::Buildable <Interface>
class Gnome::Gtk3::Buildable <<(R,#80ffff)>>

Gnome::GObject::Object <|- - Gnome::GObject::InitialyUnowned
Gnome::GObject::Signal <|. Gnome::GObject::Object

Gnome::GObject::InitialyUnowned <|- - Gnome::Gtk3::FileFilter

Gnome::Gtk3::FileFilter .|> Gnome::Gtk3::Buildable












@enduml

PlantUML version 1.2020.19(Mon Oct 12 17:10:01 CEST 2020)
(GPL source distribution)
Java Runtime: OpenJDK Runtime Environment
JVM: OpenJDK 64-Bit Server VM
Default Encoding: UTF-8
Language: en
Country: US
--></g></svg>