<?xml version="1.0" encoding="UTF-8" standalone="no"?><svg xmlns="http://www.w3.org/2000/svg" xmlns:xlink="http://www.w3.org/1999/xlink" contentScriptType="application/ecmascript" contentStyleType="text/css" height="638px" preserveAspectRatio="none" style="width:591px;height:638px;" version="1.1" viewBox="0 0 591 638" width="591px" zoomAndPan="magnify"><defs><filter height="300%" id="f1lm3kfi81nuvq" width="300%" x="-1" y="-1"><feGaussianBlur result="blurOut" stdDeviation="2.0"/><feColorMatrix in="blurOut" result="blurOut2" type="matrix" values="0 0 0 0 0 0 0 0 0 0 0 0 0 0 0 0 0 0 .4 0"/><feOffset dx="4.0" dy="4.0" in="blurOut2" result="blurOut3"/><feBlend in="SourceGraphic" in2="blurOut3" mode="normal"/></filter></defs><g><!--MD5=[b969295f0ec9b4fa482091c3e26049be]
cluster Gnome::N--><rect fill="#FFFFFF" filter="url(#f1lm3kfi81nuvq)" height="83" style="stroke: #000000; stroke-width: 1.5;" width="302" x="75" y="7"/><text fill="#000000" font-family="sans-serif" font-size="14" font-weight="bold" lengthAdjust="spacingAndGlyphs" textLength="79" x="186.5" y="21.9951">Gnome::N</text><!--MD5=[2fb3f9b624b0544b9841d5da78ec0508]
cluster Gnome::GObject--><rect fill="#FFFFFF" filter="url(#f1lm3kfi81nuvq)" height="175" style="stroke: #000000; stroke-width: 1.5;" width="271" x="7" y="114"/><text fill="#000000" font-family="sans-serif" font-size="14" font-weight="bold" lengthAdjust="spacingAndGlyphs" textLength="131" x="77" y="128.9951">Gnome::GObject</text><!--MD5=[7d67f77911969026863717fbb204e273]
cluster Gnome::Gtk3--><rect fill="#FFFFFF" filter="url(#f1lm3kfi81nuvq)" height="267" style="stroke: #000000; stroke-width: 1.5;" width="436" x="143" y="359"/><text fill="#000000" font-family="sans-serif" font-size="14" font-weight="bold" lengthAdjust="spacingAndGlyphs" textLength="105" x="308.5" y="373.9951">Gnome::Gtk3</text><!--MD5=[0b8e281ccd00c72019a31d78e9f95b5d]
class Gnome::N::TopLevelClassSupport--><rect codeLine="8" fill="#FEFECE" filter="url(#f1lm3kfi81nuvq)" height="32" id="Gnome::N::TopLevelClassSupport" style="stroke: #A80036; stroke-width: 1.5;" width="269" x="91.5" y="42"/><ellipse cx="106.5" cy="58" fill="#80FFFF" rx="11" ry="11" style="stroke: #A80036; stroke-width: 1.0;"/><path d="M109.4688,63.6406 Q108.8906,63.9375 108.25,64.0781 Q107.6094,64.2344 106.9063,64.2344 Q104.4063,64.2344 103.0781,62.5938 Q101.7656,60.9375 101.7656,57.8125 Q101.7656,54.6875 103.0781,53.0313 Q104.4063,51.375 106.9063,51.375 Q107.6094,51.375 108.25,51.5313 Q108.9063,51.6875 109.4688,51.9844 L109.4688,54.7031 Q108.8438,54.125 108.25,53.8594 Q107.6563,53.5781 107.0313,53.5781 Q105.6875,53.5781 105,54.6563 Q104.3125,55.7188 104.3125,57.8125 Q104.3125,59.9063 105,60.9844 Q105.6875,62.0469 107.0313,62.0469 Q107.6563,62.0469 108.25,61.7813 Q108.8438,61.5 109.4688,60.9219 L109.4688,63.6406 Z "/><text fill="#000000" font-family="sans-serif" font-size="12" lengthAdjust="spacingAndGlyphs" textLength="137" x="120.5" y="62.1543">TopLevelClassSupport</text><rect fill="#FFFFFF" height="15.9688" style="stroke: #000000; stroke-width: 1.0; stroke-dasharray: 2.0,2.0;" width="98" x="265.5" y="39"/><text fill="#000000" font-family="sans-serif" font-size="12" font-style="italic" lengthAdjust="spacingAndGlyphs" textLength="88" x="270.5" y="51.1387">Catch all class</text><!--MD5=[52303d185de782118d4739c052001bf2]
class Gnome::GObject::Signal--><rect codeLine="11" fill="#FEFECE" filter="url(#f1lm3kfi81nuvq)" height="32" id="Gnome::GObject::Signal" style="stroke: #A80036; stroke-width: 1.5;" width="131" x="23.5" y="149"/><ellipse cx="38.5" cy="165" fill="#80FFFF" rx="11" ry="11" style="stroke: #A80036; stroke-width: 1.0;"/><path d="M39.7031,165.1406 Q40.0625,165.2188 40.3281,165.5 Q40.6094,165.7656 41,166.5469 L43.2344,171 L40.5469,171 L39.0469,167.875 Q38.9844,167.7344 38.875,167.5 Q38.2188,166.1094 37.3281,166.1094 L36.5469,166.1094 L36.5469,171 L34.1094,171 L34.1094,158.6094 L37.6406,158.6094 Q40.0313,158.6094 41.0625,159.4531 Q42.1094,160.2969 42.1094,162.2031 Q42.1094,163.4844 41.4844,164.25 Q40.875,165 39.7031,165.1406 Z M36.5469,160.6719 L36.5469,164.0469 L37.7031,164.0469 Q38.7188,164.0469 39.1406,163.6563 Q39.5781,163.25 39.5781,162.3438 Q39.5781,161.4531 39.1406,161.0625 Q38.7188,160.6719 37.7031,160.6719 L36.5469,160.6719 Z "/><text fill="#000000" font-family="sans-serif" font-size="12" lengthAdjust="spacingAndGlyphs" textLength="38" x="52.5" y="169.1543">Signal</text><rect fill="#FFFFFF" height="15.9688" style="stroke: #000000; stroke-width: 1.0; stroke-dasharray: 2.0,2.0;" width="59" x="98.5" y="146"/><text fill="#000000" font-family="sans-serif" font-size="12" font-style="italic" lengthAdjust="spacingAndGlyphs" textLength="57" x="99.5" y="158.1387">Interface</text><!--MD5=[c2016d28441601ceb0a74f47a4537d14]
class Gnome::GObject::Object--><rect fill="#FEFECE" filter="url(#f1lm3kfi81nuvq)" height="32" id="Gnome::GObject::Object" style="stroke: #A80036; stroke-width: 1.5;" width="72" x="190" y="149"/><ellipse cx="205" cy="165" fill="#80FFFF" rx="11" ry="11" style="stroke: #A80036; stroke-width: 1.0;"/><path d="M207.9688,170.6406 Q207.3906,170.9375 206.75,171.0781 Q206.1094,171.2344 205.4063,171.2344 Q202.9063,171.2344 201.5781,169.5938 Q200.2656,167.9375 200.2656,164.8125 Q200.2656,161.6875 201.5781,160.0313 Q202.9063,158.375 205.4063,158.375 Q206.1094,158.375 206.75,158.5313 Q207.4063,158.6875 207.9688,158.9844 L207.9688,161.7031 Q207.3438,161.125 206.75,160.8594 Q206.1563,160.5781 205.5313,160.5781 Q204.1875,160.5781 203.5,161.6563 Q202.8125,162.7188 202.8125,164.8125 Q202.8125,166.9063 203.5,167.9844 Q204.1875,169.0469 205.5313,169.0469 Q206.1563,169.0469 206.75,168.7813 Q207.3438,168.5 207.9688,167.9219 L207.9688,170.6406 Z "/><text fill="#000000" font-family="sans-serif" font-size="12" lengthAdjust="spacingAndGlyphs" textLength="40" x="219" y="169.1543">Object</text><!--MD5=[f47b9a4a06d3f9bed948fa39f8c5540e]
class Gnome::GObject::InitialyUnowned--><rect fill="#FEFECE" filter="url(#f1lm3kfi81nuvq)" height="32" id="Gnome::GObject::InitialyUnowned" style="stroke: #A80036; stroke-width: 1.5;" width="129" x="132.5" y="241"/><ellipse cx="147.5" cy="257" fill="#80FFFF" rx="11" ry="11" style="stroke: #A80036; stroke-width: 1.0;"/><path d="M150.4688,262.6406 Q149.8906,262.9375 149.25,263.0781 Q148.6094,263.2344 147.9063,263.2344 Q145.4063,263.2344 144.0781,261.5938 Q142.7656,259.9375 142.7656,256.8125 Q142.7656,253.6875 144.0781,252.0313 Q145.4063,250.375 147.9063,250.375 Q148.6094,250.375 149.25,250.5313 Q149.9063,250.6875 150.4688,250.9844 L150.4688,253.7031 Q149.8438,253.125 149.25,252.8594 Q148.6563,252.5781 148.0313,252.5781 Q146.6875,252.5781 146,253.6563 Q145.3125,254.7188 145.3125,256.8125 Q145.3125,258.9063 146,259.9844 Q146.6875,261.0469 148.0313,261.0469 Q148.6563,261.0469 149.25,260.7813 Q149.8438,260.5 150.4688,259.9219 L150.4688,262.6406 Z "/><text fill="#000000" font-family="sans-serif" font-size="12" lengthAdjust="spacingAndGlyphs" textLength="97" x="161.5" y="261.1543">InitialyUnowned</text><!--MD5=[fc528952aa489a9a9f8514412a46a5d5]
class Gnome::Gtk3::Buildable--><rect codeLine="14" fill="#FEFECE" filter="url(#f1lm3kfi81nuvq)" height="32" id="Gnome::Gtk3::Buildable" style="stroke: #A80036; stroke-width: 1.5;" width="150" x="159" y="486"/><ellipse cx="174" cy="502" fill="#80FFFF" rx="11" ry="11" style="stroke: #A80036; stroke-width: 1.0;"/><path d="M175.2031,502.1406 Q175.5625,502.2188 175.8281,502.5 Q176.1094,502.7656 176.5,503.5469 L178.7344,508 L176.0469,508 L174.5469,504.875 Q174.4844,504.7344 174.375,504.5 Q173.7188,503.1094 172.8281,503.1094 L172.0469,503.1094 L172.0469,508 L169.6094,508 L169.6094,495.6094 L173.1406,495.6094 Q175.5313,495.6094 176.5625,496.4531 Q177.6094,497.2969 177.6094,499.2031 Q177.6094,500.4844 176.9844,501.25 Q176.375,502 175.2031,502.1406 Z M172.0469,497.6719 L172.0469,501.0469 L173.2031,501.0469 Q174.2188,501.0469 174.6406,500.6563 Q175.0781,500.25 175.0781,499.3438 Q175.0781,498.4531 174.6406,498.0625 Q174.2188,497.6719 173.2031,497.6719 L172.0469,497.6719 Z "/><text fill="#000000" font-family="sans-serif" font-size="12" font-style="italic" lengthAdjust="spacingAndGlyphs" textLength="57" x="188" y="506.1543">Buildable</text><rect fill="#FFFFFF" height="15.9688" style="stroke: #000000; stroke-width: 1.0; stroke-dasharray: 2.0,2.0;" width="59" x="253" y="483"/><text fill="#000000" font-family="sans-serif" font-size="12" font-style="italic" lengthAdjust="spacingAndGlyphs" textLength="57" x="254" y="495.1387">Interface</text><!--MD5=[99c1fd59bdfde6048aec9e6766dd53ef]
class Gnome::Gtk3::Widget--><rect fill="#FEFECE" filter="url(#f1lm3kfi81nuvq)" height="32" id="Gnome::Gtk3::Widget" style="stroke: #A80036; stroke-width: 1.5;" width="75" x="159.5" y="394"/><ellipse cx="174.5" cy="410" fill="#80FFFF" rx="11" ry="11" style="stroke: #A80036; stroke-width: 1.0;"/><path d="M177.4688,415.6406 Q176.8906,415.9375 176.25,416.0781 Q175.6094,416.2344 174.9063,416.2344 Q172.4063,416.2344 171.0781,414.5938 Q169.7656,412.9375 169.7656,409.8125 Q169.7656,406.6875 171.0781,405.0313 Q172.4063,403.375 174.9063,403.375 Q175.6094,403.375 176.25,403.5313 Q176.9063,403.6875 177.4688,403.9844 L177.4688,406.7031 Q176.8438,406.125 176.25,405.8594 Q175.6563,405.5781 175.0313,405.5781 Q173.6875,405.5781 173,406.6563 Q172.3125,407.7188 172.3125,409.8125 Q172.3125,411.9063 173,412.9844 Q173.6875,414.0469 175.0313,414.0469 Q175.6563,414.0469 176.25,413.7813 Q176.8438,413.5 177.4688,412.9219 L177.4688,415.6406 Z "/><text fill="#000000" font-family="sans-serif" font-size="12" lengthAdjust="spacingAndGlyphs" textLength="43" x="188.5" y="414.1543">Widget</text><!--MD5=[9e3cc955f682d05594420e46d2e4e3ea]
class Gnome::Gtk3::Container--><rect fill="#FEFECE" filter="url(#f1lm3kfi81nuvq)" height="32" id="Gnome::Gtk3::Container" style="stroke: #A80036; stroke-width: 1.5;" width="93" x="269.5" y="394"/><ellipse cx="284.5" cy="410" fill="#80FFFF" rx="11" ry="11" style="stroke: #A80036; stroke-width: 1.0;"/><path d="M287.4688,415.6406 Q286.8906,415.9375 286.25,416.0781 Q285.6094,416.2344 284.9063,416.2344 Q282.4063,416.2344 281.0781,414.5938 Q279.7656,412.9375 279.7656,409.8125 Q279.7656,406.6875 281.0781,405.0313 Q282.4063,403.375 284.9063,403.375 Q285.6094,403.375 286.25,403.5313 Q286.9063,403.6875 287.4688,403.9844 L287.4688,406.7031 Q286.8438,406.125 286.25,405.8594 Q285.6563,405.5781 285.0313,405.5781 Q283.6875,405.5781 283,406.6563 Q282.3125,407.7188 282.3125,409.8125 Q282.3125,411.9063 283,412.9844 Q283.6875,414.0469 285.0313,414.0469 Q285.6563,414.0469 286.25,413.7813 Q286.8438,413.5 287.4688,412.9219 L287.4688,415.6406 Z "/><text fill="#000000" font-family="sans-serif" font-size="12" lengthAdjust="spacingAndGlyphs" textLength="61" x="298.5" y="414.1543">Container</text><!--MD5=[6ac0a199e9a9e53d446254a1d59f3468]
class Gnome::Gtk3::Bin--><rect fill="#FEFECE" filter="url(#f1lm3kfi81nuvq)" height="32" id="Gnome::Gtk3::Bin" style="stroke: #A80036; stroke-width: 1.5;" width="51" x="397.5" y="394"/><ellipse cx="412.5" cy="410" fill="#80FFFF" rx="11" ry="11" style="stroke: #A80036; stroke-width: 1.0;"/><path d="M415.4688,415.6406 Q414.8906,415.9375 414.25,416.0781 Q413.6094,416.2344 412.9063,416.2344 Q410.4063,416.2344 409.0781,414.5938 Q407.7656,412.9375 407.7656,409.8125 Q407.7656,406.6875 409.0781,405.0313 Q410.4063,403.375 412.9063,403.375 Q413.6094,403.375 414.25,403.5313 Q414.9063,403.6875 415.4688,403.9844 L415.4688,406.7031 Q414.8438,406.125 414.25,405.8594 Q413.6563,405.5781 413.0313,405.5781 Q411.6875,405.5781 411,406.6563 Q410.3125,407.7188 410.3125,409.8125 Q410.3125,411.9063 411,412.9844 Q411.6875,414.0469 413.0313,414.0469 Q413.6563,414.0469 414.25,413.7813 Q414.8438,413.5 415.4688,412.9219 L415.4688,415.6406 Z "/><text fill="#000000" font-family="sans-serif" font-size="12" lengthAdjust="spacingAndGlyphs" textLength="19" x="426.5" y="414.1543">Bin</text><!--MD5=[8475d959d77acc346db561b49952bf1a]
class Gnome::Gtk3::Window--><rect fill="#FEFECE" filter="url(#f1lm3kfi81nuvq)" height="32" id="Gnome::Gtk3::Window" style="stroke: #A80036; stroke-width: 1.5;" width="79" x="483.5" y="394"/><ellipse cx="498.5" cy="410" fill="#80FFFF" rx="11" ry="11" style="stroke: #A80036; stroke-width: 1.0;"/><path d="M501.4688,415.6406 Q500.8906,415.9375 500.25,416.0781 Q499.6094,416.2344 498.9063,416.2344 Q496.4063,416.2344 495.0781,414.5938 Q493.7656,412.9375 493.7656,409.8125 Q493.7656,406.6875 495.0781,405.0313 Q496.4063,403.375 498.9063,403.375 Q499.6094,403.375 500.25,403.5313 Q500.9063,403.6875 501.4688,403.9844 L501.4688,406.7031 Q500.8438,406.125 500.25,405.8594 Q499.6563,405.5781 499.0313,405.5781 Q497.6875,405.5781 497,406.6563 Q496.3125,407.7188 496.3125,409.8125 Q496.3125,411.9063 497,412.9844 Q497.6875,414.0469 499.0313,414.0469 Q499.6563,414.0469 500.25,413.7813 Q500.8438,413.5 501.4688,412.9219 L501.4688,415.6406 Z "/><text fill="#000000" font-family="sans-serif" font-size="12" lengthAdjust="spacingAndGlyphs" textLength="47" x="512.5" y="414.1543">Window</text><!--MD5=[d82c0a95d2d10c1450611f7300749c44]
class Gnome::Gtk3::Dialog--><rect fill="#FEFECE" filter="url(#f1lm3kfi81nuvq)" height="32" id="Gnome::Gtk3::Dialog" style="stroke: #A80036; stroke-width: 1.5;" width="71" x="471.5" y="486"/><ellipse cx="486.5" cy="502" fill="#80FFFF" rx="11" ry="11" style="stroke: #A80036; stroke-width: 1.0;"/><path d="M489.4688,507.6406 Q488.8906,507.9375 488.25,508.0781 Q487.6094,508.2344 486.9063,508.2344 Q484.4063,508.2344 483.0781,506.5938 Q481.7656,504.9375 481.7656,501.8125 Q481.7656,498.6875 483.0781,497.0313 Q484.4063,495.375 486.9063,495.375 Q487.6094,495.375 488.25,495.5313 Q488.9063,495.6875 489.4688,495.9844 L489.4688,498.7031 Q488.8438,498.125 488.25,497.8594 Q487.6563,497.5781 487.0313,497.5781 Q485.6875,497.5781 485,498.6563 Q484.3125,499.7188 484.3125,501.8125 Q484.3125,503.9063 485,504.9844 Q485.6875,506.0469 487.0313,506.0469 Q487.6563,506.0469 488.25,505.7813 Q488.8438,505.5 489.4688,504.9219 L489.4688,507.6406 Z "/><text fill="#000000" font-family="sans-serif" font-size="12" lengthAdjust="spacingAndGlyphs" textLength="39" x="500.5" y="506.1543">Dialog</text><!--MD5=[13dea5f12553023c987fad4155195d54]
class Gnome::Gtk3::FileChooserDialog--><rect fill="#FEFECE" filter="url(#f1lm3kfi81nuvq)" height="32" id="Gnome::Gtk3::FileChooserDialog" style="stroke: #A80036; stroke-width: 1.5;" width="144" x="419" y="578"/><ellipse cx="434" cy="594" fill="#80FFFF" rx="11" ry="11" style="stroke: #A80036; stroke-width: 1.0;"/><path d="M436.9688,599.6406 Q436.3906,599.9375 435.75,600.0781 Q435.1094,600.2344 434.4063,600.2344 Q431.9063,600.2344 430.5781,598.5938 Q429.2656,596.9375 429.2656,593.8125 Q429.2656,590.6875 430.5781,589.0313 Q431.9063,587.375 434.4063,587.375 Q435.1094,587.375 435.75,587.5313 Q436.4063,587.6875 436.9688,587.9844 L436.9688,590.7031 Q436.3438,590.125 435.75,589.8594 Q435.1563,589.5781 434.5313,589.5781 Q433.1875,589.5781 432.5,590.6563 Q431.8125,591.7188 431.8125,593.8125 Q431.8125,595.9063 432.5,596.9844 Q433.1875,598.0469 434.5313,598.0469 Q435.1563,598.0469 435.75,597.7813 Q436.3438,597.5 436.9688,596.9219 L436.9688,599.6406 Z "/><text fill="#000000" font-family="sans-serif" font-size="12" lengthAdjust="spacingAndGlyphs" textLength="112" x="448" y="598.1543">FileChooserDialog</text><!--MD5=[e23b679cf607d12ac81e9c5301595709]
reverse link Gnome::N::TopLevelClassSupport to Gnome::GObject::Object--><path codeLine="24" d="M226,94.1 C226,112.76 226,134.73 226,148.98 " fill="none" id="Gnome::N::TopLevelClassSupport-backto-Gnome::GObject::Object" style="stroke: #A80036; stroke-width: 1.0;"/><polygon fill="none" points="219,94.04,226,74.04,233,94.04,219,94.04" style="stroke: #A80036; stroke-width: 1.0;"/><!--MD5=[2e57c6084092ea441ae4a3f826779dd8]
reverse link Gnome::GObject::Object to Gnome::GObject::InitialyUnowned--><path codeLine="25" d="M214.84,200.63 C210.34,214.59 205.39,229.96 201.85,240.96 " fill="none" id="Gnome::GObject::Object-backto-Gnome::GObject::InitialyUnowned" style="stroke: #A80036; stroke-width: 1.0;"/><polygon fill="none" points="208.28,198.16,221.08,181.27,221.61,202.45,208.28,198.16" style="stroke: #A80036; stroke-width: 1.0;"/><!--MD5=[f8ffcf4587ba956cb48626a4231e4d21]
reverse link Gnome::GObject::Signal to Gnome::GObject::Object--><path codeLine="26" d="M174.77,165 C179.85,165 184.92,165 190,165 " fill="none" id="Gnome::GObject::Signal-backto-Gnome::GObject::Object" style="stroke: #A80036; stroke-width: 1.0; stroke-dasharray: 7.0,7.0;"/><polygon fill="none" points="174.56,172,154.56,165,174.56,158,174.56,172" style="stroke: #A80036; stroke-width: 1.0;"/><!--MD5=[aa49dbc803ccf1c2ef8546b297b1dcfd]
reverse link Gnome::GObject::InitialyUnowned to Gnome::Gtk3::Widget--><path codeLine="28" d="M197,293.28 C197,325.02 197,370.17 197,393.58 " fill="none" id="Gnome::GObject::InitialyUnowned-backto-Gnome::Gtk3::Widget" style="stroke: #A80036; stroke-width: 1.0;"/><polygon fill="none" points="190,293.03,197,273.03,204,293.03,190,293.03" style="stroke: #A80036; stroke-width: 1.0;"/><!--MD5=[940ddf52f8156166e52a90b7ba66cda5]
reverse link Gnome::Gtk3::Widget to Gnome::Gtk3::Container--><path codeLine="30" d="M254.68,410 C259.55,410 264.42,410 269.29,410 " fill="none" id="Gnome::Gtk3::Widget-backto-Gnome::Gtk3::Container" style="stroke: #A80036; stroke-width: 1.0;"/><polygon fill="none" points="254.65,417,234.65,410,254.65,403,254.65,417" style="stroke: #A80036; stroke-width: 1.0;"/><!--MD5=[e1568b3b4ceade3a3349f45f19b4c32a]
link Gnome::Gtk3::Widget to Gnome::Gtk3::Buildable--><path codeLine="31" d="M203.28,426.27 C207.88,437.45 214.3,453.08 220.08,467.15 " fill="none" id="Gnome::Gtk3::Widget-to-Gnome::Gtk3::Buildable" style="stroke: #A80036; stroke-width: 1.0; stroke-dasharray: 7.0,7.0;"/><polygon fill="none" points="226.69,464.8,227.82,485.96,213.74,470.12,226.69,464.8" style="stroke: #A80036; stroke-width: 1.0;"/><!--MD5=[23a2b14019610824d048d16339c059f6]
reverse link Gnome::Gtk3::Container to Gnome::Gtk3::Bin--><path codeLine="33" d="M382.93,410 C387.66,410 392.4,410 397.14,410 " fill="none" id="Gnome::Gtk3::Container-backto-Gnome::Gtk3::Bin" style="stroke: #A80036; stroke-width: 1.0;"/><polygon fill="none" points="382.81,417,362.81,410,382.81,403,382.81,417" style="stroke: #A80036; stroke-width: 1.0;"/><!--MD5=[c7c580d159725465d734f39d82b8186e]
reverse link Gnome::Gtk3::Bin to Gnome::Gtk3::Window--><path codeLine="34" d="M469,410 C473.76,410 478.52,410 483.28,410 " fill="none" id="Gnome::Gtk3::Bin-backto-Gnome::Gtk3::Window" style="stroke: #A80036; stroke-width: 1.0;"/><polygon fill="none" points="468.78,417,448.78,410,468.78,403,468.78,417" style="stroke: #A80036; stroke-width: 1.0;"/><!--MD5=[aab4940c4363240fa7e017a9bac87047]
reverse link Gnome::Gtk3::Window to Gnome::Gtk3::Dialog--><path codeLine="35" d="M516.76,446.12 C514.3,459.95 511.61,475.09 509.67,485.96 " fill="none" id="Gnome::Gtk3::Window-backto-Gnome::Gtk3::Dialog" style="stroke: #A80036; stroke-width: 1.0;"/><polygon fill="none" points="509.89,444.73,520.29,426.27,523.68,447.18,509.89,444.73" style="stroke: #A80036; stroke-width: 1.0;"/><!--MD5=[ad31967252459d7a22f950e06e8d4feb]
reverse link Gnome::Gtk3::Dialog to Gnome::Gtk3::FileChooserDialog--><path codeLine="37" d="M500.76,538.12 C498.3,551.95 495.61,567.09 493.67,577.96 " fill="none" id="Gnome::Gtk3::Dialog-backto-Gnome::Gtk3::FileChooserDialog" style="stroke: #A80036; stroke-width: 1.0;"/><polygon fill="none" points="493.89,536.73,504.29,518.27,507.68,539.18,493.89,536.73" style="stroke: #A80036; stroke-width: 1.0;"/><!--MD5=[b26d28b6f76c689217379ecae2781411]
@startuml
skinparam packageStyle rectangle
skinparam stereotypeCBackgroundColor #80ffff
set namespaceSeparator ::
hide members

'Class and interface decorations
class Gnome::N::TopLevelClassSupport < Catch all class >

Interface Gnome::GObject::Signal <Interface>
class Gnome::GObject::Signal <<(R,#80ffff)>>

class Gnome::Gtk3::Buildable <<(R,#80ffff)>>
Interface Gnome::Gtk3::Buildable <Interface>

'class Gnome::Gtk3::ColorChooser <<(R,#80ffff)>>
'Interface Gnome::Gtk3::ColorChooser <Interface>

'class Gnome::Gtk3::AppChooser <<(R,#80ffff)>>
'Interface Gnome::Gtk3::AppChooser <Interface>


'Class connections
Gnome::N::TopLevelClassSupport <|- - Gnome::GObject::Object
Gnome::GObject::Object <|- - Gnome::GObject::InitialyUnowned
Gnome::GObject::Signal <|. Gnome::GObject::Object

Gnome::GObject::InitialyUnowned <|- - - Gnome::Gtk3::Widget

Gnome::Gtk3::Widget <|- Gnome::Gtk3::Container
Gnome::Gtk3::Widget ..|> Gnome::Gtk3::Buildable

Gnome::Gtk3::Container <|- Gnome::Gtk3::Bin
Gnome::Gtk3::Bin <|- Gnome::Gtk3::Window
Gnome::Gtk3::Window <|- - Gnome::Gtk3::Dialog

Gnome::Gtk3::Dialog <|- - Gnome::Gtk3::FileChooserDialog

'Gnome::Gtk3::Dialog <|- - Gnome::Gtk3::ColorChooserDialog
'Gnome::Gtk3::ColorChooser <|- Gnome::Gtk3::ColorChooserDialog

'Gnome::Gtk3::Dialog <|- - Gnome::Gtk3::FileChooserDialog
'Gnome::Gtk3::Dialog <|- - Gnome::Gtk3::MessageDialog

'Gnome::Gtk3::Dialog <|- - Gnome::Gtk3::AppChooserDialog
'Gnome::Gtk3::AppChooser <|.. Gnome::Gtk3::AppChooserDialog

'Gnome::Gtk3::Dialog <|- - Gnome::Gtk3::FontChooserDialog
'Gnome::Gtk3::Dialog <|- - Gnome::Gtk3::RecentChooserDialog

'Some hidden connections
'Gnome::GObject <- -[hidden]- Gnome::Gtk3
@enduml

@startuml
skinparam packageStyle rectangle
skinparam stereotypeCBackgroundColor #80ffff
set namespaceSeparator ::
hide members

class Gnome::N::TopLevelClassSupport < Catch all class >

Interface Gnome::GObject::Signal <Interface>
class Gnome::GObject::Signal <<(R,#80ffff)>>

class Gnome::Gtk3::Buildable <<(R,#80ffff)>>
Interface Gnome::Gtk3::Buildable <Interface>




Gnome::N::TopLevelClassSupport <|- - Gnome::GObject::Object
Gnome::GObject::Object <|- - Gnome::GObject::InitialyUnowned
Gnome::GObject::Signal <|. Gnome::GObject::Object

Gnome::GObject::InitialyUnowned <|- - - Gnome::Gtk3::Widget

Gnome::Gtk3::Widget <|- Gnome::Gtk3::Container
Gnome::Gtk3::Widget ..|> Gnome::Gtk3::Buildable

Gnome::Gtk3::Container <|- Gnome::Gtk3::Bin
Gnome::Gtk3::Bin <|- Gnome::Gtk3::Window
Gnome::Gtk3::Window <|- - Gnome::Gtk3::Dialog

Gnome::Gtk3::Dialog <|- - Gnome::Gtk3::FileChooserDialog





@enduml

PlantUML version 1.2020.19(Mon Oct 12 17:10:01 CEST 2020)
(GPL source distribution)
Java Runtime: OpenJDK Runtime Environment
JVM: OpenJDK 64-Bit Server VM
Default Encoding: UTF-8
Language: en
Country: US
--></g></svg>