<?xml version="1.0" encoding="UTF-8" standalone="no"?><svg xmlns="http://www.w3.org/2000/svg" xmlns:xlink="http://www.w3.org/1999/xlink" contentScriptType="application/ecmascript" contentStyleType="text/css" height="500px" preserveAspectRatio="none" style="width:547px;height:500px;" version="1.1" viewBox="0 0 547 500" width="547px" zoomAndPan="magnify"><defs><filter height="300%" id="f1w5m12lcyt4e" width="300%" x="-1" y="-1"><feGaussianBlur result="blurOut" stdDeviation="2.0"/><feColorMatrix in="blurOut" result="blurOut2" type="matrix" values="0 0 0 0 0 0 0 0 0 0 0 0 0 0 0 0 0 0 .4 0"/><feOffset dx="4.0" dy="4.0" in="blurOut2" result="blurOut3"/><feBlend in="SourceGraphic" in2="blurOut3" mode="normal"/></filter></defs><g><!--MD5=[b969295f0ec9b4fa482091c3e26049be]
cluster Gnome::N--><rect fill="#FFFFFF" filter="url(#f1w5m12lcyt4e)" height="83" style="stroke: #000000; stroke-width: 1.5;" width="302" x="233" y="7"/><text fill="#000000" font-family="sans-serif" font-size="14" font-weight="bold" lengthAdjust="spacingAndGlyphs" textLength="79" x="344.5" y="21.9951">Gnome::N</text><!--MD5=[2fb3f9b624b0544b9841d5da78ec0508]
cluster Gnome::GObject--><rect fill="#FFFFFF" filter="url(#f1w5m12lcyt4e)" height="175" style="stroke: #000000; stroke-width: 1.5;" width="271" x="165" y="114"/><text fill="#000000" font-family="sans-serif" font-size="14" font-weight="bold" lengthAdjust="spacingAndGlyphs" textLength="131" x="235" y="128.9951">Gnome::GObject</text><!--MD5=[7d67f77911969026863717fbb204e273]
cluster Gnome::Gtk3--><rect fill="#FFFFFF" filter="url(#f1w5m12lcyt4e)" height="175" style="stroke: #000000; stroke-width: 1.5;" width="411" x="7" y="313"/><text fill="#000000" font-family="sans-serif" font-size="14" font-weight="bold" lengthAdjust="spacingAndGlyphs" textLength="105" x="160" y="327.9951">Gnome::Gtk3</text><!--MD5=[0b8e281ccd00c72019a31d78e9f95b5d]
class Gnome::N::TopLevelClassSupport--><rect codeLine="10" fill="#FEFECE" filter="url(#f1w5m12lcyt4e)" height="32" id="Gnome::N::TopLevelClassSupport" style="stroke: #A80036; stroke-width: 1.5;" width="269" x="249.5" y="42"/><ellipse cx="264.5" cy="58" fill="#80FFFF" rx="11" ry="11" style="stroke: #A80036; stroke-width: 1.0;"/><path d="M267.4688,63.6406 Q266.8906,63.9375 266.25,64.0781 Q265.6094,64.2344 264.9063,64.2344 Q262.4063,64.2344 261.0781,62.5938 Q259.7656,60.9375 259.7656,57.8125 Q259.7656,54.6875 261.0781,53.0313 Q262.4063,51.375 264.9063,51.375 Q265.6094,51.375 266.25,51.5313 Q266.9063,51.6875 267.4688,51.9844 L267.4688,54.7031 Q266.8438,54.125 266.25,53.8594 Q265.6563,53.5781 265.0313,53.5781 Q263.6875,53.5781 263,54.6563 Q262.3125,55.7188 262.3125,57.8125 Q262.3125,59.9063 263,60.9844 Q263.6875,62.0469 265.0313,62.0469 Q265.6563,62.0469 266.25,61.7813 Q266.8438,61.5 267.4688,60.9219 L267.4688,63.6406 Z "/><text fill="#000000" font-family="sans-serif" font-size="12" lengthAdjust="spacingAndGlyphs" textLength="137" x="278.5" y="62.1807">TopLevelClassSupport</text><rect fill="#FFFFFF" height="15.9688" style="stroke: #000000; stroke-width: 1.0; stroke-dasharray: 2.0,2.0;" width="98" x="423.5" y="39"/><text fill="#000000" font-family="sans-serif" font-size="12" font-style="italic" lengthAdjust="spacingAndGlyphs" textLength="88" x="428.5" y="51.1387">Catch all class</text><!--MD5=[52303d185de782118d4739c052001bf2]
class Gnome::GObject::Signal--><rect codeLine="13" fill="#FEFECE" filter="url(#f1w5m12lcyt4e)" height="32" id="Gnome::GObject::Signal" style="stroke: #A80036; stroke-width: 1.5;" width="131" x="181.5" y="149"/><ellipse cx="196.5" cy="165" fill="#80FFFF" rx="11" ry="11" style="stroke: #A80036; stroke-width: 1.0;"/><path d="M197.7031,165.1406 Q198.0625,165.2188 198.3281,165.5 Q198.6094,165.7656 199,166.5469 L201.2344,171 L198.5469,171 L197.0469,167.875 Q196.9844,167.7344 196.875,167.5 Q196.2188,166.1094 195.3281,166.1094 L194.5469,166.1094 L194.5469,171 L192.1094,171 L192.1094,158.6094 L195.6406,158.6094 Q198.0313,158.6094 199.0625,159.4531 Q200.1094,160.2969 200.1094,162.2031 Q200.1094,163.4844 199.4844,164.25 Q198.875,165 197.7031,165.1406 Z M194.5469,160.6719 L194.5469,164.0469 L195.7031,164.0469 Q196.7188,164.0469 197.1406,163.6563 Q197.5781,163.25 197.5781,162.3438 Q197.5781,161.4531 197.1406,161.0625 Q196.7188,160.6719 195.7031,160.6719 L194.5469,160.6719 Z "/><text fill="#000000" font-family="sans-serif" font-size="12" lengthAdjust="spacingAndGlyphs" textLength="38" x="210.5" y="169.1807">Signal</text><rect fill="#FFFFFF" height="15.9688" style="stroke: #000000; stroke-width: 1.0; stroke-dasharray: 2.0,2.0;" width="59" x="256.5" y="146"/><text fill="#000000" font-family="sans-serif" font-size="12" font-style="italic" lengthAdjust="spacingAndGlyphs" textLength="57" x="257.5" y="158.1387">Interface</text><!--MD5=[c2016d28441601ceb0a74f47a4537d14]
class Gnome::GObject::Object--><rect fill="#FEFECE" filter="url(#f1w5m12lcyt4e)" height="32" id="Gnome::GObject::Object" style="stroke: #A80036; stroke-width: 1.5;" width="72" x="348" y="149"/><ellipse cx="363" cy="165" fill="#80FFFF" rx="11" ry="11" style="stroke: #A80036; stroke-width: 1.0;"/><path d="M365.9688,170.6406 Q365.3906,170.9375 364.75,171.0781 Q364.1094,171.2344 363.4063,171.2344 Q360.9063,171.2344 359.5781,169.5938 Q358.2656,167.9375 358.2656,164.8125 Q358.2656,161.6875 359.5781,160.0313 Q360.9063,158.375 363.4063,158.375 Q364.1094,158.375 364.75,158.5313 Q365.4063,158.6875 365.9688,158.9844 L365.9688,161.7031 Q365.3438,161.125 364.75,160.8594 Q364.1563,160.5781 363.5313,160.5781 Q362.1875,160.5781 361.5,161.6563 Q360.8125,162.7188 360.8125,164.8125 Q360.8125,166.9063 361.5,167.9844 Q362.1875,169.0469 363.5313,169.0469 Q364.1563,169.0469 364.75,168.7813 Q365.3438,168.5 365.9688,167.9219 L365.9688,170.6406 Z "/><text fill="#000000" font-family="sans-serif" font-size="12" lengthAdjust="spacingAndGlyphs" textLength="40" x="377" y="169.1807">Object</text><!--MD5=[f47b9a4a06d3f9bed948fa39f8c5540e]
class Gnome::GObject::InitialyUnowned--><rect fill="#FEFECE" filter="url(#f1w5m12lcyt4e)" height="32" id="Gnome::GObject::InitialyUnowned" style="stroke: #A80036; stroke-width: 1.5;" width="129" x="290.5" y="241"/><ellipse cx="305.5" cy="257" fill="#80FFFF" rx="11" ry="11" style="stroke: #A80036; stroke-width: 1.0;"/><path d="M308.4688,262.6406 Q307.8906,262.9375 307.25,263.0781 Q306.6094,263.2344 305.9063,263.2344 Q303.4063,263.2344 302.0781,261.5938 Q300.7656,259.9375 300.7656,256.8125 Q300.7656,253.6875 302.0781,252.0313 Q303.4063,250.375 305.9063,250.375 Q306.6094,250.375 307.25,250.5313 Q307.9063,250.6875 308.4688,250.9844 L308.4688,253.7031 Q307.8438,253.125 307.25,252.8594 Q306.6563,252.5781 306.0313,252.5781 Q304.6875,252.5781 304,253.6563 Q303.3125,254.7188 303.3125,256.8125 Q303.3125,258.9063 304,259.9844 Q304.6875,261.0469 306.0313,261.0469 Q306.6563,261.0469 307.25,260.7813 Q307.8438,260.5 308.4688,259.9219 L308.4688,262.6406 Z "/><text fill="#000000" font-family="sans-serif" font-size="12" lengthAdjust="spacingAndGlyphs" textLength="97" x="319.5" y="261.1807">InitialyUnowned</text><!--MD5=[fc528952aa489a9a9f8514412a46a5d5]
class Gnome::Gtk3::Buildable--><rect codeLine="16" fill="#FEFECE" filter="url(#f1w5m12lcyt4e)" height="32" id="Gnome::Gtk3::Buildable" style="stroke: #A80036; stroke-width: 1.5;" width="150" x="132" y="348"/><ellipse cx="147" cy="364" fill="#80FFFF" rx="11" ry="11" style="stroke: #A80036; stroke-width: 1.0;"/><path d="M148.2031,364.1406 Q148.5625,364.2188 148.8281,364.5 Q149.1094,364.7656 149.5,365.5469 L151.7344,370 L149.0469,370 L147.5469,366.875 Q147.4844,366.7344 147.375,366.5 Q146.7188,365.1094 145.8281,365.1094 L145.0469,365.1094 L145.0469,370 L142.6094,370 L142.6094,357.6094 L146.1406,357.6094 Q148.5313,357.6094 149.5625,358.4531 Q150.6094,359.2969 150.6094,361.2031 Q150.6094,362.4844 149.9844,363.25 Q149.375,364 148.2031,364.1406 Z M145.0469,359.6719 L145.0469,363.0469 L146.2031,363.0469 Q147.2188,363.0469 147.6406,362.6563 Q148.0781,362.25 148.0781,361.3438 Q148.0781,360.4531 147.6406,360.0625 Q147.2188,359.6719 146.2031,359.6719 L145.0469,359.6719 Z "/><text fill="#000000" font-family="sans-serif" font-size="12" lengthAdjust="spacingAndGlyphs" textLength="57" x="161" y="368.1807">Buildable</text><rect fill="#FFFFFF" height="15.9688" style="stroke: #000000; stroke-width: 1.0; stroke-dasharray: 2.0,2.0;" width="59" x="226" y="345"/><text fill="#000000" font-family="sans-serif" font-size="12" font-style="italic" lengthAdjust="spacingAndGlyphs" textLength="57" x="227" y="357.1387">Interface</text><!--MD5=[865b113cd38444117c4dca48a702f1ee]
class Gnome::Gtk3::Orientable--><rect codeLine="19" fill="#FEFECE" filter="url(#f1w5m12lcyt4e)" height="32" id="Gnome::Gtk3::Orientable" style="stroke: #A80036; stroke-width: 1.5;" width="158" x="23" y="440"/><ellipse cx="38" cy="456" fill="#80FFFF" rx="11" ry="11" style="stroke: #A80036; stroke-width: 1.0;"/><path d="M39.2031,456.1406 Q39.5625,456.2188 39.8281,456.5 Q40.1094,456.7656 40.5,457.5469 L42.7344,462 L40.0469,462 L38.5469,458.875 Q38.4844,458.7344 38.375,458.5 Q37.7188,457.1094 36.8281,457.1094 L36.0469,457.1094 L36.0469,462 L33.6094,462 L33.6094,449.6094 L37.1406,449.6094 Q39.5313,449.6094 40.5625,450.4531 Q41.6094,451.2969 41.6094,453.2031 Q41.6094,454.4844 40.9844,455.25 Q40.375,456 39.2031,456.1406 Z M36.0469,451.6719 L36.0469,455.0469 L37.2031,455.0469 Q38.2188,455.0469 38.6406,454.6563 Q39.0781,454.25 39.0781,453.3438 Q39.0781,452.4531 38.6406,452.0625 Q38.2188,451.6719 37.2031,451.6719 L36.0469,451.6719 Z "/><text fill="#000000" font-family="sans-serif" font-size="12" lengthAdjust="spacingAndGlyphs" textLength="65" x="52" y="460.1807">Orientable</text><rect fill="#FFFFFF" height="15.9688" style="stroke: #000000; stroke-width: 1.0; stroke-dasharray: 2.0,2.0;" width="59" x="125" y="437"/><text fill="#000000" font-family="sans-serif" font-size="12" font-style="italic" lengthAdjust="spacingAndGlyphs" textLength="57" x="126" y="449.1387">Interface</text><!--MD5=[99c1fd59bdfde6048aec9e6766dd53ef]
class Gnome::Gtk3::Widget--><rect fill="#FEFECE" filter="url(#f1w5m12lcyt4e)" height="32" id="Gnome::Gtk3::Widget" style="stroke: #A80036; stroke-width: 1.5;" width="75" x="317.5" y="348"/><ellipse cx="332.5" cy="364" fill="#80FFFF" rx="11" ry="11" style="stroke: #A80036; stroke-width: 1.0;"/><path d="M335.4688,369.6406 Q334.8906,369.9375 334.25,370.0781 Q333.6094,370.2344 332.9063,370.2344 Q330.4063,370.2344 329.0781,368.5938 Q327.7656,366.9375 327.7656,363.8125 Q327.7656,360.6875 329.0781,359.0313 Q330.4063,357.375 332.9063,357.375 Q333.6094,357.375 334.25,357.5313 Q334.9063,357.6875 335.4688,357.9844 L335.4688,360.7031 Q334.8438,360.125 334.25,359.8594 Q333.6563,359.5781 333.0313,359.5781 Q331.6875,359.5781 331,360.6563 Q330.3125,361.7188 330.3125,363.8125 Q330.3125,365.9063 331,366.9844 Q331.6875,368.0469 333.0313,368.0469 Q333.6563,368.0469 334.25,367.7813 Q334.8438,367.5 335.4688,366.9219 L335.4688,369.6406 Z "/><text fill="#000000" font-family="sans-serif" font-size="12" lengthAdjust="spacingAndGlyphs" textLength="43" x="346.5" y="368.1807">Widget</text><!--MD5=[9e3cc955f682d05594420e46d2e4e3ea]
class Gnome::Gtk3::Container--><rect fill="#FEFECE" filter="url(#f1w5m12lcyt4e)" height="32" id="Gnome::Gtk3::Container" style="stroke: #A80036; stroke-width: 1.5;" width="93" x="308.5" y="440"/><ellipse cx="323.5" cy="456" fill="#80FFFF" rx="11" ry="11" style="stroke: #A80036; stroke-width: 1.0;"/><path d="M326.4688,461.6406 Q325.8906,461.9375 325.25,462.0781 Q324.6094,462.2344 323.9063,462.2344 Q321.4063,462.2344 320.0781,460.5938 Q318.7656,458.9375 318.7656,455.8125 Q318.7656,452.6875 320.0781,451.0313 Q321.4063,449.375 323.9063,449.375 Q324.6094,449.375 325.25,449.5313 Q325.9063,449.6875 326.4688,449.9844 L326.4688,452.7031 Q325.8438,452.125 325.25,451.8594 Q324.6563,451.5781 324.0313,451.5781 Q322.6875,451.5781 322,452.6563 Q321.3125,453.7188 321.3125,455.8125 Q321.3125,457.9063 322,458.9844 Q322.6875,460.0469 324.0313,460.0469 Q324.6563,460.0469 325.25,459.7813 Q325.8438,459.5 326.4688,458.9219 L326.4688,461.6406 Z "/><text fill="#000000" font-family="sans-serif" font-size="12" lengthAdjust="spacingAndGlyphs" textLength="61" x="337.5" y="460.1807">Container</text><!--MD5=[4dbeaf84c91374ac0170813bcb3d62ae]
class Gnome::Gtk3::Grid--><rect fill="#FEFECE" filter="url(#f1w5m12lcyt4e)" height="32" id="Gnome::Gtk3::Grid" style="stroke: #A80036; stroke-width: 1.5;" width="57" x="216.5" y="440"/><ellipse cx="231.5" cy="456" fill="#80FFFF" rx="11" ry="11" style="stroke: #A80036; stroke-width: 1.0;"/><path d="M234.4688,461.6406 Q233.8906,461.9375 233.25,462.0781 Q232.6094,462.2344 231.9063,462.2344 Q229.4063,462.2344 228.0781,460.5938 Q226.7656,458.9375 226.7656,455.8125 Q226.7656,452.6875 228.0781,451.0313 Q229.4063,449.375 231.9063,449.375 Q232.6094,449.375 233.25,449.5313 Q233.9063,449.6875 234.4688,449.9844 L234.4688,452.7031 Q233.8438,452.125 233.25,451.8594 Q232.6563,451.5781 232.0313,451.5781 Q230.6875,451.5781 230,452.6563 Q229.3125,453.7188 229.3125,455.8125 Q229.3125,457.9063 230,458.9844 Q230.6875,460.0469 232.0313,460.0469 Q232.6563,460.0469 233.25,459.7813 Q233.8438,459.5 234.4688,458.9219 L234.4688,461.6406 Z "/><text fill="#000000" font-family="sans-serif" font-size="12" lengthAdjust="spacingAndGlyphs" textLength="25" x="245.5" y="460.1807">Grid</text><!--MD5=[e23b679cf607d12ac81e9c5301595709]
reverse link Gnome::N::TopLevelClassSupport to Gnome::GObject::Object--><path codeLine="23" d="M384,94.1 C384,112.76 384,134.73 384,148.98 " fill="none" id="Gnome::N::TopLevelClassSupport-backto-Gnome::GObject::Object" style="stroke: #A80036; stroke-width: 1.0;"/><polygon fill="none" points="377,94.04,384,74.04,391,94.04,377,94.04" style="stroke: #A80036; stroke-width: 1.0;"/><!--MD5=[aa49dbc803ccf1c2ef8546b297b1dcfd]
reverse link Gnome::GObject::InitialyUnowned to Gnome::Gtk3::Widget--><path codeLine="24" d="M355,293.1 C355,311.76 355,333.73 355,347.98 " fill="none" id="Gnome::GObject::InitialyUnowned-backto-Gnome::Gtk3::Widget" style="stroke: #A80036; stroke-width: 1.0;"/><polygon fill="none" points="348,293.04,355,273.04,362,293.04,348,293.04" style="stroke: #A80036; stroke-width: 1.0;"/><!--MD5=[2e57c6084092ea441ae4a3f826779dd8]
reverse link Gnome::GObject::Object to Gnome::GObject::InitialyUnowned--><path codeLine="25" d="M372.84,200.63 C368.34,214.59 363.39,229.96 359.85,240.96 " fill="none" id="Gnome::GObject::Object-backto-Gnome::GObject::InitialyUnowned" style="stroke: #A80036; stroke-width: 1.0;"/><polygon fill="none" points="366.28,198.16,379.08,181.27,379.61,202.45,366.28,198.16" style="stroke: #A80036; stroke-width: 1.0;"/><!--MD5=[f8ffcf4587ba956cb48626a4231e4d21]
reverse link Gnome::GObject::Signal to Gnome::GObject::Object--><path codeLine="26" d="M332.77,165 C337.85,165 342.92,165 348,165 " fill="none" id="Gnome::GObject::Signal-backto-Gnome::GObject::Object" style="stroke: #A80036; stroke-width: 1.0; stroke-dasharray: 7.0,7.0;"/><polygon fill="none" points="332.56,172,312.56,165,332.56,158,332.56,172" style="stroke: #A80036; stroke-width: 1.0;"/><!--MD5=[1335099fcd58edb25b444005b6858935]
reverse link Gnome::Gtk3::Buildable to Gnome::Gtk3::Widget--><path codeLine="28" d="M302.28,364 C307.33,364 312.39,364 317.44,364 " fill="none" id="Gnome::Gtk3::Buildable-backto-Gnome::Gtk3::Widget" style="stroke: #A80036; stroke-width: 1.0; stroke-dasharray: 7.0,7.0;"/><polygon fill="none" points="302.16,371,282.16,364,302.16,357,302.16,371" style="stroke: #A80036; stroke-width: 1.0;"/><!--MD5=[940ddf52f8156166e52a90b7ba66cda5]
reverse link Gnome::Gtk3::Widget to Gnome::Gtk3::Container--><path codeLine="29" d="M355,400.61 C355,414.31 355,429.22 355,439.96 " fill="none" id="Gnome::Gtk3::Widget-backto-Gnome::Gtk3::Container" style="stroke: #A80036; stroke-width: 1.0;"/><polygon fill="none" points="348,400.27,355,380.27,362,400.27,348,400.27" style="stroke: #A80036; stroke-width: 1.0;"/><!--MD5=[45857169cb9b43a6f2fc81a691bcb293]
link Gnome::Gtk3::Grid to Gnome::Gtk3::Container--><path codeLine="30" d="M273.79,456 C278.56,456 283.33,456 288.11,456 " fill="none" id="Gnome::Gtk3::Grid-to-Gnome::Gtk3::Container" style="stroke: #A80036; stroke-width: 1.0;"/><polygon fill="none" points="288.37,449,308.37,456,288.37,463,288.37,449" style="stroke: #A80036; stroke-width: 1.0;"/><!--MD5=[4ada29d9d5aab71ccc25925ff2c68d8f]
reverse link Gnome::Gtk3::Orientable to Gnome::Gtk3::Grid--><path codeLine="31" d="M201.26,456 C206.18,456 211.1,456 216.02,456 " fill="none" id="Gnome::Gtk3::Orientable-backto-Gnome::Gtk3::Grid" style="stroke: #A80036; stroke-width: 1.0; stroke-dasharray: 7.0,7.0;"/><polygon fill="none" points="201.04,463,181.04,456,201.04,449,201.04,463" style="stroke: #A80036; stroke-width: 1.0;"/><!--MD5=[e56097f9bf652aa13a27481ec6ffab8c]
@startuml
'scale 0.9
skinparam packageStyle rectangle
skinparam stereotypeCBackgroundColor #80ffff
set namespaceSeparator ::
hide members


'Class and interface declarations
class Gnome::N::TopLevelClassSupport < Catch all class >

Interface Gnome::GObject::Signal <Interface>
class Gnome::GObject::Signal <<(R,#80ffff)>>

Interface Gnome::Gtk3::Buildable <Interface>
class Gnome::Gtk3::Buildable <<(R,#80ffff)>>

Interface Gnome::Gtk3::Orientable <Interface>
class Gnome::Gtk3::Orientable <<(R,#80ffff)>>


'Class connections
Gnome::N::TopLevelClassSupport <|- - Gnome::GObject::Object
Gnome::GObject::InitialyUnowned <|- - Gnome::Gtk3::Widget
Gnome::GObject::Object <|- - Gnome::GObject::InitialyUnowned
Gnome::GObject::Signal <|. Gnome::GObject::Object

Gnome::Gtk3::Buildable <|. Gnome::Gtk3::Widget
Gnome::Gtk3::Widget <|- - Gnome::Gtk3::Container
Gnome::Gtk3::Grid -|> Gnome::Gtk3::Container
Gnome::Gtk3::Orientable <|. Gnome::Gtk3::Grid

@enduml

@startuml
skinparam packageStyle rectangle
skinparam stereotypeCBackgroundColor #80ffff
set namespaceSeparator ::
hide members


class Gnome::N::TopLevelClassSupport < Catch all class >

Interface Gnome::GObject::Signal <Interface>
class Gnome::GObject::Signal <<(R,#80ffff)>>

Interface Gnome::Gtk3::Buildable <Interface>
class Gnome::Gtk3::Buildable <<(R,#80ffff)>>

Interface Gnome::Gtk3::Orientable <Interface>
class Gnome::Gtk3::Orientable <<(R,#80ffff)>>


Gnome::N::TopLevelClassSupport <|- - Gnome::GObject::Object
Gnome::GObject::InitialyUnowned <|- - Gnome::Gtk3::Widget
Gnome::GObject::Object <|- - Gnome::GObject::InitialyUnowned
Gnome::GObject::Signal <|. Gnome::GObject::Object

Gnome::Gtk3::Buildable <|. Gnome::Gtk3::Widget
Gnome::Gtk3::Widget <|- - Gnome::Gtk3::Container
Gnome::Gtk3::Grid -|> Gnome::Gtk3::Container
Gnome::Gtk3::Orientable <|. Gnome::Gtk3::Grid

@enduml

PlantUML version 1.2020.19(Mon Oct 12 17:10:01 CEST 2020)
(GPL source distribution)
Java Runtime: OpenJDK Runtime Environment
JVM: OpenJDK 64-Bit Server VM
Default Encoding: UTF-8
Language: en
Country: null
--></g></svg>