<?xml version="1.0" encoding="UTF-8" standalone="no"?><svg xmlns="http://www.w3.org/2000/svg" xmlns:xlink="http://www.w3.org/1999/xlink" contentScriptType="application/ecmascript" contentStyleType="text/css" height="250.2px" preserveAspectRatio="none" style="width:285px;height:250px;" version="1.1" viewBox="0 0 285 250" width="285.3px" zoomAndPan="magnify"><defs><filter height="300%" id="fzohqgi0bvgom" width="300%" x="-1" y="-1"><feGaussianBlur result="blurOut" stdDeviation="1.8"/><feColorMatrix in="blurOut" result="blurOut2" type="matrix" values="0 0 0 0 0 0 0 0 0 0 0 0 0 0 0 0 0 0 .4 0"/><feOffset dx="3.6" dy="3.6" in="blurOut2" result="blurOut3"/><feBlend in="SourceGraphic" in2="blurOut3" mode="normal"/></filter></defs><g><!--cluster Gnome::N--><rect fill="#FFFFFF" filter="url(#fzohqgi0bvgom)" height="60.3" style="stroke: #000000; stroke-width: 1.35;" width="257.4" x="12.6" y="14.4"/><text fill="#000000" font-family="sans-serif" font-size="12.6" font-weight="bold" lengthAdjust="spacingAndGlyphs" textLength="71.1" x="105.75" y="27.8956">Gnome::N</text><!--cluster Gnome::GObject--><rect fill="#FFFFFF" filter="url(#fzohqgi0bvgom)" height="60.3" style="stroke: #000000; stroke-width: 1.35;" width="173.7" x="101.7" y="97.2"/><text fill="#000000" font-family="sans-serif" font-size="12.6" font-weight="bold" lengthAdjust="spacingAndGlyphs" textLength="117.9" x="129.6" y="110.6956">Gnome::GObject</text><!--cluster Gnome::Gtk3--><rect fill="#FFFFFF" filter="url(#fzohqgi0bvgom)" height="60.3" style="stroke: #000000; stroke-width: 1.35;" width="108.9" x="87.3" y="180"/><text fill="#000000" font-family="sans-serif" font-size="12.6" font-weight="bold" lengthAdjust="spacingAndGlyphs" textLength="94.5" x="94.5" y="193.4956">Gnome::Gtk3</text><!--class Gnome::N::TopLevelClassSupport--><rect fill="#FEFECE" filter="url(#fzohqgi0bvgom)" height="28.8" id="Gnome::N::TopLevelClassSupport" style="stroke: #A80036; stroke-width: 1.35;" width="242.1" x="20.25" y="38.7"/><ellipse cx="33.75" cy="53.1" fill="#ADD1B2" rx="9.9" ry="9.9" style="stroke: #A80036; stroke-width: 0.9;"/><path d="M36.4219,58.1766 Q35.9016,58.4438 35.325,58.5703 Q34.7484,58.7109 34.1156,58.7109 Q31.8656,58.7109 30.6703,57.2344 Q29.4891,55.7438 29.4891,52.9313 Q29.4891,50.1188 30.6703,48.6281 Q31.8656,47.1375 34.1156,47.1375 Q34.7484,47.1375 35.325,47.2781 Q35.9156,47.4188 36.4219,47.6859 L36.4219,50.1328 Q35.8594,49.6125 35.325,49.3734 Q34.7906,49.1203 34.2281,49.1203 Q33.0188,49.1203 32.4,50.0906 Q31.7813,51.0469 31.7813,52.9313 Q31.7813,54.8156 32.4,55.7859 Q33.0188,56.7422 34.2281,56.7422 Q34.7906,56.7422 35.325,56.5031 Q35.8594,56.25 36.4219,55.7297 L36.4219,58.1766 Z "/><text fill="#000000" font-family="sans-serif" font-size="10.8" lengthAdjust="spacingAndGlyphs" textLength="123.3" x="46.35" y="56.8626">TopLevelClassSupport</text><rect fill="#FFFFFF" height="14.3719" style="stroke: #000000; stroke-width: 0.9; stroke-dasharray: 2.0,2.0;" width="88.2" x="176.85" y="36"/><text fill="#000000" font-family="sans-serif" font-size="10.8" font-style="italic" lengthAdjust="spacingAndGlyphs" textLength="79.2" x="181.35" y="46.9248">Catch all class</text><!--class Gnome::GObject::Object--><rect fill="#FEFECE" filter="url(#fzohqgi0bvgom)" height="28.8" id="Gnome::GObject::Object" style="stroke: #A80036; stroke-width: 1.35;" width="64.8" x="108.9" y="121.5"/><ellipse cx="122.4" cy="135.9" fill="#ADD1B2" rx="9.9" ry="9.9" style="stroke: #A80036; stroke-width: 0.9;"/><path d="M125.0719,140.9766 Q124.5516,141.2438 123.975,141.3703 Q123.3984,141.5109 122.7656,141.5109 Q120.5156,141.5109 119.3203,140.0344 Q118.1391,138.5438 118.1391,135.7313 Q118.1391,132.9188 119.3203,131.4281 Q120.5156,129.9375 122.7656,129.9375 Q123.3984,129.9375 123.975,130.0781 Q124.5656,130.2188 125.0719,130.4859 L125.0719,132.9328 Q124.5094,132.4125 123.975,132.1734 Q123.4406,131.9203 122.8781,131.9203 Q121.6688,131.9203 121.05,132.8906 Q120.4313,133.8469 120.4313,135.7313 Q120.4313,137.6156 121.05,138.5859 Q121.6688,139.5422 122.8781,139.5422 Q123.4406,139.5422 123.975,139.3031 Q124.5094,139.05 125.0719,138.5297 L125.0719,140.9766 Z "/><text fill="#000000" font-family="sans-serif" font-size="10.8" lengthAdjust="spacingAndGlyphs" textLength="36" x="135" y="139.6626">Object</text><!--class Gnome::GObject::Signal--><rect fill="#FEFECE" filter="url(#fzohqgi0bvgom)" height="28.8" id="Gnome::GObject::Signal" style="stroke: #A80036; stroke-width: 1.35;" width="63" x="205.2" y="121.5"/><ellipse cx="218.7" cy="135.9" fill="#ADD1B2" rx="9.9" ry="9.9" style="stroke: #A80036; stroke-width: 0.9;"/><path d="M221.3719,140.9766 Q220.8516,141.2438 220.275,141.3703 Q219.6984,141.5109 219.0656,141.5109 Q216.8156,141.5109 215.6203,140.0344 Q214.4391,138.5438 214.4391,135.7313 Q214.4391,132.9188 215.6203,131.4281 Q216.8156,129.9375 219.0656,129.9375 Q219.6984,129.9375 220.275,130.0781 Q220.8656,130.2188 221.3719,130.4859 L221.3719,132.9328 Q220.8094,132.4125 220.275,132.1734 Q219.7406,131.9203 219.1781,131.9203 Q217.9688,131.9203 217.35,132.8906 Q216.7313,133.8469 216.7313,135.7313 Q216.7313,137.6156 217.35,138.5859 Q217.9688,139.5422 219.1781,139.5422 Q219.7406,139.5422 220.275,139.3031 Q220.8094,139.05 221.3719,138.5297 L221.3719,140.9766 Z "/><text fill="#000000" font-family="sans-serif" font-size="10.8" lengthAdjust="spacingAndGlyphs" textLength="34.2" x="231.3" y="139.6626">Signal</text><!--class Gnome::Gtk3::IconTheme--><rect fill="#FEFECE" filter="url(#fzohqgi0bvgom)" height="28.8" id="Gnome::Gtk3::IconTheme" style="stroke: #A80036; stroke-width: 1.35;" width="90" x="96.3" y="204.3"/><ellipse cx="109.8" cy="218.7" fill="#ADD1B2" rx="9.9" ry="9.9" style="stroke: #A80036; stroke-width: 0.9;"/><path d="M112.4719,223.7766 Q111.9516,224.0438 111.375,224.1703 Q110.7984,224.3109 110.1656,224.3109 Q107.9156,224.3109 106.7203,222.8344 Q105.5391,221.3438 105.5391,218.5313 Q105.5391,215.7188 106.7203,214.2281 Q107.9156,212.7375 110.1656,212.7375 Q110.7984,212.7375 111.375,212.8781 Q111.9656,213.0188 112.4719,213.2859 L112.4719,215.7328 Q111.9094,215.2125 111.375,214.9734 Q110.8406,214.7203 110.2781,214.7203 Q109.0688,214.7203 108.45,215.6906 Q107.8313,216.6469 107.8313,218.5313 Q107.8313,220.4156 108.45,221.3859 Q109.0688,222.3422 110.2781,222.3422 Q110.8406,222.3422 111.375,222.1031 Q111.9094,221.85 112.4719,221.3297 L112.4719,223.7766 Z "/><text fill="#000000" font-family="sans-serif" font-size="10.8" lengthAdjust="spacingAndGlyphs" textLength="61.2" x="122.4" y="222.4626">IconTheme</text><!--link Gnome::N::TopLevelClassSupport to Gnome::GObject::Object--><path d="M141.3,85.8643 C141.3,98.1709 141.3,111.5431 141.3,121.3648 " fill="none" id="Gnome::N::TopLevelClassSupport-Gnome::GObject::Object" style="stroke: #A80036; stroke-width: 0.9;"/><polygon fill="none" points="135.0001,85.5227,141.3,67.5227,147.6001,85.5226,135.0001,85.5227" style="stroke: #A80036; stroke-width: 0.9;"/><!--link Gnome::GObject::Object to Gnome::Gtk3::IconTheme--><path d="M141.3,168.6643 C141.3,180.9709 141.3,194.3431 141.3,204.1648 " fill="none" id="Gnome::GObject::Object-Gnome::Gtk3::IconTheme" style="stroke: #A80036; stroke-width: 0.9;"/><polygon fill="none" points="135.0001,168.3227,141.3,150.3227,147.6001,168.3226,135.0001,168.3227" style="stroke: #A80036; stroke-width: 0.9;"/><!--link Gnome::GObject::Object to Gnome::GObject::Signal--><path d="M185.4374,135.9 C187.9799,135.9 190.5226,135.9 193.0652,135.9 " fill="none" id="Gnome::GObject::Object-Gnome::GObject::Signal" style="stroke: #A80036; stroke-width: 0.9;"/><polygon fill="#A80036" points="204.9646,135.9,196.8646,132.3,200.4646,135.9,196.8646,139.5,204.9646,135.9" style="stroke: #A80036; stroke-width: 0.9;"/><line style="stroke: #A80036; stroke-width: 0.9;" x1="200.4646" x2="193.2645" y1="135.9" y2="135.8999"/><polygon fill="#A80036" points="173.7211,135.9,179.1211,139.5,184.5211,135.9,179.1211,132.3,173.7211,135.9" style="stroke: #A80036; stroke-width: 0.9;"/><!--
@startuml
scale 0.9
skinparam packageStyle rectangle
set namespaceSeparator ::
hide members


class Gnome::N::TopLevelClassSupport < Catch all class >
Gnome::N::TopLevelClassSupport <|- - Gnome::GObject::Object

Gnome::GObject::Object <|- - Gnome::Gtk3::IconTheme
Gnome::GObject::Object *-> Gnome::GObject::Signal
@enduml

PlantUML version 1.2019.01(Sat Feb 09 16:32:04 CET 2019)
(LGPL source distribution)
Java Runtime: OpenJDK Runtime Environment
JVM: OpenJDK 64-Bit Server VM
Java Version: 1.8.0_265-b01
Operating System: Linux
OS Version: 5.8.8-100.fc31.x86_64
Default Encoding: UTF-8
Language: en
Country: null
--></g></svg>