<?xml version="1.0" encoding="UTF-8" standalone="no"?><svg xmlns="http://www.w3.org/2000/svg" xmlns:xlink="http://www.w3.org/1999/xlink" contentStyleType="text/css" height="319px" preserveAspectRatio="none" style="width:371px;height:319px;background:#FFFFFF;" version="1.1" viewBox="0 0 371 319" width="371px" zoomAndPan="magnify"><defs/><g><!--cluster Gnome::N--><g id="cluster_Gnome::N"><rect fill="none" height="86" rx="2.5" ry="2.5" style="stroke:#000000;stroke-width:1.5;" width="294" x="71" y="7"/><text fill="#000000" font-family="sans-serif" font-size="14" font-weight="bold" lengthAdjust="spacing" textLength="70" x="183" y="23.9659">Gnome::N</text></g><!--cluster Gnome::GObject--><g id="cluster_Gnome::GObject"><rect fill="none" height="86" rx="2.5" ry="2.5" style="stroke:#000000;stroke-width:1.5;" width="265" x="7" y="117"/><text fill="#000000" font-family="sans-serif" font-size="14" font-weight="bold" lengthAdjust="spacing" textLength="117" x="81" y="133.9659">Gnome::GObject</text></g><!--cluster Gnome::Gtk3--><g id="cluster_Gnome::Gtk3"><rect fill="none" height="86" rx="2.5" ry="2.5" style="stroke:#000000;stroke-width:1.5;" width="263" x="63" y="227"/><text fill="#000000" font-family="sans-serif" font-size="14" font-weight="bold" lengthAdjust="spacing" textLength="93" x="148" y="243.9659">Gnome::Gtk3</text></g><!--class Gnome::N::TopLevelClassSupport--><g id="elem_Gnome::N::TopLevelClassSupport"><rect codeLine="8" fill="#F1F1F1" height="32" id="Gnome::N::TopLevelClassSupport" rx="2.5" ry="2.5" style="stroke:#181818;stroke-width:0.5;" width="262" x="87" y="45"/><ellipse cx="102" cy="61" fill="#ADD1B2" rx="11" ry="11" style="stroke:#181818;stroke-width:1.0;"/><path d="M101.4688,67.6719 Q99.7188,67.6719 98.5781,66.9375 Q97.4531,66.1875 96.8906,64.8438 Q96.3438,63.4844 96.3438,61.6875 Q96.3438,59.6563 97,58.2031 Q97.6563,56.75 98.9375,55.9688 Q100.2188,55.1875 102.0938,55.1875 Q102.9844,55.1875 103.6563,55.375 Q104.3281,55.5469 105.0156,55.8906 L104.2031,57.9063 Q103.5781,57.5938 103.0313,57.4688 Q102.5,57.3438 102.0156,57.3438 Q100.8438,57.3438 100.1406,57.875 Q99.4375,58.4063 99.1406,59.3594 Q98.8438,60.3125 98.8438,61.5781 Q98.8438,63.5938 99.5625,64.5625 Q100.2813,65.5156 101.875,65.5156 Q102.4688,65.5156 103.0938,65.3594 Q103.7188,65.2031 104.5469,64.8281 L104.5469,67.0469 Q103.8125,67.3594 103.0156,67.5156 Q102.2344,67.6719 101.4688,67.6719 Z " fill="#000000"/><text fill="#000000" font-family="sans-serif" font-size="14" lengthAdjust="spacing" textLength="146" x="116" y="66.432">TopLevelClassSupport</text><rect fill="#FFFFFF" height="18.3441" style="stroke:#181818;stroke-width:1.0;stroke-dasharray:2.0,2.0;" width="82" x="270" y="42"/><text fill="#000000" font-family="sans-serif" font-size="12" font-style="italic" lengthAdjust="spacing" textLength="74" x="274" y="55.8281">Catch all class</text></g><!--class Gnome::GObject::Object--><g id="elem_Gnome::GObject::Object"><rect fill="#F1F1F1" height="32" id="Gnome::GObject::Object" rx="2.5" ry="2.5" style="stroke:#181818;stroke-width:0.5;" width="76" x="180" y="155"/><ellipse cx="195" cy="171" fill="#ADD1B2" rx="11" ry="11" style="stroke:#181818;stroke-width:1.0;"/><path d="M194.4688,177.6719 Q192.7188,177.6719 191.5781,176.9375 Q190.4531,176.1875 189.8906,174.8438 Q189.3438,173.4844 189.3438,171.6875 Q189.3438,169.6563 190,168.2031 Q190.6563,166.75 191.9375,165.9688 Q193.2188,165.1875 195.0938,165.1875 Q195.9844,165.1875 196.6563,165.375 Q197.3281,165.5469 198.0156,165.8906 L197.2031,167.9063 Q196.5781,167.5938 196.0313,167.4688 Q195.5,167.3438 195.0156,167.3438 Q193.8438,167.3438 193.1406,167.875 Q192.4375,168.4063 192.1406,169.3594 Q191.8438,170.3125 191.8438,171.5781 Q191.8438,173.5938 192.5625,174.5625 Q193.2813,175.5156 194.875,175.5156 Q195.4688,175.5156 196.0938,175.3594 Q196.7188,175.2031 197.5469,174.8281 L197.5469,177.0469 Q196.8125,177.3594 196.0156,177.5156 Q195.2344,177.6719 194.4688,177.6719 Z " fill="#000000"/><text fill="#000000" font-family="sans-serif" font-size="14" lengthAdjust="spacing" textLength="44" x="209" y="176.432">Object</text></g><!--class Gnome::GObject::Signal--><g id="elem_Gnome::GObject::Signal"><rect codeLine="12" fill="#F1F1F1" height="32" id="Gnome::GObject::Signal" rx="2.5" ry="2.5" style="stroke:#181818;stroke-width:0.5;" width="122" x="23" y="155"/><ellipse cx="38" cy="171" fill="#80FFFF" rx="11" ry="11" style="stroke:#181818;stroke-width:1.0;"/><path d="M33.8594,177.5 L33.8594,165.3594 L37.1094,165.3594 Q39.2656,165.3594 40.3906,166.3281 Q41.5313,167.2969 41.5313,169.0156 Q41.5313,170.2656 40.9688,171.0938 Q40.4219,171.9063 39.4688,172.3594 L42.4375,177.5 L39.8281,177.5 L37.2969,172.9219 L36.3281,172.9219 L36.3281,177.5 L33.8594,177.5 Z M37.0625,170.8438 Q39.0469,170.8438 39.0469,169.0625 Q39.0469,168.1719 38.5313,167.8125 Q38.0156,167.4531 37,167.4531 L36.3281,167.4531 L36.3281,170.8438 L37.0625,170.8438 Z " fill="#000000"/><text fill="#000000" font-family="sans-serif" font-size="14" lengthAdjust="spacing" textLength="38" x="52" y="176.432">Signal</text><rect fill="#FFFFFF" height="18.3441" style="stroke:#181818;stroke-width:1.0;stroke-dasharray:2.0,2.0;" width="50" x="98" y="152"/><text fill="#000000" font-family="sans-serif" font-size="12" font-style="italic" lengthAdjust="spacing" textLength="48" x="99" y="165.8281">Interface</text></g><!--class Gnome::Gtk3::IconTheme--><g id="elem_Gnome::Gtk3::IconTheme"><rect fill="#F1F1F1" height="32" id="Gnome::Gtk3::IconTheme" rx="2.5" ry="2.5" style="stroke:#181818;stroke-width:0.5;" width="107" x="202.5" y="265"/><ellipse cx="217.5" cy="281" fill="#ADD1B2" rx="11" ry="11" style="stroke:#181818;stroke-width:1.0;"/><path d="M216.9688,287.6719 Q215.2188,287.6719 214.0781,286.9375 Q212.9531,286.1875 212.3906,284.8438 Q211.8438,283.4844 211.8438,281.6875 Q211.8438,279.6563 212.5,278.2031 Q213.1563,276.75 214.4375,275.9688 Q215.7188,275.1875 217.5938,275.1875 Q218.4844,275.1875 219.1563,275.375 Q219.8281,275.5469 220.5156,275.8906 L219.7031,277.9063 Q219.0781,277.5938 218.5313,277.4688 Q218,277.3438 217.5156,277.3438 Q216.3438,277.3438 215.6406,277.875 Q214.9375,278.4063 214.6406,279.3594 Q214.3438,280.3125 214.3438,281.5781 Q214.3438,283.5938 215.0625,284.5625 Q215.7813,285.5156 217.375,285.5156 Q217.9688,285.5156 218.5938,285.3594 Q219.2188,285.2031 220.0469,284.8281 L220.0469,287.0469 Q219.3125,287.3594 218.5156,287.5156 Q217.7344,287.6719 216.9688,287.6719 Z " fill="#000000"/><text fill="#000000" font-family="sans-serif" font-size="14" lengthAdjust="spacing" textLength="75" x="231.5" y="286.432">IconTheme</text></g><!--class Gnome::Gtk3::IconInfo--><g id="elem_Gnome::Gtk3::IconInfo"><rect fill="#F1F1F1" height="32" id="Gnome::Gtk3::IconInfo" rx="2.5" ry="2.5" style="stroke:#181818;stroke-width:0.5;" width="88" x="79" y="265"/><ellipse cx="94" cy="281" fill="#ADD1B2" rx="11" ry="11" style="stroke:#181818;stroke-width:1.0;"/><path d="M93.4688,287.6719 Q91.7188,287.6719 90.5781,286.9375 Q89.4531,286.1875 88.8906,284.8438 Q88.3438,283.4844 88.3438,281.6875 Q88.3438,279.6563 89,278.2031 Q89.6563,276.75 90.9375,275.9688 Q92.2188,275.1875 94.0938,275.1875 Q94.9844,275.1875 95.6563,275.375 Q96.3281,275.5469 97.0156,275.8906 L96.2031,277.9063 Q95.5781,277.5938 95.0313,277.4688 Q94.5,277.3438 94.0156,277.3438 Q92.8438,277.3438 92.1406,277.875 Q91.4375,278.4063 91.1406,279.3594 Q90.8438,280.3125 90.8438,281.5781 Q90.8438,283.5938 91.5625,284.5625 Q92.2813,285.5156 93.875,285.5156 Q94.4688,285.5156 95.0938,285.3594 Q95.7188,285.2031 96.5469,284.8281 L96.5469,287.0469 Q95.8125,287.3594 95.0156,287.5156 Q94.2344,287.6719 93.4688,287.6719 Z " fill="#000000"/><text fill="#000000" font-family="sans-serif" font-size="14" lengthAdjust="spacing" textLength="56" x="108" y="286.432">IconInfo</text></g><!--reverse link Gnome::N::TopLevelClassSupport to Gnome::GObject::Object--><g id="link_Gnome::N::TopLevelClassSupport_Gnome::GObject::Object"><path codeLine="9" d="M218,97.11 C218,116.61 218,139.85 218,154.76 " fill="none" id="Gnome::N::TopLevelClassSupport-backto-Gnome::GObject::Object" style="stroke:#181818;stroke-width:1.0;"/><polygon fill="none" points="211,97.02,218,77.02,225,97.02,211,97.02" style="stroke:#181818;stroke-width:1.0;"/></g><!--reverse link Gnome::GObject::Signal to Gnome::GObject::Object--><g id="link_Gnome::GObject::Signal_Gnome::GObject::Object"><path codeLine="14" d="M165.29,171 C170.16,171 175.04,171 179.92,171 " fill="none" id="Gnome::GObject::Signal-backto-Gnome::GObject::Object" style="stroke:#181818;stroke-width:1.0;stroke-dasharray:7.0,7.0;"/><polygon fill="none" points="165.24,178,145.24,171,165.24,164,165.24,178" style="stroke:#181818;stroke-width:1.0;"/></g><!--reverse link Gnome::GObject::Object to Gnome::Gtk3::IconTheme--><g id="link_Gnome::GObject::Object_Gnome::Gtk3::IconTheme"><path codeLine="15" d="M230.02,206.17 C236.95,225.85 245.31,249.61 250.64,264.76 " fill="none" id="Gnome::GObject::Object-backto-Gnome::Gtk3::IconTheme" style="stroke:#181818;stroke-width:1.0;"/><polygon fill="none" points="223.32,208.21,223.28,187.02,236.53,203.56,223.32,208.21" style="stroke:#181818;stroke-width:1.0;"/></g><!--reverse link Gnome::GObject::Object to Gnome::Gtk3::IconInfo--><g id="link_Gnome::GObject::Object_Gnome::Gtk3::IconInfo"><path codeLine="16" d="M191.48,202.15 C173.56,222.52 150.65,248.56 136.4,264.76 " fill="none" id="Gnome::GObject::Object-backto-Gnome::Gtk3::IconInfo" style="stroke:#181818;stroke-width:1.0;"/><polygon fill="none" points="186.33,197.41,204.79,187.02,196.84,206.66,186.33,197.41" style="stroke:#181818;stroke-width:1.0;"/></g><!--SRC=[bO_DIWD148Jl_HGD7bGm8U15csKFsKDO217Sl41dqllZpXyp4o6GXtT2L0mnY7rfwFgggRgDYhNWRFeCSHoivy06FQkHEsdIFaj1L6BRQVa1n2H1NDfxgUQPxOBRsMtbj0juypHhyq2KX9QDnFnC6ZdwKfQ9e1-sWaRCHa840AKvHbnOPuHeHRHsVYdleglZlTbvxqB20YjEgaVM6a-64lwo72QJhxUBbyrRha5qsW2rpGtQdEo2Q8REiiRYcoZF4rw0nTthmsVf-x84kCOTfjVI_7u-Bv36Hw9QERlknSZ_BBLj7Nm0]--></g></svg>