<?xml version="1.0" encoding="UTF-8" standalone="no"?><svg xmlns="http://www.w3.org/2000/svg" xmlns:xlink="http://www.w3.org/1999/xlink" contentScriptType="application/ecmascript" contentStyleType="text/css" height="408px" preserveAspectRatio="none" style="width:561px;height:408px;" version="1.1" viewBox="0 0 561 408" width="561px" zoomAndPan="magnify"><defs><filter height="300%" id="f1xalga3s96md2" width="300%" x="-1" y="-1"><feGaussianBlur result="blurOut" stdDeviation="2.0"/><feColorMatrix in="blurOut" result="blurOut2" type="matrix" values="0 0 0 0 0 0 0 0 0 0 0 0 0 0 0 0 0 0 .4 0"/><feOffset dx="4.0" dy="4.0" in="blurOut2" result="blurOut3"/><feBlend in="SourceGraphic" in2="blurOut3" mode="normal"/></filter></defs><g><!--MD5=[b969295f0ec9b4fa482091c3e26049be]
cluster Gnome::N--><rect fill="#FFFFFF" filter="url(#f1xalga3s96md2)" height="83" style="stroke: #000000; stroke-width: 1.5;" width="302" x="188" y="7"/><text fill="#000000" font-family="sans-serif" font-size="14" font-weight="bold" lengthAdjust="spacingAndGlyphs" textLength="79" x="299.5" y="21.9951">Gnome::N</text><!--MD5=[2fb3f9b624b0544b9841d5da78ec0508]
cluster Gnome::GObject--><rect fill="#FFFFFF" filter="url(#f1xalga3s96md2)" height="175" style="stroke: #000000; stroke-width: 1.5;" width="271" x="120" y="114"/><text fill="#000000" font-family="sans-serif" font-size="14" font-weight="bold" lengthAdjust="spacingAndGlyphs" textLength="131" x="190" y="128.9951">Gnome::GObject</text><!--MD5=[7d67f77911969026863717fbb204e273]
cluster Gnome::Gtk3--><rect fill="#FFFFFF" filter="url(#f1xalga3s96md2)" height="83" style="stroke: #000000; stroke-width: 1.5;" width="542" x="7" y="313"/><text fill="#000000" font-family="sans-serif" font-size="14" font-weight="bold" lengthAdjust="spacingAndGlyphs" textLength="105" x="225.5" y="327.9951">Gnome::Gtk3</text><!--MD5=[0b8e281ccd00c72019a31d78e9f95b5d]
class Gnome::N::TopLevelClassSupport--><rect codeLine="9" fill="#FEFECE" filter="url(#f1xalga3s96md2)" height="32" id="Gnome::N::TopLevelClassSupport" style="stroke: #A80036; stroke-width: 1.5;" width="269" x="204.5" y="42"/><ellipse cx="219.5" cy="58" fill="#80FFFF" rx="11" ry="11" style="stroke: #A80036; stroke-width: 1.0;"/><path d="M222.4688,63.6406 Q221.8906,63.9375 221.25,64.0781 Q220.6094,64.2344 219.9063,64.2344 Q217.4063,64.2344 216.0781,62.5938 Q214.7656,60.9375 214.7656,57.8125 Q214.7656,54.6875 216.0781,53.0313 Q217.4063,51.375 219.9063,51.375 Q220.6094,51.375 221.25,51.5313 Q221.9063,51.6875 222.4688,51.9844 L222.4688,54.7031 Q221.8438,54.125 221.25,53.8594 Q220.6563,53.5781 220.0313,53.5781 Q218.6875,53.5781 218,54.6563 Q217.3125,55.7188 217.3125,57.8125 Q217.3125,59.9063 218,60.9844 Q218.6875,62.0469 220.0313,62.0469 Q220.6563,62.0469 221.25,61.7813 Q221.8438,61.5 222.4688,60.9219 L222.4688,63.6406 Z "/><text fill="#000000" font-family="sans-serif" font-size="12" lengthAdjust="spacingAndGlyphs" textLength="137" x="233.5" y="62.1807">TopLevelClassSupport</text><rect fill="#FFFFFF" height="15.9688" style="stroke: #000000; stroke-width: 1.0; stroke-dasharray: 2.0,2.0;" width="98" x="378.5" y="39"/><text fill="#000000" font-family="sans-serif" font-size="12" font-style="italic" lengthAdjust="spacingAndGlyphs" textLength="88" x="383.5" y="51.1387">Catch all class</text><!--MD5=[52303d185de782118d4739c052001bf2]
class Gnome::GObject::Signal--><rect codeLine="12" fill="#FEFECE" filter="url(#f1xalga3s96md2)" height="32" id="Gnome::GObject::Signal" style="stroke: #A80036; stroke-width: 1.5;" width="131" x="136.5" y="149"/><ellipse cx="151.5" cy="165" fill="#80FFFF" rx="11" ry="11" style="stroke: #A80036; stroke-width: 1.0;"/><path d="M152.7031,165.1406 Q153.0625,165.2188 153.3281,165.5 Q153.6094,165.7656 154,166.5469 L156.2344,171 L153.5469,171 L152.0469,167.875 Q151.9844,167.7344 151.875,167.5 Q151.2188,166.1094 150.3281,166.1094 L149.5469,166.1094 L149.5469,171 L147.1094,171 L147.1094,158.6094 L150.6406,158.6094 Q153.0313,158.6094 154.0625,159.4531 Q155.1094,160.2969 155.1094,162.2031 Q155.1094,163.4844 154.4844,164.25 Q153.875,165 152.7031,165.1406 Z M149.5469,160.6719 L149.5469,164.0469 L150.7031,164.0469 Q151.7188,164.0469 152.1406,163.6563 Q152.5781,163.25 152.5781,162.3438 Q152.5781,161.4531 152.1406,161.0625 Q151.7188,160.6719 150.7031,160.6719 L149.5469,160.6719 Z "/><text fill="#000000" font-family="sans-serif" font-size="12" lengthAdjust="spacingAndGlyphs" textLength="38" x="165.5" y="169.1807">Signal</text><rect fill="#FFFFFF" height="15.9688" style="stroke: #000000; stroke-width: 1.0; stroke-dasharray: 2.0,2.0;" width="59" x="211.5" y="146"/><text fill="#000000" font-family="sans-serif" font-size="12" font-style="italic" lengthAdjust="spacingAndGlyphs" textLength="57" x="212.5" y="158.1387">Interface</text><!--MD5=[c2016d28441601ceb0a74f47a4537d14]
class Gnome::GObject::Object--><rect fill="#FEFECE" filter="url(#f1xalga3s96md2)" height="32" id="Gnome::GObject::Object" style="stroke: #A80036; stroke-width: 1.5;" width="72" x="303" y="149"/><ellipse cx="318" cy="165" fill="#80FFFF" rx="11" ry="11" style="stroke: #A80036; stroke-width: 1.0;"/><path d="M320.9688,170.6406 Q320.3906,170.9375 319.75,171.0781 Q319.1094,171.2344 318.4063,171.2344 Q315.9063,171.2344 314.5781,169.5938 Q313.2656,167.9375 313.2656,164.8125 Q313.2656,161.6875 314.5781,160.0313 Q315.9063,158.375 318.4063,158.375 Q319.1094,158.375 319.75,158.5313 Q320.4063,158.6875 320.9688,158.9844 L320.9688,161.7031 Q320.3438,161.125 319.75,160.8594 Q319.1563,160.5781 318.5313,160.5781 Q317.1875,160.5781 316.5,161.6563 Q315.8125,162.7188 315.8125,164.8125 Q315.8125,166.9063 316.5,167.9844 Q317.1875,169.0469 318.5313,169.0469 Q319.1563,169.0469 319.75,168.7813 Q320.3438,168.5 320.9688,167.9219 L320.9688,170.6406 Z "/><text fill="#000000" font-family="sans-serif" font-size="12" lengthAdjust="spacingAndGlyphs" textLength="40" x="332" y="169.1807">Object</text><!--MD5=[f47b9a4a06d3f9bed948fa39f8c5540e]
class Gnome::GObject::InitialyUnowned--><rect fill="#FEFECE" filter="url(#f1xalga3s96md2)" height="32" id="Gnome::GObject::InitialyUnowned" style="stroke: #A80036; stroke-width: 1.5;" width="129" x="245.5" y="241"/><ellipse cx="260.5" cy="257" fill="#80FFFF" rx="11" ry="11" style="stroke: #A80036; stroke-width: 1.0;"/><path d="M263.4688,262.6406 Q262.8906,262.9375 262.25,263.0781 Q261.6094,263.2344 260.9063,263.2344 Q258.4063,263.2344 257.0781,261.5938 Q255.7656,259.9375 255.7656,256.8125 Q255.7656,253.6875 257.0781,252.0313 Q258.4063,250.375 260.9063,250.375 Q261.6094,250.375 262.25,250.5313 Q262.9063,250.6875 263.4688,250.9844 L263.4688,253.7031 Q262.8438,253.125 262.25,252.8594 Q261.6563,252.5781 261.0313,252.5781 Q259.6875,252.5781 259,253.6563 Q258.3125,254.7188 258.3125,256.8125 Q258.3125,258.9063 259,259.9844 Q259.6875,261.0469 261.0313,261.0469 Q261.6563,261.0469 262.25,260.7813 Q262.8438,260.5 263.4688,259.9219 L263.4688,262.6406 Z "/><text fill="#000000" font-family="sans-serif" font-size="12" lengthAdjust="spacingAndGlyphs" textLength="97" x="274.5" y="261.1807">InitialyUnowned</text><!--MD5=[fc528952aa489a9a9f8514412a46a5d5]
class Gnome::Gtk3::Buildable--><rect codeLine="21" fill="#FEFECE" filter="url(#f1xalga3s96md2)" height="32" id="Gnome::Gtk3::Buildable" style="stroke: #A80036; stroke-width: 1.5;" width="150" x="383" y="348"/><ellipse cx="398" cy="364" fill="#80FFFF" rx="11" ry="11" style="stroke: #A80036; stroke-width: 1.0;"/><path d="M399.2031,364.1406 Q399.5625,364.2188 399.8281,364.5 Q400.1094,364.7656 400.5,365.5469 L402.7344,370 L400.0469,370 L398.5469,366.875 Q398.4844,366.7344 398.375,366.5 Q397.7188,365.1094 396.8281,365.1094 L396.0469,365.1094 L396.0469,370 L393.6094,370 L393.6094,357.6094 L397.1406,357.6094 Q399.5313,357.6094 400.5625,358.4531 Q401.6094,359.2969 401.6094,361.2031 Q401.6094,362.4844 400.9844,363.25 Q400.375,364 399.2031,364.1406 Z M396.0469,359.6719 L396.0469,363.0469 L397.2031,363.0469 Q398.2188,363.0469 398.6406,362.6563 Q399.0781,362.25 399.0781,361.3438 Q399.0781,360.4531 398.6406,360.0625 Q398.2188,359.6719 397.2031,359.6719 L396.0469,359.6719 Z "/><text fill="#000000" font-family="sans-serif" font-size="12" lengthAdjust="spacingAndGlyphs" textLength="57" x="412" y="368.1807">Buildable</text><rect fill="#FFFFFF" height="15.9688" style="stroke: #000000; stroke-width: 1.0; stroke-dasharray: 2.0,2.0;" width="59" x="477" y="345"/><text fill="#000000" font-family="sans-serif" font-size="12" font-style="italic" lengthAdjust="spacingAndGlyphs" textLength="57" x="478" y="357.1387">Interface</text><!--MD5=[99c1fd59bdfde6048aec9e6766dd53ef]
class Gnome::Gtk3::Widget--><rect fill="#FEFECE" filter="url(#f1xalga3s96md2)" height="32" id="Gnome::Gtk3::Widget" style="stroke: #A80036; stroke-width: 1.5;" width="75" x="272.5" y="348"/><ellipse cx="287.5" cy="364" fill="#80FFFF" rx="11" ry="11" style="stroke: #A80036; stroke-width: 1.0;"/><path d="M290.4688,369.6406 Q289.8906,369.9375 289.25,370.0781 Q288.6094,370.2344 287.9063,370.2344 Q285.4063,370.2344 284.0781,368.5938 Q282.7656,366.9375 282.7656,363.8125 Q282.7656,360.6875 284.0781,359.0313 Q285.4063,357.375 287.9063,357.375 Q288.6094,357.375 289.25,357.5313 Q289.9063,357.6875 290.4688,357.9844 L290.4688,360.7031 Q289.8438,360.125 289.25,359.8594 Q288.6563,359.5781 288.0313,359.5781 Q286.6875,359.5781 286,360.6563 Q285.3125,361.7188 285.3125,363.8125 Q285.3125,365.9063 286,366.9844 Q286.6875,368.0469 288.0313,368.0469 Q288.6563,368.0469 289.25,367.7813 Q289.8438,367.5 290.4688,366.9219 L290.4688,369.6406 Z "/><text fill="#000000" font-family="sans-serif" font-size="12" lengthAdjust="spacingAndGlyphs" textLength="43" x="301.5" y="368.1807">Widget</text><!--MD5=[fd9483e2af3cd3396c3d202b8b4ff282]
class Gnome::Gtk3::IconView--><rect fill="#FEFECE" filter="url(#f1xalga3s96md2)" height="32" id="Gnome::Gtk3::IconView" style="stroke: #A80036; stroke-width: 1.5;" width="86" x="23" y="348"/><ellipse cx="38" cy="364" fill="#80FFFF" rx="11" ry="11" style="stroke: #A80036; stroke-width: 1.0;"/><path d="M40.9688,369.6406 Q40.3906,369.9375 39.75,370.0781 Q39.1094,370.2344 38.4063,370.2344 Q35.9063,370.2344 34.5781,368.5938 Q33.2656,366.9375 33.2656,363.8125 Q33.2656,360.6875 34.5781,359.0313 Q35.9063,357.375 38.4063,357.375 Q39.1094,357.375 39.75,357.5313 Q40.4063,357.6875 40.9688,357.9844 L40.9688,360.7031 Q40.3438,360.125 39.75,359.8594 Q39.1563,359.5781 38.5313,359.5781 Q37.1875,359.5781 36.5,360.6563 Q35.8125,361.7188 35.8125,363.8125 Q35.8125,365.9063 36.5,366.9844 Q37.1875,368.0469 38.5313,368.0469 Q39.1563,368.0469 39.75,367.7813 Q40.3438,367.5 40.9688,366.9219 L40.9688,369.6406 Z "/><text fill="#000000" font-family="sans-serif" font-size="12" lengthAdjust="spacingAndGlyphs" textLength="54" x="52" y="368.1807">IconView</text><!--MD5=[9e3cc955f682d05594420e46d2e4e3ea]
class Gnome::Gtk3::Container--><rect fill="#FEFECE" filter="url(#f1xalga3s96md2)" height="32" id="Gnome::Gtk3::Container" style="stroke: #A80036; stroke-width: 1.5;" width="93" x="144.5" y="348"/><ellipse cx="159.5" cy="364" fill="#80FFFF" rx="11" ry="11" style="stroke: #A80036; stroke-width: 1.0;"/><path d="M162.4688,369.6406 Q161.8906,369.9375 161.25,370.0781 Q160.6094,370.2344 159.9063,370.2344 Q157.4063,370.2344 156.0781,368.5938 Q154.7656,366.9375 154.7656,363.8125 Q154.7656,360.6875 156.0781,359.0313 Q157.4063,357.375 159.9063,357.375 Q160.6094,357.375 161.25,357.5313 Q161.9063,357.6875 162.4688,357.9844 L162.4688,360.7031 Q161.8438,360.125 161.25,359.8594 Q160.6563,359.5781 160.0313,359.5781 Q158.6875,359.5781 158,360.6563 Q157.3125,361.7188 157.3125,363.8125 Q157.3125,365.9063 158,366.9844 Q158.6875,368.0469 160.0313,368.0469 Q160.6563,368.0469 161.25,367.7813 Q161.8438,367.5 162.4688,366.9219 L162.4688,369.6406 Z "/><text fill="#000000" font-family="sans-serif" font-size="12" lengthAdjust="spacingAndGlyphs" textLength="61" x="173.5" y="368.1807">Container</text><!--MD5=[e23b679cf607d12ac81e9c5301595709]
reverse link Gnome::N::TopLevelClassSupport to Gnome::GObject::Object--><path codeLine="16" d="M339,94.1 C339,112.76 339,134.73 339,148.98 " fill="none" id="Gnome::N::TopLevelClassSupport-backto-Gnome::GObject::Object" style="stroke: #A80036; stroke-width: 1.0;"/><polygon fill="none" points="332,94.04,339,74.04,346,94.04,332,94.04" style="stroke: #A80036; stroke-width: 1.0;"/><!--MD5=[2e57c6084092ea441ae4a3f826779dd8]
reverse link Gnome::GObject::Object to Gnome::GObject::InitialyUnowned--><path codeLine="17" d="M327.84,200.63 C323.34,214.59 318.39,229.96 314.85,240.96 " fill="none" id="Gnome::GObject::Object-backto-Gnome::GObject::InitialyUnowned" style="stroke: #A80036; stroke-width: 1.0;"/><polygon fill="none" points="321.28,198.16,334.08,181.27,334.61,202.45,321.28,198.16" style="stroke: #A80036; stroke-width: 1.0;"/><!--MD5=[f8ffcf4587ba956cb48626a4231e4d21]
reverse link Gnome::GObject::Signal to Gnome::GObject::Object--><path codeLine="18" d="M287.77,165 C292.85,165 297.92,165 303,165 " fill="none" id="Gnome::GObject::Signal-backto-Gnome::GObject::Object" style="stroke: #A80036; stroke-width: 1.0; stroke-dasharray: 7.0,7.0;"/><polygon fill="none" points="287.56,172,267.56,165,287.56,158,287.56,172" style="stroke: #A80036; stroke-width: 1.0;"/><!--MD5=[aa49dbc803ccf1c2ef8546b297b1dcfd]
reverse link Gnome::GObject::InitialyUnowned to Gnome::Gtk3::Widget--><path codeLine="25" d="M310,293.1 C310,311.76 310,333.73 310,347.98 " fill="none" id="Gnome::GObject::InitialyUnowned-backto-Gnome::Gtk3::Widget" style="stroke: #A80036; stroke-width: 1.0;"/><polygon fill="none" points="303,293.04,310,273.04,317,293.04,303,293.04" style="stroke: #A80036; stroke-width: 1.0;"/><!--MD5=[e1568b3b4ceade3a3349f45f19b4c32a]
link Gnome::Gtk3::Widget to Gnome::Gtk3::Buildable--><path codeLine="26" d="M347.58,364 C352.64,364 357.71,364 362.78,364 " fill="none" id="Gnome::Gtk3::Widget-to-Gnome::Gtk3::Buildable" style="stroke: #A80036; stroke-width: 1.0; stroke-dasharray: 7.0,7.0;"/><polygon fill="none" points="362.95,357,382.95,364,362.95,371,362.95,357" style="stroke: #A80036; stroke-width: 1.0;"/><!--MD5=[c95df83482796ec90379c5894e2ee1a4]
link Gnome::Gtk3::IconView to Gnome::Gtk3::Container--><path codeLine="28" d="M109.46,364 C114.38,364 119.31,364 124.24,364 " fill="none" id="Gnome::Gtk3::IconView-to-Gnome::Gtk3::Container" style="stroke: #A80036; stroke-width: 1.0;"/><polygon fill="none" points="124.5,357,144.5,364,124.49,371,124.5,357" style="stroke: #A80036; stroke-width: 1.0;"/><!--MD5=[aaf476f5d2312b98d0ee61e81272172c]
link Gnome::Gtk3::Container to Gnome::Gtk3::Widget--><path codeLine="29" d="M237.95,364 C242.69,364 247.43,364 252.17,364 " fill="none" id="Gnome::Gtk3::Container-to-Gnome::Gtk3::Widget" style="stroke: #A80036; stroke-width: 1.0;"/><polygon fill="none" points="252.29,357,272.29,364,252.29,371,252.29,357" style="stroke: #A80036; stroke-width: 1.0;"/><!--MD5=[aae0c8491171b753ab11d03b00c69af7]
@startuml
'scale 0.9
skinparam packageStyle rectangle
skinparam stereotypeCBackgroundColor #80ffff
set namespaceSeparator ::
hide members

'Class and interface decorations
class Gnome::N::TopLevelClassSupport < Catch all class >

Interface Gnome::GObject::Signal <Interface>
class Gnome::GObject::Signal <<(R,#80ffff)>>

'class Gnome::GObject::InitialyUnowned
'class Gnome::GObject::Object
Gnome::N::TopLevelClassSupport <|- - Gnome::GObject::Object
Gnome::GObject::Object <|- - Gnome::GObject::InitialyUnowned
Gnome::GObject::Signal <|. Gnome::GObject::Object

Interface Gnome::Gtk3::Buildable <Interface>
class Gnome::Gtk3::Buildable <<(R,#80ffff)>>



Gnome::GObject::InitialyUnowned <|- - Gnome::Gtk3::Widget
Gnome::Gtk3::Widget .|> Gnome::Gtk3::Buildable

Gnome::Gtk3::IconView -|> Gnome::Gtk3::Container
Gnome::Gtk3::Container -|> Gnome::Gtk3::Widget
@enduml

@startuml
skinparam packageStyle rectangle
skinparam stereotypeCBackgroundColor #80ffff
set namespaceSeparator ::
hide members

class Gnome::N::TopLevelClassSupport < Catch all class >

Interface Gnome::GObject::Signal <Interface>
class Gnome::GObject::Signal <<(R,#80ffff)>>

Gnome::N::TopLevelClassSupport <|- - Gnome::GObject::Object
Gnome::GObject::Object <|- - Gnome::GObject::InitialyUnowned
Gnome::GObject::Signal <|. Gnome::GObject::Object

Interface Gnome::Gtk3::Buildable <Interface>
class Gnome::Gtk3::Buildable <<(R,#80ffff)>>



Gnome::GObject::InitialyUnowned <|- - Gnome::Gtk3::Widget
Gnome::Gtk3::Widget .|> Gnome::Gtk3::Buildable

Gnome::Gtk3::IconView -|> Gnome::Gtk3::Container
Gnome::Gtk3::Container -|> Gnome::Gtk3::Widget
@enduml

PlantUML version 1.2020.19(Mon Oct 12 17:10:01 CEST 2020)
(GPL source distribution)
Java Runtime: OpenJDK Runtime Environment
JVM: OpenJDK 64-Bit Server VM
Default Encoding: UTF-8
Language: en
Country: null
--></g></svg>