<?xml version="1.0" encoding="UTF-8" standalone="no"?><svg xmlns="http://www.w3.org/2000/svg" xmlns:xlink="http://www.w3.org/1999/xlink" contentScriptType="application/ecmascript" contentStyleType="text/css" height="278px" preserveAspectRatio="none" style="width:477px;height:278px;" version="1.1" viewBox="0 0 477 278" width="477px" zoomAndPan="magnify"><defs><filter height="300%" id="f1au6k0lowpqeq" width="300%" x="-1" y="-1"><feGaussianBlur result="blurOut" stdDeviation="2.0"/><feColorMatrix in="blurOut" result="blurOut2" type="matrix" values="0 0 0 0 0 0 0 0 0 0 0 0 0 0 0 0 0 0 .4 0"/><feOffset dx="4.0" dy="4.0" in="blurOut2" result="blurOut3"/><feBlend in="SourceGraphic" in2="blurOut3" mode="normal"/></filter></defs><g><!--cluster Gnome::GObject--><rect fill="#FFFFFF" filter="url(#f1au6k0lowpqeq)" height="159" style="stroke: #000000; stroke-width: 1.5;" width="148" x="14" y="16"/><text fill="#000000" font-family="sans-serif" font-size="14" font-weight="bold" lengthAdjust="spacingAndGlyphs" textLength="131" x="22.5" y="30.9951">Gnome::GObject</text><!--cluster Gnome::N--><rect fill="#FFFFFF" filter="url(#f1au6k0lowpqeq)" height="67" style="stroke: #000000; stroke-width: 1.5;" width="286" x="180" y="16"/><text fill="#000000" font-family="sans-serif" font-size="14" font-weight="bold" lengthAdjust="spacingAndGlyphs" textLength="79" x="283.5" y="30.9951">Gnome::N</text><!--cluster Gnome::Gtk3--><rect fill="#FFFFFF" filter="url(#f1au6k0lowpqeq)" height="67" style="stroke: #000000; stroke-width: 1.5;" width="121" x="43" y="200"/><text fill="#000000" font-family="sans-serif" font-size="14" font-weight="bold" lengthAdjust="spacingAndGlyphs" textLength="105" x="51" y="214.9951">Gnome::Gtk3</text><!--class Gnome::GObject::Signal--><rect fill="#FEFECE" filter="url(#f1au6k0lowpqeq)" height="32" id="Gnome::GObject::Signal" style="stroke: #A80036; stroke-width: 1.5;" width="131" x="22.5" y="43"/><ellipse cx="37.5" cy="59" fill="#80FFFF" rx="11" ry="11" style="stroke: #A80036; stroke-width: 1.0;"/><path d="M38.7031,59.1406 Q39.0625,59.2188 39.3281,59.5 Q39.6094,59.7656 40,60.5469 L42.2344,65 L39.5469,65 L38.0469,61.875 Q37.9844,61.7344 37.875,61.5 Q37.2188,60.1094 36.3281,60.1094 L35.5469,60.1094 L35.5469,65 L33.1094,65 L33.1094,52.6094 L36.6406,52.6094 Q39.0313,52.6094 40.0625,53.4531 Q41.1094,54.2969 41.1094,56.2031 Q41.1094,57.4844 40.4844,58.25 Q39.875,59 38.7031,59.1406 Z M35.5469,54.6719 L35.5469,58.0469 L36.7031,58.0469 Q37.7188,58.0469 38.1406,57.6563 Q38.5781,57.25 38.5781,56.3438 Q38.5781,55.4531 38.1406,55.0625 Q37.7188,54.6719 36.7031,54.6719 L35.5469,54.6719 Z "/><text fill="#000000" font-family="sans-serif" font-size="12" lengthAdjust="spacingAndGlyphs" textLength="38" x="51.5" y="63.1807">Signal</text><rect fill="#FFFFFF" height="15.9688" style="stroke: #000000; stroke-width: 1.0; stroke-dasharray: 2.0,2.0;" width="59" x="97.5" y="40"/><text fill="#000000" font-family="sans-serif" font-size="12" font-style="italic" lengthAdjust="spacingAndGlyphs" textLength="57" x="98.5" y="52.1387">Interface</text><!--class Gnome::GObject::Object--><rect fill="#FEFECE" filter="url(#f1au6k0lowpqeq)" height="32" id="Gnome::GObject::Object" style="stroke: #A80036; stroke-width: 1.5;" width="72" x="67" y="135"/><ellipse cx="82" cy="151" fill="#80FFFF" rx="11" ry="11" style="stroke: #A80036; stroke-width: 1.0;"/><path d="M84.9688,156.6406 Q84.3906,156.9375 83.75,157.0781 Q83.1094,157.2344 82.4063,157.2344 Q79.9063,157.2344 78.5781,155.5938 Q77.2656,153.9375 77.2656,150.8125 Q77.2656,147.6875 78.5781,146.0313 Q79.9063,144.375 82.4063,144.375 Q83.1094,144.375 83.75,144.5313 Q84.4063,144.6875 84.9688,144.9844 L84.9688,147.7031 Q84.3438,147.125 83.75,146.8594 Q83.1563,146.5781 82.5313,146.5781 Q81.1875,146.5781 80.5,147.6563 Q79.8125,148.7188 79.8125,150.8125 Q79.8125,152.9063 80.5,153.9844 Q81.1875,155.0469 82.5313,155.0469 Q83.1563,155.0469 83.75,154.7813 Q84.3438,154.5 84.9688,153.9219 L84.9688,156.6406 Z "/><text fill="#000000" font-family="sans-serif" font-size="12" lengthAdjust="spacingAndGlyphs" textLength="40" x="96" y="155.1807">Object</text><!--class Gnome::N::TopLevelClassSupport--><rect fill="#FEFECE" filter="url(#f1au6k0lowpqeq)" height="32" id="Gnome::N::TopLevelClassSupport" style="stroke: #A80036; stroke-width: 1.5;" width="269" x="188.5" y="43"/><ellipse cx="203.5" cy="59" fill="#80FFFF" rx="11" ry="11" style="stroke: #A80036; stroke-width: 1.0;"/><path d="M206.4688,64.6406 Q205.8906,64.9375 205.25,65.0781 Q204.6094,65.2344 203.9063,65.2344 Q201.4063,65.2344 200.0781,63.5938 Q198.7656,61.9375 198.7656,58.8125 Q198.7656,55.6875 200.0781,54.0313 Q201.4063,52.375 203.9063,52.375 Q204.6094,52.375 205.25,52.5313 Q205.9063,52.6875 206.4688,52.9844 L206.4688,55.7031 Q205.8438,55.125 205.25,54.8594 Q204.6563,54.5781 204.0313,54.5781 Q202.6875,54.5781 202,55.6563 Q201.3125,56.7188 201.3125,58.8125 Q201.3125,60.9063 202,61.9844 Q202.6875,63.0469 204.0313,63.0469 Q204.6563,63.0469 205.25,62.7813 Q205.8438,62.5 206.4688,61.9219 L206.4688,64.6406 Z "/><text fill="#000000" font-family="sans-serif" font-size="12" lengthAdjust="spacingAndGlyphs" textLength="137" x="217.5" y="63.1807">TopLevelClassSupport</text><rect fill="#FFFFFF" height="15.9688" style="stroke: #000000; stroke-width: 1.0; stroke-dasharray: 2.0,2.0;" width="98" x="362.5" y="40"/><text fill="#000000" font-family="sans-serif" font-size="12" font-style="italic" lengthAdjust="spacingAndGlyphs" textLength="88" x="367.5" y="52.1387">Catch all class</text><!--class Gnome::Gtk3::IconTheme--><rect fill="#FEFECE" filter="url(#f1au6k0lowpqeq)" height="32" id="Gnome::Gtk3::IconTheme" style="stroke: #A80036; stroke-width: 1.5;" width="100" x="53" y="227"/><ellipse cx="68" cy="243" fill="#80FFFF" rx="11" ry="11" style="stroke: #A80036; stroke-width: 1.0;"/><path d="M70.9688,248.6406 Q70.3906,248.9375 69.75,249.0781 Q69.1094,249.2344 68.4063,249.2344 Q65.9063,249.2344 64.5781,247.5938 Q63.2656,245.9375 63.2656,242.8125 Q63.2656,239.6875 64.5781,238.0313 Q65.9063,236.375 68.4063,236.375 Q69.1094,236.375 69.75,236.5313 Q70.4063,236.6875 70.9688,236.9844 L70.9688,239.7031 Q70.3438,239.125 69.75,238.8594 Q69.1563,238.5781 68.5313,238.5781 Q67.1875,238.5781 66.5,239.6563 Q65.8125,240.7188 65.8125,242.8125 Q65.8125,244.9063 66.5,245.9844 Q67.1875,247.0469 68.5313,247.0469 Q69.1563,247.0469 69.75,246.7813 Q70.3438,246.5 70.9688,245.9219 L70.9688,248.6406 Z "/><text fill="#000000" font-family="sans-serif" font-size="12" lengthAdjust="spacingAndGlyphs" textLength="68" x="82" y="247.1807">IconTheme</text><!--link Gnome::N::TopLevelClassSupport to Gnome::GObject::Object--><path d="M266.1217,82.7855 C226.0202,99.5552 173.5232,121.5085 139.0591,135.9207 " fill="none" id="Gnome::N::TopLevelClassSupport-Gnome::GObject::Object" style="stroke: #A80036; stroke-width: 1.0;"/><polygon fill="none" points="263.5267,76.2833,284.6789,75.0252,268.928,89.1994,263.5267,76.2833" style="stroke: #A80036; stroke-width: 1.0;"/><!--link Gnome::GObject::Object to Gnome::Gtk3::IconTheme--><path d="M103,187.4048 C103,201.0788 103,215.9368 103,226.8498 " fill="none" id="Gnome::GObject::Object-Gnome::Gtk3::IconTheme" style="stroke: #A80036; stroke-width: 1.0;"/><polygon fill="none" points="96.0001,187.0252,103,167.0252,110.0001,187.0251,96.0001,187.0252" style="stroke: #A80036; stroke-width: 1.0;"/><!--link Gnome::GObject::Signal to Gnome::GObject::Object--><path d="M93.8551,94.911 C96.1066,108.7202 98.5661,123.8053 100.3668,134.8498 " fill="none" id="Gnome::GObject::Signal-Gnome::GObject::Object" style="stroke: #A80036; stroke-width: 1.0; stroke-dasharray: 7.0,7.0;"/><polygon fill="none" points="86.9225,95.891,90.6128,75.0252,100.74,93.6381,86.9225,95.891" style="stroke: #A80036; stroke-width: 1.0;"/><!--
@startuml
skinparam packageStyle rectangle
skinparam stereotypeCBackgroundColor #80ffff
set namespaceSeparator ::
hide members


Interface Gnome::GObject::Signal <Interface>
class Gnome::GObject::Signal <<(R,#80ffff)>>

class Gnome::N::TopLevelClassSupport < Catch all class >
Gnome::N::TopLevelClassSupport <|- - Gnome::GObject::Object

Gnome::GObject::Object <|- - Gnome::Gtk3::IconTheme
Gnome::GObject::Signal <|.. Gnome::GObject::Object
@enduml

PlantUML version 1.2019.01(Sat Feb 09 16:32:04 CET 2019)
(LGPL source distribution)
Java Runtime: OpenJDK Runtime Environment
JVM: OpenJDK 64-Bit Server VM
Java Version: 1.8.0_265-b01
Operating System: Linux
OS Version: 5.8.8-100.fc31.x86_64
Default Encoding: UTF-8
Language: en
Country: null
--></g></svg>