<?xml version="1.0" encoding="UTF-8" standalone="no"?><svg xmlns="http://www.w3.org/2000/svg" xmlns:xlink="http://www.w3.org/1999/xlink" contentScriptType="application/ecmascript" contentStyleType="text/css" height="554px" preserveAspectRatio="none" style="width:627px;height:554px;" version="1.1" viewBox="0 0 627 554" width="627px" zoomAndPan="magnify"><defs><filter height="300%" id="fn4408q81bzce" width="300%" x="-1" y="-1"><feGaussianBlur result="blurOut" stdDeviation="2.0"/><feColorMatrix in="blurOut" result="blurOut2" type="matrix" values="0 0 0 0 0 0 0 0 0 0 0 0 0 0 0 0 0 0 .4 0"/><feOffset dx="4.0" dy="4.0" in="blurOut2" result="blurOut3"/><feBlend in="SourceGraphic" in2="blurOut3" mode="normal"/></filter></defs><g><!--cluster Gnome::N--><rect fill="#FFFFFF" filter="url(#fn4408q81bzce)" height="67" style="stroke: #000000; stroke-width: 1.5;" width="286" x="330" y="16"/><text fill="#000000" font-family="sans-serif" font-size="14" font-weight="bold" lengthAdjust="spacingAndGlyphs" textLength="79" x="433.5" y="30.9951">Gnome::N</text><!--cluster Gnome::GObject--><rect fill="#FFFFFF" filter="url(#fn4408q81bzce)" height="251" style="stroke: #000000; stroke-width: 1.5;" width="148" x="280" y="108"/><text fill="#000000" font-family="sans-serif" font-size="14" font-weight="bold" lengthAdjust="spacingAndGlyphs" textLength="131" x="288.5" y="122.9951">Gnome::GObject</text><!--cluster Gnome::Gtk3--><rect fill="#FFFFFF" filter="url(#fn4408q81bzce)" height="159" style="stroke: #000000; stroke-width: 1.5;" width="341" x="14" y="384"/><text fill="#000000" font-family="sans-serif" font-size="14" font-weight="bold" lengthAdjust="spacingAndGlyphs" textLength="105" x="132" y="398.9951">Gnome::Gtk3</text><!--class Gnome::N::TopLevelClassSupport--><rect fill="#FEFECE" filter="url(#fn4408q81bzce)" height="32" id="Gnome::N::TopLevelClassSupport" style="stroke: #A80036; stroke-width: 1.5;" width="269" x="338.5" y="43"/><ellipse cx="353.5" cy="59" fill="#80FFFF" rx="11" ry="11" style="stroke: #A80036; stroke-width: 1.0;"/><path d="M356.4688,64.6406 Q355.8906,64.9375 355.25,65.0781 Q354.6094,65.2344 353.9063,65.2344 Q351.4063,65.2344 350.0781,63.5938 Q348.7656,61.9375 348.7656,58.8125 Q348.7656,55.6875 350.0781,54.0313 Q351.4063,52.375 353.9063,52.375 Q354.6094,52.375 355.25,52.5313 Q355.9063,52.6875 356.4688,52.9844 L356.4688,55.7031 Q355.8438,55.125 355.25,54.8594 Q354.6563,54.5781 354.0313,54.5781 Q352.6875,54.5781 352,55.6563 Q351.3125,56.7188 351.3125,58.8125 Q351.3125,60.9063 352,61.9844 Q352.6875,63.0469 354.0313,63.0469 Q354.6563,63.0469 355.25,62.7813 Q355.8438,62.5 356.4688,61.9219 L356.4688,64.6406 Z "/><text fill="#000000" font-family="sans-serif" font-size="12" lengthAdjust="spacingAndGlyphs" textLength="137" x="367.5" y="63.1807">TopLevelClassSupport</text><rect fill="#FFFFFF" height="15.9688" style="stroke: #000000; stroke-width: 1.0; stroke-dasharray: 2.0,2.0;" width="98" x="512.5" y="40"/><text fill="#000000" font-family="sans-serif" font-size="12" font-style="italic" lengthAdjust="spacingAndGlyphs" textLength="88" x="517.5" y="52.1387">Catch all class</text><!--class Gnome::GObject::Signal--><rect fill="#FEFECE" filter="url(#fn4408q81bzce)" height="32" id="Gnome::GObject::Signal" style="stroke: #A80036; stroke-width: 1.5;" width="131" x="288.5" y="135"/><ellipse cx="303.5" cy="151" fill="#80FFFF" rx="11" ry="11" style="stroke: #A80036; stroke-width: 1.0;"/><path d="M304.7031,151.1406 Q305.0625,151.2188 305.3281,151.5 Q305.6094,151.7656 306,152.5469 L308.2344,157 L305.5469,157 L304.0469,153.875 Q303.9844,153.7344 303.875,153.5 Q303.2188,152.1094 302.3281,152.1094 L301.5469,152.1094 L301.5469,157 L299.1094,157 L299.1094,144.6094 L302.6406,144.6094 Q305.0313,144.6094 306.0625,145.4531 Q307.1094,146.2969 307.1094,148.2031 Q307.1094,149.4844 306.4844,150.25 Q305.875,151 304.7031,151.1406 Z M301.5469,146.6719 L301.5469,150.0469 L302.7031,150.0469 Q303.7188,150.0469 304.1406,149.6563 Q304.5781,149.25 304.5781,148.3438 Q304.5781,147.4531 304.1406,147.0625 Q303.7188,146.6719 302.7031,146.6719 L301.5469,146.6719 Z "/><text fill="#000000" font-family="sans-serif" font-size="12" lengthAdjust="spacingAndGlyphs" textLength="38" x="317.5" y="155.1807">Signal</text><rect fill="#FFFFFF" height="15.9688" style="stroke: #000000; stroke-width: 1.0; stroke-dasharray: 2.0,2.0;" width="59" x="363.5" y="132"/><text fill="#000000" font-family="sans-serif" font-size="12" font-style="italic" lengthAdjust="spacingAndGlyphs" textLength="57" x="364.5" y="144.1387">Interface</text><!--class Gnome::GObject::Object--><rect fill="#FEFECE" filter="url(#fn4408q81bzce)" height="32" id="Gnome::GObject::Object" style="stroke: #A80036; stroke-width: 1.5;" width="72" x="318" y="227"/><ellipse cx="333" cy="243" fill="#80FFFF" rx="11" ry="11" style="stroke: #A80036; stroke-width: 1.0;"/><path d="M335.9688,248.6406 Q335.3906,248.9375 334.75,249.0781 Q334.1094,249.2344 333.4063,249.2344 Q330.9063,249.2344 329.5781,247.5938 Q328.2656,245.9375 328.2656,242.8125 Q328.2656,239.6875 329.5781,238.0313 Q330.9063,236.375 333.4063,236.375 Q334.1094,236.375 334.75,236.5313 Q335.4063,236.6875 335.9688,236.9844 L335.9688,239.7031 Q335.3438,239.125 334.75,238.8594 Q334.1563,238.5781 333.5313,238.5781 Q332.1875,238.5781 331.5,239.6563 Q330.8125,240.7188 330.8125,242.8125 Q330.8125,244.9063 331.5,245.9844 Q332.1875,247.0469 333.5313,247.0469 Q334.1563,247.0469 334.75,246.7813 Q335.3438,246.5 335.9688,245.9219 L335.9688,248.6406 Z "/><text fill="#000000" font-family="sans-serif" font-size="12" lengthAdjust="spacingAndGlyphs" textLength="40" x="347" y="247.1807">Object</text><!--class Gnome::GObject::InitialyUnowned--><rect fill="#FEFECE" filter="url(#fn4408q81bzce)" height="32" id="Gnome::GObject::InitialyUnowned" style="stroke: #A80036; stroke-width: 1.5;" width="129" x="289.5" y="319"/><ellipse cx="304.5" cy="335" fill="#80FFFF" rx="11" ry="11" style="stroke: #A80036; stroke-width: 1.0;"/><path d="M307.4688,340.6406 Q306.8906,340.9375 306.25,341.0781 Q305.6094,341.2344 304.9063,341.2344 Q302.4063,341.2344 301.0781,339.5938 Q299.7656,337.9375 299.7656,334.8125 Q299.7656,331.6875 301.0781,330.0313 Q302.4063,328.375 304.9063,328.375 Q305.6094,328.375 306.25,328.5313 Q306.9063,328.6875 307.4688,328.9844 L307.4688,331.7031 Q306.8438,331.125 306.25,330.8594 Q305.6563,330.5781 305.0313,330.5781 Q303.6875,330.5781 303,331.6563 Q302.3125,332.7188 302.3125,334.8125 Q302.3125,336.9063 303,337.9844 Q303.6875,339.0469 305.0313,339.0469 Q305.6563,339.0469 306.25,338.7813 Q306.8438,338.5 307.4688,337.9219 L307.4688,340.6406 Z "/><text fill="#000000" font-family="sans-serif" font-size="12" lengthAdjust="spacingAndGlyphs" textLength="97" x="318.5" y="339.1807">InitialyUnowned</text><!--class Gnome::Gtk3::Buildable--><rect fill="#FEFECE" filter="url(#fn4408q81bzce)" height="32" id="Gnome::Gtk3::Buildable" style="stroke: #A80036; stroke-width: 1.5;" width="150" x="151" y="411"/><ellipse cx="166" cy="427" fill="#80FFFF" rx="11" ry="11" style="stroke: #A80036; stroke-width: 1.0;"/><path d="M167.2031,427.1406 Q167.5625,427.2188 167.8281,427.5 Q168.1094,427.7656 168.5,428.5469 L170.7344,433 L168.0469,433 L166.5469,429.875 Q166.4844,429.7344 166.375,429.5 Q165.7188,428.1094 164.8281,428.1094 L164.0469,428.1094 L164.0469,433 L161.6094,433 L161.6094,420.6094 L165.1406,420.6094 Q167.5313,420.6094 168.5625,421.4531 Q169.6094,422.2969 169.6094,424.2031 Q169.6094,425.4844 168.9844,426.25 Q168.375,427 167.2031,427.1406 Z M164.0469,422.6719 L164.0469,426.0469 L165.2031,426.0469 Q166.2188,426.0469 166.6406,425.6563 Q167.0781,425.25 167.0781,424.3438 Q167.0781,423.4531 166.6406,423.0625 Q166.2188,422.6719 165.2031,422.6719 L164.0469,422.6719 Z "/><text fill="#000000" font-family="sans-serif" font-size="12" lengthAdjust="spacingAndGlyphs" textLength="57" x="180" y="431.1807">Buildable</text><rect fill="#FFFFFF" height="15.9688" style="stroke: #000000; stroke-width: 1.0; stroke-dasharray: 2.0,2.0;" width="59" x="245" y="408"/><text fill="#000000" font-family="sans-serif" font-size="12" font-style="italic" lengthAdjust="spacingAndGlyphs" textLength="57" x="246" y="420.1387">Interface</text><!--class Gnome::Gtk3::Widget--><rect fill="#FEFECE" filter="url(#fn4408q81bzce)" height="32" id="Gnome::Gtk3::Widget" style="stroke: #A80036; stroke-width: 1.5;" width="75" x="271.5" y="503"/><ellipse cx="286.5" cy="519" fill="#80FFFF" rx="11" ry="11" style="stroke: #A80036; stroke-width: 1.0;"/><path d="M289.4688,524.6406 Q288.8906,524.9375 288.25,525.0781 Q287.6094,525.2344 286.9063,525.2344 Q284.4063,525.2344 283.0781,523.5938 Q281.7656,521.9375 281.7656,518.8125 Q281.7656,515.6875 283.0781,514.0313 Q284.4063,512.375 286.9063,512.375 Q287.6094,512.375 288.25,512.5313 Q288.9063,512.6875 289.4688,512.9844 L289.4688,515.7031 Q288.8438,515.125 288.25,514.8594 Q287.6563,514.5781 287.0313,514.5781 Q285.6875,514.5781 285,515.6563 Q284.3125,516.7188 284.3125,518.8125 Q284.3125,520.9063 285,521.9844 Q285.6875,523.0469 287.0313,523.0469 Q287.6563,523.0469 288.25,522.7813 Q288.8438,522.5 289.4688,521.9219 L289.4688,524.6406 Z "/><text fill="#000000" font-family="sans-serif" font-size="12" lengthAdjust="spacingAndGlyphs" textLength="43" x="300.5" y="523.1807">Widget</text><!--class Gnome::Gtk3::IconView--><rect fill="#FEFECE" filter="url(#fn4408q81bzce)" height="32" id="Gnome::Gtk3::IconView" style="stroke: #A80036; stroke-width: 1.5;" width="86" x="22" y="503"/><ellipse cx="37" cy="519" fill="#80FFFF" rx="11" ry="11" style="stroke: #A80036; stroke-width: 1.0;"/><path d="M39.9688,524.6406 Q39.3906,524.9375 38.75,525.0781 Q38.1094,525.2344 37.4063,525.2344 Q34.9063,525.2344 33.5781,523.5938 Q32.2656,521.9375 32.2656,518.8125 Q32.2656,515.6875 33.5781,514.0313 Q34.9063,512.375 37.4063,512.375 Q38.1094,512.375 38.75,512.5313 Q39.4063,512.6875 39.9688,512.9844 L39.9688,515.7031 Q39.3438,515.125 38.75,514.8594 Q38.1563,514.5781 37.5313,514.5781 Q36.1875,514.5781 35.5,515.6563 Q34.8125,516.7188 34.8125,518.8125 Q34.8125,520.9063 35.5,521.9844 Q36.1875,523.0469 37.5313,523.0469 Q38.1563,523.0469 38.75,522.7813 Q39.3438,522.5 39.9688,521.9219 L39.9688,524.6406 Z "/><text fill="#000000" font-family="sans-serif" font-size="12" lengthAdjust="spacingAndGlyphs" textLength="54" x="51" y="523.1807">IconView</text><!--class Gnome::Gtk3::Container--><rect fill="#FEFECE" filter="url(#fn4408q81bzce)" height="32" id="Gnome::Gtk3::Container" style="stroke: #A80036; stroke-width: 1.5;" width="93" x="143.5" y="503"/><ellipse cx="158.5" cy="519" fill="#80FFFF" rx="11" ry="11" style="stroke: #A80036; stroke-width: 1.0;"/><path d="M161.4688,524.6406 Q160.8906,524.9375 160.25,525.0781 Q159.6094,525.2344 158.9063,525.2344 Q156.4063,525.2344 155.0781,523.5938 Q153.7656,521.9375 153.7656,518.8125 Q153.7656,515.6875 155.0781,514.0313 Q156.4063,512.375 158.9063,512.375 Q159.6094,512.375 160.25,512.5313 Q160.9063,512.6875 161.4688,512.9844 L161.4688,515.7031 Q160.8438,515.125 160.25,514.8594 Q159.6563,514.5781 159.0313,514.5781 Q157.6875,514.5781 157,515.6563 Q156.3125,516.7188 156.3125,518.8125 Q156.3125,520.9063 157,521.9844 Q157.6875,523.0469 159.0313,523.0469 Q159.6563,523.0469 160.25,522.7813 Q160.8438,522.5 161.4688,521.9219 L161.4688,524.6406 Z "/><text fill="#000000" font-family="sans-serif" font-size="12" lengthAdjust="spacingAndGlyphs" textLength="61" x="172.5" y="523.1807">Container</text><!--link Gnome::N::TopLevelClassSupport to Gnome::GObject::Object--><path d="M465.9322,94.6906 C460.4316,116.7659 451.2812,144.9903 437,167 C421.2604,191.2573 395.9788,212.8684 377.4487,226.7856 " fill="none" id="Gnome::N::TopLevelClassSupport-Gnome::GObject::Object" style="stroke: #A80036; stroke-width: 1.0;"/><polygon fill="none" points="459.1074,93.1333,470.271,75.1229,472.7754,96.164,459.1074,93.1333" style="stroke: #A80036; stroke-width: 1.0;"/><!--link Gnome::GObject::Object to Gnome::GObject::InitialyUnowned--><path d="M354,279.4048 C354,293.0788 354,307.9368 354,318.8498 " fill="none" id="Gnome::GObject::Object-Gnome::GObject::InitialyUnowned" style="stroke: #A80036; stroke-width: 1.0;"/><polygon fill="none" points="347.0001,279.0252,354,259.0252,361.0001,279.0251,347.0001,279.0252" style="stroke: #A80036; stroke-width: 1.0;"/><!--link Gnome::GObject::Signal to Gnome::GObject::Object--><path d="M354,187.4048 C354,201.0788 354,215.9368 354,226.8498 " fill="none" id="Gnome::GObject::Signal-Gnome::GObject::Object" style="stroke: #A80036; stroke-width: 1.0; stroke-dasharray: 7.0,7.0;"/><polygon fill="none" points="347.0001,187.0252,354,167.0252,361.0001,187.0251,347.0001,187.0252" style="stroke: #A80036; stroke-width: 1.0;"/><!--link Gnome::GObject::InitialyUnowned to Gnome::Gtk3::Widget--><path d="M345.2672,370.7074 C335.5029,410.6327 320.1194,473.534 312.9377,502.8991 " fill="none" id="Gnome::GObject::InitialyUnowned-Gnome::Gtk3::Widget" style="stroke: #A80036; stroke-width: 1.0;"/><polygon fill="none" points="338.5343,368.7714,350.0853,351.0069,352.1335,372.0973,338.5343,368.7714" style="stroke: #A80036; stroke-width: 1.0;"/><!--link Gnome::Gtk3::Buildable to Gnome::Gtk3::Widget--><path d="M254.0057,458.0424 C267.5643,473.0713 283.2795,490.4905 294.4297,502.8498 " fill="none" id="Gnome::Gtk3::Buildable-Gnome::Gtk3::Widget" style="stroke: #A80036; stroke-width: 1.0; stroke-dasharray: 7.0,7.0;"/><polygon fill="none" points="248.6572,462.564,240.4575,443.0252,259.0521,453.186,248.6572,462.564" style="stroke: #A80036; stroke-width: 1.0;"/><!--link Gnome::Gtk3::IconView to Gnome::Gtk3::Container--><path d="M108.457,519 C113.3842,519 118.3115,519 123.2387,519 " fill="none" id="Gnome::Gtk3::IconView-Gnome::Gtk3::Container" style="stroke: #A80036; stroke-width: 1.0;"/><polygon fill="none" points="123.4951,511.9999,143.495,519,123.495,525.9999,123.4951,511.9999" style="stroke: #A80036; stroke-width: 1.0;"/><!--link Gnome::Gtk3::Container to Gnome::Gtk3::Widget--><path d="M236.9492,519 C241.6884,519 246.4276,519 251.1668,519 " fill="none" id="Gnome::Gtk3::Container-Gnome::Gtk3::Widget" style="stroke: #A80036; stroke-width: 1.0;"/><polygon fill="none" points="251.286,511.9999,271.2859,519,251.2859,525.9999,251.286,511.9999" style="stroke: #A80036; stroke-width: 1.0;"/><!--
@startuml
skinparam packageStyle rectangle
skinparam stereotypeCBackgroundColor #80ffff
set namespaceSeparator ::
hide members

class Gnome::N::TopLevelClassSupport < Catch all class >

Interface Gnome::GObject::Signal <Interface>
class Gnome::GObject::Signal <<(R,#80ffff)>>

Gnome::N::TopLevelClassSupport <|- - - Gnome::GObject::Object
Gnome::GObject::Object <|- - Gnome::GObject::InitialyUnowned
Gnome::GObject::Signal <|.. Gnome::GObject::Object

Interface Gnome::Gtk3::Buildable <Interface>
class Gnome::Gtk3::Buildable <<(R,#80ffff)>>



Gnome::GObject::InitialyUnowned <|- - - Gnome::Gtk3::Widget
class Gnome::Gtk3::Widget implements Gnome::Gtk3::Buildable

Gnome::Gtk3::IconView -|> Gnome::Gtk3::Container
Gnome::Gtk3::Container -|> Gnome::Gtk3::Widget










@enduml

PlantUML version 1.2019.01(Sat Feb 09 16:32:04 CET 2019)
(LGPL source distribution)
Java Runtime: OpenJDK Runtime Environment
JVM: OpenJDK 64-Bit Server VM
Java Version: 1.8.0_265-b01
Operating System: Linux
OS Version: 5.8.8-100.fc31.x86_64
Default Encoding: UTF-8
Language: en
Country: null
--></g></svg>