<?xml version="1.0" encoding="UTF-8" standalone="no"?><svg xmlns="http://www.w3.org/2000/svg" xmlns:xlink="http://www.w3.org/1999/xlink" contentScriptType="application/ecmascript" contentStyleType="text/css" height="462px" preserveAspectRatio="none" style="width:485px;height:462px;" version="1.1" viewBox="0 0 485 462" width="485px" zoomAndPan="magnify"><defs><filter height="300%" id="frxa99k6rj66w" width="300%" x="-1" y="-1"><feGaussianBlur result="blurOut" stdDeviation="2.0"/><feColorMatrix in="blurOut" result="blurOut2" type="matrix" values="0 0 0 0 0 0 0 0 0 0 0 0 0 0 0 0 0 0 .4 0"/><feOffset dx="4.0" dy="4.0" in="blurOut2" result="blurOut3"/><feBlend in="SourceGraphic" in2="blurOut3" mode="normal"/></filter></defs><g><!--cluster Gnome::N--><rect fill="#FFFFFF" filter="url(#frxa99k6rj66w)" height="67" style="stroke: #000000; stroke-width: 1.5;" width="286" x="182" y="16"/><text fill="#000000" font-family="sans-serif" font-size="14" font-weight="bold" lengthAdjust="spacingAndGlyphs" textLength="79" x="285.5" y="30.9951">Gnome::N</text><!--cluster Gnome::GObject--><rect fill="#FFFFFF" filter="url(#frxa99k6rj66w)" height="159" style="stroke: #000000; stroke-width: 1.5;" width="193" x="281" y="108"/><text fill="#000000" font-family="sans-serif" font-size="14" font-weight="bold" lengthAdjust="spacingAndGlyphs" textLength="131" x="312" y="122.9951">Gnome::GObject</text><!--cluster Gnome::Gtk3--><rect fill="#FFFFFF" filter="url(#frxa99k6rj66w)" height="159" style="stroke: #000000; stroke-width: 1.5;" width="341" x="14" y="292"/><text fill="#000000" font-family="sans-serif" font-size="14" font-weight="bold" lengthAdjust="spacingAndGlyphs" textLength="105" x="132" y="306.9951">Gnome::Gtk3</text><!--class Gnome::N::TopLevelClassSupport--><rect fill="#FEFECE" filter="url(#frxa99k6rj66w)" height="32" id="Gnome::N::TopLevelClassSupport" style="stroke: #A80036; stroke-width: 1.5;" width="269" x="190.5" y="43"/><ellipse cx="205.5" cy="59" fill="#80FFFF" rx="11" ry="11" style="stroke: #A80036; stroke-width: 1.0;"/><path d="M208.4688,64.6406 Q207.8906,64.9375 207.25,65.0781 Q206.6094,65.2344 205.9063,65.2344 Q203.4063,65.2344 202.0781,63.5938 Q200.7656,61.9375 200.7656,58.8125 Q200.7656,55.6875 202.0781,54.0313 Q203.4063,52.375 205.9063,52.375 Q206.6094,52.375 207.25,52.5313 Q207.9063,52.6875 208.4688,52.9844 L208.4688,55.7031 Q207.8438,55.125 207.25,54.8594 Q206.6563,54.5781 206.0313,54.5781 Q204.6875,54.5781 204,55.6563 Q203.3125,56.7188 203.3125,58.8125 Q203.3125,60.9063 204,61.9844 Q204.6875,63.0469 206.0313,63.0469 Q206.6563,63.0469 207.25,62.7813 Q207.8438,62.5 208.4688,61.9219 L208.4688,64.6406 Z "/><text fill="#000000" font-family="sans-serif" font-size="12" lengthAdjust="spacingAndGlyphs" textLength="137" x="219.5" y="63.1807">TopLevelClassSupport</text><rect fill="#FFFFFF" height="15.9688" style="stroke: #000000; stroke-width: 1.0; stroke-dasharray: 2.0,2.0;" width="98" x="364.5" y="40"/><text fill="#000000" font-family="sans-serif" font-size="12" font-style="italic" lengthAdjust="spacingAndGlyphs" textLength="88" x="369.5" y="52.1387">Catch all class</text><!--class Gnome::GObject::Object--><rect fill="#FEFECE" filter="url(#frxa99k6rj66w)" height="32" id="Gnome::GObject::Object" style="stroke: #A80036; stroke-width: 1.5;" width="72" x="289" y="135"/><ellipse cx="304" cy="151" fill="#80FFFF" rx="11" ry="11" style="stroke: #A80036; stroke-width: 1.0;"/><path d="M306.9688,156.6406 Q306.3906,156.9375 305.75,157.0781 Q305.1094,157.2344 304.4063,157.2344 Q301.9063,157.2344 300.5781,155.5938 Q299.2656,153.9375 299.2656,150.8125 Q299.2656,147.6875 300.5781,146.0313 Q301.9063,144.375 304.4063,144.375 Q305.1094,144.375 305.75,144.5313 Q306.4063,144.6875 306.9688,144.9844 L306.9688,147.7031 Q306.3438,147.125 305.75,146.8594 Q305.1563,146.5781 304.5313,146.5781 Q303.1875,146.5781 302.5,147.6563 Q301.8125,148.7188 301.8125,150.8125 Q301.8125,152.9063 302.5,153.9844 Q303.1875,155.0469 304.5313,155.0469 Q305.1563,155.0469 305.75,154.7813 Q306.3438,154.5 306.9688,153.9219 L306.9688,156.6406 Z "/><text fill="#000000" font-family="sans-serif" font-size="12" lengthAdjust="spacingAndGlyphs" textLength="40" x="318" y="155.1807">Object</text><!--class Gnome::GObject::InitialyUnowned--><rect fill="#FEFECE" filter="url(#frxa99k6rj66w)" height="32" id="Gnome::GObject::InitialyUnowned" style="stroke: #A80036; stroke-width: 1.5;" width="129" x="289.5" y="227"/><ellipse cx="304.5" cy="243" fill="#80FFFF" rx="11" ry="11" style="stroke: #A80036; stroke-width: 1.0;"/><path d="M307.4688,248.6406 Q306.8906,248.9375 306.25,249.0781 Q305.6094,249.2344 304.9063,249.2344 Q302.4063,249.2344 301.0781,247.5938 Q299.7656,245.9375 299.7656,242.8125 Q299.7656,239.6875 301.0781,238.0313 Q302.4063,236.375 304.9063,236.375 Q305.6094,236.375 306.25,236.5313 Q306.9063,236.6875 307.4688,236.9844 L307.4688,239.7031 Q306.8438,239.125 306.25,238.8594 Q305.6563,238.5781 305.0313,238.5781 Q303.6875,238.5781 303,239.6563 Q302.3125,240.7188 302.3125,242.8125 Q302.3125,244.9063 303,245.9844 Q303.6875,247.0469 305.0313,247.0469 Q305.6563,247.0469 306.25,246.7813 Q306.8438,246.5 307.4688,245.9219 L307.4688,248.6406 Z "/><text fill="#000000" font-family="sans-serif" font-size="12" lengthAdjust="spacingAndGlyphs" textLength="97" x="318.5" y="247.1807">InitialyUnowned</text><!--class Gnome::GObject::Signal--><rect fill="#FEFECE" filter="url(#frxa99k6rj66w)" height="32" id="Gnome::GObject::Signal" style="stroke: #A80036; stroke-width: 1.5;" width="70" x="396" y="135"/><ellipse cx="411" cy="151" fill="#80FFFF" rx="11" ry="11" style="stroke: #A80036; stroke-width: 1.0;"/><path d="M413.9688,156.6406 Q413.3906,156.9375 412.75,157.0781 Q412.1094,157.2344 411.4063,157.2344 Q408.9063,157.2344 407.5781,155.5938 Q406.2656,153.9375 406.2656,150.8125 Q406.2656,147.6875 407.5781,146.0313 Q408.9063,144.375 411.4063,144.375 Q412.1094,144.375 412.75,144.5313 Q413.4063,144.6875 413.9688,144.9844 L413.9688,147.7031 Q413.3438,147.125 412.75,146.8594 Q412.1563,146.5781 411.5313,146.5781 Q410.1875,146.5781 409.5,147.6563 Q408.8125,148.7188 408.8125,150.8125 Q408.8125,152.9063 409.5,153.9844 Q410.1875,155.0469 411.5313,155.0469 Q412.1563,155.0469 412.75,154.7813 Q413.3438,154.5 413.9688,153.9219 L413.9688,156.6406 Z "/><text fill="#000000" font-family="sans-serif" font-size="12" lengthAdjust="spacingAndGlyphs" textLength="38" x="425" y="155.1807">Signal</text><!--class Gnome::Gtk3::Buildable--><rect fill="#FEFECE" filter="url(#frxa99k6rj66w)" height="32" id="Gnome::Gtk3::Buildable" style="stroke: #A80036; stroke-width: 1.5;" width="150" x="151" y="319"/><ellipse cx="166" cy="335" fill="#80FFFF" rx="11" ry="11" style="stroke: #A80036; stroke-width: 1.0;"/><path d="M167.2031,335.1406 Q167.5625,335.2188 167.8281,335.5 Q168.1094,335.7656 168.5,336.5469 L170.7344,341 L168.0469,341 L166.5469,337.875 Q166.4844,337.7344 166.375,337.5 Q165.7188,336.1094 164.8281,336.1094 L164.0469,336.1094 L164.0469,341 L161.6094,341 L161.6094,328.6094 L165.1406,328.6094 Q167.5313,328.6094 168.5625,329.4531 Q169.6094,330.2969 169.6094,332.2031 Q169.6094,333.4844 168.9844,334.25 Q168.375,335 167.2031,335.1406 Z M164.0469,330.6719 L164.0469,334.0469 L165.2031,334.0469 Q166.2188,334.0469 166.6406,333.6563 Q167.0781,333.25 167.0781,332.3438 Q167.0781,331.4531 166.6406,331.0625 Q166.2188,330.6719 165.2031,330.6719 L164.0469,330.6719 Z "/><text fill="#000000" font-family="sans-serif" font-size="12" lengthAdjust="spacingAndGlyphs" textLength="57" x="180" y="339.1807">Buildable</text><rect fill="#FFFFFF" height="15.9688" style="stroke: #000000; stroke-width: 1.0; stroke-dasharray: 2.0,2.0;" width="59" x="245" y="316"/><text fill="#000000" font-family="sans-serif" font-size="12" font-style="italic" lengthAdjust="spacingAndGlyphs" textLength="57" x="246" y="328.1387">Interface</text><!--class Gnome::Gtk3::Widget--><rect fill="#FEFECE" filter="url(#frxa99k6rj66w)" height="32" id="Gnome::Gtk3::Widget" style="stroke: #A80036; stroke-width: 1.5;" width="75" x="271.5" y="411"/><ellipse cx="286.5" cy="427" fill="#80FFFF" rx="11" ry="11" style="stroke: #A80036; stroke-width: 1.0;"/><path d="M289.4688,432.6406 Q288.8906,432.9375 288.25,433.0781 Q287.6094,433.2344 286.9063,433.2344 Q284.4063,433.2344 283.0781,431.5938 Q281.7656,429.9375 281.7656,426.8125 Q281.7656,423.6875 283.0781,422.0313 Q284.4063,420.375 286.9063,420.375 Q287.6094,420.375 288.25,420.5313 Q288.9063,420.6875 289.4688,420.9844 L289.4688,423.7031 Q288.8438,423.125 288.25,422.8594 Q287.6563,422.5781 287.0313,422.5781 Q285.6875,422.5781 285,423.6563 Q284.3125,424.7188 284.3125,426.8125 Q284.3125,428.9063 285,429.9844 Q285.6875,431.0469 287.0313,431.0469 Q287.6563,431.0469 288.25,430.7813 Q288.8438,430.5 289.4688,429.9219 L289.4688,432.6406 Z "/><text fill="#000000" font-family="sans-serif" font-size="12" lengthAdjust="spacingAndGlyphs" textLength="43" x="300.5" y="431.1807">Widget</text><!--class Gnome::Gtk3::IconView--><rect fill="#FEFECE" filter="url(#frxa99k6rj66w)" height="32" id="Gnome::Gtk3::IconView" style="stroke: #A80036; stroke-width: 1.5;" width="86" x="22" y="411"/><ellipse cx="37" cy="427" fill="#80FFFF" rx="11" ry="11" style="stroke: #A80036; stroke-width: 1.0;"/><path d="M39.9688,432.6406 Q39.3906,432.9375 38.75,433.0781 Q38.1094,433.2344 37.4063,433.2344 Q34.9063,433.2344 33.5781,431.5938 Q32.2656,429.9375 32.2656,426.8125 Q32.2656,423.6875 33.5781,422.0313 Q34.9063,420.375 37.4063,420.375 Q38.1094,420.375 38.75,420.5313 Q39.4063,420.6875 39.9688,420.9844 L39.9688,423.7031 Q39.3438,423.125 38.75,422.8594 Q38.1563,422.5781 37.5313,422.5781 Q36.1875,422.5781 35.5,423.6563 Q34.8125,424.7188 34.8125,426.8125 Q34.8125,428.9063 35.5,429.9844 Q36.1875,431.0469 37.5313,431.0469 Q38.1563,431.0469 38.75,430.7813 Q39.3438,430.5 39.9688,429.9219 L39.9688,432.6406 Z "/><text fill="#000000" font-family="sans-serif" font-size="12" lengthAdjust="spacingAndGlyphs" textLength="54" x="51" y="431.1807">IconView</text><!--class Gnome::Gtk3::Container--><rect fill="#FEFECE" filter="url(#frxa99k6rj66w)" height="32" id="Gnome::Gtk3::Container" style="stroke: #A80036; stroke-width: 1.5;" width="93" x="143.5" y="411"/><ellipse cx="158.5" cy="427" fill="#80FFFF" rx="11" ry="11" style="stroke: #A80036; stroke-width: 1.0;"/><path d="M161.4688,432.6406 Q160.8906,432.9375 160.25,433.0781 Q159.6094,433.2344 158.9063,433.2344 Q156.4063,433.2344 155.0781,431.5938 Q153.7656,429.9375 153.7656,426.8125 Q153.7656,423.6875 155.0781,422.0313 Q156.4063,420.375 158.9063,420.375 Q159.6094,420.375 160.25,420.5313 Q160.9063,420.6875 161.4688,420.9844 L161.4688,423.7031 Q160.8438,423.125 160.25,422.8594 Q159.6563,422.5781 159.0313,422.5781 Q157.6875,422.5781 157,423.6563 Q156.3125,424.7188 156.3125,426.8125 Q156.3125,428.9063 157,429.9844 Q157.6875,431.0469 159.0313,431.0469 Q159.6563,431.0469 160.25,430.7813 Q160.8438,430.5 161.4688,429.9219 L161.4688,432.6406 Z "/><text fill="#000000" font-family="sans-serif" font-size="12" lengthAdjust="spacingAndGlyphs" textLength="61" x="172.5" y="431.1807">Container</text><!--link Gnome::N::TopLevelClassSupport to Gnome::GObject::Object--><path d="M325,95.4048 C325,109.0788 325,123.9368 325,134.8498 " fill="none" id="Gnome::N::TopLevelClassSupport-Gnome::GObject::Object" style="stroke: #A80036; stroke-width: 1.0;"/><polygon fill="none" points="318.0001,95.0252,325,75.0252,332.0001,95.0251,318.0001,95.0252" style="stroke: #A80036; stroke-width: 1.0;"/><!--link Gnome::GObject::Object to Gnome::GObject::InitialyUnowned--><path d="M336.1645,186.4184 C340.5593,200.3605 345.3863,215.6738 348.9092,226.8498 " fill="none" id="Gnome::GObject::Object-Gnome::GObject::InitialyUnowned" style="stroke: #A80036; stroke-width: 1.0;"/><polygon fill="none" points="329.388,188.2044,330.0514,167.0252,342.7404,183.9955,329.388,188.2044" style="stroke: #A80036; stroke-width: 1.0;"/><!--link Gnome::GObject::Object to Gnome::GObject::Signal--><path d="M374.0415,151 C376.8666,151 379.6918,151 382.5169,151 " fill="none" id="Gnome::GObject::Object-Gnome::GObject::Signal" style="stroke: #A80036; stroke-width: 1.0;"/><polygon fill="#A80036" points="395.7384,151,386.7384,147,390.7384,151,386.7384,155,395.7384,151" style="stroke: #A80036; stroke-width: 1.0;"/><line style="stroke: #A80036; stroke-width: 1.0;" x1="390.7384" x2="382.7383" y1="151" y2="150.9999"/><polygon fill="#A80036" points="361.0234,151,367.0234,155,373.0234,151,367.0234,147,361.0234,151" style="stroke: #A80036; stroke-width: 1.0;"/><!--link Gnome::GObject::InitialyUnowned to Gnome::Gtk3::Widget--><path d="M345.2672,278.7074 C335.5029,318.6327 320.1194,381.534 312.9377,410.8991 " fill="none" id="Gnome::GObject::InitialyUnowned-Gnome::Gtk3::Widget" style="stroke: #A80036; stroke-width: 1.0;"/><polygon fill="none" points="338.5343,276.7714,350.0853,259.0069,352.1335,280.0973,338.5343,276.7714" style="stroke: #A80036; stroke-width: 1.0;"/><!--link Gnome::Gtk3::Buildable to Gnome::Gtk3::Widget--><path d="M254.0057,366.0424 C267.5643,381.0713 283.2795,398.4905 294.4297,410.8498 " fill="none" id="Gnome::Gtk3::Buildable-Gnome::Gtk3::Widget" style="stroke: #A80036; stroke-width: 1.0; stroke-dasharray: 7.0,7.0;"/><polygon fill="none" points="248.6572,370.564,240.4575,351.0252,259.0521,361.186,248.6572,370.564" style="stroke: #A80036; stroke-width: 1.0;"/><!--link Gnome::Gtk3::IconView to Gnome::Gtk3::Container--><path d="M108.457,427 C113.3842,427 118.3115,427 123.2387,427 " fill="none" id="Gnome::Gtk3::IconView-Gnome::Gtk3::Container" style="stroke: #A80036; stroke-width: 1.0;"/><polygon fill="none" points="123.4951,419.9999,143.495,427,123.495,433.9999,123.4951,419.9999" style="stroke: #A80036; stroke-width: 1.0;"/><!--link Gnome::Gtk3::Container to Gnome::Gtk3::Widget--><path d="M236.9492,427 C241.6884,427 246.4276,427 251.1668,427 " fill="none" id="Gnome::Gtk3::Container-Gnome::Gtk3::Widget" style="stroke: #A80036; stroke-width: 1.0;"/><polygon fill="none" points="251.286,419.9999,271.2859,427,251.2859,433.9999,251.286,419.9999" style="stroke: #A80036; stroke-width: 1.0;"/><!--
@startuml
skinparam packageStyle rectangle
skinparam stereotypeCBackgroundColor #80ffff
set namespaceSeparator ::
hide members


class Gnome::N::TopLevelClassSupport < Catch all class >
Gnome::N::TopLevelClassSupport <|- - Gnome::GObject::Object

Gnome::GObject::Object <|- - Gnome::GObject::InitialyUnowned
Gnome::GObject::Object *-> Gnome::GObject::Signal

Interface Gnome::Gtk3::Buildable <Interface>
class Gnome::Gtk3::Buildable <<(R,#80ffff)>>



Gnome::GObject::InitialyUnowned <|- - - Gnome::Gtk3::Widget
class Gnome::Gtk3::Widget implements Gnome::Gtk3::Buildable

Gnome::Gtk3::IconView -|> Gnome::Gtk3::Container
Gnome::Gtk3::Container -|> Gnome::Gtk3::Widget










@enduml

PlantUML version 1.2019.01(Sat Feb 09 16:32:04 CET 2019)
(LGPL source distribution)
Java Runtime: OpenJDK Runtime Environment
JVM: OpenJDK 64-Bit Server VM
Java Version: 1.8.0_265-b01
Operating System: Linux
OS Version: 5.8.8-100.fc31.x86_64
Default Encoding: UTF-8
Language: en
Country: null
--></g></svg>