<?xml version="1.0" encoding="UTF-8" standalone="no"?><svg xmlns="http://www.w3.org/2000/svg" xmlns:xlink="http://www.w3.org/1999/xlink" contentScriptType="application/ecmascript" contentStyleType="text/css" height="462px" preserveAspectRatio="none" style="width:356px;height:462px;" version="1.1" viewBox="0 0 356 462" width="356px" zoomAndPan="magnify"><defs><filter height="300%" id="ffftdy46hso6z" width="300%" x="-1" y="-1"><feGaussianBlur result="blurOut" stdDeviation="2.0"/><feColorMatrix in="blurOut" result="blurOut2" type="matrix" values="0 0 0 0 0 0 0 0 0 0 0 0 0 0 0 0 0 0 .4 0"/><feOffset dx="4.0" dy="4.0" in="blurOut2" result="blurOut3"/><feBlend in="SourceGraphic" in2="blurOut3" mode="normal"/></filter></defs><g><!--cluster Gnome::N--><rect fill="#FFFFFF" filter="url(#ffftdy46hso6z)" height="67" style="stroke: #000000; stroke-width: 1.5;" width="286" x="53" y="16"/><text fill="#000000" font-family="sans-serif" font-size="14" font-weight="bold" lengthAdjust="spacingAndGlyphs" textLength="79" x="156.5" y="30.9951">Gnome::N</text><!--cluster Gnome::GObject--><rect fill="#FFFFFF" filter="url(#ffftdy46hso6z)" height="159" style="stroke: #000000; stroke-width: 1.5;" width="193" x="152" y="108"/><text fill="#000000" font-family="sans-serif" font-size="14" font-weight="bold" lengthAdjust="spacingAndGlyphs" textLength="131" x="183" y="122.9951">Gnome::GObject</text><!--cluster Gnome::Gtk3--><rect fill="#FFFFFF" filter="url(#ffftdy46hso6z)" height="159" style="stroke: #000000; stroke-width: 1.5;" width="286" x="14" y="292"/><text fill="#000000" font-family="sans-serif" font-size="14" font-weight="bold" lengthAdjust="spacingAndGlyphs" textLength="105" x="104.5" y="306.9951">Gnome::Gtk3</text><!--class Gnome::N::TopLevelClassSupport--><rect fill="#FEFECE" filter="url(#ffftdy46hso6z)" height="32" id="Gnome::N::TopLevelClassSupport" style="stroke: #A80036; stroke-width: 1.5;" width="269" x="61.5" y="43"/><ellipse cx="76.5" cy="59" fill="#80FFFF" rx="11" ry="11" style="stroke: #A80036; stroke-width: 1.0;"/><path d="M79.4688,64.6406 Q78.8906,64.9375 78.25,65.0781 Q77.6094,65.2344 76.9063,65.2344 Q74.4063,65.2344 73.0781,63.5938 Q71.7656,61.9375 71.7656,58.8125 Q71.7656,55.6875 73.0781,54.0313 Q74.4063,52.375 76.9063,52.375 Q77.6094,52.375 78.25,52.5313 Q78.9063,52.6875 79.4688,52.9844 L79.4688,55.7031 Q78.8438,55.125 78.25,54.8594 Q77.6563,54.5781 77.0313,54.5781 Q75.6875,54.5781 75,55.6563 Q74.3125,56.7188 74.3125,58.8125 Q74.3125,60.9063 75,61.9844 Q75.6875,63.0469 77.0313,63.0469 Q77.6563,63.0469 78.25,62.7813 Q78.8438,62.5 79.4688,61.9219 L79.4688,64.6406 Z "/><text fill="#000000" font-family="sans-serif" font-size="12" lengthAdjust="spacingAndGlyphs" textLength="137" x="90.5" y="63.1807">TopLevelClassSupport</text><rect fill="#FFFFFF" height="15.9688" style="stroke: #000000; stroke-width: 1.0; stroke-dasharray: 2.0,2.0;" width="98" x="235.5" y="40"/><text fill="#000000" font-family="sans-serif" font-size="12" font-style="italic" lengthAdjust="spacingAndGlyphs" textLength="88" x="240.5" y="52.1387">Catch all class</text><!--class Gnome::GObject::Object--><rect fill="#FEFECE" filter="url(#ffftdy46hso6z)" height="32" id="Gnome::GObject::Object" style="stroke: #A80036; stroke-width: 1.5;" width="72" x="160" y="135"/><ellipse cx="175" cy="151" fill="#80FFFF" rx="11" ry="11" style="stroke: #A80036; stroke-width: 1.0;"/><path d="M177.9688,156.6406 Q177.3906,156.9375 176.75,157.0781 Q176.1094,157.2344 175.4063,157.2344 Q172.9063,157.2344 171.5781,155.5938 Q170.2656,153.9375 170.2656,150.8125 Q170.2656,147.6875 171.5781,146.0313 Q172.9063,144.375 175.4063,144.375 Q176.1094,144.375 176.75,144.5313 Q177.4063,144.6875 177.9688,144.9844 L177.9688,147.7031 Q177.3438,147.125 176.75,146.8594 Q176.1563,146.5781 175.5313,146.5781 Q174.1875,146.5781 173.5,147.6563 Q172.8125,148.7188 172.8125,150.8125 Q172.8125,152.9063 173.5,153.9844 Q174.1875,155.0469 175.5313,155.0469 Q176.1563,155.0469 176.75,154.7813 Q177.3438,154.5 177.9688,153.9219 L177.9688,156.6406 Z "/><text fill="#000000" font-family="sans-serif" font-size="12" lengthAdjust="spacingAndGlyphs" textLength="40" x="189" y="155.1807">Object</text><!--class Gnome::GObject::InitialyUnowned--><rect fill="#FEFECE" filter="url(#ffftdy46hso6z)" height="32" id="Gnome::GObject::InitialyUnowned" style="stroke: #A80036; stroke-width: 1.5;" width="129" x="160.5" y="227"/><ellipse cx="175.5" cy="243" fill="#80FFFF" rx="11" ry="11" style="stroke: #A80036; stroke-width: 1.0;"/><path d="M178.4688,248.6406 Q177.8906,248.9375 177.25,249.0781 Q176.6094,249.2344 175.9063,249.2344 Q173.4063,249.2344 172.0781,247.5938 Q170.7656,245.9375 170.7656,242.8125 Q170.7656,239.6875 172.0781,238.0313 Q173.4063,236.375 175.9063,236.375 Q176.6094,236.375 177.25,236.5313 Q177.9063,236.6875 178.4688,236.9844 L178.4688,239.7031 Q177.8438,239.125 177.25,238.8594 Q176.6563,238.5781 176.0313,238.5781 Q174.6875,238.5781 174,239.6563 Q173.3125,240.7188 173.3125,242.8125 Q173.3125,244.9063 174,245.9844 Q174.6875,247.0469 176.0313,247.0469 Q176.6563,247.0469 177.25,246.7813 Q177.8438,246.5 178.4688,245.9219 L178.4688,248.6406 Z "/><text fill="#000000" font-family="sans-serif" font-size="12" lengthAdjust="spacingAndGlyphs" textLength="97" x="189.5" y="247.1807">InitialyUnowned</text><!--class Gnome::GObject::Signal--><rect fill="#FEFECE" filter="url(#ffftdy46hso6z)" height="32" id="Gnome::GObject::Signal" style="stroke: #A80036; stroke-width: 1.5;" width="70" x="267" y="135"/><ellipse cx="282" cy="151" fill="#80FFFF" rx="11" ry="11" style="stroke: #A80036; stroke-width: 1.0;"/><path d="M284.9688,156.6406 Q284.3906,156.9375 283.75,157.0781 Q283.1094,157.2344 282.4063,157.2344 Q279.9063,157.2344 278.5781,155.5938 Q277.2656,153.9375 277.2656,150.8125 Q277.2656,147.6875 278.5781,146.0313 Q279.9063,144.375 282.4063,144.375 Q283.1094,144.375 283.75,144.5313 Q284.4063,144.6875 284.9688,144.9844 L284.9688,147.7031 Q284.3438,147.125 283.75,146.8594 Q283.1563,146.5781 282.5313,146.5781 Q281.1875,146.5781 280.5,147.6563 Q279.8125,148.7188 279.8125,150.8125 Q279.8125,152.9063 280.5,153.9844 Q281.1875,155.0469 282.5313,155.0469 Q283.1563,155.0469 283.75,154.7813 Q284.3438,154.5 284.9688,153.9219 L284.9688,156.6406 Z "/><text fill="#000000" font-family="sans-serif" font-size="12" lengthAdjust="spacingAndGlyphs" textLength="38" x="296" y="155.1807">Signal</text><!--class Gnome::Gtk3::Buildable--><rect fill="#FEFECE" filter="url(#ffftdy46hso6z)" height="32" id="Gnome::Gtk3::Buildable" style="stroke: #A80036; stroke-width: 1.5;" width="150" x="22" y="319"/><ellipse cx="37" cy="335" fill="#80FFFF" rx="11" ry="11" style="stroke: #A80036; stroke-width: 1.0;"/><path d="M38.2031,335.1406 Q38.5625,335.2188 38.8281,335.5 Q39.1094,335.7656 39.5,336.5469 L41.7344,341 L39.0469,341 L37.5469,337.875 Q37.4844,337.7344 37.375,337.5 Q36.7188,336.1094 35.8281,336.1094 L35.0469,336.1094 L35.0469,341 L32.6094,341 L32.6094,328.6094 L36.1406,328.6094 Q38.5313,328.6094 39.5625,329.4531 Q40.6094,330.2969 40.6094,332.2031 Q40.6094,333.4844 39.9844,334.25 Q39.375,335 38.2031,335.1406 Z M35.0469,330.6719 L35.0469,334.0469 L36.2031,334.0469 Q37.2188,334.0469 37.6406,333.6563 Q38.0781,333.25 38.0781,332.3438 Q38.0781,331.4531 37.6406,331.0625 Q37.2188,330.6719 36.2031,330.6719 L35.0469,330.6719 Z "/><text fill="#000000" font-family="sans-serif" font-size="12" lengthAdjust="spacingAndGlyphs" textLength="57" x="51" y="339.1807">Buildable</text><rect fill="#FFFFFF" height="15.9688" style="stroke: #000000; stroke-width: 1.0; stroke-dasharray: 2.0,2.0;" width="59" x="116" y="316"/><text fill="#000000" font-family="sans-serif" font-size="12" font-style="italic" lengthAdjust="spacingAndGlyphs" textLength="57" x="117" y="328.1387">Interface</text><!--class Gnome::Gtk3::Widget--><rect fill="#FEFECE" filter="url(#ffftdy46hso6z)" height="32" id="Gnome::Gtk3::Widget" style="stroke: #A80036; stroke-width: 1.5;" width="75" x="22.5" y="411"/><ellipse cx="37.5" cy="427" fill="#80FFFF" rx="11" ry="11" style="stroke: #A80036; stroke-width: 1.0;"/><path d="M40.4688,432.6406 Q39.8906,432.9375 39.25,433.0781 Q38.6094,433.2344 37.9063,433.2344 Q35.4063,433.2344 34.0781,431.5938 Q32.7656,429.9375 32.7656,426.8125 Q32.7656,423.6875 34.0781,422.0313 Q35.4063,420.375 37.9063,420.375 Q38.6094,420.375 39.25,420.5313 Q39.9063,420.6875 40.4688,420.9844 L40.4688,423.7031 Q39.8438,423.125 39.25,422.8594 Q38.6563,422.5781 38.0313,422.5781 Q36.6875,422.5781 36,423.6563 Q35.3125,424.7188 35.3125,426.8125 Q35.3125,428.9063 36,429.9844 Q36.6875,431.0469 38.0313,431.0469 Q38.6563,431.0469 39.25,430.7813 Q39.8438,430.5 40.4688,429.9219 L40.4688,432.6406 Z "/><text fill="#000000" font-family="sans-serif" font-size="12" lengthAdjust="spacingAndGlyphs" textLength="43" x="51.5" y="431.1807">Widget</text><!--class Gnome::Gtk3::Misc--><rect fill="#FEFECE" filter="url(#ffftdy46hso6z)" height="32" id="Gnome::Gtk3::Misc" style="stroke: #A80036; stroke-width: 1.5;" width="59" x="132.5" y="411"/><ellipse cx="147.5" cy="427" fill="#80FFFF" rx="11" ry="11" style="stroke: #A80036; stroke-width: 1.0;"/><path d="M150.4688,432.6406 Q149.8906,432.9375 149.25,433.0781 Q148.6094,433.2344 147.9063,433.2344 Q145.4063,433.2344 144.0781,431.5938 Q142.7656,429.9375 142.7656,426.8125 Q142.7656,423.6875 144.0781,422.0313 Q145.4063,420.375 147.9063,420.375 Q148.6094,420.375 149.25,420.5313 Q149.9063,420.6875 150.4688,420.9844 L150.4688,423.7031 Q149.8438,423.125 149.25,422.8594 Q148.6563,422.5781 148.0313,422.5781 Q146.6875,422.5781 146,423.6563 Q145.3125,424.7188 145.3125,426.8125 Q145.3125,428.9063 146,429.9844 Q146.6875,431.0469 148.0313,431.0469 Q148.6563,431.0469 149.25,430.7813 Q149.8438,430.5 150.4688,429.9219 L150.4688,432.6406 Z "/><text fill="#000000" font-family="sans-serif" font-size="12" lengthAdjust="spacingAndGlyphs" textLength="27" x="161.5" y="431.1807">Misc</text><!--class Gnome::Gtk3::Label--><rect fill="#FEFECE" filter="url(#ffftdy46hso6z)" height="32" id="Gnome::Gtk3::Label" style="stroke: #A80036; stroke-width: 1.5;" width="65" x="226.5" y="411"/><ellipse cx="241.5" cy="427" fill="#80FFFF" rx="11" ry="11" style="stroke: #A80036; stroke-width: 1.0;"/><path d="M244.4688,432.6406 Q243.8906,432.9375 243.25,433.0781 Q242.6094,433.2344 241.9063,433.2344 Q239.4063,433.2344 238.0781,431.5938 Q236.7656,429.9375 236.7656,426.8125 Q236.7656,423.6875 238.0781,422.0313 Q239.4063,420.375 241.9063,420.375 Q242.6094,420.375 243.25,420.5313 Q243.9063,420.6875 244.4688,420.9844 L244.4688,423.7031 Q243.8438,423.125 243.25,422.8594 Q242.6563,422.5781 242.0313,422.5781 Q240.6875,422.5781 240,423.6563 Q239.3125,424.7188 239.3125,426.8125 Q239.3125,428.9063 240,429.9844 Q240.6875,431.0469 242.0313,431.0469 Q242.6563,431.0469 243.25,430.7813 Q243.8438,430.5 244.4688,429.9219 L244.4688,432.6406 Z "/><text fill="#000000" font-family="sans-serif" font-size="12" lengthAdjust="spacingAndGlyphs" textLength="33" x="255.5" y="431.1807">Label</text><!--link Gnome::N::TopLevelClassSupport to Gnome::GObject::Object--><path d="M196,95.4048 C196,109.0788 196,123.9368 196,134.8498 " fill="none" id="Gnome::N::TopLevelClassSupport-Gnome::GObject::Object" style="stroke: #A80036; stroke-width: 1.0;"/><polygon fill="none" points="189.0001,95.0252,196,75.0252,203.0001,95.0251,189.0001,95.0252" style="stroke: #A80036; stroke-width: 1.0;"/><!--link Gnome::GObject::Object to Gnome::GObject::InitialyUnowned--><path d="M207.1645,186.4184 C211.5593,200.3605 216.3863,215.6738 219.9092,226.8498 " fill="none" id="Gnome::GObject::Object-Gnome::GObject::InitialyUnowned" style="stroke: #A80036; stroke-width: 1.0;"/><polygon fill="none" points="200.388,188.2044,201.0514,167.0252,213.7404,183.9955,200.388,188.2044" style="stroke: #A80036; stroke-width: 1.0;"/><!--link Gnome::GObject::Object to Gnome::GObject::Signal--><path d="M245.0415,151 C247.8666,151 250.6918,151 253.5169,151 " fill="none" id="Gnome::GObject::Object-Gnome::GObject::Signal" style="stroke: #A80036; stroke-width: 1.0;"/><polygon fill="#A80036" points="266.7384,151,257.7384,147,261.7384,151,257.7384,155,266.7384,151" style="stroke: #A80036; stroke-width: 1.0;"/><line style="stroke: #A80036; stroke-width: 1.0;" x1="261.7384" x2="253.7384" y1="151" y2="150.9999"/><polygon fill="#A80036" points="232.0234,151,238.0234,155,244.0234,151,238.0234,147,232.0234,151" style="stroke: #A80036; stroke-width: 1.0;"/><!--link Gnome::GObject::InitialyUnowned to Gnome::Gtk3::Widget--><path d="M220.0311,279.0873 C215.3967,301.7136 206.5817,330.3931 190,351 C165.9074,380.941 126.6191,401.5559 97.5304,413.6828 " fill="none" id="Gnome::GObject::InitialyUnowned-Gnome::Gtk3::Widget" style="stroke: #A80036; stroke-width: 1.0;"/><polygon fill="none" points="213.13,277.914,223.3579,259.3562,226.9352,280.2417,213.13,277.914" style="stroke: #A80036; stroke-width: 1.0;"/><!--link Gnome::Gtk3::Buildable to Gnome::Gtk3::Widget--><path d="M82.9533,369.9269 C77.2936,383.9996 71.0428,399.5423 66.4952,410.8498 " fill="none" id="Gnome::Gtk3::Buildable-Gnome::Gtk3::Widget" style="stroke: #A80036; stroke-width: 1.0; stroke-dasharray: 7.0,7.0;"/><polygon fill="none" points="76.598,366.9689,90.5551,351.0252,89.5869,372.1927,76.598,366.9689" style="stroke: #A80036; stroke-width: 1.0;"/><!--link Gnome::Gtk3::Misc to Gnome::Gtk3::Label--><path d="M211.6598,427 C216.5503,427 221.4407,427 226.3312,427 " fill="none" id="Gnome::Gtk3::Misc-Gnome::Gtk3::Label" style="stroke: #A80036; stroke-width: 1.0;"/><polygon fill="none" points="211.5547,433.9999,191.5547,427,211.5547,419.9999,211.5547,433.9999" style="stroke: #A80036; stroke-width: 1.0;"/><!--link Gnome::Gtk3::Widget to Gnome::Gtk3::Misc--><path d="M118.1133,427 C122.8861,427 127.6588,427 132.4316,427 " fill="none" id="Gnome::Gtk3::Widget-Gnome::Gtk3::Misc" style="stroke: #A80036; stroke-width: 1.0;"/><polygon fill="none" points="117.8516,433.9999,97.8516,427,117.8515,419.9999,117.8516,433.9999" style="stroke: #A80036; stroke-width: 1.0;"/><!--
@startuml
skinparam packageStyle rectangle
skinparam stereotypeCBackgroundColor #80ffff
set namespaceSeparator ::
hide members


class Gnome::N::TopLevelClassSupport < Catch all class >
Gnome::N::TopLevelClassSupport <|- - Gnome::GObject::Object

Interface Gnome::Gtk3::Buildable <Interface>
class Gnome::Gtk3::Buildable <<(R,#80ffff)>>

Gnome::GObject::Object <|- - Gnome::GObject::InitialyUnowned
Gnome::GObject::Object *-> Gnome::GObject::Signal

Gnome::GObject::InitialyUnowned <|- - - Gnome::Gtk3::Widget
class Gnome::Gtk3::Widget implements Gnome::Gtk3::Buildable

Gnome::Gtk3::Misc <|- Gnome::Gtk3::Label
Gnome::Gtk3::Widget <|- Gnome::Gtk3::Misc











@enduml

PlantUML version 1.2019.01(Sat Feb 09 16:32:04 CET 2019)
(LGPL source distribution)
Java Runtime: OpenJDK Runtime Environment
JVM: OpenJDK 64-Bit Server VM
Java Version: 1.8.0_265-b01
Operating System: Linux
OS Version: 5.8.8-100.fc31.x86_64
Default Encoding: UTF-8
Language: en
Country: null
--></g></svg>