<?xml version="1.0" encoding="UTF-8" standalone="no"?><svg xmlns="http://www.w3.org/2000/svg" xmlns:xlink="http://www.w3.org/1999/xlink" contentScriptType="application/ecmascript" contentStyleType="text/css" height="554px" preserveAspectRatio="none" style="width:498px;height:554px;" version="1.1" viewBox="0 0 498 554" width="498px" zoomAndPan="magnify"><defs><filter height="300%" id="f16odp6496l3nw" width="300%" x="-1" y="-1"><feGaussianBlur result="blurOut" stdDeviation="2.0"/><feColorMatrix in="blurOut" result="blurOut2" type="matrix" values="0 0 0 0 0 0 0 0 0 0 0 0 0 0 0 0 0 0 .4 0"/><feOffset dx="4.0" dy="4.0" in="blurOut2" result="blurOut3"/><feBlend in="SourceGraphic" in2="blurOut3" mode="normal"/></filter></defs><g><!--cluster Gnome::N--><rect fill="#FFFFFF" filter="url(#f16odp6496l3nw)" height="67" style="stroke: #000000; stroke-width: 1.5;" width="286" x="201" y="16"/><text fill="#000000" font-family="sans-serif" font-size="14" font-weight="bold" lengthAdjust="spacingAndGlyphs" textLength="79" x="304.5" y="30.9951">Gnome::N</text><!--cluster Gnome::GObject--><rect fill="#FFFFFF" filter="url(#f16odp6496l3nw)" height="251" style="stroke: #000000; stroke-width: 1.5;" width="148" x="151" y="108"/><text fill="#000000" font-family="sans-serif" font-size="14" font-weight="bold" lengthAdjust="spacingAndGlyphs" textLength="131" x="159.5" y="122.9951">Gnome::GObject</text><!--cluster Gnome::Gtk3--><rect fill="#FFFFFF" filter="url(#f16odp6496l3nw)" height="159" style="stroke: #000000; stroke-width: 1.5;" width="286" x="14" y="384"/><text fill="#000000" font-family="sans-serif" font-size="14" font-weight="bold" lengthAdjust="spacingAndGlyphs" textLength="105" x="104.5" y="398.9951">Gnome::Gtk3</text><!--class Gnome::N::TopLevelClassSupport--><rect fill="#FEFECE" filter="url(#f16odp6496l3nw)" height="32" id="Gnome::N::TopLevelClassSupport" style="stroke: #A80036; stroke-width: 1.5;" width="269" x="209.5" y="43"/><ellipse cx="224.5" cy="59" fill="#80FFFF" rx="11" ry="11" style="stroke: #A80036; stroke-width: 1.0;"/><path d="M227.4688,64.6406 Q226.8906,64.9375 226.25,65.0781 Q225.6094,65.2344 224.9063,65.2344 Q222.4063,65.2344 221.0781,63.5938 Q219.7656,61.9375 219.7656,58.8125 Q219.7656,55.6875 221.0781,54.0313 Q222.4063,52.375 224.9063,52.375 Q225.6094,52.375 226.25,52.5313 Q226.9063,52.6875 227.4688,52.9844 L227.4688,55.7031 Q226.8438,55.125 226.25,54.8594 Q225.6563,54.5781 225.0313,54.5781 Q223.6875,54.5781 223,55.6563 Q222.3125,56.7188 222.3125,58.8125 Q222.3125,60.9063 223,61.9844 Q223.6875,63.0469 225.0313,63.0469 Q225.6563,63.0469 226.25,62.7813 Q226.8438,62.5 227.4688,61.9219 L227.4688,64.6406 Z "/><text fill="#000000" font-family="sans-serif" font-size="12" lengthAdjust="spacingAndGlyphs" textLength="137" x="238.5" y="63.1807">TopLevelClassSupport</text><rect fill="#FFFFFF" height="15.9688" style="stroke: #000000; stroke-width: 1.0; stroke-dasharray: 2.0,2.0;" width="98" x="383.5" y="40"/><text fill="#000000" font-family="sans-serif" font-size="12" font-style="italic" lengthAdjust="spacingAndGlyphs" textLength="88" x="388.5" y="52.1387">Catch all class</text><!--class Gnome::GObject::Object--><rect fill="#FEFECE" filter="url(#f16odp6496l3nw)" height="32" id="Gnome::GObject::Object" style="stroke: #A80036; stroke-width: 1.5;" width="72" x="189" y="227"/><ellipse cx="204" cy="243" fill="#80FFFF" rx="11" ry="11" style="stroke: #A80036; stroke-width: 1.0;"/><path d="M206.9688,248.6406 Q206.3906,248.9375 205.75,249.0781 Q205.1094,249.2344 204.4063,249.2344 Q201.9063,249.2344 200.5781,247.5938 Q199.2656,245.9375 199.2656,242.8125 Q199.2656,239.6875 200.5781,238.0313 Q201.9063,236.375 204.4063,236.375 Q205.1094,236.375 205.75,236.5313 Q206.4063,236.6875 206.9688,236.9844 L206.9688,239.7031 Q206.3438,239.125 205.75,238.8594 Q205.1563,238.5781 204.5313,238.5781 Q203.1875,238.5781 202.5,239.6563 Q201.8125,240.7188 201.8125,242.8125 Q201.8125,244.9063 202.5,245.9844 Q203.1875,247.0469 204.5313,247.0469 Q205.1563,247.0469 205.75,246.7813 Q206.3438,246.5 206.9688,245.9219 L206.9688,248.6406 Z "/><text fill="#000000" font-family="sans-serif" font-size="12" lengthAdjust="spacingAndGlyphs" textLength="40" x="218" y="247.1807">Object</text><!--class Gnome::GObject::Signal--><rect fill="#FEFECE" filter="url(#f16odp6496l3nw)" height="32" id="Gnome::GObject::Signal" style="stroke: #A80036; stroke-width: 1.5;" width="131" x="159.5" y="135"/><ellipse cx="174.5" cy="151" fill="#80FFFF" rx="11" ry="11" style="stroke: #A80036; stroke-width: 1.0;"/><path d="M175.7031,151.1406 Q176.0625,151.2188 176.3281,151.5 Q176.6094,151.7656 177,152.5469 L179.2344,157 L176.5469,157 L175.0469,153.875 Q174.9844,153.7344 174.875,153.5 Q174.2188,152.1094 173.3281,152.1094 L172.5469,152.1094 L172.5469,157 L170.1094,157 L170.1094,144.6094 L173.6406,144.6094 Q176.0313,144.6094 177.0625,145.4531 Q178.1094,146.2969 178.1094,148.2031 Q178.1094,149.4844 177.4844,150.25 Q176.875,151 175.7031,151.1406 Z M172.5469,146.6719 L172.5469,150.0469 L173.7031,150.0469 Q174.7188,150.0469 175.1406,149.6563 Q175.5781,149.25 175.5781,148.3438 Q175.5781,147.4531 175.1406,147.0625 Q174.7188,146.6719 173.7031,146.6719 L172.5469,146.6719 Z "/><text fill="#000000" font-family="sans-serif" font-size="12" lengthAdjust="spacingAndGlyphs" textLength="38" x="188.5" y="155.1807">Signal</text><rect fill="#FFFFFF" height="15.9688" style="stroke: #000000; stroke-width: 1.0; stroke-dasharray: 2.0,2.0;" width="59" x="234.5" y="132"/><text fill="#000000" font-family="sans-serif" font-size="12" font-style="italic" lengthAdjust="spacingAndGlyphs" textLength="57" x="235.5" y="144.1387">Interface</text><!--class Gnome::GObject::InitialyUnowned--><rect fill="#FEFECE" filter="url(#f16odp6496l3nw)" height="32" id="Gnome::GObject::InitialyUnowned" style="stroke: #A80036; stroke-width: 1.5;" width="129" x="160.5" y="319"/><ellipse cx="175.5" cy="335" fill="#80FFFF" rx="11" ry="11" style="stroke: #A80036; stroke-width: 1.0;"/><path d="M178.4688,340.6406 Q177.8906,340.9375 177.25,341.0781 Q176.6094,341.2344 175.9063,341.2344 Q173.4063,341.2344 172.0781,339.5938 Q170.7656,337.9375 170.7656,334.8125 Q170.7656,331.6875 172.0781,330.0313 Q173.4063,328.375 175.9063,328.375 Q176.6094,328.375 177.25,328.5313 Q177.9063,328.6875 178.4688,328.9844 L178.4688,331.7031 Q177.8438,331.125 177.25,330.8594 Q176.6563,330.5781 176.0313,330.5781 Q174.6875,330.5781 174,331.6563 Q173.3125,332.7188 173.3125,334.8125 Q173.3125,336.9063 174,337.9844 Q174.6875,339.0469 176.0313,339.0469 Q176.6563,339.0469 177.25,338.7813 Q177.8438,338.5 178.4688,337.9219 L178.4688,340.6406 Z "/><text fill="#000000" font-family="sans-serif" font-size="12" lengthAdjust="spacingAndGlyphs" textLength="97" x="189.5" y="339.1807">InitialyUnowned</text><!--class Gnome::Gtk3::Buildable--><rect fill="#FEFECE" filter="url(#f16odp6496l3nw)" height="32" id="Gnome::Gtk3::Buildable" style="stroke: #A80036; stroke-width: 1.5;" width="150" x="22" y="411"/><ellipse cx="37" cy="427" fill="#80FFFF" rx="11" ry="11" style="stroke: #A80036; stroke-width: 1.0;"/><path d="M38.2031,427.1406 Q38.5625,427.2188 38.8281,427.5 Q39.1094,427.7656 39.5,428.5469 L41.7344,433 L39.0469,433 L37.5469,429.875 Q37.4844,429.7344 37.375,429.5 Q36.7188,428.1094 35.8281,428.1094 L35.0469,428.1094 L35.0469,433 L32.6094,433 L32.6094,420.6094 L36.1406,420.6094 Q38.5313,420.6094 39.5625,421.4531 Q40.6094,422.2969 40.6094,424.2031 Q40.6094,425.4844 39.9844,426.25 Q39.375,427 38.2031,427.1406 Z M35.0469,422.6719 L35.0469,426.0469 L36.2031,426.0469 Q37.2188,426.0469 37.6406,425.6563 Q38.0781,425.25 38.0781,424.3438 Q38.0781,423.4531 37.6406,423.0625 Q37.2188,422.6719 36.2031,422.6719 L35.0469,422.6719 Z "/><text fill="#000000" font-family="sans-serif" font-size="12" lengthAdjust="spacingAndGlyphs" textLength="57" x="51" y="431.1807">Buildable</text><rect fill="#FFFFFF" height="15.9688" style="stroke: #000000; stroke-width: 1.0; stroke-dasharray: 2.0,2.0;" width="59" x="116" y="408"/><text fill="#000000" font-family="sans-serif" font-size="12" font-style="italic" lengthAdjust="spacingAndGlyphs" textLength="57" x="117" y="420.1387">Interface</text><!--class Gnome::Gtk3::Widget--><rect fill="#FEFECE" filter="url(#f16odp6496l3nw)" height="32" id="Gnome::Gtk3::Widget" style="stroke: #A80036; stroke-width: 1.5;" width="75" x="22.5" y="503"/><ellipse cx="37.5" cy="519" fill="#80FFFF" rx="11" ry="11" style="stroke: #A80036; stroke-width: 1.0;"/><path d="M40.4688,524.6406 Q39.8906,524.9375 39.25,525.0781 Q38.6094,525.2344 37.9063,525.2344 Q35.4063,525.2344 34.0781,523.5938 Q32.7656,521.9375 32.7656,518.8125 Q32.7656,515.6875 34.0781,514.0313 Q35.4063,512.375 37.9063,512.375 Q38.6094,512.375 39.25,512.5313 Q39.9063,512.6875 40.4688,512.9844 L40.4688,515.7031 Q39.8438,515.125 39.25,514.8594 Q38.6563,514.5781 38.0313,514.5781 Q36.6875,514.5781 36,515.6563 Q35.3125,516.7188 35.3125,518.8125 Q35.3125,520.9063 36,521.9844 Q36.6875,523.0469 38.0313,523.0469 Q38.6563,523.0469 39.25,522.7813 Q39.8438,522.5 40.4688,521.9219 L40.4688,524.6406 Z "/><text fill="#000000" font-family="sans-serif" font-size="12" lengthAdjust="spacingAndGlyphs" textLength="43" x="51.5" y="523.1807">Widget</text><!--class Gnome::Gtk3::Misc--><rect fill="#FEFECE" filter="url(#f16odp6496l3nw)" height="32" id="Gnome::Gtk3::Misc" style="stroke: #A80036; stroke-width: 1.5;" width="59" x="132.5" y="503"/><ellipse cx="147.5" cy="519" fill="#80FFFF" rx="11" ry="11" style="stroke: #A80036; stroke-width: 1.0;"/><path d="M150.4688,524.6406 Q149.8906,524.9375 149.25,525.0781 Q148.6094,525.2344 147.9063,525.2344 Q145.4063,525.2344 144.0781,523.5938 Q142.7656,521.9375 142.7656,518.8125 Q142.7656,515.6875 144.0781,514.0313 Q145.4063,512.375 147.9063,512.375 Q148.6094,512.375 149.25,512.5313 Q149.9063,512.6875 150.4688,512.9844 L150.4688,515.7031 Q149.8438,515.125 149.25,514.8594 Q148.6563,514.5781 148.0313,514.5781 Q146.6875,514.5781 146,515.6563 Q145.3125,516.7188 145.3125,518.8125 Q145.3125,520.9063 146,521.9844 Q146.6875,523.0469 148.0313,523.0469 Q148.6563,523.0469 149.25,522.7813 Q149.8438,522.5 150.4688,521.9219 L150.4688,524.6406 Z "/><text fill="#000000" font-family="sans-serif" font-size="12" lengthAdjust="spacingAndGlyphs" textLength="27" x="161.5" y="523.1807">Misc</text><!--class Gnome::Gtk3::Label--><rect fill="#FEFECE" filter="url(#f16odp6496l3nw)" height="32" id="Gnome::Gtk3::Label" style="stroke: #A80036; stroke-width: 1.5;" width="65" x="226.5" y="503"/><ellipse cx="241.5" cy="519" fill="#80FFFF" rx="11" ry="11" style="stroke: #A80036; stroke-width: 1.0;"/><path d="M244.4688,524.6406 Q243.8906,524.9375 243.25,525.0781 Q242.6094,525.2344 241.9063,525.2344 Q239.4063,525.2344 238.0781,523.5938 Q236.7656,521.9375 236.7656,518.8125 Q236.7656,515.6875 238.0781,514.0313 Q239.4063,512.375 241.9063,512.375 Q242.6094,512.375 243.25,512.5313 Q243.9063,512.6875 244.4688,512.9844 L244.4688,515.7031 Q243.8438,515.125 243.25,514.8594 Q242.6563,514.5781 242.0313,514.5781 Q240.6875,514.5781 240,515.6563 Q239.3125,516.7188 239.3125,518.8125 Q239.3125,520.9063 240,521.9844 Q240.6875,523.0469 242.0313,523.0469 Q242.6563,523.0469 243.25,522.7813 Q243.8438,522.5 244.4688,521.9219 L244.4688,524.6406 Z "/><text fill="#000000" font-family="sans-serif" font-size="12" lengthAdjust="spacingAndGlyphs" textLength="33" x="255.5" y="523.1807">Label</text><!--link Gnome::N::TopLevelClassSupport to Gnome::GObject::Object--><path d="M336.9322,94.6906 C331.4316,116.7659 322.2812,144.9903 308,167 C292.2604,191.2573 266.9788,212.8684 248.4487,226.7856 " fill="none" id="Gnome::N::TopLevelClassSupport-Gnome::GObject::Object" style="stroke: #A80036; stroke-width: 1.0;"/><polygon fill="none" points="330.1074,93.1333,341.271,75.1229,343.7754,96.164,330.1074,93.1333" style="stroke: #A80036; stroke-width: 1.0;"/><!--link Gnome::GObject::Object to Gnome::GObject::InitialyUnowned--><path d="M225,279.4048 C225,293.0788 225,307.9368 225,318.8498 " fill="none" id="Gnome::GObject::Object-Gnome::GObject::InitialyUnowned" style="stroke: #A80036; stroke-width: 1.0;"/><polygon fill="none" points="218.0001,279.0252,225,259.0252,232.0001,279.0251,218.0001,279.0252" style="stroke: #A80036; stroke-width: 1.0;"/><!--link Gnome::GObject::Signal to Gnome::GObject::Object--><path d="M225,187.4048 C225,201.0788 225,215.9368 225,226.8498 " fill="none" id="Gnome::GObject::Signal-Gnome::GObject::Object" style="stroke: #A80036; stroke-width: 1.0; stroke-dasharray: 7.0,7.0;"/><polygon fill="none" points="218.0001,187.0252,225,167.0252,232.0001,187.0251,218.0001,187.0252" style="stroke: #A80036; stroke-width: 1.0;"/><!--link Gnome::GObject::InitialyUnowned to Gnome::Gtk3::Widget--><path d="M219.6333,371.077 C214.7638,393.6991 205.6788,422.3779 189,443 C165.1348,472.5076 126.5327,493.0776 97.7654,505.3069 " fill="none" id="Gnome::GObject::InitialyUnowned-Gnome::Gtk3::Widget" style="stroke: #A80036; stroke-width: 1.0;"/><polygon fill="none" points="212.7505,369.8004,223.1718,351.3506,226.5305,372.2724,212.7505,369.8004" style="stroke: #A80036; stroke-width: 1.0;"/><!--link Gnome::Gtk3::Buildable to Gnome::Gtk3::Widget--><path d="M82.9533,461.9269 C77.2936,475.9996 71.0428,491.5423 66.4952,502.8498 " fill="none" id="Gnome::Gtk3::Buildable-Gnome::Gtk3::Widget" style="stroke: #A80036; stroke-width: 1.0; stroke-dasharray: 7.0,7.0;"/><polygon fill="none" points="76.598,458.9689,90.5551,443.0252,89.5869,464.1927,76.598,458.9689" style="stroke: #A80036; stroke-width: 1.0;"/><!--link Gnome::Gtk3::Misc to Gnome::Gtk3::Label--><path d="M211.6598,519 C216.5503,519 221.4407,519 226.3312,519 " fill="none" id="Gnome::Gtk3::Misc-Gnome::Gtk3::Label" style="stroke: #A80036; stroke-width: 1.0;"/><polygon fill="none" points="211.5547,525.9999,191.5547,519,211.5547,511.9999,211.5547,525.9999" style="stroke: #A80036; stroke-width: 1.0;"/><!--link Gnome::Gtk3::Widget to Gnome::Gtk3::Misc--><path d="M118.1133,519 C122.8861,519 127.6588,519 132.4316,519 " fill="none" id="Gnome::Gtk3::Widget-Gnome::Gtk3::Misc" style="stroke: #A80036; stroke-width: 1.0;"/><polygon fill="none" points="117.8516,525.9999,97.8516,519,117.8515,511.9999,117.8516,525.9999" style="stroke: #A80036; stroke-width: 1.0;"/><!--
@startuml
skinparam packageStyle rectangle
skinparam stereotypeCBackgroundColor #80ffff
set namespaceSeparator ::
hide members


class Gnome::N::TopLevelClassSupport < Catch all class >
Gnome::N::TopLevelClassSupport <|- - - Gnome::GObject::Object

Interface Gnome::GObject::Signal <Interface>
class Gnome::GObject::Signal <<(R,#80ffff)>>

Interface Gnome::Gtk3::Buildable <Interface>
class Gnome::Gtk3::Buildable <<(R,#80ffff)>>

Gnome::GObject::Object <|- - Gnome::GObject::InitialyUnowned
Gnome::GObject::Signal <|.. Gnome::GObject::Object

Gnome::GObject::InitialyUnowned <|- - - Gnome::Gtk3::Widget
class Gnome::Gtk3::Widget implements Gnome::Gtk3::Buildable

Gnome::Gtk3::Misc <|- Gnome::Gtk3::Label
Gnome::Gtk3::Widget <|- Gnome::Gtk3::Misc











@enduml

PlantUML version 1.2019.01(Sat Feb 09 16:32:04 CET 2019)
(LGPL source distribution)
Java Runtime: OpenJDK Runtime Environment
JVM: OpenJDK 64-Bit Server VM
Java Version: 1.8.0_265-b01
Operating System: Linux
OS Version: 5.8.8-100.fc31.x86_64
Default Encoding: UTF-8
Language: en
Country: null
--></g></svg>