<?xml version="1.0" encoding="UTF-8" standalone="no"?><svg xmlns="http://www.w3.org/2000/svg" xmlns:xlink="http://www.w3.org/1999/xlink" contentScriptType="application/ecmascript" contentStyleType="text/css" height="592px" preserveAspectRatio="none" style="width:526px;height:592px;" version="1.1" viewBox="0 0 526 592" width="526px" zoomAndPan="magnify"><defs><filter height="300%" id="fq55kalrag79k" width="300%" x="-1" y="-1"><feGaussianBlur result="blurOut" stdDeviation="2.0"/><feColorMatrix in="blurOut" result="blurOut2" type="matrix" values="0 0 0 0 0 0 0 0 0 0 0 0 0 0 0 0 0 0 .4 0"/><feOffset dx="4.0" dy="4.0" in="blurOut2" result="blurOut3"/><feBlend in="SourceGraphic" in2="blurOut3" mode="normal"/></filter></defs><g><!--MD5=[b969295f0ec9b4fa482091c3e26049be]
cluster Gnome::N--><rect fill="#FFFFFF" filter="url(#fq55kalrag79k)" height="83" style="stroke: #000000; stroke-width: 1.5;" width="302" x="153" y="7"/><text fill="#000000" font-family="sans-serif" font-size="14" font-weight="bold" lengthAdjust="spacingAndGlyphs" textLength="79" x="264.5" y="21.9951">Gnome::N</text><!--MD5=[2fb3f9b624b0544b9841d5da78ec0508]
cluster Gnome::GObject--><rect fill="#FFFFFF" filter="url(#fq55kalrag79k)" height="175" style="stroke: #000000; stroke-width: 1.5;" width="271" x="85" y="114"/><text fill="#000000" font-family="sans-serif" font-size="14" font-weight="bold" lengthAdjust="spacingAndGlyphs" textLength="131" x="155" y="128.9951">Gnome::GObject</text><!--MD5=[7d67f77911969026863717fbb204e273]
cluster Gnome::Gtk3--><rect fill="#FFFFFF" filter="url(#fq55kalrag79k)" height="267" style="stroke: #000000; stroke-width: 1.5;" width="507" x="7" y="313"/><text fill="#000000" font-family="sans-serif" font-size="14" font-weight="bold" lengthAdjust="spacingAndGlyphs" textLength="105" x="208" y="327.9951">Gnome::Gtk3</text><!--MD5=[0b8e281ccd00c72019a31d78e9f95b5d]
class Gnome::N::TopLevelClassSupport--><rect codeLine="10" fill="#FEFECE" filter="url(#fq55kalrag79k)" height="32" id="Gnome::N::TopLevelClassSupport" style="stroke: #A80036; stroke-width: 1.5;" width="269" x="169.5" y="42"/><ellipse cx="184.5" cy="58" fill="#80FFFF" rx="11" ry="11" style="stroke: #A80036; stroke-width: 1.0;"/><path d="M187.4688,63.6406 Q186.8906,63.9375 186.25,64.0781 Q185.6094,64.2344 184.9063,64.2344 Q182.4063,64.2344 181.0781,62.5938 Q179.7656,60.9375 179.7656,57.8125 Q179.7656,54.6875 181.0781,53.0313 Q182.4063,51.375 184.9063,51.375 Q185.6094,51.375 186.25,51.5313 Q186.9063,51.6875 187.4688,51.9844 L187.4688,54.7031 Q186.8438,54.125 186.25,53.8594 Q185.6563,53.5781 185.0313,53.5781 Q183.6875,53.5781 183,54.6563 Q182.3125,55.7188 182.3125,57.8125 Q182.3125,59.9063 183,60.9844 Q183.6875,62.0469 185.0313,62.0469 Q185.6563,62.0469 186.25,61.7813 Q186.8438,61.5 187.4688,60.9219 L187.4688,63.6406 Z "/><text fill="#000000" font-family="sans-serif" font-size="12" lengthAdjust="spacingAndGlyphs" textLength="137" x="198.5" y="62.1807">TopLevelClassSupport</text><rect fill="#FFFFFF" height="15.9688" style="stroke: #000000; stroke-width: 1.0; stroke-dasharray: 2.0,2.0;" width="98" x="343.5" y="39"/><text fill="#000000" font-family="sans-serif" font-size="12" font-style="italic" lengthAdjust="spacingAndGlyphs" textLength="88" x="348.5" y="51.1387">Catch all class</text><!--MD5=[52303d185de782118d4739c052001bf2]
class Gnome::GObject::Signal--><rect codeLine="13" fill="#FEFECE" filter="url(#fq55kalrag79k)" height="32" id="Gnome::GObject::Signal" style="stroke: #A80036; stroke-width: 1.5;" width="131" x="101.5" y="149"/><ellipse cx="116.5" cy="165" fill="#80FFFF" rx="11" ry="11" style="stroke: #A80036; stroke-width: 1.0;"/><path d="M117.7031,165.1406 Q118.0625,165.2188 118.3281,165.5 Q118.6094,165.7656 119,166.5469 L121.2344,171 L118.5469,171 L117.0469,167.875 Q116.9844,167.7344 116.875,167.5 Q116.2188,166.1094 115.3281,166.1094 L114.5469,166.1094 L114.5469,171 L112.1094,171 L112.1094,158.6094 L115.6406,158.6094 Q118.0313,158.6094 119.0625,159.4531 Q120.1094,160.2969 120.1094,162.2031 Q120.1094,163.4844 119.4844,164.25 Q118.875,165 117.7031,165.1406 Z M114.5469,160.6719 L114.5469,164.0469 L115.7031,164.0469 Q116.7188,164.0469 117.1406,163.6563 Q117.5781,163.25 117.5781,162.3438 Q117.5781,161.4531 117.1406,161.0625 Q116.7188,160.6719 115.7031,160.6719 L114.5469,160.6719 Z "/><text fill="#000000" font-family="sans-serif" font-size="12" lengthAdjust="spacingAndGlyphs" textLength="38" x="130.5" y="169.1807">Signal</text><rect fill="#FFFFFF" height="15.9688" style="stroke: #000000; stroke-width: 1.0; stroke-dasharray: 2.0,2.0;" width="59" x="176.5" y="146"/><text fill="#000000" font-family="sans-serif" font-size="12" font-style="italic" lengthAdjust="spacingAndGlyphs" textLength="57" x="177.5" y="158.1387">Interface</text><!--MD5=[c2016d28441601ceb0a74f47a4537d14]
class Gnome::GObject::Object--><rect fill="#FEFECE" filter="url(#fq55kalrag79k)" height="32" id="Gnome::GObject::Object" style="stroke: #A80036; stroke-width: 1.5;" width="72" x="268" y="149"/><ellipse cx="283" cy="165" fill="#80FFFF" rx="11" ry="11" style="stroke: #A80036; stroke-width: 1.0;"/><path d="M285.9688,170.6406 Q285.3906,170.9375 284.75,171.0781 Q284.1094,171.2344 283.4063,171.2344 Q280.9063,171.2344 279.5781,169.5938 Q278.2656,167.9375 278.2656,164.8125 Q278.2656,161.6875 279.5781,160.0313 Q280.9063,158.375 283.4063,158.375 Q284.1094,158.375 284.75,158.5313 Q285.4063,158.6875 285.9688,158.9844 L285.9688,161.7031 Q285.3438,161.125 284.75,160.8594 Q284.1563,160.5781 283.5313,160.5781 Q282.1875,160.5781 281.5,161.6563 Q280.8125,162.7188 280.8125,164.8125 Q280.8125,166.9063 281.5,167.9844 Q282.1875,169.0469 283.5313,169.0469 Q284.1563,169.0469 284.75,168.7813 Q285.3438,168.5 285.9688,167.9219 L285.9688,170.6406 Z "/><text fill="#000000" font-family="sans-serif" font-size="12" lengthAdjust="spacingAndGlyphs" textLength="40" x="297" y="169.1807">Object</text><!--MD5=[f47b9a4a06d3f9bed948fa39f8c5540e]
class Gnome::GObject::InitialyUnowned--><rect fill="#FEFECE" filter="url(#fq55kalrag79k)" height="32" id="Gnome::GObject::InitialyUnowned" style="stroke: #A80036; stroke-width: 1.5;" width="129" x="210.5" y="241"/><ellipse cx="225.5" cy="257" fill="#80FFFF" rx="11" ry="11" style="stroke: #A80036; stroke-width: 1.0;"/><path d="M228.4688,262.6406 Q227.8906,262.9375 227.25,263.0781 Q226.6094,263.2344 225.9063,263.2344 Q223.4063,263.2344 222.0781,261.5938 Q220.7656,259.9375 220.7656,256.8125 Q220.7656,253.6875 222.0781,252.0313 Q223.4063,250.375 225.9063,250.375 Q226.6094,250.375 227.25,250.5313 Q227.9063,250.6875 228.4688,250.9844 L228.4688,253.7031 Q227.8438,253.125 227.25,252.8594 Q226.6563,252.5781 226.0313,252.5781 Q224.6875,252.5781 224,253.6563 Q223.3125,254.7188 223.3125,256.8125 Q223.3125,258.9063 224,259.9844 Q224.6875,261.0469 226.0313,261.0469 Q226.6563,261.0469 227.25,260.7813 Q227.8438,260.5 228.4688,259.9219 L228.4688,262.6406 Z "/><text fill="#000000" font-family="sans-serif" font-size="12" lengthAdjust="spacingAndGlyphs" textLength="97" x="239.5" y="261.1807">InitialyUnowned</text><!--MD5=[fc528952aa489a9a9f8514412a46a5d5]
class Gnome::Gtk3::Buildable--><rect codeLine="16" fill="#FEFECE" filter="url(#fq55kalrag79k)" height="32" id="Gnome::Gtk3::Buildable" style="stroke: #A80036; stroke-width: 1.5;" width="150" x="348" y="348"/><ellipse cx="363" cy="364" fill="#80FFFF" rx="11" ry="11" style="stroke: #A80036; stroke-width: 1.0;"/><path d="M364.2031,364.1406 Q364.5625,364.2188 364.8281,364.5 Q365.1094,364.7656 365.5,365.5469 L367.7344,370 L365.0469,370 L363.5469,366.875 Q363.4844,366.7344 363.375,366.5 Q362.7188,365.1094 361.8281,365.1094 L361.0469,365.1094 L361.0469,370 L358.6094,370 L358.6094,357.6094 L362.1406,357.6094 Q364.5313,357.6094 365.5625,358.4531 Q366.6094,359.2969 366.6094,361.2031 Q366.6094,362.4844 365.9844,363.25 Q365.375,364 364.2031,364.1406 Z M361.0469,359.6719 L361.0469,363.0469 L362.2031,363.0469 Q363.2188,363.0469 363.6406,362.6563 Q364.0781,362.25 364.0781,361.3438 Q364.0781,360.4531 363.6406,360.0625 Q363.2188,359.6719 362.2031,359.6719 L361.0469,359.6719 Z "/><text fill="#000000" font-family="sans-serif" font-size="12" lengthAdjust="spacingAndGlyphs" textLength="57" x="377" y="368.1807">Buildable</text><rect fill="#FFFFFF" height="15.9688" style="stroke: #000000; stroke-width: 1.0; stroke-dasharray: 2.0,2.0;" width="59" x="442" y="345"/><text fill="#000000" font-family="sans-serif" font-size="12" font-style="italic" lengthAdjust="spacingAndGlyphs" textLength="57" x="443" y="357.1387">Interface</text><!--MD5=[f76e7f9c868e6478fc523c72aca903a7]
class Gnome::Gtk3::Actionable--><rect codeLine="19" fill="#FEFECE" filter="url(#fq55kalrag79k)" height="32" id="Gnome::Gtk3::Actionable" style="stroke: #A80036; stroke-width: 1.5;" width="159" x="142.5" y="440"/><ellipse cx="157.5" cy="456" fill="#80FFFF" rx="11" ry="11" style="stroke: #A80036; stroke-width: 1.0;"/><path d="M158.7031,456.1406 Q159.0625,456.2188 159.3281,456.5 Q159.6094,456.7656 160,457.5469 L162.2344,462 L159.5469,462 L158.0469,458.875 Q157.9844,458.7344 157.875,458.5 Q157.2188,457.1094 156.3281,457.1094 L155.5469,457.1094 L155.5469,462 L153.1094,462 L153.1094,449.6094 L156.6406,449.6094 Q159.0313,449.6094 160.0625,450.4531 Q161.1094,451.2969 161.1094,453.2031 Q161.1094,454.4844 160.4844,455.25 Q159.875,456 158.7031,456.1406 Z M155.5469,451.6719 L155.5469,455.0469 L156.7031,455.0469 Q157.7188,455.0469 158.1406,454.6563 Q158.5781,454.25 158.5781,453.3438 Q158.5781,452.4531 158.1406,452.0625 Q157.7188,451.6719 156.7031,451.6719 L155.5469,451.6719 Z "/><text fill="#000000" font-family="sans-serif" font-size="12" lengthAdjust="spacingAndGlyphs" textLength="66" x="171.5" y="460.1807">Actionable</text><rect fill="#FFFFFF" height="15.9688" style="stroke: #000000; stroke-width: 1.0; stroke-dasharray: 2.0,2.0;" width="59" x="245.5" y="437"/><text fill="#000000" font-family="sans-serif" font-size="12" font-style="italic" lengthAdjust="spacingAndGlyphs" textLength="57" x="246.5" y="449.1387">Interface</text><!--MD5=[99c1fd59bdfde6048aec9e6766dd53ef]
class Gnome::Gtk3::Widget--><rect fill="#FEFECE" filter="url(#fq55kalrag79k)" height="32" id="Gnome::Gtk3::Widget" style="stroke: #A80036; stroke-width: 1.5;" width="75" x="237.5" y="348"/><ellipse cx="252.5" cy="364" fill="#80FFFF" rx="11" ry="11" style="stroke: #A80036; stroke-width: 1.0;"/><path d="M255.4688,369.6406 Q254.8906,369.9375 254.25,370.0781 Q253.6094,370.2344 252.9063,370.2344 Q250.4063,370.2344 249.0781,368.5938 Q247.7656,366.9375 247.7656,363.8125 Q247.7656,360.6875 249.0781,359.0313 Q250.4063,357.375 252.9063,357.375 Q253.6094,357.375 254.25,357.5313 Q254.9063,357.6875 255.4688,357.9844 L255.4688,360.7031 Q254.8438,360.125 254.25,359.8594 Q253.6563,359.5781 253.0313,359.5781 Q251.6875,359.5781 251,360.6563 Q250.3125,361.7188 250.3125,363.8125 Q250.3125,365.9063 251,366.9844 Q251.6875,368.0469 253.0313,368.0469 Q253.6563,368.0469 254.25,367.7813 Q254.8438,367.5 255.4688,366.9219 L255.4688,369.6406 Z "/><text fill="#000000" font-family="sans-serif" font-size="12" lengthAdjust="spacingAndGlyphs" textLength="43" x="266.5" y="368.1807">Widget</text><!--MD5=[9e3cc955f682d05594420e46d2e4e3ea]
class Gnome::Gtk3::Container--><rect fill="#FEFECE" filter="url(#fq55kalrag79k)" height="32" id="Gnome::Gtk3::Container" style="stroke: #A80036; stroke-width: 1.5;" width="93" x="109.5" y="348"/><ellipse cx="124.5" cy="364" fill="#80FFFF" rx="11" ry="11" style="stroke: #A80036; stroke-width: 1.0;"/><path d="M127.4688,369.6406 Q126.8906,369.9375 126.25,370.0781 Q125.6094,370.2344 124.9063,370.2344 Q122.4063,370.2344 121.0781,368.5938 Q119.7656,366.9375 119.7656,363.8125 Q119.7656,360.6875 121.0781,359.0313 Q122.4063,357.375 124.9063,357.375 Q125.6094,357.375 126.25,357.5313 Q126.9063,357.6875 127.4688,357.9844 L127.4688,360.7031 Q126.8438,360.125 126.25,359.8594 Q125.6563,359.5781 125.0313,359.5781 Q123.6875,359.5781 123,360.6563 Q122.3125,361.7188 122.3125,363.8125 Q122.3125,365.9063 123,366.9844 Q123.6875,368.0469 125.0313,368.0469 Q125.6563,368.0469 126.25,367.7813 Q126.8438,367.5 127.4688,366.9219 L127.4688,369.6406 Z "/><text fill="#000000" font-family="sans-serif" font-size="12" lengthAdjust="spacingAndGlyphs" textLength="61" x="138.5" y="368.1807">Container</text><!--MD5=[6ac0a199e9a9e53d446254a1d59f3468]
class Gnome::Gtk3::Bin--><rect fill="#FEFECE" filter="url(#fq55kalrag79k)" height="32" id="Gnome::Gtk3::Bin" style="stroke: #A80036; stroke-width: 1.5;" width="51" x="23.5" y="348"/><ellipse cx="38.5" cy="364" fill="#80FFFF" rx="11" ry="11" style="stroke: #A80036; stroke-width: 1.0;"/><path d="M41.4688,369.6406 Q40.8906,369.9375 40.25,370.0781 Q39.6094,370.2344 38.9063,370.2344 Q36.4063,370.2344 35.0781,368.5938 Q33.7656,366.9375 33.7656,363.8125 Q33.7656,360.6875 35.0781,359.0313 Q36.4063,357.375 38.9063,357.375 Q39.6094,357.375 40.25,357.5313 Q40.9063,357.6875 41.4688,357.9844 L41.4688,360.7031 Q40.8438,360.125 40.25,359.8594 Q39.6563,359.5781 39.0313,359.5781 Q37.6875,359.5781 37,360.6563 Q36.3125,361.7188 36.3125,363.8125 Q36.3125,365.9063 37,366.9844 Q37.6875,368.0469 39.0313,368.0469 Q39.6563,368.0469 40.25,367.7813 Q40.8438,367.5 41.4688,366.9219 L41.4688,369.6406 Z "/><text fill="#000000" font-family="sans-serif" font-size="12" lengthAdjust="spacingAndGlyphs" textLength="19" x="52.5" y="368.1807">Bin</text><!--MD5=[3e2f051a85f4b2b2d9fbae0180460565]
class Gnome::Gtk3::Button--><rect fill="#FEFECE" filter="url(#fq55kalrag79k)" height="32" id="Gnome::Gtk3::Button" style="stroke: #A80036; stroke-width: 1.5;" width="74" x="33" y="440"/><ellipse cx="48" cy="456" fill="#80FFFF" rx="11" ry="11" style="stroke: #A80036; stroke-width: 1.0;"/><path d="M50.9688,461.6406 Q50.3906,461.9375 49.75,462.0781 Q49.1094,462.2344 48.4063,462.2344 Q45.9063,462.2344 44.5781,460.5938 Q43.2656,458.9375 43.2656,455.8125 Q43.2656,452.6875 44.5781,451.0313 Q45.9063,449.375 48.4063,449.375 Q49.1094,449.375 49.75,449.5313 Q50.4063,449.6875 50.9688,449.9844 L50.9688,452.7031 Q50.3438,452.125 49.75,451.8594 Q49.1563,451.5781 48.5313,451.5781 Q47.1875,451.5781 46.5,452.6563 Q45.8125,453.7188 45.8125,455.8125 Q45.8125,457.9063 46.5,458.9844 Q47.1875,460.0469 48.5313,460.0469 Q49.1563,460.0469 49.75,459.7813 Q50.3438,459.5 50.9688,458.9219 L50.9688,461.6406 Z "/><text fill="#000000" font-family="sans-serif" font-size="12" lengthAdjust="spacingAndGlyphs" textLength="42" x="62" y="460.1807">Button</text><!--MD5=[fe3e4e75f5a635694dd263d0e12df184]
class Gnome::Gtk3::ToggleButton--><rect fill="#FEFECE" filter="url(#fq55kalrag79k)" height="32" id="Gnome::Gtk3::ToggleButton" style="stroke: #A80036; stroke-width: 1.5;" width="116" x="23" y="532"/><ellipse cx="38" cy="548" fill="#80FFFF" rx="11" ry="11" style="stroke: #A80036; stroke-width: 1.0;"/><path d="M40.9688,553.6406 Q40.3906,553.9375 39.75,554.0781 Q39.1094,554.2344 38.4063,554.2344 Q35.9063,554.2344 34.5781,552.5938 Q33.2656,550.9375 33.2656,547.8125 Q33.2656,544.6875 34.5781,543.0313 Q35.9063,541.375 38.4063,541.375 Q39.1094,541.375 39.75,541.5313 Q40.4063,541.6875 40.9688,541.9844 L40.9688,544.7031 Q40.3438,544.125 39.75,543.8594 Q39.1563,543.5781 38.5313,543.5781 Q37.1875,543.5781 36.5,544.6563 Q35.8125,545.7188 35.8125,547.8125 Q35.8125,549.9063 36.5,550.9844 Q37.1875,552.0469 38.5313,552.0469 Q39.1563,552.0469 39.75,551.7813 Q40.3438,551.5 40.9688,550.9219 L40.9688,553.6406 Z "/><text fill="#000000" font-family="sans-serif" font-size="12" lengthAdjust="spacingAndGlyphs" textLength="84" x="52" y="552.1807">ToggleButton</text><!--MD5=[5c742fe68c78eb90cae2964e8d67e944]
class Gnome::Gtk3::MenuButton--><rect fill="#FEFECE" filter="url(#fq55kalrag79k)" height="32" id="Gnome::Gtk3::MenuButton" style="stroke: #A80036; stroke-width: 1.5;" width="108" x="174" y="532"/><ellipse cx="189" cy="548" fill="#80FFFF" rx="11" ry="11" style="stroke: #A80036; stroke-width: 1.0;"/><path d="M191.9688,553.6406 Q191.3906,553.9375 190.75,554.0781 Q190.1094,554.2344 189.4063,554.2344 Q186.9063,554.2344 185.5781,552.5938 Q184.2656,550.9375 184.2656,547.8125 Q184.2656,544.6875 185.5781,543.0313 Q186.9063,541.375 189.4063,541.375 Q190.1094,541.375 190.75,541.5313 Q191.4063,541.6875 191.9688,541.9844 L191.9688,544.7031 Q191.3438,544.125 190.75,543.8594 Q190.1563,543.5781 189.5313,543.5781 Q188.1875,543.5781 187.5,544.6563 Q186.8125,545.7188 186.8125,547.8125 Q186.8125,549.9063 187.5,550.9844 Q188.1875,552.0469 189.5313,552.0469 Q190.1563,552.0469 190.75,551.7813 Q191.3438,551.5 191.9688,550.9219 L191.9688,553.6406 Z "/><text fill="#000000" font-family="sans-serif" font-size="12" lengthAdjust="spacingAndGlyphs" textLength="76" x="203" y="552.1807">MenuButton</text><!--MD5=[e23b679cf607d12ac81e9c5301595709]
reverse link Gnome::N::TopLevelClassSupport to Gnome::GObject::Object--><path codeLine="22" d="M304,94.1 C304,112.76 304,134.73 304,148.98 " fill="none" id="Gnome::N::TopLevelClassSupport-backto-Gnome::GObject::Object" style="stroke: #A80036; stroke-width: 1.0;"/><polygon fill="none" points="297,94.04,304,74.04,311,94.04,297,94.04" style="stroke: #A80036; stroke-width: 1.0;"/><!--MD5=[2e57c6084092ea441ae4a3f826779dd8]
reverse link Gnome::GObject::Object to Gnome::GObject::InitialyUnowned--><path codeLine="23" d="M292.84,200.63 C288.34,214.59 283.39,229.96 279.85,240.96 " fill="none" id="Gnome::GObject::Object-backto-Gnome::GObject::InitialyUnowned" style="stroke: #A80036; stroke-width: 1.0;"/><polygon fill="none" points="286.28,198.16,299.08,181.27,299.61,202.45,286.28,198.16" style="stroke: #A80036; stroke-width: 1.0;"/><!--MD5=[f8ffcf4587ba956cb48626a4231e4d21]
reverse link Gnome::GObject::Signal to Gnome::GObject::Object--><path codeLine="24" d="M252.77,165 C257.85,165 262.92,165 268,165 " fill="none" id="Gnome::GObject::Signal-backto-Gnome::GObject::Object" style="stroke: #A80036; stroke-width: 1.0; stroke-dasharray: 7.0,7.0;"/><polygon fill="none" points="252.56,172,232.56,165,252.56,158,252.56,172" style="stroke: #A80036; stroke-width: 1.0;"/><!--MD5=[aa49dbc803ccf1c2ef8546b297b1dcfd]
reverse link Gnome::GObject::InitialyUnowned to Gnome::Gtk3::Widget--><path codeLine="26" d="M275,293.1 C275,311.76 275,333.73 275,347.98 " fill="none" id="Gnome::GObject::InitialyUnowned-backto-Gnome::Gtk3::Widget" style="stroke: #A80036; stroke-width: 1.0;"/><polygon fill="none" points="268,293.04,275,273.04,282,293.04,268,293.04" style="stroke: #A80036; stroke-width: 1.0;"/><!--MD5=[e1568b3b4ceade3a3349f45f19b4c32a]
link Gnome::Gtk3::Widget to Gnome::Gtk3::Buildable--><path codeLine="27" d="M312.58,364 C317.64,364 322.71,364 327.78,364 " fill="none" id="Gnome::Gtk3::Widget-to-Gnome::Gtk3::Buildable" style="stroke: #A80036; stroke-width: 1.0; stroke-dasharray: 7.0,7.0;"/><polygon fill="none" points="327.95,357,347.95,364,327.95,371,327.95,357" style="stroke: #A80036; stroke-width: 1.0;"/><!--MD5=[aaf476f5d2312b98d0ee61e81272172c]
link Gnome::Gtk3::Container to Gnome::Gtk3::Widget--><path codeLine="28" d="M202.95,364 C207.69,364 212.43,364 217.17,364 " fill="none" id="Gnome::Gtk3::Container-to-Gnome::Gtk3::Widget" style="stroke: #A80036; stroke-width: 1.0;"/><polygon fill="none" points="217.29,357,237.29,364,217.29,371,217.29,357" style="stroke: #A80036; stroke-width: 1.0;"/><!--MD5=[aa2b56f221bfaa2860ef37394f2d22b5]
link Gnome::Gtk3::Bin to Gnome::Gtk3::Container--><path codeLine="29" d="M74.91,364 C79.68,364 84.44,364 89.21,364 " fill="none" id="Gnome::Gtk3::Bin-to-Gnome::Gtk3::Container" style="stroke: #A80036; stroke-width: 1.0;"/><polygon fill="none" points="89.44,357,109.44,364,89.44,371,89.44,357" style="stroke: #A80036; stroke-width: 1.0;"/><!--MD5=[57346a5a2f8a6d47c457a3ec18cb2dff]
reverse link Gnome::Gtk3::Bin to Gnome::Gtk3::Button--><path codeLine="30" d="M57.19,400.12 C60.42,413.95 63.95,429.09 66.49,439.96 " fill="none" id="Gnome::Gtk3::Bin-backto-Gnome::Gtk3::Button" style="stroke: #A80036; stroke-width: 1.0;"/><polygon fill="none" points="50.29,401.33,52.56,380.27,63.92,398.15,50.29,401.33" style="stroke: #A80036; stroke-width: 1.0;"/><!--MD5=[d7b10450ecb8b9b6a7276c3f6fc07b93]
link Gnome::Gtk3::Button to Gnome::Gtk3::Actionable--><path codeLine="31" d="M107.11,456 C112.03,456 116.95,456 121.88,456 " fill="none" id="Gnome::Gtk3::Button-to-Gnome::Gtk3::Actionable" style="stroke: #A80036; stroke-width: 1.0; stroke-dasharray: 7.0,7.0;"/><polygon fill="none" points="122.12,449,142.12,456,122.12,463,122.12,449" style="stroke: #A80036; stroke-width: 1.0;"/><!--MD5=[ff93a10ef2c20b131d4ccefed1197e64]
reverse link Gnome::Gtk3::Button to Gnome::Gtk3::ToggleButton--><path codeLine="32" d="M74.29,492.12 C75.98,505.95 77.83,521.09 79.16,531.96 " fill="none" id="Gnome::Gtk3::Button-backto-Gnome::Gtk3::ToggleButton" style="stroke: #A80036; stroke-width: 1.0;"/><polygon fill="none" points="67.34,492.97,71.87,472.27,81.24,491.27,67.34,492.97" style="stroke: #A80036; stroke-width: 1.0;"/><!--MD5=[b24bbea7934aa8a25dceeeb413191a63]
reverse link Gnome::Gtk3::ToggleButton to Gnome::Gtk3::MenuButton--><path codeLine="33" d="M159.32,548 C164.19,548 169.06,548 173.94,548 " fill="none" id="Gnome::Gtk3::ToggleButton-backto-Gnome::Gtk3::MenuButton" style="stroke: #A80036; stroke-width: 1.0;"/><polygon fill="none" points="159.28,555,139.28,548,159.28,541,159.28,555" style="stroke: #A80036; stroke-width: 1.0;"/><!--MD5=[2feb208d6d4989f06dbf528ce1a5f154]
@startuml
'scale 0.9
skinparam packageStyle rectangle
skinparam stereotypeCBackgroundColor #80ffff
set namespaceSeparator ::
hide members


'Class and interface decorations
class Gnome::N::TopLevelClassSupport < Catch all class >

Interface Gnome::GObject::Signal <Interface>
class Gnome::GObject::Signal <<(R,#80ffff)>>

Interface Gnome::Gtk3::Buildable <Interface>
class Gnome::Gtk3::Buildable <<(R,#80ffff)>>

Interface Gnome::Gtk3::Actionable <Interface>
class Gnome::Gtk3::Actionable <<(R,#80ffff)>>

'Class connections
Gnome::N::TopLevelClassSupport <|- - Gnome::GObject::Object
Gnome::GObject::Object <|- - Gnome::GObject::InitialyUnowned
Gnome::GObject::Signal <|. Gnome::GObject::Object

Gnome::GObject::InitialyUnowned <|- - Gnome::Gtk3::Widget
Gnome::Gtk3::Widget .|> Gnome::Gtk3::Buildable
Gnome::Gtk3::Container -|> Gnome::Gtk3::Widget
Gnome::Gtk3::Bin -|> Gnome::Gtk3::Container
Gnome::Gtk3::Bin <|- - Gnome::Gtk3::Button
Gnome::Gtk3::Button .|> Gnome::Gtk3::Actionable
Gnome::Gtk3::Button <|- - Gnome::Gtk3::ToggleButton
Gnome::Gtk3::ToggleButton <|- Gnome::Gtk3::MenuButton

@enduml

@startuml
skinparam packageStyle rectangle
skinparam stereotypeCBackgroundColor #80ffff
set namespaceSeparator ::
hide members


class Gnome::N::TopLevelClassSupport < Catch all class >

Interface Gnome::GObject::Signal <Interface>
class Gnome::GObject::Signal <<(R,#80ffff)>>

Interface Gnome::Gtk3::Buildable <Interface>
class Gnome::Gtk3::Buildable <<(R,#80ffff)>>

Interface Gnome::Gtk3::Actionable <Interface>
class Gnome::Gtk3::Actionable <<(R,#80ffff)>>

Gnome::N::TopLevelClassSupport <|- - Gnome::GObject::Object
Gnome::GObject::Object <|- - Gnome::GObject::InitialyUnowned
Gnome::GObject::Signal <|. Gnome::GObject::Object

Gnome::GObject::InitialyUnowned <|- - Gnome::Gtk3::Widget
Gnome::Gtk3::Widget .|> Gnome::Gtk3::Buildable
Gnome::Gtk3::Container -|> Gnome::Gtk3::Widget
Gnome::Gtk3::Bin -|> Gnome::Gtk3::Container
Gnome::Gtk3::Bin <|- - Gnome::Gtk3::Button
Gnome::Gtk3::Button .|> Gnome::Gtk3::Actionable
Gnome::Gtk3::Button <|- - Gnome::Gtk3::ToggleButton
Gnome::Gtk3::ToggleButton <|- Gnome::Gtk3::MenuButton

@enduml

PlantUML version 1.2020.19(Mon Oct 12 17:10:01 CEST 2020)
(GPL source distribution)
Java Runtime: OpenJDK Runtime Environment
JVM: OpenJDK 64-Bit Server VM
Default Encoding: UTF-8
Language: en
Country: null
--></g></svg>