<?xml version="1.0" encoding="UTF-8" standalone="no"?><svg xmlns="http://www.w3.org/2000/svg" xmlns:xlink="http://www.w3.org/1999/xlink" contentScriptType="application/ecmascript" contentStyleType="text/css" height="684px" preserveAspectRatio="none" style="width:880px;height:684px;" version="1.1" viewBox="0 0 880 684" width="880px" zoomAndPan="magnify"><defs><filter height="300%" id="fvnnbubezuojk" width="300%" x="-1" y="-1"><feGaussianBlur result="blurOut" stdDeviation="2.0"/><feColorMatrix in="blurOut" result="blurOut2" type="matrix" values="0 0 0 0 0 0 0 0 0 0 0 0 0 0 0 0 0 0 .4 0"/><feOffset dx="4.0" dy="4.0" in="blurOut2" result="blurOut3"/><feBlend in="SourceGraphic" in2="blurOut3" mode="normal"/></filter></defs><g><!--MD5=[b969295f0ec9b4fa482091c3e26049be]
cluster Gnome::N--><rect fill="#FFFFFF" filter="url(#fvnnbubezuojk)" height="83" style="stroke: #000000; stroke-width: 1.5;" width="302" x="566" y="7"/><text fill="#000000" font-family="sans-serif" font-size="14" font-weight="bold" lengthAdjust="spacingAndGlyphs" textLength="79" x="677.5" y="21.9951">Gnome::N</text><!--MD5=[2fb3f9b624b0544b9841d5da78ec0508]
cluster Gnome::GObject--><rect fill="#FFFFFF" filter="url(#fvnnbubezuojk)" height="175" style="stroke: #000000; stroke-width: 1.5;" width="271" x="498" y="114"/><text fill="#000000" font-family="sans-serif" font-size="14" font-weight="bold" lengthAdjust="spacingAndGlyphs" textLength="131" x="568" y="128.9951">Gnome::GObject</text><!--MD5=[7d67f77911969026863717fbb204e273]
cluster Gnome::Gtk3--><rect fill="#FFFFFF" filter="url(#fvnnbubezuojk)" height="359" style="stroke: #000000; stroke-width: 1.5;" width="694" x="7" y="313"/><text fill="#000000" font-family="sans-serif" font-size="14" font-weight="bold" lengthAdjust="spacingAndGlyphs" textLength="105" x="301.5" y="327.9951">Gnome::Gtk3</text><!--MD5=[0b8e281ccd00c72019a31d78e9f95b5d]
class Gnome::N::TopLevelClassSupport--><rect codeLine="9" fill="#FEFECE" filter="url(#fvnnbubezuojk)" height="32" id="Gnome::N::TopLevelClassSupport" style="stroke: #A80036; stroke-width: 1.5;" width="269" x="582.5" y="42"/><ellipse cx="597.5" cy="58" fill="#80FFFF" rx="11" ry="11" style="stroke: #A80036; stroke-width: 1.0;"/><path d="M600.4688,63.6406 Q599.8906,63.9375 599.25,64.0781 Q598.6094,64.2344 597.9063,64.2344 Q595.4063,64.2344 594.0781,62.5938 Q592.7656,60.9375 592.7656,57.8125 Q592.7656,54.6875 594.0781,53.0313 Q595.4063,51.375 597.9063,51.375 Q598.6094,51.375 599.25,51.5313 Q599.9063,51.6875 600.4688,51.9844 L600.4688,54.7031 Q599.8438,54.125 599.25,53.8594 Q598.6563,53.5781 598.0313,53.5781 Q596.6875,53.5781 596,54.6563 Q595.3125,55.7188 595.3125,57.8125 Q595.3125,59.9063 596,60.9844 Q596.6875,62.0469 598.0313,62.0469 Q598.6563,62.0469 599.25,61.7813 Q599.8438,61.5 600.4688,60.9219 L600.4688,63.6406 Z "/><text fill="#000000" font-family="sans-serif" font-size="12" lengthAdjust="spacingAndGlyphs" textLength="137" x="611.5" y="62.1543">TopLevelClassSupport</text><rect fill="#FFFFFF" height="15.9688" style="stroke: #000000; stroke-width: 1.0; stroke-dasharray: 2.0,2.0;" width="98" x="756.5" y="39"/><text fill="#000000" font-family="sans-serif" font-size="12" font-style="italic" lengthAdjust="spacingAndGlyphs" textLength="88" x="761.5" y="51.1387">Catch all class</text><!--MD5=[52303d185de782118d4739c052001bf2]
class Gnome::GObject::Signal--><rect codeLine="12" fill="#FEFECE" filter="url(#fvnnbubezuojk)" height="32" id="Gnome::GObject::Signal" style="stroke: #A80036; stroke-width: 1.5;" width="131" x="514.5" y="149"/><ellipse cx="529.5" cy="165" fill="#80FFFF" rx="11" ry="11" style="stroke: #A80036; stroke-width: 1.0;"/><path d="M530.7031,165.1406 Q531.0625,165.2188 531.3281,165.5 Q531.6094,165.7656 532,166.5469 L534.2344,171 L531.5469,171 L530.0469,167.875 Q529.9844,167.7344 529.875,167.5 Q529.2188,166.1094 528.3281,166.1094 L527.5469,166.1094 L527.5469,171 L525.1094,171 L525.1094,158.6094 L528.6406,158.6094 Q531.0313,158.6094 532.0625,159.4531 Q533.1094,160.2969 533.1094,162.2031 Q533.1094,163.4844 532.4844,164.25 Q531.875,165 530.7031,165.1406 Z M527.5469,160.6719 L527.5469,164.0469 L528.7031,164.0469 Q529.7188,164.0469 530.1406,163.6563 Q530.5781,163.25 530.5781,162.3438 Q530.5781,161.4531 530.1406,161.0625 Q529.7188,160.6719 528.7031,160.6719 L527.5469,160.6719 Z "/><text fill="#000000" font-family="sans-serif" font-size="12" lengthAdjust="spacingAndGlyphs" textLength="38" x="543.5" y="169.1543">Signal</text><rect fill="#FFFFFF" height="15.9688" style="stroke: #000000; stroke-width: 1.0; stroke-dasharray: 2.0,2.0;" width="59" x="589.5" y="146"/><text fill="#000000" font-family="sans-serif" font-size="12" font-style="italic" lengthAdjust="spacingAndGlyphs" textLength="57" x="590.5" y="158.1387">Interface</text><!--MD5=[c2016d28441601ceb0a74f47a4537d14]
class Gnome::GObject::Object--><rect fill="#FEFECE" filter="url(#fvnnbubezuojk)" height="32" id="Gnome::GObject::Object" style="stroke: #A80036; stroke-width: 1.5;" width="72" x="681" y="149"/><ellipse cx="696" cy="165" fill="#80FFFF" rx="11" ry="11" style="stroke: #A80036; stroke-width: 1.0;"/><path d="M698.9688,170.6406 Q698.3906,170.9375 697.75,171.0781 Q697.1094,171.2344 696.4063,171.2344 Q693.9063,171.2344 692.5781,169.5938 Q691.2656,167.9375 691.2656,164.8125 Q691.2656,161.6875 692.5781,160.0313 Q693.9063,158.375 696.4063,158.375 Q697.1094,158.375 697.75,158.5313 Q698.4063,158.6875 698.9688,158.9844 L698.9688,161.7031 Q698.3438,161.125 697.75,160.8594 Q697.1563,160.5781 696.5313,160.5781 Q695.1875,160.5781 694.5,161.6563 Q693.8125,162.7188 693.8125,164.8125 Q693.8125,166.9063 694.5,167.9844 Q695.1875,169.0469 696.5313,169.0469 Q697.1563,169.0469 697.75,168.7813 Q698.3438,168.5 698.9688,167.9219 L698.9688,170.6406 Z "/><text fill="#000000" font-family="sans-serif" font-size="12" lengthAdjust="spacingAndGlyphs" textLength="40" x="710" y="169.1543">Object</text><!--MD5=[f47b9a4a06d3f9bed948fa39f8c5540e]
class Gnome::GObject::InitialyUnowned--><rect fill="#FEFECE" filter="url(#fvnnbubezuojk)" height="32" id="Gnome::GObject::InitialyUnowned" style="stroke: #A80036; stroke-width: 1.5;" width="129" x="623.5" y="241"/><ellipse cx="638.5" cy="257" fill="#80FFFF" rx="11" ry="11" style="stroke: #A80036; stroke-width: 1.0;"/><path d="M641.4688,262.6406 Q640.8906,262.9375 640.25,263.0781 Q639.6094,263.2344 638.9063,263.2344 Q636.4063,263.2344 635.0781,261.5938 Q633.7656,259.9375 633.7656,256.8125 Q633.7656,253.6875 635.0781,252.0313 Q636.4063,250.375 638.9063,250.375 Q639.6094,250.375 640.25,250.5313 Q640.9063,250.6875 641.4688,250.9844 L641.4688,253.7031 Q640.8438,253.125 640.25,252.8594 Q639.6563,252.5781 639.0313,252.5781 Q637.6875,252.5781 637,253.6563 Q636.3125,254.7188 636.3125,256.8125 Q636.3125,258.9063 637,259.9844 Q637.6875,261.0469 639.0313,261.0469 Q639.6563,261.0469 640.25,260.7813 Q640.8438,260.5 641.4688,259.9219 L641.4688,262.6406 Z "/><text fill="#000000" font-family="sans-serif" font-size="12" lengthAdjust="spacingAndGlyphs" textLength="97" x="652.5" y="261.1543">InitialyUnowned</text><!--MD5=[fc528952aa489a9a9f8514412a46a5d5]
class Gnome::Gtk3::Buildable--><rect codeLine="15" fill="#FEFECE" filter="url(#fvnnbubezuojk)" height="32" id="Gnome::Gtk3::Buildable" style="stroke: #A80036; stroke-width: 1.5;" width="150" x="485" y="348"/><ellipse cx="500" cy="364" fill="#80FFFF" rx="11" ry="11" style="stroke: #A80036; stroke-width: 1.0;"/><path d="M501.2031,364.1406 Q501.5625,364.2188 501.8281,364.5 Q502.1094,364.7656 502.5,365.5469 L504.7344,370 L502.0469,370 L500.5469,366.875 Q500.4844,366.7344 500.375,366.5 Q499.7188,365.1094 498.8281,365.1094 L498.0469,365.1094 L498.0469,370 L495.6094,370 L495.6094,357.6094 L499.1406,357.6094 Q501.5313,357.6094 502.5625,358.4531 Q503.6094,359.2969 503.6094,361.2031 Q503.6094,362.4844 502.9844,363.25 Q502.375,364 501.2031,364.1406 Z M498.0469,359.6719 L498.0469,363.0469 L499.2031,363.0469 Q500.2188,363.0469 500.6406,362.6563 Q501.0781,362.25 501.0781,361.3438 Q501.0781,360.4531 500.6406,360.0625 Q500.2188,359.6719 499.2031,359.6719 L498.0469,359.6719 Z "/><text fill="#000000" font-family="sans-serif" font-size="12" lengthAdjust="spacingAndGlyphs" textLength="57" x="514" y="368.1543">Buildable</text><rect fill="#FFFFFF" height="15.9688" style="stroke: #000000; stroke-width: 1.0; stroke-dasharray: 2.0,2.0;" width="59" x="579" y="345"/><text fill="#000000" font-family="sans-serif" font-size="12" font-style="italic" lengthAdjust="spacingAndGlyphs" textLength="57" x="580" y="357.1387">Interface</text><!--MD5=[f76e7f9c868e6478fc523c72aca903a7]
class Gnome::Gtk3::Actionable--><rect codeLine="18" fill="#FEFECE" filter="url(#fvnnbubezuojk)" height="32" id="Gnome::Gtk3::Actionable" style="stroke: #A80036; stroke-width: 1.5;" width="159" x="211.5" y="348"/><ellipse cx="226.5" cy="364" fill="#80FFFF" rx="11" ry="11" style="stroke: #A80036; stroke-width: 1.0;"/><path d="M227.7031,364.1406 Q228.0625,364.2188 228.3281,364.5 Q228.6094,364.7656 229,365.5469 L231.2344,370 L228.5469,370 L227.0469,366.875 Q226.9844,366.7344 226.875,366.5 Q226.2188,365.1094 225.3281,365.1094 L224.5469,365.1094 L224.5469,370 L222.1094,370 L222.1094,357.6094 L225.6406,357.6094 Q228.0313,357.6094 229.0625,358.4531 Q230.1094,359.2969 230.1094,361.2031 Q230.1094,362.4844 229.4844,363.25 Q228.875,364 227.7031,364.1406 Z M224.5469,359.6719 L224.5469,363.0469 L225.7031,363.0469 Q226.7188,363.0469 227.1406,362.6563 Q227.5781,362.25 227.5781,361.3438 Q227.5781,360.4531 227.1406,360.0625 Q226.7188,359.6719 225.7031,359.6719 L224.5469,359.6719 Z "/><text fill="#000000" font-family="sans-serif" font-size="12" lengthAdjust="spacingAndGlyphs" textLength="66" x="240.5" y="368.1543">Actionable</text><rect fill="#FFFFFF" height="15.9688" style="stroke: #000000; stroke-width: 1.0; stroke-dasharray: 2.0,2.0;" width="59" x="314.5" y="345"/><text fill="#000000" font-family="sans-serif" font-size="12" font-style="italic" lengthAdjust="spacingAndGlyphs" textLength="57" x="315.5" y="357.1387">Interface</text><!--MD5=[99c1fd59bdfde6048aec9e6766dd53ef]
class Gnome::Gtk3::Widget--><rect fill="#FEFECE" filter="url(#fvnnbubezuojk)" height="32" id="Gnome::Gtk3::Widget" style="stroke: #A80036; stroke-width: 1.5;" width="75" x="586.5" y="440"/><ellipse cx="601.5" cy="456" fill="#80FFFF" rx="11" ry="11" style="stroke: #A80036; stroke-width: 1.0;"/><path d="M604.4688,461.6406 Q603.8906,461.9375 603.25,462.0781 Q602.6094,462.2344 601.9063,462.2344 Q599.4063,462.2344 598.0781,460.5938 Q596.7656,458.9375 596.7656,455.8125 Q596.7656,452.6875 598.0781,451.0313 Q599.4063,449.375 601.9063,449.375 Q602.6094,449.375 603.25,449.5313 Q603.9063,449.6875 604.4688,449.9844 L604.4688,452.7031 Q603.8438,452.125 603.25,451.8594 Q602.6563,451.5781 602.0313,451.5781 Q600.6875,451.5781 600,452.6563 Q599.3125,453.7188 599.3125,455.8125 Q599.3125,457.9063 600,458.9844 Q600.6875,460.0469 602.0313,460.0469 Q602.6563,460.0469 603.25,459.7813 Q603.8438,459.5 604.4688,458.9219 L604.4688,461.6406 Z "/><text fill="#000000" font-family="sans-serif" font-size="12" lengthAdjust="spacingAndGlyphs" textLength="43" x="615.5" y="460.1543">Widget</text><!--MD5=[9e3cc955f682d05594420e46d2e4e3ea]
class Gnome::Gtk3::Container--><rect fill="#FEFECE" filter="url(#fvnnbubezuojk)" height="32" id="Gnome::Gtk3::Container" style="stroke: #A80036; stroke-width: 1.5;" width="93" x="458.5" y="440"/><ellipse cx="473.5" cy="456" fill="#80FFFF" rx="11" ry="11" style="stroke: #A80036; stroke-width: 1.0;"/><path d="M476.4688,461.6406 Q475.8906,461.9375 475.25,462.0781 Q474.6094,462.2344 473.9063,462.2344 Q471.4063,462.2344 470.0781,460.5938 Q468.7656,458.9375 468.7656,455.8125 Q468.7656,452.6875 470.0781,451.0313 Q471.4063,449.375 473.9063,449.375 Q474.6094,449.375 475.25,449.5313 Q475.9063,449.6875 476.4688,449.9844 L476.4688,452.7031 Q475.8438,452.125 475.25,451.8594 Q474.6563,451.5781 474.0313,451.5781 Q472.6875,451.5781 472,452.6563 Q471.3125,453.7188 471.3125,455.8125 Q471.3125,457.9063 472,458.9844 Q472.6875,460.0469 474.0313,460.0469 Q474.6563,460.0469 475.25,459.7813 Q475.8438,459.5 476.4688,458.9219 L476.4688,461.6406 Z "/><text fill="#000000" font-family="sans-serif" font-size="12" lengthAdjust="spacingAndGlyphs" textLength="61" x="487.5" y="460.1543">Container</text><!--MD5=[6ac0a199e9a9e53d446254a1d59f3468]
class Gnome::Gtk3::Bin--><rect fill="#FEFECE" filter="url(#fvnnbubezuojk)" height="32" id="Gnome::Gtk3::Bin" style="stroke: #A80036; stroke-width: 1.5;" width="51" x="372.5" y="440"/><ellipse cx="387.5" cy="456" fill="#80FFFF" rx="11" ry="11" style="stroke: #A80036; stroke-width: 1.0;"/><path d="M390.4688,461.6406 Q389.8906,461.9375 389.25,462.0781 Q388.6094,462.2344 387.9063,462.2344 Q385.4063,462.2344 384.0781,460.5938 Q382.7656,458.9375 382.7656,455.8125 Q382.7656,452.6875 384.0781,451.0313 Q385.4063,449.375 387.9063,449.375 Q388.6094,449.375 389.25,449.5313 Q389.9063,449.6875 390.4688,449.9844 L390.4688,452.7031 Q389.8438,452.125 389.25,451.8594 Q388.6563,451.5781 388.0313,451.5781 Q386.6875,451.5781 386,452.6563 Q385.3125,453.7188 385.3125,455.8125 Q385.3125,457.9063 386,458.9844 Q386.6875,460.0469 388.0313,460.0469 Q388.6563,460.0469 389.25,459.7813 Q389.8438,459.5 390.4688,458.9219 L390.4688,461.6406 Z "/><text fill="#000000" font-family="sans-serif" font-size="12" lengthAdjust="spacingAndGlyphs" textLength="19" x="401.5" y="460.1543">Bin</text><!--MD5=[4148e5896c1ca36a6d3ef8c01cfe13d7]
class Gnome::Gtk3::MenuItem--><rect fill="#FEFECE" filter="url(#fvnnbubezuojk)" height="32" id="Gnome::Gtk3::MenuItem" style="stroke: #A80036; stroke-width: 1.5;" width="93" x="244.5" y="440"/><ellipse cx="259.5" cy="456" fill="#80FFFF" rx="11" ry="11" style="stroke: #A80036; stroke-width: 1.0;"/><path d="M262.4688,461.6406 Q261.8906,461.9375 261.25,462.0781 Q260.6094,462.2344 259.9063,462.2344 Q257.4063,462.2344 256.0781,460.5938 Q254.7656,458.9375 254.7656,455.8125 Q254.7656,452.6875 256.0781,451.0313 Q257.4063,449.375 259.9063,449.375 Q260.6094,449.375 261.25,449.5313 Q261.9063,449.6875 262.4688,449.9844 L262.4688,452.7031 Q261.8438,452.125 261.25,451.8594 Q260.6563,451.5781 260.0313,451.5781 Q258.6875,451.5781 258,452.6563 Q257.3125,453.7188 257.3125,455.8125 Q257.3125,457.9063 258,458.9844 Q258.6875,460.0469 260.0313,460.0469 Q260.6563,460.0469 261.25,459.7813 Q261.8438,459.5 262.4688,458.9219 L262.4688,461.6406 Z "/><text fill="#000000" font-family="sans-serif" font-size="12" lengthAdjust="spacingAndGlyphs" textLength="61" x="273.5" y="460.1543">MenuItem</text><!--MD5=[277dccf225293c975552a6b5f1357e16]
class Gnome::Gtk3::CheckMenuItem--><rect fill="#FEFECE" filter="url(#fvnnbubezuojk)" height="32" id="Gnome::Gtk3::CheckMenuItem" style="stroke: #A80036; stroke-width: 1.5;" width="131" x="23.5" y="532"/><ellipse cx="38.5" cy="548" fill="#80FFFF" rx="11" ry="11" style="stroke: #A80036; stroke-width: 1.0;"/><path d="M41.4688,553.6406 Q40.8906,553.9375 40.25,554.0781 Q39.6094,554.2344 38.9063,554.2344 Q36.4063,554.2344 35.0781,552.5938 Q33.7656,550.9375 33.7656,547.8125 Q33.7656,544.6875 35.0781,543.0313 Q36.4063,541.375 38.9063,541.375 Q39.6094,541.375 40.25,541.5313 Q40.9063,541.6875 41.4688,541.9844 L41.4688,544.7031 Q40.8438,544.125 40.25,543.8594 Q39.6563,543.5781 39.0313,543.5781 Q37.6875,543.5781 37,544.6563 Q36.3125,545.7188 36.3125,547.8125 Q36.3125,549.9063 37,550.9844 Q37.6875,552.0469 39.0313,552.0469 Q39.6563,552.0469 40.25,551.7813 Q40.8438,551.5 41.4688,550.9219 L41.4688,553.6406 Z "/><text fill="#000000" font-family="sans-serif" font-size="12" lengthAdjust="spacingAndGlyphs" textLength="99" x="52.5" y="552.1543">CheckMenuItem</text><!--MD5=[a506d0d1ca9356ef377aa4606c3b361e]
class Gnome::Gtk3::RadioMenuItem--><rect fill="#FEFECE" filter="url(#fvnnbubezuojk)" height="32" id="Gnome::Gtk3::RadioMenuItem" style="stroke: #A80036; stroke-width: 1.5;" width="128" x="25" y="624"/><ellipse cx="40" cy="640" fill="#80FFFF" rx="11" ry="11" style="stroke: #A80036; stroke-width: 1.0;"/><path d="M42.9688,645.6406 Q42.3906,645.9375 41.75,646.0781 Q41.1094,646.2344 40.4063,646.2344 Q37.9063,646.2344 36.5781,644.5938 Q35.2656,642.9375 35.2656,639.8125 Q35.2656,636.6875 36.5781,635.0313 Q37.9063,633.375 40.4063,633.375 Q41.1094,633.375 41.75,633.5313 Q42.4063,633.6875 42.9688,633.9844 L42.9688,636.7031 Q42.3438,636.125 41.75,635.8594 Q41.1563,635.5781 40.5313,635.5781 Q39.1875,635.5781 38.5,636.6563 Q37.8125,637.7188 37.8125,639.8125 Q37.8125,641.9063 38.5,642.9844 Q39.1875,644.0469 40.5313,644.0469 Q41.1563,644.0469 41.75,643.7813 Q42.3438,643.5 42.9688,642.9219 L42.9688,645.6406 Z "/><text fill="#000000" font-family="sans-serif" font-size="12" lengthAdjust="spacingAndGlyphs" textLength="96" x="54" y="644.1543">RadioMenuItem</text><!--MD5=[9926154e6d1f8c23ebc5be0e345ef14f]
class Gnome::Gtk3::SeparatorMenuItem--><rect fill="#FEFECE" filter="url(#fvnnbubezuojk)" height="32" id="Gnome::Gtk3::SeparatorMenuItem" style="stroke: #A80036; stroke-width: 1.5;" width="156" x="190" y="532"/><ellipse cx="205" cy="548" fill="#80FFFF" rx="11" ry="11" style="stroke: #A80036; stroke-width: 1.0;"/><path d="M207.9688,553.6406 Q207.3906,553.9375 206.75,554.0781 Q206.1094,554.2344 205.4063,554.2344 Q202.9063,554.2344 201.5781,552.5938 Q200.2656,550.9375 200.2656,547.8125 Q200.2656,544.6875 201.5781,543.0313 Q202.9063,541.375 205.4063,541.375 Q206.1094,541.375 206.75,541.5313 Q207.4063,541.6875 207.9688,541.9844 L207.9688,544.7031 Q207.3438,544.125 206.75,543.8594 Q206.1563,543.5781 205.5313,543.5781 Q204.1875,543.5781 203.5,544.6563 Q202.8125,545.7188 202.8125,547.8125 Q202.8125,549.9063 203.5,550.9844 Q204.1875,552.0469 205.5313,552.0469 Q206.1563,552.0469 206.75,551.7813 Q207.3438,551.5 207.9688,550.9219 L207.9688,553.6406 Z "/><text fill="#000000" font-family="sans-serif" font-size="12" lengthAdjust="spacingAndGlyphs" textLength="124" x="219" y="552.1543">SeparatorMenuItem</text><!--MD5=[6b10ed7ccf5704779a823ac52e3babf0]
class Gnome::Gtk3::TearoffMenuItem--><rect fill="#FEFECE" filter="url(#fvnnbubezuojk)" height="32" id="Gnome::Gtk3::TearoffMenuItem" style="stroke: #A80036; stroke-width: 1.5;" width="137" x="381.5" y="532"/><ellipse cx="396.5" cy="548" fill="#80FFFF" rx="11" ry="11" style="stroke: #A80036; stroke-width: 1.0;"/><path d="M399.4688,553.6406 Q398.8906,553.9375 398.25,554.0781 Q397.6094,554.2344 396.9063,554.2344 Q394.4063,554.2344 393.0781,552.5938 Q391.7656,550.9375 391.7656,547.8125 Q391.7656,544.6875 393.0781,543.0313 Q394.4063,541.375 396.9063,541.375 Q397.6094,541.375 398.25,541.5313 Q398.9063,541.6875 399.4688,541.9844 L399.4688,544.7031 Q398.8438,544.125 398.25,543.8594 Q397.6563,543.5781 397.0313,543.5781 Q395.6875,543.5781 395,544.6563 Q394.3125,545.7188 394.3125,547.8125 Q394.3125,549.9063 395,550.9844 Q395.6875,552.0469 397.0313,552.0469 Q397.6563,552.0469 398.25,551.7813 Q398.8438,551.5 399.4688,550.9219 L399.4688,553.6406 Z "/><text fill="#000000" font-family="sans-serif" font-size="12" lengthAdjust="spacingAndGlyphs" textLength="105" x="410.5" y="552.1543">TearoffMenuItem</text><!--MD5=[5719abf738683e7cc35cfd8beca8c539]
class Gnome::Gtk3::ImageMenuItem--><rect fill="#FEFECE" filter="url(#fvnnbubezuojk)" height="32" id="Gnome::Gtk3::ImageMenuItem" style="stroke: #A80036; stroke-width: 1.5;" width="131" x="553.5" y="532"/><ellipse cx="568.5" cy="548" fill="#80FFFF" rx="11" ry="11" style="stroke: #A80036; stroke-width: 1.0;"/><path d="M571.4688,553.6406 Q570.8906,553.9375 570.25,554.0781 Q569.6094,554.2344 568.9063,554.2344 Q566.4063,554.2344 565.0781,552.5938 Q563.7656,550.9375 563.7656,547.8125 Q563.7656,544.6875 565.0781,543.0313 Q566.4063,541.375 568.9063,541.375 Q569.6094,541.375 570.25,541.5313 Q570.9063,541.6875 571.4688,541.9844 L571.4688,544.7031 Q570.8438,544.125 570.25,543.8594 Q569.6563,543.5781 569.0313,543.5781 Q567.6875,543.5781 567,544.6563 Q566.3125,545.7188 566.3125,547.8125 Q566.3125,549.9063 567,550.9844 Q567.6875,552.0469 569.0313,552.0469 Q569.6563,552.0469 570.25,551.7813 Q570.8438,551.5 571.4688,550.9219 L571.4688,553.6406 Z "/><text fill="#000000" font-family="sans-serif" font-size="12" lengthAdjust="spacingAndGlyphs" textLength="99" x="582.5" y="552.1543">ImageMenuItem</text><!--MD5=[e23b679cf607d12ac81e9c5301595709]
reverse link Gnome::N::TopLevelClassSupport to Gnome::GObject::Object--><path codeLine="22" d="M717,94.1 C717,112.76 717,134.73 717,148.98 " fill="none" id="Gnome::N::TopLevelClassSupport-backto-Gnome::GObject::Object" style="stroke: #A80036; stroke-width: 1.0;"/><polygon fill="none" points="710,94.04,717,74.04,724,94.04,710,94.04" style="stroke: #A80036; stroke-width: 1.0;"/><!--MD5=[2e57c6084092ea441ae4a3f826779dd8]
reverse link Gnome::GObject::Object to Gnome::GObject::InitialyUnowned--><path codeLine="23" d="M705.84,200.63 C701.34,214.59 696.39,229.96 692.85,240.96 " fill="none" id="Gnome::GObject::Object-backto-Gnome::GObject::InitialyUnowned" style="stroke: #A80036; stroke-width: 1.0;"/><polygon fill="none" points="699.28,198.16,712.08,181.27,712.61,202.45,699.28,198.16" style="stroke: #A80036; stroke-width: 1.0;"/><!--MD5=[f8ffcf4587ba956cb48626a4231e4d21]
reverse link Gnome::GObject::Signal to Gnome::GObject::Object--><path codeLine="24" d="M665.77,165 C670.85,165 675.92,165 681,165 " fill="none" id="Gnome::GObject::Signal-backto-Gnome::GObject::Object" style="stroke: #A80036; stroke-width: 1.0; stroke-dasharray: 7.0,7.0;"/><polygon fill="none" points="665.56,172,645.56,165,665.56,158,665.56,172" style="stroke: #A80036; stroke-width: 1.0;"/><!--MD5=[aa49dbc803ccf1c2ef8546b297b1dcfd]
reverse link Gnome::GObject::InitialyUnowned to Gnome::Gtk3::Widget--><path codeLine="26" d="M678.91,292.78 C672.28,317.33 662.78,350.89 653,380 C645.93,401.04 636.46,424.88 630.29,439.92 " fill="none" id="Gnome::GObject::InitialyUnowned-backto-Gnome::Gtk3::Widget" style="stroke: #A80036; stroke-width: 1.0;"/><polygon fill="none" points="672.22,290.7,684.12,273.16,685.76,294.29,672.22,290.7" style="stroke: #A80036; stroke-width: 1.0;"/><!--MD5=[1335099fcd58edb25b444005b6858935]
reverse link Gnome::Gtk3::Buildable to Gnome::Gtk3::Widget--><path codeLine="27" d="M582.54,396.69 C592.99,411.4 604.93,428.18 613.3,439.96 " fill="none" id="Gnome::Gtk3::Buildable-backto-Gnome::Gtk3::Widget" style="stroke: #A80036; stroke-width: 1.0; stroke-dasharray: 7.0,7.0;"/><polygon fill="none" points="576.74,400.62,570.86,380.27,588.15,392.51,576.74,400.62" style="stroke: #A80036; stroke-width: 1.0;"/><!--MD5=[aaf476f5d2312b98d0ee61e81272172c]
link Gnome::Gtk3::Container to Gnome::Gtk3::Widget--><path codeLine="29" d="M551.95,456 C556.69,456 561.43,456 566.17,456 " fill="none" id="Gnome::Gtk3::Container-to-Gnome::Gtk3::Widget" style="stroke: #A80036; stroke-width: 1.0;"/><polygon fill="none" points="566.29,449,586.29,456,566.29,463,566.29,449" style="stroke: #A80036; stroke-width: 1.0;"/><!--MD5=[aa2b56f221bfaa2860ef37394f2d22b5]
link Gnome::Gtk3::Bin to Gnome::Gtk3::Container--><path codeLine="30" d="M423.91,456 C428.68,456 433.44,456 438.21,456 " fill="none" id="Gnome::Gtk3::Bin-to-Gnome::Gtk3::Container" style="stroke: #A80036; stroke-width: 1.0;"/><polygon fill="none" points="438.44,449,458.44,456,438.44,463,438.44,449" style="stroke: #A80036; stroke-width: 1.0;"/><!--MD5=[04c87dfb5996bb0be93562946801074e]
link Gnome::Gtk3::MenuItem to Gnome::Gtk3::Bin--><path codeLine="32" d="M337.81,456 C342.55,456 347.29,456 352.03,456 " fill="none" id="Gnome::Gtk3::MenuItem-to-Gnome::Gtk3::Bin" style="stroke: #A80036; stroke-width: 1.0;"/><polygon fill="none" points="352.14,449,372.14,456,352.14,463,352.14,449" style="stroke: #A80036; stroke-width: 1.0;"/><!--MD5=[954ebe7c809bcae9f7425132cd7f8f96]
reverse link Gnome::Gtk3::Actionable to Gnome::Gtk3::MenuItem--><path codeLine="33" d="M291,400.61 C291,414.31 291,429.22 291,439.96 " fill="none" id="Gnome::Gtk3::Actionable-backto-Gnome::Gtk3::MenuItem" style="stroke: #A80036; stroke-width: 1.0; stroke-dasharray: 7.0,7.0;"/><polygon fill="none" points="284,400.27,291,380.27,298,400.27,284,400.27" style="stroke: #A80036; stroke-width: 1.0;"/><!--MD5=[46375db1f25a9935910eb54ca3bf5896]
reverse link Gnome::Gtk3::MenuItem to Gnome::Gtk3::CheckMenuItem--><path codeLine="35" d="M238.75,480.28 C202.25,496.54 154.57,517.79 122.92,531.89 " fill="none" id="Gnome::Gtk3::MenuItem-backto-Gnome::Gtk3::CheckMenuItem" style="stroke: #A80036; stroke-width: 1.0;"/><polygon fill="none" points="236.07,473.81,257.19,472.06,241.77,486.6,236.07,473.81" style="stroke: #A80036; stroke-width: 1.0;"/><!--MD5=[c9f9b728fdbb550217a0e2a0de198f6f]
reverse link Gnome::Gtk3::CheckMenuItem to Gnome::Gtk3::RadioMenuItem--><path codeLine="36" d="M89,584.61 C89,598.31 89,613.22 89,623.96 " fill="none" id="Gnome::Gtk3::CheckMenuItem-backto-Gnome::Gtk3::RadioMenuItem" style="stroke: #A80036; stroke-width: 1.0;"/><polygon fill="none" points="82,584.27,89,564.27,96,584.27,82,584.27" style="stroke: #A80036; stroke-width: 1.0;"/><!--MD5=[ad8b8dba8daba0f66debae0d3806c859]
reverse link Gnome::Gtk3::MenuItem to Gnome::Gtk3::SeparatorMenuItem--><path codeLine="37" d="M282.02,492.12 C278.49,505.95 274.62,521.09 271.84,531.96 " fill="none" id="Gnome::Gtk3::MenuItem-backto-Gnome::Gtk3::SeparatorMenuItem" style="stroke: #A80036; stroke-width: 1.0;"/><polygon fill="none" points="275.36,489.91,287.1,472.27,288.93,493.38,275.36,489.91" style="stroke: #A80036; stroke-width: 1.0;"/><!--MD5=[8c08b08c99bd680a544bfb2985abc94e]
reverse link Gnome::Gtk3::MenuItem to Gnome::Gtk3::TearoffMenuItem--><path codeLine="38" d="M335.34,482.1 C363.61,498.1 399.31,518.31 423.3,531.89 " fill="none" id="Gnome::Gtk3::MenuItem-backto-Gnome::Gtk3::TearoffMenuItem" style="stroke: #A80036; stroke-width: 1.0;"/><polygon fill="none" points="331.57,488.01,317.61,472.06,338.47,475.82,331.57,488.01" style="stroke: #A80036; stroke-width: 1.0;"/><!--MD5=[002b269b26b95f9e4191da9fd1fd0853]
reverse link Gnome::Gtk3::MenuItem to Gnome::Gtk3::ImageMenuItem--><path codeLine="39" d="M357.12,475.14 C418.03,491.86 507.34,516.36 564.32,532 " fill="none" id="Gnome::Gtk3::MenuItem-backto-Gnome::Gtk3::ImageMenuItem" style="stroke: #A80036; stroke-width: 1.0;"/><polygon fill="none" points="355.08,481.84,337.65,469.8,358.79,468.34,355.08,481.84" style="stroke: #A80036; stroke-width: 1.0;"/><!--MD5=[072a69d9a6789887748db2adff1430ff]
@startuml
'scale 0.9
skinparam packageStyle rectangle
skinparam stereotypeCBackgroundColor #80ffff
set namespaceSeparator ::
hide members

'Class and interface decorations
class Gnome::N::TopLevelClassSupport < Catch all class >

Interface Gnome::GObject::Signal <Interface>
class Gnome::GObject::Signal <<(R,#80ffff)>>

Interface Gnome::Gtk3::Buildable <Interface>
class Gnome::Gtk3::Buildable <<(R,#80ffff)>>

Interface Gnome::Gtk3::Actionable <Interface>
class Gnome::Gtk3::Actionable <<(R,#80ffff)>>


'class connections
Gnome::N::TopLevelClassSupport <|- - Gnome::GObject::Object
Gnome::GObject::Object <|- - Gnome::GObject::InitialyUnowned
Gnome::GObject::Signal <|. Gnome::GObject::Object

Gnome::GObject::InitialyUnowned <|- - - Gnome::Gtk3::Widget
Gnome::Gtk3::Widget .up.|> Gnome::Gtk3::Buildable

Gnome::Gtk3::Container -|> Gnome::Gtk3::Widget
Gnome::Gtk3::Bin -|> Gnome::Gtk3::Container

Gnome::Gtk3::MenuItem -|> Gnome::Gtk3::Bin
Gnome::Gtk3::MenuItem .up.|> Gnome::Gtk3::Actionable

Gnome::Gtk3::MenuItem <|- - Gnome::Gtk3::CheckMenuItem
Gnome::Gtk3::CheckMenuItem <|- - Gnome::Gtk3::RadioMenuItem
Gnome::Gtk3::MenuItem <|- - Gnome::Gtk3::SeparatorMenuItem
Gnome::Gtk3::MenuItem <|- - Gnome::Gtk3::TearoffMenuItem
Gnome::Gtk3::MenuItem <|- - Gnome::Gtk3::ImageMenuItem

@enduml

@startuml
skinparam packageStyle rectangle
skinparam stereotypeCBackgroundColor #80ffff
set namespaceSeparator ::
hide members

class Gnome::N::TopLevelClassSupport < Catch all class >

Interface Gnome::GObject::Signal <Interface>
class Gnome::GObject::Signal <<(R,#80ffff)>>

Interface Gnome::Gtk3::Buildable <Interface>
class Gnome::Gtk3::Buildable <<(R,#80ffff)>>

Interface Gnome::Gtk3::Actionable <Interface>
class Gnome::Gtk3::Actionable <<(R,#80ffff)>>


Gnome::N::TopLevelClassSupport <|- - Gnome::GObject::Object
Gnome::GObject::Object <|- - Gnome::GObject::InitialyUnowned
Gnome::GObject::Signal <|. Gnome::GObject::Object

Gnome::GObject::InitialyUnowned <|- - - Gnome::Gtk3::Widget
Gnome::Gtk3::Widget .up.|> Gnome::Gtk3::Buildable

Gnome::Gtk3::Container -|> Gnome::Gtk3::Widget
Gnome::Gtk3::Bin -|> Gnome::Gtk3::Container

Gnome::Gtk3::MenuItem -|> Gnome::Gtk3::Bin
Gnome::Gtk3::MenuItem .up.|> Gnome::Gtk3::Actionable

Gnome::Gtk3::MenuItem <|- - Gnome::Gtk3::CheckMenuItem
Gnome::Gtk3::CheckMenuItem <|- - Gnome::Gtk3::RadioMenuItem
Gnome::Gtk3::MenuItem <|- - Gnome::Gtk3::SeparatorMenuItem
Gnome::Gtk3::MenuItem <|- - Gnome::Gtk3::TearoffMenuItem
Gnome::Gtk3::MenuItem <|- - Gnome::Gtk3::ImageMenuItem

@enduml

PlantUML version 1.2020.19(Mon Oct 12 17:10:01 CEST 2020)
(GPL source distribution)
Java Runtime: OpenJDK Runtime Environment
JVM: OpenJDK 64-Bit Server VM
Default Encoding: UTF-8
Language: en
Country: US
--></g></svg>