<?xml version="1.0" encoding="UTF-8" standalone="no"?><svg xmlns="http://www.w3.org/2000/svg" xmlns:xlink="http://www.w3.org/1999/xlink" contentScriptType="application/ecmascript" contentStyleType="text/css" height="408px" preserveAspectRatio="none" style="width:568px;height:408px;" version="1.1" viewBox="0 0 568 408" width="568px" zoomAndPan="magnify"><defs><filter height="300%" id="fp58rj3sw2ap6" width="300%" x="-1" y="-1"><feGaussianBlur result="blurOut" stdDeviation="2.0"/><feColorMatrix in="blurOut" result="blurOut2" type="matrix" values="0 0 0 0 0 0 0 0 0 0 0 0 0 0 0 0 0 0 .4 0"/><feOffset dx="4.0" dy="4.0" in="blurOut2" result="blurOut3"/><feBlend in="SourceGraphic" in2="blurOut3" mode="normal"/></filter></defs><g><!--MD5=[b969295f0ec9b4fa482091c3e26049be]
cluster Gnome::N--><rect fill="#FFFFFF" filter="url(#fp58rj3sw2ap6)" height="83" style="stroke: #000000; stroke-width: 1.5;" width="302" x="195" y="7"/><text fill="#000000" font-family="sans-serif" font-size="14" font-weight="bold" lengthAdjust="spacingAndGlyphs" textLength="79" x="306.5" y="21.9951">Gnome::N</text><!--MD5=[2fb3f9b624b0544b9841d5da78ec0508]
cluster Gnome::GObject--><rect fill="#FFFFFF" filter="url(#fp58rj3sw2ap6)" height="175" style="stroke: #000000; stroke-width: 1.5;" width="271" x="127" y="114"/><text fill="#000000" font-family="sans-serif" font-size="14" font-weight="bold" lengthAdjust="spacingAndGlyphs" textLength="131" x="197" y="128.9951">Gnome::GObject</text><!--MD5=[7d67f77911969026863717fbb204e273]
cluster Gnome::Gtk3--><rect fill="#FFFFFF" filter="url(#fp58rj3sw2ap6)" height="83" style="stroke: #000000; stroke-width: 1.5;" width="549" x="7" y="313"/><text fill="#000000" font-family="sans-serif" font-size="14" font-weight="bold" lengthAdjust="spacingAndGlyphs" textLength="105" x="229" y="327.9951">Gnome::Gtk3</text><!--MD5=[0b8e281ccd00c72019a31d78e9f95b5d]
class Gnome::N::TopLevelClassSupport--><rect codeLine="10" fill="#FEFECE" filter="url(#fp58rj3sw2ap6)" height="32" id="Gnome::N::TopLevelClassSupport" style="stroke: #A80036; stroke-width: 1.5;" width="269" x="211.5" y="42"/><ellipse cx="226.5" cy="58" fill="#80FFFF" rx="11" ry="11" style="stroke: #A80036; stroke-width: 1.0;"/><path d="M229.4688,63.6406 Q228.8906,63.9375 228.25,64.0781 Q227.6094,64.2344 226.9063,64.2344 Q224.4063,64.2344 223.0781,62.5938 Q221.7656,60.9375 221.7656,57.8125 Q221.7656,54.6875 223.0781,53.0313 Q224.4063,51.375 226.9063,51.375 Q227.6094,51.375 228.25,51.5313 Q228.9063,51.6875 229.4688,51.9844 L229.4688,54.7031 Q228.8438,54.125 228.25,53.8594 Q227.6563,53.5781 227.0313,53.5781 Q225.6875,53.5781 225,54.6563 Q224.3125,55.7188 224.3125,57.8125 Q224.3125,59.9063 225,60.9844 Q225.6875,62.0469 227.0313,62.0469 Q227.6563,62.0469 228.25,61.7813 Q228.8438,61.5 229.4688,60.9219 L229.4688,63.6406 Z "/><text fill="#000000" font-family="sans-serif" font-size="12" lengthAdjust="spacingAndGlyphs" textLength="137" x="240.5" y="62.1807">TopLevelClassSupport</text><rect fill="#FFFFFF" height="15.9688" style="stroke: #000000; stroke-width: 1.0; stroke-dasharray: 2.0,2.0;" width="98" x="385.5" y="39"/><text fill="#000000" font-family="sans-serif" font-size="12" font-style="italic" lengthAdjust="spacingAndGlyphs" textLength="88" x="390.5" y="51.1387">Catch all class</text><!--MD5=[52303d185de782118d4739c052001bf2]
class Gnome::GObject::Signal--><rect codeLine="13" fill="#FEFECE" filter="url(#fp58rj3sw2ap6)" height="32" id="Gnome::GObject::Signal" style="stroke: #A80036; stroke-width: 1.5;" width="131" x="143.5" y="149"/><ellipse cx="158.5" cy="165" fill="#80FFFF" rx="11" ry="11" style="stroke: #A80036; stroke-width: 1.0;"/><path d="M159.7031,165.1406 Q160.0625,165.2188 160.3281,165.5 Q160.6094,165.7656 161,166.5469 L163.2344,171 L160.5469,171 L159.0469,167.875 Q158.9844,167.7344 158.875,167.5 Q158.2188,166.1094 157.3281,166.1094 L156.5469,166.1094 L156.5469,171 L154.1094,171 L154.1094,158.6094 L157.6406,158.6094 Q160.0313,158.6094 161.0625,159.4531 Q162.1094,160.2969 162.1094,162.2031 Q162.1094,163.4844 161.4844,164.25 Q160.875,165 159.7031,165.1406 Z M156.5469,160.6719 L156.5469,164.0469 L157.7031,164.0469 Q158.7188,164.0469 159.1406,163.6563 Q159.5781,163.25 159.5781,162.3438 Q159.5781,161.4531 159.1406,161.0625 Q158.7188,160.6719 157.7031,160.6719 L156.5469,160.6719 Z "/><text fill="#000000" font-family="sans-serif" font-size="12" lengthAdjust="spacingAndGlyphs" textLength="38" x="172.5" y="169.1807">Signal</text><rect fill="#FFFFFF" height="15.9688" style="stroke: #000000; stroke-width: 1.0; stroke-dasharray: 2.0,2.0;" width="59" x="218.5" y="146"/><text fill="#000000" font-family="sans-serif" font-size="12" font-style="italic" lengthAdjust="spacingAndGlyphs" textLength="57" x="219.5" y="158.1387">Interface</text><!--MD5=[c2016d28441601ceb0a74f47a4537d14]
class Gnome::GObject::Object--><rect fill="#FEFECE" filter="url(#fp58rj3sw2ap6)" height="32" id="Gnome::GObject::Object" style="stroke: #A80036; stroke-width: 1.5;" width="72" x="310" y="149"/><ellipse cx="325" cy="165" fill="#80FFFF" rx="11" ry="11" style="stroke: #A80036; stroke-width: 1.0;"/><path d="M327.9688,170.6406 Q327.3906,170.9375 326.75,171.0781 Q326.1094,171.2344 325.4063,171.2344 Q322.9063,171.2344 321.5781,169.5938 Q320.2656,167.9375 320.2656,164.8125 Q320.2656,161.6875 321.5781,160.0313 Q322.9063,158.375 325.4063,158.375 Q326.1094,158.375 326.75,158.5313 Q327.4063,158.6875 327.9688,158.9844 L327.9688,161.7031 Q327.3438,161.125 326.75,160.8594 Q326.1563,160.5781 325.5313,160.5781 Q324.1875,160.5781 323.5,161.6563 Q322.8125,162.7188 322.8125,164.8125 Q322.8125,166.9063 323.5,167.9844 Q324.1875,169.0469 325.5313,169.0469 Q326.1563,169.0469 326.75,168.7813 Q327.3438,168.5 327.9688,167.9219 L327.9688,170.6406 Z "/><text fill="#000000" font-family="sans-serif" font-size="12" lengthAdjust="spacingAndGlyphs" textLength="40" x="339" y="169.1807">Object</text><!--MD5=[f47b9a4a06d3f9bed948fa39f8c5540e]
class Gnome::GObject::InitialyUnowned--><rect fill="#FEFECE" filter="url(#fp58rj3sw2ap6)" height="32" id="Gnome::GObject::InitialyUnowned" style="stroke: #A80036; stroke-width: 1.5;" width="129" x="252.5" y="241"/><ellipse cx="267.5" cy="257" fill="#80FFFF" rx="11" ry="11" style="stroke: #A80036; stroke-width: 1.0;"/><path d="M270.4688,262.6406 Q269.8906,262.9375 269.25,263.0781 Q268.6094,263.2344 267.9063,263.2344 Q265.4063,263.2344 264.0781,261.5938 Q262.7656,259.9375 262.7656,256.8125 Q262.7656,253.6875 264.0781,252.0313 Q265.4063,250.375 267.9063,250.375 Q268.6094,250.375 269.25,250.5313 Q269.9063,250.6875 270.4688,250.9844 L270.4688,253.7031 Q269.8438,253.125 269.25,252.8594 Q268.6563,252.5781 268.0313,252.5781 Q266.6875,252.5781 266,253.6563 Q265.3125,254.7188 265.3125,256.8125 Q265.3125,258.9063 266,259.9844 Q266.6875,261.0469 268.0313,261.0469 Q268.6563,261.0469 269.25,260.7813 Q269.8438,260.5 270.4688,259.9219 L270.4688,262.6406 Z "/><text fill="#000000" font-family="sans-serif" font-size="12" lengthAdjust="spacingAndGlyphs" textLength="97" x="281.5" y="261.1807">InitialyUnowned</text><!--MD5=[fc528952aa489a9a9f8514412a46a5d5]
class Gnome::Gtk3::Buildable--><rect codeLine="17" fill="#FEFECE" filter="url(#fp58rj3sw2ap6)" height="32" id="Gnome::Gtk3::Buildable" style="stroke: #A80036; stroke-width: 1.5;" width="150" x="390" y="348"/><ellipse cx="405" cy="364" fill="#80FFFF" rx="11" ry="11" style="stroke: #A80036; stroke-width: 1.0;"/><path d="M406.2031,364.1406 Q406.5625,364.2188 406.8281,364.5 Q407.1094,364.7656 407.5,365.5469 L409.7344,370 L407.0469,370 L405.5469,366.875 Q405.4844,366.7344 405.375,366.5 Q404.7188,365.1094 403.8281,365.1094 L403.0469,365.1094 L403.0469,370 L400.6094,370 L400.6094,357.6094 L404.1406,357.6094 Q406.5313,357.6094 407.5625,358.4531 Q408.6094,359.2969 408.6094,361.2031 Q408.6094,362.4844 407.9844,363.25 Q407.375,364 406.2031,364.1406 Z M403.0469,359.6719 L403.0469,363.0469 L404.2031,363.0469 Q405.2188,363.0469 405.6406,362.6563 Q406.0781,362.25 406.0781,361.3438 Q406.0781,360.4531 405.6406,360.0625 Q405.2188,359.6719 404.2031,359.6719 L403.0469,359.6719 Z "/><text fill="#000000" font-family="sans-serif" font-size="12" lengthAdjust="spacingAndGlyphs" textLength="57" x="419" y="368.1807">Buildable</text><rect fill="#FFFFFF" height="15.9688" style="stroke: #000000; stroke-width: 1.0; stroke-dasharray: 2.0,2.0;" width="59" x="484" y="345"/><text fill="#000000" font-family="sans-serif" font-size="12" font-style="italic" lengthAdjust="spacingAndGlyphs" textLength="57" x="485" y="357.1387">Interface</text><!--MD5=[99c1fd59bdfde6048aec9e6766dd53ef]
class Gnome::Gtk3::Widget--><rect fill="#FEFECE" filter="url(#fp58rj3sw2ap6)" height="32" id="Gnome::Gtk3::Widget" style="stroke: #A80036; stroke-width: 1.5;" width="75" x="279.5" y="348"/><ellipse cx="294.5" cy="364" fill="#80FFFF" rx="11" ry="11" style="stroke: #A80036; stroke-width: 1.0;"/><path d="M297.4688,369.6406 Q296.8906,369.9375 296.25,370.0781 Q295.6094,370.2344 294.9063,370.2344 Q292.4063,370.2344 291.0781,368.5938 Q289.7656,366.9375 289.7656,363.8125 Q289.7656,360.6875 291.0781,359.0313 Q292.4063,357.375 294.9063,357.375 Q295.6094,357.375 296.25,357.5313 Q296.9063,357.6875 297.4688,357.9844 L297.4688,360.7031 Q296.8438,360.125 296.25,359.8594 Q295.6563,359.5781 295.0313,359.5781 Q293.6875,359.5781 293,360.6563 Q292.3125,361.7188 292.3125,363.8125 Q292.3125,365.9063 293,366.9844 Q293.6875,368.0469 295.0313,368.0469 Q295.6563,368.0469 296.25,367.7813 Q296.8438,367.5 297.4688,366.9219 L297.4688,369.6406 Z "/><text fill="#000000" font-family="sans-serif" font-size="12" lengthAdjust="spacingAndGlyphs" textLength="43" x="308.5" y="368.1807">Widget</text><!--MD5=[9e3cc955f682d05594420e46d2e4e3ea]
class Gnome::Gtk3::Container--><rect fill="#FEFECE" filter="url(#fp58rj3sw2ap6)" height="32" id="Gnome::Gtk3::Container" style="stroke: #A80036; stroke-width: 1.5;" width="93" x="151.5" y="348"/><ellipse cx="166.5" cy="364" fill="#80FFFF" rx="11" ry="11" style="stroke: #A80036; stroke-width: 1.0;"/><path d="M169.4688,369.6406 Q168.8906,369.9375 168.25,370.0781 Q167.6094,370.2344 166.9063,370.2344 Q164.4063,370.2344 163.0781,368.5938 Q161.7656,366.9375 161.7656,363.8125 Q161.7656,360.6875 163.0781,359.0313 Q164.4063,357.375 166.9063,357.375 Q167.6094,357.375 168.25,357.5313 Q168.9063,357.6875 169.4688,357.9844 L169.4688,360.7031 Q168.8438,360.125 168.25,359.8594 Q167.6563,359.5781 167.0313,359.5781 Q165.6875,359.5781 165,360.6563 Q164.3125,361.7188 164.3125,363.8125 Q164.3125,365.9063 165,366.9844 Q165.6875,368.0469 167.0313,368.0469 Q167.6563,368.0469 168.25,367.7813 Q168.8438,367.5 169.4688,366.9219 L169.4688,369.6406 Z "/><text fill="#000000" font-family="sans-serif" font-size="12" lengthAdjust="spacingAndGlyphs" textLength="61" x="180.5" y="368.1807">Container</text><!--MD5=[5e9801ca7313824dded86cd2c066e7ad]
class Gnome::Gtk3::Notebook--><rect fill="#FEFECE" filter="url(#fp58rj3sw2ap6)" height="32" id="Gnome::Gtk3::Notebook" style="stroke: #A80036; stroke-width: 1.5;" width="93" x="23.5" y="348"/><ellipse cx="38.5" cy="364" fill="#80FFFF" rx="11" ry="11" style="stroke: #A80036; stroke-width: 1.0;"/><path d="M41.4688,369.6406 Q40.8906,369.9375 40.25,370.0781 Q39.6094,370.2344 38.9063,370.2344 Q36.4063,370.2344 35.0781,368.5938 Q33.7656,366.9375 33.7656,363.8125 Q33.7656,360.6875 35.0781,359.0313 Q36.4063,357.375 38.9063,357.375 Q39.6094,357.375 40.25,357.5313 Q40.9063,357.6875 41.4688,357.9844 L41.4688,360.7031 Q40.8438,360.125 40.25,359.8594 Q39.6563,359.5781 39.0313,359.5781 Q37.6875,359.5781 37,360.6563 Q36.3125,361.7188 36.3125,363.8125 Q36.3125,365.9063 37,366.9844 Q37.6875,368.0469 39.0313,368.0469 Q39.6563,368.0469 40.25,367.7813 Q40.8438,367.5 41.4688,366.9219 L41.4688,369.6406 Z "/><text fill="#000000" font-family="sans-serif" font-size="12" lengthAdjust="spacingAndGlyphs" textLength="61" x="52.5" y="368.1807">Notebook</text><!--MD5=[e23b679cf607d12ac81e9c5301595709]
reverse link Gnome::N::TopLevelClassSupport to Gnome::GObject::Object--><path codeLine="20" d="M346,94.1 C346,112.76 346,134.73 346,148.98 " fill="none" id="Gnome::N::TopLevelClassSupport-backto-Gnome::GObject::Object" style="stroke: #A80036; stroke-width: 1.0;"/><polygon fill="none" points="339,94.04,346,74.04,353,94.04,339,94.04" style="stroke: #A80036; stroke-width: 1.0;"/><!--MD5=[aa49dbc803ccf1c2ef8546b297b1dcfd]
reverse link Gnome::GObject::InitialyUnowned to Gnome::Gtk3::Widget--><path codeLine="21" d="M317,293.1 C317,311.76 317,333.73 317,347.98 " fill="none" id="Gnome::GObject::InitialyUnowned-backto-Gnome::Gtk3::Widget" style="stroke: #A80036; stroke-width: 1.0;"/><polygon fill="none" points="310,293.04,317,273.04,324,293.04,310,293.04" style="stroke: #A80036; stroke-width: 1.0;"/><!--MD5=[2e57c6084092ea441ae4a3f826779dd8]
reverse link Gnome::GObject::Object to Gnome::GObject::InitialyUnowned--><path codeLine="22" d="M334.84,200.63 C330.34,214.59 325.39,229.96 321.85,240.96 " fill="none" id="Gnome::GObject::Object-backto-Gnome::GObject::InitialyUnowned" style="stroke: #A80036; stroke-width: 1.0;"/><polygon fill="none" points="328.28,198.16,341.08,181.27,341.61,202.45,328.28,198.16" style="stroke: #A80036; stroke-width: 1.0;"/><!--MD5=[f8ffcf4587ba956cb48626a4231e4d21]
reverse link Gnome::GObject::Signal to Gnome::GObject::Object--><path codeLine="23" d="M294.77,165 C299.85,165 304.92,165 310,165 " fill="none" id="Gnome::GObject::Signal-backto-Gnome::GObject::Object" style="stroke: #A80036; stroke-width: 1.0; stroke-dasharray: 7.0,7.0;"/><polygon fill="none" points="294.56,172,274.56,165,294.56,158,294.56,172" style="stroke: #A80036; stroke-width: 1.0;"/><!--MD5=[e1568b3b4ceade3a3349f45f19b4c32a]
link Gnome::Gtk3::Widget to Gnome::Gtk3::Buildable--><path codeLine="25" d="M354.58,364 C359.64,364 364.71,364 369.78,364 " fill="none" id="Gnome::Gtk3::Widget-to-Gnome::Gtk3::Buildable" style="stroke: #A80036; stroke-width: 1.0; stroke-dasharray: 7.0,7.0;"/><polygon fill="none" points="369.95,357,389.95,364,369.95,371,369.95,357" style="stroke: #A80036; stroke-width: 1.0;"/><!--MD5=[aaf476f5d2312b98d0ee61e81272172c]
link Gnome::Gtk3::Container to Gnome::Gtk3::Widget--><path codeLine="26" d="M244.95,364 C249.69,364 254.43,364 259.17,364 " fill="none" id="Gnome::Gtk3::Container-to-Gnome::Gtk3::Widget" style="stroke: #A80036; stroke-width: 1.0;"/><polygon fill="none" points="259.29,357,279.29,364,259.29,371,259.29,357" style="stroke: #A80036; stroke-width: 1.0;"/><!--MD5=[6d32bc0ce55b904da4ceca90693c1255]
link Gnome::Gtk3::Notebook to Gnome::Gtk3::Container--><path codeLine="27" d="M117,364 C121.76,364 126.52,364 131.28,364 " fill="none" id="Gnome::Gtk3::Notebook-to-Gnome::Gtk3::Container" style="stroke: #A80036; stroke-width: 1.0;"/><polygon fill="none" points="131.49,357,151.49,364,131.49,371,131.49,357" style="stroke: #A80036; stroke-width: 1.0;"/><!--MD5=[d06753291831e1c74acf82e7b5377ce0]
@startuml
'scale 0.9
skinparam packageStyle rectangle
skinparam stereotypeCBackgroundColor #80ffff
set namespaceSeparator ::
hide members


'Class and interface declarations
class Gnome::N::TopLevelClassSupport < Catch all class >

Interface Gnome::GObject::Signal <Interface>
class Gnome::GObject::Signal <<(R,#80ffff)>>


Interface Gnome::Gtk3::Buildable <Interface>
class Gnome::Gtk3::Buildable <<(R,#80ffff)>>

'Class connections
Gnome::N::TopLevelClassSupport <|- - Gnome::GObject::Object
Gnome::GObject::InitialyUnowned <|- - Gnome::Gtk3::Widget
Gnome::GObject::Object <|- - Gnome::GObject::InitialyUnowned
Gnome::GObject::Signal <|. Gnome::GObject::Object

Gnome::Gtk3::Widget .|> Gnome::Gtk3::Buildable
Gnome::Gtk3::Container -|> Gnome::Gtk3::Widget
Gnome::Gtk3::Notebook -|> Gnome::Gtk3::Container


@enduml

@startuml
skinparam packageStyle rectangle
skinparam stereotypeCBackgroundColor #80ffff
set namespaceSeparator ::
hide members


class Gnome::N::TopLevelClassSupport < Catch all class >

Interface Gnome::GObject::Signal <Interface>
class Gnome::GObject::Signal <<(R,#80ffff)>>


Interface Gnome::Gtk3::Buildable <Interface>
class Gnome::Gtk3::Buildable <<(R,#80ffff)>>

Gnome::N::TopLevelClassSupport <|- - Gnome::GObject::Object
Gnome::GObject::InitialyUnowned <|- - Gnome::Gtk3::Widget
Gnome::GObject::Object <|- - Gnome::GObject::InitialyUnowned
Gnome::GObject::Signal <|. Gnome::GObject::Object

Gnome::Gtk3::Widget .|> Gnome::Gtk3::Buildable
Gnome::Gtk3::Container -|> Gnome::Gtk3::Widget
Gnome::Gtk3::Notebook -|> Gnome::Gtk3::Container


@enduml

PlantUML version 1.2020.19(Mon Oct 12 17:10:01 CEST 2020)
(GPL source distribution)
Java Runtime: OpenJDK Runtime Environment
JVM: OpenJDK 64-Bit Server VM
Default Encoding: UTF-8
Language: en
Country: null
--></g></svg>