<?xml version="1.0" encoding="UTF-8" standalone="no"?><svg xmlns="http://www.w3.org/2000/svg" xmlns:xlink="http://www.w3.org/1999/xlink" contentScriptType="application/ecmascript" contentStyleType="text/css" height="500px" preserveAspectRatio="none" style="width:755px;height:500px;" version="1.1" viewBox="0 0 755 500" width="755px" zoomAndPan="magnify"><defs><filter height="300%" id="fer5dhljmahsb" width="300%" x="-1" y="-1"><feGaussianBlur result="blurOut" stdDeviation="2.0"/><feColorMatrix in="blurOut" result="blurOut2" type="matrix" values="0 0 0 0 0 0 0 0 0 0 0 0 0 0 0 0 0 0 .4 0"/><feOffset dx="4.0" dy="4.0" in="blurOut2" result="blurOut3"/><feBlend in="SourceGraphic" in2="blurOut3" mode="normal"/></filter></defs><g><!--MD5=[b969295f0ec9b4fa482091c3e26049be]
cluster Gnome::N--><rect fill="#FFFFFF" filter="url(#fer5dhljmahsb)" height="83" style="stroke: #000000; stroke-width: 1.5;" width="302" x="441" y="7"/><text fill="#000000" font-family="sans-serif" font-size="14" font-weight="bold" lengthAdjust="spacingAndGlyphs" textLength="79" x="552.5" y="21.9951">Gnome::N</text><!--MD5=[2fb3f9b624b0544b9841d5da78ec0508]
cluster Gnome::GObject--><rect fill="#FFFFFF" filter="url(#fer5dhljmahsb)" height="175" style="stroke: #000000; stroke-width: 1.5;" width="271" x="373" y="114"/><text fill="#000000" font-family="sans-serif" font-size="14" font-weight="bold" lengthAdjust="spacingAndGlyphs" textLength="131" x="443" y="128.9951">Gnome::GObject</text><!--MD5=[7d67f77911969026863717fbb204e273]
cluster Gnome::Gtk3--><rect fill="#FFFFFF" filter="url(#fer5dhljmahsb)" height="175" style="stroke: #000000; stroke-width: 1.5;" width="610" x="7" y="313"/><text fill="#000000" font-family="sans-serif" font-size="14" font-weight="bold" lengthAdjust="spacingAndGlyphs" textLength="105" x="259.5" y="327.9951">Gnome::Gtk3</text><!--MD5=[0b8e281ccd00c72019a31d78e9f95b5d]
class Gnome::N::TopLevelClassSupport--><rect codeLine="9" fill="#FEFECE" filter="url(#fer5dhljmahsb)" height="32" id="Gnome::N::TopLevelClassSupport" style="stroke: #A80036; stroke-width: 1.5;" width="269" x="457.5" y="42"/><ellipse cx="472.5" cy="58" fill="#80FFFF" rx="11" ry="11" style="stroke: #A80036; stroke-width: 1.0;"/><path d="M475.4688,63.6406 Q474.8906,63.9375 474.25,64.0781 Q473.6094,64.2344 472.9063,64.2344 Q470.4063,64.2344 469.0781,62.5938 Q467.7656,60.9375 467.7656,57.8125 Q467.7656,54.6875 469.0781,53.0313 Q470.4063,51.375 472.9063,51.375 Q473.6094,51.375 474.25,51.5313 Q474.9063,51.6875 475.4688,51.9844 L475.4688,54.7031 Q474.8438,54.125 474.25,53.8594 Q473.6563,53.5781 473.0313,53.5781 Q471.6875,53.5781 471,54.6563 Q470.3125,55.7188 470.3125,57.8125 Q470.3125,59.9063 471,60.9844 Q471.6875,62.0469 473.0313,62.0469 Q473.6563,62.0469 474.25,61.7813 Q474.8438,61.5 475.4688,60.9219 L475.4688,63.6406 Z "/><text fill="#000000" font-family="sans-serif" font-size="12" lengthAdjust="spacingAndGlyphs" textLength="137" x="486.5" y="62.1543">TopLevelClassSupport</text><rect fill="#FFFFFF" height="15.9688" style="stroke: #000000; stroke-width: 1.0; stroke-dasharray: 2.0,2.0;" width="98" x="631.5" y="39"/><text fill="#000000" font-family="sans-serif" font-size="12" font-style="italic" lengthAdjust="spacingAndGlyphs" textLength="88" x="636.5" y="51.1387">Catch all class</text><!--MD5=[52303d185de782118d4739c052001bf2]
class Gnome::GObject::Signal--><rect codeLine="12" fill="#FEFECE" filter="url(#fer5dhljmahsb)" height="32" id="Gnome::GObject::Signal" style="stroke: #A80036; stroke-width: 1.5;" width="131" x="389.5" y="149"/><ellipse cx="404.5" cy="165" fill="#80FFFF" rx="11" ry="11" style="stroke: #A80036; stroke-width: 1.0;"/><path d="M405.7031,165.1406 Q406.0625,165.2188 406.3281,165.5 Q406.6094,165.7656 407,166.5469 L409.2344,171 L406.5469,171 L405.0469,167.875 Q404.9844,167.7344 404.875,167.5 Q404.2188,166.1094 403.3281,166.1094 L402.5469,166.1094 L402.5469,171 L400.1094,171 L400.1094,158.6094 L403.6406,158.6094 Q406.0313,158.6094 407.0625,159.4531 Q408.1094,160.2969 408.1094,162.2031 Q408.1094,163.4844 407.4844,164.25 Q406.875,165 405.7031,165.1406 Z M402.5469,160.6719 L402.5469,164.0469 L403.7031,164.0469 Q404.7188,164.0469 405.1406,163.6563 Q405.5781,163.25 405.5781,162.3438 Q405.5781,161.4531 405.1406,161.0625 Q404.7188,160.6719 403.7031,160.6719 L402.5469,160.6719 Z "/><text fill="#000000" font-family="sans-serif" font-size="12" lengthAdjust="spacingAndGlyphs" textLength="38" x="418.5" y="169.1543">Signal</text><rect fill="#FFFFFF" height="15.9688" style="stroke: #000000; stroke-width: 1.0; stroke-dasharray: 2.0,2.0;" width="59" x="464.5" y="146"/><text fill="#000000" font-family="sans-serif" font-size="12" font-style="italic" lengthAdjust="spacingAndGlyphs" textLength="57" x="465.5" y="158.1387">Interface</text><!--MD5=[c2016d28441601ceb0a74f47a4537d14]
class Gnome::GObject::Object--><rect fill="#FEFECE" filter="url(#fer5dhljmahsb)" height="32" id="Gnome::GObject::Object" style="stroke: #A80036; stroke-width: 1.5;" width="72" x="556" y="149"/><ellipse cx="571" cy="165" fill="#80FFFF" rx="11" ry="11" style="stroke: #A80036; stroke-width: 1.0;"/><path d="M573.9688,170.6406 Q573.3906,170.9375 572.75,171.0781 Q572.1094,171.2344 571.4063,171.2344 Q568.9063,171.2344 567.5781,169.5938 Q566.2656,167.9375 566.2656,164.8125 Q566.2656,161.6875 567.5781,160.0313 Q568.9063,158.375 571.4063,158.375 Q572.1094,158.375 572.75,158.5313 Q573.4063,158.6875 573.9688,158.9844 L573.9688,161.7031 Q573.3438,161.125 572.75,160.8594 Q572.1563,160.5781 571.5313,160.5781 Q570.1875,160.5781 569.5,161.6563 Q568.8125,162.7188 568.8125,164.8125 Q568.8125,166.9063 569.5,167.9844 Q570.1875,169.0469 571.5313,169.0469 Q572.1563,169.0469 572.75,168.7813 Q573.3438,168.5 573.9688,167.9219 L573.9688,170.6406 Z "/><text fill="#000000" font-family="sans-serif" font-size="12" lengthAdjust="spacingAndGlyphs" textLength="40" x="585" y="169.1543">Object</text><!--MD5=[f47b9a4a06d3f9bed948fa39f8c5540e]
class Gnome::GObject::InitialyUnowned--><rect fill="#FEFECE" filter="url(#fer5dhljmahsb)" height="32" id="Gnome::GObject::InitialyUnowned" style="stroke: #A80036; stroke-width: 1.5;" width="129" x="498.5" y="241"/><ellipse cx="513.5" cy="257" fill="#80FFFF" rx="11" ry="11" style="stroke: #A80036; stroke-width: 1.0;"/><path d="M516.4688,262.6406 Q515.8906,262.9375 515.25,263.0781 Q514.6094,263.2344 513.9063,263.2344 Q511.4063,263.2344 510.0781,261.5938 Q508.7656,259.9375 508.7656,256.8125 Q508.7656,253.6875 510.0781,252.0313 Q511.4063,250.375 513.9063,250.375 Q514.6094,250.375 515.25,250.5313 Q515.9063,250.6875 516.4688,250.9844 L516.4688,253.7031 Q515.8438,253.125 515.25,252.8594 Q514.6563,252.5781 514.0313,252.5781 Q512.6875,252.5781 512,253.6563 Q511.3125,254.7188 511.3125,256.8125 Q511.3125,258.9063 512,259.9844 Q512.6875,261.0469 514.0313,261.0469 Q514.6563,261.0469 515.25,260.7813 Q515.8438,260.5 516.4688,259.9219 L516.4688,262.6406 Z "/><text fill="#000000" font-family="sans-serif" font-size="12" lengthAdjust="spacingAndGlyphs" textLength="97" x="527.5" y="261.1543">InitialyUnowned</text><!--MD5=[fc528952aa489a9a9f8514412a46a5d5]
class Gnome::Gtk3::Buildable--><rect codeLine="15" fill="#FEFECE" filter="url(#fer5dhljmahsb)" height="32" id="Gnome::Gtk3::Buildable" style="stroke: #A80036; stroke-width: 1.5;" width="150" x="451" y="440"/><ellipse cx="466" cy="456" fill="#80FFFF" rx="11" ry="11" style="stroke: #A80036; stroke-width: 1.0;"/><path d="M467.2031,456.1406 Q467.5625,456.2188 467.8281,456.5 Q468.1094,456.7656 468.5,457.5469 L470.7344,462 L468.0469,462 L466.5469,458.875 Q466.4844,458.7344 466.375,458.5 Q465.7188,457.1094 464.8281,457.1094 L464.0469,457.1094 L464.0469,462 L461.6094,462 L461.6094,449.6094 L465.1406,449.6094 Q467.5313,449.6094 468.5625,450.4531 Q469.6094,451.2969 469.6094,453.2031 Q469.6094,454.4844 468.9844,455.25 Q468.375,456 467.2031,456.1406 Z M464.0469,451.6719 L464.0469,455.0469 L465.2031,455.0469 Q466.2188,455.0469 466.6406,454.6563 Q467.0781,454.25 467.0781,453.3438 Q467.0781,452.4531 466.6406,452.0625 Q466.2188,451.6719 465.2031,451.6719 L464.0469,451.6719 Z "/><text fill="#000000" font-family="sans-serif" font-size="12" lengthAdjust="spacingAndGlyphs" textLength="57" x="480" y="460.1543">Buildable</text><rect fill="#FFFFFF" height="15.9688" style="stroke: #000000; stroke-width: 1.0; stroke-dasharray: 2.0,2.0;" width="59" x="545" y="437"/><text fill="#000000" font-family="sans-serif" font-size="12" font-style="italic" lengthAdjust="spacingAndGlyphs" textLength="57" x="546" y="449.1387">Interface</text><!--MD5=[99c1fd59bdfde6048aec9e6766dd53ef]
class Gnome::Gtk3::Widget--><rect fill="#FEFECE" filter="url(#fer5dhljmahsb)" height="32" id="Gnome::Gtk3::Widget" style="stroke: #A80036; stroke-width: 1.5;" width="75" x="525.5" y="348"/><ellipse cx="540.5" cy="364" fill="#80FFFF" rx="11" ry="11" style="stroke: #A80036; stroke-width: 1.0;"/><path d="M543.4688,369.6406 Q542.8906,369.9375 542.25,370.0781 Q541.6094,370.2344 540.9063,370.2344 Q538.4063,370.2344 537.0781,368.5938 Q535.7656,366.9375 535.7656,363.8125 Q535.7656,360.6875 537.0781,359.0313 Q538.4063,357.375 540.9063,357.375 Q541.6094,357.375 542.25,357.5313 Q542.9063,357.6875 543.4688,357.9844 L543.4688,360.7031 Q542.8438,360.125 542.25,359.8594 Q541.6563,359.5781 541.0313,359.5781 Q539.6875,359.5781 539,360.6563 Q538.3125,361.7188 538.3125,363.8125 Q538.3125,365.9063 539,366.9844 Q539.6875,368.0469 541.0313,368.0469 Q541.6563,368.0469 542.25,367.7813 Q542.8438,367.5 543.4688,366.9219 L543.4688,369.6406 Z "/><text fill="#000000" font-family="sans-serif" font-size="12" lengthAdjust="spacingAndGlyphs" textLength="43" x="554.5" y="368.1543">Widget</text><!--MD5=[8475d959d77acc346db561b49952bf1a]
class Gnome::Gtk3::Window--><rect fill="#FEFECE" filter="url(#fer5dhljmahsb)" height="32" id="Gnome::Gtk3::Window" style="stroke: #A80036; stroke-width: 1.5;" width="79" x="197.5" y="348"/><ellipse cx="212.5" cy="364" fill="#80FFFF" rx="11" ry="11" style="stroke: #A80036; stroke-width: 1.0;"/><path d="M215.4688,369.6406 Q214.8906,369.9375 214.25,370.0781 Q213.6094,370.2344 212.9063,370.2344 Q210.4063,370.2344 209.0781,368.5938 Q207.7656,366.9375 207.7656,363.8125 Q207.7656,360.6875 209.0781,359.0313 Q210.4063,357.375 212.9063,357.375 Q213.6094,357.375 214.25,357.5313 Q214.9063,357.6875 215.4688,357.9844 L215.4688,360.7031 Q214.8438,360.125 214.25,359.8594 Q213.6563,359.5781 213.0313,359.5781 Q211.6875,359.5781 211,360.6563 Q210.3125,361.7188 210.3125,363.8125 Q210.3125,365.9063 211,366.9844 Q211.6875,368.0469 213.0313,368.0469 Q213.6563,368.0469 214.25,367.7813 Q214.8438,367.5 215.4688,366.9219 L215.4688,369.6406 Z "/><text fill="#000000" font-family="sans-serif" font-size="12" lengthAdjust="spacingAndGlyphs" textLength="47" x="226.5" y="368.1543">Window</text><!--MD5=[6ac0a199e9a9e53d446254a1d59f3468]
class Gnome::Gtk3::Bin--><rect fill="#FEFECE" filter="url(#fer5dhljmahsb)" height="32" id="Gnome::Gtk3::Bin" style="stroke: #A80036; stroke-width: 1.5;" width="51" x="311.5" y="348"/><ellipse cx="326.5" cy="364" fill="#80FFFF" rx="11" ry="11" style="stroke: #A80036; stroke-width: 1.0;"/><path d="M329.4688,369.6406 Q328.8906,369.9375 328.25,370.0781 Q327.6094,370.2344 326.9063,370.2344 Q324.4063,370.2344 323.0781,368.5938 Q321.7656,366.9375 321.7656,363.8125 Q321.7656,360.6875 323.0781,359.0313 Q324.4063,357.375 326.9063,357.375 Q327.6094,357.375 328.25,357.5313 Q328.9063,357.6875 329.4688,357.9844 L329.4688,360.7031 Q328.8438,360.125 328.25,359.8594 Q327.6563,359.5781 327.0313,359.5781 Q325.6875,359.5781 325,360.6563 Q324.3125,361.7188 324.3125,363.8125 Q324.3125,365.9063 325,366.9844 Q325.6875,368.0469 327.0313,368.0469 Q327.6563,368.0469 328.25,367.7813 Q328.8438,367.5 329.4688,366.9219 L329.4688,369.6406 Z "/><text fill="#000000" font-family="sans-serif" font-size="12" lengthAdjust="spacingAndGlyphs" textLength="19" x="340.5" y="368.1543">Bin</text><!--MD5=[9e3cc955f682d05594420e46d2e4e3ea]
class Gnome::Gtk3::Container--><rect fill="#FEFECE" filter="url(#fer5dhljmahsb)" height="32" id="Gnome::Gtk3::Container" style="stroke: #A80036; stroke-width: 1.5;" width="93" x="397.5" y="348"/><ellipse cx="412.5" cy="364" fill="#80FFFF" rx="11" ry="11" style="stroke: #A80036; stroke-width: 1.0;"/><path d="M415.4688,369.6406 Q414.8906,369.9375 414.25,370.0781 Q413.6094,370.2344 412.9063,370.2344 Q410.4063,370.2344 409.0781,368.5938 Q407.7656,366.9375 407.7656,363.8125 Q407.7656,360.6875 409.0781,359.0313 Q410.4063,357.375 412.9063,357.375 Q413.6094,357.375 414.25,357.5313 Q414.9063,357.6875 415.4688,357.9844 L415.4688,360.7031 Q414.8438,360.125 414.25,359.8594 Q413.6563,359.5781 413.0313,359.5781 Q411.6875,359.5781 411,360.6563 Q410.3125,361.7188 410.3125,363.8125 Q410.3125,365.9063 411,366.9844 Q411.6875,368.0469 413.0313,368.0469 Q413.6563,368.0469 414.25,367.7813 Q414.8438,367.5 415.4688,366.9219 L415.4688,369.6406 Z "/><text fill="#000000" font-family="sans-serif" font-size="12" lengthAdjust="spacingAndGlyphs" textLength="61" x="426.5" y="368.1543">Container</text><!--MD5=[a3c65537bb086c07d35969864a3d31f4]
class Gnome::Gtk3::OffscreenWindow--><rect fill="#FEFECE" filter="url(#fer5dhljmahsb)" height="32" id="Gnome::Gtk3::OffscreenWindow" style="stroke: #A80036; stroke-width: 1.5;" width="139" x="23.5" y="348"/><ellipse cx="38.5" cy="364" fill="#80FFFF" rx="11" ry="11" style="stroke: #A80036; stroke-width: 1.0;"/><path d="M41.4688,369.6406 Q40.8906,369.9375 40.25,370.0781 Q39.6094,370.2344 38.9063,370.2344 Q36.4063,370.2344 35.0781,368.5938 Q33.7656,366.9375 33.7656,363.8125 Q33.7656,360.6875 35.0781,359.0313 Q36.4063,357.375 38.9063,357.375 Q39.6094,357.375 40.25,357.5313 Q40.9063,357.6875 41.4688,357.9844 L41.4688,360.7031 Q40.8438,360.125 40.25,359.8594 Q39.6563,359.5781 39.0313,359.5781 Q37.6875,359.5781 37,360.6563 Q36.3125,361.7188 36.3125,363.8125 Q36.3125,365.9063 37,366.9844 Q37.6875,368.0469 39.0313,368.0469 Q39.6563,368.0469 40.25,367.7813 Q40.8438,367.5 41.4688,366.9219 L41.4688,369.6406 Z "/><text fill="#000000" font-family="sans-serif" font-size="12" lengthAdjust="spacingAndGlyphs" textLength="107" x="52.5" y="368.1543">OffscreenWindow</text><!--MD5=[e23b679cf607d12ac81e9c5301595709]
reverse link Gnome::N::TopLevelClassSupport to Gnome::GObject::Object--><path codeLine="19" d="M592,94.1 C592,112.76 592,134.73 592,148.98 " fill="none" id="Gnome::N::TopLevelClassSupport-backto-Gnome::GObject::Object" style="stroke: #A80036; stroke-width: 1.0;"/><polygon fill="none" points="585,94.04,592,74.04,599,94.04,585,94.04" style="stroke: #A80036; stroke-width: 1.0;"/><!--MD5=[2e57c6084092ea441ae4a3f826779dd8]
reverse link Gnome::GObject::Object to Gnome::GObject::InitialyUnowned--><path codeLine="20" d="M580.84,200.63 C576.34,214.59 571.39,229.96 567.85,240.96 " fill="none" id="Gnome::GObject::Object-backto-Gnome::GObject::InitialyUnowned" style="stroke: #A80036; stroke-width: 1.0;"/><polygon fill="none" points="574.28,198.16,587.08,181.27,587.61,202.45,574.28,198.16" style="stroke: #A80036; stroke-width: 1.0;"/><!--MD5=[f8ffcf4587ba956cb48626a4231e4d21]
reverse link Gnome::GObject::Signal to Gnome::GObject::Object--><path codeLine="21" d="M540.77,165 C545.85,165 550.92,165 556,165 " fill="none" id="Gnome::GObject::Signal-backto-Gnome::GObject::Object" style="stroke: #A80036; stroke-width: 1.0; stroke-dasharray: 7.0,7.0;"/><polygon fill="none" points="540.56,172,520.56,165,540.56,158,540.56,172" style="stroke: #A80036; stroke-width: 1.0;"/><!--MD5=[aa49dbc803ccf1c2ef8546b297b1dcfd]
reverse link Gnome::GObject::InitialyUnowned to Gnome::Gtk3::Widget--><path codeLine="23" d="M563,293.1 C563,311.76 563,333.73 563,347.98 " fill="none" id="Gnome::GObject::InitialyUnowned-backto-Gnome::Gtk3::Widget" style="stroke: #A80036; stroke-width: 1.0;"/><polygon fill="none" points="556,293.04,563,273.04,570,293.04,556,293.04" style="stroke: #A80036; stroke-width: 1.0;"/><!--MD5=[e1568b3b4ceade3a3349f45f19b4c32a]
link Gnome::Gtk3::Widget to Gnome::Gtk3::Buildable--><path codeLine="25" d="M556.72,380.27 C552.12,391.45 545.7,407.08 539.92,421.15 " fill="none" id="Gnome::Gtk3::Widget-to-Gnome::Gtk3::Buildable" style="stroke: #A80036; stroke-width: 1.0; stroke-dasharray: 7.0,7.0;"/><polygon fill="none" points="546.26,424.12,532.18,439.96,533.31,418.8,546.26,424.12" style="stroke: #A80036; stroke-width: 1.0;"/><!--MD5=[933f665365ad6e2aa8fe50645ba3b70c]
link Gnome::Gtk3::Window to Gnome::Gtk3::Bin--><path codeLine="26" d="M276.84,364 C281.58,364 286.31,364 291.05,364 " fill="none" id="Gnome::Gtk3::Window-to-Gnome::Gtk3::Bin" style="stroke: #A80036; stroke-width: 1.0;"/><polygon fill="none" points="291.15,357,311.15,364,291.15,371,291.15,357" style="stroke: #A80036; stroke-width: 1.0;"/><!--MD5=[aa2b56f221bfaa2860ef37394f2d22b5]
link Gnome::Gtk3::Bin to Gnome::Gtk3::Container--><path codeLine="27" d="M362.91,364 C367.68,364 372.44,364 377.21,364 " fill="none" id="Gnome::Gtk3::Bin-to-Gnome::Gtk3::Container" style="stroke: #A80036; stroke-width: 1.0;"/><polygon fill="none" points="377.44,357,397.44,364,377.44,371,377.44,357" style="stroke: #A80036; stroke-width: 1.0;"/><!--MD5=[aaf476f5d2312b98d0ee61e81272172c]
link Gnome::Gtk3::Container to Gnome::Gtk3::Widget--><path codeLine="28" d="M490.95,364 C495.69,364 500.43,364 505.17,364 " fill="none" id="Gnome::Gtk3::Container-to-Gnome::Gtk3::Widget" style="stroke: #A80036; stroke-width: 1.0;"/><polygon fill="none" points="505.29,357,525.29,364,505.29,371,505.29,357" style="stroke: #A80036; stroke-width: 1.0;"/><!--MD5=[0072cbea763110d202a947cbf05929ab]
link Gnome::Gtk3::OffscreenWindow to Gnome::Gtk3::Window--><path codeLine="30" d="M162.75,364 C167.51,364 172.28,364 177.04,364 " fill="none" id="Gnome::Gtk3::OffscreenWindow-to-Gnome::Gtk3::Window" style="stroke: #A80036; stroke-width: 1.0;"/><polygon fill="none" points="177.26,357,197.26,364,177.26,371,177.26,357" style="stroke: #A80036; stroke-width: 1.0;"/><!--MD5=[17cd2fc54cc4bbcfcea8312750ddfe70]
@startuml
'scale 0.8
skinparam packageStyle rectangle
skinparam stereotypeCBackgroundColor #80ffff
set namespaceSeparator ::
hide members

'Class and interface decorations
class Gnome::N::TopLevelClassSupport < Catch all class >

Interface Gnome::GObject::Signal <Interface>
class Gnome::GObject::Signal <<(R,#80ffff)>>

Interface Gnome::Gtk3::Buildable <Interface>
class Gnome::Gtk3::Buildable <<(R,#80ffff)>>


'Class connections
Gnome::N::TopLevelClassSupport <|- - Gnome::GObject::Object
Gnome::GObject::Object <|- - Gnome::GObject::InitialyUnowned
Gnome::GObject::Signal <|. Gnome::GObject::Object

Gnome::GObject::InitialyUnowned <|- - Gnome::Gtk3::Widget

Gnome::Gtk3::Widget ..|> Gnome::Gtk3::Buildable
Gnome::Gtk3::Window -|> Gnome::Gtk3::Bin
Gnome::Gtk3::Bin -|> Gnome::Gtk3::Container
Gnome::Gtk3::Container -|> Gnome::Gtk3::Widget

Gnome::Gtk3::OffscreenWindow -|> Gnome::Gtk3::Window
@enduml

@startuml
skinparam packageStyle rectangle
skinparam stereotypeCBackgroundColor #80ffff
set namespaceSeparator ::
hide members

class Gnome::N::TopLevelClassSupport < Catch all class >

Interface Gnome::GObject::Signal <Interface>
class Gnome::GObject::Signal <<(R,#80ffff)>>

Interface Gnome::Gtk3::Buildable <Interface>
class Gnome::Gtk3::Buildable <<(R,#80ffff)>>


Gnome::N::TopLevelClassSupport <|- - Gnome::GObject::Object
Gnome::GObject::Object <|- - Gnome::GObject::InitialyUnowned
Gnome::GObject::Signal <|. Gnome::GObject::Object

Gnome::GObject::InitialyUnowned <|- - Gnome::Gtk3::Widget

Gnome::Gtk3::Widget ..|> Gnome::Gtk3::Buildable
Gnome::Gtk3::Window -|> Gnome::Gtk3::Bin
Gnome::Gtk3::Bin -|> Gnome::Gtk3::Container
Gnome::Gtk3::Container -|> Gnome::Gtk3::Widget

Gnome::Gtk3::OffscreenWindow -|> Gnome::Gtk3::Window
@enduml

PlantUML version 1.2020.19(Mon Oct 12 17:10:01 CEST 2020)
(GPL source distribution)
Java Runtime: OpenJDK Runtime Environment
JVM: OpenJDK 64-Bit Server VM
Default Encoding: UTF-8
Language: en
Country: null
--></g></svg>