<?xml version="1.0" encoding="UTF-8" standalone="no"?><svg xmlns="http://www.w3.org/2000/svg" xmlns:xlink="http://www.w3.org/1999/xlink" contentScriptType="application/ecmascript" contentStyleType="text/css" height="500px" preserveAspectRatio="none" style="width:691px;height:500px;" version="1.1" viewBox="0 0 691 500" width="691px" zoomAndPan="magnify"><defs><filter height="300%" id="f1hw8l70b6pcyc" width="300%" x="-1" y="-1"><feGaussianBlur result="blurOut" stdDeviation="2.0"/><feColorMatrix in="blurOut" result="blurOut2" type="matrix" values="0 0 0 0 0 0 0 0 0 0 0 0 0 0 0 0 0 0 .4 0"/><feOffset dx="4.0" dy="4.0" in="blurOut2" result="blurOut3"/><feBlend in="SourceGraphic" in2="blurOut3" mode="normal"/></filter></defs><g><!--MD5=[b969295f0ec9b4fa482091c3e26049be]
cluster Gnome::N--><rect fill="#FFFFFF" filter="url(#f1hw8l70b6pcyc)" height="83" style="stroke: #000000; stroke-width: 1.5;" width="302" x="377" y="7"/><text fill="#000000" font-family="sans-serif" font-size="14" font-weight="bold" lengthAdjust="spacingAndGlyphs" textLength="79" x="488.5" y="21.9951">Gnome::N</text><!--MD5=[2fb3f9b624b0544b9841d5da78ec0508]
cluster Gnome::GObject--><rect fill="#FFFFFF" filter="url(#f1hw8l70b6pcyc)" height="175" style="stroke: #000000; stroke-width: 1.5;" width="271" x="309" y="114"/><text fill="#000000" font-family="sans-serif" font-size="14" font-weight="bold" lengthAdjust="spacingAndGlyphs" textLength="131" x="379" y="128.9951">Gnome::GObject</text><!--MD5=[7d67f77911969026863717fbb204e273]
cluster Gnome::Gtk3--><rect fill="#FFFFFF" filter="url(#f1hw8l70b6pcyc)" height="175" style="stroke: #000000; stroke-width: 1.5;" width="555" x="7" y="313"/><text fill="#000000" font-family="sans-serif" font-size="14" font-weight="bold" lengthAdjust="spacingAndGlyphs" textLength="105" x="232" y="327.9951">Gnome::Gtk3</text><!--MD5=[0b8e281ccd00c72019a31d78e9f95b5d]
class Gnome::N::TopLevelClassSupport--><rect codeLine="10" fill="#FEFECE" filter="url(#f1hw8l70b6pcyc)" height="32" id="Gnome::N::TopLevelClassSupport" style="stroke: #A80036; stroke-width: 1.5;" width="269" x="393.5" y="42"/><ellipse cx="408.5" cy="58" fill="#80FFFF" rx="11" ry="11" style="stroke: #A80036; stroke-width: 1.0;"/><path d="M411.4688,63.6406 Q410.8906,63.9375 410.25,64.0781 Q409.6094,64.2344 408.9063,64.2344 Q406.4063,64.2344 405.0781,62.5938 Q403.7656,60.9375 403.7656,57.8125 Q403.7656,54.6875 405.0781,53.0313 Q406.4063,51.375 408.9063,51.375 Q409.6094,51.375 410.25,51.5313 Q410.9063,51.6875 411.4688,51.9844 L411.4688,54.7031 Q410.8438,54.125 410.25,53.8594 Q409.6563,53.5781 409.0313,53.5781 Q407.6875,53.5781 407,54.6563 Q406.3125,55.7188 406.3125,57.8125 Q406.3125,59.9063 407,60.9844 Q407.6875,62.0469 409.0313,62.0469 Q409.6563,62.0469 410.25,61.7813 Q410.8438,61.5 411.4688,60.9219 L411.4688,63.6406 Z "/><text fill="#000000" font-family="sans-serif" font-size="12" lengthAdjust="spacingAndGlyphs" textLength="137" x="422.5" y="62.1807">TopLevelClassSupport</text><rect fill="#FFFFFF" height="15.9688" style="stroke: #000000; stroke-width: 1.0; stroke-dasharray: 2.0,2.0;" width="98" x="567.5" y="39"/><text fill="#000000" font-family="sans-serif" font-size="12" font-style="italic" lengthAdjust="spacingAndGlyphs" textLength="88" x="572.5" y="51.1387">Catch all class</text><!--MD5=[52303d185de782118d4739c052001bf2]
class Gnome::GObject::Signal--><rect codeLine="13" fill="#FEFECE" filter="url(#f1hw8l70b6pcyc)" height="32" id="Gnome::GObject::Signal" style="stroke: #A80036; stroke-width: 1.5;" width="131" x="325.5" y="149"/><ellipse cx="340.5" cy="165" fill="#80FFFF" rx="11" ry="11" style="stroke: #A80036; stroke-width: 1.0;"/><path d="M341.7031,165.1406 Q342.0625,165.2188 342.3281,165.5 Q342.6094,165.7656 343,166.5469 L345.2344,171 L342.5469,171 L341.0469,167.875 Q340.9844,167.7344 340.875,167.5 Q340.2188,166.1094 339.3281,166.1094 L338.5469,166.1094 L338.5469,171 L336.1094,171 L336.1094,158.6094 L339.6406,158.6094 Q342.0313,158.6094 343.0625,159.4531 Q344.1094,160.2969 344.1094,162.2031 Q344.1094,163.4844 343.4844,164.25 Q342.875,165 341.7031,165.1406 Z M338.5469,160.6719 L338.5469,164.0469 L339.7031,164.0469 Q340.7188,164.0469 341.1406,163.6563 Q341.5781,163.25 341.5781,162.3438 Q341.5781,161.4531 341.1406,161.0625 Q340.7188,160.6719 339.7031,160.6719 L338.5469,160.6719 Z "/><text fill="#000000" font-family="sans-serif" font-size="12" lengthAdjust="spacingAndGlyphs" textLength="38" x="354.5" y="169.1807">Signal</text><rect fill="#FFFFFF" height="15.9688" style="stroke: #000000; stroke-width: 1.0; stroke-dasharray: 2.0,2.0;" width="59" x="400.5" y="146"/><text fill="#000000" font-family="sans-serif" font-size="12" font-style="italic" lengthAdjust="spacingAndGlyphs" textLength="57" x="401.5" y="158.1387">Interface</text><!--MD5=[c2016d28441601ceb0a74f47a4537d14]
class Gnome::GObject::Object--><rect fill="#FEFECE" filter="url(#f1hw8l70b6pcyc)" height="32" id="Gnome::GObject::Object" style="stroke: #A80036; stroke-width: 1.5;" width="72" x="492" y="149"/><ellipse cx="507" cy="165" fill="#80FFFF" rx="11" ry="11" style="stroke: #A80036; stroke-width: 1.0;"/><path d="M509.9688,170.6406 Q509.3906,170.9375 508.75,171.0781 Q508.1094,171.2344 507.4063,171.2344 Q504.9063,171.2344 503.5781,169.5938 Q502.2656,167.9375 502.2656,164.8125 Q502.2656,161.6875 503.5781,160.0313 Q504.9063,158.375 507.4063,158.375 Q508.1094,158.375 508.75,158.5313 Q509.4063,158.6875 509.9688,158.9844 L509.9688,161.7031 Q509.3438,161.125 508.75,160.8594 Q508.1563,160.5781 507.5313,160.5781 Q506.1875,160.5781 505.5,161.6563 Q504.8125,162.7188 504.8125,164.8125 Q504.8125,166.9063 505.5,167.9844 Q506.1875,169.0469 507.5313,169.0469 Q508.1563,169.0469 508.75,168.7813 Q509.3438,168.5 509.9688,167.9219 L509.9688,170.6406 Z "/><text fill="#000000" font-family="sans-serif" font-size="12" lengthAdjust="spacingAndGlyphs" textLength="40" x="521" y="169.1807">Object</text><!--MD5=[f47b9a4a06d3f9bed948fa39f8c5540e]
class Gnome::GObject::InitialyUnowned--><rect fill="#FEFECE" filter="url(#f1hw8l70b6pcyc)" height="32" id="Gnome::GObject::InitialyUnowned" style="stroke: #A80036; stroke-width: 1.5;" width="129" x="434.5" y="241"/><ellipse cx="449.5" cy="257" fill="#80FFFF" rx="11" ry="11" style="stroke: #A80036; stroke-width: 1.0;"/><path d="M452.4688,262.6406 Q451.8906,262.9375 451.25,263.0781 Q450.6094,263.2344 449.9063,263.2344 Q447.4063,263.2344 446.0781,261.5938 Q444.7656,259.9375 444.7656,256.8125 Q444.7656,253.6875 446.0781,252.0313 Q447.4063,250.375 449.9063,250.375 Q450.6094,250.375 451.25,250.5313 Q451.9063,250.6875 452.4688,250.9844 L452.4688,253.7031 Q451.8438,253.125 451.25,252.8594 Q450.6563,252.5781 450.0313,252.5781 Q448.6875,252.5781 448,253.6563 Q447.3125,254.7188 447.3125,256.8125 Q447.3125,258.9063 448,259.9844 Q448.6875,261.0469 450.0313,261.0469 Q450.6563,261.0469 451.25,260.7813 Q451.8438,260.5 452.4688,259.9219 L452.4688,262.6406 Z "/><text fill="#000000" font-family="sans-serif" font-size="12" lengthAdjust="spacingAndGlyphs" textLength="97" x="463.5" y="261.1807">InitialyUnowned</text><!--MD5=[fc528952aa489a9a9f8514412a46a5d5]
class Gnome::Gtk3::Buildable--><rect codeLine="16" fill="#FEFECE" filter="url(#f1hw8l70b6pcyc)" height="32" id="Gnome::Gtk3::Buildable" style="stroke: #A80036; stroke-width: 1.5;" width="150" x="276" y="348"/><ellipse cx="291" cy="364" fill="#80FFFF" rx="11" ry="11" style="stroke: #A80036; stroke-width: 1.0;"/><path d="M292.2031,364.1406 Q292.5625,364.2188 292.8281,364.5 Q293.1094,364.7656 293.5,365.5469 L295.7344,370 L293.0469,370 L291.5469,366.875 Q291.4844,366.7344 291.375,366.5 Q290.7188,365.1094 289.8281,365.1094 L289.0469,365.1094 L289.0469,370 L286.6094,370 L286.6094,357.6094 L290.1406,357.6094 Q292.5313,357.6094 293.5625,358.4531 Q294.6094,359.2969 294.6094,361.2031 Q294.6094,362.4844 293.9844,363.25 Q293.375,364 292.2031,364.1406 Z M289.0469,359.6719 L289.0469,363.0469 L290.2031,363.0469 Q291.2188,363.0469 291.6406,362.6563 Q292.0781,362.25 292.0781,361.3438 Q292.0781,360.4531 291.6406,360.0625 Q291.2188,359.6719 290.2031,359.6719 L289.0469,359.6719 Z "/><text fill="#000000" font-family="sans-serif" font-size="12" lengthAdjust="spacingAndGlyphs" textLength="57" x="305" y="368.1807">Buildable</text><rect fill="#FFFFFF" height="15.9688" style="stroke: #000000; stroke-width: 1.0; stroke-dasharray: 2.0,2.0;" width="59" x="370" y="345"/><text fill="#000000" font-family="sans-serif" font-size="12" font-style="italic" lengthAdjust="spacingAndGlyphs" textLength="57" x="371" y="357.1387">Interface</text><!--MD5=[4844df09287523d46884dd428a1a7470]
class Gnome::Gtk3::RecentChooser--><rect codeLine="19" fill="#FEFECE" filter="url(#f1hw8l70b6pcyc)" height="32" id="Gnome::Gtk3::RecentChooser" style="stroke: #A80036; stroke-width: 1.5;" width="189" x="23.5" y="348"/><ellipse cx="38.5" cy="364" fill="#80FFFF" rx="11" ry="11" style="stroke: #A80036; stroke-width: 1.0;"/><path d="M39.7031,364.1406 Q40.0625,364.2188 40.3281,364.5 Q40.6094,364.7656 41,365.5469 L43.2344,370 L40.5469,370 L39.0469,366.875 Q38.9844,366.7344 38.875,366.5 Q38.2188,365.1094 37.3281,365.1094 L36.5469,365.1094 L36.5469,370 L34.1094,370 L34.1094,357.6094 L37.6406,357.6094 Q40.0313,357.6094 41.0625,358.4531 Q42.1094,359.2969 42.1094,361.2031 Q42.1094,362.4844 41.4844,363.25 Q40.875,364 39.7031,364.1406 Z M36.5469,359.6719 L36.5469,363.0469 L37.7031,363.0469 Q38.7188,363.0469 39.1406,362.6563 Q39.5781,362.25 39.5781,361.3438 Q39.5781,360.4531 39.1406,360.0625 Q38.7188,359.6719 37.7031,359.6719 L36.5469,359.6719 Z "/><text fill="#000000" font-family="sans-serif" font-size="12" lengthAdjust="spacingAndGlyphs" textLength="96" x="52.5" y="368.1807">RecentChooser</text><rect fill="#FFFFFF" height="15.9688" style="stroke: #000000; stroke-width: 1.0; stroke-dasharray: 2.0,2.0;" width="59" x="156.5" y="345"/><text fill="#000000" font-family="sans-serif" font-size="12" font-style="italic" lengthAdjust="spacingAndGlyphs" textLength="57" x="157.5" y="357.1387">Interface</text><!--MD5=[99c1fd59bdfde6048aec9e6766dd53ef]
class Gnome::Gtk3::Widget--><rect fill="#FEFECE" filter="url(#f1hw8l70b6pcyc)" height="32" id="Gnome::Gtk3::Widget" style="stroke: #A80036; stroke-width: 1.5;" width="75" x="461.5" y="348"/><ellipse cx="476.5" cy="364" fill="#80FFFF" rx="11" ry="11" style="stroke: #A80036; stroke-width: 1.0;"/><path d="M479.4688,369.6406 Q478.8906,369.9375 478.25,370.0781 Q477.6094,370.2344 476.9063,370.2344 Q474.4063,370.2344 473.0781,368.5938 Q471.7656,366.9375 471.7656,363.8125 Q471.7656,360.6875 473.0781,359.0313 Q474.4063,357.375 476.9063,357.375 Q477.6094,357.375 478.25,357.5313 Q478.9063,357.6875 479.4688,357.9844 L479.4688,360.7031 Q478.8438,360.125 478.25,359.8594 Q477.6563,359.5781 477.0313,359.5781 Q475.6875,359.5781 475,360.6563 Q474.3125,361.7188 474.3125,363.8125 Q474.3125,365.9063 475,366.9844 Q475.6875,368.0469 477.0313,368.0469 Q477.6563,368.0469 478.25,367.7813 Q478.8438,367.5 479.4688,366.9219 L479.4688,369.6406 Z "/><text fill="#000000" font-family="sans-serif" font-size="12" lengthAdjust="spacingAndGlyphs" textLength="43" x="490.5" y="368.1807">Widget</text><!--MD5=[9e3cc955f682d05594420e46d2e4e3ea]
class Gnome::Gtk3::Container--><rect fill="#FEFECE" filter="url(#f1hw8l70b6pcyc)" height="32" id="Gnome::Gtk3::Container" style="stroke: #A80036; stroke-width: 1.5;" width="93" x="452.5" y="440"/><ellipse cx="467.5" cy="456" fill="#80FFFF" rx="11" ry="11" style="stroke: #A80036; stroke-width: 1.0;"/><path d="M470.4688,461.6406 Q469.8906,461.9375 469.25,462.0781 Q468.6094,462.2344 467.9063,462.2344 Q465.4063,462.2344 464.0781,460.5938 Q462.7656,458.9375 462.7656,455.8125 Q462.7656,452.6875 464.0781,451.0313 Q465.4063,449.375 467.9063,449.375 Q468.6094,449.375 469.25,449.5313 Q469.9063,449.6875 470.4688,449.9844 L470.4688,452.7031 Q469.8438,452.125 469.25,451.8594 Q468.6563,451.5781 468.0313,451.5781 Q466.6875,451.5781 466,452.6563 Q465.3125,453.7188 465.3125,455.8125 Q465.3125,457.9063 466,458.9844 Q466.6875,460.0469 468.0313,460.0469 Q468.6563,460.0469 469.25,459.7813 Q469.8438,459.5 470.4688,458.9219 L470.4688,461.6406 Z "/><text fill="#000000" font-family="sans-serif" font-size="12" lengthAdjust="spacingAndGlyphs" textLength="61" x="481.5" y="460.1807">Container</text><!--MD5=[e176ae33d29eaf49f872c929e0f63c9f]
class Gnome::Gtk3::MenuShell--><rect fill="#FEFECE" filter="url(#f1hw8l70b6pcyc)" height="32" id="Gnome::Gtk3::MenuShell" style="stroke: #A80036; stroke-width: 1.5;" width="96" x="321" y="440"/><ellipse cx="336" cy="456" fill="#80FFFF" rx="11" ry="11" style="stroke: #A80036; stroke-width: 1.0;"/><path d="M338.9688,461.6406 Q338.3906,461.9375 337.75,462.0781 Q337.1094,462.2344 336.4063,462.2344 Q333.9063,462.2344 332.5781,460.5938 Q331.2656,458.9375 331.2656,455.8125 Q331.2656,452.6875 332.5781,451.0313 Q333.9063,449.375 336.4063,449.375 Q337.1094,449.375 337.75,449.5313 Q338.4063,449.6875 338.9688,449.9844 L338.9688,452.7031 Q338.3438,452.125 337.75,451.8594 Q337.1563,451.5781 336.5313,451.5781 Q335.1875,451.5781 334.5,452.6563 Q333.8125,453.7188 333.8125,455.8125 Q333.8125,457.9063 334.5,458.9844 Q335.1875,460.0469 336.5313,460.0469 Q337.1563,460.0469 337.75,459.7813 Q338.3438,459.5 338.9688,458.9219 L338.9688,461.6406 Z "/><text fill="#000000" font-family="sans-serif" font-size="12" lengthAdjust="spacingAndGlyphs" textLength="64" x="350" y="460.1807">MenuShell</text><!--MD5=[934f9b7ed99f810f1aa36b0a6ba0af82]
class Gnome::Gtk3::Menu--><rect fill="#FEFECE" filter="url(#f1hw8l70b6pcyc)" height="32" id="Gnome::Gtk3::Menu" style="stroke: #A80036; stroke-width: 1.5;" width="66" x="220" y="440"/><ellipse cx="235" cy="456" fill="#80FFFF" rx="11" ry="11" style="stroke: #A80036; stroke-width: 1.0;"/><path d="M237.9688,461.6406 Q237.3906,461.9375 236.75,462.0781 Q236.1094,462.2344 235.4063,462.2344 Q232.9063,462.2344 231.5781,460.5938 Q230.2656,458.9375 230.2656,455.8125 Q230.2656,452.6875 231.5781,451.0313 Q232.9063,449.375 235.4063,449.375 Q236.1094,449.375 236.75,449.5313 Q237.4063,449.6875 237.9688,449.9844 L237.9688,452.7031 Q237.3438,452.125 236.75,451.8594 Q236.1563,451.5781 235.5313,451.5781 Q234.1875,451.5781 233.5,452.6563 Q232.8125,453.7188 232.8125,455.8125 Q232.8125,457.9063 233.5,458.9844 Q234.1875,460.0469 235.5313,460.0469 Q236.1563,460.0469 236.75,459.7813 Q237.3438,459.5 237.9688,458.9219 L237.9688,461.6406 Z "/><text fill="#000000" font-family="sans-serif" font-size="12" lengthAdjust="spacingAndGlyphs" textLength="34" x="249" y="460.1807">Menu</text><!--MD5=[431b2f18cf2607ded4ef46718d61a6e4]
class Gnome::Gtk3::RecentChooserMenu--><rect fill="#FEFECE" filter="url(#f1hw8l70b6pcyc)" height="32" id="Gnome::Gtk3::RecentChooserMenu" style="stroke: #A80036; stroke-width: 1.5;" width="162" x="23" y="440"/><ellipse cx="38" cy="456" fill="#80FFFF" rx="11" ry="11" style="stroke: #A80036; stroke-width: 1.0;"/><path d="M40.9688,461.6406 Q40.3906,461.9375 39.75,462.0781 Q39.1094,462.2344 38.4063,462.2344 Q35.9063,462.2344 34.5781,460.5938 Q33.2656,458.9375 33.2656,455.8125 Q33.2656,452.6875 34.5781,451.0313 Q35.9063,449.375 38.4063,449.375 Q39.1094,449.375 39.75,449.5313 Q40.4063,449.6875 40.9688,449.9844 L40.9688,452.7031 Q40.3438,452.125 39.75,451.8594 Q39.1563,451.5781 38.5313,451.5781 Q37.1875,451.5781 36.5,452.6563 Q35.8125,453.7188 35.8125,455.8125 Q35.8125,457.9063 36.5,458.9844 Q37.1875,460.0469 38.5313,460.0469 Q39.1563,460.0469 39.75,459.7813 Q40.3438,459.5 40.9688,458.9219 L40.9688,461.6406 Z "/><text fill="#000000" font-family="sans-serif" font-size="12" lengthAdjust="spacingAndGlyphs" textLength="130" x="52" y="460.1807">RecentChooserMenu</text><!--MD5=[e23b679cf607d12ac81e9c5301595709]
reverse link Gnome::N::TopLevelClassSupport to Gnome::GObject::Object--><path codeLine="23" d="M528,94.1 C528,112.76 528,134.73 528,148.98 " fill="none" id="Gnome::N::TopLevelClassSupport-backto-Gnome::GObject::Object" style="stroke: #A80036; stroke-width: 1.0;"/><polygon fill="none" points="521,94.04,528,74.04,535,94.04,521,94.04" style="stroke: #A80036; stroke-width: 1.0;"/><!--MD5=[aa49dbc803ccf1c2ef8546b297b1dcfd]
reverse link Gnome::GObject::InitialyUnowned to Gnome::Gtk3::Widget--><path codeLine="24" d="M499,293.1 C499,311.76 499,333.73 499,347.98 " fill="none" id="Gnome::GObject::InitialyUnowned-backto-Gnome::Gtk3::Widget" style="stroke: #A80036; stroke-width: 1.0;"/><polygon fill="none" points="492,293.04,499,273.04,506,293.04,492,293.04" style="stroke: #A80036; stroke-width: 1.0;"/><!--MD5=[2e57c6084092ea441ae4a3f826779dd8]
reverse link Gnome::GObject::Object to Gnome::GObject::InitialyUnowned--><path codeLine="25" d="M516.84,200.63 C512.34,214.59 507.39,229.96 503.85,240.96 " fill="none" id="Gnome::GObject::Object-backto-Gnome::GObject::InitialyUnowned" style="stroke: #A80036; stroke-width: 1.0;"/><polygon fill="none" points="510.28,198.16,523.08,181.27,523.61,202.45,510.28,198.16" style="stroke: #A80036; stroke-width: 1.0;"/><!--MD5=[f8ffcf4587ba956cb48626a4231e4d21]
reverse link Gnome::GObject::Signal to Gnome::GObject::Object--><path codeLine="26" d="M476.77,165 C481.85,165 486.92,165 492,165 " fill="none" id="Gnome::GObject::Signal-backto-Gnome::GObject::Object" style="stroke: #A80036; stroke-width: 1.0; stroke-dasharray: 7.0,7.0;"/><polygon fill="none" points="476.56,172,456.56,165,476.56,158,476.56,172" style="stroke: #A80036; stroke-width: 1.0;"/><!--MD5=[1335099fcd58edb25b444005b6858935]
reverse link Gnome::Gtk3::Buildable to Gnome::Gtk3::Widget--><path codeLine="28" d="M446.28,364 C451.33,364 456.39,364 461.44,364 " fill="none" id="Gnome::Gtk3::Buildable-backto-Gnome::Gtk3::Widget" style="stroke: #A80036; stroke-width: 1.0; stroke-dasharray: 7.0,7.0;"/><polygon fill="none" points="446.16,371,426.16,364,446.16,357,446.16,371" style="stroke: #A80036; stroke-width: 1.0;"/><!--MD5=[940ddf52f8156166e52a90b7ba66cda5]
reverse link Gnome::Gtk3::Widget to Gnome::Gtk3::Container--><path codeLine="29" d="M499,400.61 C499,414.31 499,429.22 499,439.96 " fill="none" id="Gnome::Gtk3::Widget-backto-Gnome::Gtk3::Container" style="stroke: #A80036; stroke-width: 1.0;"/><polygon fill="none" points="492,400.27,499,380.27,506,400.27,492,400.27" style="stroke: #A80036; stroke-width: 1.0;"/><!--MD5=[63c1fd3664d265debb099d65c31d3dd6]
link Gnome::Gtk3::MenuShell to Gnome::Gtk3::Container--><path codeLine="31" d="M417.24,456 C422.27,456 427.31,456 432.34,456 " fill="none" id="Gnome::Gtk3::MenuShell-to-Gnome::Gtk3::Container" style="stroke: #A80036; stroke-width: 1.0;"/><polygon fill="none" points="432.37,449,452.37,456,432.37,463,432.37,449" style="stroke: #A80036; stroke-width: 1.0;"/><!--MD5=[29c3fc732035a18d234ebf3d12400151]
link Gnome::Gtk3::Menu to Gnome::Gtk3::MenuShell--><path codeLine="32" d="M286.08,456 C290.95,456 295.83,456 300.7,456 " fill="none" id="Gnome::Gtk3::Menu-to-Gnome::Gtk3::MenuShell" style="stroke: #A80036; stroke-width: 1.0;"/><polygon fill="none" points="300.74,449,320.74,456,300.74,463,300.74,449" style="stroke: #A80036; stroke-width: 1.0;"/><!--MD5=[f442fd258f10ddd3de0b9237f68d034e]
link Gnome::Gtk3::RecentChooserMenu to Gnome::Gtk3::Menu--><path codeLine="33" d="M185.19,456 C190.07,456 194.95,456 199.83,456 " fill="none" id="Gnome::Gtk3::RecentChooserMenu-to-Gnome::Gtk3::Menu" style="stroke: #A80036; stroke-width: 1.0;"/><polygon fill="none" points="199.89,449,219.89,456,199.89,463,199.89,449" style="stroke: #A80036; stroke-width: 1.0;"/><!--MD5=[51d4f83eac421296548a6f2ea08658d5]
reverse link Gnome::Gtk3::RecentChooser to Gnome::Gtk3::RecentChooserMenu--><path codeLine="34" d="M112.54,400.12 C110.39,413.95 108.03,429.09 106.34,439.96 " fill="none" id="Gnome::Gtk3::RecentChooser-backto-Gnome::Gtk3::RecentChooserMenu" style="stroke: #A80036; stroke-width: 1.0; stroke-dasharray: 7.0,7.0;"/><polygon fill="none" points="105.63,398.95,115.63,380.27,119.47,401.11,105.63,398.95" style="stroke: #A80036; stroke-width: 1.0;"/><!--MD5=[15ccc34e2cef62d7b5afc2c755100a5a]
@startuml
'scale 0.9
skinparam packageStyle rectangle
skinparam stereotypeCBackgroundColor #80ffff
set namespaceSeparator ::
hide members


'Class and interface declarations
class Gnome::N::TopLevelClassSupport < Catch all class >

Interface Gnome::GObject::Signal <Interface>
class Gnome::GObject::Signal <<(R,#80ffff)>>

Interface Gnome::Gtk3::Buildable <Interface>
class Gnome::Gtk3::Buildable <<(R,#80ffff)>>

Interface Gnome::Gtk3::RecentChooser <Interface>
class Gnome::Gtk3::RecentChooser <<(R,#80ffff)>>


'Class connections
Gnome::N::TopLevelClassSupport <|- - Gnome::GObject::Object
Gnome::GObject::InitialyUnowned <|- - Gnome::Gtk3::Widget
Gnome::GObject::Object <|- - Gnome::GObject::InitialyUnowned
Gnome::GObject::Signal <|. Gnome::GObject::Object

Gnome::Gtk3::Buildable <|. Gnome::Gtk3::Widget
Gnome::Gtk3::Widget <|- - Gnome::Gtk3::Container

Gnome::Gtk3::MenuShell -|> Gnome::Gtk3::Container
Gnome::Gtk3::Menu -|> Gnome::Gtk3::MenuShell
Gnome::Gtk3::RecentChooserMenu -|> Gnome::Gtk3::Menu
Gnome::Gtk3::RecentChooser <|.. Gnome::Gtk3::RecentChooserMenu

@enduml

@startuml
skinparam packageStyle rectangle
skinparam stereotypeCBackgroundColor #80ffff
set namespaceSeparator ::
hide members


class Gnome::N::TopLevelClassSupport < Catch all class >

Interface Gnome::GObject::Signal <Interface>
class Gnome::GObject::Signal <<(R,#80ffff)>>

Interface Gnome::Gtk3::Buildable <Interface>
class Gnome::Gtk3::Buildable <<(R,#80ffff)>>

Interface Gnome::Gtk3::RecentChooser <Interface>
class Gnome::Gtk3::RecentChooser <<(R,#80ffff)>>


Gnome::N::TopLevelClassSupport <|- - Gnome::GObject::Object
Gnome::GObject::InitialyUnowned <|- - Gnome::Gtk3::Widget
Gnome::GObject::Object <|- - Gnome::GObject::InitialyUnowned
Gnome::GObject::Signal <|. Gnome::GObject::Object

Gnome::Gtk3::Buildable <|. Gnome::Gtk3::Widget
Gnome::Gtk3::Widget <|- - Gnome::Gtk3::Container

Gnome::Gtk3::MenuShell -|> Gnome::Gtk3::Container
Gnome::Gtk3::Menu -|> Gnome::Gtk3::MenuShell
Gnome::Gtk3::RecentChooserMenu -|> Gnome::Gtk3::Menu
Gnome::Gtk3::RecentChooser <|.. Gnome::Gtk3::RecentChooserMenu

@enduml

PlantUML version 1.2020.19(Mon Oct 12 17:10:01 CEST 2020)
(GPL source distribution)
Java Runtime: OpenJDK Runtime Environment
JVM: OpenJDK 64-Bit Server VM
Default Encoding: UTF-8
Language: en
Country: null
--></g></svg>