<?xml version="1.0" encoding="UTF-8" standalone="no"?><svg xmlns="http://www.w3.org/2000/svg" xmlns:xlink="http://www.w3.org/1999/xlink" contentScriptType="application/ecmascript" contentStyleType="text/css" height="554px" preserveAspectRatio="none" style="width:713px;height:554px;" version="1.1" viewBox="0 0 713 554" width="713px" zoomAndPan="magnify"><defs><filter height="300%" id="fh0cdd9umb5rz" width="300%" x="-1" y="-1"><feGaussianBlur result="blurOut" stdDeviation="2.0"/><feColorMatrix in="blurOut" result="blurOut2" type="matrix" values="0 0 0 0 0 0 0 0 0 0 0 0 0 0 0 0 0 0 .4 0"/><feOffset dx="4.0" dy="4.0" in="blurOut2" result="blurOut3"/><feBlend in="SourceGraphic" in2="blurOut3" mode="normal"/></filter></defs><g><!--cluster Gnome::N--><rect fill="#FFFFFF" filter="url(#fh0cdd9umb5rz)" height="67" style="stroke: #000000; stroke-width: 1.5;" width="286" x="416" y="16"/><text fill="#000000" font-family="sans-serif" font-size="14" font-weight="bold" lengthAdjust="spacingAndGlyphs" textLength="79" x="519.5" y="30.9951">Gnome::N</text><!--cluster Gnome::GObject--><rect fill="#FFFFFF" filter="url(#fh0cdd9umb5rz)" height="251" style="stroke: #000000; stroke-width: 1.5;" width="148" x="366" y="108"/><text fill="#000000" font-family="sans-serif" font-size="14" font-weight="bold" lengthAdjust="spacingAndGlyphs" textLength="131" x="374.5" y="122.9951">Gnome::GObject</text><!--cluster Gnome::Gtk3--><rect fill="#FFFFFF" filter="url(#fh0cdd9umb5rz)" height="159" style="stroke: #000000; stroke-width: 1.5;" width="427" x="14" y="384"/><text fill="#000000" font-family="sans-serif" font-size="14" font-weight="bold" lengthAdjust="spacingAndGlyphs" textLength="105" x="175" y="398.9951">Gnome::Gtk3</text><!--class Gnome::N::TopLevelClassSupport--><rect fill="#FEFECE" filter="url(#fh0cdd9umb5rz)" height="32" id="Gnome::N::TopLevelClassSupport" style="stroke: #A80036; stroke-width: 1.5;" width="269" x="424.5" y="43"/><ellipse cx="439.5" cy="59" fill="#80FFFF" rx="11" ry="11" style="stroke: #A80036; stroke-width: 1.0;"/><path d="M442.4688,64.6406 Q441.8906,64.9375 441.25,65.0781 Q440.6094,65.2344 439.9063,65.2344 Q437.4063,65.2344 436.0781,63.5938 Q434.7656,61.9375 434.7656,58.8125 Q434.7656,55.6875 436.0781,54.0313 Q437.4063,52.375 439.9063,52.375 Q440.6094,52.375 441.25,52.5313 Q441.9063,52.6875 442.4688,52.9844 L442.4688,55.7031 Q441.8438,55.125 441.25,54.8594 Q440.6563,54.5781 440.0313,54.5781 Q438.6875,54.5781 438,55.6563 Q437.3125,56.7188 437.3125,58.8125 Q437.3125,60.9063 438,61.9844 Q438.6875,63.0469 440.0313,63.0469 Q440.6563,63.0469 441.25,62.7813 Q441.8438,62.5 442.4688,61.9219 L442.4688,64.6406 Z "/><text fill="#000000" font-family="sans-serif" font-size="12" lengthAdjust="spacingAndGlyphs" textLength="137" x="453.5" y="63.1807">TopLevelClassSupport</text><rect fill="#FFFFFF" height="15.9688" style="stroke: #000000; stroke-width: 1.0; stroke-dasharray: 2.0,2.0;" width="98" x="598.5" y="40"/><text fill="#000000" font-family="sans-serif" font-size="12" font-style="italic" lengthAdjust="spacingAndGlyphs" textLength="88" x="603.5" y="52.1387">Catch all class</text><!--class Gnome::GObject::Object--><rect fill="#FEFECE" filter="url(#fh0cdd9umb5rz)" height="32" id="Gnome::GObject::Object" style="stroke: #A80036; stroke-width: 1.5;" width="72" x="404" y="227"/><ellipse cx="419" cy="243" fill="#80FFFF" rx="11" ry="11" style="stroke: #A80036; stroke-width: 1.0;"/><path d="M421.9688,248.6406 Q421.3906,248.9375 420.75,249.0781 Q420.1094,249.2344 419.4063,249.2344 Q416.9063,249.2344 415.5781,247.5938 Q414.2656,245.9375 414.2656,242.8125 Q414.2656,239.6875 415.5781,238.0313 Q416.9063,236.375 419.4063,236.375 Q420.1094,236.375 420.75,236.5313 Q421.4063,236.6875 421.9688,236.9844 L421.9688,239.7031 Q421.3438,239.125 420.75,238.8594 Q420.1563,238.5781 419.5313,238.5781 Q418.1875,238.5781 417.5,239.6563 Q416.8125,240.7188 416.8125,242.8125 Q416.8125,244.9063 417.5,245.9844 Q418.1875,247.0469 419.5313,247.0469 Q420.1563,247.0469 420.75,246.7813 Q421.3438,246.5 421.9688,245.9219 L421.9688,248.6406 Z "/><text fill="#000000" font-family="sans-serif" font-size="12" lengthAdjust="spacingAndGlyphs" textLength="40" x="433" y="247.1807">Object</text><!--class Gnome::GObject::Signal--><rect fill="#FEFECE" filter="url(#fh0cdd9umb5rz)" height="32" id="Gnome::GObject::Signal" style="stroke: #A80036; stroke-width: 1.5;" width="131" x="374.5" y="135"/><ellipse cx="389.5" cy="151" fill="#80FFFF" rx="11" ry="11" style="stroke: #A80036; stroke-width: 1.0;"/><path d="M390.7031,151.1406 Q391.0625,151.2188 391.3281,151.5 Q391.6094,151.7656 392,152.5469 L394.2344,157 L391.5469,157 L390.0469,153.875 Q389.9844,153.7344 389.875,153.5 Q389.2188,152.1094 388.3281,152.1094 L387.5469,152.1094 L387.5469,157 L385.1094,157 L385.1094,144.6094 L388.6406,144.6094 Q391.0313,144.6094 392.0625,145.4531 Q393.1094,146.2969 393.1094,148.2031 Q393.1094,149.4844 392.4844,150.25 Q391.875,151 390.7031,151.1406 Z M387.5469,146.6719 L387.5469,150.0469 L388.7031,150.0469 Q389.7188,150.0469 390.1406,149.6563 Q390.5781,149.25 390.5781,148.3438 Q390.5781,147.4531 390.1406,147.0625 Q389.7188,146.6719 388.7031,146.6719 L387.5469,146.6719 Z "/><text fill="#000000" font-family="sans-serif" font-size="12" lengthAdjust="spacingAndGlyphs" textLength="38" x="403.5" y="155.1807">Signal</text><rect fill="#FFFFFF" height="15.9688" style="stroke: #000000; stroke-width: 1.0; stroke-dasharray: 2.0,2.0;" width="59" x="449.5" y="132"/><text fill="#000000" font-family="sans-serif" font-size="12" font-style="italic" lengthAdjust="spacingAndGlyphs" textLength="57" x="450.5" y="144.1387">Interface</text><!--class Gnome::GObject::InitialyUnowned--><rect fill="#FEFECE" filter="url(#fh0cdd9umb5rz)" height="32" id="Gnome::GObject::InitialyUnowned" style="stroke: #A80036; stroke-width: 1.5;" width="129" x="375.5" y="319"/><ellipse cx="390.5" cy="335" fill="#80FFFF" rx="11" ry="11" style="stroke: #A80036; stroke-width: 1.0;"/><path d="M393.4688,340.6406 Q392.8906,340.9375 392.25,341.0781 Q391.6094,341.2344 390.9063,341.2344 Q388.4063,341.2344 387.0781,339.5938 Q385.7656,337.9375 385.7656,334.8125 Q385.7656,331.6875 387.0781,330.0313 Q388.4063,328.375 390.9063,328.375 Q391.6094,328.375 392.25,328.5313 Q392.9063,328.6875 393.4688,328.9844 L393.4688,331.7031 Q392.8438,331.125 392.25,330.8594 Q391.6563,330.5781 391.0313,330.5781 Q389.6875,330.5781 389,331.6563 Q388.3125,332.7188 388.3125,334.8125 Q388.3125,336.9063 389,337.9844 Q389.6875,339.0469 391.0313,339.0469 Q391.6563,339.0469 392.25,338.7813 Q392.8438,338.5 393.4688,337.9219 L393.4688,340.6406 Z "/><text fill="#000000" font-family="sans-serif" font-size="12" lengthAdjust="spacingAndGlyphs" textLength="97" x="404.5" y="339.1807">InitialyUnowned</text><!--class Gnome::Gtk3::Widget--><rect fill="#FEFECE" filter="url(#fh0cdd9umb5rz)" height="32" id="Gnome::Gtk3::Widget" style="stroke: #A80036; stroke-width: 1.5;" width="75" x="357.5" y="503"/><ellipse cx="372.5" cy="519" fill="#80FFFF" rx="11" ry="11" style="stroke: #A80036; stroke-width: 1.0;"/><path d="M375.4688,524.6406 Q374.8906,524.9375 374.25,525.0781 Q373.6094,525.2344 372.9063,525.2344 Q370.4063,525.2344 369.0781,523.5938 Q367.7656,521.9375 367.7656,518.8125 Q367.7656,515.6875 369.0781,514.0313 Q370.4063,512.375 372.9063,512.375 Q373.6094,512.375 374.25,512.5313 Q374.9063,512.6875 375.4688,512.9844 L375.4688,515.7031 Q374.8438,515.125 374.25,514.8594 Q373.6563,514.5781 373.0313,514.5781 Q371.6875,514.5781 371,515.6563 Q370.3125,516.7188 370.3125,518.8125 Q370.3125,520.9063 371,521.9844 Q371.6875,523.0469 373.0313,523.0469 Q373.6563,523.0469 374.25,522.7813 Q374.8438,522.5 375.4688,521.9219 L375.4688,524.6406 Z "/><text fill="#000000" font-family="sans-serif" font-size="12" lengthAdjust="spacingAndGlyphs" textLength="43" x="386.5" y="523.1807">Widget</text><!--class Gnome::Gtk3::Buildable--><rect fill="#FEFECE" filter="url(#fh0cdd9umb5rz)" height="32" id="Gnome::Gtk3::Buildable" style="stroke: #A80036; stroke-width: 1.5;" width="150" x="237" y="411"/><ellipse cx="252" cy="427" fill="#80FFFF" rx="11" ry="11" style="stroke: #A80036; stroke-width: 1.0;"/><path d="M253.2031,427.1406 Q253.5625,427.2188 253.8281,427.5 Q254.1094,427.7656 254.5,428.5469 L256.7344,433 L254.0469,433 L252.5469,429.875 Q252.4844,429.7344 252.375,429.5 Q251.7188,428.1094 250.8281,428.1094 L250.0469,428.1094 L250.0469,433 L247.6094,433 L247.6094,420.6094 L251.1406,420.6094 Q253.5313,420.6094 254.5625,421.4531 Q255.6094,422.2969 255.6094,424.2031 Q255.6094,425.4844 254.9844,426.25 Q254.375,427 253.2031,427.1406 Z M250.0469,422.6719 L250.0469,426.0469 L251.2031,426.0469 Q252.2188,426.0469 252.6406,425.6563 Q253.0781,425.25 253.0781,424.3438 Q253.0781,423.4531 252.6406,423.0625 Q252.2188,422.6719 251.2031,422.6719 L250.0469,422.6719 Z "/><text fill="#000000" font-family="sans-serif" font-size="12" lengthAdjust="spacingAndGlyphs" textLength="57" x="266" y="431.1807">Buildable</text><rect fill="#FFFFFF" height="15.9688" style="stroke: #000000; stroke-width: 1.0; stroke-dasharray: 2.0,2.0;" width="59" x="331" y="408"/><text fill="#000000" font-family="sans-serif" font-size="12" font-style="italic" lengthAdjust="spacingAndGlyphs" textLength="57" x="332" y="420.1387">Interface</text><!--class Gnome::Gtk3::Revealer--><rect fill="#FEFECE" filter="url(#fh0cdd9umb5rz)" height="32" id="Gnome::Gtk3::Revealer" style="stroke: #A80036; stroke-width: 1.5;" width="86" x="22" y="503"/><ellipse cx="37" cy="519" fill="#80FFFF" rx="11" ry="11" style="stroke: #A80036; stroke-width: 1.0;"/><path d="M39.9688,524.6406 Q39.3906,524.9375 38.75,525.0781 Q38.1094,525.2344 37.4063,525.2344 Q34.9063,525.2344 33.5781,523.5938 Q32.2656,521.9375 32.2656,518.8125 Q32.2656,515.6875 33.5781,514.0313 Q34.9063,512.375 37.4063,512.375 Q38.1094,512.375 38.75,512.5313 Q39.4063,512.6875 39.9688,512.9844 L39.9688,515.7031 Q39.3438,515.125 38.75,514.8594 Q38.1563,514.5781 37.5313,514.5781 Q36.1875,514.5781 35.5,515.6563 Q34.8125,516.7188 34.8125,518.8125 Q34.8125,520.9063 35.5,521.9844 Q36.1875,523.0469 37.5313,523.0469 Q38.1563,523.0469 38.75,522.7813 Q39.3438,522.5 39.9688,521.9219 L39.9688,524.6406 Z "/><text fill="#000000" font-family="sans-serif" font-size="12" lengthAdjust="spacingAndGlyphs" textLength="54" x="51" y="523.1807">Revealer</text><!--class Gnome::Gtk3::Bin--><rect fill="#FEFECE" filter="url(#fh0cdd9umb5rz)" height="32" id="Gnome::Gtk3::Bin" style="stroke: #A80036; stroke-width: 1.5;" width="51" x="143.5" y="503"/><ellipse cx="158.5" cy="519" fill="#80FFFF" rx="11" ry="11" style="stroke: #A80036; stroke-width: 1.0;"/><path d="M161.4688,524.6406 Q160.8906,524.9375 160.25,525.0781 Q159.6094,525.2344 158.9063,525.2344 Q156.4063,525.2344 155.0781,523.5938 Q153.7656,521.9375 153.7656,518.8125 Q153.7656,515.6875 155.0781,514.0313 Q156.4063,512.375 158.9063,512.375 Q159.6094,512.375 160.25,512.5313 Q160.9063,512.6875 161.4688,512.9844 L161.4688,515.7031 Q160.8438,515.125 160.25,514.8594 Q159.6563,514.5781 159.0313,514.5781 Q157.6875,514.5781 157,515.6563 Q156.3125,516.7188 156.3125,518.8125 Q156.3125,520.9063 157,521.9844 Q157.6875,523.0469 159.0313,523.0469 Q159.6563,523.0469 160.25,522.7813 Q160.8438,522.5 161.4688,521.9219 L161.4688,524.6406 Z "/><text fill="#000000" font-family="sans-serif" font-size="12" lengthAdjust="spacingAndGlyphs" textLength="19" x="172.5" y="523.1807">Bin</text><!--class Gnome::Gtk3::Container--><rect fill="#FEFECE" filter="url(#fh0cdd9umb5rz)" height="32" id="Gnome::Gtk3::Container" style="stroke: #A80036; stroke-width: 1.5;" width="93" x="229.5" y="503"/><ellipse cx="244.5" cy="519" fill="#80FFFF" rx="11" ry="11" style="stroke: #A80036; stroke-width: 1.0;"/><path d="M247.4688,524.6406 Q246.8906,524.9375 246.25,525.0781 Q245.6094,525.2344 244.9063,525.2344 Q242.4063,525.2344 241.0781,523.5938 Q239.7656,521.9375 239.7656,518.8125 Q239.7656,515.6875 241.0781,514.0313 Q242.4063,512.375 244.9063,512.375 Q245.6094,512.375 246.25,512.5313 Q246.9063,512.6875 247.4688,512.9844 L247.4688,515.7031 Q246.8438,515.125 246.25,514.8594 Q245.6563,514.5781 245.0313,514.5781 Q243.6875,514.5781 243,515.6563 Q242.3125,516.7188 242.3125,518.8125 Q242.3125,520.9063 243,521.9844 Q243.6875,523.0469 245.0313,523.0469 Q245.6563,523.0469 246.25,522.7813 Q246.8438,522.5 247.4688,521.9219 L247.4688,524.6406 Z "/><text fill="#000000" font-family="sans-serif" font-size="12" lengthAdjust="spacingAndGlyphs" textLength="61" x="258.5" y="523.1807">Container</text><!--link Gnome::N::TopLevelClassSupport to Gnome::GObject::Object--><path d="M551.9322,94.6906 C546.4316,116.7659 537.2812,144.9903 523,167 C507.2604,191.2573 481.9788,212.8684 463.4487,226.7856 " fill="none" id="Gnome::N::TopLevelClassSupport-Gnome::GObject::Object" style="stroke: #A80036; stroke-width: 1.0;"/><polygon fill="none" points="545.1074,93.1333,556.271,75.1229,558.7754,96.164,545.1074,93.1333" style="stroke: #A80036; stroke-width: 1.0;"/><!--link Gnome::GObject::Object to Gnome::GObject::InitialyUnowned--><path d="M440,279.4048 C440,293.0788 440,307.9368 440,318.8498 " fill="none" id="Gnome::GObject::Object-Gnome::GObject::InitialyUnowned" style="stroke: #A80036; stroke-width: 1.0;"/><polygon fill="none" points="433.0001,279.0252,440,259.0252,447.0001,279.0251,433.0001,279.0252" style="stroke: #A80036; stroke-width: 1.0;"/><!--link Gnome::GObject::Signal to Gnome::GObject::Object--><path d="M440,187.4048 C440,201.0788 440,215.9368 440,226.8498 " fill="none" id="Gnome::GObject::Signal-Gnome::GObject::Object" style="stroke: #A80036; stroke-width: 1.0; stroke-dasharray: 7.0,7.0;"/><polygon fill="none" points="433.0001,187.0252,440,167.0252,447.0001,187.0251,433.0001,187.0252" style="stroke: #A80036; stroke-width: 1.0;"/><!--link Gnome::GObject::InitialyUnowned to Gnome::Gtk3::Widget--><path d="M431.2672,370.7074 C421.5029,410.6327 406.1194,473.534 398.9377,502.8991 " fill="none" id="Gnome::GObject::InitialyUnowned-Gnome::Gtk3::Widget" style="stroke: #A80036; stroke-width: 1.0;"/><polygon fill="none" points="424.5343,368.7714,436.0853,351.0069,438.1335,372.0973,424.5343,368.7714" style="stroke: #A80036; stroke-width: 1.0;"/><!--link Gnome::Gtk3::Buildable to Gnome::Gtk3::Widget--><path d="M340.0057,458.0424 C353.5643,473.0713 369.2795,490.4905 380.4297,502.8498 " fill="none" id="Gnome::Gtk3::Buildable-Gnome::Gtk3::Widget" style="stroke: #A80036; stroke-width: 1.0; stroke-dasharray: 7.0,7.0;"/><polygon fill="none" points="334.6572,462.564,326.4575,443.0252,345.0521,453.186,334.6572,462.564" style="stroke: #A80036; stroke-width: 1.0;"/><!--link Gnome::Gtk3::Revealer to Gnome::Gtk3::Bin--><path d="M108.0625,519 C113.1084,519 118.1543,519 123.2002,519 " fill="none" id="Gnome::Gtk3::Revealer-Gnome::Gtk3::Bin" style="stroke: #A80036; stroke-width: 1.0;"/><polygon fill="none" points="123.292,511.9999,143.292,519,123.292,525.9999,123.292,511.9999" style="stroke: #A80036; stroke-width: 1.0;"/><!--link Gnome::Gtk3::Bin to Gnome::Gtk3::Container--><path d="M194.9141,519 C199.6792,519 204.4444,519 209.2095,519 " fill="none" id="Gnome::Gtk3::Bin-Gnome::Gtk3::Container" style="stroke: #A80036; stroke-width: 1.0;"/><polygon fill="none" points="209.439,511.9999,229.4389,519,209.4389,525.9999,209.439,511.9999" style="stroke: #A80036; stroke-width: 1.0;"/><!--link Gnome::Gtk3::Container to Gnome::Gtk3::Widget--><path d="M322.9492,519 C327.6884,519 332.4276,519 337.1668,519 " fill="none" id="Gnome::Gtk3::Container-Gnome::Gtk3::Widget" style="stroke: #A80036; stroke-width: 1.0;"/><polygon fill="none" points="337.286,511.9999,357.2859,519,337.2859,525.9999,337.286,511.9999" style="stroke: #A80036; stroke-width: 1.0;"/><!--
@startuml
skinparam packageStyle rectangle
skinparam stereotypeCBackgroundColor #80ffff
set namespaceSeparator ::
hide members


class Gnome::N::TopLevelClassSupport < Catch all class >
Gnome::N::TopLevelClassSupport <|- - - Gnome::GObject::Object

Interface Gnome::GObject::Signal <Interface>
class Gnome::GObject::Signal <<(R,#80ffff)>>

Gnome::GObject::Object <|- - Gnome::GObject::InitialyUnowned
Gnome::GObject::Signal <|.. Gnome::GObject::Object

Gnome::GObject::InitialyUnowned <|- - - Gnome::Gtk3::Widget

class Gnome::Gtk3::Widget implements Gnome::Gtk3::Buildable
Interface Gnome::Gtk3::Buildable <Interface>
class Gnome::Gtk3::Buildable <<(R,#80ffff)>>

Gnome::Gtk3::Revealer -|> Gnome::Gtk3::Bin
Gnome::Gtk3::Bin -|> Gnome::Gtk3::Container
Gnome::Gtk3::Container -|> Gnome::Gtk3::Widget










@enduml

PlantUML version 1.2019.01(Sat Feb 09 16:32:04 CET 2019)
(LGPL source distribution)
Java Runtime: OpenJDK Runtime Environment
JVM: OpenJDK 64-Bit Server VM
Java Version: 1.8.0_265-b01
Operating System: Linux
OS Version: 5.8.8-100.fc31.x86_64
Default Encoding: UTF-8
Language: en
Country: null
--></g></svg>