<?xml version="1.0" encoding="UTF-8" standalone="no"?><svg xmlns="http://www.w3.org/2000/svg" xmlns:xlink="http://www.w3.org/1999/xlink" contentScriptType="application/ecmascript" contentStyleType="text/css" height="462px" preserveAspectRatio="none" style="width:571px;height:462px;" version="1.1" viewBox="0 0 571 462" width="571px" zoomAndPan="magnify"><defs><filter height="300%" id="fa8fajiir78o8" width="300%" x="-1" y="-1"><feGaussianBlur result="blurOut" stdDeviation="2.0"/><feColorMatrix in="blurOut" result="blurOut2" type="matrix" values="0 0 0 0 0 0 0 0 0 0 0 0 0 0 0 0 0 0 .4 0"/><feOffset dx="4.0" dy="4.0" in="blurOut2" result="blurOut3"/><feBlend in="SourceGraphic" in2="blurOut3" mode="normal"/></filter></defs><g><!--cluster Gnome::N--><rect fill="#FFFFFF" filter="url(#fa8fajiir78o8)" height="67" style="stroke: #000000; stroke-width: 1.5;" width="286" x="268" y="16"/><text fill="#000000" font-family="sans-serif" font-size="14" font-weight="bold" lengthAdjust="spacingAndGlyphs" textLength="79" x="371.5" y="30.9951">Gnome::N</text><!--cluster Gnome::GObject--><rect fill="#FFFFFF" filter="url(#fa8fajiir78o8)" height="159" style="stroke: #000000; stroke-width: 1.5;" width="193" x="367" y="108"/><text fill="#000000" font-family="sans-serif" font-size="14" font-weight="bold" lengthAdjust="spacingAndGlyphs" textLength="131" x="398" y="122.9951">Gnome::GObject</text><!--cluster Gnome::Gtk3--><rect fill="#FFFFFF" filter="url(#fa8fajiir78o8)" height="159" style="stroke: #000000; stroke-width: 1.5;" width="427" x="14" y="292"/><text fill="#000000" font-family="sans-serif" font-size="14" font-weight="bold" lengthAdjust="spacingAndGlyphs" textLength="105" x="175" y="306.9951">Gnome::Gtk3</text><!--class Gnome::N::TopLevelClassSupport--><rect fill="#FEFECE" filter="url(#fa8fajiir78o8)" height="32" id="Gnome::N::TopLevelClassSupport" style="stroke: #A80036; stroke-width: 1.5;" width="269" x="276.5" y="43"/><ellipse cx="291.5" cy="59" fill="#ADD1B2" rx="11" ry="11" style="stroke: #A80036; stroke-width: 1.0;"/><path d="M294.4688,64.6406 Q293.8906,64.9375 293.25,65.0781 Q292.6094,65.2344 291.9063,65.2344 Q289.4063,65.2344 288.0781,63.5938 Q286.7656,61.9375 286.7656,58.8125 Q286.7656,55.6875 288.0781,54.0313 Q289.4063,52.375 291.9063,52.375 Q292.6094,52.375 293.25,52.5313 Q293.9063,52.6875 294.4688,52.9844 L294.4688,55.7031 Q293.8438,55.125 293.25,54.8594 Q292.6563,54.5781 292.0313,54.5781 Q290.6875,54.5781 290,55.6563 Q289.3125,56.7188 289.3125,58.8125 Q289.3125,60.9063 290,61.9844 Q290.6875,63.0469 292.0313,63.0469 Q292.6563,63.0469 293.25,62.7813 Q293.8438,62.5 294.4688,61.9219 L294.4688,64.6406 Z "/><text fill="#000000" font-family="sans-serif" font-size="12" lengthAdjust="spacingAndGlyphs" textLength="137" x="305.5" y="63.1807">TopLevelClassSupport</text><rect fill="#FFFFFF" height="15.9688" style="stroke: #000000; stroke-width: 1.0; stroke-dasharray: 2.0,2.0;" width="98" x="450.5" y="40"/><text fill="#000000" font-family="sans-serif" font-size="12" font-style="italic" lengthAdjust="spacingAndGlyphs" textLength="88" x="455.5" y="52.1387">Catch all class</text><!--class Gnome::GObject::Object--><rect fill="#FEFECE" filter="url(#fa8fajiir78o8)" height="32" id="Gnome::GObject::Object" style="stroke: #A80036; stroke-width: 1.5;" width="72" x="375" y="135"/><ellipse cx="390" cy="151" fill="#ADD1B2" rx="11" ry="11" style="stroke: #A80036; stroke-width: 1.0;"/><path d="M392.9688,156.6406 Q392.3906,156.9375 391.75,157.0781 Q391.1094,157.2344 390.4063,157.2344 Q387.9063,157.2344 386.5781,155.5938 Q385.2656,153.9375 385.2656,150.8125 Q385.2656,147.6875 386.5781,146.0313 Q387.9063,144.375 390.4063,144.375 Q391.1094,144.375 391.75,144.5313 Q392.4063,144.6875 392.9688,144.9844 L392.9688,147.7031 Q392.3438,147.125 391.75,146.8594 Q391.1563,146.5781 390.5313,146.5781 Q389.1875,146.5781 388.5,147.6563 Q387.8125,148.7188 387.8125,150.8125 Q387.8125,152.9063 388.5,153.9844 Q389.1875,155.0469 390.5313,155.0469 Q391.1563,155.0469 391.75,154.7813 Q392.3438,154.5 392.9688,153.9219 L392.9688,156.6406 Z "/><text fill="#000000" font-family="sans-serif" font-size="12" lengthAdjust="spacingAndGlyphs" textLength="40" x="404" y="155.1807">Object</text><!--class Gnome::GObject::InitialyUnowned--><rect fill="#FEFECE" filter="url(#fa8fajiir78o8)" height="32" id="Gnome::GObject::InitialyUnowned" style="stroke: #A80036; stroke-width: 1.5;" width="129" x="375.5" y="227"/><ellipse cx="390.5" cy="243" fill="#ADD1B2" rx="11" ry="11" style="stroke: #A80036; stroke-width: 1.0;"/><path d="M393.4688,248.6406 Q392.8906,248.9375 392.25,249.0781 Q391.6094,249.2344 390.9063,249.2344 Q388.4063,249.2344 387.0781,247.5938 Q385.7656,245.9375 385.7656,242.8125 Q385.7656,239.6875 387.0781,238.0313 Q388.4063,236.375 390.9063,236.375 Q391.6094,236.375 392.25,236.5313 Q392.9063,236.6875 393.4688,236.9844 L393.4688,239.7031 Q392.8438,239.125 392.25,238.8594 Q391.6563,238.5781 391.0313,238.5781 Q389.6875,238.5781 389,239.6563 Q388.3125,240.7188 388.3125,242.8125 Q388.3125,244.9063 389,245.9844 Q389.6875,247.0469 391.0313,247.0469 Q391.6563,247.0469 392.25,246.7813 Q392.8438,246.5 393.4688,245.9219 L393.4688,248.6406 Z "/><text fill="#000000" font-family="sans-serif" font-size="12" lengthAdjust="spacingAndGlyphs" textLength="97" x="404.5" y="247.1807">InitialyUnowned</text><!--class Gnome::GObject::Signal--><rect fill="#FEFECE" filter="url(#fa8fajiir78o8)" height="32" id="Gnome::GObject::Signal" style="stroke: #A80036; stroke-width: 1.5;" width="70" x="482" y="135"/><ellipse cx="497" cy="151" fill="#ADD1B2" rx="11" ry="11" style="stroke: #A80036; stroke-width: 1.0;"/><path d="M499.9688,156.6406 Q499.3906,156.9375 498.75,157.0781 Q498.1094,157.2344 497.4063,157.2344 Q494.9063,157.2344 493.5781,155.5938 Q492.2656,153.9375 492.2656,150.8125 Q492.2656,147.6875 493.5781,146.0313 Q494.9063,144.375 497.4063,144.375 Q498.1094,144.375 498.75,144.5313 Q499.4063,144.6875 499.9688,144.9844 L499.9688,147.7031 Q499.3438,147.125 498.75,146.8594 Q498.1563,146.5781 497.5313,146.5781 Q496.1875,146.5781 495.5,147.6563 Q494.8125,148.7188 494.8125,150.8125 Q494.8125,152.9063 495.5,153.9844 Q496.1875,155.0469 497.5313,155.0469 Q498.1563,155.0469 498.75,154.7813 Q499.3438,154.5 499.9688,153.9219 L499.9688,156.6406 Z "/><text fill="#000000" font-family="sans-serif" font-size="12" lengthAdjust="spacingAndGlyphs" textLength="38" x="511" y="155.1807">Signal</text><!--class Gnome::Gtk3::Widget--><rect fill="#FEFECE" filter="url(#fa8fajiir78o8)" height="32" id="Gnome::Gtk3::Widget" style="stroke: #A80036; stroke-width: 1.5;" width="75" x="357.5" y="411"/><ellipse cx="372.5" cy="427" fill="#ADD1B2" rx="11" ry="11" style="stroke: #A80036; stroke-width: 1.0;"/><path d="M375.4688,432.6406 Q374.8906,432.9375 374.25,433.0781 Q373.6094,433.2344 372.9063,433.2344 Q370.4063,433.2344 369.0781,431.5938 Q367.7656,429.9375 367.7656,426.8125 Q367.7656,423.6875 369.0781,422.0313 Q370.4063,420.375 372.9063,420.375 Q373.6094,420.375 374.25,420.5313 Q374.9063,420.6875 375.4688,420.9844 L375.4688,423.7031 Q374.8438,423.125 374.25,422.8594 Q373.6563,422.5781 373.0313,422.5781 Q371.6875,422.5781 371,423.6563 Q370.3125,424.7188 370.3125,426.8125 Q370.3125,428.9063 371,429.9844 Q371.6875,431.0469 373.0313,431.0469 Q373.6563,431.0469 374.25,430.7813 Q374.8438,430.5 375.4688,429.9219 L375.4688,432.6406 Z "/><text fill="#000000" font-family="sans-serif" font-size="12" lengthAdjust="spacingAndGlyphs" textLength="43" x="386.5" y="431.1807">Widget</text><!--class Gnome::Gtk3::Buildable--><rect fill="#FEFECE" filter="url(#fa8fajiir78o8)" height="32" id="Gnome::Gtk3::Buildable" style="stroke: #A80036; stroke-width: 1.5;" width="89" x="297.5" y="319"/><ellipse cx="312.5" cy="335" fill="#B4A7E5" rx="11" ry="11" style="stroke: #A80036; stroke-width: 1.0;"/><path d="M308.4219,330.7656 L308.4219,328.6094 L315.8125,328.6094 L315.8125,330.7656 L313.3438,330.7656 L313.3438,338.8438 L315.8125,338.8438 L315.8125,341 L308.4219,341 L308.4219,338.8438 L310.8906,338.8438 L310.8906,330.7656 L308.4219,330.7656 Z "/><text fill="#000000" font-family="sans-serif" font-size="12" font-style="italic" lengthAdjust="spacingAndGlyphs" textLength="57" x="326.5" y="339.1543">Buildable</text><!--class Gnome::Gtk3::Revealer--><rect fill="#FEFECE" filter="url(#fa8fajiir78o8)" height="32" id="Gnome::Gtk3::Revealer" style="stroke: #A80036; stroke-width: 1.5;" width="86" x="22" y="411"/><ellipse cx="37" cy="427" fill="#ADD1B2" rx="11" ry="11" style="stroke: #A80036; stroke-width: 1.0;"/><path d="M39.9688,432.6406 Q39.3906,432.9375 38.75,433.0781 Q38.1094,433.2344 37.4063,433.2344 Q34.9063,433.2344 33.5781,431.5938 Q32.2656,429.9375 32.2656,426.8125 Q32.2656,423.6875 33.5781,422.0313 Q34.9063,420.375 37.4063,420.375 Q38.1094,420.375 38.75,420.5313 Q39.4063,420.6875 39.9688,420.9844 L39.9688,423.7031 Q39.3438,423.125 38.75,422.8594 Q38.1563,422.5781 37.5313,422.5781 Q36.1875,422.5781 35.5,423.6563 Q34.8125,424.7188 34.8125,426.8125 Q34.8125,428.9063 35.5,429.9844 Q36.1875,431.0469 37.5313,431.0469 Q38.1563,431.0469 38.75,430.7813 Q39.3438,430.5 39.9688,429.9219 L39.9688,432.6406 Z "/><text fill="#000000" font-family="sans-serif" font-size="12" lengthAdjust="spacingAndGlyphs" textLength="54" x="51" y="431.1807">Revealer</text><!--class Gnome::Gtk3::Bin--><rect fill="#FEFECE" filter="url(#fa8fajiir78o8)" height="32" id="Gnome::Gtk3::Bin" style="stroke: #A80036; stroke-width: 1.5;" width="51" x="143.5" y="411"/><ellipse cx="158.5" cy="427" fill="#ADD1B2" rx="11" ry="11" style="stroke: #A80036; stroke-width: 1.0;"/><path d="M161.4688,432.6406 Q160.8906,432.9375 160.25,433.0781 Q159.6094,433.2344 158.9063,433.2344 Q156.4063,433.2344 155.0781,431.5938 Q153.7656,429.9375 153.7656,426.8125 Q153.7656,423.6875 155.0781,422.0313 Q156.4063,420.375 158.9063,420.375 Q159.6094,420.375 160.25,420.5313 Q160.9063,420.6875 161.4688,420.9844 L161.4688,423.7031 Q160.8438,423.125 160.25,422.8594 Q159.6563,422.5781 159.0313,422.5781 Q157.6875,422.5781 157,423.6563 Q156.3125,424.7188 156.3125,426.8125 Q156.3125,428.9063 157,429.9844 Q157.6875,431.0469 159.0313,431.0469 Q159.6563,431.0469 160.25,430.7813 Q160.8438,430.5 161.4688,429.9219 L161.4688,432.6406 Z "/><text fill="#000000" font-family="sans-serif" font-size="12" lengthAdjust="spacingAndGlyphs" textLength="19" x="172.5" y="431.1807">Bin</text><!--class Gnome::Gtk3::Container--><rect fill="#FEFECE" filter="url(#fa8fajiir78o8)" height="32" id="Gnome::Gtk3::Container" style="stroke: #A80036; stroke-width: 1.5;" width="93" x="229.5" y="411"/><ellipse cx="244.5" cy="427" fill="#ADD1B2" rx="11" ry="11" style="stroke: #A80036; stroke-width: 1.0;"/><path d="M247.4688,432.6406 Q246.8906,432.9375 246.25,433.0781 Q245.6094,433.2344 244.9063,433.2344 Q242.4063,433.2344 241.0781,431.5938 Q239.7656,429.9375 239.7656,426.8125 Q239.7656,423.6875 241.0781,422.0313 Q242.4063,420.375 244.9063,420.375 Q245.6094,420.375 246.25,420.5313 Q246.9063,420.6875 247.4688,420.9844 L247.4688,423.7031 Q246.8438,423.125 246.25,422.8594 Q245.6563,422.5781 245.0313,422.5781 Q243.6875,422.5781 243,423.6563 Q242.3125,424.7188 242.3125,426.8125 Q242.3125,428.9063 243,429.9844 Q243.6875,431.0469 245.0313,431.0469 Q245.6563,431.0469 246.25,430.7813 Q246.8438,430.5 247.4688,429.9219 L247.4688,432.6406 Z "/><text fill="#000000" font-family="sans-serif" font-size="12" lengthAdjust="spacingAndGlyphs" textLength="61" x="258.5" y="431.1807">Container</text><!--link Gnome::N::TopLevelClassSupport to Gnome::GObject::Object--><path d="M411,95.4048 C411,109.0788 411,123.9368 411,134.8498 " fill="none" id="Gnome::N::TopLevelClassSupport-Gnome::GObject::Object" style="stroke: #A80036; stroke-width: 1.0;"/><polygon fill="none" points="404.0001,95.0252,411,75.0252,418.0001,95.0251,404.0001,95.0252" style="stroke: #A80036; stroke-width: 1.0;"/><!--link Gnome::GObject::Object to Gnome::GObject::InitialyUnowned--><path d="M422.1645,186.4184 C426.5593,200.3605 431.3863,215.6738 434.9092,226.8498 " fill="none" id="Gnome::GObject::Object-Gnome::GObject::InitialyUnowned" style="stroke: #A80036; stroke-width: 1.0;"/><polygon fill="none" points="415.388,188.2044,416.0514,167.0252,428.7404,183.9955,415.388,188.2044" style="stroke: #A80036; stroke-width: 1.0;"/><!--link Gnome::GObject::Object to Gnome::GObject::Signal--><path d="M460.0415,151 C462.8666,151 465.6918,151 468.5169,151 " fill="none" id="Gnome::GObject::Object-Gnome::GObject::Signal" style="stroke: #A80036; stroke-width: 1.0;"/><polygon fill="#A80036" points="481.7384,151,472.7384,147,476.7384,151,472.7384,155,481.7384,151" style="stroke: #A80036; stroke-width: 1.0;"/><line style="stroke: #A80036; stroke-width: 1.0;" x1="476.7384" x2="468.7383" y1="151" y2="150.9999"/><polygon fill="#A80036" points="447.0234,151,453.0234,155,459.0234,151,453.0234,147,447.0234,151" style="stroke: #A80036; stroke-width: 1.0;"/><!--link Gnome::GObject::InitialyUnowned to Gnome::Gtk3::Widget--><path d="M431.2672,278.7074 C421.5029,318.6327 406.1194,381.534 398.9377,410.8991 " fill="none" id="Gnome::GObject::InitialyUnowned-Gnome::Gtk3::Widget" style="stroke: #A80036; stroke-width: 1.0;"/><polygon fill="none" points="424.5343,276.7714,436.0853,259.0069,438.1335,280.0973,424.5343,276.7714" style="stroke: #A80036; stroke-width: 1.0;"/><!--link Gnome::Gtk3::Buildable to Gnome::Gtk3::Widget--><path d="M361.2758,368.4598 C369.6004,382.9101 378.9548,399.1479 385.6961,410.8498 " fill="none" id="Gnome::Gtk3::Buildable-Gnome::Gtk3::Widget" style="stroke: #A80036; stroke-width: 1.0; stroke-dasharray: 7.0,7.0;"/><polygon fill="none" points="355.15,371.8494,351.2319,351.0252,367.281,364.8609,355.15,371.8494" style="stroke: #A80036; stroke-width: 1.0;"/><!--link Gnome::Gtk3::Revealer to Gnome::Gtk3::Bin--><path d="M108.0625,427 C113.1084,427 118.1543,427 123.2002,427 " fill="none" id="Gnome::Gtk3::Revealer-Gnome::Gtk3::Bin" style="stroke: #A80036; stroke-width: 1.0;"/><polygon fill="none" points="123.292,419.9999,143.292,427,123.292,433.9999,123.292,419.9999" style="stroke: #A80036; stroke-width: 1.0;"/><!--link Gnome::Gtk3::Bin to Gnome::Gtk3::Container--><path d="M194.9141,427 C199.6792,427 204.4444,427 209.2095,427 " fill="none" id="Gnome::Gtk3::Bin-Gnome::Gtk3::Container" style="stroke: #A80036; stroke-width: 1.0;"/><polygon fill="none" points="209.439,419.9999,229.4389,427,209.4389,433.9999,209.439,419.9999" style="stroke: #A80036; stroke-width: 1.0;"/><!--link Gnome::Gtk3::Container to Gnome::Gtk3::Widget--><path d="M322.9492,427 C327.6884,427 332.4276,427 337.1668,427 " fill="none" id="Gnome::Gtk3::Container-Gnome::Gtk3::Widget" style="stroke: #A80036; stroke-width: 1.0;"/><polygon fill="none" points="337.286,419.9999,357.2859,427,337.2859,433.9999,337.286,419.9999" style="stroke: #A80036; stroke-width: 1.0;"/><!--
@startuml
skinparam packageStyle rectangle
set namespaceSeparator ::
hide members


class Gnome::N::TopLevelClassSupport < Catch all class >
Gnome::N::TopLevelClassSupport <|- - Gnome::GObject::Object

Gnome::GObject::Object <|- - Gnome::GObject::InitialyUnowned
Gnome::GObject::Object *-> Gnome::GObject::Signal

Gnome::GObject::InitialyUnowned <|- - - Gnome::Gtk3::Widget

class Gnome::Gtk3::Widget implements Gnome::Gtk3::Buildable

Gnome::Gtk3::Revealer -|> Gnome::Gtk3::Bin
Gnome::Gtk3::Bin -|> Gnome::Gtk3::Container
Gnome::Gtk3::Container -|> Gnome::Gtk3::Widget










@enduml

PlantUML version 1.2019.01(Sat Feb 09 16:32:04 CET 2019)
(LGPL source distribution)
Java Runtime: OpenJDK Runtime Environment
JVM: OpenJDK 64-Bit Server VM
Java Version: 1.8.0_265-b01
Operating System: Linux
OS Version: 5.7.11-100.fc31.x86_64
Default Encoding: UTF-8
Language: en
Country: null
--></g></svg>