<?xml version="1.0" encoding="UTF-8" standalone="no"?><svg xmlns="http://www.w3.org/2000/svg" xmlns:xlink="http://www.w3.org/1999/xlink" contentScriptType="application/ecmascript" contentStyleType="text/css" height="684px" preserveAspectRatio="none" style="width:649px;height:684px;" version="1.1" viewBox="0 0 649 684" width="649px" zoomAndPan="magnify"><defs><filter height="300%" id="fxnt58kn26zhu" width="300%" x="-1" y="-1"><feGaussianBlur result="blurOut" stdDeviation="2.0"/><feColorMatrix in="blurOut" result="blurOut2" type="matrix" values="0 0 0 0 0 0 0 0 0 0 0 0 0 0 0 0 0 0 .4 0"/><feOffset dx="4.0" dy="4.0" in="blurOut2" result="blurOut3"/><feBlend in="SourceGraphic" in2="blurOut3" mode="normal"/></filter></defs><g><!--MD5=[b969295f0ec9b4fa482091c3e26049be]
cluster Gnome::N--><rect fill="#FFFFFF" filter="url(#fxnt58kn26zhu)" height="83" style="stroke: #000000; stroke-width: 1.5;" width="302" x="335" y="7"/><text fill="#000000" font-family="sans-serif" font-size="14" font-weight="bold" lengthAdjust="spacingAndGlyphs" textLength="79" x="446.5" y="21.9951">Gnome::N</text><!--MD5=[2fb3f9b624b0544b9841d5da78ec0508]
cluster Gnome::GObject--><rect fill="#FFFFFF" filter="url(#fxnt58kn26zhu)" height="175" style="stroke: #000000; stroke-width: 1.5;" width="271" x="267" y="114"/><text fill="#000000" font-family="sans-serif" font-size="14" font-weight="bold" lengthAdjust="spacingAndGlyphs" textLength="131" x="337" y="128.9951">Gnome::GObject</text><!--MD5=[7d67f77911969026863717fbb204e273]
cluster Gnome::Gtk3--><rect fill="#FFFFFF" filter="url(#fxnt58kn26zhu)" height="359" style="stroke: #000000; stroke-width: 1.5;" width="450" x="7" y="313"/><text fill="#000000" font-family="sans-serif" font-size="14" font-weight="bold" lengthAdjust="spacingAndGlyphs" textLength="105" x="179.5" y="327.9951">Gnome::Gtk3</text><!--MD5=[0b8e281ccd00c72019a31d78e9f95b5d]
class Gnome::N::TopLevelClassSupport--><rect codeLine="9" fill="#FEFECE" filter="url(#fxnt58kn26zhu)" height="32" id="Gnome::N::TopLevelClassSupport" style="stroke: #A80036; stroke-width: 1.5;" width="269" x="351.5" y="42"/><ellipse cx="366.5" cy="58" fill="#80FFFF" rx="11" ry="11" style="stroke: #A80036; stroke-width: 1.0;"/><path d="M369.4688,63.6406 Q368.8906,63.9375 368.25,64.0781 Q367.6094,64.2344 366.9063,64.2344 Q364.4063,64.2344 363.0781,62.5938 Q361.7656,60.9375 361.7656,57.8125 Q361.7656,54.6875 363.0781,53.0313 Q364.4063,51.375 366.9063,51.375 Q367.6094,51.375 368.25,51.5313 Q368.9063,51.6875 369.4688,51.9844 L369.4688,54.7031 Q368.8438,54.125 368.25,53.8594 Q367.6563,53.5781 367.0313,53.5781 Q365.6875,53.5781 365,54.6563 Q364.3125,55.7188 364.3125,57.8125 Q364.3125,59.9063 365,60.9844 Q365.6875,62.0469 367.0313,62.0469 Q367.6563,62.0469 368.25,61.7813 Q368.8438,61.5 369.4688,60.9219 L369.4688,63.6406 Z "/><text fill="#000000" font-family="sans-serif" font-size="12" lengthAdjust="spacingAndGlyphs" textLength="137" x="380.5" y="62.1543">TopLevelClassSupport</text><rect fill="#FFFFFF" height="15.9688" style="stroke: #000000; stroke-width: 1.0; stroke-dasharray: 2.0,2.0;" width="98" x="525.5" y="39"/><text fill="#000000" font-family="sans-serif" font-size="12" font-style="italic" lengthAdjust="spacingAndGlyphs" textLength="88" x="530.5" y="51.1387">Catch all class</text><!--MD5=[52303d185de782118d4739c052001bf2]
class Gnome::GObject::Signal--><rect codeLine="12" fill="#FEFECE" filter="url(#fxnt58kn26zhu)" height="32" id="Gnome::GObject::Signal" style="stroke: #A80036; stroke-width: 1.5;" width="131" x="283.5" y="149"/><ellipse cx="298.5" cy="165" fill="#80FFFF" rx="11" ry="11" style="stroke: #A80036; stroke-width: 1.0;"/><path d="M299.7031,165.1406 Q300.0625,165.2188 300.3281,165.5 Q300.6094,165.7656 301,166.5469 L303.2344,171 L300.5469,171 L299.0469,167.875 Q298.9844,167.7344 298.875,167.5 Q298.2188,166.1094 297.3281,166.1094 L296.5469,166.1094 L296.5469,171 L294.1094,171 L294.1094,158.6094 L297.6406,158.6094 Q300.0313,158.6094 301.0625,159.4531 Q302.1094,160.2969 302.1094,162.2031 Q302.1094,163.4844 301.4844,164.25 Q300.875,165 299.7031,165.1406 Z M296.5469,160.6719 L296.5469,164.0469 L297.7031,164.0469 Q298.7188,164.0469 299.1406,163.6563 Q299.5781,163.25 299.5781,162.3438 Q299.5781,161.4531 299.1406,161.0625 Q298.7188,160.6719 297.7031,160.6719 L296.5469,160.6719 Z "/><text fill="#000000" font-family="sans-serif" font-size="12" lengthAdjust="spacingAndGlyphs" textLength="38" x="312.5" y="169.1543">Signal</text><rect fill="#FFFFFF" height="15.9688" style="stroke: #000000; stroke-width: 1.0; stroke-dasharray: 2.0,2.0;" width="59" x="358.5" y="146"/><text fill="#000000" font-family="sans-serif" font-size="12" font-style="italic" lengthAdjust="spacingAndGlyphs" textLength="57" x="359.5" y="158.1387">Interface</text><!--MD5=[c2016d28441601ceb0a74f47a4537d14]
class Gnome::GObject::Object--><rect fill="#FEFECE" filter="url(#fxnt58kn26zhu)" height="32" id="Gnome::GObject::Object" style="stroke: #A80036; stroke-width: 1.5;" width="72" x="450" y="149"/><ellipse cx="465" cy="165" fill="#80FFFF" rx="11" ry="11" style="stroke: #A80036; stroke-width: 1.0;"/><path d="M467.9688,170.6406 Q467.3906,170.9375 466.75,171.0781 Q466.1094,171.2344 465.4063,171.2344 Q462.9063,171.2344 461.5781,169.5938 Q460.2656,167.9375 460.2656,164.8125 Q460.2656,161.6875 461.5781,160.0313 Q462.9063,158.375 465.4063,158.375 Q466.1094,158.375 466.75,158.5313 Q467.4063,158.6875 467.9688,158.9844 L467.9688,161.7031 Q467.3438,161.125 466.75,160.8594 Q466.1563,160.5781 465.5313,160.5781 Q464.1875,160.5781 463.5,161.6563 Q462.8125,162.7188 462.8125,164.8125 Q462.8125,166.9063 463.5,167.9844 Q464.1875,169.0469 465.5313,169.0469 Q466.1563,169.0469 466.75,168.7813 Q467.3438,168.5 467.9688,167.9219 L467.9688,170.6406 Z "/><text fill="#000000" font-family="sans-serif" font-size="12" lengthAdjust="spacingAndGlyphs" textLength="40" x="479" y="169.1543">Object</text><!--MD5=[f47b9a4a06d3f9bed948fa39f8c5540e]
class Gnome::GObject::InitialyUnowned--><rect fill="#FEFECE" filter="url(#fxnt58kn26zhu)" height="32" id="Gnome::GObject::InitialyUnowned" style="stroke: #A80036; stroke-width: 1.5;" width="129" x="392.5" y="241"/><ellipse cx="407.5" cy="257" fill="#80FFFF" rx="11" ry="11" style="stroke: #A80036; stroke-width: 1.0;"/><path d="M410.4688,262.6406 Q409.8906,262.9375 409.25,263.0781 Q408.6094,263.2344 407.9063,263.2344 Q405.4063,263.2344 404.0781,261.5938 Q402.7656,259.9375 402.7656,256.8125 Q402.7656,253.6875 404.0781,252.0313 Q405.4063,250.375 407.9063,250.375 Q408.6094,250.375 409.25,250.5313 Q409.9063,250.6875 410.4688,250.9844 L410.4688,253.7031 Q409.8438,253.125 409.25,252.8594 Q408.6563,252.5781 408.0313,252.5781 Q406.6875,252.5781 406,253.6563 Q405.3125,254.7188 405.3125,256.8125 Q405.3125,258.9063 406,259.9844 Q406.6875,261.0469 408.0313,261.0469 Q408.6563,261.0469 409.25,260.7813 Q409.8438,260.5 410.4688,259.9219 L410.4688,262.6406 Z "/><text fill="#000000" font-family="sans-serif" font-size="12" lengthAdjust="spacingAndGlyphs" textLength="97" x="421.5" y="261.1543">InitialyUnowned</text><!--MD5=[fc528952aa489a9a9f8514412a46a5d5]
class Gnome::Gtk3::Buildable--><rect codeLine="15" fill="#FEFECE" filter="url(#fxnt58kn26zhu)" height="32" id="Gnome::Gtk3::Buildable" style="stroke: #A80036; stroke-width: 1.5;" width="150" x="254" y="348"/><ellipse cx="269" cy="364" fill="#80FFFF" rx="11" ry="11" style="stroke: #A80036; stroke-width: 1.0;"/><path d="M270.2031,364.1406 Q270.5625,364.2188 270.8281,364.5 Q271.1094,364.7656 271.5,365.5469 L273.7344,370 L271.0469,370 L269.5469,366.875 Q269.4844,366.7344 269.375,366.5 Q268.7188,365.1094 267.8281,365.1094 L267.0469,365.1094 L267.0469,370 L264.6094,370 L264.6094,357.6094 L268.1406,357.6094 Q270.5313,357.6094 271.5625,358.4531 Q272.6094,359.2969 272.6094,361.2031 Q272.6094,362.4844 271.9844,363.25 Q271.375,364 270.2031,364.1406 Z M267.0469,359.6719 L267.0469,363.0469 L268.2031,363.0469 Q269.2188,363.0469 269.6406,362.6563 Q270.0781,362.25 270.0781,361.3438 Q270.0781,360.4531 269.6406,360.0625 Q269.2188,359.6719 268.2031,359.6719 L267.0469,359.6719 Z "/><text fill="#000000" font-family="sans-serif" font-size="12" lengthAdjust="spacingAndGlyphs" textLength="57" x="283" y="368.1543">Buildable</text><rect fill="#FFFFFF" height="15.9688" style="stroke: #000000; stroke-width: 1.0; stroke-dasharray: 2.0,2.0;" width="59" x="348" y="345"/><text fill="#000000" font-family="sans-serif" font-size="12" font-style="italic" lengthAdjust="spacingAndGlyphs" textLength="57" x="349" y="357.1387">Interface</text><!--MD5=[f76e7f9c868e6478fc523c72aca903a7]
class Gnome::Gtk3::Actionable--><rect codeLine="18" fill="#FEFECE" filter="url(#fxnt58kn26zhu)" height="32" id="Gnome::Gtk3::Actionable" style="stroke: #A80036; stroke-width: 1.5;" width="159" x="23.5" y="348"/><ellipse cx="38.5" cy="364" fill="#80FFFF" rx="11" ry="11" style="stroke: #A80036; stroke-width: 1.0;"/><path d="M39.7031,364.1406 Q40.0625,364.2188 40.3281,364.5 Q40.6094,364.7656 41,365.5469 L43.2344,370 L40.5469,370 L39.0469,366.875 Q38.9844,366.7344 38.875,366.5 Q38.2188,365.1094 37.3281,365.1094 L36.5469,365.1094 L36.5469,370 L34.1094,370 L34.1094,357.6094 L37.6406,357.6094 Q40.0313,357.6094 41.0625,358.4531 Q42.1094,359.2969 42.1094,361.2031 Q42.1094,362.4844 41.4844,363.25 Q40.875,364 39.7031,364.1406 Z M36.5469,359.6719 L36.5469,363.0469 L37.7031,363.0469 Q38.7188,363.0469 39.1406,362.6563 Q39.5781,362.25 39.5781,361.3438 Q39.5781,360.4531 39.1406,360.0625 Q38.7188,359.6719 37.7031,359.6719 L36.5469,359.6719 Z "/><text fill="#000000" font-family="sans-serif" font-size="12" lengthAdjust="spacingAndGlyphs" textLength="66" x="52.5" y="368.1543">Actionable</text><rect fill="#FFFFFF" height="15.9688" style="stroke: #000000; stroke-width: 1.0; stroke-dasharray: 2.0,2.0;" width="59" x="126.5" y="345"/><text fill="#000000" font-family="sans-serif" font-size="12" font-style="italic" lengthAdjust="spacingAndGlyphs" textLength="57" x="127.5" y="357.1387">Interface</text><!--MD5=[99c1fd59bdfde6048aec9e6766dd53ef]
class Gnome::Gtk3::Widget--><rect fill="#FEFECE" filter="url(#fxnt58kn26zhu)" height="32" id="Gnome::Gtk3::Widget" style="stroke: #A80036; stroke-width: 1.5;" width="75" x="365.5" y="440"/><ellipse cx="380.5" cy="456" fill="#80FFFF" rx="11" ry="11" style="stroke: #A80036; stroke-width: 1.0;"/><path d="M383.4688,461.6406 Q382.8906,461.9375 382.25,462.0781 Q381.6094,462.2344 380.9063,462.2344 Q378.4063,462.2344 377.0781,460.5938 Q375.7656,458.9375 375.7656,455.8125 Q375.7656,452.6875 377.0781,451.0313 Q378.4063,449.375 380.9063,449.375 Q381.6094,449.375 382.25,449.5313 Q382.9063,449.6875 383.4688,449.9844 L383.4688,452.7031 Q382.8438,452.125 382.25,451.8594 Q381.6563,451.5781 381.0313,451.5781 Q379.6875,451.5781 379,452.6563 Q378.3125,453.7188 378.3125,455.8125 Q378.3125,457.9063 379,458.9844 Q379.6875,460.0469 381.0313,460.0469 Q381.6563,460.0469 382.25,459.7813 Q382.8438,459.5 383.4688,458.9219 L383.4688,461.6406 Z "/><text fill="#000000" font-family="sans-serif" font-size="12" lengthAdjust="spacingAndGlyphs" textLength="43" x="394.5" y="460.1543">Widget</text><!--MD5=[9e3cc955f682d05594420e46d2e4e3ea]
class Gnome::Gtk3::Container--><rect fill="#FEFECE" filter="url(#fxnt58kn26zhu)" height="32" id="Gnome::Gtk3::Container" style="stroke: #A80036; stroke-width: 1.5;" width="93" x="237.5" y="440"/><ellipse cx="252.5" cy="456" fill="#80FFFF" rx="11" ry="11" style="stroke: #A80036; stroke-width: 1.0;"/><path d="M255.4688,461.6406 Q254.8906,461.9375 254.25,462.0781 Q253.6094,462.2344 252.9063,462.2344 Q250.4063,462.2344 249.0781,460.5938 Q247.7656,458.9375 247.7656,455.8125 Q247.7656,452.6875 249.0781,451.0313 Q250.4063,449.375 252.9063,449.375 Q253.6094,449.375 254.25,449.5313 Q254.9063,449.6875 255.4688,449.9844 L255.4688,452.7031 Q254.8438,452.125 254.25,451.8594 Q253.6563,451.5781 253.0313,451.5781 Q251.6875,451.5781 251,452.6563 Q250.3125,453.7188 250.3125,455.8125 Q250.3125,457.9063 251,458.9844 Q251.6875,460.0469 253.0313,460.0469 Q253.6563,460.0469 254.25,459.7813 Q254.8438,459.5 255.4688,458.9219 L255.4688,461.6406 Z "/><text fill="#000000" font-family="sans-serif" font-size="12" lengthAdjust="spacingAndGlyphs" textLength="61" x="266.5" y="460.1543">Container</text><!--MD5=[6ac0a199e9a9e53d446254a1d59f3468]
class Gnome::Gtk3::Bin--><rect fill="#FEFECE" filter="url(#fxnt58kn26zhu)" height="32" id="Gnome::Gtk3::Bin" style="stroke: #A80036; stroke-width: 1.5;" width="51" x="151.5" y="440"/><ellipse cx="166.5" cy="456" fill="#80FFFF" rx="11" ry="11" style="stroke: #A80036; stroke-width: 1.0;"/><path d="M169.4688,461.6406 Q168.8906,461.9375 168.25,462.0781 Q167.6094,462.2344 166.9063,462.2344 Q164.4063,462.2344 163.0781,460.5938 Q161.7656,458.9375 161.7656,455.8125 Q161.7656,452.6875 163.0781,451.0313 Q164.4063,449.375 166.9063,449.375 Q167.6094,449.375 168.25,449.5313 Q168.9063,449.6875 169.4688,449.9844 L169.4688,452.7031 Q168.8438,452.125 168.25,451.8594 Q167.6563,451.5781 167.0313,451.5781 Q165.6875,451.5781 165,452.6563 Q164.3125,453.7188 164.3125,455.8125 Q164.3125,457.9063 165,458.9844 Q165.6875,460.0469 167.0313,460.0469 Q167.6563,460.0469 168.25,459.7813 Q168.8438,459.5 169.4688,458.9219 L169.4688,461.6406 Z "/><text fill="#000000" font-family="sans-serif" font-size="12" lengthAdjust="spacingAndGlyphs" textLength="19" x="180.5" y="460.1543">Bin</text><!--MD5=[4148e5896c1ca36a6d3ef8c01cfe13d7]
class Gnome::Gtk3::MenuItem--><rect fill="#FEFECE" filter="url(#fxnt58kn26zhu)" height="32" id="Gnome::Gtk3::MenuItem" style="stroke: #A80036; stroke-width: 1.5;" width="93" x="23.5" y="440"/><ellipse cx="38.5" cy="456" fill="#80FFFF" rx="11" ry="11" style="stroke: #A80036; stroke-width: 1.0;"/><path d="M41.4688,461.6406 Q40.8906,461.9375 40.25,462.0781 Q39.6094,462.2344 38.9063,462.2344 Q36.4063,462.2344 35.0781,460.5938 Q33.7656,458.9375 33.7656,455.8125 Q33.7656,452.6875 35.0781,451.0313 Q36.4063,449.375 38.9063,449.375 Q39.6094,449.375 40.25,449.5313 Q40.9063,449.6875 41.4688,449.9844 L41.4688,452.7031 Q40.8438,452.125 40.25,451.8594 Q39.6563,451.5781 39.0313,451.5781 Q37.6875,451.5781 37,452.6563 Q36.3125,453.7188 36.3125,455.8125 Q36.3125,457.9063 37,458.9844 Q37.6875,460.0469 39.0313,460.0469 Q39.6563,460.0469 40.25,459.7813 Q40.8438,459.5 41.4688,458.9219 L41.4688,461.6406 Z "/><text fill="#000000" font-family="sans-serif" font-size="12" lengthAdjust="spacingAndGlyphs" textLength="61" x="52.5" y="460.1543">MenuItem</text><!--MD5=[277dccf225293c975552a6b5f1357e16]
class Gnome::Gtk3::CheckMenuItem--><rect fill="#FEFECE" filter="url(#fxnt58kn26zhu)" height="32" id="Gnome::Gtk3::CheckMenuItem" style="stroke: #A80036; stroke-width: 1.5;" width="131" x="23.5" y="532"/><ellipse cx="38.5" cy="548" fill="#80FFFF" rx="11" ry="11" style="stroke: #A80036; stroke-width: 1.0;"/><path d="M41.4688,553.6406 Q40.8906,553.9375 40.25,554.0781 Q39.6094,554.2344 38.9063,554.2344 Q36.4063,554.2344 35.0781,552.5938 Q33.7656,550.9375 33.7656,547.8125 Q33.7656,544.6875 35.0781,543.0313 Q36.4063,541.375 38.9063,541.375 Q39.6094,541.375 40.25,541.5313 Q40.9063,541.6875 41.4688,541.9844 L41.4688,544.7031 Q40.8438,544.125 40.25,543.8594 Q39.6563,543.5781 39.0313,543.5781 Q37.6875,543.5781 37,544.6563 Q36.3125,545.7188 36.3125,547.8125 Q36.3125,549.9063 37,550.9844 Q37.6875,552.0469 39.0313,552.0469 Q39.6563,552.0469 40.25,551.7813 Q40.8438,551.5 41.4688,550.9219 L41.4688,553.6406 Z "/><text fill="#000000" font-family="sans-serif" font-size="12" lengthAdjust="spacingAndGlyphs" textLength="99" x="52.5" y="552.1543">CheckMenuItem</text><!--MD5=[a506d0d1ca9356ef377aa4606c3b361e]
class Gnome::Gtk3::RadioMenuItem--><rect fill="#FEFECE" filter="url(#fxnt58kn26zhu)" height="32" id="Gnome::Gtk3::RadioMenuItem" style="stroke: #A80036; stroke-width: 1.5;" width="128" x="25" y="624"/><ellipse cx="40" cy="640" fill="#80FFFF" rx="11" ry="11" style="stroke: #A80036; stroke-width: 1.0;"/><path d="M42.9688,645.6406 Q42.3906,645.9375 41.75,646.0781 Q41.1094,646.2344 40.4063,646.2344 Q37.9063,646.2344 36.5781,644.5938 Q35.2656,642.9375 35.2656,639.8125 Q35.2656,636.6875 36.5781,635.0313 Q37.9063,633.375 40.4063,633.375 Q41.1094,633.375 41.75,633.5313 Q42.4063,633.6875 42.9688,633.9844 L42.9688,636.7031 Q42.3438,636.125 41.75,635.8594 Q41.1563,635.5781 40.5313,635.5781 Q39.1875,635.5781 38.5,636.6563 Q37.8125,637.7188 37.8125,639.8125 Q37.8125,641.9063 38.5,642.9844 Q39.1875,644.0469 40.5313,644.0469 Q41.1563,644.0469 41.75,643.7813 Q42.3438,643.5 42.9688,642.9219 L42.9688,645.6406 Z "/><text fill="#000000" font-family="sans-serif" font-size="12" lengthAdjust="spacingAndGlyphs" textLength="96" x="54" y="644.1543">RadioMenuItem</text><!--MD5=[9926154e6d1f8c23ebc5be0e345ef14f]
class Gnome::Gtk3::SeparatorMenuItem--><rect fill="#FEFECE" filter="url(#fxnt58kn26zhu)" height="32" id="Gnome::Gtk3::SeparatorMenuItem" style="stroke: #A80036; stroke-width: 1.5;" width="156" x="190" y="532"/><ellipse cx="205" cy="548" fill="#80FFFF" rx="11" ry="11" style="stroke: #A80036; stroke-width: 1.0;"/><path d="M207.9688,553.6406 Q207.3906,553.9375 206.75,554.0781 Q206.1094,554.2344 205.4063,554.2344 Q202.9063,554.2344 201.5781,552.5938 Q200.2656,550.9375 200.2656,547.8125 Q200.2656,544.6875 201.5781,543.0313 Q202.9063,541.375 205.4063,541.375 Q206.1094,541.375 206.75,541.5313 Q207.4063,541.6875 207.9688,541.9844 L207.9688,544.7031 Q207.3438,544.125 206.75,543.8594 Q206.1563,543.5781 205.5313,543.5781 Q204.1875,543.5781 203.5,544.6563 Q202.8125,545.7188 202.8125,547.8125 Q202.8125,549.9063 203.5,550.9844 Q204.1875,552.0469 205.5313,552.0469 Q206.1563,552.0469 206.75,551.7813 Q207.3438,551.5 207.9688,550.9219 L207.9688,553.6406 Z "/><text fill="#000000" font-family="sans-serif" font-size="12" lengthAdjust="spacingAndGlyphs" textLength="124" x="219" y="552.1543">SeparatorMenuItem</text><!--MD5=[e23b679cf607d12ac81e9c5301595709]
reverse link Gnome::N::TopLevelClassSupport to Gnome::GObject::Object--><path codeLine="22" d="M486,94.1 C486,112.76 486,134.73 486,148.98 " fill="none" id="Gnome::N::TopLevelClassSupport-backto-Gnome::GObject::Object" style="stroke: #A80036; stroke-width: 1.0;"/><polygon fill="none" points="479,94.04,486,74.04,493,94.04,479,94.04" style="stroke: #A80036; stroke-width: 1.0;"/><!--MD5=[2e57c6084092ea441ae4a3f826779dd8]
reverse link Gnome::GObject::Object to Gnome::GObject::InitialyUnowned--><path codeLine="23" d="M474.84,200.63 C470.34,214.59 465.39,229.96 461.85,240.96 " fill="none" id="Gnome::GObject::Object-backto-Gnome::GObject::InitialyUnowned" style="stroke: #A80036; stroke-width: 1.0;"/><polygon fill="none" points="468.28,198.16,481.08,181.27,481.61,202.45,468.28,198.16" style="stroke: #A80036; stroke-width: 1.0;"/><!--MD5=[f8ffcf4587ba956cb48626a4231e4d21]
reverse link Gnome::GObject::Signal to Gnome::GObject::Object--><path codeLine="24" d="M434.77,165 C439.85,165 444.92,165 450,165 " fill="none" id="Gnome::GObject::Signal-backto-Gnome::GObject::Object" style="stroke: #A80036; stroke-width: 1.0; stroke-dasharray: 7.0,7.0;"/><polygon fill="none" points="434.56,172,414.56,165,434.56,158,434.56,172" style="stroke: #A80036; stroke-width: 1.0;"/><!--MD5=[aa49dbc803ccf1c2ef8546b297b1dcfd]
reverse link Gnome::GObject::InitialyUnowned to Gnome::Gtk3::Widget--><path codeLine="26" d="M447.53,292.54 C435.64,335.92 415.75,408.47 407.16,439.82 " fill="none" id="Gnome::GObject::InitialyUnowned-backto-Gnome::Gtk3::Widget" style="stroke: #A80036; stroke-width: 1.0;"/><polygon fill="none" points="440.81,290.57,452.85,273.13,454.32,294.27,440.81,290.57" style="stroke: #A80036; stroke-width: 1.0;"/><!--MD5=[1335099fcd58edb25b444005b6858935]
reverse link Gnome::Gtk3::Buildable to Gnome::Gtk3::Widget--><path codeLine="27" d="M354.26,395.73 C366.54,410.66 380.74,427.93 390.63,439.96 " fill="none" id="Gnome::Gtk3::Buildable-backto-Gnome::Gtk3::Widget" style="stroke: #A80036; stroke-width: 1.0; stroke-dasharray: 7.0,7.0;"/><polygon fill="none" points="348.85,400.16,341.55,380.27,359.66,391.27,348.85,400.16" style="stroke: #A80036; stroke-width: 1.0;"/><!--MD5=[aaf476f5d2312b98d0ee61e81272172c]
link Gnome::Gtk3::Container to Gnome::Gtk3::Widget--><path codeLine="29" d="M330.95,456 C335.69,456 340.43,456 345.17,456 " fill="none" id="Gnome::Gtk3::Container-to-Gnome::Gtk3::Widget" style="stroke: #A80036; stroke-width: 1.0;"/><polygon fill="none" points="345.29,449,365.29,456,345.29,463,345.29,449" style="stroke: #A80036; stroke-width: 1.0;"/><!--MD5=[aa2b56f221bfaa2860ef37394f2d22b5]
link Gnome::Gtk3::Bin to Gnome::Gtk3::Container--><path codeLine="30" d="M202.91,456 C207.68,456 212.44,456 217.21,456 " fill="none" id="Gnome::Gtk3::Bin-to-Gnome::Gtk3::Container" style="stroke: #A80036; stroke-width: 1.0;"/><polygon fill="none" points="217.44,449,237.44,456,217.44,463,217.44,449" style="stroke: #A80036; stroke-width: 1.0;"/><!--MD5=[04c87dfb5996bb0be93562946801074e]
link Gnome::Gtk3::MenuItem to Gnome::Gtk3::Bin--><path codeLine="32" d="M116.81,456 C121.55,456 126.29,456 131.03,456 " fill="none" id="Gnome::Gtk3::MenuItem-to-Gnome::Gtk3::Bin" style="stroke: #A80036; stroke-width: 1.0;"/><polygon fill="none" points="131.14,449,151.14,456,131.14,463,131.14,449" style="stroke: #A80036; stroke-width: 1.0;"/><!--MD5=[954ebe7c809bcae9f7425132cd7f8f96]
reverse link Gnome::Gtk3::Actionable to Gnome::Gtk3::MenuItem--><path codeLine="33" d="M90.48,399.13 C85.32,413.23 79.6,428.83 75.52,439.96 " fill="none" id="Gnome::Gtk3::Actionable-backto-Gnome::Gtk3::MenuItem" style="stroke: #A80036; stroke-width: 1.0; stroke-dasharray: 7.0,7.0;"/><polygon fill="none" points="83.94,396.64,97.4,380.27,97.09,401.45,83.94,396.64" style="stroke: #A80036; stroke-width: 1.0;"/><!--MD5=[46375db1f25a9935910eb54ca3bf5896]
reverse link Gnome::Gtk3::MenuItem to Gnome::Gtk3::CheckMenuItem--><path codeLine="35" d="M77.41,492.12 C80.33,505.95 83.53,521.09 85.82,531.96 " fill="none" id="Gnome::Gtk3::MenuItem-backto-Gnome::Gtk3::CheckMenuItem" style="stroke: #A80036; stroke-width: 1.0;"/><polygon fill="none" points="70.51,493.28,73.22,472.27,84.2,490.39,70.51,493.28" style="stroke: #A80036; stroke-width: 1.0;"/><!--MD5=[c9f9b728fdbb550217a0e2a0de198f6f]
reverse link Gnome::Gtk3::CheckMenuItem to Gnome::Gtk3::RadioMenuItem--><path codeLine="36" d="M89,584.61 C89,598.31 89,613.22 89,623.96 " fill="none" id="Gnome::Gtk3::CheckMenuItem-backto-Gnome::Gtk3::RadioMenuItem" style="stroke: #A80036; stroke-width: 1.0;"/><polygon fill="none" points="82,584.27,89,564.27,96,584.27,82,584.27" style="stroke: #A80036; stroke-width: 1.0;"/><!--MD5=[ad8b8dba8daba0f66debae0d3806c859]
reverse link Gnome::Gtk3::MenuItem to Gnome::Gtk3::SeparatorMenuItem--><path codeLine="37" d="M121.71,480.51 C157.43,496.74 203.88,517.85 234.75,531.89 " fill="none" id="Gnome::Gtk3::MenuItem-backto-Gnome::Gtk3::SeparatorMenuItem" style="stroke: #A80036; stroke-width: 1.0;"/><polygon fill="none" points="118.45,486.71,103.14,472.06,124.24,473.97,118.45,486.71" style="stroke: #A80036; stroke-width: 1.0;"/><!--MD5=[82cfcf740e95f173d1487da2440b7643]
@startuml
'scale 0.9
skinparam packageStyle rectangle
skinparam stereotypeCBackgroundColor #80ffff
set namespaceSeparator ::
hide members

'Class and interface decorations
class Gnome::N::TopLevelClassSupport < Catch all class >

Interface Gnome::GObject::Signal <Interface>
class Gnome::GObject::Signal <<(R,#80ffff)>>

Interface Gnome::Gtk3::Buildable <Interface>
class Gnome::Gtk3::Buildable <<(R,#80ffff)>>

Interface Gnome::Gtk3::Actionable <Interface>
class Gnome::Gtk3::Actionable <<(R,#80ffff)>>


'class connections
Gnome::N::TopLevelClassSupport <|- - Gnome::GObject::Object
Gnome::GObject::Object <|- - Gnome::GObject::InitialyUnowned
Gnome::GObject::Signal <|. Gnome::GObject::Object

Gnome::GObject::InitialyUnowned <|- - - Gnome::Gtk3::Widget
Gnome::Gtk3::Widget .up.|> Gnome::Gtk3::Buildable

Gnome::Gtk3::Container -|> Gnome::Gtk3::Widget
Gnome::Gtk3::Bin -|> Gnome::Gtk3::Container

Gnome::Gtk3::MenuItem -|> Gnome::Gtk3::Bin
Gnome::Gtk3::MenuItem .up.|> Gnome::Gtk3::Actionable

Gnome::Gtk3::MenuItem <|- - Gnome::Gtk3::CheckMenuItem
Gnome::Gtk3::CheckMenuItem <|- - Gnome::Gtk3::RadioMenuItem
Gnome::Gtk3::MenuItem <|- - Gnome::Gtk3::SeparatorMenuItem

@enduml

@startuml
skinparam packageStyle rectangle
skinparam stereotypeCBackgroundColor #80ffff
set namespaceSeparator ::
hide members

class Gnome::N::TopLevelClassSupport < Catch all class >

Interface Gnome::GObject::Signal <Interface>
class Gnome::GObject::Signal <<(R,#80ffff)>>

Interface Gnome::Gtk3::Buildable <Interface>
class Gnome::Gtk3::Buildable <<(R,#80ffff)>>

Interface Gnome::Gtk3::Actionable <Interface>
class Gnome::Gtk3::Actionable <<(R,#80ffff)>>


Gnome::N::TopLevelClassSupport <|- - Gnome::GObject::Object
Gnome::GObject::Object <|- - Gnome::GObject::InitialyUnowned
Gnome::GObject::Signal <|. Gnome::GObject::Object

Gnome::GObject::InitialyUnowned <|- - - Gnome::Gtk3::Widget
Gnome::Gtk3::Widget .up.|> Gnome::Gtk3::Buildable

Gnome::Gtk3::Container -|> Gnome::Gtk3::Widget
Gnome::Gtk3::Bin -|> Gnome::Gtk3::Container

Gnome::Gtk3::MenuItem -|> Gnome::Gtk3::Bin
Gnome::Gtk3::MenuItem .up.|> Gnome::Gtk3::Actionable

Gnome::Gtk3::MenuItem <|- - Gnome::Gtk3::CheckMenuItem
Gnome::Gtk3::CheckMenuItem <|- - Gnome::Gtk3::RadioMenuItem
Gnome::Gtk3::MenuItem <|- - Gnome::Gtk3::SeparatorMenuItem

@enduml

PlantUML version 1.2020.19(Mon Oct 12 17:10:01 CEST 2020)
(GPL source distribution)
Java Runtime: OpenJDK Runtime Environment
JVM: OpenJDK 64-Bit Server VM
Default Encoding: UTF-8
Language: en
Country: US
--></g></svg>