<?xml version="1.0" encoding="UTF-8" standalone="no"?><svg xmlns="http://www.w3.org/2000/svg" xmlns:xlink="http://www.w3.org/1999/xlink" contentScriptType="application/ecmascript" contentStyleType="text/css" height="592px" preserveAspectRatio="none" style="width:626px;height:592px;" version="1.1" viewBox="0 0 626 592" width="626px" zoomAndPan="magnify"><defs><filter height="300%" id="f1ppvlao2vv2u" width="300%" x="-1" y="-1"><feGaussianBlur result="blurOut" stdDeviation="2.0"/><feColorMatrix in="blurOut" result="blurOut2" type="matrix" values="0 0 0 0 0 0 0 0 0 0 0 0 0 0 0 0 0 0 .4 0"/><feOffset dx="4.0" dy="4.0" in="blurOut2" result="blurOut3"/><feBlend in="SourceGraphic" in2="blurOut3" mode="normal"/></filter></defs><g><!--MD5=[b969295f0ec9b4fa482091c3e26049be]
cluster Gnome::N--><rect fill="#FFFFFF" filter="url(#f1ppvlao2vv2u)" height="83" style="stroke: #000000; stroke-width: 1.5;" width="302" x="312" y="7"/><text fill="#000000" font-family="sans-serif" font-size="14" font-weight="bold" lengthAdjust="spacingAndGlyphs" textLength="79" x="423.5" y="21.9951">Gnome::N</text><!--MD5=[2fb3f9b624b0544b9841d5da78ec0508]
cluster Gnome::GObject--><rect fill="#FFFFFF" filter="url(#f1ppvlao2vv2u)" height="175" style="stroke: #000000; stroke-width: 1.5;" width="271" x="244" y="114"/><text fill="#000000" font-family="sans-serif" font-size="14" font-weight="bold" lengthAdjust="spacingAndGlyphs" textLength="131" x="314" y="128.9951">Gnome::GObject</text><!--MD5=[7d67f77911969026863717fbb204e273]
cluster Gnome::Gtk3--><rect fill="#FFFFFF" filter="url(#f1ppvlao2vv2u)" height="267" style="stroke: #000000; stroke-width: 1.5;" width="436" x="7" y="313"/><text fill="#000000" font-family="sans-serif" font-size="14" font-weight="bold" lengthAdjust="spacingAndGlyphs" textLength="105" x="172.5" y="327.9951">Gnome::Gtk3</text><!--MD5=[0b8e281ccd00c72019a31d78e9f95b5d]
class Gnome::N::TopLevelClassSupport--><rect codeLine="9" fill="#FEFECE" filter="url(#f1ppvlao2vv2u)" height="32" id="Gnome::N::TopLevelClassSupport" style="stroke: #A80036; stroke-width: 1.5;" width="269" x="328.5" y="42"/><ellipse cx="343.5" cy="58" fill="#80FFFF" rx="11" ry="11" style="stroke: #A80036; stroke-width: 1.0;"/><path d="M346.4688,63.6406 Q345.8906,63.9375 345.25,64.0781 Q344.6094,64.2344 343.9063,64.2344 Q341.4063,64.2344 340.0781,62.5938 Q338.7656,60.9375 338.7656,57.8125 Q338.7656,54.6875 340.0781,53.0313 Q341.4063,51.375 343.9063,51.375 Q344.6094,51.375 345.25,51.5313 Q345.9063,51.6875 346.4688,51.9844 L346.4688,54.7031 Q345.8438,54.125 345.25,53.8594 Q344.6563,53.5781 344.0313,53.5781 Q342.6875,53.5781 342,54.6563 Q341.3125,55.7188 341.3125,57.8125 Q341.3125,59.9063 342,60.9844 Q342.6875,62.0469 344.0313,62.0469 Q344.6563,62.0469 345.25,61.7813 Q345.8438,61.5 346.4688,60.9219 L346.4688,63.6406 Z "/><text fill="#000000" font-family="sans-serif" font-size="12" lengthAdjust="spacingAndGlyphs" textLength="137" x="357.5" y="62.1543">TopLevelClassSupport</text><rect fill="#FFFFFF" height="15.9688" style="stroke: #000000; stroke-width: 1.0; stroke-dasharray: 2.0,2.0;" width="98" x="502.5" y="39"/><text fill="#000000" font-family="sans-serif" font-size="12" font-style="italic" lengthAdjust="spacingAndGlyphs" textLength="88" x="507.5" y="51.1387">Catch all class</text><!--MD5=[52303d185de782118d4739c052001bf2]
class Gnome::GObject::Signal--><rect codeLine="12" fill="#FEFECE" filter="url(#f1ppvlao2vv2u)" height="32" id="Gnome::GObject::Signal" style="stroke: #A80036; stroke-width: 1.5;" width="131" x="260.5" y="149"/><ellipse cx="275.5" cy="165" fill="#80FFFF" rx="11" ry="11" style="stroke: #A80036; stroke-width: 1.0;"/><path d="M276.7031,165.1406 Q277.0625,165.2188 277.3281,165.5 Q277.6094,165.7656 278,166.5469 L280.2344,171 L277.5469,171 L276.0469,167.875 Q275.9844,167.7344 275.875,167.5 Q275.2188,166.1094 274.3281,166.1094 L273.5469,166.1094 L273.5469,171 L271.1094,171 L271.1094,158.6094 L274.6406,158.6094 Q277.0313,158.6094 278.0625,159.4531 Q279.1094,160.2969 279.1094,162.2031 Q279.1094,163.4844 278.4844,164.25 Q277.875,165 276.7031,165.1406 Z M273.5469,160.6719 L273.5469,164.0469 L274.7031,164.0469 Q275.7188,164.0469 276.1406,163.6563 Q276.5781,163.25 276.5781,162.3438 Q276.5781,161.4531 276.1406,161.0625 Q275.7188,160.6719 274.7031,160.6719 L273.5469,160.6719 Z "/><text fill="#000000" font-family="sans-serif" font-size="12" lengthAdjust="spacingAndGlyphs" textLength="38" x="289.5" y="169.1543">Signal</text><rect fill="#FFFFFF" height="15.9688" style="stroke: #000000; stroke-width: 1.0; stroke-dasharray: 2.0,2.0;" width="59" x="335.5" y="146"/><text fill="#000000" font-family="sans-serif" font-size="12" font-style="italic" lengthAdjust="spacingAndGlyphs" textLength="57" x="336.5" y="158.1387">Interface</text><!--MD5=[c2016d28441601ceb0a74f47a4537d14]
class Gnome::GObject::Object--><rect fill="#FEFECE" filter="url(#f1ppvlao2vv2u)" height="32" id="Gnome::GObject::Object" style="stroke: #A80036; stroke-width: 1.5;" width="72" x="427" y="149"/><ellipse cx="442" cy="165" fill="#80FFFF" rx="11" ry="11" style="stroke: #A80036; stroke-width: 1.0;"/><path d="M444.9688,170.6406 Q444.3906,170.9375 443.75,171.0781 Q443.1094,171.2344 442.4063,171.2344 Q439.9063,171.2344 438.5781,169.5938 Q437.2656,167.9375 437.2656,164.8125 Q437.2656,161.6875 438.5781,160.0313 Q439.9063,158.375 442.4063,158.375 Q443.1094,158.375 443.75,158.5313 Q444.4063,158.6875 444.9688,158.9844 L444.9688,161.7031 Q444.3438,161.125 443.75,160.8594 Q443.1563,160.5781 442.5313,160.5781 Q441.1875,160.5781 440.5,161.6563 Q439.8125,162.7188 439.8125,164.8125 Q439.8125,166.9063 440.5,167.9844 Q441.1875,169.0469 442.5313,169.0469 Q443.1563,169.0469 443.75,168.7813 Q444.3438,168.5 444.9688,167.9219 L444.9688,170.6406 Z "/><text fill="#000000" font-family="sans-serif" font-size="12" lengthAdjust="spacingAndGlyphs" textLength="40" x="456" y="169.1543">Object</text><!--MD5=[f47b9a4a06d3f9bed948fa39f8c5540e]
class Gnome::GObject::InitialyUnowned--><rect fill="#FEFECE" filter="url(#f1ppvlao2vv2u)" height="32" id="Gnome::GObject::InitialyUnowned" style="stroke: #A80036; stroke-width: 1.5;" width="129" x="369.5" y="241"/><ellipse cx="384.5" cy="257" fill="#80FFFF" rx="11" ry="11" style="stroke: #A80036; stroke-width: 1.0;"/><path d="M387.4688,262.6406 Q386.8906,262.9375 386.25,263.0781 Q385.6094,263.2344 384.9063,263.2344 Q382.4063,263.2344 381.0781,261.5938 Q379.7656,259.9375 379.7656,256.8125 Q379.7656,253.6875 381.0781,252.0313 Q382.4063,250.375 384.9063,250.375 Q385.6094,250.375 386.25,250.5313 Q386.9063,250.6875 387.4688,250.9844 L387.4688,253.7031 Q386.8438,253.125 386.25,252.8594 Q385.6563,252.5781 385.0313,252.5781 Q383.6875,252.5781 383,253.6563 Q382.3125,254.7188 382.3125,256.8125 Q382.3125,258.9063 383,259.9844 Q383.6875,261.0469 385.0313,261.0469 Q385.6563,261.0469 386.25,260.7813 Q386.8438,260.5 387.4688,259.9219 L387.4688,262.6406 Z "/><text fill="#000000" font-family="sans-serif" font-size="12" lengthAdjust="spacingAndGlyphs" textLength="97" x="398.5" y="261.1543">InitialyUnowned</text><!--MD5=[fc528952aa489a9a9f8514412a46a5d5]
class Gnome::Gtk3::Buildable--><rect codeLine="15" fill="#FEFECE" filter="url(#f1ppvlao2vv2u)" height="32" id="Gnome::Gtk3::Buildable" style="stroke: #A80036; stroke-width: 1.5;" width="150" x="231" y="348"/><ellipse cx="246" cy="364" fill="#80FFFF" rx="11" ry="11" style="stroke: #A80036; stroke-width: 1.0;"/><path d="M247.2031,364.1406 Q247.5625,364.2188 247.8281,364.5 Q248.1094,364.7656 248.5,365.5469 L250.7344,370 L248.0469,370 L246.5469,366.875 Q246.4844,366.7344 246.375,366.5 Q245.7188,365.1094 244.8281,365.1094 L244.0469,365.1094 L244.0469,370 L241.6094,370 L241.6094,357.6094 L245.1406,357.6094 Q247.5313,357.6094 248.5625,358.4531 Q249.6094,359.2969 249.6094,361.2031 Q249.6094,362.4844 248.9844,363.25 Q248.375,364 247.2031,364.1406 Z M244.0469,359.6719 L244.0469,363.0469 L245.2031,363.0469 Q246.2188,363.0469 246.6406,362.6563 Q247.0781,362.25 247.0781,361.3438 Q247.0781,360.4531 246.6406,360.0625 Q246.2188,359.6719 245.2031,359.6719 L244.0469,359.6719 Z "/><text fill="#000000" font-family="sans-serif" font-size="12" lengthAdjust="spacingAndGlyphs" textLength="57" x="260" y="368.1543">Buildable</text><rect fill="#FFFFFF" height="15.9688" style="stroke: #000000; stroke-width: 1.0; stroke-dasharray: 2.0,2.0;" width="59" x="325" y="345"/><text fill="#000000" font-family="sans-serif" font-size="12" font-style="italic" lengthAdjust="spacingAndGlyphs" textLength="57" x="326" y="357.1387">Interface</text><!--MD5=[99c1fd59bdfde6048aec9e6766dd53ef]
class Gnome::Gtk3::Widget--><rect codeLine="24" fill="#FEFECE" filter="url(#f1ppvlao2vv2u)" height="32" id="Gnome::Gtk3::Widget" style="stroke: #A80036; stroke-width: 1.5;" width="75" x="351.5" y="440"/><ellipse cx="366.5" cy="456" fill="#80FFFF" rx="11" ry="11" style="stroke: #A80036; stroke-width: 1.0;"/><path d="M369.4688,461.6406 Q368.8906,461.9375 368.25,462.0781 Q367.6094,462.2344 366.9063,462.2344 Q364.4063,462.2344 363.0781,460.5938 Q361.7656,458.9375 361.7656,455.8125 Q361.7656,452.6875 363.0781,451.0313 Q364.4063,449.375 366.9063,449.375 Q367.6094,449.375 368.25,449.5313 Q368.9063,449.6875 369.4688,449.9844 L369.4688,452.7031 Q368.8438,452.125 368.25,451.8594 Q367.6563,451.5781 367.0313,451.5781 Q365.6875,451.5781 365,452.6563 Q364.3125,453.7188 364.3125,455.8125 Q364.3125,457.9063 365,458.9844 Q365.6875,460.0469 367.0313,460.0469 Q367.6563,460.0469 368.25,459.7813 Q368.8438,459.5 369.4688,458.9219 L369.4688,461.6406 Z "/><text fill="#000000" font-family="sans-serif" font-size="12" lengthAdjust="spacingAndGlyphs" textLength="43" x="380.5" y="460.1543">Widget</text><!--MD5=[8475d959d77acc346db561b49952bf1a]
class Gnome::Gtk3::Window--><rect fill="#FEFECE" filter="url(#f1ppvlao2vv2u)" height="32" id="Gnome::Gtk3::Window" style="stroke: #A80036; stroke-width: 1.5;" width="79" x="23.5" y="440"/><ellipse cx="38.5" cy="456" fill="#80FFFF" rx="11" ry="11" style="stroke: #A80036; stroke-width: 1.0;"/><path d="M41.4688,461.6406 Q40.8906,461.9375 40.25,462.0781 Q39.6094,462.2344 38.9063,462.2344 Q36.4063,462.2344 35.0781,460.5938 Q33.7656,458.9375 33.7656,455.8125 Q33.7656,452.6875 35.0781,451.0313 Q36.4063,449.375 38.9063,449.375 Q39.6094,449.375 40.25,449.5313 Q40.9063,449.6875 41.4688,449.9844 L41.4688,452.7031 Q40.8438,452.125 40.25,451.8594 Q39.6563,451.5781 39.0313,451.5781 Q37.6875,451.5781 37,452.6563 Q36.3125,453.7188 36.3125,455.8125 Q36.3125,457.9063 37,458.9844 Q37.6875,460.0469 39.0313,460.0469 Q39.6563,460.0469 40.25,459.7813 Q40.8438,459.5 41.4688,458.9219 L41.4688,461.6406 Z "/><text fill="#000000" font-family="sans-serif" font-size="12" lengthAdjust="spacingAndGlyphs" textLength="47" x="52.5" y="460.1543">Window</text><!--MD5=[6ac0a199e9a9e53d446254a1d59f3468]
class Gnome::Gtk3::Bin--><rect fill="#FEFECE" filter="url(#f1ppvlao2vv2u)" height="32" id="Gnome::Gtk3::Bin" style="stroke: #A80036; stroke-width: 1.5;" width="51" x="137.5" y="440"/><ellipse cx="152.5" cy="456" fill="#80FFFF" rx="11" ry="11" style="stroke: #A80036; stroke-width: 1.0;"/><path d="M155.4688,461.6406 Q154.8906,461.9375 154.25,462.0781 Q153.6094,462.2344 152.9063,462.2344 Q150.4063,462.2344 149.0781,460.5938 Q147.7656,458.9375 147.7656,455.8125 Q147.7656,452.6875 149.0781,451.0313 Q150.4063,449.375 152.9063,449.375 Q153.6094,449.375 154.25,449.5313 Q154.9063,449.6875 155.4688,449.9844 L155.4688,452.7031 Q154.8438,452.125 154.25,451.8594 Q153.6563,451.5781 153.0313,451.5781 Q151.6875,451.5781 151,452.6563 Q150.3125,453.7188 150.3125,455.8125 Q150.3125,457.9063 151,458.9844 Q151.6875,460.0469 153.0313,460.0469 Q153.6563,460.0469 154.25,459.7813 Q154.8438,459.5 155.4688,458.9219 L155.4688,461.6406 Z "/><text fill="#000000" font-family="sans-serif" font-size="12" lengthAdjust="spacingAndGlyphs" textLength="19" x="166.5" y="460.1543">Bin</text><!--MD5=[9e3cc955f682d05594420e46d2e4e3ea]
class Gnome::Gtk3::Container--><rect fill="#FEFECE" filter="url(#f1ppvlao2vv2u)" height="32" id="Gnome::Gtk3::Container" style="stroke: #A80036; stroke-width: 1.5;" width="93" x="223.5" y="440"/><ellipse cx="238.5" cy="456" fill="#80FFFF" rx="11" ry="11" style="stroke: #A80036; stroke-width: 1.0;"/><path d="M241.4688,461.6406 Q240.8906,461.9375 240.25,462.0781 Q239.6094,462.2344 238.9063,462.2344 Q236.4063,462.2344 235.0781,460.5938 Q233.7656,458.9375 233.7656,455.8125 Q233.7656,452.6875 235.0781,451.0313 Q236.4063,449.375 238.9063,449.375 Q239.6094,449.375 240.25,449.5313 Q240.9063,449.6875 241.4688,449.9844 L241.4688,452.7031 Q240.8438,452.125 240.25,451.8594 Q239.6563,451.5781 239.0313,451.5781 Q237.6875,451.5781 237,452.6563 Q236.3125,453.7188 236.3125,455.8125 Q236.3125,457.9063 237,458.9844 Q237.6875,460.0469 239.0313,460.0469 Q239.6563,460.0469 240.25,459.7813 Q240.8438,459.5 241.4688,458.9219 L241.4688,461.6406 Z "/><text fill="#000000" font-family="sans-serif" font-size="12" lengthAdjust="spacingAndGlyphs" textLength="61" x="252.5" y="460.1543">Container</text><!--MD5=[9f7affbd0ca84e7cadd5e9f89aa9a2b3]
class Gnome::Gtk3::ShortcutsWindow--><rect fill="#FEFECE" filter="url(#f1ppvlao2vv2u)" height="32" id="Gnome::Gtk3::ShortcutsWindow" style="stroke: #A80036; stroke-width: 1.5;" width="140" x="23" y="532"/><ellipse cx="38" cy="548" fill="#80FFFF" rx="11" ry="11" style="stroke: #A80036; stroke-width: 1.0;"/><path d="M40.9688,553.6406 Q40.3906,553.9375 39.75,554.0781 Q39.1094,554.2344 38.4063,554.2344 Q35.9063,554.2344 34.5781,552.5938 Q33.2656,550.9375 33.2656,547.8125 Q33.2656,544.6875 34.5781,543.0313 Q35.9063,541.375 38.4063,541.375 Q39.1094,541.375 39.75,541.5313 Q40.4063,541.6875 40.9688,541.9844 L40.9688,544.7031 Q40.3438,544.125 39.75,543.8594 Q39.1563,543.5781 38.5313,543.5781 Q37.1875,543.5781 36.5,544.6563 Q35.8125,545.7188 35.8125,547.8125 Q35.8125,549.9063 36.5,550.9844 Q37.1875,552.0469 38.5313,552.0469 Q39.1563,552.0469 39.75,551.7813 Q40.3438,551.5 40.9688,550.9219 L40.9688,553.6406 Z "/><text fill="#000000" font-family="sans-serif" font-size="12" lengthAdjust="spacingAndGlyphs" textLength="108" x="52" y="552.1543">ShortcutsWindow</text><!--MD5=[e23b679cf607d12ac81e9c5301595709]
reverse link Gnome::N::TopLevelClassSupport to Gnome::GObject::Object--><path codeLine="18" d="M463,94.1 C463,112.76 463,134.73 463,148.98 " fill="none" id="Gnome::N::TopLevelClassSupport-backto-Gnome::GObject::Object" style="stroke: #A80036; stroke-width: 1.0;"/><polygon fill="none" points="456,94.04,463,74.04,470,94.04,456,94.04" style="stroke: #A80036; stroke-width: 1.0;"/><!--MD5=[2e57c6084092ea441ae4a3f826779dd8]
reverse link Gnome::GObject::Object to Gnome::GObject::InitialyUnowned--><path codeLine="19" d="M451.84,200.63 C447.34,214.59 442.39,229.96 438.85,240.96 " fill="none" id="Gnome::GObject::Object-backto-Gnome::GObject::InitialyUnowned" style="stroke: #A80036; stroke-width: 1.0;"/><polygon fill="none" points="445.28,198.16,458.08,181.27,458.61,202.45,445.28,198.16" style="stroke: #A80036; stroke-width: 1.0;"/><!--MD5=[f8ffcf4587ba956cb48626a4231e4d21]
reverse link Gnome::GObject::Signal to Gnome::GObject::Object--><path codeLine="20" d="M411.77,165 C416.85,165 421.92,165 427,165 " fill="none" id="Gnome::GObject::Signal-backto-Gnome::GObject::Object" style="stroke: #A80036; stroke-width: 1.0; stroke-dasharray: 7.0,7.0;"/><polygon fill="none" points="411.56,172,391.56,165,411.56,158,411.56,172" style="stroke: #A80036; stroke-width: 1.0;"/><!--MD5=[aa49dbc803ccf1c2ef8546b297b1dcfd]
reverse link Gnome::GObject::InitialyUnowned to Gnome::Gtk3::Widget--><path codeLine="22" d="M426.04,292.83 C416.13,336.25 399.61,408.55 392.47,439.82 " fill="none" id="Gnome::GObject::InitialyUnowned-backto-Gnome::Gtk3::Widget" style="stroke: #A80036; stroke-width: 1.0;"/><polygon fill="none" points="419.27,291.07,430.54,273.13,432.91,294.19,419.27,291.07" style="stroke: #A80036; stroke-width: 1.0;"/><!--MD5=[1335099fcd58edb25b444005b6858935]
reverse link Gnome::Gtk3::Buildable to Gnome::Gtk3::Widget--><path d="M333.89,395.25 C347.76,410.29 363.91,427.8 375.13,439.96 " fill="none" id="Gnome::Gtk3::Buildable-backto-Gnome::Gtk3::Widget" style="stroke: #A80036; stroke-width: 1.0; stroke-dasharray: 7.0,7.0;"/><polygon fill="none" points="328.49,399.72,320.08,380.27,338.78,390.22,328.49,399.72" style="stroke: #A80036; stroke-width: 1.0;"/><!--MD5=[933f665365ad6e2aa8fe50645ba3b70c]
link Gnome::Gtk3::Window to Gnome::Gtk3::Bin--><path codeLine="25" d="M102.84,456 C107.58,456 112.31,456 117.05,456 " fill="none" id="Gnome::Gtk3::Window-to-Gnome::Gtk3::Bin" style="stroke: #A80036; stroke-width: 1.0;"/><polygon fill="none" points="117.15,449,137.15,456,117.15,463,117.15,449" style="stroke: #A80036; stroke-width: 1.0;"/><!--MD5=[aa2b56f221bfaa2860ef37394f2d22b5]
link Gnome::Gtk3::Bin to Gnome::Gtk3::Container--><path codeLine="26" d="M188.91,456 C193.68,456 198.44,456 203.21,456 " fill="none" id="Gnome::Gtk3::Bin-to-Gnome::Gtk3::Container" style="stroke: #A80036; stroke-width: 1.0;"/><polygon fill="none" points="203.44,449,223.44,456,203.44,463,203.44,449" style="stroke: #A80036; stroke-width: 1.0;"/><!--MD5=[aaf476f5d2312b98d0ee61e81272172c]
link Gnome::Gtk3::Container to Gnome::Gtk3::Widget--><path codeLine="27" d="M316.95,456 C321.69,456 326.43,456 331.17,456 " fill="none" id="Gnome::Gtk3::Container-to-Gnome::Gtk3::Widget" style="stroke: #A80036; stroke-width: 1.0;"/><polygon fill="none" points="331.29,449,351.29,456,331.29,463,331.29,449" style="stroke: #A80036; stroke-width: 1.0;"/><!--MD5=[1c0a9d467121d780b8496fda8d428428]
reverse link Gnome::Gtk3::Window to Gnome::Gtk3::ShortcutsWindow--><path codeLine="29" d="M74.54,491.63 C79.2,505.59 84.32,520.96 87.99,531.96 " fill="none" id="Gnome::Gtk3::Window-backto-Gnome::Gtk3::ShortcutsWindow" style="stroke: #A80036; stroke-width: 1.0;"/><polygon fill="none" points="67.77,493.45,68.09,472.27,81.05,489.03,67.77,493.45" style="stroke: #A80036; stroke-width: 1.0;"/><!--MD5=[e9ce04f93f80885ebbeb04018323573b]
@startuml
'scale 0.8
skinparam packageStyle rectangle
skinparam stereotypeCBackgroundColor #80ffff
set namespaceSeparator ::
hide members

'Class and interface decorations
class Gnome::N::TopLevelClassSupport < Catch all class >

Interface Gnome::GObject::Signal <Interface>
class Gnome::GObject::Signal <<(R,#80ffff)>>

Interface Gnome::Gtk3::Buildable <Interface>
class Gnome::Gtk3::Buildable <<(R,#80ffff)>>

'Class connections
Gnome::N::TopLevelClassSupport <|- - Gnome::GObject::Object
Gnome::GObject::Object <|- - Gnome::GObject::InitialyUnowned
Gnome::GObject::Signal <|. Gnome::GObject::Object

Gnome::GObject::InitialyUnowned <|- - - Gnome::Gtk3::Widget

class Gnome::Gtk3::Widget implements Gnome::Gtk3::Buildable
Gnome::Gtk3::Window -|> Gnome::Gtk3::Bin
Gnome::Gtk3::Bin -|> Gnome::Gtk3::Container
Gnome::Gtk3::Container -|> Gnome::Gtk3::Widget

Gnome::Gtk3::Window <|- - Gnome::Gtk3::ShortcutsWindow
@enduml

@startuml
skinparam packageStyle rectangle
skinparam stereotypeCBackgroundColor #80ffff
set namespaceSeparator ::
hide members

class Gnome::N::TopLevelClassSupport < Catch all class >

Interface Gnome::GObject::Signal <Interface>
class Gnome::GObject::Signal <<(R,#80ffff)>>

Interface Gnome::Gtk3::Buildable <Interface>
class Gnome::Gtk3::Buildable <<(R,#80ffff)>>

Gnome::N::TopLevelClassSupport <|- - Gnome::GObject::Object
Gnome::GObject::Object <|- - Gnome::GObject::InitialyUnowned
Gnome::GObject::Signal <|. Gnome::GObject::Object

Gnome::GObject::InitialyUnowned <|- - - Gnome::Gtk3::Widget

class Gnome::Gtk3::Widget implements Gnome::Gtk3::Buildable
Gnome::Gtk3::Window -|> Gnome::Gtk3::Bin
Gnome::Gtk3::Bin -|> Gnome::Gtk3::Container
Gnome::Gtk3::Container -|> Gnome::Gtk3::Widget

Gnome::Gtk3::Window <|- - Gnome::Gtk3::ShortcutsWindow
@enduml

PlantUML version 1.2020.19(Mon Oct 12 17:10:01 CEST 2020)
(GPL source distribution)
Java Runtime: OpenJDK Runtime Environment
JVM: OpenJDK 64-Bit Server VM
Default Encoding: UTF-8
Language: en
Country: US
--></g></svg>