<?xml version="1.0" encoding="UTF-8" standalone="no"?><svg xmlns="http://www.w3.org/2000/svg" xmlns:xlink="http://www.w3.org/1999/xlink" contentScriptType="application/ecmascript" contentStyleType="text/css" height="500px" preserveAspectRatio="none" style="width:589px;height:500px;" version="1.1" viewBox="0 0 589 500" width="589px" zoomAndPan="magnify"><defs><filter height="300%" id="f1qr6n4msdhgwe" width="300%" x="-1" y="-1"><feGaussianBlur result="blurOut" stdDeviation="2.0"/><feColorMatrix in="blurOut" result="blurOut2" type="matrix" values="0 0 0 0 0 0 0 0 0 0 0 0 0 0 0 0 0 0 .4 0"/><feOffset dx="4.0" dy="4.0" in="blurOut2" result="blurOut3"/><feBlend in="SourceGraphic" in2="blurOut3" mode="normal"/></filter></defs><g><!--MD5=[b969295f0ec9b4fa482091c3e26049be]
cluster Gnome::N--><rect fill="#FFFFFF" filter="url(#f1qr6n4msdhgwe)" height="83" style="stroke: #000000; stroke-width: 1.5;" width="302" x="124" y="7"/><text fill="#000000" font-family="sans-serif" font-size="14" font-weight="bold" lengthAdjust="spacingAndGlyphs" textLength="79" x="235.5" y="21.9951">Gnome::N</text><!--MD5=[2fb3f9b624b0544b9841d5da78ec0508]
cluster Gnome::GObject--><rect fill="#FFFFFF" filter="url(#f1qr6n4msdhgwe)" height="175" style="stroke: #000000; stroke-width: 1.5;" width="271" x="56" y="114"/><text fill="#000000" font-family="sans-serif" font-size="14" font-weight="bold" lengthAdjust="spacingAndGlyphs" textLength="131" x="126" y="128.9951">Gnome::GObject</text><!--MD5=[7d67f77911969026863717fbb204e273]
cluster Gnome::Gtk3--><rect fill="#FFFFFF" filter="url(#f1qr6n4msdhgwe)" height="175" style="stroke: #000000; stroke-width: 1.5;" width="570" x="7" y="313"/><text fill="#000000" font-family="sans-serif" font-size="14" font-weight="bold" lengthAdjust="spacingAndGlyphs" textLength="105" x="239.5" y="327.9951">Gnome::Gtk3</text><!--MD5=[0b8e281ccd00c72019a31d78e9f95b5d]
class Gnome::N::TopLevelClassSupport--><rect codeLine="9" fill="#FEFECE" filter="url(#f1qr6n4msdhgwe)" height="32" id="Gnome::N::TopLevelClassSupport" style="stroke: #A80036; stroke-width: 1.5;" width="269" x="140.5" y="42"/><ellipse cx="155.5" cy="58" fill="#80FFFF" rx="11" ry="11" style="stroke: #A80036; stroke-width: 1.0;"/><path d="M158.4688,63.6406 Q157.8906,63.9375 157.25,64.0781 Q156.6094,64.2344 155.9063,64.2344 Q153.4063,64.2344 152.0781,62.5938 Q150.7656,60.9375 150.7656,57.8125 Q150.7656,54.6875 152.0781,53.0313 Q153.4063,51.375 155.9063,51.375 Q156.6094,51.375 157.25,51.5313 Q157.9063,51.6875 158.4688,51.9844 L158.4688,54.7031 Q157.8438,54.125 157.25,53.8594 Q156.6563,53.5781 156.0313,53.5781 Q154.6875,53.5781 154,54.6563 Q153.3125,55.7188 153.3125,57.8125 Q153.3125,59.9063 154,60.9844 Q154.6875,62.0469 156.0313,62.0469 Q156.6563,62.0469 157.25,61.7813 Q157.8438,61.5 158.4688,60.9219 L158.4688,63.6406 Z "/><text fill="#000000" font-family="sans-serif" font-size="12" lengthAdjust="spacingAndGlyphs" textLength="137" x="169.5" y="62.1807">TopLevelClassSupport</text><rect fill="#FFFFFF" height="15.9688" style="stroke: #000000; stroke-width: 1.0; stroke-dasharray: 2.0,2.0;" width="98" x="314.5" y="39"/><text fill="#000000" font-family="sans-serif" font-size="12" font-style="italic" lengthAdjust="spacingAndGlyphs" textLength="88" x="319.5" y="51.1387">Catch all class</text><!--MD5=[c2016d28441601ceb0a74f47a4537d14]
class Gnome::GObject::Object--><rect fill="#FEFECE" filter="url(#f1qr6n4msdhgwe)" height="32" id="Gnome::GObject::Object" style="stroke: #A80036; stroke-width: 1.5;" width="72" x="239" y="149"/><ellipse cx="254" cy="165" fill="#80FFFF" rx="11" ry="11" style="stroke: #A80036; stroke-width: 1.0;"/><path d="M256.9688,170.6406 Q256.3906,170.9375 255.75,171.0781 Q255.1094,171.2344 254.4063,171.2344 Q251.9063,171.2344 250.5781,169.5938 Q249.2656,167.9375 249.2656,164.8125 Q249.2656,161.6875 250.5781,160.0313 Q251.9063,158.375 254.4063,158.375 Q255.1094,158.375 255.75,158.5313 Q256.4063,158.6875 256.9688,158.9844 L256.9688,161.7031 Q256.3438,161.125 255.75,160.8594 Q255.1563,160.5781 254.5313,160.5781 Q253.1875,160.5781 252.5,161.6563 Q251.8125,162.7188 251.8125,164.8125 Q251.8125,166.9063 252.5,167.9844 Q253.1875,169.0469 254.5313,169.0469 Q255.1563,169.0469 255.75,168.7813 Q256.3438,168.5 256.9688,167.9219 L256.9688,170.6406 Z "/><text fill="#000000" font-family="sans-serif" font-size="12" lengthAdjust="spacingAndGlyphs" textLength="40" x="268" y="169.1807">Object</text><!--MD5=[52303d185de782118d4739c052001bf2]
class Gnome::GObject::Signal--><rect codeLine="13" fill="#FEFECE" filter="url(#f1qr6n4msdhgwe)" height="32" id="Gnome::GObject::Signal" style="stroke: #A80036; stroke-width: 1.5;" width="131" x="72.5" y="149"/><ellipse cx="87.5" cy="165" fill="#80FFFF" rx="11" ry="11" style="stroke: #A80036; stroke-width: 1.0;"/><path d="M88.7031,165.1406 Q89.0625,165.2188 89.3281,165.5 Q89.6094,165.7656 90,166.5469 L92.2344,171 L89.5469,171 L88.0469,167.875 Q87.9844,167.7344 87.875,167.5 Q87.2188,166.1094 86.3281,166.1094 L85.5469,166.1094 L85.5469,171 L83.1094,171 L83.1094,158.6094 L86.6406,158.6094 Q89.0313,158.6094 90.0625,159.4531 Q91.1094,160.2969 91.1094,162.2031 Q91.1094,163.4844 90.4844,164.25 Q89.875,165 88.7031,165.1406 Z M85.5469,160.6719 L85.5469,164.0469 L86.7031,164.0469 Q87.7188,164.0469 88.1406,163.6563 Q88.5781,163.25 88.5781,162.3438 Q88.5781,161.4531 88.1406,161.0625 Q87.7188,160.6719 86.7031,160.6719 L85.5469,160.6719 Z "/><text fill="#000000" font-family="sans-serif" font-size="12" lengthAdjust="spacingAndGlyphs" textLength="38" x="101.5" y="169.1807">Signal</text><rect fill="#FFFFFF" height="15.9688" style="stroke: #000000; stroke-width: 1.0; stroke-dasharray: 2.0,2.0;" width="59" x="147.5" y="146"/><text fill="#000000" font-family="sans-serif" font-size="12" font-style="italic" lengthAdjust="spacingAndGlyphs" textLength="57" x="148.5" y="158.1387">Interface</text><!--MD5=[f47b9a4a06d3f9bed948fa39f8c5540e]
class Gnome::GObject::InitialyUnowned--><rect fill="#FEFECE" filter="url(#f1qr6n4msdhgwe)" height="32" id="Gnome::GObject::InitialyUnowned" style="stroke: #A80036; stroke-width: 1.5;" width="129" x="181.5" y="241"/><ellipse cx="196.5" cy="257" fill="#80FFFF" rx="11" ry="11" style="stroke: #A80036; stroke-width: 1.0;"/><path d="M199.4688,262.6406 Q198.8906,262.9375 198.25,263.0781 Q197.6094,263.2344 196.9063,263.2344 Q194.4063,263.2344 193.0781,261.5938 Q191.7656,259.9375 191.7656,256.8125 Q191.7656,253.6875 193.0781,252.0313 Q194.4063,250.375 196.9063,250.375 Q197.6094,250.375 198.25,250.5313 Q198.9063,250.6875 199.4688,250.9844 L199.4688,253.7031 Q198.8438,253.125 198.25,252.8594 Q197.6563,252.5781 197.0313,252.5781 Q195.6875,252.5781 195,253.6563 Q194.3125,254.7188 194.3125,256.8125 Q194.3125,258.9063 195,259.9844 Q195.6875,261.0469 197.0313,261.0469 Q197.6563,261.0469 198.25,260.7813 Q198.8438,260.5 199.4688,259.9219 L199.4688,262.6406 Z "/><text fill="#000000" font-family="sans-serif" font-size="12" lengthAdjust="spacingAndGlyphs" textLength="97" x="210.5" y="261.1807">InitialyUnowned</text><!--MD5=[fc528952aa489a9a9f8514412a46a5d5]
class Gnome::Gtk3::Buildable--><rect codeLine="16" fill="#FEFECE" filter="url(#f1qr6n4msdhgwe)" height="32" id="Gnome::Gtk3::Buildable" style="stroke: #A80036; stroke-width: 1.5;" width="150" x="23" y="348"/><ellipse cx="38" cy="364" fill="#80FFFF" rx="11" ry="11" style="stroke: #A80036; stroke-width: 1.0;"/><path d="M39.2031,364.1406 Q39.5625,364.2188 39.8281,364.5 Q40.1094,364.7656 40.5,365.5469 L42.7344,370 L40.0469,370 L38.5469,366.875 Q38.4844,366.7344 38.375,366.5 Q37.7188,365.1094 36.8281,365.1094 L36.0469,365.1094 L36.0469,370 L33.6094,370 L33.6094,357.6094 L37.1406,357.6094 Q39.5313,357.6094 40.5625,358.4531 Q41.6094,359.2969 41.6094,361.2031 Q41.6094,362.4844 40.9844,363.25 Q40.375,364 39.2031,364.1406 Z M36.0469,359.6719 L36.0469,363.0469 L37.2031,363.0469 Q38.2188,363.0469 38.6406,362.6563 Q39.0781,362.25 39.0781,361.3438 Q39.0781,360.4531 38.6406,360.0625 Q38.2188,359.6719 37.2031,359.6719 L36.0469,359.6719 Z "/><text fill="#000000" font-family="sans-serif" font-size="12" lengthAdjust="spacingAndGlyphs" textLength="57" x="52" y="368.1807">Buildable</text><rect fill="#FFFFFF" height="15.9688" style="stroke: #000000; stroke-width: 1.0; stroke-dasharray: 2.0,2.0;" width="59" x="117" y="345"/><text fill="#000000" font-family="sans-serif" font-size="12" font-style="italic" lengthAdjust="spacingAndGlyphs" textLength="57" x="118" y="357.1387">Interface</text><!--MD5=[d6eabe1c7eff9ae69807fb6cb96adcff]
class Gnome::Gtk3::CellEditable--><rect codeLine="19" fill="#FEFECE" filter="url(#f1qr6n4msdhgwe)" height="32" id="Gnome::Gtk3::CellEditable" style="stroke: #A80036; stroke-width: 1.5;" width="166" x="23" y="440"/><ellipse cx="38" cy="456" fill="#80FFFF" rx="11" ry="11" style="stroke: #A80036; stroke-width: 1.0;"/><path d="M39.2031,456.1406 Q39.5625,456.2188 39.8281,456.5 Q40.1094,456.7656 40.5,457.5469 L42.7344,462 L40.0469,462 L38.5469,458.875 Q38.4844,458.7344 38.375,458.5 Q37.7188,457.1094 36.8281,457.1094 L36.0469,457.1094 L36.0469,462 L33.6094,462 L33.6094,449.6094 L37.1406,449.6094 Q39.5313,449.6094 40.5625,450.4531 Q41.6094,451.2969 41.6094,453.2031 Q41.6094,454.4844 40.9844,455.25 Q40.375,456 39.2031,456.1406 Z M36.0469,451.6719 L36.0469,455.0469 L37.2031,455.0469 Q38.2188,455.0469 38.6406,454.6563 Q39.0781,454.25 39.0781,453.3438 Q39.0781,452.4531 38.6406,452.0625 Q38.2188,451.6719 37.2031,451.6719 L36.0469,451.6719 Z "/><text fill="#000000" font-family="sans-serif" font-size="12" lengthAdjust="spacingAndGlyphs" textLength="73" x="52" y="460.1807">CellEditable</text><rect fill="#FFFFFF" height="15.9688" style="stroke: #000000; stroke-width: 1.0; stroke-dasharray: 2.0,2.0;" width="59" x="133" y="437"/><text fill="#000000" font-family="sans-serif" font-size="12" font-style="italic" lengthAdjust="spacingAndGlyphs" textLength="57" x="134" y="449.1387">Interface</text><!--MD5=[69aa6618b87a435af619b8ad6b6190a6]
class Gnome::Gtk3::Editable--><rect codeLine="22" fill="#FEFECE" filter="url(#f1qr6n4msdhgwe)" height="32" id="Gnome::Gtk3::Editable" style="stroke: #A80036; stroke-width: 1.5;" width="144" x="224" y="440"/><ellipse cx="239" cy="456" fill="#80FFFF" rx="11" ry="11" style="stroke: #A80036; stroke-width: 1.0;"/><path d="M240.2031,456.1406 Q240.5625,456.2188 240.8281,456.5 Q241.1094,456.7656 241.5,457.5469 L243.7344,462 L241.0469,462 L239.5469,458.875 Q239.4844,458.7344 239.375,458.5 Q238.7188,457.1094 237.8281,457.1094 L237.0469,457.1094 L237.0469,462 L234.6094,462 L234.6094,449.6094 L238.1406,449.6094 Q240.5313,449.6094 241.5625,450.4531 Q242.6094,451.2969 242.6094,453.2031 Q242.6094,454.4844 241.9844,455.25 Q241.375,456 240.2031,456.1406 Z M237.0469,451.6719 L237.0469,455.0469 L238.2031,455.0469 Q239.2188,455.0469 239.6406,454.6563 Q240.0781,454.25 240.0781,453.3438 Q240.0781,452.4531 239.6406,452.0625 Q239.2188,451.6719 238.2031,451.6719 L237.0469,451.6719 Z "/><text fill="#000000" font-family="sans-serif" font-size="12" lengthAdjust="spacingAndGlyphs" textLength="51" x="253" y="460.1807">Editable</text><rect fill="#FFFFFF" height="15.9688" style="stroke: #000000; stroke-width: 1.0; stroke-dasharray: 2.0,2.0;" width="59" x="312" y="437"/><text fill="#000000" font-family="sans-serif" font-size="12" font-style="italic" lengthAdjust="spacingAndGlyphs" textLength="57" x="313" y="449.1387">Interface</text><!--MD5=[865b113cd38444117c4dca48a702f1ee]
class Gnome::Gtk3::Orientable--><rect codeLine="25" fill="#FEFECE" filter="url(#f1qr6n4msdhgwe)" height="32" id="Gnome::Gtk3::Orientable" style="stroke: #A80036; stroke-width: 1.5;" width="158" x="403" y="440"/><ellipse cx="418" cy="456" fill="#80FFFF" rx="11" ry="11" style="stroke: #A80036; stroke-width: 1.0;"/><path d="M419.2031,456.1406 Q419.5625,456.2188 419.8281,456.5 Q420.1094,456.7656 420.5,457.5469 L422.7344,462 L420.0469,462 L418.5469,458.875 Q418.4844,458.7344 418.375,458.5 Q417.7188,457.1094 416.8281,457.1094 L416.0469,457.1094 L416.0469,462 L413.6094,462 L413.6094,449.6094 L417.1406,449.6094 Q419.5313,449.6094 420.5625,450.4531 Q421.6094,451.2969 421.6094,453.2031 Q421.6094,454.4844 420.9844,455.25 Q420.375,456 419.2031,456.1406 Z M416.0469,451.6719 L416.0469,455.0469 L417.2031,455.0469 Q418.2188,455.0469 418.6406,454.6563 Q419.0781,454.25 419.0781,453.3438 Q419.0781,452.4531 418.6406,452.0625 Q418.2188,451.6719 417.2031,451.6719 L416.0469,451.6719 Z "/><text fill="#000000" font-family="sans-serif" font-size="12" lengthAdjust="spacingAndGlyphs" textLength="65" x="432" y="460.1807">Orientable</text><rect fill="#FFFFFF" height="15.9688" style="stroke: #000000; stroke-width: 1.0; stroke-dasharray: 2.0,2.0;" width="59" x="505" y="437"/><text fill="#000000" font-family="sans-serif" font-size="12" font-style="italic" lengthAdjust="spacingAndGlyphs" textLength="57" x="506" y="449.1387">Interface</text><!--MD5=[99c1fd59bdfde6048aec9e6766dd53ef]
class Gnome::Gtk3::Widget--><rect fill="#FEFECE" filter="url(#f1qr6n4msdhgwe)" height="32" id="Gnome::Gtk3::Widget" style="stroke: #A80036; stroke-width: 1.5;" width="75" x="208.5" y="348"/><ellipse cx="223.5" cy="364" fill="#80FFFF" rx="11" ry="11" style="stroke: #A80036; stroke-width: 1.0;"/><path d="M226.4688,369.6406 Q225.8906,369.9375 225.25,370.0781 Q224.6094,370.2344 223.9063,370.2344 Q221.4063,370.2344 220.0781,368.5938 Q218.7656,366.9375 218.7656,363.8125 Q218.7656,360.6875 220.0781,359.0313 Q221.4063,357.375 223.9063,357.375 Q224.6094,357.375 225.25,357.5313 Q225.9063,357.6875 226.4688,357.9844 L226.4688,360.7031 Q225.8438,360.125 225.25,359.8594 Q224.6563,359.5781 224.0313,359.5781 Q222.6875,359.5781 222,360.6563 Q221.3125,361.7188 221.3125,363.8125 Q221.3125,365.9063 222,366.9844 Q222.6875,368.0469 224.0313,368.0469 Q224.6563,368.0469 225.25,367.7813 Q225.8438,367.5 226.4688,366.9219 L226.4688,369.6406 Z "/><text fill="#000000" font-family="sans-serif" font-size="12" lengthAdjust="spacingAndGlyphs" textLength="43" x="237.5" y="368.1807">Widget</text><!--MD5=[11bf0e1f5e34bd384caab10f724d3f8e]
class Gnome::Gtk3::Entry--><rect fill="#FEFECE" filter="url(#f1qr6n4msdhgwe)" height="32" id="Gnome::Gtk3::Entry" style="stroke: #A80036; stroke-width: 1.5;" width="64" x="319" y="348"/><ellipse cx="334" cy="364" fill="#80FFFF" rx="11" ry="11" style="stroke: #A80036; stroke-width: 1.0;"/><path d="M336.9688,369.6406 Q336.3906,369.9375 335.75,370.0781 Q335.1094,370.2344 334.4063,370.2344 Q331.9063,370.2344 330.5781,368.5938 Q329.2656,366.9375 329.2656,363.8125 Q329.2656,360.6875 330.5781,359.0313 Q331.9063,357.375 334.4063,357.375 Q335.1094,357.375 335.75,357.5313 Q336.4063,357.6875 336.9688,357.9844 L336.9688,360.7031 Q336.3438,360.125 335.75,359.8594 Q335.1563,359.5781 334.5313,359.5781 Q333.1875,359.5781 332.5,360.6563 Q331.8125,361.7188 331.8125,363.8125 Q331.8125,365.9063 332.5,366.9844 Q333.1875,368.0469 334.5313,368.0469 Q335.1563,368.0469 335.75,367.7813 Q336.3438,367.5 336.9688,366.9219 L336.9688,369.6406 Z "/><text fill="#000000" font-family="sans-serif" font-size="12" lengthAdjust="spacingAndGlyphs" textLength="32" x="348" y="368.1807">Entry</text><!--MD5=[9d337c14617ba08ab605dbe306ca9c93]
class Gnome::Gtk3::SpinButton--><rect fill="#FEFECE" filter="url(#f1qr6n4msdhgwe)" height="32" id="Gnome::Gtk3::SpinButton" style="stroke: #A80036; stroke-width: 1.5;" width="101" x="424.5" y="348"/><ellipse cx="439.5" cy="364" fill="#80FFFF" rx="11" ry="11" style="stroke: #A80036; stroke-width: 1.0;"/><path d="M442.4688,369.6406 Q441.8906,369.9375 441.25,370.0781 Q440.6094,370.2344 439.9063,370.2344 Q437.4063,370.2344 436.0781,368.5938 Q434.7656,366.9375 434.7656,363.8125 Q434.7656,360.6875 436.0781,359.0313 Q437.4063,357.375 439.9063,357.375 Q440.6094,357.375 441.25,357.5313 Q441.9063,357.6875 442.4688,357.9844 L442.4688,360.7031 Q441.8438,360.125 441.25,359.8594 Q440.6563,359.5781 440.0313,359.5781 Q438.6875,359.5781 438,360.6563 Q437.3125,361.7188 437.3125,363.8125 Q437.3125,365.9063 438,366.9844 Q438.6875,368.0469 440.0313,368.0469 Q440.6563,368.0469 441.25,367.7813 Q441.8438,367.5 442.4688,366.9219 L442.4688,369.6406 Z "/><text fill="#000000" font-family="sans-serif" font-size="12" lengthAdjust="spacingAndGlyphs" textLength="69" x="453.5" y="368.1807">SpinButton</text><!--MD5=[e23b679cf607d12ac81e9c5301595709]
reverse link Gnome::N::TopLevelClassSupport to Gnome::GObject::Object--><path codeLine="10" d="M275,94.1 C275,112.76 275,134.73 275,148.98 " fill="none" id="Gnome::N::TopLevelClassSupport-backto-Gnome::GObject::Object" style="stroke: #A80036; stroke-width: 1.0;"/><polygon fill="none" points="268,94.04,275,74.04,282,94.04,268,94.04" style="stroke: #A80036; stroke-width: 1.0;"/><!--MD5=[2e57c6084092ea441ae4a3f826779dd8]
reverse link Gnome::GObject::Object to Gnome::GObject::InitialyUnowned--><path codeLine="29" d="M263.84,200.63 C259.34,214.59 254.39,229.96 250.85,240.96 " fill="none" id="Gnome::GObject::Object-backto-Gnome::GObject::InitialyUnowned" style="stroke: #A80036; stroke-width: 1.0;"/><polygon fill="none" points="257.28,198.16,270.08,181.27,270.61,202.45,257.28,198.16" style="stroke: #A80036; stroke-width: 1.0;"/><!--MD5=[f8ffcf4587ba956cb48626a4231e4d21]
reverse link Gnome::GObject::Signal to Gnome::GObject::Object--><path codeLine="30" d="M223.77,165 C228.85,165 233.92,165 239,165 " fill="none" id="Gnome::GObject::Signal-backto-Gnome::GObject::Object" style="stroke: #A80036; stroke-width: 1.0; stroke-dasharray: 7.0,7.0;"/><polygon fill="none" points="223.56,172,203.56,165,223.56,158,223.56,172" style="stroke: #A80036; stroke-width: 1.0;"/><!--MD5=[aa49dbc803ccf1c2ef8546b297b1dcfd]
reverse link Gnome::GObject::InitialyUnowned to Gnome::Gtk3::Widget--><path codeLine="32" d="M246,293.1 C246,311.76 246,333.73 246,347.98 " fill="none" id="Gnome::GObject::InitialyUnowned-backto-Gnome::Gtk3::Widget" style="stroke: #A80036; stroke-width: 1.0;"/><polygon fill="none" points="239,293.04,246,273.04,253,293.04,239,293.04" style="stroke: #A80036; stroke-width: 1.0;"/><!--MD5=[1335099fcd58edb25b444005b6858935]
reverse link Gnome::Gtk3::Buildable to Gnome::Gtk3::Widget--><path codeLine="33" d="M193.28,364 C198.33,364 203.39,364 208.44,364 " fill="none" id="Gnome::Gtk3::Buildable-backto-Gnome::Gtk3::Widget" style="stroke: #A80036; stroke-width: 1.0; stroke-dasharray: 7.0,7.0;"/><polygon fill="none" points="193.16,371,173.16,364,193.16,357,193.16,371" style="stroke: #A80036; stroke-width: 1.0;"/><!--MD5=[86eb4e904633c7956566c0315da0d08b]
reverse link Gnome::Gtk3::Widget to Gnome::Gtk3::Entry--><path codeLine="35" d="M303.81,364 C308.86,364 313.9,364 318.94,364 " fill="none" id="Gnome::Gtk3::Widget-backto-Gnome::Gtk3::Entry" style="stroke: #A80036; stroke-width: 1.0;"/><polygon fill="none" points="303.73,371,283.73,364,303.73,357,303.73,371" style="stroke: #A80036; stroke-width: 1.0;"/><!--MD5=[640c33123b7c09f74fb32ff45f8a4e98]
link Gnome::Gtk3::Entry to Gnome::Gtk3::CellEditable--><path codeLine="36" d="M318.97,376.77 C280.21,391 214.15,415.27 165.86,433.01 " fill="none" id="Gnome::Gtk3::Entry-to-Gnome::Gtk3::CellEditable" style="stroke: #A80036; stroke-width: 1.0; stroke-dasharray: 7.0,7.0;"/><polygon fill="none" points="168.21,439.6,147.02,439.93,163.38,426.46,168.21,439.6" style="stroke: #A80036; stroke-width: 1.0;"/><!--MD5=[4998f26b496cef49be21a87596609773]
link Gnome::Gtk3::Entry to Gnome::Gtk3::Editable--><path codeLine="37" d="M341.67,380.27 C334.6,391.84 324.62,408.17 315.79,422.62 " fill="none" id="Gnome::Gtk3::Entry-to-Gnome::Gtk3::Editable" style="stroke: #A80036; stroke-width: 1.0; stroke-dasharray: 7.0,7.0;"/><polygon fill="none" points="321.59,426.54,305.19,439.96,309.65,419.24,321.59,426.54" style="stroke: #A80036; stroke-width: 1.0;"/><!--MD5=[3d487a04ea9c2f75d3bc634a6ca02018]
reverse link Gnome::Gtk3::Entry to Gnome::Gtk3::SpinButton--><path codeLine="39" d="M403.52,364 C410.42,364 417.32,364 424.22,364 " fill="none" id="Gnome::Gtk3::Entry-backto-Gnome::Gtk3::SpinButton" style="stroke: #A80036; stroke-width: 1.0;"/><polygon fill="none" points="403.45,371,383.45,364,403.45,357,403.45,371" style="stroke: #A80036; stroke-width: 1.0;"/><!--MD5=[04b6087d3a75f1c1c6810c4d39e824e6]
link Gnome::Gtk3::SpinButton to Gnome::Gtk3::Orientable--><path codeLine="40" d="M476.19,380.27 C477.03,391.06 478.19,405.99 479.25,419.67 " fill="none" id="Gnome::Gtk3::SpinButton-to-Gnome::Gtk3::Orientable" style="stroke: #A80036; stroke-width: 1.0; stroke-dasharray: 7.0,7.0;"/><polygon fill="none" points="486.26,419.48,480.83,439.96,472.3,420.56,486.26,419.48" style="stroke: #A80036; stroke-width: 1.0;"/><!--MD5=[476277198dc34be65df01489981930be]
@startuml
'scale 0.9
skinparam packageStyle rectangle
skinparam stereotypeCBackgroundColor #80ffff
set namespaceSeparator ::
hide members


class Gnome::N::TopLevelClassSupport < Catch all class >
Gnome::N::TopLevelClassSupport <|- - Gnome::GObject::Object

Interface Gnome::GObject::Signal <Interface>
class Gnome::GObject::Signal <<(R,#80ffff)>>

Interface Gnome::Gtk3::Buildable <Interface>
class Gnome::Gtk3::Buildable <<(R,#80ffff)>>

Interface Gnome::Gtk3::CellEditable <Interface>
class Gnome::Gtk3::CellEditable <<(R,#80ffff)>>

Interface Gnome::Gtk3::Editable <Interface>
class Gnome::Gtk3::Editable <<(R,#80ffff)>>

Interface Gnome::Gtk3::Orientable <Interface>
class Gnome::Gtk3::Orientable <<(R,#80ffff)>>



Gnome::GObject::Object <|- - Gnome::GObject::InitialyUnowned
Gnome::GObject::Signal <|. Gnome::GObject::Object

Gnome::GObject::InitialyUnowned <|- - Gnome::Gtk3::Widget
Gnome::Gtk3::Buildable <|. Gnome::Gtk3::Widget

Gnome::Gtk3::Widget <|- Gnome::Gtk3::Entry
Gnome::Gtk3::Entry ..|> Gnome::Gtk3::CellEditable
Gnome::Gtk3::Entry ..|> Gnome::Gtk3::Editable

Gnome::Gtk3::Entry <|- Gnome::Gtk3::SpinButton
Gnome::Gtk3::SpinButton ..|> Gnome::Gtk3::Orientable

@enduml

@startuml
skinparam packageStyle rectangle
skinparam stereotypeCBackgroundColor #80ffff
set namespaceSeparator ::
hide members


class Gnome::N::TopLevelClassSupport < Catch all class >
Gnome::N::TopLevelClassSupport <|- - Gnome::GObject::Object

Interface Gnome::GObject::Signal <Interface>
class Gnome::GObject::Signal <<(R,#80ffff)>>

Interface Gnome::Gtk3::Buildable <Interface>
class Gnome::Gtk3::Buildable <<(R,#80ffff)>>

Interface Gnome::Gtk3::CellEditable <Interface>
class Gnome::Gtk3::CellEditable <<(R,#80ffff)>>

Interface Gnome::Gtk3::Editable <Interface>
class Gnome::Gtk3::Editable <<(R,#80ffff)>>

Interface Gnome::Gtk3::Orientable <Interface>
class Gnome::Gtk3::Orientable <<(R,#80ffff)>>



Gnome::GObject::Object <|- - Gnome::GObject::InitialyUnowned
Gnome::GObject::Signal <|. Gnome::GObject::Object

Gnome::GObject::InitialyUnowned <|- - Gnome::Gtk3::Widget
Gnome::Gtk3::Buildable <|. Gnome::Gtk3::Widget

Gnome::Gtk3::Widget <|- Gnome::Gtk3::Entry
Gnome::Gtk3::Entry ..|> Gnome::Gtk3::CellEditable
Gnome::Gtk3::Entry ..|> Gnome::Gtk3::Editable

Gnome::Gtk3::Entry <|- Gnome::Gtk3::SpinButton
Gnome::Gtk3::SpinButton ..|> Gnome::Gtk3::Orientable

@enduml

PlantUML version 1.2020.19(Mon Oct 12 17:10:01 CEST 2020)
(GPL source distribution)
Java Runtime: OpenJDK Runtime Environment
JVM: OpenJDK 64-Bit Server VM
Default Encoding: UTF-8
Language: en
Country: null
--></g></svg>