<?xml version="1.0" encoding="UTF-8" standalone="no"?><svg xmlns="http://www.w3.org/2000/svg" xmlns:xlink="http://www.w3.org/1999/xlink" contentScriptType="application/ecmascript" contentStyleType="text/css" height="500px" preserveAspectRatio="none" style="width:804px;height:500px;" version="1.1" viewBox="0 0 804 500" width="804px" zoomAndPan="magnify"><defs><filter height="300%" id="f1h4oitkqnbj8m" width="300%" x="-1" y="-1"><feGaussianBlur result="blurOut" stdDeviation="2.0"/><feColorMatrix in="blurOut" result="blurOut2" type="matrix" values="0 0 0 0 0 0 0 0 0 0 0 0 0 0 0 0 0 0 .4 0"/><feOffset dx="4.0" dy="4.0" in="blurOut2" result="blurOut3"/><feBlend in="SourceGraphic" in2="blurOut3" mode="normal"/></filter></defs><g><!--MD5=[b969295f0ec9b4fa482091c3e26049be]
cluster Gnome::N--><rect fill="#FFFFFF" filter="url(#f1h4oitkqnbj8m)" height="83" style="stroke: #000000; stroke-width: 1.5;" width="302" x="75" y="7"/><text fill="#000000" font-family="sans-serif" font-size="14" font-weight="bold" lengthAdjust="spacingAndGlyphs" textLength="79" x="186.5" y="21.9951">Gnome::N</text><!--MD5=[2fb3f9b624b0544b9841d5da78ec0508]
cluster Gnome::GObject--><rect fill="#FFFFFF" filter="url(#f1h4oitkqnbj8m)" height="175" style="stroke: #000000; stroke-width: 1.5;" width="271" x="7" y="114"/><text fill="#000000" font-family="sans-serif" font-size="14" font-weight="bold" lengthAdjust="spacingAndGlyphs" textLength="131" x="77" y="128.9951">Gnome::GObject</text><!--MD5=[7d67f77911969026863717fbb204e273]
cluster Gnome::Gtk3--><rect fill="#FFFFFF" filter="url(#f1h4oitkqnbj8m)" height="175" style="stroke: #000000; stroke-width: 1.5;" width="755" x="37" y="313"/><text fill="#000000" font-family="sans-serif" font-size="14" font-weight="bold" lengthAdjust="spacingAndGlyphs" textLength="105" x="362" y="327.9951">Gnome::Gtk3</text><!--MD5=[0b8e281ccd00c72019a31d78e9f95b5d]
class Gnome::N::TopLevelClassSupport--><rect codeLine="9" fill="#FEFECE" filter="url(#f1h4oitkqnbj8m)" height="32" id="Gnome::N::TopLevelClassSupport" style="stroke: #A80036; stroke-width: 1.5;" width="269" x="91.5" y="42"/><ellipse cx="106.5" cy="58" fill="#80FFFF" rx="11" ry="11" style="stroke: #A80036; stroke-width: 1.0;"/><path d="M109.4688,63.6406 Q108.8906,63.9375 108.25,64.0781 Q107.6094,64.2344 106.9063,64.2344 Q104.4063,64.2344 103.0781,62.5938 Q101.7656,60.9375 101.7656,57.8125 Q101.7656,54.6875 103.0781,53.0313 Q104.4063,51.375 106.9063,51.375 Q107.6094,51.375 108.25,51.5313 Q108.9063,51.6875 109.4688,51.9844 L109.4688,54.7031 Q108.8438,54.125 108.25,53.8594 Q107.6563,53.5781 107.0313,53.5781 Q105.6875,53.5781 105,54.6563 Q104.3125,55.7188 104.3125,57.8125 Q104.3125,59.9063 105,60.9844 Q105.6875,62.0469 107.0313,62.0469 Q107.6563,62.0469 108.25,61.7813 Q108.8438,61.5 109.4688,60.9219 L109.4688,63.6406 Z "/><text fill="#000000" font-family="sans-serif" font-size="12" lengthAdjust="spacingAndGlyphs" textLength="137" x="120.5" y="62.1807">TopLevelClassSupport</text><rect fill="#FFFFFF" height="15.9688" style="stroke: #000000; stroke-width: 1.0; stroke-dasharray: 2.0,2.0;" width="98" x="265.5" y="39"/><text fill="#000000" font-family="sans-serif" font-size="12" font-style="italic" lengthAdjust="spacingAndGlyphs" textLength="88" x="270.5" y="51.1387">Catch all class</text><!--MD5=[c2016d28441601ceb0a74f47a4537d14]
class Gnome::GObject::Object--><rect fill="#FEFECE" filter="url(#f1h4oitkqnbj8m)" height="32" id="Gnome::GObject::Object" style="stroke: #A80036; stroke-width: 1.5;" width="72" x="190" y="149"/><ellipse cx="205" cy="165" fill="#80FFFF" rx="11" ry="11" style="stroke: #A80036; stroke-width: 1.0;"/><path d="M207.9688,170.6406 Q207.3906,170.9375 206.75,171.0781 Q206.1094,171.2344 205.4063,171.2344 Q202.9063,171.2344 201.5781,169.5938 Q200.2656,167.9375 200.2656,164.8125 Q200.2656,161.6875 201.5781,160.0313 Q202.9063,158.375 205.4063,158.375 Q206.1094,158.375 206.75,158.5313 Q207.4063,158.6875 207.9688,158.9844 L207.9688,161.7031 Q207.3438,161.125 206.75,160.8594 Q206.1563,160.5781 205.5313,160.5781 Q204.1875,160.5781 203.5,161.6563 Q202.8125,162.7188 202.8125,164.8125 Q202.8125,166.9063 203.5,167.9844 Q204.1875,169.0469 205.5313,169.0469 Q206.1563,169.0469 206.75,168.7813 Q207.3438,168.5 207.9688,167.9219 L207.9688,170.6406 Z "/><text fill="#000000" font-family="sans-serif" font-size="12" lengthAdjust="spacingAndGlyphs" textLength="40" x="219" y="169.1807">Object</text><!--MD5=[52303d185de782118d4739c052001bf2]
class Gnome::GObject::Signal--><rect codeLine="13" fill="#FEFECE" filter="url(#f1h4oitkqnbj8m)" height="32" id="Gnome::GObject::Signal" style="stroke: #A80036; stroke-width: 1.5;" width="131" x="23.5" y="149"/><ellipse cx="38.5" cy="165" fill="#80FFFF" rx="11" ry="11" style="stroke: #A80036; stroke-width: 1.0;"/><path d="M39.7031,165.1406 Q40.0625,165.2188 40.3281,165.5 Q40.6094,165.7656 41,166.5469 L43.2344,171 L40.5469,171 L39.0469,167.875 Q38.9844,167.7344 38.875,167.5 Q38.2188,166.1094 37.3281,166.1094 L36.5469,166.1094 L36.5469,171 L34.1094,171 L34.1094,158.6094 L37.6406,158.6094 Q40.0313,158.6094 41.0625,159.4531 Q42.1094,160.2969 42.1094,162.2031 Q42.1094,163.4844 41.4844,164.25 Q40.875,165 39.7031,165.1406 Z M36.5469,160.6719 L36.5469,164.0469 L37.7031,164.0469 Q38.7188,164.0469 39.1406,163.6563 Q39.5781,163.25 39.5781,162.3438 Q39.5781,161.4531 39.1406,161.0625 Q38.7188,160.6719 37.7031,160.6719 L36.5469,160.6719 Z "/><text fill="#000000" font-family="sans-serif" font-size="12" lengthAdjust="spacingAndGlyphs" textLength="38" x="52.5" y="169.1807">Signal</text><rect fill="#FFFFFF" height="15.9688" style="stroke: #000000; stroke-width: 1.0; stroke-dasharray: 2.0,2.0;" width="59" x="98.5" y="146"/><text fill="#000000" font-family="sans-serif" font-size="12" font-style="italic" lengthAdjust="spacingAndGlyphs" textLength="57" x="99.5" y="158.1387">Interface</text><!--MD5=[f47b9a4a06d3f9bed948fa39f8c5540e]
class Gnome::GObject::InitialyUnowned--><rect fill="#FEFECE" filter="url(#f1h4oitkqnbj8m)" height="32" id="Gnome::GObject::InitialyUnowned" style="stroke: #A80036; stroke-width: 1.5;" width="129" x="132.5" y="241"/><ellipse cx="147.5" cy="257" fill="#80FFFF" rx="11" ry="11" style="stroke: #A80036; stroke-width: 1.0;"/><path d="M150.4688,262.6406 Q149.8906,262.9375 149.25,263.0781 Q148.6094,263.2344 147.9063,263.2344 Q145.4063,263.2344 144.0781,261.5938 Q142.7656,259.9375 142.7656,256.8125 Q142.7656,253.6875 144.0781,252.0313 Q145.4063,250.375 147.9063,250.375 Q148.6094,250.375 149.25,250.5313 Q149.9063,250.6875 150.4688,250.9844 L150.4688,253.7031 Q149.8438,253.125 149.25,252.8594 Q148.6563,252.5781 148.0313,252.5781 Q146.6875,252.5781 146,253.6563 Q145.3125,254.7188 145.3125,256.8125 Q145.3125,258.9063 146,259.9844 Q146.6875,261.0469 148.0313,261.0469 Q148.6563,261.0469 149.25,260.7813 Q149.8438,260.5 150.4688,259.9219 L150.4688,262.6406 Z "/><text fill="#000000" font-family="sans-serif" font-size="12" lengthAdjust="spacingAndGlyphs" textLength="97" x="161.5" y="261.1807">InitialyUnowned</text><!--MD5=[fc528952aa489a9a9f8514412a46a5d5]
class Gnome::Gtk3::Buildable--><rect codeLine="16" fill="#FEFECE" filter="url(#f1h4oitkqnbj8m)" height="32" id="Gnome::Gtk3::Buildable" style="stroke: #A80036; stroke-width: 1.5;" width="150" x="53" y="440"/><ellipse cx="68" cy="456" fill="#80FFFF" rx="11" ry="11" style="stroke: #A80036; stroke-width: 1.0;"/><path d="M69.2031,456.1406 Q69.5625,456.2188 69.8281,456.5 Q70.1094,456.7656 70.5,457.5469 L72.7344,462 L70.0469,462 L68.5469,458.875 Q68.4844,458.7344 68.375,458.5 Q67.7188,457.1094 66.8281,457.1094 L66.0469,457.1094 L66.0469,462 L63.6094,462 L63.6094,449.6094 L67.1406,449.6094 Q69.5313,449.6094 70.5625,450.4531 Q71.6094,451.2969 71.6094,453.2031 Q71.6094,454.4844 70.9844,455.25 Q70.375,456 69.2031,456.1406 Z M66.0469,451.6719 L66.0469,455.0469 L67.2031,455.0469 Q68.2188,455.0469 68.6406,454.6563 Q69.0781,454.25 69.0781,453.3438 Q69.0781,452.4531 68.6406,452.0625 Q68.2188,451.6719 67.2031,451.6719 L66.0469,451.6719 Z "/><text fill="#000000" font-family="sans-serif" font-size="12" lengthAdjust="spacingAndGlyphs" textLength="57" x="82" y="460.1807">Buildable</text><rect fill="#FFFFFF" height="15.9688" style="stroke: #000000; stroke-width: 1.0; stroke-dasharray: 2.0,2.0;" width="59" x="147" y="437"/><text fill="#000000" font-family="sans-serif" font-size="12" font-style="italic" lengthAdjust="spacingAndGlyphs" textLength="57" x="148" y="449.1387">Interface</text><!--MD5=[d6eabe1c7eff9ae69807fb6cb96adcff]
class Gnome::Gtk3::CellEditable--><rect codeLine="19" fill="#FEFECE" filter="url(#f1h4oitkqnbj8m)" height="32" id="Gnome::Gtk3::CellEditable" style="stroke: #A80036; stroke-width: 1.5;" width="166" x="417" y="440"/><ellipse cx="432" cy="456" fill="#80FFFF" rx="11" ry="11" style="stroke: #A80036; stroke-width: 1.0;"/><path d="M433.2031,456.1406 Q433.5625,456.2188 433.8281,456.5 Q434.1094,456.7656 434.5,457.5469 L436.7344,462 L434.0469,462 L432.5469,458.875 Q432.4844,458.7344 432.375,458.5 Q431.7188,457.1094 430.8281,457.1094 L430.0469,457.1094 L430.0469,462 L427.6094,462 L427.6094,449.6094 L431.1406,449.6094 Q433.5313,449.6094 434.5625,450.4531 Q435.6094,451.2969 435.6094,453.2031 Q435.6094,454.4844 434.9844,455.25 Q434.375,456 433.2031,456.1406 Z M430.0469,451.6719 L430.0469,455.0469 L431.2031,455.0469 Q432.2188,455.0469 432.6406,454.6563 Q433.0781,454.25 433.0781,453.3438 Q433.0781,452.4531 432.6406,452.0625 Q432.2188,451.6719 431.2031,451.6719 L430.0469,451.6719 Z "/><text fill="#000000" font-family="sans-serif" font-size="12" lengthAdjust="spacingAndGlyphs" textLength="73" x="446" y="460.1807">CellEditable</text><rect fill="#FFFFFF" height="15.9688" style="stroke: #000000; stroke-width: 1.0; stroke-dasharray: 2.0,2.0;" width="59" x="527" y="437"/><text fill="#000000" font-family="sans-serif" font-size="12" font-style="italic" lengthAdjust="spacingAndGlyphs" textLength="57" x="528" y="449.1387">Interface</text><!--MD5=[69aa6618b87a435af619b8ad6b6190a6]
class Gnome::Gtk3::Editable--><rect codeLine="22" fill="#FEFECE" filter="url(#f1h4oitkqnbj8m)" height="32" id="Gnome::Gtk3::Editable" style="stroke: #A80036; stroke-width: 1.5;" width="144" x="238" y="440"/><ellipse cx="253" cy="456" fill="#80FFFF" rx="11" ry="11" style="stroke: #A80036; stroke-width: 1.0;"/><path d="M254.2031,456.1406 Q254.5625,456.2188 254.8281,456.5 Q255.1094,456.7656 255.5,457.5469 L257.7344,462 L255.0469,462 L253.5469,458.875 Q253.4844,458.7344 253.375,458.5 Q252.7188,457.1094 251.8281,457.1094 L251.0469,457.1094 L251.0469,462 L248.6094,462 L248.6094,449.6094 L252.1406,449.6094 Q254.5313,449.6094 255.5625,450.4531 Q256.6094,451.2969 256.6094,453.2031 Q256.6094,454.4844 255.9844,455.25 Q255.375,456 254.2031,456.1406 Z M251.0469,451.6719 L251.0469,455.0469 L252.2031,455.0469 Q253.2188,455.0469 253.6406,454.6563 Q254.0781,454.25 254.0781,453.3438 Q254.0781,452.4531 253.6406,452.0625 Q253.2188,451.6719 252.2031,451.6719 L251.0469,451.6719 Z "/><text fill="#000000" font-family="sans-serif" font-size="12" lengthAdjust="spacingAndGlyphs" textLength="51" x="267" y="460.1807">Editable</text><rect fill="#FFFFFF" height="15.9688" style="stroke: #000000; stroke-width: 1.0; stroke-dasharray: 2.0,2.0;" width="59" x="326" y="437"/><text fill="#000000" font-family="sans-serif" font-size="12" font-style="italic" lengthAdjust="spacingAndGlyphs" textLength="57" x="327" y="449.1387">Interface</text><!--MD5=[865b113cd38444117c4dca48a702f1ee]
class Gnome::Gtk3::Orientable--><rect codeLine="25" fill="#FEFECE" filter="url(#f1h4oitkqnbj8m)" height="32" id="Gnome::Gtk3::Orientable" style="stroke: #A80036; stroke-width: 1.5;" width="158" x="618" y="440"/><ellipse cx="633" cy="456" fill="#80FFFF" rx="11" ry="11" style="stroke: #A80036; stroke-width: 1.0;"/><path d="M634.2031,456.1406 Q634.5625,456.2188 634.8281,456.5 Q635.1094,456.7656 635.5,457.5469 L637.7344,462 L635.0469,462 L633.5469,458.875 Q633.4844,458.7344 633.375,458.5 Q632.7188,457.1094 631.8281,457.1094 L631.0469,457.1094 L631.0469,462 L628.6094,462 L628.6094,449.6094 L632.1406,449.6094 Q634.5313,449.6094 635.5625,450.4531 Q636.6094,451.2969 636.6094,453.2031 Q636.6094,454.4844 635.9844,455.25 Q635.375,456 634.2031,456.1406 Z M631.0469,451.6719 L631.0469,455.0469 L632.2031,455.0469 Q633.2188,455.0469 633.6406,454.6563 Q634.0781,454.25 634.0781,453.3438 Q634.0781,452.4531 633.6406,452.0625 Q633.2188,451.6719 632.2031,451.6719 L631.0469,451.6719 Z "/><text fill="#000000" font-family="sans-serif" font-size="12" lengthAdjust="spacingAndGlyphs" textLength="65" x="647" y="460.1807">Orientable</text><rect fill="#FFFFFF" height="15.9688" style="stroke: #000000; stroke-width: 1.0; stroke-dasharray: 2.0,2.0;" width="59" x="720" y="437"/><text fill="#000000" font-family="sans-serif" font-size="12" font-style="italic" lengthAdjust="spacingAndGlyphs" textLength="57" x="721" y="449.1387">Interface</text><!--MD5=[99c1fd59bdfde6048aec9e6766dd53ef]
class Gnome::Gtk3::Widget--><rect fill="#FEFECE" filter="url(#f1h4oitkqnbj8m)" height="32" id="Gnome::Gtk3::Widget" style="stroke: #A80036; stroke-width: 1.5;" width="75" x="159.5" y="348"/><ellipse cx="174.5" cy="364" fill="#80FFFF" rx="11" ry="11" style="stroke: #A80036; stroke-width: 1.0;"/><path d="M177.4688,369.6406 Q176.8906,369.9375 176.25,370.0781 Q175.6094,370.2344 174.9063,370.2344 Q172.4063,370.2344 171.0781,368.5938 Q169.7656,366.9375 169.7656,363.8125 Q169.7656,360.6875 171.0781,359.0313 Q172.4063,357.375 174.9063,357.375 Q175.6094,357.375 176.25,357.5313 Q176.9063,357.6875 177.4688,357.9844 L177.4688,360.7031 Q176.8438,360.125 176.25,359.8594 Q175.6563,359.5781 175.0313,359.5781 Q173.6875,359.5781 173,360.6563 Q172.3125,361.7188 172.3125,363.8125 Q172.3125,365.9063 173,366.9844 Q173.6875,368.0469 175.0313,368.0469 Q175.6563,368.0469 176.25,367.7813 Q176.8438,367.5 177.4688,366.9219 L177.4688,369.6406 Z "/><text fill="#000000" font-family="sans-serif" font-size="12" lengthAdjust="spacingAndGlyphs" textLength="43" x="188.5" y="368.1807">Widget</text><!--MD5=[11bf0e1f5e34bd384caab10f724d3f8e]
class Gnome::Gtk3::Entry--><rect fill="#FEFECE" filter="url(#f1h4oitkqnbj8m)" height="32" id="Gnome::Gtk3::Entry" style="stroke: #A80036; stroke-width: 1.5;" width="64" x="308" y="348"/><ellipse cx="323" cy="364" fill="#80FFFF" rx="11" ry="11" style="stroke: #A80036; stroke-width: 1.0;"/><path d="M325.9688,369.6406 Q325.3906,369.9375 324.75,370.0781 Q324.1094,370.2344 323.4063,370.2344 Q320.9063,370.2344 319.5781,368.5938 Q318.2656,366.9375 318.2656,363.8125 Q318.2656,360.6875 319.5781,359.0313 Q320.9063,357.375 323.4063,357.375 Q324.1094,357.375 324.75,357.5313 Q325.4063,357.6875 325.9688,357.9844 L325.9688,360.7031 Q325.3438,360.125 324.75,359.8594 Q324.1563,359.5781 323.5313,359.5781 Q322.1875,359.5781 321.5,360.6563 Q320.8125,361.7188 320.8125,363.8125 Q320.8125,365.9063 321.5,366.9844 Q322.1875,368.0469 323.5313,368.0469 Q324.1563,368.0469 324.75,367.7813 Q325.3438,367.5 325.9688,366.9219 L325.9688,369.6406 Z "/><text fill="#000000" font-family="sans-serif" font-size="12" lengthAdjust="spacingAndGlyphs" textLength="32" x="337" y="368.1807">Entry</text><!--MD5=[9d337c14617ba08ab605dbe306ca9c93]
class Gnome::Gtk3::SpinButton--><rect fill="#FEFECE" filter="url(#f1h4oitkqnbj8m)" height="32" id="Gnome::Gtk3::SpinButton" style="stroke: #A80036; stroke-width: 1.5;" width="101" x="541.5" y="348"/><ellipse cx="556.5" cy="364" fill="#80FFFF" rx="11" ry="11" style="stroke: #A80036; stroke-width: 1.0;"/><path d="M559.4688,369.6406 Q558.8906,369.9375 558.25,370.0781 Q557.6094,370.2344 556.9063,370.2344 Q554.4063,370.2344 553.0781,368.5938 Q551.7656,366.9375 551.7656,363.8125 Q551.7656,360.6875 553.0781,359.0313 Q554.4063,357.375 556.9063,357.375 Q557.6094,357.375 558.25,357.5313 Q558.9063,357.6875 559.4688,357.9844 L559.4688,360.7031 Q558.8438,360.125 558.25,359.8594 Q557.6563,359.5781 557.0313,359.5781 Q555.6875,359.5781 555,360.6563 Q554.3125,361.7188 554.3125,363.8125 Q554.3125,365.9063 555,366.9844 Q555.6875,368.0469 557.0313,368.0469 Q557.6563,368.0469 558.25,367.7813 Q558.8438,367.5 559.4688,366.9219 L559.4688,369.6406 Z "/><text fill="#000000" font-family="sans-serif" font-size="12" lengthAdjust="spacingAndGlyphs" textLength="69" x="570.5" y="368.1807">SpinButton</text><!--MD5=[e23b679cf607d12ac81e9c5301595709]
reverse link Gnome::N::TopLevelClassSupport to Gnome::GObject::Object--><path codeLine="10" d="M226,94.1 C226,112.76 226,134.73 226,148.98 " fill="none" id="Gnome::N::TopLevelClassSupport-backto-Gnome::GObject::Object" style="stroke: #A80036; stroke-width: 1.0;"/><polygon fill="none" points="219,94.04,226,74.04,233,94.04,219,94.04" style="stroke: #A80036; stroke-width: 1.0;"/><!--MD5=[2e57c6084092ea441ae4a3f826779dd8]
reverse link Gnome::GObject::Object to Gnome::GObject::InitialyUnowned--><path codeLine="29" d="M214.84,200.63 C210.34,214.59 205.39,229.96 201.85,240.96 " fill="none" id="Gnome::GObject::Object-backto-Gnome::GObject::InitialyUnowned" style="stroke: #A80036; stroke-width: 1.0;"/><polygon fill="none" points="208.28,198.16,221.08,181.27,221.61,202.45,208.28,198.16" style="stroke: #A80036; stroke-width: 1.0;"/><!--MD5=[f8ffcf4587ba956cb48626a4231e4d21]
reverse link Gnome::GObject::Signal to Gnome::GObject::Object--><path codeLine="30" d="M174.77,165 C179.85,165 184.92,165 190,165 " fill="none" id="Gnome::GObject::Signal-backto-Gnome::GObject::Object" style="stroke: #A80036; stroke-width: 1.0; stroke-dasharray: 7.0,7.0;"/><polygon fill="none" points="174.56,172,154.56,165,174.56,158,174.56,172" style="stroke: #A80036; stroke-width: 1.0;"/><!--MD5=[aa49dbc803ccf1c2ef8546b297b1dcfd]
reverse link Gnome::GObject::InitialyUnowned to Gnome::Gtk3::Widget--><path codeLine="32" d="M197,293.1 C197,311.76 197,333.73 197,347.98 " fill="none" id="Gnome::GObject::InitialyUnowned-backto-Gnome::Gtk3::Widget" style="stroke: #A80036; stroke-width: 1.0;"/><polygon fill="none" points="190,293.04,197,273.04,204,293.04,190,293.04" style="stroke: #A80036; stroke-width: 1.0;"/><!--MD5=[e1568b3b4ceade3a3349f45f19b4c32a]
link Gnome::Gtk3::Widget to Gnome::Gtk3::Buildable--><path codeLine="33" d="M185.3,380.27 C176.12,392.23 163.05,409.28 151.71,424.07 " fill="none" id="Gnome::Gtk3::Widget-to-Gnome::Gtk3::Buildable" style="stroke: #A80036; stroke-width: 1.0; stroke-dasharray: 7.0,7.0;"/><polygon fill="none" points="157.26,428.35,139.53,439.96,146.15,419.83,157.26,428.35" style="stroke: #A80036; stroke-width: 1.0;"/><!--MD5=[86eb4e904633c7956566c0315da0d08b]
reverse link Gnome::Gtk3::Widget to Gnome::Gtk3::Entry--><path codeLine="35" d="M254.72,364 C272.46,364 290.19,364 307.92,364 " fill="none" id="Gnome::Gtk3::Widget-backto-Gnome::Gtk3::Entry" style="stroke: #A80036; stroke-width: 1.0;"/><polygon fill="none" points="254.71,371,234.71,364,254.71,357,254.71,371" style="stroke: #A80036; stroke-width: 1.0;"/><!--MD5=[640c33123b7c09f74fb32ff45f8a4e98]
link Gnome::Gtk3::Entry to Gnome::Gtk3::CellEditable--><path codeLine="36" d="M366.78,380.06 C391.01,393.69 427.15,414.02 455.69,430.07 " fill="none" id="Gnome::Gtk3::Entry-to-Gnome::Gtk3::CellEditable" style="stroke: #A80036; stroke-width: 1.0; stroke-dasharray: 7.0,7.0;"/><polygon fill="none" points="459.13,423.98,473.13,439.89,452.27,436.18,459.13,423.98" style="stroke: #A80036; stroke-width: 1.0;"/><!--MD5=[4998f26b496cef49be21a87596609773]
link Gnome::Gtk3::Entry to Gnome::Gtk3::Editable--><path codeLine="37" d="M334.91,380.27 C331.23,391.32 326.09,406.72 321.45,420.66 " fill="none" id="Gnome::Gtk3::Entry-to-Gnome::Gtk3::Editable" style="stroke: #A80036; stroke-width: 1.0; stroke-dasharray: 7.0,7.0;"/><polygon fill="none" points="327.98,423.2,315.01,439.96,314.7,418.77,327.98,423.2" style="stroke: #A80036; stroke-width: 1.0;"/><!--MD5=[3d487a04ea9c2f75d3bc634a6ca02018]
reverse link Gnome::Gtk3::Entry to Gnome::Gtk3::SpinButton--><path codeLine="39" d="M392.61,364 C442.21,364 491.81,364 541.41,364 " fill="none" id="Gnome::Gtk3::Entry-backto-Gnome::Gtk3::SpinButton" style="stroke: #A80036; stroke-width: 1.0;"/><polygon fill="none" points="392.48,371,372.48,364,392.48,357,392.48,371" style="stroke: #A80036; stroke-width: 1.0;"/><!--MD5=[04b6087d3a75f1c1c6810c4d39e824e6]
link Gnome::Gtk3::SpinButton to Gnome::Gtk3::Orientable--><path codeLine="40" d="M609.81,380.27 C624.68,393.02 646.28,411.52 664.26,426.93 " fill="none" id="Gnome::Gtk3::SpinButton-to-Gnome::Gtk3::Orientable" style="stroke: #A80036; stroke-width: 1.0; stroke-dasharray: 7.0,7.0;"/><polygon fill="none" points="668.82,421.63,679.45,439.96,659.71,432.26,668.82,421.63" style="stroke: #A80036; stroke-width: 1.0;"/><!--MD5=[ab2cf69e72d7db464b1e1fa66150e258]
@startuml
'scale 0.9
skinparam packageStyle rectangle
skinparam stereotypeCBackgroundColor #80ffff
set namespaceSeparator ::
hide members


class Gnome::N::TopLevelClassSupport < Catch all class >
Gnome::N::TopLevelClassSupport <|- - Gnome::GObject::Object

Interface Gnome::GObject::Signal <Interface>
class Gnome::GObject::Signal <<(R,#80ffff)>>

Interface Gnome::Gtk3::Buildable <Interface>
class Gnome::Gtk3::Buildable <<(R,#80ffff)>>

Interface Gnome::Gtk3::CellEditable <Interface>
class Gnome::Gtk3::CellEditable <<(R,#80ffff)>>

Interface Gnome::Gtk3::Editable <Interface>
class Gnome::Gtk3::Editable <<(R,#80ffff)>>

Interface Gnome::Gtk3::Orientable <Interface>
class Gnome::Gtk3::Orientable <<(R,#80ffff)>>



Gnome::GObject::Object <|- - Gnome::GObject::InitialyUnowned
Gnome::GObject::Signal <|. Gnome::GObject::Object

Gnome::GObject::InitialyUnowned <|- - Gnome::Gtk3::Widget
Gnome::Gtk3::Widget ..|> Gnome::Gtk3::Buildable

Gnome::Gtk3::Widget <|- Gnome::Gtk3::Entry
Gnome::Gtk3::Entry ..|> Gnome::Gtk3::CellEditable
Gnome::Gtk3::Entry ..|> Gnome::Gtk3::Editable

Gnome::Gtk3::Entry <|- Gnome::Gtk3::SpinButton
Gnome::Gtk3::SpinButton ..|> Gnome::Gtk3::Orientable

@enduml

@startuml
skinparam packageStyle rectangle
skinparam stereotypeCBackgroundColor #80ffff
set namespaceSeparator ::
hide members


class Gnome::N::TopLevelClassSupport < Catch all class >
Gnome::N::TopLevelClassSupport <|- - Gnome::GObject::Object

Interface Gnome::GObject::Signal <Interface>
class Gnome::GObject::Signal <<(R,#80ffff)>>

Interface Gnome::Gtk3::Buildable <Interface>
class Gnome::Gtk3::Buildable <<(R,#80ffff)>>

Interface Gnome::Gtk3::CellEditable <Interface>
class Gnome::Gtk3::CellEditable <<(R,#80ffff)>>

Interface Gnome::Gtk3::Editable <Interface>
class Gnome::Gtk3::Editable <<(R,#80ffff)>>

Interface Gnome::Gtk3::Orientable <Interface>
class Gnome::Gtk3::Orientable <<(R,#80ffff)>>



Gnome::GObject::Object <|- - Gnome::GObject::InitialyUnowned
Gnome::GObject::Signal <|. Gnome::GObject::Object

Gnome::GObject::InitialyUnowned <|- - Gnome::Gtk3::Widget
Gnome::Gtk3::Widget ..|> Gnome::Gtk3::Buildable

Gnome::Gtk3::Widget <|- Gnome::Gtk3::Entry
Gnome::Gtk3::Entry ..|> Gnome::Gtk3::CellEditable
Gnome::Gtk3::Entry ..|> Gnome::Gtk3::Editable

Gnome::Gtk3::Entry <|- Gnome::Gtk3::SpinButton
Gnome::Gtk3::SpinButton ..|> Gnome::Gtk3::Orientable

@enduml

PlantUML version 1.2020.19(Mon Oct 12 17:10:01 CEST 2020)
(GPL source distribution)
Java Runtime: OpenJDK Runtime Environment
JVM: OpenJDK 64-Bit Server VM
Default Encoding: UTF-8
Language: en
Country: null
--></g></svg>