<?xml version="1.0" encoding="UTF-8" standalone="no"?><svg xmlns="http://www.w3.org/2000/svg" xmlns:xlink="http://www.w3.org/1999/xlink" contentScriptType="application/ecmascript" contentStyleType="text/css" height="462px" preserveAspectRatio="none" style="width:473px;height:462px;" version="1.1" viewBox="0 0 473 462" width="473px" zoomAndPan="magnify"><defs><filter height="300%" id="f1ghxg518sbtnp" width="300%" x="-1" y="-1"><feGaussianBlur result="blurOut" stdDeviation="2.0"/><feColorMatrix in="blurOut" result="blurOut2" type="matrix" values="0 0 0 0 0 0 0 0 0 0 0 0 0 0 0 0 0 0 .4 0"/><feOffset dx="4.0" dy="4.0" in="blurOut2" result="blurOut3"/><feBlend in="SourceGraphic" in2="blurOut3" mode="normal"/></filter></defs><g><!--cluster Gnome::N--><rect fill="#FFFFFF" filter="url(#f1ghxg518sbtnp)" height="67" style="stroke: #000000; stroke-width: 1.5;" width="286" x="176" y="16"/><text fill="#000000" font-family="sans-serif" font-size="14" font-weight="bold" lengthAdjust="spacingAndGlyphs" textLength="79" x="279.5" y="30.9951">Gnome::N</text><!--cluster Gnome::GObject--><rect fill="#FFFFFF" filter="url(#f1ghxg518sbtnp)" height="159" style="stroke: #000000; stroke-width: 1.5;" width="255" x="108" y="108"/><text fill="#000000" font-family="sans-serif" font-size="14" font-weight="bold" lengthAdjust="spacingAndGlyphs" textLength="131" x="170" y="122.9951">Gnome::GObject</text><!--cluster Gnome::Gtk3--><rect fill="#FFFFFF" filter="url(#f1ghxg518sbtnp)" height="159" style="stroke: #000000; stroke-width: 1.5;" width="322" x="14" y="292"/><text fill="#000000" font-family="sans-serif" font-size="14" font-weight="bold" lengthAdjust="spacingAndGlyphs" textLength="105" x="122.5" y="306.9951">Gnome::Gtk3</text><!--class Gnome::N::TopLevelClassSupport--><rect fill="#FEFECE" filter="url(#f1ghxg518sbtnp)" height="32" id="Gnome::N::TopLevelClassSupport" style="stroke: #A80036; stroke-width: 1.5;" width="269" x="184.5" y="43"/><ellipse cx="199.5" cy="59" fill="#80FFFF" rx="11" ry="11" style="stroke: #A80036; stroke-width: 1.0;"/><path d="M202.4688,64.6406 Q201.8906,64.9375 201.25,65.0781 Q200.6094,65.2344 199.9063,65.2344 Q197.4063,65.2344 196.0781,63.5938 Q194.7656,61.9375 194.7656,58.8125 Q194.7656,55.6875 196.0781,54.0313 Q197.4063,52.375 199.9063,52.375 Q200.6094,52.375 201.25,52.5313 Q201.9063,52.6875 202.4688,52.9844 L202.4688,55.7031 Q201.8438,55.125 201.25,54.8594 Q200.6563,54.5781 200.0313,54.5781 Q198.6875,54.5781 198,55.6563 Q197.3125,56.7188 197.3125,58.8125 Q197.3125,60.9063 198,61.9844 Q198.6875,63.0469 200.0313,63.0469 Q200.6563,63.0469 201.25,62.7813 Q201.8438,62.5 202.4688,61.9219 L202.4688,64.6406 Z "/><text fill="#000000" font-family="sans-serif" font-size="12" lengthAdjust="spacingAndGlyphs" textLength="137" x="213.5" y="63.1807">TopLevelClassSupport</text><rect fill="#FFFFFF" height="15.9688" style="stroke: #000000; stroke-width: 1.0; stroke-dasharray: 2.0,2.0;" width="98" x="358.5" y="40"/><text fill="#000000" font-family="sans-serif" font-size="12" font-style="italic" lengthAdjust="spacingAndGlyphs" textLength="88" x="363.5" y="52.1387">Catch all class</text><!--class Gnome::GObject::Signal--><rect fill="#FEFECE" filter="url(#f1ghxg518sbtnp)" height="32" id="Gnome::GObject::Signal" style="stroke: #A80036; stroke-width: 1.5;" width="131" x="116.5" y="135"/><ellipse cx="131.5" cy="151" fill="#80FFFF" rx="11" ry="11" style="stroke: #A80036; stroke-width: 1.0;"/><path d="M132.7031,151.1406 Q133.0625,151.2188 133.3281,151.5 Q133.6094,151.7656 134,152.5469 L136.2344,157 L133.5469,157 L132.0469,153.875 Q131.9844,153.7344 131.875,153.5 Q131.2188,152.1094 130.3281,152.1094 L129.5469,152.1094 L129.5469,157 L127.1094,157 L127.1094,144.6094 L130.6406,144.6094 Q133.0313,144.6094 134.0625,145.4531 Q135.1094,146.2969 135.1094,148.2031 Q135.1094,149.4844 134.4844,150.25 Q133.875,151 132.7031,151.1406 Z M129.5469,146.6719 L129.5469,150.0469 L130.7031,150.0469 Q131.7188,150.0469 132.1406,149.6563 Q132.5781,149.25 132.5781,148.3438 Q132.5781,147.4531 132.1406,147.0625 Q131.7188,146.6719 130.7031,146.6719 L129.5469,146.6719 Z "/><text fill="#000000" font-family="sans-serif" font-size="12" lengthAdjust="spacingAndGlyphs" textLength="38" x="145.5" y="155.1807">Signal</text><rect fill="#FFFFFF" height="15.9688" style="stroke: #000000; stroke-width: 1.0; stroke-dasharray: 2.0,2.0;" width="59" x="191.5" y="132"/><text fill="#000000" font-family="sans-serif" font-size="12" font-style="italic" lengthAdjust="spacingAndGlyphs" textLength="57" x="192.5" y="144.1387">Interface</text><!--class Gnome::GObject::Object--><rect fill="#FEFECE" filter="url(#f1ghxg518sbtnp)" height="32" id="Gnome::GObject::Object" style="stroke: #A80036; stroke-width: 1.5;" width="72" x="283" y="135"/><ellipse cx="298" cy="151" fill="#80FFFF" rx="11" ry="11" style="stroke: #A80036; stroke-width: 1.0;"/><path d="M300.9688,156.6406 Q300.3906,156.9375 299.75,157.0781 Q299.1094,157.2344 298.4063,157.2344 Q295.9063,157.2344 294.5781,155.5938 Q293.2656,153.9375 293.2656,150.8125 Q293.2656,147.6875 294.5781,146.0313 Q295.9063,144.375 298.4063,144.375 Q299.1094,144.375 299.75,144.5313 Q300.4063,144.6875 300.9688,144.9844 L300.9688,147.7031 Q300.3438,147.125 299.75,146.8594 Q299.1563,146.5781 298.5313,146.5781 Q297.1875,146.5781 296.5,147.6563 Q295.8125,148.7188 295.8125,150.8125 Q295.8125,152.9063 296.5,153.9844 Q297.1875,155.0469 298.5313,155.0469 Q299.1563,155.0469 299.75,154.7813 Q300.3438,154.5 300.9688,153.9219 L300.9688,156.6406 Z "/><text fill="#000000" font-family="sans-serif" font-size="12" lengthAdjust="spacingAndGlyphs" textLength="40" x="312" y="155.1807">Object</text><!--class Gnome::GObject::InitialyUnowned--><rect fill="#FEFECE" filter="url(#f1ghxg518sbtnp)" height="32" id="Gnome::GObject::InitialyUnowned" style="stroke: #A80036; stroke-width: 1.5;" width="129" x="225.5" y="227"/><ellipse cx="240.5" cy="243" fill="#80FFFF" rx="11" ry="11" style="stroke: #A80036; stroke-width: 1.0;"/><path d="M243.4688,248.6406 Q242.8906,248.9375 242.25,249.0781 Q241.6094,249.2344 240.9063,249.2344 Q238.4063,249.2344 237.0781,247.5938 Q235.7656,245.9375 235.7656,242.8125 Q235.7656,239.6875 237.0781,238.0313 Q238.4063,236.375 240.9063,236.375 Q241.6094,236.375 242.25,236.5313 Q242.9063,236.6875 243.4688,236.9844 L243.4688,239.7031 Q242.8438,239.125 242.25,238.8594 Q241.6563,238.5781 241.0313,238.5781 Q239.6875,238.5781 239,239.6563 Q238.3125,240.7188 238.3125,242.8125 Q238.3125,244.9063 239,245.9844 Q239.6875,247.0469 241.0313,247.0469 Q241.6563,247.0469 242.25,246.7813 Q242.8438,246.5 243.4688,245.9219 L243.4688,248.6406 Z "/><text fill="#000000" font-family="sans-serif" font-size="12" lengthAdjust="spacingAndGlyphs" textLength="97" x="254.5" y="247.1807">InitialyUnowned</text><!--class Gnome::Gtk3::Buildable--><rect fill="#FEFECE" filter="url(#f1ghxg518sbtnp)" height="32" id="Gnome::Gtk3::Buildable" style="stroke: #A80036; stroke-width: 1.5;" width="150" x="178" y="411"/><ellipse cx="193" cy="427" fill="#80FFFF" rx="11" ry="11" style="stroke: #A80036; stroke-width: 1.0;"/><path d="M194.2031,427.1406 Q194.5625,427.2188 194.8281,427.5 Q195.1094,427.7656 195.5,428.5469 L197.7344,433 L195.0469,433 L193.5469,429.875 Q193.4844,429.7344 193.375,429.5 Q192.7188,428.1094 191.8281,428.1094 L191.0469,428.1094 L191.0469,433 L188.6094,433 L188.6094,420.6094 L192.1406,420.6094 Q194.5313,420.6094 195.5625,421.4531 Q196.6094,422.2969 196.6094,424.2031 Q196.6094,425.4844 195.9844,426.25 Q195.375,427 194.2031,427.1406 Z M191.0469,422.6719 L191.0469,426.0469 L192.2031,426.0469 Q193.2188,426.0469 193.6406,425.6563 Q194.0781,425.25 194.0781,424.3438 Q194.0781,423.4531 193.6406,423.0625 Q193.2188,422.6719 192.2031,422.6719 L191.0469,422.6719 Z "/><text fill="#000000" font-family="sans-serif" font-size="12" lengthAdjust="spacingAndGlyphs" textLength="57" x="207" y="431.1807">Buildable</text><rect fill="#FFFFFF" height="15.9688" style="stroke: #000000; stroke-width: 1.0; stroke-dasharray: 2.0,2.0;" width="59" x="272" y="408"/><text fill="#000000" font-family="sans-serif" font-size="12" font-style="italic" lengthAdjust="spacingAndGlyphs" textLength="57" x="273" y="420.1387">Interface</text><!--class Gnome::Gtk3::Widget--><rect fill="#FEFECE" filter="url(#f1ghxg518sbtnp)" height="32" id="Gnome::Gtk3::Widget" style="stroke: #A80036; stroke-width: 1.5;" width="75" x="252.5" y="319"/><ellipse cx="267.5" cy="335" fill="#80FFFF" rx="11" ry="11" style="stroke: #A80036; stroke-width: 1.0;"/><path d="M270.4688,340.6406 Q269.8906,340.9375 269.25,341.0781 Q268.6094,341.2344 267.9063,341.2344 Q265.4063,341.2344 264.0781,339.5938 Q262.7656,337.9375 262.7656,334.8125 Q262.7656,331.6875 264.0781,330.0313 Q265.4063,328.375 267.9063,328.375 Q268.6094,328.375 269.25,328.5313 Q269.9063,328.6875 270.4688,328.9844 L270.4688,331.7031 Q269.8438,331.125 269.25,330.8594 Q268.6563,330.5781 268.0313,330.5781 Q266.6875,330.5781 266,331.6563 Q265.3125,332.7188 265.3125,334.8125 Q265.3125,336.9063 266,337.9844 Q266.6875,339.0469 268.0313,339.0469 Q268.6563,339.0469 269.25,338.7813 Q269.8438,338.5 270.4688,337.9219 L270.4688,340.6406 Z "/><text fill="#000000" font-family="sans-serif" font-size="12" lengthAdjust="spacingAndGlyphs" textLength="43" x="281.5" y="339.1807">Widget</text><!--class Gnome::Gtk3::Container--><rect fill="#FEFECE" filter="url(#f1ghxg518sbtnp)" height="32" id="Gnome::Gtk3::Container" style="stroke: #A80036; stroke-width: 1.5;" width="93" x="124.5" y="319"/><ellipse cx="139.5" cy="335" fill="#80FFFF" rx="11" ry="11" style="stroke: #A80036; stroke-width: 1.0;"/><path d="M142.4688,340.6406 Q141.8906,340.9375 141.25,341.0781 Q140.6094,341.2344 139.9063,341.2344 Q137.4063,341.2344 136.0781,339.5938 Q134.7656,337.9375 134.7656,334.8125 Q134.7656,331.6875 136.0781,330.0313 Q137.4063,328.375 139.9063,328.375 Q140.6094,328.375 141.25,328.5313 Q141.9063,328.6875 142.4688,328.9844 L142.4688,331.7031 Q141.8438,331.125 141.25,330.8594 Q140.6563,330.5781 140.0313,330.5781 Q138.6875,330.5781 138,331.6563 Q137.3125,332.7188 137.3125,334.8125 Q137.3125,336.9063 138,337.9844 Q138.6875,339.0469 140.0313,339.0469 Q140.6563,339.0469 141.25,338.7813 Q141.8438,338.5 142.4688,337.9219 L142.4688,340.6406 Z "/><text fill="#000000" font-family="sans-serif" font-size="12" lengthAdjust="spacingAndGlyphs" textLength="61" x="153.5" y="339.1807">Container</text><!--class Gnome::Gtk3::Stack--><rect fill="#FEFECE" filter="url(#f1ghxg518sbtnp)" height="32" id="Gnome::Gtk3::Stack" style="stroke: #A80036; stroke-width: 1.5;" width="67" x="22.5" y="319"/><ellipse cx="37.5" cy="335" fill="#80FFFF" rx="11" ry="11" style="stroke: #A80036; stroke-width: 1.0;"/><path d="M40.4688,340.6406 Q39.8906,340.9375 39.25,341.0781 Q38.6094,341.2344 37.9063,341.2344 Q35.4063,341.2344 34.0781,339.5938 Q32.7656,337.9375 32.7656,334.8125 Q32.7656,331.6875 34.0781,330.0313 Q35.4063,328.375 37.9063,328.375 Q38.6094,328.375 39.25,328.5313 Q39.9063,328.6875 40.4688,328.9844 L40.4688,331.7031 Q39.8438,331.125 39.25,330.8594 Q38.6563,330.5781 38.0313,330.5781 Q36.6875,330.5781 36,331.6563 Q35.3125,332.7188 35.3125,334.8125 Q35.3125,336.9063 36,337.9844 Q36.6875,339.0469 38.0313,339.0469 Q38.6563,339.0469 39.25,338.7813 Q39.8438,338.5 40.4688,337.9219 L40.4688,340.6406 Z "/><text fill="#000000" font-family="sans-serif" font-size="12" lengthAdjust="spacingAndGlyphs" textLength="35" x="51.5" y="339.1807">Stack</text><!--link Gnome::N::TopLevelClassSupport to Gnome::GObject::Object--><path d="M319,95.4048 C319,109.0788 319,123.9368 319,134.8498 " fill="none" id="Gnome::N::TopLevelClassSupport-Gnome::GObject::Object" style="stroke: #A80036; stroke-width: 1.0;"/><polygon fill="none" points="312.0001,95.0252,319,75.0252,326.0001,95.0251,312.0001,95.0252" style="stroke: #A80036; stroke-width: 1.0;"/><!--link Gnome::GObject::Object to Gnome::GObject::InitialyUnowned--><path d="M307.8355,186.4184 C303.4407,200.3605 298.6137,215.6738 295.0908,226.8498 " fill="none" id="Gnome::GObject::Object-Gnome::GObject::InitialyUnowned" style="stroke: #A80036; stroke-width: 1.0;"/><polygon fill="none" points="301.2596,183.9955,313.9486,167.0252,314.612,188.2044,301.2596,183.9955" style="stroke: #A80036; stroke-width: 1.0;"/><!--link Gnome::GObject::InitialyUnowned to Gnome::Gtk3::Widget--><path d="M290,279.4048 C290,293.0788 290,307.9368 290,318.8498 " fill="none" id="Gnome::GObject::InitialyUnowned-Gnome::Gtk3::Widget" style="stroke: #A80036; stroke-width: 1.0;"/><polygon fill="none" points="283.0001,279.0252,290,259.0252,297.0001,279.0251,283.0001,279.0252" style="stroke: #A80036; stroke-width: 1.0;"/><!--link Gnome::Gtk3::Container to Gnome::Gtk3::Widget--><path d="M217.9492,335 C222.6884,335 227.4276,335 232.1668,335 " fill="none" id="Gnome::Gtk3::Container-Gnome::Gtk3::Widget" style="stroke: #A80036; stroke-width: 1.0;"/><polygon fill="none" points="232.286,327.9999,252.2859,335,232.2859,341.9999,232.286,327.9999" style="stroke: #A80036; stroke-width: 1.0;"/><!--link Gnome::Gtk3::Stack to Gnome::Gtk3::Container--><path d="M89.6914,335 C94.5598,335 99.4282,335 104.2966,335 " fill="none" id="Gnome::Gtk3::Stack-Gnome::Gtk3::Container" style="stroke: #A80036; stroke-width: 1.0;"/><polygon fill="none" points="104.3111,327.9999,124.3111,335,104.311,341.9999,104.3111,327.9999" style="stroke: #A80036; stroke-width: 1.0;"/><!--link Gnome::GObject::Signal to Gnome::GObject::Object--><path d="M267.77,151 C272.8464,151 277.9228,151 282.9992,151 " fill="none" id="Gnome::GObject::Signal-Gnome::GObject::Object" style="stroke: #A80036; stroke-width: 1.0; stroke-dasharray: 7.0,7.0;"/><polygon fill="none" points="267.5567,157.9999,247.5566,151,267.5566,143.9999,267.5567,157.9999" style="stroke: #A80036; stroke-width: 1.0;"/><!--link Gnome::Gtk3::Widget to Gnome::Gtk3::Buildable--><path d="M283.5551,351.0252 C279.0201,362.3013 272.7734,377.8337 267.1094,391.9172 " fill="none" id="Gnome::Gtk3::Widget-Gnome::Gtk3::Buildable" style="stroke: #A80036; stroke-width: 1.0; stroke-dasharray: 7.0,7.0;"/><polygon fill="none" points="273.4523,394.9061,259.4952,410.8498,260.4634,389.6823,273.4523,394.9061" style="stroke: #A80036; stroke-width: 1.0;"/><!--
@startuml
skinparam packageStyle rectangle
skinparam stereotypeCBackgroundColor #80ffff
set namespaceSeparator ::
hide members


class Gnome::N::TopLevelClassSupport < Catch all class >

Interface Gnome::GObject::Signal <Interface>
class Gnome::GObject::Signal <<(R,#80ffff)>>

Interface Gnome::Gtk3::Buildable <Interface>
class Gnome::Gtk3::Buildable <<(R,#80ffff)>>


Gnome::N::TopLevelClassSupport <|- - Gnome::GObject::Object

Gnome::GObject::Object <|- - Gnome::GObject::InitialyUnowned
Gnome::GObject::InitialyUnowned <|- - Gnome::Gtk3::Widget

Gnome::Gtk3::Container -|> Gnome::Gtk3::Widget
Gnome::Gtk3::Stack -|> Gnome::Gtk3::Container


Gnome::GObject::Signal <|. Gnome::GObject::Object
Gnome::Gtk3::Widget ..|> Gnome::Gtk3::Buildable

@enduml

PlantUML version 1.2019.01(Sat Feb 09 16:32:04 CET 2019)
(LGPL source distribution)
Java Runtime: OpenJDK Runtime Environment
JVM: OpenJDK 64-Bit Server VM
Java Version: 1.8.0_265-b01
Operating System: Linux
OS Version: 5.8.13-100.fc31.x86_64
Default Encoding: UTF-8
Language: en
Country: null
--></g></svg>