<?xml version="1.0" encoding="UTF-8" standalone="no"?><svg xmlns="http://www.w3.org/2000/svg" xmlns:xlink="http://www.w3.org/1999/xlink" contentScriptType="application/ecmascript" contentStyleType="text/css" height="462px" preserveAspectRatio="none" style="width:615px;height:462px;" version="1.1" viewBox="0 0 615 462" width="615px" zoomAndPan="magnify"><defs><filter height="300%" id="fwhmxso2m8dtt" width="300%" x="-1" y="-1"><feGaussianBlur result="blurOut" stdDeviation="2.0"/><feColorMatrix in="blurOut" result="blurOut2" type="matrix" values="0 0 0 0 0 0 0 0 0 0 0 0 0 0 0 0 0 0 .4 0"/><feOffset dx="4.0" dy="4.0" in="blurOut2" result="blurOut3"/><feBlend in="SourceGraphic" in2="blurOut3" mode="normal"/></filter></defs><g><!--cluster Gnome::N--><rect fill="#FFFFFF" filter="url(#fwhmxso2m8dtt)" height="67" style="stroke: #000000; stroke-width: 1.5;" width="286" x="318" y="16"/><text fill="#000000" font-family="sans-serif" font-size="14" font-weight="bold" lengthAdjust="spacingAndGlyphs" textLength="79" x="421.5" y="30.9951">Gnome::N</text><!--cluster Gnome::GObject--><rect fill="#FFFFFF" filter="url(#fwhmxso2m8dtt)" height="159" style="stroke: #000000; stroke-width: 1.5;" width="255" x="250" y="108"/><text fill="#000000" font-family="sans-serif" font-size="14" font-weight="bold" lengthAdjust="spacingAndGlyphs" textLength="131" x="312" y="122.9951">Gnome::GObject</text><!--cluster Gnome::Gtk3--><rect fill="#FFFFFF" filter="url(#fwhmxso2m8dtt)" height="159" style="stroke: #000000; stroke-width: 1.5;" width="464" x="14" y="292"/><text fill="#000000" font-family="sans-serif" font-size="14" font-weight="bold" lengthAdjust="spacingAndGlyphs" textLength="105" x="193.5" y="306.9951">Gnome::Gtk3</text><!--class Gnome::N::TopLevelClassSupport--><rect fill="#FEFECE" filter="url(#fwhmxso2m8dtt)" height="32" id="Gnome::N::TopLevelClassSupport" style="stroke: #A80036; stroke-width: 1.5;" width="269" x="326.5" y="43"/><ellipse cx="341.5" cy="59" fill="#80FFFF" rx="11" ry="11" style="stroke: #A80036; stroke-width: 1.0;"/><path d="M344.4688,64.6406 Q343.8906,64.9375 343.25,65.0781 Q342.6094,65.2344 341.9063,65.2344 Q339.4063,65.2344 338.0781,63.5938 Q336.7656,61.9375 336.7656,58.8125 Q336.7656,55.6875 338.0781,54.0313 Q339.4063,52.375 341.9063,52.375 Q342.6094,52.375 343.25,52.5313 Q343.9063,52.6875 344.4688,52.9844 L344.4688,55.7031 Q343.8438,55.125 343.25,54.8594 Q342.6563,54.5781 342.0313,54.5781 Q340.6875,54.5781 340,55.6563 Q339.3125,56.7188 339.3125,58.8125 Q339.3125,60.9063 340,61.9844 Q340.6875,63.0469 342.0313,63.0469 Q342.6563,63.0469 343.25,62.7813 Q343.8438,62.5 344.4688,61.9219 L344.4688,64.6406 Z "/><text fill="#000000" font-family="sans-serif" font-size="12" lengthAdjust="spacingAndGlyphs" textLength="137" x="355.5" y="63.1807">TopLevelClassSupport</text><rect fill="#FFFFFF" height="15.9688" style="stroke: #000000; stroke-width: 1.0; stroke-dasharray: 2.0,2.0;" width="98" x="500.5" y="40"/><text fill="#000000" font-family="sans-serif" font-size="12" font-style="italic" lengthAdjust="spacingAndGlyphs" textLength="88" x="505.5" y="52.1387">Catch all class</text><!--class Gnome::GObject::Signal--><rect fill="#FEFECE" filter="url(#fwhmxso2m8dtt)" height="32" id="Gnome::GObject::Signal" style="stroke: #A80036; stroke-width: 1.5;" width="131" x="258.5" y="135"/><ellipse cx="273.5" cy="151" fill="#80FFFF" rx="11" ry="11" style="stroke: #A80036; stroke-width: 1.0;"/><path d="M274.7031,151.1406 Q275.0625,151.2188 275.3281,151.5 Q275.6094,151.7656 276,152.5469 L278.2344,157 L275.5469,157 L274.0469,153.875 Q273.9844,153.7344 273.875,153.5 Q273.2188,152.1094 272.3281,152.1094 L271.5469,152.1094 L271.5469,157 L269.1094,157 L269.1094,144.6094 L272.6406,144.6094 Q275.0313,144.6094 276.0625,145.4531 Q277.1094,146.2969 277.1094,148.2031 Q277.1094,149.4844 276.4844,150.25 Q275.875,151 274.7031,151.1406 Z M271.5469,146.6719 L271.5469,150.0469 L272.7031,150.0469 Q273.7188,150.0469 274.1406,149.6563 Q274.5781,149.25 274.5781,148.3438 Q274.5781,147.4531 274.1406,147.0625 Q273.7188,146.6719 272.7031,146.6719 L271.5469,146.6719 Z "/><text fill="#000000" font-family="sans-serif" font-size="12" lengthAdjust="spacingAndGlyphs" textLength="38" x="287.5" y="155.1807">Signal</text><rect fill="#FFFFFF" height="15.9688" style="stroke: #000000; stroke-width: 1.0; stroke-dasharray: 2.0,2.0;" width="59" x="333.5" y="132"/><text fill="#000000" font-family="sans-serif" font-size="12" font-style="italic" lengthAdjust="spacingAndGlyphs" textLength="57" x="334.5" y="144.1387">Interface</text><!--class Gnome::GObject::Object--><rect fill="#FEFECE" filter="url(#fwhmxso2m8dtt)" height="32" id="Gnome::GObject::Object" style="stroke: #A80036; stroke-width: 1.5;" width="72" x="425" y="135"/><ellipse cx="440" cy="151" fill="#80FFFF" rx="11" ry="11" style="stroke: #A80036; stroke-width: 1.0;"/><path d="M442.9688,156.6406 Q442.3906,156.9375 441.75,157.0781 Q441.1094,157.2344 440.4063,157.2344 Q437.9063,157.2344 436.5781,155.5938 Q435.2656,153.9375 435.2656,150.8125 Q435.2656,147.6875 436.5781,146.0313 Q437.9063,144.375 440.4063,144.375 Q441.1094,144.375 441.75,144.5313 Q442.4063,144.6875 442.9688,144.9844 L442.9688,147.7031 Q442.3438,147.125 441.75,146.8594 Q441.1563,146.5781 440.5313,146.5781 Q439.1875,146.5781 438.5,147.6563 Q437.8125,148.7188 437.8125,150.8125 Q437.8125,152.9063 438.5,153.9844 Q439.1875,155.0469 440.5313,155.0469 Q441.1563,155.0469 441.75,154.7813 Q442.3438,154.5 442.9688,153.9219 L442.9688,156.6406 Z "/><text fill="#000000" font-family="sans-serif" font-size="12" lengthAdjust="spacingAndGlyphs" textLength="40" x="454" y="155.1807">Object</text><!--class Gnome::GObject::InitialyUnowned--><rect fill="#FEFECE" filter="url(#fwhmxso2m8dtt)" height="32" id="Gnome::GObject::InitialyUnowned" style="stroke: #A80036; stroke-width: 1.5;" width="129" x="367.5" y="227"/><ellipse cx="382.5" cy="243" fill="#80FFFF" rx="11" ry="11" style="stroke: #A80036; stroke-width: 1.0;"/><path d="M385.4688,248.6406 Q384.8906,248.9375 384.25,249.0781 Q383.6094,249.2344 382.9063,249.2344 Q380.4063,249.2344 379.0781,247.5938 Q377.7656,245.9375 377.7656,242.8125 Q377.7656,239.6875 379.0781,238.0313 Q380.4063,236.375 382.9063,236.375 Q383.6094,236.375 384.25,236.5313 Q384.9063,236.6875 385.4688,236.9844 L385.4688,239.7031 Q384.8438,239.125 384.25,238.8594 Q383.6563,238.5781 383.0313,238.5781 Q381.6875,238.5781 381,239.6563 Q380.3125,240.7188 380.3125,242.8125 Q380.3125,244.9063 381,245.9844 Q381.6875,247.0469 383.0313,247.0469 Q383.6563,247.0469 384.25,246.7813 Q384.8438,246.5 385.4688,245.9219 L385.4688,248.6406 Z "/><text fill="#000000" font-family="sans-serif" font-size="12" lengthAdjust="spacingAndGlyphs" textLength="97" x="396.5" y="247.1807">InitialyUnowned</text><!--class Gnome::Gtk3::Buildable--><rect fill="#FEFECE" filter="url(#fwhmxso2m8dtt)" height="32" id="Gnome::Gtk3::Buildable" style="stroke: #A80036; stroke-width: 1.5;" width="150" x="320" y="411"/><ellipse cx="335" cy="427" fill="#80FFFF" rx="11" ry="11" style="stroke: #A80036; stroke-width: 1.0;"/><path d="M336.2031,427.1406 Q336.5625,427.2188 336.8281,427.5 Q337.1094,427.7656 337.5,428.5469 L339.7344,433 L337.0469,433 L335.5469,429.875 Q335.4844,429.7344 335.375,429.5 Q334.7188,428.1094 333.8281,428.1094 L333.0469,428.1094 L333.0469,433 L330.6094,433 L330.6094,420.6094 L334.1406,420.6094 Q336.5313,420.6094 337.5625,421.4531 Q338.6094,422.2969 338.6094,424.2031 Q338.6094,425.4844 337.9844,426.25 Q337.375,427 336.2031,427.1406 Z M333.0469,422.6719 L333.0469,426.0469 L334.2031,426.0469 Q335.2188,426.0469 335.6406,425.6563 Q336.0781,425.25 336.0781,424.3438 Q336.0781,423.4531 335.6406,423.0625 Q335.2188,422.6719 334.2031,422.6719 L333.0469,422.6719 Z "/><text fill="#000000" font-family="sans-serif" font-size="12" lengthAdjust="spacingAndGlyphs" textLength="57" x="349" y="431.1807">Buildable</text><rect fill="#FFFFFF" height="15.9688" style="stroke: #000000; stroke-width: 1.0; stroke-dasharray: 2.0,2.0;" width="59" x="414" y="408"/><text fill="#000000" font-family="sans-serif" font-size="12" font-style="italic" lengthAdjust="spacingAndGlyphs" textLength="57" x="415" y="420.1387">Interface</text><!--class Gnome::Gtk3::Orientable--><rect fill="#FEFECE" filter="url(#fwhmxso2m8dtt)" height="32" id="Gnome::Gtk3::Orientable" style="stroke: #A80036; stroke-width: 1.5;" width="158" x="125" y="411"/><ellipse cx="140" cy="427" fill="#80FFFF" rx="11" ry="11" style="stroke: #A80036; stroke-width: 1.0;"/><path d="M141.2031,427.1406 Q141.5625,427.2188 141.8281,427.5 Q142.1094,427.7656 142.5,428.5469 L144.7344,433 L142.0469,433 L140.5469,429.875 Q140.4844,429.7344 140.375,429.5 Q139.7188,428.1094 138.8281,428.1094 L138.0469,428.1094 L138.0469,433 L135.6094,433 L135.6094,420.6094 L139.1406,420.6094 Q141.5313,420.6094 142.5625,421.4531 Q143.6094,422.2969 143.6094,424.2031 Q143.6094,425.4844 142.9844,426.25 Q142.375,427 141.2031,427.1406 Z M138.0469,422.6719 L138.0469,426.0469 L139.2031,426.0469 Q140.2188,426.0469 140.6406,425.6563 Q141.0781,425.25 141.0781,424.3438 Q141.0781,423.4531 140.6406,423.0625 Q140.2188,422.6719 139.2031,422.6719 L138.0469,422.6719 Z "/><text fill="#000000" font-family="sans-serif" font-size="12" lengthAdjust="spacingAndGlyphs" textLength="65" x="154" y="431.1807">Orientable</text><rect fill="#FFFFFF" height="15.9688" style="stroke: #000000; stroke-width: 1.0; stroke-dasharray: 2.0,2.0;" width="59" x="227" y="408"/><text fill="#000000" font-family="sans-serif" font-size="12" font-style="italic" lengthAdjust="spacingAndGlyphs" textLength="57" x="228" y="420.1387">Interface</text><!--class Gnome::Gtk3::Widget--><rect fill="#FEFECE" filter="url(#fwhmxso2m8dtt)" height="32" id="Gnome::Gtk3::Widget" style="stroke: #A80036; stroke-width: 1.5;" width="75" x="394.5" y="319"/><ellipse cx="409.5" cy="335" fill="#80FFFF" rx="11" ry="11" style="stroke: #A80036; stroke-width: 1.0;"/><path d="M412.4688,340.6406 Q411.8906,340.9375 411.25,341.0781 Q410.6094,341.2344 409.9063,341.2344 Q407.4063,341.2344 406.0781,339.5938 Q404.7656,337.9375 404.7656,334.8125 Q404.7656,331.6875 406.0781,330.0313 Q407.4063,328.375 409.9063,328.375 Q410.6094,328.375 411.25,328.5313 Q411.9063,328.6875 412.4688,328.9844 L412.4688,331.7031 Q411.8438,331.125 411.25,330.8594 Q410.6563,330.5781 410.0313,330.5781 Q408.6875,330.5781 408,331.6563 Q407.3125,332.7188 407.3125,334.8125 Q407.3125,336.9063 408,337.9844 Q408.6875,339.0469 410.0313,339.0469 Q410.6563,339.0469 411.25,338.7813 Q411.8438,338.5 412.4688,337.9219 L412.4688,340.6406 Z "/><text fill="#000000" font-family="sans-serif" font-size="12" lengthAdjust="spacingAndGlyphs" textLength="43" x="423.5" y="339.1807">Widget</text><!--class Gnome::Gtk3::StackSwitcher--><rect fill="#FEFECE" filter="url(#fwhmxso2m8dtt)" height="32" id="Gnome::Gtk3::StackSwitcher" style="stroke: #A80036; stroke-width: 1.5;" width="120" x="22" y="319"/><ellipse cx="37" cy="335" fill="#80FFFF" rx="11" ry="11" style="stroke: #A80036; stroke-width: 1.0;"/><path d="M39.9688,340.6406 Q39.3906,340.9375 38.75,341.0781 Q38.1094,341.2344 37.4063,341.2344 Q34.9063,341.2344 33.5781,339.5938 Q32.2656,337.9375 32.2656,334.8125 Q32.2656,331.6875 33.5781,330.0313 Q34.9063,328.375 37.4063,328.375 Q38.1094,328.375 38.75,328.5313 Q39.4063,328.6875 39.9688,328.9844 L39.9688,331.7031 Q39.3438,331.125 38.75,330.8594 Q38.1563,330.5781 37.5313,330.5781 Q36.1875,330.5781 35.5,331.6563 Q34.8125,332.7188 34.8125,334.8125 Q34.8125,336.9063 35.5,337.9844 Q36.1875,339.0469 37.5313,339.0469 Q38.1563,339.0469 38.75,338.7813 Q39.3438,338.5 39.9688,337.9219 L39.9688,340.6406 Z "/><text fill="#000000" font-family="sans-serif" font-size="12" lengthAdjust="spacingAndGlyphs" textLength="88" x="51" y="339.1807">StackSwitcher</text><!--class Gnome::Gtk3::Box--><rect fill="#FEFECE" filter="url(#fwhmxso2m8dtt)" height="32" id="Gnome::Gtk3::Box" style="stroke: #A80036; stroke-width: 1.5;" width="54" x="177" y="319"/><ellipse cx="192" cy="335" fill="#80FFFF" rx="11" ry="11" style="stroke: #A80036; stroke-width: 1.0;"/><path d="M194.9688,340.6406 Q194.3906,340.9375 193.75,341.0781 Q193.1094,341.2344 192.4063,341.2344 Q189.9063,341.2344 188.5781,339.5938 Q187.2656,337.9375 187.2656,334.8125 Q187.2656,331.6875 188.5781,330.0313 Q189.9063,328.375 192.4063,328.375 Q193.1094,328.375 193.75,328.5313 Q194.4063,328.6875 194.9688,328.9844 L194.9688,331.7031 Q194.3438,331.125 193.75,330.8594 Q193.1563,330.5781 192.5313,330.5781 Q191.1875,330.5781 190.5,331.6563 Q189.8125,332.7188 189.8125,334.8125 Q189.8125,336.9063 190.5,337.9844 Q191.1875,339.0469 192.5313,339.0469 Q193.1563,339.0469 193.75,338.7813 Q194.3438,338.5 194.9688,337.9219 L194.9688,340.6406 Z "/><text fill="#000000" font-family="sans-serif" font-size="12" lengthAdjust="spacingAndGlyphs" textLength="22" x="206" y="339.1807">Box</text><!--class Gnome::Gtk3::Container--><rect fill="#FEFECE" filter="url(#fwhmxso2m8dtt)" height="32" id="Gnome::Gtk3::Container" style="stroke: #A80036; stroke-width: 1.5;" width="93" x="266.5" y="319"/><ellipse cx="281.5" cy="335" fill="#80FFFF" rx="11" ry="11" style="stroke: #A80036; stroke-width: 1.0;"/><path d="M284.4688,340.6406 Q283.8906,340.9375 283.25,341.0781 Q282.6094,341.2344 281.9063,341.2344 Q279.4063,341.2344 278.0781,339.5938 Q276.7656,337.9375 276.7656,334.8125 Q276.7656,331.6875 278.0781,330.0313 Q279.4063,328.375 281.9063,328.375 Q282.6094,328.375 283.25,328.5313 Q283.9063,328.6875 284.4688,328.9844 L284.4688,331.7031 Q283.8438,331.125 283.25,330.8594 Q282.6563,330.5781 282.0313,330.5781 Q280.6875,330.5781 280,331.6563 Q279.3125,332.7188 279.3125,334.8125 Q279.3125,336.9063 280,337.9844 Q280.6875,339.0469 282.0313,339.0469 Q282.6563,339.0469 283.25,338.7813 Q283.8438,338.5 284.4688,337.9219 L284.4688,340.6406 Z "/><text fill="#000000" font-family="sans-serif" font-size="12" lengthAdjust="spacingAndGlyphs" textLength="61" x="295.5" y="339.1807">Container</text><!--link Gnome::N::TopLevelClassSupport to Gnome::GObject::Object--><path d="M461,95.4048 C461,109.0788 461,123.9368 461,134.8498 " fill="none" id="Gnome::N::TopLevelClassSupport-Gnome::GObject::Object" style="stroke: #A80036; stroke-width: 1.0;"/><polygon fill="none" points="454.0001,95.0252,461,75.0252,468.0001,95.0251,454.0001,95.0252" style="stroke: #A80036; stroke-width: 1.0;"/><!--link Gnome::GObject::InitialyUnowned to Gnome::Gtk3::Widget--><path d="M432,279.4048 C432,293.0788 432,307.9368 432,318.8498 " fill="none" id="Gnome::GObject::InitialyUnowned-Gnome::Gtk3::Widget" style="stroke: #A80036; stroke-width: 1.0;"/><polygon fill="none" points="425.0001,279.0252,432,259.0252,439.0001,279.0251,425.0001,279.0252" style="stroke: #A80036; stroke-width: 1.0;"/><!--link Gnome::GObject::Object to Gnome::GObject::InitialyUnowned--><path d="M449.8355,186.4184 C445.4407,200.3605 440.6137,215.6738 437.0908,226.8498 " fill="none" id="Gnome::GObject::Object-Gnome::GObject::InitialyUnowned" style="stroke: #A80036; stroke-width: 1.0;"/><polygon fill="none" points="443.2596,183.9955,455.9486,167.0252,456.612,188.2044,443.2596,183.9955" style="stroke: #A80036; stroke-width: 1.0;"/><!--link Gnome::Gtk3::StackSwitcher to Gnome::Gtk3::Box--><path d="M142.0469,335 C146.9475,335 151.8481,335 156.7486,335 " fill="none" id="Gnome::Gtk3::StackSwitcher-Gnome::Gtk3::Box" style="stroke: #A80036; stroke-width: 1.0;"/><polygon fill="none" points="156.8955,327.9999,176.8955,335,156.8955,341.9999,156.8955,327.9999" style="stroke: #A80036; stroke-width: 1.0;"/><!--link Gnome::Gtk3::Box to Gnome::Gtk3::Container--><path d="M231.25,335 C236.2812,335 241.3124,335 246.3436,335 " fill="none" id="Gnome::Gtk3::Box-Gnome::Gtk3::Container" style="stroke: #A80036; stroke-width: 1.0;"/><polygon fill="none" points="246.377,327.9999,266.377,335,246.3769,341.9999,246.377,327.9999" style="stroke: #A80036; stroke-width: 1.0;"/><!--link Gnome::Gtk3::Container to Gnome::Gtk3::Widget--><path d="M359.9492,335 C364.6884,335 369.4276,335 374.1668,335 " fill="none" id="Gnome::Gtk3::Container-Gnome::Gtk3::Widget" style="stroke: #A80036; stroke-width: 1.0;"/><polygon fill="none" points="374.286,327.9999,394.2859,335,374.2859,341.9999,374.286,327.9999" style="stroke: #A80036; stroke-width: 1.0;"/><!--link Gnome::GObject::Signal to Gnome::GObject::Object--><path d="M409.77,151 C414.8464,151 419.9228,151 424.9992,151 " fill="none" id="Gnome::GObject::Signal-Gnome::GObject::Object" style="stroke: #A80036; stroke-width: 1.0; stroke-dasharray: 7.0,7.0;"/><polygon fill="none" points="409.5567,157.9999,389.5566,151,409.5566,143.9999,409.5567,157.9999" style="stroke: #A80036; stroke-width: 1.0;"/><!--link Gnome::Gtk3::Widget to Gnome::Gtk3::Buildable--><path d="M425.5551,351.0252 C421.0201,362.3013 414.7734,377.8337 409.1094,391.9172 " fill="none" id="Gnome::Gtk3::Widget-Gnome::Gtk3::Buildable" style="stroke: #A80036; stroke-width: 1.0; stroke-dasharray: 7.0,7.0;"/><polygon fill="none" points="415.4523,394.9061,401.4952,410.8498,402.4634,389.6823,415.4523,394.9061" style="stroke: #A80036; stroke-width: 1.0;"/><!--link Gnome::Gtk3::Box to Gnome::Gtk3::Orientable--><path d="M204,351.0252 C204,361.9079 204,376.7552 204,390.4383 " fill="none" id="Gnome::Gtk3::Box-Gnome::Gtk3::Orientable" style="stroke: #A80036; stroke-width: 1.0; stroke-dasharray: 7.0,7.0;"/><polygon fill="none" points="211.0001,390.8498,204,410.8498,197.0001,390.8497,211.0001,390.8498" style="stroke: #A80036; stroke-width: 1.0;"/><!--
@startuml
skinparam packageStyle rectangle
skinparam stereotypeCBackgroundColor #80ffff
set namespaceSeparator ::
hide members

class Gnome::N::TopLevelClassSupport < Catch all class >

Interface Gnome::GObject::Signal <Interface>
class Gnome::GObject::Signal <<(R,#80ffff)>>

Interface Gnome::Gtk3::Buildable <Interface>
class Gnome::Gtk3::Buildable <<(R,#80ffff)>>

Interface Gnome::Gtk3::Orientable <Interface>
class Gnome::Gtk3::Orientable <<(R,#80ffff)>>


Gnome::N::TopLevelClassSupport <|- - Gnome::GObject::Object

Gnome::GObject::InitialyUnowned <|- - Gnome::Gtk3::Widget
Gnome::GObject::Object <|- - Gnome::GObject::InitialyUnowned

Gnome::Gtk3::StackSwitcher -|> Gnome::Gtk3::Box
Gnome::Gtk3::Box -|> Gnome::Gtk3::Container
Gnome::Gtk3::Container -|> Gnome::Gtk3::Widget


Gnome::GObject::Signal <|. Gnome::GObject::Object
Gnome::Gtk3::Widget ..|> Gnome::Gtk3::Buildable
Gnome::Gtk3::Box ..|> Gnome::Gtk3::Orientable

@enduml

PlantUML version 1.2019.01(Sat Feb 09 16:32:04 CET 2019)
(LGPL source distribution)
Java Runtime: OpenJDK Runtime Environment
JVM: OpenJDK 64-Bit Server VM
Java Version: 1.8.0_265-b01
Operating System: Linux
OS Version: 5.8.13-100.fc31.x86_64
Default Encoding: UTF-8
Language: en
Country: null
--></g></svg>