<?xml version="1.0" encoding="UTF-8" standalone="no"?><svg xmlns="http://www.w3.org/2000/svg" xmlns:xlink="http://www.w3.org/1999/xlink" contentScriptType="application/ecmascript" contentStyleType="text/css" height="462px" preserveAspectRatio="none" style="width:466px;height:462px;" version="1.1" viewBox="0 0 466 462" width="466px" zoomAndPan="magnify"><defs><filter height="300%" id="fvw4c8g91piiv" width="300%" x="-1" y="-1"><feGaussianBlur result="blurOut" stdDeviation="2.0"/><feColorMatrix in="blurOut" result="blurOut2" type="matrix" values="0 0 0 0 0 0 0 0 0 0 0 0 0 0 0 0 0 0 .4 0"/><feOffset dx="4.0" dy="4.0" in="blurOut2" result="blurOut3"/><feBlend in="SourceGraphic" in2="blurOut3" mode="normal"/></filter></defs><g><!--cluster Gnome::N--><rect fill="#FFFFFF" filter="url(#fvw4c8g91piiv)" height="67" style="stroke: #000000; stroke-width: 1.5;" width="286" x="163" y="16"/><text fill="#000000" font-family="sans-serif" font-size="14" font-weight="bold" lengthAdjust="spacingAndGlyphs" textLength="79" x="266.5" y="30.9951">Gnome::N</text><!--cluster Gnome::GObject--><rect fill="#FFFFFF" filter="url(#fvw4c8g91piiv)" height="159" style="stroke: #000000; stroke-width: 1.5;" width="193" x="262" y="108"/><text fill="#000000" font-family="sans-serif" font-size="14" font-weight="bold" lengthAdjust="spacingAndGlyphs" textLength="131" x="293" y="122.9951">Gnome::GObject</text><!--cluster Gnome::Gtk3--><rect fill="#FFFFFF" filter="url(#fvw4c8g91piiv)" height="159" style="stroke: #000000; stroke-width: 1.5;" width="322" x="14" y="292"/><text fill="#000000" font-family="sans-serif" font-size="14" font-weight="bold" lengthAdjust="spacingAndGlyphs" textLength="105" x="122.5" y="306.9951">Gnome::Gtk3</text><!--class Gnome::N::TopLevelClassSupport--><rect fill="#FEFECE" filter="url(#fvw4c8g91piiv)" height="32" id="Gnome::N::TopLevelClassSupport" style="stroke: #A80036; stroke-width: 1.5;" width="269" x="171.5" y="43"/><ellipse cx="186.5" cy="59" fill="#ADD1B2" rx="11" ry="11" style="stroke: #A80036; stroke-width: 1.0;"/><path d="M189.4688,64.6406 Q188.8906,64.9375 188.25,65.0781 Q187.6094,65.2344 186.9063,65.2344 Q184.4063,65.2344 183.0781,63.5938 Q181.7656,61.9375 181.7656,58.8125 Q181.7656,55.6875 183.0781,54.0313 Q184.4063,52.375 186.9063,52.375 Q187.6094,52.375 188.25,52.5313 Q188.9063,52.6875 189.4688,52.9844 L189.4688,55.7031 Q188.8438,55.125 188.25,54.8594 Q187.6563,54.5781 187.0313,54.5781 Q185.6875,54.5781 185,55.6563 Q184.3125,56.7188 184.3125,58.8125 Q184.3125,60.9063 185,61.9844 Q185.6875,63.0469 187.0313,63.0469 Q187.6563,63.0469 188.25,62.7813 Q188.8438,62.5 189.4688,61.9219 L189.4688,64.6406 Z "/><text fill="#000000" font-family="sans-serif" font-size="12" lengthAdjust="spacingAndGlyphs" textLength="137" x="200.5" y="63.1807">TopLevelClassSupport</text><rect fill="#FFFFFF" height="15.9688" style="stroke: #000000; stroke-width: 1.0; stroke-dasharray: 2.0,2.0;" width="98" x="345.5" y="40"/><text fill="#000000" font-family="sans-serif" font-size="12" font-style="italic" lengthAdjust="spacingAndGlyphs" textLength="88" x="350.5" y="52.1387">Catch all class</text><!--class Gnome::GObject::Object--><rect fill="#FEFECE" filter="url(#fvw4c8g91piiv)" height="32" id="Gnome::GObject::Object" style="stroke: #A80036; stroke-width: 1.5;" width="72" x="270" y="135"/><ellipse cx="285" cy="151" fill="#ADD1B2" rx="11" ry="11" style="stroke: #A80036; stroke-width: 1.0;"/><path d="M287.9688,156.6406 Q287.3906,156.9375 286.75,157.0781 Q286.1094,157.2344 285.4063,157.2344 Q282.9063,157.2344 281.5781,155.5938 Q280.2656,153.9375 280.2656,150.8125 Q280.2656,147.6875 281.5781,146.0313 Q282.9063,144.375 285.4063,144.375 Q286.1094,144.375 286.75,144.5313 Q287.4063,144.6875 287.9688,144.9844 L287.9688,147.7031 Q287.3438,147.125 286.75,146.8594 Q286.1563,146.5781 285.5313,146.5781 Q284.1875,146.5781 283.5,147.6563 Q282.8125,148.7188 282.8125,150.8125 Q282.8125,152.9063 283.5,153.9844 Q284.1875,155.0469 285.5313,155.0469 Q286.1563,155.0469 286.75,154.7813 Q287.3438,154.5 287.9688,153.9219 L287.9688,156.6406 Z "/><text fill="#000000" font-family="sans-serif" font-size="12" lengthAdjust="spacingAndGlyphs" textLength="40" x="299" y="155.1807">Object</text><!--class Gnome::GObject::InitialyUnowned--><rect fill="#FEFECE" filter="url(#fvw4c8g91piiv)" height="32" id="Gnome::GObject::InitialyUnowned" style="stroke: #A80036; stroke-width: 1.5;" width="129" x="270.5" y="227"/><ellipse cx="285.5" cy="243" fill="#ADD1B2" rx="11" ry="11" style="stroke: #A80036; stroke-width: 1.0;"/><path d="M288.4688,248.6406 Q287.8906,248.9375 287.25,249.0781 Q286.6094,249.2344 285.9063,249.2344 Q283.4063,249.2344 282.0781,247.5938 Q280.7656,245.9375 280.7656,242.8125 Q280.7656,239.6875 282.0781,238.0313 Q283.4063,236.375 285.9063,236.375 Q286.6094,236.375 287.25,236.5313 Q287.9063,236.6875 288.4688,236.9844 L288.4688,239.7031 Q287.8438,239.125 287.25,238.8594 Q286.6563,238.5781 286.0313,238.5781 Q284.6875,238.5781 284,239.6563 Q283.3125,240.7188 283.3125,242.8125 Q283.3125,244.9063 284,245.9844 Q284.6875,247.0469 286.0313,247.0469 Q286.6563,247.0469 287.25,246.7813 Q287.8438,246.5 288.4688,245.9219 L288.4688,248.6406 Z "/><text fill="#000000" font-family="sans-serif" font-size="12" lengthAdjust="spacingAndGlyphs" textLength="97" x="299.5" y="247.1807">InitialyUnowned</text><!--class Gnome::GObject::Signal--><rect fill="#FEFECE" filter="url(#fvw4c8g91piiv)" height="32" id="Gnome::GObject::Signal" style="stroke: #A80036; stroke-width: 1.5;" width="70" x="377" y="135"/><ellipse cx="392" cy="151" fill="#ADD1B2" rx="11" ry="11" style="stroke: #A80036; stroke-width: 1.0;"/><path d="M394.9688,156.6406 Q394.3906,156.9375 393.75,157.0781 Q393.1094,157.2344 392.4063,157.2344 Q389.9063,157.2344 388.5781,155.5938 Q387.2656,153.9375 387.2656,150.8125 Q387.2656,147.6875 388.5781,146.0313 Q389.9063,144.375 392.4063,144.375 Q393.1094,144.375 393.75,144.5313 Q394.4063,144.6875 394.9688,144.9844 L394.9688,147.7031 Q394.3438,147.125 393.75,146.8594 Q393.1563,146.5781 392.5313,146.5781 Q391.1875,146.5781 390.5,147.6563 Q389.8125,148.7188 389.8125,150.8125 Q389.8125,152.9063 390.5,153.9844 Q391.1875,155.0469 392.5313,155.0469 Q393.1563,155.0469 393.75,154.7813 Q394.3438,154.5 394.9688,153.9219 L394.9688,156.6406 Z "/><text fill="#000000" font-family="sans-serif" font-size="12" lengthAdjust="spacingAndGlyphs" textLength="38" x="406" y="155.1807">Signal</text><!--class Gnome::Gtk3::Widget--><rect fill="#FEFECE" filter="url(#fvw4c8g91piiv)" height="32" id="Gnome::Gtk3::Widget" style="stroke: #A80036; stroke-width: 1.5;" width="75" x="252.5" y="411"/><ellipse cx="267.5" cy="427" fill="#ADD1B2" rx="11" ry="11" style="stroke: #A80036; stroke-width: 1.0;"/><path d="M270.4688,432.6406 Q269.8906,432.9375 269.25,433.0781 Q268.6094,433.2344 267.9063,433.2344 Q265.4063,433.2344 264.0781,431.5938 Q262.7656,429.9375 262.7656,426.8125 Q262.7656,423.6875 264.0781,422.0313 Q265.4063,420.375 267.9063,420.375 Q268.6094,420.375 269.25,420.5313 Q269.9063,420.6875 270.4688,420.9844 L270.4688,423.7031 Q269.8438,423.125 269.25,422.8594 Q268.6563,422.5781 268.0313,422.5781 Q266.6875,422.5781 266,423.6563 Q265.3125,424.7188 265.3125,426.8125 Q265.3125,428.9063 266,429.9844 Q266.6875,431.0469 268.0313,431.0469 Q268.6563,431.0469 269.25,430.7813 Q269.8438,430.5 270.4688,429.9219 L270.4688,432.6406 Z "/><text fill="#000000" font-family="sans-serif" font-size="12" lengthAdjust="spacingAndGlyphs" textLength="43" x="281.5" y="431.1807">Widget</text><!--class Gnome::Gtk3::Buildable--><rect fill="#FEFECE" filter="url(#fvw4c8g91piiv)" height="32" id="Gnome::Gtk3::Buildable" style="stroke: #A80036; stroke-width: 1.5;" width="89" x="192.5" y="319"/><ellipse cx="207.5" cy="335" fill="#B4A7E5" rx="11" ry="11" style="stroke: #A80036; stroke-width: 1.0;"/><path d="M203.4219,330.7656 L203.4219,328.6094 L210.8125,328.6094 L210.8125,330.7656 L208.3438,330.7656 L208.3438,338.8438 L210.8125,338.8438 L210.8125,341 L203.4219,341 L203.4219,338.8438 L205.8906,338.8438 L205.8906,330.7656 L203.4219,330.7656 Z "/><text fill="#000000" font-family="sans-serif" font-size="12" font-style="italic" lengthAdjust="spacingAndGlyphs" textLength="57" x="221.5" y="339.1543">Buildable</text><!--class Gnome::Gtk3::Container--><rect fill="#FEFECE" filter="url(#fvw4c8g91piiv)" height="32" id="Gnome::Gtk3::Container" style="stroke: #A80036; stroke-width: 1.5;" width="93" x="124.5" y="411"/><ellipse cx="139.5" cy="427" fill="#ADD1B2" rx="11" ry="11" style="stroke: #A80036; stroke-width: 1.0;"/><path d="M142.4688,432.6406 Q141.8906,432.9375 141.25,433.0781 Q140.6094,433.2344 139.9063,433.2344 Q137.4063,433.2344 136.0781,431.5938 Q134.7656,429.9375 134.7656,426.8125 Q134.7656,423.6875 136.0781,422.0313 Q137.4063,420.375 139.9063,420.375 Q140.6094,420.375 141.25,420.5313 Q141.9063,420.6875 142.4688,420.9844 L142.4688,423.7031 Q141.8438,423.125 141.25,422.8594 Q140.6563,422.5781 140.0313,422.5781 Q138.6875,422.5781 138,423.6563 Q137.3125,424.7188 137.3125,426.8125 Q137.3125,428.9063 138,429.9844 Q138.6875,431.0469 140.0313,431.0469 Q140.6563,431.0469 141.25,430.7813 Q141.8438,430.5 142.4688,429.9219 L142.4688,432.6406 Z "/><text fill="#000000" font-family="sans-serif" font-size="12" lengthAdjust="spacingAndGlyphs" textLength="61" x="153.5" y="431.1807">Container</text><!--class Gnome::Gtk3::Stack--><rect fill="#FEFECE" filter="url(#fvw4c8g91piiv)" height="32" id="Gnome::Gtk3::Stack" style="stroke: #A80036; stroke-width: 1.5;" width="67" x="22.5" y="411"/><ellipse cx="37.5" cy="427" fill="#ADD1B2" rx="11" ry="11" style="stroke: #A80036; stroke-width: 1.0;"/><path d="M40.4688,432.6406 Q39.8906,432.9375 39.25,433.0781 Q38.6094,433.2344 37.9063,433.2344 Q35.4063,433.2344 34.0781,431.5938 Q32.7656,429.9375 32.7656,426.8125 Q32.7656,423.6875 34.0781,422.0313 Q35.4063,420.375 37.9063,420.375 Q38.6094,420.375 39.25,420.5313 Q39.9063,420.6875 40.4688,420.9844 L40.4688,423.7031 Q39.8438,423.125 39.25,422.8594 Q38.6563,422.5781 38.0313,422.5781 Q36.6875,422.5781 36,423.6563 Q35.3125,424.7188 35.3125,426.8125 Q35.3125,428.9063 36,429.9844 Q36.6875,431.0469 38.0313,431.0469 Q38.6563,431.0469 39.25,430.7813 Q39.8438,430.5 40.4688,429.9219 L40.4688,432.6406 Z "/><text fill="#000000" font-family="sans-serif" font-size="12" lengthAdjust="spacingAndGlyphs" textLength="35" x="51.5" y="431.1807">Stack</text><!--link Gnome::N::TopLevelClassSupport to Gnome::GObject::Object--><path d="M306,95.4048 C306,109.0788 306,123.9368 306,134.8498 " fill="none" id="Gnome::N::TopLevelClassSupport-Gnome::GObject::Object" style="stroke: #A80036; stroke-width: 1.0;"/><polygon fill="none" points="299.0001,95.0252,306,75.0252,313.0001,95.0251,299.0001,95.0252" style="stroke: #A80036; stroke-width: 1.0;"/><!--link Gnome::GObject::Object to Gnome::GObject::InitialyUnowned--><path d="M317.1645,186.4184 C321.5593,200.3605 326.3863,215.6738 329.9092,226.8498 " fill="none" id="Gnome::GObject::Object-Gnome::GObject::InitialyUnowned" style="stroke: #A80036; stroke-width: 1.0;"/><polygon fill="none" points="310.388,188.2044,311.0514,167.0252,323.7404,183.9955,310.388,188.2044" style="stroke: #A80036; stroke-width: 1.0;"/><!--link Gnome::GObject::Object to Gnome::GObject::Signal--><path d="M355.0415,151 C357.8666,151 360.6918,151 363.5169,151 " fill="none" id="Gnome::GObject::Object-Gnome::GObject::Signal" style="stroke: #A80036; stroke-width: 1.0;"/><polygon fill="#A80036" points="376.7384,151,367.7384,147,371.7384,151,367.7384,155,376.7384,151" style="stroke: #A80036; stroke-width: 1.0;"/><line style="stroke: #A80036; stroke-width: 1.0;" x1="371.7384" x2="363.7383" y1="151" y2="150.9999"/><polygon fill="#A80036" points="342.0234,151,348.0234,155,354.0234,151,348.0234,147,342.0234,151" style="stroke: #A80036; stroke-width: 1.0;"/><!--link Gnome::GObject::InitialyUnowned to Gnome::Gtk3::Widget--><path d="M326.2672,278.7074 C316.5029,318.6327 301.1194,381.534 293.9377,410.8991 " fill="none" id="Gnome::GObject::InitialyUnowned-Gnome::Gtk3::Widget" style="stroke: #A80036; stroke-width: 1.0;"/><polygon fill="none" points="319.5343,276.7714,331.0853,259.0069,333.1335,280.0973,319.5343,276.7714" style="stroke: #A80036; stroke-width: 1.0;"/><!--link Gnome::Gtk3::Buildable to Gnome::Gtk3::Widget--><path d="M256.2758,368.4598 C264.6004,382.9101 273.9548,399.1479 280.6961,410.8498 " fill="none" id="Gnome::Gtk3::Buildable-Gnome::Gtk3::Widget" style="stroke: #A80036; stroke-width: 1.0; stroke-dasharray: 7.0,7.0;"/><polygon fill="none" points="250.15,371.8494,246.2319,351.0252,262.281,364.8609,250.15,371.8494" style="stroke: #A80036; stroke-width: 1.0;"/><!--link Gnome::Gtk3::Container to Gnome::Gtk3::Widget--><path d="M217.9492,427 C222.6884,427 227.4276,427 232.1668,427 " fill="none" id="Gnome::Gtk3::Container-Gnome::Gtk3::Widget" style="stroke: #A80036; stroke-width: 1.0;"/><polygon fill="none" points="232.286,419.9999,252.2859,427,232.2859,433.9999,232.286,419.9999" style="stroke: #A80036; stroke-width: 1.0;"/><!--link Gnome::Gtk3::Stack to Gnome::Gtk3::Container--><path d="M89.6914,427 C94.5598,427 99.4282,427 104.2966,427 " fill="none" id="Gnome::Gtk3::Stack-Gnome::Gtk3::Container" style="stroke: #A80036; stroke-width: 1.0;"/><polygon fill="none" points="104.3111,419.9999,124.3111,427,104.311,433.9999,104.3111,419.9999" style="stroke: #A80036; stroke-width: 1.0;"/><!--
@startuml
skinparam packageStyle rectangle
set namespaceSeparator ::
hide members


class Gnome::N::TopLevelClassSupport < Catch all class >
Gnome::N::TopLevelClassSupport <|- - Gnome::GObject::Object

Gnome::GObject::Object <|- - Gnome::GObject::InitialyUnowned
Gnome::GObject::Object *-> Gnome::GObject::Signal

Gnome::GObject::InitialyUnowned <|- - - Gnome::Gtk3::Widget
class Gnome::Gtk3::Widget implements Gnome::Gtk3::Buildable


Gnome::Gtk3::Container -|> Gnome::Gtk3::Widget
Gnome::Gtk3::Stack -|> Gnome::Gtk3::Container











@enduml

PlantUML version 1.2019.01(Sat Feb 09 16:32:04 CET 2019)
(LGPL source distribution)
Java Runtime: OpenJDK Runtime Environment
JVM: OpenJDK 64-Bit Server VM
Java Version: 1.8.0_265-b01
Operating System: Linux
OS Version: 5.8.8-100.fc31.x86_64
Default Encoding: UTF-8
Language: en
Country: null
--></g></svg>