<?xml version="1.0" encoding="UTF-8" standalone="no"?><svg xmlns="http://www.w3.org/2000/svg" xmlns:xlink="http://www.w3.org/1999/xlink" contentScriptType="application/ecmascript" contentStyleType="text/css" height="462px" preserveAspectRatio="none" style="width:607px;height:462px;" version="1.1" viewBox="0 0 607 462" width="607px" zoomAndPan="magnify"><defs><filter height="300%" id="f1j9skesr3v60c" width="300%" x="-1" y="-1"><feGaussianBlur result="blurOut" stdDeviation="2.0"/><feColorMatrix in="blurOut" result="blurOut2" type="matrix" values="0 0 0 0 0 0 0 0 0 0 0 0 0 0 0 0 0 0 .4 0"/><feOffset dx="4.0" dy="4.0" in="blurOut2" result="blurOut3"/><feBlend in="SourceGraphic" in2="blurOut3" mode="normal"/></filter></defs><g><!--cluster Gnome::N--><rect fill="#FFFFFF" filter="url(#f1j9skesr3v60c)" height="67" style="stroke: #000000; stroke-width: 1.5;" width="286" x="310" y="16"/><text fill="#000000" font-family="sans-serif" font-size="14" font-weight="bold" lengthAdjust="spacingAndGlyphs" textLength="79" x="413.5" y="30.9951">Gnome::N</text><!--cluster Gnome::GObject--><rect fill="#FFFFFF" filter="url(#f1j9skesr3v60c)" height="159" style="stroke: #000000; stroke-width: 1.5;" width="255" x="242" y="108"/><text fill="#000000" font-family="sans-serif" font-size="14" font-weight="bold" lengthAdjust="spacingAndGlyphs" textLength="131" x="304" y="122.9951">Gnome::GObject</text><!--cluster Gnome::Gtk3--><rect fill="#FFFFFF" filter="url(#f1j9skesr3v60c)" height="159" style="stroke: #000000; stroke-width: 1.5;" width="456" x="14" y="292"/><text fill="#000000" font-family="sans-serif" font-size="14" font-weight="bold" lengthAdjust="spacingAndGlyphs" textLength="105" x="189.5" y="306.9951">Gnome::Gtk3</text><!--class Gnome::N::TopLevelClassSupport--><rect fill="#FEFECE" filter="url(#f1j9skesr3v60c)" height="32" id="Gnome::N::TopLevelClassSupport" style="stroke: #A80036; stroke-width: 1.5;" width="269" x="318.5" y="43"/><ellipse cx="333.5" cy="59" fill="#80FFFF" rx="11" ry="11" style="stroke: #A80036; stroke-width: 1.0;"/><path d="M336.4688,64.6406 Q335.8906,64.9375 335.25,65.0781 Q334.6094,65.2344 333.9063,65.2344 Q331.4063,65.2344 330.0781,63.5938 Q328.7656,61.9375 328.7656,58.8125 Q328.7656,55.6875 330.0781,54.0313 Q331.4063,52.375 333.9063,52.375 Q334.6094,52.375 335.25,52.5313 Q335.9063,52.6875 336.4688,52.9844 L336.4688,55.7031 Q335.8438,55.125 335.25,54.8594 Q334.6563,54.5781 334.0313,54.5781 Q332.6875,54.5781 332,55.6563 Q331.3125,56.7188 331.3125,58.8125 Q331.3125,60.9063 332,61.9844 Q332.6875,63.0469 334.0313,63.0469 Q334.6563,63.0469 335.25,62.7813 Q335.8438,62.5 336.4688,61.9219 L336.4688,64.6406 Z "/><text fill="#000000" font-family="sans-serif" font-size="12" lengthAdjust="spacingAndGlyphs" textLength="137" x="347.5" y="63.1807">TopLevelClassSupport</text><rect fill="#FFFFFF" height="15.9688" style="stroke: #000000; stroke-width: 1.0; stroke-dasharray: 2.0,2.0;" width="98" x="492.5" y="40"/><text fill="#000000" font-family="sans-serif" font-size="12" font-style="italic" lengthAdjust="spacingAndGlyphs" textLength="88" x="497.5" y="52.1387">Catch all class</text><!--class Gnome::GObject::Signal--><rect fill="#FEFECE" filter="url(#f1j9skesr3v60c)" height="32" id="Gnome::GObject::Signal" style="stroke: #A80036; stroke-width: 1.5;" width="131" x="250.5" y="135"/><ellipse cx="265.5" cy="151" fill="#80FFFF" rx="11" ry="11" style="stroke: #A80036; stroke-width: 1.0;"/><path d="M266.7031,151.1406 Q267.0625,151.2188 267.3281,151.5 Q267.6094,151.7656 268,152.5469 L270.2344,157 L267.5469,157 L266.0469,153.875 Q265.9844,153.7344 265.875,153.5 Q265.2188,152.1094 264.3281,152.1094 L263.5469,152.1094 L263.5469,157 L261.1094,157 L261.1094,144.6094 L264.6406,144.6094 Q267.0313,144.6094 268.0625,145.4531 Q269.1094,146.2969 269.1094,148.2031 Q269.1094,149.4844 268.4844,150.25 Q267.875,151 266.7031,151.1406 Z M263.5469,146.6719 L263.5469,150.0469 L264.7031,150.0469 Q265.7188,150.0469 266.1406,149.6563 Q266.5781,149.25 266.5781,148.3438 Q266.5781,147.4531 266.1406,147.0625 Q265.7188,146.6719 264.7031,146.6719 L263.5469,146.6719 Z "/><text fill="#000000" font-family="sans-serif" font-size="12" lengthAdjust="spacingAndGlyphs" textLength="38" x="279.5" y="155.1807">Signal</text><rect fill="#FFFFFF" height="15.9688" style="stroke: #000000; stroke-width: 1.0; stroke-dasharray: 2.0,2.0;" width="59" x="325.5" y="132"/><text fill="#000000" font-family="sans-serif" font-size="12" font-style="italic" lengthAdjust="spacingAndGlyphs" textLength="57" x="326.5" y="144.1387">Interface</text><!--class Gnome::GObject::Object--><rect fill="#FEFECE" filter="url(#f1j9skesr3v60c)" height="32" id="Gnome::GObject::Object" style="stroke: #A80036; stroke-width: 1.5;" width="72" x="417" y="135"/><ellipse cx="432" cy="151" fill="#80FFFF" rx="11" ry="11" style="stroke: #A80036; stroke-width: 1.0;"/><path d="M434.9688,156.6406 Q434.3906,156.9375 433.75,157.0781 Q433.1094,157.2344 432.4063,157.2344 Q429.9063,157.2344 428.5781,155.5938 Q427.2656,153.9375 427.2656,150.8125 Q427.2656,147.6875 428.5781,146.0313 Q429.9063,144.375 432.4063,144.375 Q433.1094,144.375 433.75,144.5313 Q434.4063,144.6875 434.9688,144.9844 L434.9688,147.7031 Q434.3438,147.125 433.75,146.8594 Q433.1563,146.5781 432.5313,146.5781 Q431.1875,146.5781 430.5,147.6563 Q429.8125,148.7188 429.8125,150.8125 Q429.8125,152.9063 430.5,153.9844 Q431.1875,155.0469 432.5313,155.0469 Q433.1563,155.0469 433.75,154.7813 Q434.3438,154.5 434.9688,153.9219 L434.9688,156.6406 Z "/><text fill="#000000" font-family="sans-serif" font-size="12" lengthAdjust="spacingAndGlyphs" textLength="40" x="446" y="155.1807">Object</text><!--class Gnome::GObject::InitialyUnowned--><rect fill="#FEFECE" filter="url(#f1j9skesr3v60c)" height="32" id="Gnome::GObject::InitialyUnowned" style="stroke: #A80036; stroke-width: 1.5;" width="129" x="359.5" y="227"/><ellipse cx="374.5" cy="243" fill="#80FFFF" rx="11" ry="11" style="stroke: #A80036; stroke-width: 1.0;"/><path d="M377.4688,248.6406 Q376.8906,248.9375 376.25,249.0781 Q375.6094,249.2344 374.9063,249.2344 Q372.4063,249.2344 371.0781,247.5938 Q369.7656,245.9375 369.7656,242.8125 Q369.7656,239.6875 371.0781,238.0313 Q372.4063,236.375 374.9063,236.375 Q375.6094,236.375 376.25,236.5313 Q376.9063,236.6875 377.4688,236.9844 L377.4688,239.7031 Q376.8438,239.125 376.25,238.8594 Q375.6563,238.5781 375.0313,238.5781 Q373.6875,238.5781 373,239.6563 Q372.3125,240.7188 372.3125,242.8125 Q372.3125,244.9063 373,245.9844 Q373.6875,247.0469 375.0313,247.0469 Q375.6563,247.0469 376.25,246.7813 Q376.8438,246.5 377.4688,245.9219 L377.4688,248.6406 Z "/><text fill="#000000" font-family="sans-serif" font-size="12" lengthAdjust="spacingAndGlyphs" textLength="97" x="388.5" y="247.1807">InitialyUnowned</text><!--class Gnome::Gtk3::Buildable--><rect fill="#FEFECE" filter="url(#f1j9skesr3v60c)" height="32" id="Gnome::Gtk3::Buildable" style="stroke: #A80036; stroke-width: 1.5;" width="150" x="312" y="411"/><ellipse cx="327" cy="427" fill="#80FFFF" rx="11" ry="11" style="stroke: #A80036; stroke-width: 1.0;"/><path d="M328.2031,427.1406 Q328.5625,427.2188 328.8281,427.5 Q329.1094,427.7656 329.5,428.5469 L331.7344,433 L329.0469,433 L327.5469,429.875 Q327.4844,429.7344 327.375,429.5 Q326.7188,428.1094 325.8281,428.1094 L325.0469,428.1094 L325.0469,433 L322.6094,433 L322.6094,420.6094 L326.1406,420.6094 Q328.5313,420.6094 329.5625,421.4531 Q330.6094,422.2969 330.6094,424.2031 Q330.6094,425.4844 329.9844,426.25 Q329.375,427 328.2031,427.1406 Z M325.0469,422.6719 L325.0469,426.0469 L326.2031,426.0469 Q327.2188,426.0469 327.6406,425.6563 Q328.0781,425.25 328.0781,424.3438 Q328.0781,423.4531 327.6406,423.0625 Q327.2188,422.6719 326.2031,422.6719 L325.0469,422.6719 Z "/><text fill="#000000" font-family="sans-serif" font-size="12" lengthAdjust="spacingAndGlyphs" textLength="57" x="341" y="431.1807">Buildable</text><rect fill="#FFFFFF" height="15.9688" style="stroke: #000000; stroke-width: 1.0; stroke-dasharray: 2.0,2.0;" width="59" x="406" y="408"/><text fill="#000000" font-family="sans-serif" font-size="12" font-style="italic" lengthAdjust="spacingAndGlyphs" textLength="57" x="407" y="420.1387">Interface</text><!--class Gnome::Gtk3::Widget--><rect fill="#FEFECE" filter="url(#f1j9skesr3v60c)" height="32" id="Gnome::Gtk3::Widget" style="stroke: #A80036; stroke-width: 1.5;" width="75" x="386.5" y="319"/><ellipse cx="401.5" cy="335" fill="#80FFFF" rx="11" ry="11" style="stroke: #A80036; stroke-width: 1.0;"/><path d="M404.4688,340.6406 Q403.8906,340.9375 403.25,341.0781 Q402.6094,341.2344 401.9063,341.2344 Q399.4063,341.2344 398.0781,339.5938 Q396.7656,337.9375 396.7656,334.8125 Q396.7656,331.6875 398.0781,330.0313 Q399.4063,328.375 401.9063,328.375 Q402.6094,328.375 403.25,328.5313 Q403.9063,328.6875 404.4688,328.9844 L404.4688,331.7031 Q403.8438,331.125 403.25,330.8594 Q402.6563,330.5781 402.0313,330.5781 Q400.6875,330.5781 400,331.6563 Q399.3125,332.7188 399.3125,334.8125 Q399.3125,336.9063 400,337.9844 Q400.6875,339.0469 402.0313,339.0469 Q402.6563,339.0469 403.25,338.7813 Q403.8438,338.5 404.4688,337.9219 L404.4688,340.6406 Z "/><text fill="#000000" font-family="sans-serif" font-size="12" lengthAdjust="spacingAndGlyphs" textLength="43" x="415.5" y="339.1807">Widget</text><!--class Gnome::Gtk3::StackSidebar--><rect fill="#FEFECE" filter="url(#f1j9skesr3v60c)" height="32" id="Gnome::Gtk3::StackSidebar" style="stroke: #A80036; stroke-width: 1.5;" width="115" x="22.5" y="319"/><ellipse cx="37.5" cy="335" fill="#80FFFF" rx="11" ry="11" style="stroke: #A80036; stroke-width: 1.0;"/><path d="M40.4688,340.6406 Q39.8906,340.9375 39.25,341.0781 Q38.6094,341.2344 37.9063,341.2344 Q35.4063,341.2344 34.0781,339.5938 Q32.7656,337.9375 32.7656,334.8125 Q32.7656,331.6875 34.0781,330.0313 Q35.4063,328.375 37.9063,328.375 Q38.6094,328.375 39.25,328.5313 Q39.9063,328.6875 40.4688,328.9844 L40.4688,331.7031 Q39.8438,331.125 39.25,330.8594 Q38.6563,330.5781 38.0313,330.5781 Q36.6875,330.5781 36,331.6563 Q35.3125,332.7188 35.3125,334.8125 Q35.3125,336.9063 36,337.9844 Q36.6875,339.0469 38.0313,339.0469 Q38.6563,339.0469 39.25,338.7813 Q39.8438,338.5 40.4688,337.9219 L40.4688,340.6406 Z "/><text fill="#000000" font-family="sans-serif" font-size="12" lengthAdjust="spacingAndGlyphs" textLength="83" x="51.5" y="339.1807">StackSidebar</text><!--class Gnome::Gtk3::Bin--><rect fill="#FEFECE" filter="url(#f1j9skesr3v60c)" height="32" id="Gnome::Gtk3::Bin" style="stroke: #A80036; stroke-width: 1.5;" width="51" x="172.5" y="319"/><ellipse cx="187.5" cy="335" fill="#80FFFF" rx="11" ry="11" style="stroke: #A80036; stroke-width: 1.0;"/><path d="M190.4688,340.6406 Q189.8906,340.9375 189.25,341.0781 Q188.6094,341.2344 187.9063,341.2344 Q185.4063,341.2344 184.0781,339.5938 Q182.7656,337.9375 182.7656,334.8125 Q182.7656,331.6875 184.0781,330.0313 Q185.4063,328.375 187.9063,328.375 Q188.6094,328.375 189.25,328.5313 Q189.9063,328.6875 190.4688,328.9844 L190.4688,331.7031 Q189.8438,331.125 189.25,330.8594 Q188.6563,330.5781 188.0313,330.5781 Q186.6875,330.5781 186,331.6563 Q185.3125,332.7188 185.3125,334.8125 Q185.3125,336.9063 186,337.9844 Q186.6875,339.0469 188.0313,339.0469 Q188.6563,339.0469 189.25,338.7813 Q189.8438,338.5 190.4688,337.9219 L190.4688,340.6406 Z "/><text fill="#000000" font-family="sans-serif" font-size="12" lengthAdjust="spacingAndGlyphs" textLength="19" x="201.5" y="339.1807">Bin</text><!--class Gnome::Gtk3::Container--><rect fill="#FEFECE" filter="url(#f1j9skesr3v60c)" height="32" id="Gnome::Gtk3::Container" style="stroke: #A80036; stroke-width: 1.5;" width="93" x="258.5" y="319"/><ellipse cx="273.5" cy="335" fill="#80FFFF" rx="11" ry="11" style="stroke: #A80036; stroke-width: 1.0;"/><path d="M276.4688,340.6406 Q275.8906,340.9375 275.25,341.0781 Q274.6094,341.2344 273.9063,341.2344 Q271.4063,341.2344 270.0781,339.5938 Q268.7656,337.9375 268.7656,334.8125 Q268.7656,331.6875 270.0781,330.0313 Q271.4063,328.375 273.9063,328.375 Q274.6094,328.375 275.25,328.5313 Q275.9063,328.6875 276.4688,328.9844 L276.4688,331.7031 Q275.8438,331.125 275.25,330.8594 Q274.6563,330.5781 274.0313,330.5781 Q272.6875,330.5781 272,331.6563 Q271.3125,332.7188 271.3125,334.8125 Q271.3125,336.9063 272,337.9844 Q272.6875,339.0469 274.0313,339.0469 Q274.6563,339.0469 275.25,338.7813 Q275.8438,338.5 276.4688,337.9219 L276.4688,340.6406 Z "/><text fill="#000000" font-family="sans-serif" font-size="12" lengthAdjust="spacingAndGlyphs" textLength="61" x="287.5" y="339.1807">Container</text><!--link Gnome::N::TopLevelClassSupport to Gnome::GObject::Object--><path d="M453,95.4048 C453,109.0788 453,123.9368 453,134.8498 " fill="none" id="Gnome::N::TopLevelClassSupport-Gnome::GObject::Object" style="stroke: #A80036; stroke-width: 1.0;"/><polygon fill="none" points="446.0001,95.0252,453,75.0252,460.0001,95.0251,446.0001,95.0252" style="stroke: #A80036; stroke-width: 1.0;"/><!--link Gnome::GObject::InitialyUnowned to Gnome::Gtk3::Widget--><path d="M424,279.4048 C424,293.0788 424,307.9368 424,318.8498 " fill="none" id="Gnome::GObject::InitialyUnowned-Gnome::Gtk3::Widget" style="stroke: #A80036; stroke-width: 1.0;"/><polygon fill="none" points="417.0001,279.0252,424,259.0252,431.0001,279.0251,417.0001,279.0252" style="stroke: #A80036; stroke-width: 1.0;"/><!--link Gnome::GObject::Object to Gnome::GObject::InitialyUnowned--><path d="M441.8355,186.4184 C437.4407,200.3605 432.6137,215.6738 429.0908,226.8498 " fill="none" id="Gnome::GObject::Object-Gnome::GObject::InitialyUnowned" style="stroke: #A80036; stroke-width: 1.0;"/><polygon fill="none" points="435.2596,183.9955,447.9486,167.0252,448.612,188.2044,435.2596,183.9955" style="stroke: #A80036; stroke-width: 1.0;"/><!--link Gnome::Gtk3::StackSidebar to Gnome::Gtk3::Bin--><path d="M137.6172,335 C142.3702,335 147.1233,335 151.8763,335 " fill="none" id="Gnome::Gtk3::StackSidebar-Gnome::Gtk3::Bin" style="stroke: #A80036; stroke-width: 1.0;"/><polygon fill="none" points="152.0543,327.9999,172.0543,335,152.0542,341.9999,152.0543,327.9999" style="stroke: #A80036; stroke-width: 1.0;"/><!--link Gnome::Gtk3::Bin to Gnome::Gtk3::Container--><path d="M223.9141,335 C228.6792,335 233.4444,335 238.2095,335 " fill="none" id="Gnome::Gtk3::Bin-Gnome::Gtk3::Container" style="stroke: #A80036; stroke-width: 1.0;"/><polygon fill="none" points="238.439,327.9999,258.4389,335,238.4389,341.9999,238.439,327.9999" style="stroke: #A80036; stroke-width: 1.0;"/><!--link Gnome::Gtk3::Container to Gnome::Gtk3::Widget--><path d="M351.9492,335 C356.6884,335 361.4276,335 366.1668,335 " fill="none" id="Gnome::Gtk3::Container-Gnome::Gtk3::Widget" style="stroke: #A80036; stroke-width: 1.0;"/><polygon fill="none" points="366.286,327.9999,386.2859,335,366.2859,341.9999,366.286,327.9999" style="stroke: #A80036; stroke-width: 1.0;"/><!--link Gnome::GObject::Signal to Gnome::GObject::Object--><path d="M401.77,151 C406.8464,151 411.9228,151 416.9992,151 " fill="none" id="Gnome::GObject::Signal-Gnome::GObject::Object" style="stroke: #A80036; stroke-width: 1.0; stroke-dasharray: 7.0,7.0;"/><polygon fill="none" points="401.5567,157.9999,381.5566,151,401.5566,143.9999,401.5567,157.9999" style="stroke: #A80036; stroke-width: 1.0;"/><!--link Gnome::Gtk3::Widget to Gnome::Gtk3::Buildable--><path d="M417.5551,351.0252 C413.0201,362.3013 406.7734,377.8337 401.1094,391.9172 " fill="none" id="Gnome::Gtk3::Widget-Gnome::Gtk3::Buildable" style="stroke: #A80036; stroke-width: 1.0; stroke-dasharray: 7.0,7.0;"/><polygon fill="none" points="407.4523,394.9061,393.4952,410.8498,394.4634,389.6823,407.4523,394.9061" style="stroke: #A80036; stroke-width: 1.0;"/><!--
@startuml
skinparam packageStyle rectangle
skinparam stereotypeCBackgroundColor #80ffff
set namespaceSeparator ::
hide members

class Gnome::N::TopLevelClassSupport < Catch all class >

Interface Gnome::GObject::Signal <Interface>
class Gnome::GObject::Signal <<(R,#80ffff)>>

Interface Gnome::Gtk3::Buildable <Interface>
class Gnome::Gtk3::Buildable <<(R,#80ffff)>>


Gnome::N::TopLevelClassSupport <|- - Gnome::GObject::Object

Gnome::GObject::InitialyUnowned <|- - Gnome::Gtk3::Widget
Gnome::GObject::Object <|- - Gnome::GObject::InitialyUnowned

Gnome::Gtk3::StackSidebar -|> Gnome::Gtk3::Bin
Gnome::Gtk3::Bin -|> Gnome::Gtk3::Container
Gnome::Gtk3::Container -|> Gnome::Gtk3::Widget


Gnome::GObject::Signal <|. Gnome::GObject::Object
Gnome::Gtk3::Widget ..|> Gnome::Gtk3::Buildable

@enduml

PlantUML version 1.2019.01(Sat Feb 09 16:32:04 CET 2019)
(LGPL source distribution)
Java Runtime: OpenJDK Runtime Environment
JVM: OpenJDK 64-Bit Server VM
Java Version: 1.8.0_265-b01
Operating System: Linux
OS Version: 5.8.13-100.fc31.x86_64
Default Encoding: UTF-8
Language: en
Country: null
--></g></svg>