<?xml version="1.0" encoding="UTF-8" standalone="no"?><svg xmlns="http://www.w3.org/2000/svg" xmlns:xlink="http://www.w3.org/1999/xlink" contentScriptType="application/ecmascript" contentStyleType="text/css" height="462px" preserveAspectRatio="none" style="width:491px;height:462px;" version="1.1" viewBox="0 0 491 462" width="491px" zoomAndPan="magnify"><defs><filter height="300%" id="feszgle81v5hl" width="300%" x="-1" y="-1"><feGaussianBlur result="blurOut" stdDeviation="2.0"/><feColorMatrix in="blurOut" result="blurOut2" type="matrix" values="0 0 0 0 0 0 0 0 0 0 0 0 0 0 0 0 0 0 .4 0"/><feOffset dx="4.0" dy="4.0" in="blurOut2" result="blurOut3"/><feBlend in="SourceGraphic" in2="blurOut3" mode="normal"/></filter></defs><g><!--cluster Gnome::N--><rect fill="#FFFFFF" filter="url(#feszgle81v5hl)" height="67" style="stroke: #000000; stroke-width: 1.5;" width="286" x="180" y="16"/><text fill="#000000" font-family="sans-serif" font-size="14" font-weight="bold" lengthAdjust="spacingAndGlyphs" textLength="79" x="283.5" y="30.9951">Gnome::N</text><!--cluster Gnome::GObject--><rect fill="#FFFFFF" filter="url(#feszgle81v5hl)" height="251" style="stroke: #000000; stroke-width: 1.5;" width="148" x="14" y="16"/><text fill="#000000" font-family="sans-serif" font-size="14" font-weight="bold" lengthAdjust="spacingAndGlyphs" textLength="131" x="22.5" y="30.9951">Gnome::GObject</text><!--cluster Gnome::Gtk3--><rect fill="#FFFFFF" filter="url(#feszgle81v5hl)" height="159" style="stroke: #000000; stroke-width: 1.5;" width="438" x="42" y="292"/><text fill="#000000" font-family="sans-serif" font-size="14" font-weight="bold" lengthAdjust="spacingAndGlyphs" textLength="105" x="208.5" y="306.9951">Gnome::Gtk3</text><!--class Gnome::N::TopLevelClassSupport--><rect fill="#FEFECE" filter="url(#feszgle81v5hl)" height="32" id="Gnome::N::TopLevelClassSupport" style="stroke: #A80036; stroke-width: 1.5;" width="269" x="188.5" y="43"/><ellipse cx="203.5" cy="59" fill="#80FFFF" rx="11" ry="11" style="stroke: #A80036; stroke-width: 1.0;"/><path d="M206.4688,64.6406 Q205.8906,64.9375 205.25,65.0781 Q204.6094,65.2344 203.9063,65.2344 Q201.4063,65.2344 200.0781,63.5938 Q198.7656,61.9375 198.7656,58.8125 Q198.7656,55.6875 200.0781,54.0313 Q201.4063,52.375 203.9063,52.375 Q204.6094,52.375 205.25,52.5313 Q205.9063,52.6875 206.4688,52.9844 L206.4688,55.7031 Q205.8438,55.125 205.25,54.8594 Q204.6563,54.5781 204.0313,54.5781 Q202.6875,54.5781 202,55.6563 Q201.3125,56.7188 201.3125,58.8125 Q201.3125,60.9063 202,61.9844 Q202.6875,63.0469 204.0313,63.0469 Q204.6563,63.0469 205.25,62.7813 Q205.8438,62.5 206.4688,61.9219 L206.4688,64.6406 Z "/><text fill="#000000" font-family="sans-serif" font-size="12" lengthAdjust="spacingAndGlyphs" textLength="137" x="217.5" y="63.1807">TopLevelClassSupport</text><rect fill="#FFFFFF" height="15.9688" style="stroke: #000000; stroke-width: 1.0; stroke-dasharray: 2.0,2.0;" width="98" x="362.5" y="40"/><text fill="#000000" font-family="sans-serif" font-size="12" font-style="italic" lengthAdjust="spacingAndGlyphs" textLength="88" x="367.5" y="52.1387">Catch all class</text><!--class Gnome::GObject::Signal--><rect fill="#FEFECE" filter="url(#feszgle81v5hl)" height="32" id="Gnome::GObject::Signal" style="stroke: #A80036; stroke-width: 1.5;" width="131" x="22.5" y="43"/><ellipse cx="37.5" cy="59" fill="#80FFFF" rx="11" ry="11" style="stroke: #A80036; stroke-width: 1.0;"/><path d="M38.7031,59.1406 Q39.0625,59.2188 39.3281,59.5 Q39.6094,59.7656 40,60.5469 L42.2344,65 L39.5469,65 L38.0469,61.875 Q37.9844,61.7344 37.875,61.5 Q37.2188,60.1094 36.3281,60.1094 L35.5469,60.1094 L35.5469,65 L33.1094,65 L33.1094,52.6094 L36.6406,52.6094 Q39.0313,52.6094 40.0625,53.4531 Q41.1094,54.2969 41.1094,56.2031 Q41.1094,57.4844 40.4844,58.25 Q39.875,59 38.7031,59.1406 Z M35.5469,54.6719 L35.5469,58.0469 L36.7031,58.0469 Q37.7188,58.0469 38.1406,57.6563 Q38.5781,57.25 38.5781,56.3438 Q38.5781,55.4531 38.1406,55.0625 Q37.7188,54.6719 36.7031,54.6719 L35.5469,54.6719 Z "/><text fill="#000000" font-family="sans-serif" font-size="12" lengthAdjust="spacingAndGlyphs" textLength="38" x="51.5" y="63.1807">Signal</text><rect fill="#FFFFFF" height="15.9688" style="stroke: #000000; stroke-width: 1.0; stroke-dasharray: 2.0,2.0;" width="59" x="97.5" y="40"/><text fill="#000000" font-family="sans-serif" font-size="12" font-style="italic" lengthAdjust="spacingAndGlyphs" textLength="57" x="98.5" y="52.1387">Interface</text><!--class Gnome::GObject::Object--><rect fill="#FEFECE" filter="url(#feszgle81v5hl)" height="32" id="Gnome::GObject::Object" style="stroke: #A80036; stroke-width: 1.5;" width="72" x="52" y="135"/><ellipse cx="67" cy="151" fill="#80FFFF" rx="11" ry="11" style="stroke: #A80036; stroke-width: 1.0;"/><path d="M69.9688,156.6406 Q69.3906,156.9375 68.75,157.0781 Q68.1094,157.2344 67.4063,157.2344 Q64.9063,157.2344 63.5781,155.5938 Q62.2656,153.9375 62.2656,150.8125 Q62.2656,147.6875 63.5781,146.0313 Q64.9063,144.375 67.4063,144.375 Q68.1094,144.375 68.75,144.5313 Q69.4063,144.6875 69.9688,144.9844 L69.9688,147.7031 Q69.3438,147.125 68.75,146.8594 Q68.1563,146.5781 67.5313,146.5781 Q66.1875,146.5781 65.5,147.6563 Q64.8125,148.7188 64.8125,150.8125 Q64.8125,152.9063 65.5,153.9844 Q66.1875,155.0469 67.5313,155.0469 Q68.1563,155.0469 68.75,154.7813 Q69.3438,154.5 69.9688,153.9219 L69.9688,156.6406 Z "/><text fill="#000000" font-family="sans-serif" font-size="12" lengthAdjust="spacingAndGlyphs" textLength="40" x="81" y="155.1807">Object</text><!--class Gnome::GObject::InitialyUnowned--><rect fill="#FEFECE" filter="url(#feszgle81v5hl)" height="32" id="Gnome::GObject::InitialyUnowned" style="stroke: #A80036; stroke-width: 1.5;" width="129" x="23.5" y="227"/><ellipse cx="38.5" cy="243" fill="#80FFFF" rx="11" ry="11" style="stroke: #A80036; stroke-width: 1.0;"/><path d="M41.4688,248.6406 Q40.8906,248.9375 40.25,249.0781 Q39.6094,249.2344 38.9063,249.2344 Q36.4063,249.2344 35.0781,247.5938 Q33.7656,245.9375 33.7656,242.8125 Q33.7656,239.6875 35.0781,238.0313 Q36.4063,236.375 38.9063,236.375 Q39.6094,236.375 40.25,236.5313 Q40.9063,236.6875 41.4688,236.9844 L41.4688,239.7031 Q40.8438,239.125 40.25,238.8594 Q39.6563,238.5781 39.0313,238.5781 Q37.6875,238.5781 37,239.6563 Q36.3125,240.7188 36.3125,242.8125 Q36.3125,244.9063 37,245.9844 Q37.6875,247.0469 39.0313,247.0469 Q39.6563,247.0469 40.25,246.7813 Q40.8438,246.5 41.4688,245.9219 L41.4688,248.6406 Z "/><text fill="#000000" font-family="sans-serif" font-size="12" lengthAdjust="spacingAndGlyphs" textLength="97" x="52.5" y="247.1807">InitialyUnowned</text><!--class Gnome::Gtk3::Orientable--><rect fill="#FEFECE" filter="url(#feszgle81v5hl)" height="32" id="Gnome::Gtk3::Orientable" style="stroke: #A80036; stroke-width: 1.5;" width="158" x="237" y="411"/><ellipse cx="252" cy="427" fill="#80FFFF" rx="11" ry="11" style="stroke: #A80036; stroke-width: 1.0;"/><path d="M253.2031,427.1406 Q253.5625,427.2188 253.8281,427.5 Q254.1094,427.7656 254.5,428.5469 L256.7344,433 L254.0469,433 L252.5469,429.875 Q252.4844,429.7344 252.375,429.5 Q251.7188,428.1094 250.8281,428.1094 L250.0469,428.1094 L250.0469,433 L247.6094,433 L247.6094,420.6094 L251.1406,420.6094 Q253.5313,420.6094 254.5625,421.4531 Q255.6094,422.2969 255.6094,424.2031 Q255.6094,425.4844 254.9844,426.25 Q254.375,427 253.2031,427.1406 Z M250.0469,422.6719 L250.0469,426.0469 L251.2031,426.0469 Q252.2188,426.0469 252.6406,425.6563 Q253.0781,425.25 253.0781,424.3438 Q253.0781,423.4531 252.6406,423.0625 Q252.2188,422.6719 251.2031,422.6719 L250.0469,422.6719 Z "/><text fill="#000000" font-family="sans-serif" font-size="12" lengthAdjust="spacingAndGlyphs" textLength="65" x="266" y="431.1807">Orientable</text><rect fill="#FFFFFF" height="15.9688" style="stroke: #000000; stroke-width: 1.0; stroke-dasharray: 2.0,2.0;" width="59" x="339" y="408"/><text fill="#000000" font-family="sans-serif" font-size="12" font-style="italic" lengthAdjust="spacingAndGlyphs" textLength="57" x="340" y="420.1387">Interface</text><!--class Gnome::Gtk3::Buildable--><rect fill="#FEFECE" filter="url(#feszgle81v5hl)" height="32" id="Gnome::Gtk3::Buildable" style="stroke: #A80036; stroke-width: 1.5;" width="150" x="50" y="411"/><ellipse cx="65" cy="427" fill="#80FFFF" rx="11" ry="11" style="stroke: #A80036; stroke-width: 1.0;"/><path d="M66.2031,427.1406 Q66.5625,427.2188 66.8281,427.5 Q67.1094,427.7656 67.5,428.5469 L69.7344,433 L67.0469,433 L65.5469,429.875 Q65.4844,429.7344 65.375,429.5 Q64.7188,428.1094 63.8281,428.1094 L63.0469,428.1094 L63.0469,433 L60.6094,433 L60.6094,420.6094 L64.1406,420.6094 Q66.5313,420.6094 67.5625,421.4531 Q68.6094,422.2969 68.6094,424.2031 Q68.6094,425.4844 67.9844,426.25 Q67.375,427 66.2031,427.1406 Z M63.0469,422.6719 L63.0469,426.0469 L64.2031,426.0469 Q65.2188,426.0469 65.6406,425.6563 Q66.0781,425.25 66.0781,424.3438 Q66.0781,423.4531 65.6406,423.0625 Q65.2188,422.6719 64.2031,422.6719 L63.0469,422.6719 Z "/><text fill="#000000" font-family="sans-serif" font-size="12" lengthAdjust="spacingAndGlyphs" textLength="57" x="79" y="431.1807">Buildable</text><rect fill="#FFFFFF" height="15.9688" style="stroke: #000000; stroke-width: 1.0; stroke-dasharray: 2.0,2.0;" width="59" x="144" y="408"/><text fill="#000000" font-family="sans-serif" font-size="12" font-style="italic" lengthAdjust="spacingAndGlyphs" textLength="57" x="145" y="420.1387">Interface</text><!--class Gnome::Gtk3::Widget--><rect fill="#FEFECE" filter="url(#feszgle81v5hl)" height="32" id="Gnome::Gtk3::Widget" style="stroke: #A80036; stroke-width: 1.5;" width="75" x="50.5" y="319"/><ellipse cx="65.5" cy="335" fill="#80FFFF" rx="11" ry="11" style="stroke: #A80036; stroke-width: 1.0;"/><path d="M68.4688,340.6406 Q67.8906,340.9375 67.25,341.0781 Q66.6094,341.2344 65.9063,341.2344 Q63.4063,341.2344 62.0781,339.5938 Q60.7656,337.9375 60.7656,334.8125 Q60.7656,331.6875 62.0781,330.0313 Q63.4063,328.375 65.9063,328.375 Q66.6094,328.375 67.25,328.5313 Q67.9063,328.6875 68.4688,328.9844 L68.4688,331.7031 Q67.8438,331.125 67.25,330.8594 Q66.6563,330.5781 66.0313,330.5781 Q64.6875,330.5781 64,331.6563 Q63.3125,332.7188 63.3125,334.8125 Q63.3125,336.9063 64,337.9844 Q64.6875,339.0469 66.0313,339.0469 Q66.6563,339.0469 67.25,338.7813 Q67.8438,338.5 68.4688,337.9219 L68.4688,340.6406 Z "/><text fill="#000000" font-family="sans-serif" font-size="12" lengthAdjust="spacingAndGlyphs" textLength="43" x="79.5" y="339.1807">Widget</text><!--class Gnome::Gtk3::Container--><rect fill="#FEFECE" filter="url(#feszgle81v5hl)" height="32" id="Gnome::Gtk3::Container" style="stroke: #A80036; stroke-width: 1.5;" width="93" x="160.5" y="319"/><ellipse cx="175.5" cy="335" fill="#80FFFF" rx="11" ry="11" style="stroke: #A80036; stroke-width: 1.0;"/><path d="M178.4688,340.6406 Q177.8906,340.9375 177.25,341.0781 Q176.6094,341.2344 175.9063,341.2344 Q173.4063,341.2344 172.0781,339.5938 Q170.7656,337.9375 170.7656,334.8125 Q170.7656,331.6875 172.0781,330.0313 Q173.4063,328.375 175.9063,328.375 Q176.6094,328.375 177.25,328.5313 Q177.9063,328.6875 178.4688,328.9844 L178.4688,331.7031 Q177.8438,331.125 177.25,330.8594 Q176.6563,330.5781 176.0313,330.5781 Q174.6875,330.5781 174,331.6563 Q173.3125,332.7188 173.3125,334.8125 Q173.3125,336.9063 174,337.9844 Q174.6875,339.0469 176.0313,339.0469 Q176.6563,339.0469 177.25,338.7813 Q177.8438,338.5 178.4688,337.9219 L178.4688,340.6406 Z "/><text fill="#000000" font-family="sans-serif" font-size="12" lengthAdjust="spacingAndGlyphs" textLength="61" x="189.5" y="339.1807">Container</text><!--class Gnome::Gtk3::Box--><rect fill="#FEFECE" filter="url(#feszgle81v5hl)" height="32" id="Gnome::Gtk3::Box" style="stroke: #A80036; stroke-width: 1.5;" width="54" x="289" y="319"/><ellipse cx="304" cy="335" fill="#80FFFF" rx="11" ry="11" style="stroke: #A80036; stroke-width: 1.0;"/><path d="M306.9688,340.6406 Q306.3906,340.9375 305.75,341.0781 Q305.1094,341.2344 304.4063,341.2344 Q301.9063,341.2344 300.5781,339.5938 Q299.2656,337.9375 299.2656,334.8125 Q299.2656,331.6875 300.5781,330.0313 Q301.9063,328.375 304.4063,328.375 Q305.1094,328.375 305.75,328.5313 Q306.4063,328.6875 306.9688,328.9844 L306.9688,331.7031 Q306.3438,331.125 305.75,330.8594 Q305.1563,330.5781 304.5313,330.5781 Q303.1875,330.5781 302.5,331.6563 Q301.8125,332.7188 301.8125,334.8125 Q301.8125,336.9063 302.5,337.9844 Q303.1875,339.0469 304.5313,339.0469 Q305.1563,339.0469 305.75,338.7813 Q306.3438,338.5 306.9688,337.9219 L306.9688,340.6406 Z "/><text fill="#000000" font-family="sans-serif" font-size="12" lengthAdjust="spacingAndGlyphs" textLength="22" x="318" y="339.1807">Box</text><!--class Gnome::Gtk3::StatusBar--><rect fill="#FEFECE" filter="url(#feszgle81v5hl)" height="32" id="Gnome::Gtk3::StatusBar" style="stroke: #A80036; stroke-width: 1.5;" width="94" x="378" y="319"/><ellipse cx="393" cy="335" fill="#80FFFF" rx="11" ry="11" style="stroke: #A80036; stroke-width: 1.0;"/><path d="M395.9688,340.6406 Q395.3906,340.9375 394.75,341.0781 Q394.1094,341.2344 393.4063,341.2344 Q390.9063,341.2344 389.5781,339.5938 Q388.2656,337.9375 388.2656,334.8125 Q388.2656,331.6875 389.5781,330.0313 Q390.9063,328.375 393.4063,328.375 Q394.1094,328.375 394.75,328.5313 Q395.4063,328.6875 395.9688,328.9844 L395.9688,331.7031 Q395.3438,331.125 394.75,330.8594 Q394.1563,330.5781 393.5313,330.5781 Q392.1875,330.5781 391.5,331.6563 Q390.8125,332.7188 390.8125,334.8125 Q390.8125,336.9063 391.5,337.9844 Q392.1875,339.0469 393.5313,339.0469 Q394.1563,339.0469 394.75,338.7813 Q395.3438,338.5 395.9688,337.9219 L395.9688,340.6406 Z "/><text fill="#000000" font-family="sans-serif" font-size="12" lengthAdjust="spacingAndGlyphs" textLength="62" x="407" y="339.1807">StatusBar</text><!--link Gnome::N::TopLevelClassSupport to Gnome::GObject::Object--><path d="M263.3484,82.353 C219.4828,99.5259 161.2846,122.3099 124.2278,136.8172 " fill="none" id="Gnome::N::TopLevelClassSupport-Gnome::GObject::Object" style="stroke: #A80036; stroke-width: 1.0;"/><polygon fill="none" points="260.8906,75.7979,282.0661,75.0252,265.9943,88.8345,260.8906,75.7979" style="stroke: #A80036; stroke-width: 1.0;"/><!--link Gnome::GObject::InitialyUnowned to Gnome::Gtk3::Widget--><path d="M88,279.4048 C88,293.0788 88,307.9368 88,318.8498 " fill="none" id="Gnome::GObject::InitialyUnowned-Gnome::Gtk3::Widget" style="stroke: #A80036; stroke-width: 1.0;"/><polygon fill="none" points="81.0001,279.0252,88,259.0252,95.0001,279.0251,81.0001,279.0252" style="stroke: #A80036; stroke-width: 1.0;"/><!--link Gnome::GObject::Object to Gnome::GObject::InitialyUnowned--><path d="M88,187.4048 C88,201.0788 88,215.9368 88,226.8498 " fill="none" id="Gnome::GObject::Object-Gnome::GObject::InitialyUnowned" style="stroke: #A80036; stroke-width: 1.0;"/><polygon fill="none" points="81.0001,187.0252,88,167.0252,95.0001,187.0251,81.0001,187.0252" style="stroke: #A80036; stroke-width: 1.0;"/><!--link Gnome::GObject::Signal to Gnome::GObject::Object--><path d="M88,95.4048 C88,109.0788 88,123.9368 88,134.8498 " fill="none" id="Gnome::GObject::Signal-Gnome::GObject::Object" style="stroke: #A80036; stroke-width: 1.0; stroke-dasharray: 7.0,7.0;"/><polygon fill="none" points="81.0001,95.0252,88,75.0252,95.0001,95.0251,81.0001,95.0252" style="stroke: #A80036; stroke-width: 1.0;"/><!--link Gnome::Gtk3::Widget to Gnome::Gtk3::Buildable--><path d="M94.4449,351.0252 C98.9799,362.3013 105.2266,377.8337 110.8906,391.9172 " fill="none" id="Gnome::Gtk3::Widget-Gnome::Gtk3::Buildable" style="stroke: #A80036; stroke-width: 1.0; stroke-dasharray: 7.0,7.0;"/><polygon fill="none" points="117.5366,389.6823,118.5048,410.8498,104.5477,394.9061,117.5366,389.6823" style="stroke: #A80036; stroke-width: 1.0;"/><!--link Gnome::Gtk3::Widget to Gnome::Gtk3::Container--><path d="M145.6765,335 C150.5472,335 155.4179,335 160.2887,335 " fill="none" id="Gnome::Gtk3::Widget-Gnome::Gtk3::Container" style="stroke: #A80036; stroke-width: 1.0;"/><polygon fill="none" points="145.6524,341.9999,125.6523,335,145.6523,327.9999,145.6524,341.9999" style="stroke: #A80036; stroke-width: 1.0;"/><!--link Gnome::Gtk3::Container to Gnome::Gtk3::Box--><path d="M274.0514,335 C278.9687,335 283.8859,335 288.8032,335 " fill="none" id="Gnome::Gtk3::Container-Gnome::Gtk3::Box" style="stroke: #A80036; stroke-width: 1.0;"/><polygon fill="none" points="273.836,341.9999,253.8359,335,273.8359,327.9999,273.836,341.9999" style="stroke: #A80036; stroke-width: 1.0;"/><!--link Gnome::Gtk3::Box to Gnome::Gtk3::StatusBar--><path d="M363.458,335 C368.2181,335 372.9782,335 377.7383,335 " fill="none" id="Gnome::Gtk3::Box-Gnome::Gtk3::StatusBar" style="stroke: #A80036; stroke-width: 1.0;"/><polygon fill="none" points="363.25,341.9999,343.25,335,363.25,327.9999,363.25,341.9999" style="stroke: #A80036; stroke-width: 1.0;"/><!--link Gnome::Gtk3::Box to Gnome::Gtk3::Orientable--><path d="M316,351.0252 C316,361.9079 316,376.7552 316,390.4383 " fill="none" id="Gnome::Gtk3::Box-Gnome::Gtk3::Orientable" style="stroke: #A80036; stroke-width: 1.0; stroke-dasharray: 7.0,7.0;"/><polygon fill="none" points="323.0001,390.8498,316,410.8498,309.0001,390.8497,323.0001,390.8498" style="stroke: #A80036; stroke-width: 1.0;"/><!--
@startuml
skinparam packageStyle rectangle
skinparam stereotypeCBackgroundColor #80ffff
set namespaceSeparator ::
hide members


class Gnome::N::TopLevelClassSupport < Catch all class >

Interface Gnome::GObject::Signal <Interface>
class Gnome::GObject::Signal <<(R,#80ffff)>>

Interface Gnome::Gtk3::Orientable <Interface>
class Gnome::Gtk3::Orientable <<(R,#80ffff)>>

Interface Gnome::Gtk3::Buildable <Interface>
class Gnome::Gtk3::Buildable <<(R,#80ffff)>>

Gnome::N::TopLevelClassSupport <|- - Gnome::GObject::Object
Gnome::GObject::InitialyUnowned <|- - Gnome::Gtk3::Widget
Gnome::GObject::Object <|- - Gnome::GObject::InitialyUnowned
Gnome::GObject::Signal <|.. Gnome::GObject::Object

Gnome::Gtk3::Widget ..|> Gnome::Gtk3::Buildable
Gnome::Gtk3::Widget <|-Gnome::Gtk3::Container

Gnome::Gtk3::Container <|- Gnome::Gtk3::Box
Gnome::Gtk3::Box <|- Gnome::Gtk3::StatusBar
Gnome::Gtk3::Box ..|> Gnome::Gtk3::Orientable









@enduml

PlantUML version 1.2019.01(Sat Feb 09 16:32:04 CET 2019)
(LGPL source distribution)
Java Runtime: OpenJDK Runtime Environment
JVM: OpenJDK 64-Bit Server VM
Java Version: 1.8.0_265-b01
Operating System: Linux
OS Version: 5.8.13-100.fc31.x86_64
Default Encoding: UTF-8
Language: en
Country: null
--></g></svg>