<?xml version="1.0" encoding="UTF-8" standalone="no"?><svg xmlns="http://www.w3.org/2000/svg" xmlns:xlink="http://www.w3.org/1999/xlink" contentScriptType="application/ecmascript" contentStyleType="text/css" height="500px" preserveAspectRatio="none" style="width:609px;height:500px;" version="1.1" viewBox="0 0 609 500" width="609px" zoomAndPan="magnify"><defs><filter height="300%" id="f7b7ml3z1oncl" width="300%" x="-1" y="-1"><feGaussianBlur result="blurOut" stdDeviation="2.0"/><feColorMatrix in="blurOut" result="blurOut2" type="matrix" values="0 0 0 0 0 0 0 0 0 0 0 0 0 0 0 0 0 0 .4 0"/><feOffset dx="4.0" dy="4.0" in="blurOut2" result="blurOut3"/><feBlend in="SourceGraphic" in2="blurOut3" mode="normal"/></filter></defs><g><!--MD5=[b969295f0ec9b4fa482091c3e26049be]
cluster Gnome::N--><rect fill="#FFFFFF" filter="url(#f7b7ml3z1oncl)" height="83" style="stroke: #000000; stroke-width: 1.5;" width="302" x="75" y="7"/><text fill="#000000" font-family="sans-serif" font-size="14" font-weight="bold" lengthAdjust="spacingAndGlyphs" textLength="79" x="186.5" y="21.9951">Gnome::N</text><!--MD5=[2fb3f9b624b0544b9841d5da78ec0508]
cluster Gnome::GObject--><rect fill="#FFFFFF" filter="url(#f7b7ml3z1oncl)" height="175" style="stroke: #000000; stroke-width: 1.5;" width="271" x="7" y="114"/><text fill="#000000" font-family="sans-serif" font-size="14" font-weight="bold" lengthAdjust="spacingAndGlyphs" textLength="131" x="77" y="128.9951">Gnome::GObject</text><!--MD5=[7d67f77911969026863717fbb204e273]
cluster Gnome::Gtk3--><rect fill="#FFFFFF" filter="url(#f7b7ml3z1oncl)" height="175" style="stroke: #000000; stroke-width: 1.5;" width="454" x="143" y="313"/><text fill="#000000" font-family="sans-serif" font-size="14" font-weight="bold" lengthAdjust="spacingAndGlyphs" textLength="105" x="317.5" y="327.9951">Gnome::Gtk3</text><!--MD5=[0b8e281ccd00c72019a31d78e9f95b5d]
class Gnome::N::TopLevelClassSupport--><rect codeLine="10" fill="#FEFECE" filter="url(#f7b7ml3z1oncl)" height="32" id="Gnome::N::TopLevelClassSupport" style="stroke: #A80036; stroke-width: 1.5;" width="269" x="91.5" y="42"/><ellipse cx="106.5" cy="58" fill="#80FFFF" rx="11" ry="11" style="stroke: #A80036; stroke-width: 1.0;"/><path d="M109.4688,63.6406 Q108.8906,63.9375 108.25,64.0781 Q107.6094,64.2344 106.9063,64.2344 Q104.4063,64.2344 103.0781,62.5938 Q101.7656,60.9375 101.7656,57.8125 Q101.7656,54.6875 103.0781,53.0313 Q104.4063,51.375 106.9063,51.375 Q107.6094,51.375 108.25,51.5313 Q108.9063,51.6875 109.4688,51.9844 L109.4688,54.7031 Q108.8438,54.125 108.25,53.8594 Q107.6563,53.5781 107.0313,53.5781 Q105.6875,53.5781 105,54.6563 Q104.3125,55.7188 104.3125,57.8125 Q104.3125,59.9063 105,60.9844 Q105.6875,62.0469 107.0313,62.0469 Q107.6563,62.0469 108.25,61.7813 Q108.8438,61.5 109.4688,60.9219 L109.4688,63.6406 Z "/><text fill="#000000" font-family="sans-serif" font-size="12" lengthAdjust="spacingAndGlyphs" textLength="137" x="120.5" y="62.1807">TopLevelClassSupport</text><rect fill="#FFFFFF" height="15.9688" style="stroke: #000000; stroke-width: 1.0; stroke-dasharray: 2.0,2.0;" width="98" x="265.5" y="39"/><text fill="#000000" font-family="sans-serif" font-size="12" font-style="italic" lengthAdjust="spacingAndGlyphs" textLength="88" x="270.5" y="51.1387">Catch all class</text><!--MD5=[52303d185de782118d4739c052001bf2]
class Gnome::GObject::Signal--><rect codeLine="13" fill="#FEFECE" filter="url(#f7b7ml3z1oncl)" height="32" id="Gnome::GObject::Signal" style="stroke: #A80036; stroke-width: 1.5;" width="131" x="23.5" y="149"/><ellipse cx="38.5" cy="165" fill="#80FFFF" rx="11" ry="11" style="stroke: #A80036; stroke-width: 1.0;"/><path d="M39.7031,165.1406 Q40.0625,165.2188 40.3281,165.5 Q40.6094,165.7656 41,166.5469 L43.2344,171 L40.5469,171 L39.0469,167.875 Q38.9844,167.7344 38.875,167.5 Q38.2188,166.1094 37.3281,166.1094 L36.5469,166.1094 L36.5469,171 L34.1094,171 L34.1094,158.6094 L37.6406,158.6094 Q40.0313,158.6094 41.0625,159.4531 Q42.1094,160.2969 42.1094,162.2031 Q42.1094,163.4844 41.4844,164.25 Q40.875,165 39.7031,165.1406 Z M36.5469,160.6719 L36.5469,164.0469 L37.7031,164.0469 Q38.7188,164.0469 39.1406,163.6563 Q39.5781,163.25 39.5781,162.3438 Q39.5781,161.4531 39.1406,161.0625 Q38.7188,160.6719 37.7031,160.6719 L36.5469,160.6719 Z "/><text fill="#000000" font-family="sans-serif" font-size="12" lengthAdjust="spacingAndGlyphs" textLength="38" x="52.5" y="169.1807">Signal</text><rect fill="#FFFFFF" height="15.9688" style="stroke: #000000; stroke-width: 1.0; stroke-dasharray: 2.0,2.0;" width="59" x="98.5" y="146"/><text fill="#000000" font-family="sans-serif" font-size="12" font-style="italic" lengthAdjust="spacingAndGlyphs" textLength="57" x="99.5" y="158.1387">Interface</text><!--MD5=[c2016d28441601ceb0a74f47a4537d14]
class Gnome::GObject::Object--><rect fill="#FEFECE" filter="url(#f7b7ml3z1oncl)" height="32" id="Gnome::GObject::Object" style="stroke: #A80036; stroke-width: 1.5;" width="72" x="190" y="149"/><ellipse cx="205" cy="165" fill="#80FFFF" rx="11" ry="11" style="stroke: #A80036; stroke-width: 1.0;"/><path d="M207.9688,170.6406 Q207.3906,170.9375 206.75,171.0781 Q206.1094,171.2344 205.4063,171.2344 Q202.9063,171.2344 201.5781,169.5938 Q200.2656,167.9375 200.2656,164.8125 Q200.2656,161.6875 201.5781,160.0313 Q202.9063,158.375 205.4063,158.375 Q206.1094,158.375 206.75,158.5313 Q207.4063,158.6875 207.9688,158.9844 L207.9688,161.7031 Q207.3438,161.125 206.75,160.8594 Q206.1563,160.5781 205.5313,160.5781 Q204.1875,160.5781 203.5,161.6563 Q202.8125,162.7188 202.8125,164.8125 Q202.8125,166.9063 203.5,167.9844 Q204.1875,169.0469 205.5313,169.0469 Q206.1563,169.0469 206.75,168.7813 Q207.3438,168.5 207.9688,167.9219 L207.9688,170.6406 Z "/><text fill="#000000" font-family="sans-serif" font-size="12" lengthAdjust="spacingAndGlyphs" textLength="40" x="219" y="169.1807">Object</text><!--MD5=[f47b9a4a06d3f9bed948fa39f8c5540e]
class Gnome::GObject::InitialyUnowned--><rect fill="#FEFECE" filter="url(#f7b7ml3z1oncl)" height="32" id="Gnome::GObject::InitialyUnowned" style="stroke: #A80036; stroke-width: 1.5;" width="129" x="132.5" y="241"/><ellipse cx="147.5" cy="257" fill="#80FFFF" rx="11" ry="11" style="stroke: #A80036; stroke-width: 1.0;"/><path d="M150.4688,262.6406 Q149.8906,262.9375 149.25,263.0781 Q148.6094,263.2344 147.9063,263.2344 Q145.4063,263.2344 144.0781,261.5938 Q142.7656,259.9375 142.7656,256.8125 Q142.7656,253.6875 144.0781,252.0313 Q145.4063,250.375 147.9063,250.375 Q148.6094,250.375 149.25,250.5313 Q149.9063,250.6875 150.4688,250.9844 L150.4688,253.7031 Q149.8438,253.125 149.25,252.8594 Q148.6563,252.5781 148.0313,252.5781 Q146.6875,252.5781 146,253.6563 Q145.3125,254.7188 145.3125,256.8125 Q145.3125,258.9063 146,259.9844 Q146.6875,261.0469 148.0313,261.0469 Q148.6563,261.0469 149.25,260.7813 Q149.8438,260.5 150.4688,259.9219 L150.4688,262.6406 Z "/><text fill="#000000" font-family="sans-serif" font-size="12" lengthAdjust="spacingAndGlyphs" textLength="97" x="161.5" y="261.1807">InitialyUnowned</text><!--MD5=[865b113cd38444117c4dca48a702f1ee]
class Gnome::Gtk3::Orientable--><rect codeLine="16" fill="#FEFECE" filter="url(#f7b7ml3z1oncl)" height="32" id="Gnome::Gtk3::Orientable" style="stroke: #A80036; stroke-width: 1.5;" width="158" x="346" y="440"/><ellipse cx="361" cy="456" fill="#80FFFF" rx="11" ry="11" style="stroke: #A80036; stroke-width: 1.0;"/><path d="M362.2031,456.1406 Q362.5625,456.2188 362.8281,456.5 Q363.1094,456.7656 363.5,457.5469 L365.7344,462 L363.0469,462 L361.5469,458.875 Q361.4844,458.7344 361.375,458.5 Q360.7188,457.1094 359.8281,457.1094 L359.0469,457.1094 L359.0469,462 L356.6094,462 L356.6094,449.6094 L360.1406,449.6094 Q362.5313,449.6094 363.5625,450.4531 Q364.6094,451.2969 364.6094,453.2031 Q364.6094,454.4844 363.9844,455.25 Q363.375,456 362.2031,456.1406 Z M359.0469,451.6719 L359.0469,455.0469 L360.2031,455.0469 Q361.2188,455.0469 361.6406,454.6563 Q362.0781,454.25 362.0781,453.3438 Q362.0781,452.4531 361.6406,452.0625 Q361.2188,451.6719 360.2031,451.6719 L359.0469,451.6719 Z "/><text fill="#000000" font-family="sans-serif" font-size="12" lengthAdjust="spacingAndGlyphs" textLength="65" x="375" y="460.1807">Orientable</text><rect fill="#FFFFFF" height="15.9688" style="stroke: #000000; stroke-width: 1.0; stroke-dasharray: 2.0,2.0;" width="59" x="448" y="437"/><text fill="#000000" font-family="sans-serif" font-size="12" font-style="italic" lengthAdjust="spacingAndGlyphs" textLength="57" x="449" y="449.1387">Interface</text><!--MD5=[fc528952aa489a9a9f8514412a46a5d5]
class Gnome::Gtk3::Buildable--><rect codeLine="19" fill="#FEFECE" filter="url(#f7b7ml3z1oncl)" height="32" id="Gnome::Gtk3::Buildable" style="stroke: #A80036; stroke-width: 1.5;" width="150" x="159" y="440"/><ellipse cx="174" cy="456" fill="#80FFFF" rx="11" ry="11" style="stroke: #A80036; stroke-width: 1.0;"/><path d="M175.2031,456.1406 Q175.5625,456.2188 175.8281,456.5 Q176.1094,456.7656 176.5,457.5469 L178.7344,462 L176.0469,462 L174.5469,458.875 Q174.4844,458.7344 174.375,458.5 Q173.7188,457.1094 172.8281,457.1094 L172.0469,457.1094 L172.0469,462 L169.6094,462 L169.6094,449.6094 L173.1406,449.6094 Q175.5313,449.6094 176.5625,450.4531 Q177.6094,451.2969 177.6094,453.2031 Q177.6094,454.4844 176.9844,455.25 Q176.375,456 175.2031,456.1406 Z M172.0469,451.6719 L172.0469,455.0469 L173.2031,455.0469 Q174.2188,455.0469 174.6406,454.6563 Q175.0781,454.25 175.0781,453.3438 Q175.0781,452.4531 174.6406,452.0625 Q174.2188,451.6719 173.2031,451.6719 L172.0469,451.6719 Z "/><text fill="#000000" font-family="sans-serif" font-size="12" lengthAdjust="spacingAndGlyphs" textLength="57" x="188" y="460.1807">Buildable</text><rect fill="#FFFFFF" height="15.9688" style="stroke: #000000; stroke-width: 1.0; stroke-dasharray: 2.0,2.0;" width="59" x="253" y="437"/><text fill="#000000" font-family="sans-serif" font-size="12" font-style="italic" lengthAdjust="spacingAndGlyphs" textLength="57" x="254" y="449.1387">Interface</text><!--MD5=[99c1fd59bdfde6048aec9e6766dd53ef]
class Gnome::Gtk3::Widget--><rect fill="#FEFECE" filter="url(#f7b7ml3z1oncl)" height="32" id="Gnome::Gtk3::Widget" style="stroke: #A80036; stroke-width: 1.5;" width="75" x="159.5" y="348"/><ellipse cx="174.5" cy="364" fill="#80FFFF" rx="11" ry="11" style="stroke: #A80036; stroke-width: 1.0;"/><path d="M177.4688,369.6406 Q176.8906,369.9375 176.25,370.0781 Q175.6094,370.2344 174.9063,370.2344 Q172.4063,370.2344 171.0781,368.5938 Q169.7656,366.9375 169.7656,363.8125 Q169.7656,360.6875 171.0781,359.0313 Q172.4063,357.375 174.9063,357.375 Q175.6094,357.375 176.25,357.5313 Q176.9063,357.6875 177.4688,357.9844 L177.4688,360.7031 Q176.8438,360.125 176.25,359.8594 Q175.6563,359.5781 175.0313,359.5781 Q173.6875,359.5781 173,360.6563 Q172.3125,361.7188 172.3125,363.8125 Q172.3125,365.9063 173,366.9844 Q173.6875,368.0469 175.0313,368.0469 Q175.6563,368.0469 176.25,367.7813 Q176.8438,367.5 177.4688,366.9219 L177.4688,369.6406 Z "/><text fill="#000000" font-family="sans-serif" font-size="12" lengthAdjust="spacingAndGlyphs" textLength="43" x="188.5" y="368.1807">Widget</text><!--MD5=[9e3cc955f682d05594420e46d2e4e3ea]
class Gnome::Gtk3::Container--><rect fill="#FEFECE" filter="url(#f7b7ml3z1oncl)" height="32" id="Gnome::Gtk3::Container" style="stroke: #A80036; stroke-width: 1.5;" width="93" x="269.5" y="348"/><ellipse cx="284.5" cy="364" fill="#80FFFF" rx="11" ry="11" style="stroke: #A80036; stroke-width: 1.0;"/><path d="M287.4688,369.6406 Q286.8906,369.9375 286.25,370.0781 Q285.6094,370.2344 284.9063,370.2344 Q282.4063,370.2344 281.0781,368.5938 Q279.7656,366.9375 279.7656,363.8125 Q279.7656,360.6875 281.0781,359.0313 Q282.4063,357.375 284.9063,357.375 Q285.6094,357.375 286.25,357.5313 Q286.9063,357.6875 287.4688,357.9844 L287.4688,360.7031 Q286.8438,360.125 286.25,359.8594 Q285.6563,359.5781 285.0313,359.5781 Q283.6875,359.5781 283,360.6563 Q282.3125,361.7188 282.3125,363.8125 Q282.3125,365.9063 283,366.9844 Q283.6875,368.0469 285.0313,368.0469 Q285.6563,368.0469 286.25,367.7813 Q286.8438,367.5 287.4688,366.9219 L287.4688,369.6406 Z "/><text fill="#000000" font-family="sans-serif" font-size="12" lengthAdjust="spacingAndGlyphs" textLength="61" x="298.5" y="368.1807">Container</text><!--MD5=[1a4770efc7afe469e38e2fcdc96960c5]
class Gnome::Gtk3::Box--><rect fill="#FEFECE" filter="url(#f7b7ml3z1oncl)" height="32" id="Gnome::Gtk3::Box" style="stroke: #A80036; stroke-width: 1.5;" width="54" x="398" y="348"/><ellipse cx="413" cy="364" fill="#80FFFF" rx="11" ry="11" style="stroke: #A80036; stroke-width: 1.0;"/><path d="M415.9688,369.6406 Q415.3906,369.9375 414.75,370.0781 Q414.1094,370.2344 413.4063,370.2344 Q410.9063,370.2344 409.5781,368.5938 Q408.2656,366.9375 408.2656,363.8125 Q408.2656,360.6875 409.5781,359.0313 Q410.9063,357.375 413.4063,357.375 Q414.1094,357.375 414.75,357.5313 Q415.4063,357.6875 415.9688,357.9844 L415.9688,360.7031 Q415.3438,360.125 414.75,359.8594 Q414.1563,359.5781 413.5313,359.5781 Q412.1875,359.5781 411.5,360.6563 Q410.8125,361.7188 410.8125,363.8125 Q410.8125,365.9063 411.5,366.9844 Q412.1875,368.0469 413.5313,368.0469 Q414.1563,368.0469 414.75,367.7813 Q415.3438,367.5 415.9688,366.9219 L415.9688,369.6406 Z "/><text fill="#000000" font-family="sans-serif" font-size="12" lengthAdjust="spacingAndGlyphs" textLength="22" x="427" y="368.1807">Box</text><!--MD5=[48aaea913e4975493452146f927da646]
class Gnome::Gtk3::Statusbar--><rect fill="#FEFECE" filter="url(#f7b7ml3z1oncl)" height="32" id="Gnome::Gtk3::Statusbar" style="stroke: #A80036; stroke-width: 1.5;" width="94" x="487" y="348"/><ellipse cx="502" cy="364" fill="#80FFFF" rx="11" ry="11" style="stroke: #A80036; stroke-width: 1.0;"/><path d="M504.9688,369.6406 Q504.3906,369.9375 503.75,370.0781 Q503.1094,370.2344 502.4063,370.2344 Q499.9063,370.2344 498.5781,368.5938 Q497.2656,366.9375 497.2656,363.8125 Q497.2656,360.6875 498.5781,359.0313 Q499.9063,357.375 502.4063,357.375 Q503.1094,357.375 503.75,357.5313 Q504.4063,357.6875 504.9688,357.9844 L504.9688,360.7031 Q504.3438,360.125 503.75,359.8594 Q503.1563,359.5781 502.5313,359.5781 Q501.1875,359.5781 500.5,360.6563 Q499.8125,361.7188 499.8125,363.8125 Q499.8125,365.9063 500.5,366.9844 Q501.1875,368.0469 502.5313,368.0469 Q503.1563,368.0469 503.75,367.7813 Q504.3438,367.5 504.9688,366.9219 L504.9688,369.6406 Z "/><text fill="#000000" font-family="sans-serif" font-size="12" lengthAdjust="spacingAndGlyphs" textLength="62" x="516" y="368.1807">Statusbar</text><!--MD5=[e23b679cf607d12ac81e9c5301595709]
reverse link Gnome::N::TopLevelClassSupport to Gnome::GObject::Object--><path codeLine="22" d="M226,94.1 C226,112.76 226,134.73 226,148.98 " fill="none" id="Gnome::N::TopLevelClassSupport-backto-Gnome::GObject::Object" style="stroke: #A80036; stroke-width: 1.0;"/><polygon fill="none" points="219,94.04,226,74.04,233,94.04,219,94.04" style="stroke: #A80036; stroke-width: 1.0;"/><!--MD5=[aa49dbc803ccf1c2ef8546b297b1dcfd]
reverse link Gnome::GObject::InitialyUnowned to Gnome::Gtk3::Widget--><path codeLine="23" d="M197,293.1 C197,311.76 197,333.73 197,347.98 " fill="none" id="Gnome::GObject::InitialyUnowned-backto-Gnome::Gtk3::Widget" style="stroke: #A80036; stroke-width: 1.0;"/><polygon fill="none" points="190,293.04,197,273.04,204,293.04,190,293.04" style="stroke: #A80036; stroke-width: 1.0;"/><!--MD5=[2e57c6084092ea441ae4a3f826779dd8]
reverse link Gnome::GObject::Object to Gnome::GObject::InitialyUnowned--><path codeLine="24" d="M214.84,200.63 C210.34,214.59 205.39,229.96 201.85,240.96 " fill="none" id="Gnome::GObject::Object-backto-Gnome::GObject::InitialyUnowned" style="stroke: #A80036; stroke-width: 1.0;"/><polygon fill="none" points="208.28,198.16,221.08,181.27,221.61,202.45,208.28,198.16" style="stroke: #A80036; stroke-width: 1.0;"/><!--MD5=[f8ffcf4587ba956cb48626a4231e4d21]
reverse link Gnome::GObject::Signal to Gnome::GObject::Object--><path codeLine="26" d="M174.77,165 C179.85,165 184.92,165 190,165 " fill="none" id="Gnome::GObject::Signal-backto-Gnome::GObject::Object" style="stroke: #A80036; stroke-width: 1.0; stroke-dasharray: 7.0,7.0;"/><polygon fill="none" points="174.56,172,154.56,165,174.56,158,174.56,172" style="stroke: #A80036; stroke-width: 1.0;"/><!--MD5=[e1568b3b4ceade3a3349f45f19b4c32a]
link Gnome::Gtk3::Widget to Gnome::Gtk3::Buildable--><path codeLine="28" d="M203.28,380.27 C207.88,391.45 214.3,407.08 220.08,421.15 " fill="none" id="Gnome::Gtk3::Widget-to-Gnome::Gtk3::Buildable" style="stroke: #A80036; stroke-width: 1.0; stroke-dasharray: 7.0,7.0;"/><polygon fill="none" points="226.69,418.8,227.82,439.96,213.74,424.12,226.69,418.8" style="stroke: #A80036; stroke-width: 1.0;"/><!--MD5=[940ddf52f8156166e52a90b7ba66cda5]
reverse link Gnome::Gtk3::Widget to Gnome::Gtk3::Container--><path codeLine="31" d="M254.68,364 C259.55,364 264.42,364 269.29,364 " fill="none" id="Gnome::Gtk3::Widget-backto-Gnome::Gtk3::Container" style="stroke: #A80036; stroke-width: 1.0;"/><polygon fill="none" points="254.65,371,234.65,364,254.65,357,254.65,371" style="stroke: #A80036; stroke-width: 1.0;"/><!--MD5=[d3bbc24061782d4564f016f748234147]
reverse link Gnome::Gtk3::Container to Gnome::Gtk3::Box--><path codeLine="33" d="M383.05,364 C387.97,364 392.89,364 397.8,364 " fill="none" id="Gnome::Gtk3::Container-backto-Gnome::Gtk3::Box" style="stroke: #A80036; stroke-width: 1.0;"/><polygon fill="none" points="382.84,371,362.84,364,382.84,357,382.84,371" style="stroke: #A80036; stroke-width: 1.0;"/><!--MD5=[761707dd1334af5e2edfb218676feae8]
reverse link Gnome::Gtk3::Box to Gnome::Gtk3::Statusbar--><path codeLine="34" d="M472.46,364 C477.22,364 481.98,364 486.74,364 " fill="none" id="Gnome::Gtk3::Box-backto-Gnome::Gtk3::Statusbar" style="stroke: #A80036; stroke-width: 1.0;"/><polygon fill="none" points="472.25,371,452.25,364,472.25,357,472.25,371" style="stroke: #A80036; stroke-width: 1.0;"/><!--MD5=[a6b00b89fd018b89a6ad3c119dbe5dbe]
link Gnome::Gtk3::Box to Gnome::Gtk3::Orientable--><path codeLine="35" d="M425,380.27 C425,391.06 425,405.99 425,419.67 " fill="none" id="Gnome::Gtk3::Box-to-Gnome::Gtk3::Orientable" style="stroke: #A80036; stroke-width: 1.0; stroke-dasharray: 7.0,7.0;"/><polygon fill="none" points="432,419.96,425,439.96,418,419.96,432,419.96" style="stroke: #A80036; stroke-width: 1.0;"/><!--MD5=[8bb20f281c0779eeafd4c36dc47632f6]
@startuml
'scale 0.9
skinparam packageStyle rectangle
skinparam stereotypeCBackgroundColor #80ffff
set namespaceSeparator ::
hide members


'Class and interface decorations
class Gnome::N::TopLevelClassSupport < Catch all class >

Interface Gnome::GObject::Signal <Interface>
class Gnome::GObject::Signal <<(R,#80ffff)>>

Interface Gnome::Gtk3::Orientable <Interface>
class Gnome::Gtk3::Orientable <<(R,#80ffff)>>

Interface Gnome::Gtk3::Buildable <Interface>
class Gnome::Gtk3::Buildable <<(R,#80ffff)>>

'Class connections
Gnome::N::TopLevelClassSupport <|- - Gnome::GObject::Object
Gnome::GObject::InitialyUnowned <|- - Gnome::Gtk3::Widget
Gnome::GObject::Object <|- - Gnome::GObject::InitialyUnowned
'Gnome::GObject::Object *-> Gnome::GObject::Signal
Gnome::GObject::Signal <|. Gnome::GObject::Object

Gnome::Gtk3::Widget ..|> Gnome::Gtk3::Buildable
'Gnome::Gtk3::Button -|> Gnome::Gtk3::Bin
'Gnome::Gtk3::Bin -|> Gnome::Gtk3::Container
Gnome::Gtk3::Widget <|-Gnome::Gtk3::Container

Gnome::Gtk3::Container <|- Gnome::Gtk3::Box
Gnome::Gtk3::Box <|- Gnome::Gtk3::Statusbar
Gnome::Gtk3::Box ..|> Gnome::Gtk3::Orientable

@enduml

@startuml
skinparam packageStyle rectangle
skinparam stereotypeCBackgroundColor #80ffff
set namespaceSeparator ::
hide members


class Gnome::N::TopLevelClassSupport < Catch all class >

Interface Gnome::GObject::Signal <Interface>
class Gnome::GObject::Signal <<(R,#80ffff)>>

Interface Gnome::Gtk3::Orientable <Interface>
class Gnome::Gtk3::Orientable <<(R,#80ffff)>>

Interface Gnome::Gtk3::Buildable <Interface>
class Gnome::Gtk3::Buildable <<(R,#80ffff)>>

Gnome::N::TopLevelClassSupport <|- - Gnome::GObject::Object
Gnome::GObject::InitialyUnowned <|- - Gnome::Gtk3::Widget
Gnome::GObject::Object <|- - Gnome::GObject::InitialyUnowned
Gnome::GObject::Signal <|. Gnome::GObject::Object

Gnome::Gtk3::Widget ..|> Gnome::Gtk3::Buildable
Gnome::Gtk3::Widget <|-Gnome::Gtk3::Container

Gnome::Gtk3::Container <|- Gnome::Gtk3::Box
Gnome::Gtk3::Box <|- Gnome::Gtk3::Statusbar
Gnome::Gtk3::Box ..|> Gnome::Gtk3::Orientable

@enduml

PlantUML version 1.2020.19(Mon Oct 12 17:10:01 CEST 2020)
(GPL source distribution)
Java Runtime: OpenJDK Runtime Environment
JVM: OpenJDK 64-Bit Server VM
Default Encoding: UTF-8
Language: en
Country: null
--></g></svg>