<?xml version="1.0" encoding="UTF-8" standalone="no"?><svg xmlns="http://www.w3.org/2000/svg" xmlns:xlink="http://www.w3.org/1999/xlink" contentScriptType="application/ecmascript" contentStyleType="text/css" height="194px" preserveAspectRatio="none" style="width:590px;height:194px;" version="1.1" viewBox="0 0 590 194" width="590px" zoomAndPan="magnify"><defs><filter height="300%" id="f1lv2a6qw4sygr" width="300%" x="-1" y="-1"><feGaussianBlur result="blurOut" stdDeviation="2.0"/><feColorMatrix in="blurOut" result="blurOut2" type="matrix" values="0 0 0 0 0 0 0 0 0 0 0 0 0 0 0 0 0 0 .4 0"/><feOffset dx="4.0" dy="4.0" in="blurOut2" result="blurOut3"/><feBlend in="SourceGraphic" in2="blurOut3" mode="normal"/></filter></defs><g><!--MD5=[7d67f77911969026863717fbb204e273]
cluster Gnome::Gtk3--><rect fill="#FFFFFF" filter="url(#f1lv2a6qw4sygr)" height="175" style="stroke: #000000; stroke-width: 1.5;" width="571" x="7" y="7"/><text fill="#000000" font-family="sans-serif" font-size="14" font-weight="bold" lengthAdjust="spacingAndGlyphs" textLength="105" x="240" y="21.9951">Gnome::Gtk3</text><!--MD5=[762ba59339a7ddaf718d085351c0c970]
class Gnome::Gtk3::TreeModel--><rect codeLine="11" fill="#FEFECE" filter="url(#f1lv2a6qw4sygr)" height="32" id="Gnome::Gtk3::TreeModel" style="stroke: #A80036; stroke-width: 1.5;" width="158" x="211" y="42"/><ellipse cx="226" cy="58" fill="#80FFFF" rx="11" ry="11" style="stroke: #A80036; stroke-width: 1.0;"/><path d="M227.2031,58.1406 Q227.5625,58.2188 227.8281,58.5 Q228.1094,58.7656 228.5,59.5469 L230.7344,64 L228.0469,64 L226.5469,60.875 Q226.4844,60.7344 226.375,60.5 Q225.7188,59.1094 224.8281,59.1094 L224.0469,59.1094 L224.0469,64 L221.6094,64 L221.6094,51.6094 L225.1406,51.6094 Q227.5313,51.6094 228.5625,52.4531 Q229.6094,53.2969 229.6094,55.2031 Q229.6094,56.4844 228.9844,57.25 Q228.375,58 227.2031,58.1406 Z M224.0469,53.6719 L224.0469,57.0469 L225.2031,57.0469 Q226.2188,57.0469 226.6406,56.6563 Q227.0781,56.25 227.0781,55.3438 Q227.0781,54.4531 226.6406,54.0625 Q226.2188,53.6719 225.2031,53.6719 L224.0469,53.6719 Z "/><text fill="#000000" font-family="sans-serif" font-size="12" lengthAdjust="spacingAndGlyphs" textLength="65" x="240" y="62.1807">TreeModel</text><rect fill="#FFFFFF" height="15.9688" style="stroke: #000000; stroke-width: 1.0; stroke-dasharray: 2.0,2.0;" width="59" x="313" y="39"/><text fill="#000000" font-family="sans-serif" font-size="12" font-style="italic" lengthAdjust="spacingAndGlyphs" textLength="57" x="314" y="51.1387">Interface</text><!--MD5=[7524a077dc48ca5411f2089c1fb1e34f]
class Gnome::Gtk3::ListStore--><rect fill="#FEFECE" filter="url(#f1lv2a6qw4sygr)" height="32" id="Gnome::Gtk3::ListStore" style="stroke: #A80036; stroke-width: 1.5;" width="87" x="23.5" y="134"/><ellipse cx="38.5" cy="150" fill="#80FFFF" rx="11" ry="11" style="stroke: #A80036; stroke-width: 1.0;"/><path d="M41.4688,155.6406 Q40.8906,155.9375 40.25,156.0781 Q39.6094,156.2344 38.9063,156.2344 Q36.4063,156.2344 35.0781,154.5938 Q33.7656,152.9375 33.7656,149.8125 Q33.7656,146.6875 35.0781,145.0313 Q36.4063,143.375 38.9063,143.375 Q39.6094,143.375 40.25,143.5313 Q40.9063,143.6875 41.4688,143.9844 L41.4688,146.7031 Q40.8438,146.125 40.25,145.8594 Q39.6563,145.5781 39.0313,145.5781 Q37.6875,145.5781 37,146.6563 Q36.3125,147.7188 36.3125,149.8125 Q36.3125,151.9063 37,152.9844 Q37.6875,154.0469 39.0313,154.0469 Q39.6563,154.0469 40.25,153.7813 Q40.8438,153.5 41.4688,152.9219 L41.4688,155.6406 Z "/><text fill="#000000" font-family="sans-serif" font-size="12" lengthAdjust="spacingAndGlyphs" textLength="55" x="52.5" y="154.1807">ListStore</text><!--MD5=[58bf179c83cf3d653e5d518463b7495f]
class Gnome::Gtk3::TreeModelFilter--><rect fill="#FEFECE" filter="url(#f1lv2a6qw4sygr)" height="32" id="Gnome::Gtk3::TreeModelFilter" style="stroke: #A80036; stroke-width: 1.5;" width="128" x="146" y="134"/><ellipse cx="161" cy="150" fill="#80FFFF" rx="11" ry="11" style="stroke: #A80036; stroke-width: 1.0;"/><path d="M163.9688,155.6406 Q163.3906,155.9375 162.75,156.0781 Q162.1094,156.2344 161.4063,156.2344 Q158.9063,156.2344 157.5781,154.5938 Q156.2656,152.9375 156.2656,149.8125 Q156.2656,146.6875 157.5781,145.0313 Q158.9063,143.375 161.4063,143.375 Q162.1094,143.375 162.75,143.5313 Q163.4063,143.6875 163.9688,143.9844 L163.9688,146.7031 Q163.3438,146.125 162.75,145.8594 Q162.1563,145.5781 161.5313,145.5781 Q160.1875,145.5781 159.5,146.6563 Q158.8125,147.7188 158.8125,149.8125 Q158.8125,151.9063 159.5,152.9844 Q160.1875,154.0469 161.5313,154.0469 Q162.1563,154.0469 162.75,153.7813 Q163.3438,153.5 163.9688,152.9219 L163.9688,155.6406 Z "/><text fill="#000000" font-family="sans-serif" font-size="12" lengthAdjust="spacingAndGlyphs" textLength="96" x="175" y="154.1807">TreeModelFilter</text><!--MD5=[01f47324b83bf80f56ebe2a882d2cf0b]
class Gnome::Gtk3::TreeModelSort--><rect fill="#FEFECE" filter="url(#f1lv2a6qw4sygr)" height="32" id="Gnome::Gtk3::TreeModelSort" style="stroke: #A80036; stroke-width: 1.5;" width="123" x="309.5" y="134"/><ellipse cx="324.5" cy="150" fill="#80FFFF" rx="11" ry="11" style="stroke: #A80036; stroke-width: 1.0;"/><path d="M327.4688,155.6406 Q326.8906,155.9375 326.25,156.0781 Q325.6094,156.2344 324.9063,156.2344 Q322.4063,156.2344 321.0781,154.5938 Q319.7656,152.9375 319.7656,149.8125 Q319.7656,146.6875 321.0781,145.0313 Q322.4063,143.375 324.9063,143.375 Q325.6094,143.375 326.25,143.5313 Q326.9063,143.6875 327.4688,143.9844 L327.4688,146.7031 Q326.8438,146.125 326.25,145.8594 Q325.6563,145.5781 325.0313,145.5781 Q323.6875,145.5781 323,146.6563 Q322.3125,147.7188 322.3125,149.8125 Q322.3125,151.9063 323,152.9844 Q323.6875,154.0469 325.0313,154.0469 Q325.6563,154.0469 326.25,153.7813 Q326.8438,153.5 327.4688,152.9219 L327.4688,155.6406 Z "/><text fill="#000000" font-family="sans-serif" font-size="12" lengthAdjust="spacingAndGlyphs" textLength="91" x="338.5" y="154.1807">TreeModelSort</text><!--MD5=[25b4ec1e44f116c4d32b48979de13851]
class Gnome::Gtk3::TreeStore--><rect fill="#FEFECE" filter="url(#f1lv2a6qw4sygr)" height="32" id="Gnome::Gtk3::TreeStore" style="stroke: #A80036; stroke-width: 1.5;" width="94" x="468" y="134"/><ellipse cx="483" cy="150" fill="#80FFFF" rx="11" ry="11" style="stroke: #A80036; stroke-width: 1.0;"/><path d="M485.9688,155.6406 Q485.3906,155.9375 484.75,156.0781 Q484.1094,156.2344 483.4063,156.2344 Q480.9063,156.2344 479.5781,154.5938 Q478.2656,152.9375 478.2656,149.8125 Q478.2656,146.6875 479.5781,145.0313 Q480.9063,143.375 483.4063,143.375 Q484.1094,143.375 484.75,143.5313 Q485.4063,143.6875 485.9688,143.9844 L485.9688,146.7031 Q485.3438,146.125 484.75,145.8594 Q484.1563,145.5781 483.5313,145.5781 Q482.1875,145.5781 481.5,146.6563 Q480.8125,147.7188 480.8125,149.8125 Q480.8125,151.9063 481.5,152.9844 Q482.1875,154.0469 483.5313,154.0469 Q484.1563,154.0469 484.75,153.7813 Q485.3438,153.5 485.9688,152.9219 L485.9688,155.6406 Z "/><text fill="#000000" font-family="sans-serif" font-size="12" lengthAdjust="spacingAndGlyphs" textLength="62" x="497" y="154.1807">TreeStore</text><!--MD5=[5539f35b5fdab9957545bd579ccf0d4f]
reverse link Gnome::Gtk3::TreeModel to Gnome::Gtk3::ListStore--><path codeLine="15" d="M233.98,81.61 C193.48,97.96 139.86,119.59 104.45,133.89 " fill="none" id="Gnome::Gtk3::TreeModel-backto-Gnome::Gtk3::ListStore" style="stroke: #A80036; stroke-width: 1.0; stroke-dasharray: 7.0,7.0;"/><polygon fill="none" points="231.51,75.06,252.67,74.06,236.75,88.04,231.51,75.06" style="stroke: #A80036; stroke-width: 1.0;"/><!--MD5=[6f62eb58e5dea7e7bec7d2977079960b]
reverse link Gnome::Gtk3::TreeModel to Gnome::Gtk3::TreeModelFilter--><path codeLine="16" d="M263.11,89.25 C249.75,104.29 234.18,121.8 223.37,133.96 " fill="none" id="Gnome::Gtk3::TreeModel-backto-Gnome::Gtk3::TreeModelFilter" style="stroke: #A80036; stroke-width: 1.0; stroke-dasharray: 7.0,7.0;"/><polygon fill="none" points="257.91,84.56,276.43,74.27,268.37,93.87,257.91,84.56" style="stroke: #A80036; stroke-width: 1.0;"/><!--MD5=[2f29278dcad82f2b44f8e501d3bc2163]
reverse link Gnome::Gtk3::TreeModel to Gnome::Gtk3::TreeModelSort--><path codeLine="17" d="M317.22,89.25 C330.76,104.29 346.52,121.8 357.46,133.96 " fill="none" id="Gnome::Gtk3::TreeModel-backto-Gnome::Gtk3::TreeModelSort" style="stroke: #A80036; stroke-width: 1.0; stroke-dasharray: 7.0,7.0;"/><polygon fill="none" points="311.92,93.82,303.74,74.27,322.32,84.45,311.92,93.82" style="stroke: #A80036; stroke-width: 1.0;"/><!--MD5=[ca192bbee60feb0ea69fb1a53bf4348d]
reverse link Gnome::Gtk3::TreeModel to Gnome::Gtk3::TreeStore--><path codeLine="18" d="M346.24,81.5 C387.14,97.86 441.4,119.56 477.22,133.89 " fill="none" id="Gnome::Gtk3::TreeModel-backto-Gnome::Gtk3::TreeStore" style="stroke: #A80036; stroke-width: 1.0; stroke-dasharray: 7.0,7.0;"/><polygon fill="none" points="343.63,87.99,327.66,74.06,348.83,74.99,343.63,87.99" style="stroke: #A80036; stroke-width: 1.0;"/><!--MD5=[48145144a08e77a5511f86ce93b2b3d4]
@startuml
'scale 0.9
skinparam packageStyle rectangle
skinparam stereotypeCBackgroundColor #80ffff
set namespaceSeparator ::
hide members


'Class and interface declarations
Interface Gnome::Gtk3::TreeModel <Interface>
class Gnome::Gtk3::TreeModel <<(R,#80ffff)>>


'Class connections
Gnome::Gtk3::TreeModel <|.. Gnome::Gtk3::ListStore
Gnome::Gtk3::TreeModel <|.. Gnome::Gtk3::TreeModelFilter
Gnome::Gtk3::TreeModel <|.. Gnome::Gtk3::TreeModelSort
Gnome::Gtk3::TreeModel <|.. Gnome::Gtk3::TreeStore

@enduml

@startuml
skinparam packageStyle rectangle
skinparam stereotypeCBackgroundColor #80ffff
set namespaceSeparator ::
hide members


Interface Gnome::Gtk3::TreeModel <Interface>
class Gnome::Gtk3::TreeModel <<(R,#80ffff)>>


Gnome::Gtk3::TreeModel <|.. Gnome::Gtk3::ListStore
Gnome::Gtk3::TreeModel <|.. Gnome::Gtk3::TreeModelFilter
Gnome::Gtk3::TreeModel <|.. Gnome::Gtk3::TreeModelSort
Gnome::Gtk3::TreeModel <|.. Gnome::Gtk3::TreeStore

@enduml

PlantUML version 1.2020.19(Mon Oct 12 17:10:01 CEST 2020)
(GPL source distribution)
Java Runtime: OpenJDK Runtime Environment
JVM: OpenJDK 64-Bit Server VM
Default Encoding: UTF-8
Language: en
Country: null
--></g></svg>