<?xml version="1.0" encoding="UTF-8" standalone="no"?><svg xmlns="http://www.w3.org/2000/svg" xmlns:xlink="http://www.w3.org/1999/xlink" contentScriptType="application/ecmascript" contentStyleType="text/css" height="500px" preserveAspectRatio="none" style="width:510px;height:500px;" version="1.1" viewBox="0 0 510 500" width="510px" zoomAndPan="magnify"><defs><filter height="300%" id="fxqzmmzxewhhc" width="300%" x="-1" y="-1"><feGaussianBlur result="blurOut" stdDeviation="2.0"/><feColorMatrix in="blurOut" result="blurOut2" type="matrix" values="0 0 0 0 0 0 0 0 0 0 0 0 0 0 0 0 0 0 .4 0"/><feOffset dx="4.0" dy="4.0" in="blurOut2" result="blurOut3"/><feBlend in="SourceGraphic" in2="blurOut3" mode="normal"/></filter></defs><g><!--MD5=[b969295f0ec9b4fa482091c3e26049be]
cluster Gnome::N--><rect fill="#FFFFFF" filter="url(#fxqzmmzxewhhc)" height="83" style="stroke: #000000; stroke-width: 1.5;" width="302" x="196" y="7"/><text fill="#000000" font-family="sans-serif" font-size="14" font-weight="bold" lengthAdjust="spacingAndGlyphs" textLength="79" x="307.5" y="21.9951">Gnome::N</text><!--MD5=[2fb3f9b624b0544b9841d5da78ec0508]
cluster Gnome::GObject--><rect fill="#FFFFFF" filter="url(#fxqzmmzxewhhc)" height="175" style="stroke: #000000; stroke-width: 1.5;" width="271" x="128" y="114"/><text fill="#000000" font-family="sans-serif" font-size="14" font-weight="bold" lengthAdjust="spacingAndGlyphs" textLength="131" x="198" y="128.9951">Gnome::GObject</text><!--MD5=[7d67f77911969026863717fbb204e273]
cluster Gnome::Gtk3--><rect fill="#FFFFFF" filter="url(#fxqzmmzxewhhc)" height="175" style="stroke: #000000; stroke-width: 1.5;" width="371" x="7" y="313"/><text fill="#000000" font-family="sans-serif" font-size="14" font-weight="bold" lengthAdjust="spacingAndGlyphs" textLength="105" x="140" y="327.9951">Gnome::Gtk3</text><!--MD5=[0b8e281ccd00c72019a31d78e9f95b5d]
class Gnome::N::TopLevelClassSupport--><rect codeLine="10" fill="#FEFECE" filter="url(#fxqzmmzxewhhc)" height="32" id="Gnome::N::TopLevelClassSupport" style="stroke: #A80036; stroke-width: 1.5;" width="269" x="212.5" y="42"/><ellipse cx="227.5" cy="58" fill="#80FFFF" rx="11" ry="11" style="stroke: #A80036; stroke-width: 1.0;"/><path d="M230.4688,63.6406 Q229.8906,63.9375 229.25,64.0781 Q228.6094,64.2344 227.9063,64.2344 Q225.4063,64.2344 224.0781,62.5938 Q222.7656,60.9375 222.7656,57.8125 Q222.7656,54.6875 224.0781,53.0313 Q225.4063,51.375 227.9063,51.375 Q228.6094,51.375 229.25,51.5313 Q229.9063,51.6875 230.4688,51.9844 L230.4688,54.7031 Q229.8438,54.125 229.25,53.8594 Q228.6563,53.5781 228.0313,53.5781 Q226.6875,53.5781 226,54.6563 Q225.3125,55.7188 225.3125,57.8125 Q225.3125,59.9063 226,60.9844 Q226.6875,62.0469 228.0313,62.0469 Q228.6563,62.0469 229.25,61.7813 Q229.8438,61.5 230.4688,60.9219 L230.4688,63.6406 Z "/><text fill="#000000" font-family="sans-serif" font-size="12" lengthAdjust="spacingAndGlyphs" textLength="137" x="241.5" y="62.1807">TopLevelClassSupport</text><rect fill="#FFFFFF" height="15.9688" style="stroke: #000000; stroke-width: 1.0; stroke-dasharray: 2.0,2.0;" width="98" x="386.5" y="39"/><text fill="#000000" font-family="sans-serif" font-size="12" font-style="italic" lengthAdjust="spacingAndGlyphs" textLength="88" x="391.5" y="51.1387">Catch all class</text><!--MD5=[52303d185de782118d4739c052001bf2]
class Gnome::GObject::Signal--><rect codeLine="13" fill="#FEFECE" filter="url(#fxqzmmzxewhhc)" height="32" id="Gnome::GObject::Signal" style="stroke: #A80036; stroke-width: 1.5;" width="131" x="144.5" y="149"/><ellipse cx="159.5" cy="165" fill="#80FFFF" rx="11" ry="11" style="stroke: #A80036; stroke-width: 1.0;"/><path d="M160.7031,165.1406 Q161.0625,165.2188 161.3281,165.5 Q161.6094,165.7656 162,166.5469 L164.2344,171 L161.5469,171 L160.0469,167.875 Q159.9844,167.7344 159.875,167.5 Q159.2188,166.1094 158.3281,166.1094 L157.5469,166.1094 L157.5469,171 L155.1094,171 L155.1094,158.6094 L158.6406,158.6094 Q161.0313,158.6094 162.0625,159.4531 Q163.1094,160.2969 163.1094,162.2031 Q163.1094,163.4844 162.4844,164.25 Q161.875,165 160.7031,165.1406 Z M157.5469,160.6719 L157.5469,164.0469 L158.7031,164.0469 Q159.7188,164.0469 160.1406,163.6563 Q160.5781,163.25 160.5781,162.3438 Q160.5781,161.4531 160.1406,161.0625 Q159.7188,160.6719 158.7031,160.6719 L157.5469,160.6719 Z "/><text fill="#000000" font-family="sans-serif" font-size="12" lengthAdjust="spacingAndGlyphs" textLength="38" x="173.5" y="169.1807">Signal</text><rect fill="#FFFFFF" height="15.9688" style="stroke: #000000; stroke-width: 1.0; stroke-dasharray: 2.0,2.0;" width="59" x="219.5" y="146"/><text fill="#000000" font-family="sans-serif" font-size="12" font-style="italic" lengthAdjust="spacingAndGlyphs" textLength="57" x="220.5" y="158.1387">Interface</text><!--MD5=[c2016d28441601ceb0a74f47a4537d14]
class Gnome::GObject::Object--><rect fill="#FEFECE" filter="url(#fxqzmmzxewhhc)" height="32" id="Gnome::GObject::Object" style="stroke: #A80036; stroke-width: 1.5;" width="72" x="311" y="149"/><ellipse cx="326" cy="165" fill="#80FFFF" rx="11" ry="11" style="stroke: #A80036; stroke-width: 1.0;"/><path d="M328.9688,170.6406 Q328.3906,170.9375 327.75,171.0781 Q327.1094,171.2344 326.4063,171.2344 Q323.9063,171.2344 322.5781,169.5938 Q321.2656,167.9375 321.2656,164.8125 Q321.2656,161.6875 322.5781,160.0313 Q323.9063,158.375 326.4063,158.375 Q327.1094,158.375 327.75,158.5313 Q328.4063,158.6875 328.9688,158.9844 L328.9688,161.7031 Q328.3438,161.125 327.75,160.8594 Q327.1563,160.5781 326.5313,160.5781 Q325.1875,160.5781 324.5,161.6563 Q323.8125,162.7188 323.8125,164.8125 Q323.8125,166.9063 324.5,167.9844 Q325.1875,169.0469 326.5313,169.0469 Q327.1563,169.0469 327.75,168.7813 Q328.3438,168.5 328.9688,167.9219 L328.9688,170.6406 Z "/><text fill="#000000" font-family="sans-serif" font-size="12" lengthAdjust="spacingAndGlyphs" textLength="40" x="340" y="169.1807">Object</text><!--MD5=[f47b9a4a06d3f9bed948fa39f8c5540e]
class Gnome::GObject::InitialyUnowned--><rect fill="#FEFECE" filter="url(#fxqzmmzxewhhc)" height="32" id="Gnome::GObject::InitialyUnowned" style="stroke: #A80036; stroke-width: 1.5;" width="129" x="253.5" y="241"/><ellipse cx="268.5" cy="257" fill="#80FFFF" rx="11" ry="11" style="stroke: #A80036; stroke-width: 1.0;"/><path d="M271.4688,262.6406 Q270.8906,262.9375 270.25,263.0781 Q269.6094,263.2344 268.9063,263.2344 Q266.4063,263.2344 265.0781,261.5938 Q263.7656,259.9375 263.7656,256.8125 Q263.7656,253.6875 265.0781,252.0313 Q266.4063,250.375 268.9063,250.375 Q269.6094,250.375 270.25,250.5313 Q270.9063,250.6875 271.4688,250.9844 L271.4688,253.7031 Q270.8438,253.125 270.25,252.8594 Q269.6563,252.5781 269.0313,252.5781 Q267.6875,252.5781 267,253.6563 Q266.3125,254.7188 266.3125,256.8125 Q266.3125,258.9063 267,259.9844 Q267.6875,261.0469 269.0313,261.0469 Q269.6563,261.0469 270.25,260.7813 Q270.8438,260.5 271.4688,259.9219 L271.4688,262.6406 Z "/><text fill="#000000" font-family="sans-serif" font-size="12" lengthAdjust="spacingAndGlyphs" textLength="97" x="282.5" y="261.1807">InitialyUnowned</text><!--MD5=[5c74be8f56dc1bba7c78f0f7588ba875]
class Gnome::Gtk3::Scrollable--><rect codeLine="16" fill="#FEFECE" filter="url(#fxqzmmzxewhhc)" height="32" id="Gnome::Gtk3::Scrollable" style="stroke: #A80036; stroke-width: 1.5;" width="154" x="23" y="440"/><ellipse cx="38" cy="456" fill="#80FFFF" rx="11" ry="11" style="stroke: #A80036; stroke-width: 1.0;"/><path d="M39.2031,456.1406 Q39.5625,456.2188 39.8281,456.5 Q40.1094,456.7656 40.5,457.5469 L42.7344,462 L40.0469,462 L38.5469,458.875 Q38.4844,458.7344 38.375,458.5 Q37.7188,457.1094 36.8281,457.1094 L36.0469,457.1094 L36.0469,462 L33.6094,462 L33.6094,449.6094 L37.1406,449.6094 Q39.5313,449.6094 40.5625,450.4531 Q41.6094,451.2969 41.6094,453.2031 Q41.6094,454.4844 40.9844,455.25 Q40.375,456 39.2031,456.1406 Z M36.0469,451.6719 L36.0469,455.0469 L37.2031,455.0469 Q38.2188,455.0469 38.6406,454.6563 Q39.0781,454.25 39.0781,453.3438 Q39.0781,452.4531 38.6406,452.0625 Q38.2188,451.6719 37.2031,451.6719 L36.0469,451.6719 Z "/><text fill="#000000" font-family="sans-serif" font-size="12" lengthAdjust="spacingAndGlyphs" textLength="61" x="52" y="460.1807">Scrollable</text><rect fill="#FFFFFF" height="15.9688" style="stroke: #000000; stroke-width: 1.0; stroke-dasharray: 2.0,2.0;" width="59" x="121" y="437"/><text fill="#000000" font-family="sans-serif" font-size="12" font-style="italic" lengthAdjust="spacingAndGlyphs" textLength="57" x="122" y="449.1387">Interface</text><!--MD5=[fc528952aa489a9a9f8514412a46a5d5]
class Gnome::Gtk3::Buildable--><rect codeLine="19" fill="#FEFECE" filter="url(#fxqzmmzxewhhc)" height="32" id="Gnome::Gtk3::Buildable" style="stroke: #A80036; stroke-width: 1.5;" width="150" x="212" y="440"/><ellipse cx="227" cy="456" fill="#80FFFF" rx="11" ry="11" style="stroke: #A80036; stroke-width: 1.0;"/><path d="M228.2031,456.1406 Q228.5625,456.2188 228.8281,456.5 Q229.1094,456.7656 229.5,457.5469 L231.7344,462 L229.0469,462 L227.5469,458.875 Q227.4844,458.7344 227.375,458.5 Q226.7188,457.1094 225.8281,457.1094 L225.0469,457.1094 L225.0469,462 L222.6094,462 L222.6094,449.6094 L226.1406,449.6094 Q228.5313,449.6094 229.5625,450.4531 Q230.6094,451.2969 230.6094,453.2031 Q230.6094,454.4844 229.9844,455.25 Q229.375,456 228.2031,456.1406 Z M225.0469,451.6719 L225.0469,455.0469 L226.2031,455.0469 Q227.2188,455.0469 227.6406,454.6563 Q228.0781,454.25 228.0781,453.3438 Q228.0781,452.4531 227.6406,452.0625 Q227.2188,451.6719 226.2031,451.6719 L225.0469,451.6719 Z "/><text fill="#000000" font-family="sans-serif" font-size="12" lengthAdjust="spacingAndGlyphs" textLength="57" x="241" y="460.1807">Buildable</text><rect fill="#FFFFFF" height="15.9688" style="stroke: #000000; stroke-width: 1.0; stroke-dasharray: 2.0,2.0;" width="59" x="306" y="437"/><text fill="#000000" font-family="sans-serif" font-size="12" font-style="italic" lengthAdjust="spacingAndGlyphs" textLength="57" x="307" y="449.1387">Interface</text><!--MD5=[99c1fd59bdfde6048aec9e6766dd53ef]
class Gnome::Gtk3::Widget--><rect fill="#FEFECE" filter="url(#fxqzmmzxewhhc)" height="32" id="Gnome::Gtk3::Widget" style="stroke: #A80036; stroke-width: 1.5;" width="75" x="280.5" y="348"/><ellipse cx="295.5" cy="364" fill="#80FFFF" rx="11" ry="11" style="stroke: #A80036; stroke-width: 1.0;"/><path d="M298.4688,369.6406 Q297.8906,369.9375 297.25,370.0781 Q296.6094,370.2344 295.9063,370.2344 Q293.4063,370.2344 292.0781,368.5938 Q290.7656,366.9375 290.7656,363.8125 Q290.7656,360.6875 292.0781,359.0313 Q293.4063,357.375 295.9063,357.375 Q296.6094,357.375 297.25,357.5313 Q297.9063,357.6875 298.4688,357.9844 L298.4688,360.7031 Q297.8438,360.125 297.25,359.8594 Q296.6563,359.5781 296.0313,359.5781 Q294.6875,359.5781 294,360.6563 Q293.3125,361.7188 293.3125,363.8125 Q293.3125,365.9063 294,366.9844 Q294.6875,368.0469 296.0313,368.0469 Q296.6563,368.0469 297.25,367.7813 Q297.8438,367.5 298.4688,366.9219 L298.4688,369.6406 Z "/><text fill="#000000" font-family="sans-serif" font-size="12" lengthAdjust="spacingAndGlyphs" textLength="43" x="309.5" y="368.1807">Widget</text><!--MD5=[9e3cc955f682d05594420e46d2e4e3ea]
class Gnome::Gtk3::Container--><rect fill="#FEFECE" filter="url(#fxqzmmzxewhhc)" height="32" id="Gnome::Gtk3::Container" style="stroke: #A80036; stroke-width: 1.5;" width="93" x="152.5" y="348"/><ellipse cx="167.5" cy="364" fill="#80FFFF" rx="11" ry="11" style="stroke: #A80036; stroke-width: 1.0;"/><path d="M170.4688,369.6406 Q169.8906,369.9375 169.25,370.0781 Q168.6094,370.2344 167.9063,370.2344 Q165.4063,370.2344 164.0781,368.5938 Q162.7656,366.9375 162.7656,363.8125 Q162.7656,360.6875 164.0781,359.0313 Q165.4063,357.375 167.9063,357.375 Q168.6094,357.375 169.25,357.5313 Q169.9063,357.6875 170.4688,357.9844 L170.4688,360.7031 Q169.8438,360.125 169.25,359.8594 Q168.6563,359.5781 168.0313,359.5781 Q166.6875,359.5781 166,360.6563 Q165.3125,361.7188 165.3125,363.8125 Q165.3125,365.9063 166,366.9844 Q166.6875,368.0469 168.0313,368.0469 Q168.6563,368.0469 169.25,367.7813 Q169.8438,367.5 170.4688,366.9219 L170.4688,369.6406 Z "/><text fill="#000000" font-family="sans-serif" font-size="12" lengthAdjust="spacingAndGlyphs" textLength="61" x="181.5" y="368.1807">Container</text><!--MD5=[b1aef51fbc59a048eb2767a5504cad02]
class Gnome::Gtk3::TreeView--><rect fill="#FEFECE" filter="url(#fxqzmmzxewhhc)" height="32" id="Gnome::Gtk3::TreeView" style="stroke: #A80036; stroke-width: 1.5;" width="88" x="29" y="348"/><ellipse cx="44" cy="364" fill="#80FFFF" rx="11" ry="11" style="stroke: #A80036; stroke-width: 1.0;"/><path d="M46.9688,369.6406 Q46.3906,369.9375 45.75,370.0781 Q45.1094,370.2344 44.4063,370.2344 Q41.9063,370.2344 40.5781,368.5938 Q39.2656,366.9375 39.2656,363.8125 Q39.2656,360.6875 40.5781,359.0313 Q41.9063,357.375 44.4063,357.375 Q45.1094,357.375 45.75,357.5313 Q46.4063,357.6875 46.9688,357.9844 L46.9688,360.7031 Q46.3438,360.125 45.75,359.8594 Q45.1563,359.5781 44.5313,359.5781 Q43.1875,359.5781 42.5,360.6563 Q41.8125,361.7188 41.8125,363.8125 Q41.8125,365.9063 42.5,366.9844 Q43.1875,368.0469 44.5313,368.0469 Q45.1563,368.0469 45.75,367.7813 Q46.3438,367.5 46.9688,366.9219 L46.9688,369.6406 Z "/><text fill="#000000" font-family="sans-serif" font-size="12" lengthAdjust="spacingAndGlyphs" textLength="56" x="58" y="368.1807">TreeView</text><!--MD5=[e23b679cf607d12ac81e9c5301595709]
reverse link Gnome::N::TopLevelClassSupport to Gnome::GObject::Object--><path codeLine="23" d="M347,94.1 C347,112.76 347,134.73 347,148.98 " fill="none" id="Gnome::N::TopLevelClassSupport-backto-Gnome::GObject::Object" style="stroke: #A80036; stroke-width: 1.0;"/><polygon fill="none" points="340,94.04,347,74.04,354,94.04,340,94.04" style="stroke: #A80036; stroke-width: 1.0;"/><!--MD5=[aa49dbc803ccf1c2ef8546b297b1dcfd]
reverse link Gnome::GObject::InitialyUnowned to Gnome::Gtk3::Widget--><path codeLine="24" d="M318,293.1 C318,311.76 318,333.73 318,347.98 " fill="none" id="Gnome::GObject::InitialyUnowned-backto-Gnome::Gtk3::Widget" style="stroke: #A80036; stroke-width: 1.0;"/><polygon fill="none" points="311,293.04,318,273.04,325,293.04,311,293.04" style="stroke: #A80036; stroke-width: 1.0;"/><!--MD5=[2e57c6084092ea441ae4a3f826779dd8]
reverse link Gnome::GObject::Object to Gnome::GObject::InitialyUnowned--><path codeLine="25" d="M335.84,200.63 C331.34,214.59 326.39,229.96 322.85,240.96 " fill="none" id="Gnome::GObject::Object-backto-Gnome::GObject::InitialyUnowned" style="stroke: #A80036; stroke-width: 1.0;"/><polygon fill="none" points="329.28,198.16,342.08,181.27,342.61,202.45,329.28,198.16" style="stroke: #A80036; stroke-width: 1.0;"/><!--MD5=[f8ffcf4587ba956cb48626a4231e4d21]
reverse link Gnome::GObject::Signal to Gnome::GObject::Object--><path codeLine="26" d="M295.77,165 C300.85,165 305.92,165 311,165 " fill="none" id="Gnome::GObject::Signal-backto-Gnome::GObject::Object" style="stroke: #A80036; stroke-width: 1.0; stroke-dasharray: 7.0,7.0;"/><polygon fill="none" points="295.56,172,275.56,165,295.56,158,295.56,172" style="stroke: #A80036; stroke-width: 1.0;"/><!--MD5=[e1568b3b4ceade3a3349f45f19b4c32a]
link Gnome::Gtk3::Widget to Gnome::Gtk3::Buildable--><path codeLine="27" d="M312.74,380.27 C308.93,391.32 303.63,406.72 298.83,420.66 " fill="none" id="Gnome::Gtk3::Widget-to-Gnome::Gtk3::Buildable" style="stroke: #A80036; stroke-width: 1.0; stroke-dasharray: 7.0,7.0;"/><polygon fill="none" points="305.31,423.33,292.18,439.96,292.08,418.77,305.31,423.33" style="stroke: #A80036; stroke-width: 1.0;"/><!--MD5=[aaf476f5d2312b98d0ee61e81272172c]
link Gnome::Gtk3::Container to Gnome::Gtk3::Widget--><path codeLine="29" d="M245.95,364 C250.69,364 255.43,364 260.17,364 " fill="none" id="Gnome::Gtk3::Container-to-Gnome::Gtk3::Widget" style="stroke: #A80036; stroke-width: 1.0;"/><polygon fill="none" points="260.29,357,280.29,364,260.29,371,260.29,357" style="stroke: #A80036; stroke-width: 1.0;"/><!--MD5=[a978ae446b1aa72a4be02ce219943b18]
link Gnome::Gtk3::TreeView to Gnome::Gtk3::Container--><path codeLine="30" d="M117.3,364 C122.33,364 127.35,364 132.38,364 " fill="none" id="Gnome::Gtk3::TreeView-to-Gnome::Gtk3::Container" style="stroke: #A80036; stroke-width: 1.0;"/><polygon fill="none" points="132.4,357,152.4,364,132.4,371,132.4,357" style="stroke: #A80036; stroke-width: 1.0;"/><!--MD5=[0e5335846d8a066fa8ab365ff6da9967]
link Gnome::Gtk3::TreeView to Gnome::Gtk3::Scrollable--><path codeLine="31" d="M77.58,380.27 C80.9,391.32 85.51,406.72 89.7,420.66 " fill="none" id="Gnome::Gtk3::TreeView-to-Gnome::Gtk3::Scrollable" style="stroke: #A80036; stroke-width: 1.0; stroke-dasharray: 7.0,7.0;"/><polygon fill="none" points="96.45,418.79,95.49,439.96,83.04,422.81,96.45,418.79" style="stroke: #A80036; stroke-width: 1.0;"/><!--MD5=[7fdc0447be242ea2ce15487eb32fc5e6]
@startuml
'scale 0.9
skinparam packageStyle rectangle
skinparam stereotypeCBackgroundColor #80ffff
set namespaceSeparator ::
hide members


'Class and interface declarations
class Gnome::N::TopLevelClassSupport < Catch all class >

Interface Gnome::GObject::Signal <Interface>
class Gnome::GObject::Signal <<(R,#80ffff)>>

Interface Gnome::Gtk3::Scrollable <Interface>
class Gnome::Gtk3::Scrollable <<(R,#80ffff)>>

Interface Gnome::Gtk3::Buildable <Interface>
class Gnome::Gtk3::Buildable <<(R,#80ffff)>>


'Class connections
Gnome::N::TopLevelClassSupport <|- - Gnome::GObject::Object
Gnome::GObject::InitialyUnowned <|- - Gnome::Gtk3::Widget
Gnome::GObject::Object <|- - Gnome::GObject::InitialyUnowned
Gnome::GObject::Signal <|. Gnome::GObject::Object
Gnome::Gtk3::Widget ..|> Gnome::Gtk3::Buildable

Gnome::Gtk3::Container -|> Gnome::Gtk3::Widget
Gnome::Gtk3::TreeView -|> Gnome::Gtk3::Container
Gnome::Gtk3::TreeView ..|> Gnome::Gtk3::Scrollable


@enduml

@startuml
skinparam packageStyle rectangle
skinparam stereotypeCBackgroundColor #80ffff
set namespaceSeparator ::
hide members


class Gnome::N::TopLevelClassSupport < Catch all class >

Interface Gnome::GObject::Signal <Interface>
class Gnome::GObject::Signal <<(R,#80ffff)>>

Interface Gnome::Gtk3::Scrollable <Interface>
class Gnome::Gtk3::Scrollable <<(R,#80ffff)>>

Interface Gnome::Gtk3::Buildable <Interface>
class Gnome::Gtk3::Buildable <<(R,#80ffff)>>


Gnome::N::TopLevelClassSupport <|- - Gnome::GObject::Object
Gnome::GObject::InitialyUnowned <|- - Gnome::Gtk3::Widget
Gnome::GObject::Object <|- - Gnome::GObject::InitialyUnowned
Gnome::GObject::Signal <|. Gnome::GObject::Object
Gnome::Gtk3::Widget ..|> Gnome::Gtk3::Buildable

Gnome::Gtk3::Container -|> Gnome::Gtk3::Widget
Gnome::Gtk3::TreeView -|> Gnome::Gtk3::Container
Gnome::Gtk3::TreeView ..|> Gnome::Gtk3::Scrollable


@enduml

PlantUML version 1.2020.19(Mon Oct 12 17:10:01 CEST 2020)
(GPL source distribution)
Java Runtime: OpenJDK Runtime Environment
JVM: OpenJDK 64-Bit Server VM
Default Encoding: UTF-8
Language: en
Country: null
--></g></svg>