<?xml version="1.0" encoding="UTF-8" standalone="no"?><svg xmlns="http://www.w3.org/2000/svg" xmlns:xlink="http://www.w3.org/1999/xlink" contentScriptType="application/ecmascript" contentStyleType="text/css" height="462px" preserveAspectRatio="none" style="width:317px;height:462px;" version="1.1" viewBox="0 0 317 462" width="317px" zoomAndPan="magnify"><defs><filter height="300%" id="fftem7zs53pbm" width="300%" x="-1" y="-1"><feGaussianBlur result="blurOut" stdDeviation="2.0"/><feColorMatrix in="blurOut" result="blurOut2" type="matrix" values="0 0 0 0 0 0 0 0 0 0 0 0 0 0 0 0 0 0 .4 0"/><feOffset dx="4.0" dy="4.0" in="blurOut2" result="blurOut3"/><feBlend in="SourceGraphic" in2="blurOut3" mode="normal"/></filter></defs><g><!--cluster Gnome::N--><rect fill="#FFFFFF" filter="url(#fftem7zs53pbm)" height="67" style="stroke: #000000; stroke-width: 1.5;" width="286" x="14" y="16"/><text fill="#000000" font-family="sans-serif" font-size="14" font-weight="bold" lengthAdjust="spacingAndGlyphs" textLength="79" x="117.5" y="30.9951">Gnome::N</text><!--cluster Gnome::GObject--><rect fill="#FFFFFF" filter="url(#fftem7zs53pbm)" height="159" style="stroke: #000000; stroke-width: 1.5;" width="193" x="113" y="108"/><text fill="#000000" font-family="sans-serif" font-size="14" font-weight="bold" lengthAdjust="spacingAndGlyphs" textLength="131" x="144" y="122.9951">Gnome::GObject</text><!--cluster Gnome::Gtk3--><rect fill="#FFFFFF" filter="url(#fftem7zs53pbm)" height="159" style="stroke: #000000; stroke-width: 1.5;" width="121" x="28" y="292"/><text fill="#000000" font-family="sans-serif" font-size="14" font-weight="bold" lengthAdjust="spacingAndGlyphs" textLength="105" x="36" y="306.9951">Gnome::Gtk3</text><!--class Gnome::N::TopLevelClassSupport--><rect fill="#FEFECE" filter="url(#fftem7zs53pbm)" height="32" id="Gnome::N::TopLevelClassSupport" style="stroke: #A80036; stroke-width: 1.5;" width="269" x="22.5" y="43"/><ellipse cx="37.5" cy="59" fill="#ADD1B2" rx="11" ry="11" style="stroke: #A80036; stroke-width: 1.0;"/><path d="M40.4688,64.6406 Q39.8906,64.9375 39.25,65.0781 Q38.6094,65.2344 37.9063,65.2344 Q35.4063,65.2344 34.0781,63.5938 Q32.7656,61.9375 32.7656,58.8125 Q32.7656,55.6875 34.0781,54.0313 Q35.4063,52.375 37.9063,52.375 Q38.6094,52.375 39.25,52.5313 Q39.9063,52.6875 40.4688,52.9844 L40.4688,55.7031 Q39.8438,55.125 39.25,54.8594 Q38.6563,54.5781 38.0313,54.5781 Q36.6875,54.5781 36,55.6563 Q35.3125,56.7188 35.3125,58.8125 Q35.3125,60.9063 36,61.9844 Q36.6875,63.0469 38.0313,63.0469 Q38.6563,63.0469 39.25,62.7813 Q39.8438,62.5 40.4688,61.9219 L40.4688,64.6406 Z "/><text fill="#000000" font-family="sans-serif" font-size="12" lengthAdjust="spacingAndGlyphs" textLength="137" x="51.5" y="63.1807">TopLevelClassSupport</text><rect fill="#FFFFFF" height="15.9688" style="stroke: #000000; stroke-width: 1.0; stroke-dasharray: 2.0,2.0;" width="98" x="196.5" y="40"/><text fill="#000000" font-family="sans-serif" font-size="12" font-style="italic" lengthAdjust="spacingAndGlyphs" textLength="88" x="201.5" y="52.1387">Catch all class</text><!--class Gnome::GObject::Object--><rect fill="#FEFECE" filter="url(#fftem7zs53pbm)" height="32" id="Gnome::GObject::Object" style="stroke: #A80036; stroke-width: 1.5;" width="72" x="121" y="135"/><ellipse cx="136" cy="151" fill="#ADD1B2" rx="11" ry="11" style="stroke: #A80036; stroke-width: 1.0;"/><path d="M138.9688,156.6406 Q138.3906,156.9375 137.75,157.0781 Q137.1094,157.2344 136.4063,157.2344 Q133.9063,157.2344 132.5781,155.5938 Q131.2656,153.9375 131.2656,150.8125 Q131.2656,147.6875 132.5781,146.0313 Q133.9063,144.375 136.4063,144.375 Q137.1094,144.375 137.75,144.5313 Q138.4063,144.6875 138.9688,144.9844 L138.9688,147.7031 Q138.3438,147.125 137.75,146.8594 Q137.1563,146.5781 136.5313,146.5781 Q135.1875,146.5781 134.5,147.6563 Q133.8125,148.7188 133.8125,150.8125 Q133.8125,152.9063 134.5,153.9844 Q135.1875,155.0469 136.5313,155.0469 Q137.1563,155.0469 137.75,154.7813 Q138.3438,154.5 138.9688,153.9219 L138.9688,156.6406 Z "/><text fill="#000000" font-family="sans-serif" font-size="12" lengthAdjust="spacingAndGlyphs" textLength="40" x="150" y="155.1807">Object</text><!--class Gnome::GObject::InitialyUnowned--><rect fill="#FEFECE" filter="url(#fftem7zs53pbm)" height="32" id="Gnome::GObject::InitialyUnowned" style="stroke: #A80036; stroke-width: 1.5;" width="129" x="121.5" y="227"/><ellipse cx="136.5" cy="243" fill="#ADD1B2" rx="11" ry="11" style="stroke: #A80036; stroke-width: 1.0;"/><path d="M139.4688,248.6406 Q138.8906,248.9375 138.25,249.0781 Q137.6094,249.2344 136.9063,249.2344 Q134.4063,249.2344 133.0781,247.5938 Q131.7656,245.9375 131.7656,242.8125 Q131.7656,239.6875 133.0781,238.0313 Q134.4063,236.375 136.9063,236.375 Q137.6094,236.375 138.25,236.5313 Q138.9063,236.6875 139.4688,236.9844 L139.4688,239.7031 Q138.8438,239.125 138.25,238.8594 Q137.6563,238.5781 137.0313,238.5781 Q135.6875,238.5781 135,239.6563 Q134.3125,240.7188 134.3125,242.8125 Q134.3125,244.9063 135,245.9844 Q135.6875,247.0469 137.0313,247.0469 Q137.6563,247.0469 138.25,246.7813 Q138.8438,246.5 139.4688,245.9219 L139.4688,248.6406 Z "/><text fill="#000000" font-family="sans-serif" font-size="12" lengthAdjust="spacingAndGlyphs" textLength="97" x="150.5" y="247.1807">InitialyUnowned</text><!--class Gnome::GObject::Signal--><rect fill="#FEFECE" filter="url(#fftem7zs53pbm)" height="32" id="Gnome::GObject::Signal" style="stroke: #A80036; stroke-width: 1.5;" width="70" x="228" y="135"/><ellipse cx="243" cy="151" fill="#ADD1B2" rx="11" ry="11" style="stroke: #A80036; stroke-width: 1.0;"/><path d="M245.9688,156.6406 Q245.3906,156.9375 244.75,157.0781 Q244.1094,157.2344 243.4063,157.2344 Q240.9063,157.2344 239.5781,155.5938 Q238.2656,153.9375 238.2656,150.8125 Q238.2656,147.6875 239.5781,146.0313 Q240.9063,144.375 243.4063,144.375 Q244.1094,144.375 244.75,144.5313 Q245.4063,144.6875 245.9688,144.9844 L245.9688,147.7031 Q245.3438,147.125 244.75,146.8594 Q244.1563,146.5781 243.5313,146.5781 Q242.1875,146.5781 241.5,147.6563 Q240.8125,148.7188 240.8125,150.8125 Q240.8125,152.9063 241.5,153.9844 Q242.1875,155.0469 243.5313,155.0469 Q244.1563,155.0469 244.75,154.7813 Q245.3438,154.5 245.9688,153.9219 L245.9688,156.6406 Z "/><text fill="#000000" font-family="sans-serif" font-size="12" lengthAdjust="spacingAndGlyphs" textLength="38" x="257" y="155.1807">Signal</text><!--class Gnome::Gtk3::Widget--><rect fill="#FEFECE" filter="url(#fftem7zs53pbm)" height="32" id="Gnome::Gtk3::Widget" style="stroke: #A80036; stroke-width: 1.5;" width="75" x="57.5" y="411"/><ellipse cx="72.5" cy="427" fill="#ADD1B2" rx="11" ry="11" style="stroke: #A80036; stroke-width: 1.0;"/><path d="M75.4688,432.6406 Q74.8906,432.9375 74.25,433.0781 Q73.6094,433.2344 72.9063,433.2344 Q70.4063,433.2344 69.0781,431.5938 Q67.7656,429.9375 67.7656,426.8125 Q67.7656,423.6875 69.0781,422.0313 Q70.4063,420.375 72.9063,420.375 Q73.6094,420.375 74.25,420.5313 Q74.9063,420.6875 75.4688,420.9844 L75.4688,423.7031 Q74.8438,423.125 74.25,422.8594 Q73.6563,422.5781 73.0313,422.5781 Q71.6875,422.5781 71,423.6563 Q70.3125,424.7188 70.3125,426.8125 Q70.3125,428.9063 71,429.9844 Q71.6875,431.0469 73.0313,431.0469 Q73.6563,431.0469 74.25,430.7813 Q74.8438,430.5 75.4688,429.9219 L75.4688,432.6406 Z "/><text fill="#000000" font-family="sans-serif" font-size="12" lengthAdjust="spacingAndGlyphs" textLength="43" x="86.5" y="431.1807">Widget</text><!--class Gnome::Gtk3::Buildable--><rect fill="#FEFECE" filter="url(#fftem7zs53pbm)" height="32" id="Gnome::Gtk3::Buildable" style="stroke: #A80036; stroke-width: 1.5;" width="89" x="43.5" y="319"/><ellipse cx="58.5" cy="335" fill="#B4A7E5" rx="11" ry="11" style="stroke: #A80036; stroke-width: 1.0;"/><path d="M54.4219,330.7656 L54.4219,328.6094 L61.8125,328.6094 L61.8125,330.7656 L59.3438,330.7656 L59.3438,338.8438 L61.8125,338.8438 L61.8125,341 L54.4219,341 L54.4219,338.8438 L56.8906,338.8438 L56.8906,330.7656 L54.4219,330.7656 Z "/><text fill="#000000" font-family="sans-serif" font-size="12" font-style="italic" lengthAdjust="spacingAndGlyphs" textLength="57" x="72.5" y="339.1543">Buildable</text><!--link Gnome::N::TopLevelClassSupport to Gnome::GObject::Object--><path d="M157,95.4048 C157,109.0788 157,123.9368 157,134.8498 " fill="none" id="Gnome::N::TopLevelClassSupport-Gnome::GObject::Object" style="stroke: #A80036; stroke-width: 1.0;"/><polygon fill="none" points="150.0001,95.0252,157,75.0252,164.0001,95.0251,150.0001,95.0252" style="stroke: #A80036; stroke-width: 1.0;"/><!--link Gnome::GObject::Object to Gnome::GObject::InitialyUnowned--><path d="M168.1645,186.4184 C172.5593,200.3605 177.3863,215.6738 180.9092,226.8498 " fill="none" id="Gnome::GObject::Object-Gnome::GObject::InitialyUnowned" style="stroke: #A80036; stroke-width: 1.0;"/><polygon fill="none" points="161.388,188.2044,162.0514,167.0252,174.7404,183.9955,161.388,188.2044" style="stroke: #A80036; stroke-width: 1.0;"/><!--link Gnome::GObject::Object to Gnome::GObject::Signal--><path d="M206.0415,151 C208.8666,151 211.6918,151 214.5169,151 " fill="none" id="Gnome::GObject::Object-Gnome::GObject::Signal" style="stroke: #A80036; stroke-width: 1.0;"/><polygon fill="#A80036" points="227.7384,151,218.7384,147,222.7384,151,218.7384,155,227.7384,151" style="stroke: #A80036; stroke-width: 1.0;"/><line style="stroke: #A80036; stroke-width: 1.0;" x1="222.7384" x2="214.7384" y1="151" y2="150.9999"/><polygon fill="#A80036" points="193.0234,151,199.0234,155,205.0234,151,199.0234,147,193.0234,151" style="stroke: #A80036; stroke-width: 1.0;"/><!--link Gnome::GObject::InitialyUnowned to Gnome::Gtk3::Widget--><path d="M177.0264,278.8403 C170.9094,300.4075 161.7811,328.0408 150,351 C138.6235,373.1708 121.1998,395.9872 109.0209,410.7583 " fill="none" id="Gnome::GObject::InitialyUnowned-Gnome::Gtk3::Widget" style="stroke: #A80036; stroke-width: 1.0;"/><polygon fill="none" points="170.3042,276.8803,182.211,259.3523,183.8336,280.4797,170.3042,276.8803" style="stroke: #A80036; stroke-width: 1.0;"/><!--link Gnome::Gtk3::Buildable to Gnome::Gtk3::Widget--><path d="M90.7699,371.4048 C91.8103,385.0788 92.9408,399.9368 93.7712,410.8498 " fill="none" id="Gnome::Gtk3::Buildable-Gnome::Gtk3::Widget" style="stroke: #A80036; stroke-width: 1.0; stroke-dasharray: 7.0,7.0;"/><polygon fill="none" points="83.7569,371.4986,89.2193,351.0252,97.7166,370.4364,83.7569,371.4986" style="stroke: #A80036; stroke-width: 1.0;"/><!--
@startuml
skinparam packageStyle rectangle
set namespaceSeparator ::
hide members


class Gnome::N::TopLevelClassSupport < Catch all class >
Gnome::N::TopLevelClassSupport <|- - Gnome::GObject::Object

Gnome::GObject::Object <|- - Gnome::GObject::InitialyUnowned
Gnome::GObject::Object *-> Gnome::GObject::Signal

Gnome::GObject::InitialyUnowned <|- - - Gnome::Gtk3::Widget
class Gnome::Gtk3::Widget implements Gnome::Gtk3::Buildable












@enduml

PlantUML version 1.2019.01(Sat Feb 09 16:32:04 CET 2019)
(LGPL source distribution)
Java Runtime: OpenJDK Runtime Environment
JVM: OpenJDK 64-Bit Server VM
Java Version: 1.8.0_265-b01
Operating System: Linux
OS Version: 5.7.11-100.fc31.x86_64
Default Encoding: UTF-8
Language: en
Country: null
--></g></svg>