<?xml version="1.0" encoding="UTF-8" standalone="no"?><svg xmlns="http://www.w3.org/2000/svg" xmlns:xlink="http://www.w3.org/1999/xlink" contentScriptType="application/ecmascript" contentStyleType="text/css" height="554px" preserveAspectRatio="none" style="width:497px;height:554px;" version="1.1" viewBox="0 0 497 554" width="497px" zoomAndPan="magnify"><defs><filter height="300%" id="f4jsf4108vjfg" width="300%" x="-1" y="-1"><feGaussianBlur result="blurOut" stdDeviation="2.0"/><feColorMatrix in="blurOut" result="blurOut2" type="matrix" values="0 0 0 0 0 0 0 0 0 0 0 0 0 0 0 0 0 0 .4 0"/><feOffset dx="4.0" dy="4.0" in="blurOut2" result="blurOut3"/><feBlend in="SourceGraphic" in2="blurOut3" mode="normal"/></filter></defs><g><!--cluster Gnome::N--><rect fill="#FFFFFF" filter="url(#f4jsf4108vjfg)" height="67" style="stroke: #000000; stroke-width: 1.5;" width="286" x="14" y="16"/><text fill="#000000" font-family="sans-serif" font-size="14" font-weight="bold" lengthAdjust="spacingAndGlyphs" textLength="79" x="117.5" y="30.9951">Gnome::N</text><!--cluster Gnome::GObject--><rect fill="#FFFFFF" filter="url(#f4jsf4108vjfg)" height="251" style="stroke: #000000; stroke-width: 1.5;" width="148" x="202" y="108"/><text fill="#000000" font-family="sans-serif" font-size="14" font-weight="bold" lengthAdjust="spacingAndGlyphs" textLength="131" x="210.5" y="122.9951">Gnome::GObject</text><!--cluster Gnome::Gtk3--><rect fill="#FFFFFF" filter="url(#f4jsf4108vjfg)" height="159" style="stroke: #000000; stroke-width: 1.5;" width="166" x="320" y="384"/><text fill="#000000" font-family="sans-serif" font-size="14" font-weight="bold" lengthAdjust="spacingAndGlyphs" textLength="105" x="350.5" y="398.9951">Gnome::Gtk3</text><!--class Gnome::N::TopLevelClassSupport--><rect fill="#FEFECE" filter="url(#f4jsf4108vjfg)" height="32" id="Gnome::N::TopLevelClassSupport" style="stroke: #A80036; stroke-width: 1.5;" width="269" x="22.5" y="43"/><ellipse cx="37.5" cy="59" fill="#80FFFF" rx="11" ry="11" style="stroke: #A80036; stroke-width: 1.0;"/><path d="M40.4688,64.6406 Q39.8906,64.9375 39.25,65.0781 Q38.6094,65.2344 37.9063,65.2344 Q35.4063,65.2344 34.0781,63.5938 Q32.7656,61.9375 32.7656,58.8125 Q32.7656,55.6875 34.0781,54.0313 Q35.4063,52.375 37.9063,52.375 Q38.6094,52.375 39.25,52.5313 Q39.9063,52.6875 40.4688,52.9844 L40.4688,55.7031 Q39.8438,55.125 39.25,54.8594 Q38.6563,54.5781 38.0313,54.5781 Q36.6875,54.5781 36,55.6563 Q35.3125,56.7188 35.3125,58.8125 Q35.3125,60.9063 36,61.9844 Q36.6875,63.0469 38.0313,63.0469 Q38.6563,63.0469 39.25,62.7813 Q39.8438,62.5 40.4688,61.9219 L40.4688,64.6406 Z "/><text fill="#000000" font-family="sans-serif" font-size="12" lengthAdjust="spacingAndGlyphs" textLength="137" x="51.5" y="63.1807">TopLevelClassSupport</text><rect fill="#FFFFFF" height="15.9688" style="stroke: #000000; stroke-width: 1.0; stroke-dasharray: 2.0,2.0;" width="98" x="196.5" y="40"/><text fill="#000000" font-family="sans-serif" font-size="12" font-style="italic" lengthAdjust="spacingAndGlyphs" textLength="88" x="201.5" y="52.1387">Catch all class</text><!--class Gnome::GObject::Object--><rect fill="#FEFECE" filter="url(#f4jsf4108vjfg)" height="32" id="Gnome::GObject::Object" style="stroke: #A80036; stroke-width: 1.5;" width="72" x="239" y="227"/><ellipse cx="254" cy="243" fill="#80FFFF" rx="11" ry="11" style="stroke: #A80036; stroke-width: 1.0;"/><path d="M256.9688,248.6406 Q256.3906,248.9375 255.75,249.0781 Q255.1094,249.2344 254.4063,249.2344 Q251.9063,249.2344 250.5781,247.5938 Q249.2656,245.9375 249.2656,242.8125 Q249.2656,239.6875 250.5781,238.0313 Q251.9063,236.375 254.4063,236.375 Q255.1094,236.375 255.75,236.5313 Q256.4063,236.6875 256.9688,236.9844 L256.9688,239.7031 Q256.3438,239.125 255.75,238.8594 Q255.1563,238.5781 254.5313,238.5781 Q253.1875,238.5781 252.5,239.6563 Q251.8125,240.7188 251.8125,242.8125 Q251.8125,244.9063 252.5,245.9844 Q253.1875,247.0469 254.5313,247.0469 Q255.1563,247.0469 255.75,246.7813 Q256.3438,246.5 256.9688,245.9219 L256.9688,248.6406 Z "/><text fill="#000000" font-family="sans-serif" font-size="12" lengthAdjust="spacingAndGlyphs" textLength="40" x="268" y="247.1807">Object</text><!--class Gnome::GObject::Signal--><rect fill="#FEFECE" filter="url(#f4jsf4108vjfg)" height="32" id="Gnome::GObject::Signal" style="stroke: #A80036; stroke-width: 1.5;" width="131" x="210.5" y="135"/><ellipse cx="225.5" cy="151" fill="#80FFFF" rx="11" ry="11" style="stroke: #A80036; stroke-width: 1.0;"/><path d="M226.7031,151.1406 Q227.0625,151.2188 227.3281,151.5 Q227.6094,151.7656 228,152.5469 L230.2344,157 L227.5469,157 L226.0469,153.875 Q225.9844,153.7344 225.875,153.5 Q225.2188,152.1094 224.3281,152.1094 L223.5469,152.1094 L223.5469,157 L221.1094,157 L221.1094,144.6094 L224.6406,144.6094 Q227.0313,144.6094 228.0625,145.4531 Q229.1094,146.2969 229.1094,148.2031 Q229.1094,149.4844 228.4844,150.25 Q227.875,151 226.7031,151.1406 Z M223.5469,146.6719 L223.5469,150.0469 L224.7031,150.0469 Q225.7188,150.0469 226.1406,149.6563 Q226.5781,149.25 226.5781,148.3438 Q226.5781,147.4531 226.1406,147.0625 Q225.7188,146.6719 224.7031,146.6719 L223.5469,146.6719 Z "/><text fill="#000000" font-family="sans-serif" font-size="12" lengthAdjust="spacingAndGlyphs" textLength="38" x="239.5" y="155.1807">Signal</text><rect fill="#FFFFFF" height="15.9688" style="stroke: #000000; stroke-width: 1.0; stroke-dasharray: 2.0,2.0;" width="59" x="285.5" y="132"/><text fill="#000000" font-family="sans-serif" font-size="12" font-style="italic" lengthAdjust="spacingAndGlyphs" textLength="57" x="286.5" y="144.1387">Interface</text><!--class Gnome::GObject::InitialyUnowned--><rect fill="#FEFECE" filter="url(#f4jsf4108vjfg)" height="32" id="Gnome::GObject::InitialyUnowned" style="stroke: #A80036; stroke-width: 1.5;" width="129" x="210.5" y="319"/><ellipse cx="225.5" cy="335" fill="#80FFFF" rx="11" ry="11" style="stroke: #A80036; stroke-width: 1.0;"/><path d="M228.4688,340.6406 Q227.8906,340.9375 227.25,341.0781 Q226.6094,341.2344 225.9063,341.2344 Q223.4063,341.2344 222.0781,339.5938 Q220.7656,337.9375 220.7656,334.8125 Q220.7656,331.6875 222.0781,330.0313 Q223.4063,328.375 225.9063,328.375 Q226.6094,328.375 227.25,328.5313 Q227.9063,328.6875 228.4688,328.9844 L228.4688,331.7031 Q227.8438,331.125 227.25,330.8594 Q226.6563,330.5781 226.0313,330.5781 Q224.6875,330.5781 224,331.6563 Q223.3125,332.7188 223.3125,334.8125 Q223.3125,336.9063 224,337.9844 Q224.6875,339.0469 226.0313,339.0469 Q226.6563,339.0469 227.25,338.7813 Q227.8438,338.5 228.4688,337.9219 L228.4688,340.6406 Z "/><text fill="#000000" font-family="sans-serif" font-size="12" lengthAdjust="spacingAndGlyphs" textLength="97" x="239.5" y="339.1807">InitialyUnowned</text><!--class Gnome::Gtk3::Buildable--><rect fill="#FEFECE" filter="url(#f4jsf4108vjfg)" height="32" id="Gnome::Gtk3::Buildable" style="stroke: #A80036; stroke-width: 1.5;" width="150" x="328" y="411"/><ellipse cx="343" cy="427" fill="#80FFFF" rx="11" ry="11" style="stroke: #A80036; stroke-width: 1.0;"/><path d="M344.2031,427.1406 Q344.5625,427.2188 344.8281,427.5 Q345.1094,427.7656 345.5,428.5469 L347.7344,433 L345.0469,433 L343.5469,429.875 Q343.4844,429.7344 343.375,429.5 Q342.7188,428.1094 341.8281,428.1094 L341.0469,428.1094 L341.0469,433 L338.6094,433 L338.6094,420.6094 L342.1406,420.6094 Q344.5313,420.6094 345.5625,421.4531 Q346.6094,422.2969 346.6094,424.2031 Q346.6094,425.4844 345.9844,426.25 Q345.375,427 344.2031,427.1406 Z M341.0469,422.6719 L341.0469,426.0469 L342.2031,426.0469 Q343.2188,426.0469 343.6406,425.6563 Q344.0781,425.25 344.0781,424.3438 Q344.0781,423.4531 343.6406,423.0625 Q343.2188,422.6719 342.2031,422.6719 L341.0469,422.6719 Z "/><text fill="#000000" font-family="sans-serif" font-size="12" lengthAdjust="spacingAndGlyphs" textLength="57" x="357" y="431.1807">Buildable</text><rect fill="#FFFFFF" height="15.9688" style="stroke: #000000; stroke-width: 1.0; stroke-dasharray: 2.0,2.0;" width="59" x="422" y="408"/><text fill="#000000" font-family="sans-serif" font-size="12" font-style="italic" lengthAdjust="spacingAndGlyphs" textLength="57" x="423" y="420.1387">Interface</text><!--class Gnome::Gtk3::Widget--><rect fill="#FEFECE" filter="url(#f4jsf4108vjfg)" height="32" id="Gnome::Gtk3::Widget" style="stroke: #A80036; stroke-width: 1.5;" width="75" x="346.5" y="503"/><ellipse cx="361.5" cy="519" fill="#80FFFF" rx="11" ry="11" style="stroke: #A80036; stroke-width: 1.0;"/><path d="M364.4688,524.6406 Q363.8906,524.9375 363.25,525.0781 Q362.6094,525.2344 361.9063,525.2344 Q359.4063,525.2344 358.0781,523.5938 Q356.7656,521.9375 356.7656,518.8125 Q356.7656,515.6875 358.0781,514.0313 Q359.4063,512.375 361.9063,512.375 Q362.6094,512.375 363.25,512.5313 Q363.9063,512.6875 364.4688,512.9844 L364.4688,515.7031 Q363.8438,515.125 363.25,514.8594 Q362.6563,514.5781 362.0313,514.5781 Q360.6875,514.5781 360,515.6563 Q359.3125,516.7188 359.3125,518.8125 Q359.3125,520.9063 360,521.9844 Q360.6875,523.0469 362.0313,523.0469 Q362.6563,523.0469 363.25,522.7813 Q363.8438,522.5 364.4688,521.9219 L364.4688,524.6406 Z "/><text fill="#000000" font-family="sans-serif" font-size="12" lengthAdjust="spacingAndGlyphs" textLength="43" x="375.5" y="523.1807">Widget</text><!--link Gnome::N::TopLevelClassSupport to Gnome::GObject::Object--><path d="M164.1141,94.6607 C169.6325,116.7245 178.7853,144.9472 193,167 C208.5638,191.1459 233.5387,212.7744 251.8413,226.7261 " fill="none" id="Gnome::N::TopLevelClassSupport-Gnome::GObject::Object" style="stroke: #A80036; stroke-width: 1.0;"/><polygon fill="none" points="157.2744,96.1506,159.7543,75.1065,170.9389,93.1039,157.2744,96.1506" style="stroke: #A80036; stroke-width: 1.0;"/><!--link Gnome::GObject::Object to Gnome::GObject::InitialyUnowned--><path d="M275,279.4048 C275,293.0788 275,307.9368 275,318.8498 " fill="none" id="Gnome::GObject::Object-Gnome::GObject::InitialyUnowned" style="stroke: #A80036; stroke-width: 1.0;"/><polygon fill="none" points="268.0001,279.0252,275,259.0252,282.0001,279.0251,268.0001,279.0252" style="stroke: #A80036; stroke-width: 1.0;"/><!--link Gnome::GObject::Signal to Gnome::GObject::Object--><path d="M275.6043,187.4048 C275.4557,201.0788 275.2942,215.9368 275.1755,226.8498 " fill="none" id="Gnome::GObject::Signal-Gnome::GObject::Object" style="stroke: #A80036; stroke-width: 1.0; stroke-dasharray: 7.0,7.0;"/><polygon fill="none" points="268.6088,186.9479,275.8258,167.0252,282.6079,187.1001,268.6088,186.9479" style="stroke: #A80036; stroke-width: 1.0;"/><!--link Gnome::GObject::InitialyUnowned to Gnome::Gtk3::Widget--><path d="M282.7497,371.0956 C288.4541,392.9462 297.5787,420.7869 311,443 C325.1918,466.4883 347.8152,488.5437 364.117,502.7814 " fill="none" id="Gnome::GObject::InitialyUnowned-Gnome::Gtk3::Widget" style="stroke: #A80036; stroke-width: 1.0;"/><polygon fill="none" points="275.8652,372.4,278.0794,351.3264,289.4902,369.1813,275.8652,372.4" style="stroke: #A80036; stroke-width: 1.0;"/><!--link Gnome::Gtk3::Buildable to Gnome::Gtk3::Widget--><path d="M395.5836,462.911 C392.7317,476.7202 389.6163,491.8053 387.3354,502.8498 " fill="none" id="Gnome::Gtk3::Buildable-Gnome::Gtk3::Widget" style="stroke: #A80036; stroke-width: 1.0; stroke-dasharray: 7.0,7.0;"/><polygon fill="none" points="388.79,461.196,399.6905,443.0252,402.5006,464.0276,388.79,461.196" style="stroke: #A80036; stroke-width: 1.0;"/><!--
@startuml
skinparam packageStyle rectangle
skinparam stereotypeCBackgroundColor #80ffff
set namespaceSeparator ::
hide members


class Gnome::N::TopLevelClassSupport < Catch all class >
Gnome::N::TopLevelClassSupport <|- - - Gnome::GObject::Object

Interface Gnome::GObject::Signal <Interface>
class Gnome::GObject::Signal <<(R,#80ffff)>>

Interface Gnome::Gtk3::Buildable <Interface>
class Gnome::Gtk3::Buildable <<(R,#80ffff)>>

Gnome::GObject::Object <|- - Gnome::GObject::InitialyUnowned
Gnome::GObject::Signal <|.. Gnome::GObject::Object

Gnome::GObject::InitialyUnowned <|- - - Gnome::Gtk3::Widget
class Gnome::Gtk3::Widget implements Gnome::Gtk3::Buildable












@enduml

PlantUML version 1.2019.01(Sat Feb 09 16:32:04 CET 2019)
(LGPL source distribution)
Java Runtime: OpenJDK Runtime Environment
JVM: OpenJDK 64-Bit Server VM
Java Version: 1.8.0_265-b01
Operating System: Linux
OS Version: 5.8.8-100.fc31.x86_64
Default Encoding: UTF-8
Language: en
Country: null
--></g></svg>