<?xml version="1.0" encoding="UTF-8" standalone="no"?><svg xmlns="http://www.w3.org/2000/svg" xmlns:xlink="http://www.w3.org/1999/xlink" contentScriptType="application/ecmascript" contentStyleType="text/css" height="462px" preserveAspectRatio="none" style="width:564px;height:462px;" version="1.1" viewBox="0 0 564 462" width="564px" zoomAndPan="magnify"><defs><filter height="300%" id="f1rzl3ykvf0bl0" width="300%" x="-1" y="-1"><feGaussianBlur result="blurOut" stdDeviation="2.0"/><feColorMatrix in="blurOut" result="blurOut2" type="matrix" values="0 0 0 0 0 0 0 0 0 0 0 0 0 0 0 0 0 0 .4 0"/><feOffset dx="4.0" dy="4.0" in="blurOut2" result="blurOut3"/><feBlend in="SourceGraphic" in2="blurOut3" mode="normal"/></filter></defs><g><!--cluster Gnome::N--><rect fill="#FFFFFF" filter="url(#f1rzl3ykvf0bl0)" height="67" style="stroke: #000000; stroke-width: 1.5;" width="286" x="261" y="16"/><text fill="#000000" font-family="sans-serif" font-size="14" font-weight="bold" lengthAdjust="spacingAndGlyphs" textLength="79" x="364.5" y="30.9951">Gnome::N</text><!--cluster Gnome::Gtk3--><rect fill="#FFFFFF" filter="url(#f1rzl3ykvf0bl0)" height="159" style="stroke: #000000; stroke-width: 1.5;" width="420" x="14" y="292"/><text fill="#000000" font-family="sans-serif" font-size="14" font-weight="bold" lengthAdjust="spacingAndGlyphs" textLength="105" x="171.5" y="306.9951">Gnome::Gtk3</text><!--cluster Gnome::GObject--><rect fill="#FFFFFF" filter="url(#f1rzl3ykvf0bl0)" height="159" style="stroke: #000000; stroke-width: 1.5;" width="193" x="360" y="108"/><text fill="#000000" font-family="sans-serif" font-size="14" font-weight="bold" lengthAdjust="spacingAndGlyphs" textLength="131" x="391" y="122.9951">Gnome::GObject</text><!--class Gnome::N::TopLevelClassSupport--><rect fill="#FEFECE" filter="url(#f1rzl3ykvf0bl0)" height="32" id="Gnome::N::TopLevelClassSupport" style="stroke: #A80036; stroke-width: 1.5;" width="269" x="269.5" y="43"/><ellipse cx="284.5" cy="59" fill="#80FFFF" rx="11" ry="11" style="stroke: #A80036; stroke-width: 1.0;"/><path d="M287.4688,64.6406 Q286.8906,64.9375 286.25,65.0781 Q285.6094,65.2344 284.9063,65.2344 Q282.4063,65.2344 281.0781,63.5938 Q279.7656,61.9375 279.7656,58.8125 Q279.7656,55.6875 281.0781,54.0313 Q282.4063,52.375 284.9063,52.375 Q285.6094,52.375 286.25,52.5313 Q286.9063,52.6875 287.4688,52.9844 L287.4688,55.7031 Q286.8438,55.125 286.25,54.8594 Q285.6563,54.5781 285.0313,54.5781 Q283.6875,54.5781 283,55.6563 Q282.3125,56.7188 282.3125,58.8125 Q282.3125,60.9063 283,61.9844 Q283.6875,63.0469 285.0313,63.0469 Q285.6563,63.0469 286.25,62.7813 Q286.8438,62.5 287.4688,61.9219 L287.4688,64.6406 Z "/><text fill="#000000" font-family="sans-serif" font-size="12" lengthAdjust="spacingAndGlyphs" textLength="137" x="298.5" y="63.1807">TopLevelClassSupport</text><rect fill="#FFFFFF" height="15.9688" style="stroke: #000000; stroke-width: 1.0; stroke-dasharray: 2.0,2.0;" width="98" x="443.5" y="40"/><text fill="#000000" font-family="sans-serif" font-size="12" font-style="italic" lengthAdjust="spacingAndGlyphs" textLength="88" x="448.5" y="52.1387">Catch all class</text><!--class Gnome::Gtk3::Buildable--><rect fill="#FEFECE" filter="url(#f1rzl3ykvf0bl0)" height="32" id="Gnome::Gtk3::Buildable" style="stroke: #A80036; stroke-width: 1.5;" width="150" x="230" y="319"/><ellipse cx="245" cy="335" fill="#80FFFF" rx="11" ry="11" style="stroke: #A80036; stroke-width: 1.0;"/><path d="M246.2031,335.1406 Q246.5625,335.2188 246.8281,335.5 Q247.1094,335.7656 247.5,336.5469 L249.7344,341 L247.0469,341 L245.5469,337.875 Q245.4844,337.7344 245.375,337.5 Q244.7188,336.1094 243.8281,336.1094 L243.0469,336.1094 L243.0469,341 L240.6094,341 L240.6094,328.6094 L244.1406,328.6094 Q246.5313,328.6094 247.5625,329.4531 Q248.6094,330.2969 248.6094,332.2031 Q248.6094,333.4844 247.9844,334.25 Q247.375,335 246.2031,335.1406 Z M243.0469,330.6719 L243.0469,334.0469 L244.2031,334.0469 Q245.2188,334.0469 245.6406,333.6563 Q246.0781,333.25 246.0781,332.3438 Q246.0781,331.4531 245.6406,331.0625 Q245.2188,330.6719 244.2031,330.6719 L243.0469,330.6719 Z "/><text fill="#000000" font-family="sans-serif" font-size="12" lengthAdjust="spacingAndGlyphs" textLength="57" x="259" y="339.1807">Buildable</text><rect fill="#FFFFFF" height="15.9688" style="stroke: #000000; stroke-width: 1.0; stroke-dasharray: 2.0,2.0;" width="59" x="324" y="316"/><text fill="#000000" font-family="sans-serif" font-size="12" font-style="italic" lengthAdjust="spacingAndGlyphs" textLength="57" x="325" y="328.1387">Interface</text><!--class Gnome::Gtk3::Widget--><rect fill="#FEFECE" filter="url(#f1rzl3ykvf0bl0)" height="32" id="Gnome::Gtk3::Widget" style="stroke: #A80036; stroke-width: 1.5;" width="75" x="350.5" y="411"/><ellipse cx="365.5" cy="427" fill="#80FFFF" rx="11" ry="11" style="stroke: #A80036; stroke-width: 1.0;"/><path d="M368.4688,432.6406 Q367.8906,432.9375 367.25,433.0781 Q366.6094,433.2344 365.9063,433.2344 Q363.4063,433.2344 362.0781,431.5938 Q360.7656,429.9375 360.7656,426.8125 Q360.7656,423.6875 362.0781,422.0313 Q363.4063,420.375 365.9063,420.375 Q366.6094,420.375 367.25,420.5313 Q367.9063,420.6875 368.4688,420.9844 L368.4688,423.7031 Q367.8438,423.125 367.25,422.8594 Q366.6563,422.5781 366.0313,422.5781 Q364.6875,422.5781 364,423.6563 Q363.3125,424.7188 363.3125,426.8125 Q363.3125,428.9063 364,429.9844 Q364.6875,431.0469 366.0313,431.0469 Q366.6563,431.0469 367.25,430.7813 Q367.8438,430.5 368.4688,429.9219 L368.4688,432.6406 Z "/><text fill="#000000" font-family="sans-serif" font-size="12" lengthAdjust="spacingAndGlyphs" textLength="43" x="379.5" y="431.1807">Widget</text><!--class Gnome::Gtk3::Window--><rect fill="#FEFECE" filter="url(#f1rzl3ykvf0bl0)" height="32" id="Gnome::Gtk3::Window" style="stroke: #A80036; stroke-width: 1.5;" width="79" x="22.5" y="411"/><ellipse cx="37.5" cy="427" fill="#80FFFF" rx="11" ry="11" style="stroke: #A80036; stroke-width: 1.0;"/><path d="M40.4688,432.6406 Q39.8906,432.9375 39.25,433.0781 Q38.6094,433.2344 37.9063,433.2344 Q35.4063,433.2344 34.0781,431.5938 Q32.7656,429.9375 32.7656,426.8125 Q32.7656,423.6875 34.0781,422.0313 Q35.4063,420.375 37.9063,420.375 Q38.6094,420.375 39.25,420.5313 Q39.9063,420.6875 40.4688,420.9844 L40.4688,423.7031 Q39.8438,423.125 39.25,422.8594 Q38.6563,422.5781 38.0313,422.5781 Q36.6875,422.5781 36,423.6563 Q35.3125,424.7188 35.3125,426.8125 Q35.3125,428.9063 36,429.9844 Q36.6875,431.0469 38.0313,431.0469 Q38.6563,431.0469 39.25,430.7813 Q39.8438,430.5 40.4688,429.9219 L40.4688,432.6406 Z "/><text fill="#000000" font-family="sans-serif" font-size="12" lengthAdjust="spacingAndGlyphs" textLength="47" x="51.5" y="431.1807">Window</text><!--class Gnome::Gtk3::Bin--><rect fill="#FEFECE" filter="url(#f1rzl3ykvf0bl0)" height="32" id="Gnome::Gtk3::Bin" style="stroke: #A80036; stroke-width: 1.5;" width="51" x="136.5" y="411"/><ellipse cx="151.5" cy="427" fill="#80FFFF" rx="11" ry="11" style="stroke: #A80036; stroke-width: 1.0;"/><path d="M154.4688,432.6406 Q153.8906,432.9375 153.25,433.0781 Q152.6094,433.2344 151.9063,433.2344 Q149.4063,433.2344 148.0781,431.5938 Q146.7656,429.9375 146.7656,426.8125 Q146.7656,423.6875 148.0781,422.0313 Q149.4063,420.375 151.9063,420.375 Q152.6094,420.375 153.25,420.5313 Q153.9063,420.6875 154.4688,420.9844 L154.4688,423.7031 Q153.8438,423.125 153.25,422.8594 Q152.6563,422.5781 152.0313,422.5781 Q150.6875,422.5781 150,423.6563 Q149.3125,424.7188 149.3125,426.8125 Q149.3125,428.9063 150,429.9844 Q150.6875,431.0469 152.0313,431.0469 Q152.6563,431.0469 153.25,430.7813 Q153.8438,430.5 154.4688,429.9219 L154.4688,432.6406 Z "/><text fill="#000000" font-family="sans-serif" font-size="12" lengthAdjust="spacingAndGlyphs" textLength="19" x="165.5" y="431.1807">Bin</text><!--class Gnome::Gtk3::Container--><rect fill="#FEFECE" filter="url(#f1rzl3ykvf0bl0)" height="32" id="Gnome::Gtk3::Container" style="stroke: #A80036; stroke-width: 1.5;" width="93" x="222.5" y="411"/><ellipse cx="237.5" cy="427" fill="#80FFFF" rx="11" ry="11" style="stroke: #A80036; stroke-width: 1.0;"/><path d="M240.4688,432.6406 Q239.8906,432.9375 239.25,433.0781 Q238.6094,433.2344 237.9063,433.2344 Q235.4063,433.2344 234.0781,431.5938 Q232.7656,429.9375 232.7656,426.8125 Q232.7656,423.6875 234.0781,422.0313 Q235.4063,420.375 237.9063,420.375 Q238.6094,420.375 239.25,420.5313 Q239.9063,420.6875 240.4688,420.9844 L240.4688,423.7031 Q239.8438,423.125 239.25,422.8594 Q238.6563,422.5781 238.0313,422.5781 Q236.6875,422.5781 236,423.6563 Q235.3125,424.7188 235.3125,426.8125 Q235.3125,428.9063 236,429.9844 Q236.6875,431.0469 238.0313,431.0469 Q238.6563,431.0469 239.25,430.7813 Q239.8438,430.5 240.4688,429.9219 L240.4688,432.6406 Z "/><text fill="#000000" font-family="sans-serif" font-size="12" lengthAdjust="spacingAndGlyphs" textLength="61" x="251.5" y="431.1807">Container</text><!--class Gnome::GObject::Object--><rect fill="#FEFECE" filter="url(#f1rzl3ykvf0bl0)" height="32" id="Gnome::GObject::Object" style="stroke: #A80036; stroke-width: 1.5;" width="72" x="368" y="135"/><ellipse cx="383" cy="151" fill="#80FFFF" rx="11" ry="11" style="stroke: #A80036; stroke-width: 1.0;"/><path d="M385.9688,156.6406 Q385.3906,156.9375 384.75,157.0781 Q384.1094,157.2344 383.4063,157.2344 Q380.9063,157.2344 379.5781,155.5938 Q378.2656,153.9375 378.2656,150.8125 Q378.2656,147.6875 379.5781,146.0313 Q380.9063,144.375 383.4063,144.375 Q384.1094,144.375 384.75,144.5313 Q385.4063,144.6875 385.9688,144.9844 L385.9688,147.7031 Q385.3438,147.125 384.75,146.8594 Q384.1563,146.5781 383.5313,146.5781 Q382.1875,146.5781 381.5,147.6563 Q380.8125,148.7188 380.8125,150.8125 Q380.8125,152.9063 381.5,153.9844 Q382.1875,155.0469 383.5313,155.0469 Q384.1563,155.0469 384.75,154.7813 Q385.3438,154.5 385.9688,153.9219 L385.9688,156.6406 Z "/><text fill="#000000" font-family="sans-serif" font-size="12" lengthAdjust="spacingAndGlyphs" textLength="40" x="397" y="155.1807">Object</text><!--class Gnome::GObject::InitialyUnowned--><rect fill="#FEFECE" filter="url(#f1rzl3ykvf0bl0)" height="32" id="Gnome::GObject::InitialyUnowned" style="stroke: #A80036; stroke-width: 1.5;" width="129" x="368.5" y="227"/><ellipse cx="383.5" cy="243" fill="#80FFFF" rx="11" ry="11" style="stroke: #A80036; stroke-width: 1.0;"/><path d="M386.4688,248.6406 Q385.8906,248.9375 385.25,249.0781 Q384.6094,249.2344 383.9063,249.2344 Q381.4063,249.2344 380.0781,247.5938 Q378.7656,245.9375 378.7656,242.8125 Q378.7656,239.6875 380.0781,238.0313 Q381.4063,236.375 383.9063,236.375 Q384.6094,236.375 385.25,236.5313 Q385.9063,236.6875 386.4688,236.9844 L386.4688,239.7031 Q385.8438,239.125 385.25,238.8594 Q384.6563,238.5781 384.0313,238.5781 Q382.6875,238.5781 382,239.6563 Q381.3125,240.7188 381.3125,242.8125 Q381.3125,244.9063 382,245.9844 Q382.6875,247.0469 384.0313,247.0469 Q384.6563,247.0469 385.25,246.7813 Q385.8438,246.5 386.4688,245.9219 L386.4688,248.6406 Z "/><text fill="#000000" font-family="sans-serif" font-size="12" lengthAdjust="spacingAndGlyphs" textLength="97" x="397.5" y="247.1807">InitialyUnowned</text><!--class Gnome::GObject::Signal--><rect fill="#FEFECE" filter="url(#f1rzl3ykvf0bl0)" height="32" id="Gnome::GObject::Signal" style="stroke: #A80036; stroke-width: 1.5;" width="70" x="475" y="135"/><ellipse cx="490" cy="151" fill="#80FFFF" rx="11" ry="11" style="stroke: #A80036; stroke-width: 1.0;"/><path d="M492.9688,156.6406 Q492.3906,156.9375 491.75,157.0781 Q491.1094,157.2344 490.4063,157.2344 Q487.9063,157.2344 486.5781,155.5938 Q485.2656,153.9375 485.2656,150.8125 Q485.2656,147.6875 486.5781,146.0313 Q487.9063,144.375 490.4063,144.375 Q491.1094,144.375 491.75,144.5313 Q492.4063,144.6875 492.9688,144.9844 L492.9688,147.7031 Q492.3438,147.125 491.75,146.8594 Q491.1563,146.5781 490.5313,146.5781 Q489.1875,146.5781 488.5,147.6563 Q487.8125,148.7188 487.8125,150.8125 Q487.8125,152.9063 488.5,153.9844 Q489.1875,155.0469 490.5313,155.0469 Q491.1563,155.0469 491.75,154.7813 Q492.3438,154.5 492.9688,153.9219 L492.9688,156.6406 Z "/><text fill="#000000" font-family="sans-serif" font-size="12" lengthAdjust="spacingAndGlyphs" textLength="38" x="504" y="155.1807">Signal</text><!--link Gnome::N::TopLevelClassSupport to Gnome::GObject::Object--><path d="M404,95.4048 C404,109.0788 404,123.9368 404,134.8498 " fill="none" id="Gnome::N::TopLevelClassSupport-Gnome::GObject::Object" style="stroke: #A80036; stroke-width: 1.0;"/><polygon fill="none" points="397.0001,95.0252,404,75.0252,411.0001,95.0251,397.0001,95.0252" style="stroke: #A80036; stroke-width: 1.0;"/><!--link Gnome::GObject::Object to Gnome::GObject::InitialyUnowned--><path d="M415.1645,186.4184 C419.5593,200.3605 424.3863,215.6738 427.9092,226.8498 " fill="none" id="Gnome::GObject::Object-Gnome::GObject::InitialyUnowned" style="stroke: #A80036; stroke-width: 1.0;"/><polygon fill="none" points="408.388,188.2044,409.0514,167.0252,421.7404,183.9955,408.388,188.2044" style="stroke: #A80036; stroke-width: 1.0;"/><!--link Gnome::GObject::Object to Gnome::GObject::Signal--><path d="M453.0415,151 C455.8666,151 458.6918,151 461.5169,151 " fill="none" id="Gnome::GObject::Object-Gnome::GObject::Signal" style="stroke: #A80036; stroke-width: 1.0;"/><polygon fill="#A80036" points="474.7384,151,465.7384,147,469.7384,151,465.7384,155,474.7384,151" style="stroke: #A80036; stroke-width: 1.0;"/><line style="stroke: #A80036; stroke-width: 1.0;" x1="469.7384" x2="461.7383" y1="151" y2="150.9999"/><polygon fill="#A80036" points="440.0234,151,446.0234,155,452.0234,151,446.0234,147,440.0234,151" style="stroke: #A80036; stroke-width: 1.0;"/><!--link Gnome::GObject::InitialyUnowned to Gnome::Gtk3::Widget--><path d="M424.2672,278.7074 C414.5029,318.6327 399.1194,381.534 391.9377,410.8991 " fill="none" id="Gnome::GObject::InitialyUnowned-Gnome::Gtk3::Widget" style="stroke: #A80036; stroke-width: 1.0;"/><polygon fill="none" points="417.5343,276.7714,429.0853,259.0069,431.1335,280.0973,417.5343,276.7714" style="stroke: #A80036; stroke-width: 1.0;"/><!--link Gnome::Gtk3::Buildable to Gnome::Gtk3::Widget--><path d="M333.0057,366.0424 C346.5643,381.0713 362.2795,398.4905 373.4297,410.8498 " fill="none" id="Gnome::Gtk3::Buildable-Gnome::Gtk3::Widget" style="stroke: #A80036; stroke-width: 1.0; stroke-dasharray: 7.0,7.0;"/><polygon fill="none" points="327.6572,370.564,319.4575,351.0252,338.0521,361.186,327.6572,370.564" style="stroke: #A80036; stroke-width: 1.0;"/><!--link Gnome::Gtk3::Window to Gnome::Gtk3::Bin--><path d="M101.8438,427 C106.5789,427 111.3141,427 116.0493,427 " fill="none" id="Gnome::Gtk3::Window-Gnome::Gtk3::Bin" style="stroke: #A80036; stroke-width: 1.0;"/><polygon fill="none" points="116.1516,419.9999,136.1516,427,116.1516,433.9999,116.1516,419.9999" style="stroke: #A80036; stroke-width: 1.0;"/><!--link Gnome::Gtk3::Bin to Gnome::Gtk3::Container--><path d="M187.9141,427 C192.6792,427 197.4444,427 202.2095,427 " fill="none" id="Gnome::Gtk3::Bin-Gnome::Gtk3::Container" style="stroke: #A80036; stroke-width: 1.0;"/><polygon fill="none" points="202.439,419.9999,222.4389,427,202.4389,433.9999,202.439,419.9999" style="stroke: #A80036; stroke-width: 1.0;"/><!--link Gnome::Gtk3::Container to Gnome::Gtk3::Widget--><path d="M315.9492,427 C320.6884,427 325.4276,427 330.1668,427 " fill="none" id="Gnome::Gtk3::Container-Gnome::Gtk3::Widget" style="stroke: #A80036; stroke-width: 1.0;"/><polygon fill="none" points="330.286,419.9999,350.2859,427,330.2859,433.9999,330.286,419.9999" style="stroke: #A80036; stroke-width: 1.0;"/><!--
@startuml
skinparam packageStyle rectangle
skinparam stereotypeCBackgroundColor #80ffff
set namespaceSeparator ::
hide members

class Gnome::N::TopLevelClassSupport < Catch all class >


Interface Gnome::Gtk3::Buildable <Interface>
class Gnome::Gtk3::Buildable <<(R,#80ffff)>>

Gnome::N::TopLevelClassSupport <|- - Gnome::GObject::Object
Gnome::GObject::Object <|- - Gnome::GObject::InitialyUnowned
Gnome::GObject::Object *-> Gnome::GObject::Signal

Gnome::GObject::InitialyUnowned <|- - - Gnome::Gtk3::Widget

class Gnome::Gtk3::Widget implements Gnome::Gtk3::Buildable
Gnome::Gtk3::Window -|> Gnome::Gtk3::Bin
Gnome::Gtk3::Bin -|> Gnome::Gtk3::Container
Gnome::Gtk3::Container -|> Gnome::Gtk3::Widget




@enduml

PlantUML version 1.2019.01(Sat Feb 09 16:32:04 CET 2019)
(LGPL source distribution)
Java Runtime: OpenJDK Runtime Environment
JVM: OpenJDK 64-Bit Server VM
Java Version: 1.8.0_265-b01
Operating System: Linux
OS Version: 5.8.8-100.fc31.x86_64
Default Encoding: UTF-8
Language: en
Country: null
--></g></svg>