<?xml version="1.0" encoding="UTF-8" standalone="no"?><svg xmlns="http://www.w3.org/2000/svg" xmlns:xlink="http://www.w3.org/1999/xlink" contentScriptType="application/ecmascript" contentStyleType="text/css" height="554px" preserveAspectRatio="none" style="width:706px;height:554px;" version="1.1" viewBox="0 0 706 554" width="706px" zoomAndPan="magnify"><defs><filter height="300%" id="fl0fpt4djxkr0" width="300%" x="-1" y="-1"><feGaussianBlur result="blurOut" stdDeviation="2.0"/><feColorMatrix in="blurOut" result="blurOut2" type="matrix" values="0 0 0 0 0 0 0 0 0 0 0 0 0 0 0 0 0 0 .4 0"/><feOffset dx="4.0" dy="4.0" in="blurOut2" result="blurOut3"/><feBlend in="SourceGraphic" in2="blurOut3" mode="normal"/></filter></defs><g><!--cluster Gnome::N--><rect fill="#FFFFFF" filter="url(#fl0fpt4djxkr0)" height="67" style="stroke: #000000; stroke-width: 1.5;" width="286" x="409" y="16"/><text fill="#000000" font-family="sans-serif" font-size="14" font-weight="bold" lengthAdjust="spacingAndGlyphs" textLength="79" x="512.5" y="30.9951">Gnome::N</text><!--cluster Gnome::GObject--><rect fill="#FFFFFF" filter="url(#fl0fpt4djxkr0)" height="251" style="stroke: #000000; stroke-width: 1.5;" width="148" x="359" y="108"/><text fill="#000000" font-family="sans-serif" font-size="14" font-weight="bold" lengthAdjust="spacingAndGlyphs" textLength="131" x="367.5" y="122.9951">Gnome::GObject</text><!--cluster Gnome::Gtk3--><rect fill="#FFFFFF" filter="url(#fl0fpt4djxkr0)" height="159" style="stroke: #000000; stroke-width: 1.5;" width="420" x="14" y="384"/><text fill="#000000" font-family="sans-serif" font-size="14" font-weight="bold" lengthAdjust="spacingAndGlyphs" textLength="105" x="171.5" y="398.9951">Gnome::Gtk3</text><!--class Gnome::N::TopLevelClassSupport--><rect fill="#FEFECE" filter="url(#fl0fpt4djxkr0)" height="32" id="Gnome::N::TopLevelClassSupport" style="stroke: #A80036; stroke-width: 1.5;" width="269" x="417.5" y="43"/><ellipse cx="432.5" cy="59" fill="#80FFFF" rx="11" ry="11" style="stroke: #A80036; stroke-width: 1.0;"/><path d="M435.4688,64.6406 Q434.8906,64.9375 434.25,65.0781 Q433.6094,65.2344 432.9063,65.2344 Q430.4063,65.2344 429.0781,63.5938 Q427.7656,61.9375 427.7656,58.8125 Q427.7656,55.6875 429.0781,54.0313 Q430.4063,52.375 432.9063,52.375 Q433.6094,52.375 434.25,52.5313 Q434.9063,52.6875 435.4688,52.9844 L435.4688,55.7031 Q434.8438,55.125 434.25,54.8594 Q433.6563,54.5781 433.0313,54.5781 Q431.6875,54.5781 431,55.6563 Q430.3125,56.7188 430.3125,58.8125 Q430.3125,60.9063 431,61.9844 Q431.6875,63.0469 433.0313,63.0469 Q433.6563,63.0469 434.25,62.7813 Q434.8438,62.5 435.4688,61.9219 L435.4688,64.6406 Z "/><text fill="#000000" font-family="sans-serif" font-size="12" lengthAdjust="spacingAndGlyphs" textLength="137" x="446.5" y="63.1807">TopLevelClassSupport</text><rect fill="#FFFFFF" height="15.9688" style="stroke: #000000; stroke-width: 1.0; stroke-dasharray: 2.0,2.0;" width="98" x="591.5" y="40"/><text fill="#000000" font-family="sans-serif" font-size="12" font-style="italic" lengthAdjust="spacingAndGlyphs" textLength="88" x="596.5" y="52.1387">Catch all class</text><!--class Gnome::GObject::Signal--><rect fill="#FEFECE" filter="url(#fl0fpt4djxkr0)" height="32" id="Gnome::GObject::Signal" style="stroke: #A80036; stroke-width: 1.5;" width="131" x="367.5" y="135"/><ellipse cx="382.5" cy="151" fill="#80FFFF" rx="11" ry="11" style="stroke: #A80036; stroke-width: 1.0;"/><path d="M383.7031,151.1406 Q384.0625,151.2188 384.3281,151.5 Q384.6094,151.7656 385,152.5469 L387.2344,157 L384.5469,157 L383.0469,153.875 Q382.9844,153.7344 382.875,153.5 Q382.2188,152.1094 381.3281,152.1094 L380.5469,152.1094 L380.5469,157 L378.1094,157 L378.1094,144.6094 L381.6406,144.6094 Q384.0313,144.6094 385.0625,145.4531 Q386.1094,146.2969 386.1094,148.2031 Q386.1094,149.4844 385.4844,150.25 Q384.875,151 383.7031,151.1406 Z M380.5469,146.6719 L380.5469,150.0469 L381.7031,150.0469 Q382.7188,150.0469 383.1406,149.6563 Q383.5781,149.25 383.5781,148.3438 Q383.5781,147.4531 383.1406,147.0625 Q382.7188,146.6719 381.7031,146.6719 L380.5469,146.6719 Z "/><text fill="#000000" font-family="sans-serif" font-size="12" lengthAdjust="spacingAndGlyphs" textLength="38" x="396.5" y="155.1807">Signal</text><rect fill="#FFFFFF" height="15.9688" style="stroke: #000000; stroke-width: 1.0; stroke-dasharray: 2.0,2.0;" width="59" x="442.5" y="132"/><text fill="#000000" font-family="sans-serif" font-size="12" font-style="italic" lengthAdjust="spacingAndGlyphs" textLength="57" x="443.5" y="144.1387">Interface</text><!--class Gnome::GObject::Object--><rect fill="#FEFECE" filter="url(#fl0fpt4djxkr0)" height="32" id="Gnome::GObject::Object" style="stroke: #A80036; stroke-width: 1.5;" width="72" x="397" y="227"/><ellipse cx="412" cy="243" fill="#80FFFF" rx="11" ry="11" style="stroke: #A80036; stroke-width: 1.0;"/><path d="M414.9688,248.6406 Q414.3906,248.9375 413.75,249.0781 Q413.1094,249.2344 412.4063,249.2344 Q409.9063,249.2344 408.5781,247.5938 Q407.2656,245.9375 407.2656,242.8125 Q407.2656,239.6875 408.5781,238.0313 Q409.9063,236.375 412.4063,236.375 Q413.1094,236.375 413.75,236.5313 Q414.4063,236.6875 414.9688,236.9844 L414.9688,239.7031 Q414.3438,239.125 413.75,238.8594 Q413.1563,238.5781 412.5313,238.5781 Q411.1875,238.5781 410.5,239.6563 Q409.8125,240.7188 409.8125,242.8125 Q409.8125,244.9063 410.5,245.9844 Q411.1875,247.0469 412.5313,247.0469 Q413.1563,247.0469 413.75,246.7813 Q414.3438,246.5 414.9688,245.9219 L414.9688,248.6406 Z "/><text fill="#000000" font-family="sans-serif" font-size="12" lengthAdjust="spacingAndGlyphs" textLength="40" x="426" y="247.1807">Object</text><!--class Gnome::GObject::InitialyUnowned--><rect fill="#FEFECE" filter="url(#fl0fpt4djxkr0)" height="32" id="Gnome::GObject::InitialyUnowned" style="stroke: #A80036; stroke-width: 1.5;" width="129" x="368.5" y="319"/><ellipse cx="383.5" cy="335" fill="#80FFFF" rx="11" ry="11" style="stroke: #A80036; stroke-width: 1.0;"/><path d="M386.4688,340.6406 Q385.8906,340.9375 385.25,341.0781 Q384.6094,341.2344 383.9063,341.2344 Q381.4063,341.2344 380.0781,339.5938 Q378.7656,337.9375 378.7656,334.8125 Q378.7656,331.6875 380.0781,330.0313 Q381.4063,328.375 383.9063,328.375 Q384.6094,328.375 385.25,328.5313 Q385.9063,328.6875 386.4688,328.9844 L386.4688,331.7031 Q385.8438,331.125 385.25,330.8594 Q384.6563,330.5781 384.0313,330.5781 Q382.6875,330.5781 382,331.6563 Q381.3125,332.7188 381.3125,334.8125 Q381.3125,336.9063 382,337.9844 Q382.6875,339.0469 384.0313,339.0469 Q384.6563,339.0469 385.25,338.7813 Q385.8438,338.5 386.4688,337.9219 L386.4688,340.6406 Z "/><text fill="#000000" font-family="sans-serif" font-size="12" lengthAdjust="spacingAndGlyphs" textLength="97" x="397.5" y="339.1807">InitialyUnowned</text><!--class Gnome::Gtk3::Buildable--><rect fill="#FEFECE" filter="url(#fl0fpt4djxkr0)" height="32" id="Gnome::Gtk3::Buildable" style="stroke: #A80036; stroke-width: 1.5;" width="150" x="230" y="411"/><ellipse cx="245" cy="427" fill="#80FFFF" rx="11" ry="11" style="stroke: #A80036; stroke-width: 1.0;"/><path d="M246.2031,427.1406 Q246.5625,427.2188 246.8281,427.5 Q247.1094,427.7656 247.5,428.5469 L249.7344,433 L247.0469,433 L245.5469,429.875 Q245.4844,429.7344 245.375,429.5 Q244.7188,428.1094 243.8281,428.1094 L243.0469,428.1094 L243.0469,433 L240.6094,433 L240.6094,420.6094 L244.1406,420.6094 Q246.5313,420.6094 247.5625,421.4531 Q248.6094,422.2969 248.6094,424.2031 Q248.6094,425.4844 247.9844,426.25 Q247.375,427 246.2031,427.1406 Z M243.0469,422.6719 L243.0469,426.0469 L244.2031,426.0469 Q245.2188,426.0469 245.6406,425.6563 Q246.0781,425.25 246.0781,424.3438 Q246.0781,423.4531 245.6406,423.0625 Q245.2188,422.6719 244.2031,422.6719 L243.0469,422.6719 Z "/><text fill="#000000" font-family="sans-serif" font-size="12" lengthAdjust="spacingAndGlyphs" textLength="57" x="259" y="431.1807">Buildable</text><rect fill="#FFFFFF" height="15.9688" style="stroke: #000000; stroke-width: 1.0; stroke-dasharray: 2.0,2.0;" width="59" x="324" y="408"/><text fill="#000000" font-family="sans-serif" font-size="12" font-style="italic" lengthAdjust="spacingAndGlyphs" textLength="57" x="325" y="420.1387">Interface</text><!--class Gnome::Gtk3::Widget--><rect fill="#FEFECE" filter="url(#fl0fpt4djxkr0)" height="32" id="Gnome::Gtk3::Widget" style="stroke: #A80036; stroke-width: 1.5;" width="75" x="350.5" y="503"/><ellipse cx="365.5" cy="519" fill="#80FFFF" rx="11" ry="11" style="stroke: #A80036; stroke-width: 1.0;"/><path d="M368.4688,524.6406 Q367.8906,524.9375 367.25,525.0781 Q366.6094,525.2344 365.9063,525.2344 Q363.4063,525.2344 362.0781,523.5938 Q360.7656,521.9375 360.7656,518.8125 Q360.7656,515.6875 362.0781,514.0313 Q363.4063,512.375 365.9063,512.375 Q366.6094,512.375 367.25,512.5313 Q367.9063,512.6875 368.4688,512.9844 L368.4688,515.7031 Q367.8438,515.125 367.25,514.8594 Q366.6563,514.5781 366.0313,514.5781 Q364.6875,514.5781 364,515.6563 Q363.3125,516.7188 363.3125,518.8125 Q363.3125,520.9063 364,521.9844 Q364.6875,523.0469 366.0313,523.0469 Q366.6563,523.0469 367.25,522.7813 Q367.8438,522.5 368.4688,521.9219 L368.4688,524.6406 Z "/><text fill="#000000" font-family="sans-serif" font-size="12" lengthAdjust="spacingAndGlyphs" textLength="43" x="379.5" y="523.1807">Widget</text><!--class Gnome::Gtk3::Window--><rect fill="#FEFECE" filter="url(#fl0fpt4djxkr0)" height="32" id="Gnome::Gtk3::Window" style="stroke: #A80036; stroke-width: 1.5;" width="79" x="22.5" y="503"/><ellipse cx="37.5" cy="519" fill="#80FFFF" rx="11" ry="11" style="stroke: #A80036; stroke-width: 1.0;"/><path d="M40.4688,524.6406 Q39.8906,524.9375 39.25,525.0781 Q38.6094,525.2344 37.9063,525.2344 Q35.4063,525.2344 34.0781,523.5938 Q32.7656,521.9375 32.7656,518.8125 Q32.7656,515.6875 34.0781,514.0313 Q35.4063,512.375 37.9063,512.375 Q38.6094,512.375 39.25,512.5313 Q39.9063,512.6875 40.4688,512.9844 L40.4688,515.7031 Q39.8438,515.125 39.25,514.8594 Q38.6563,514.5781 38.0313,514.5781 Q36.6875,514.5781 36,515.6563 Q35.3125,516.7188 35.3125,518.8125 Q35.3125,520.9063 36,521.9844 Q36.6875,523.0469 38.0313,523.0469 Q38.6563,523.0469 39.25,522.7813 Q39.8438,522.5 40.4688,521.9219 L40.4688,524.6406 Z "/><text fill="#000000" font-family="sans-serif" font-size="12" lengthAdjust="spacingAndGlyphs" textLength="47" x="51.5" y="523.1807">Window</text><!--class Gnome::Gtk3::Bin--><rect fill="#FEFECE" filter="url(#fl0fpt4djxkr0)" height="32" id="Gnome::Gtk3::Bin" style="stroke: #A80036; stroke-width: 1.5;" width="51" x="136.5" y="503"/><ellipse cx="151.5" cy="519" fill="#80FFFF" rx="11" ry="11" style="stroke: #A80036; stroke-width: 1.0;"/><path d="M154.4688,524.6406 Q153.8906,524.9375 153.25,525.0781 Q152.6094,525.2344 151.9063,525.2344 Q149.4063,525.2344 148.0781,523.5938 Q146.7656,521.9375 146.7656,518.8125 Q146.7656,515.6875 148.0781,514.0313 Q149.4063,512.375 151.9063,512.375 Q152.6094,512.375 153.25,512.5313 Q153.9063,512.6875 154.4688,512.9844 L154.4688,515.7031 Q153.8438,515.125 153.25,514.8594 Q152.6563,514.5781 152.0313,514.5781 Q150.6875,514.5781 150,515.6563 Q149.3125,516.7188 149.3125,518.8125 Q149.3125,520.9063 150,521.9844 Q150.6875,523.0469 152.0313,523.0469 Q152.6563,523.0469 153.25,522.7813 Q153.8438,522.5 154.4688,521.9219 L154.4688,524.6406 Z "/><text fill="#000000" font-family="sans-serif" font-size="12" lengthAdjust="spacingAndGlyphs" textLength="19" x="165.5" y="523.1807">Bin</text><!--class Gnome::Gtk3::Container--><rect fill="#FEFECE" filter="url(#fl0fpt4djxkr0)" height="32" id="Gnome::Gtk3::Container" style="stroke: #A80036; stroke-width: 1.5;" width="93" x="222.5" y="503"/><ellipse cx="237.5" cy="519" fill="#80FFFF" rx="11" ry="11" style="stroke: #A80036; stroke-width: 1.0;"/><path d="M240.4688,524.6406 Q239.8906,524.9375 239.25,525.0781 Q238.6094,525.2344 237.9063,525.2344 Q235.4063,525.2344 234.0781,523.5938 Q232.7656,521.9375 232.7656,518.8125 Q232.7656,515.6875 234.0781,514.0313 Q235.4063,512.375 237.9063,512.375 Q238.6094,512.375 239.25,512.5313 Q239.9063,512.6875 240.4688,512.9844 L240.4688,515.7031 Q239.8438,515.125 239.25,514.8594 Q238.6563,514.5781 238.0313,514.5781 Q236.6875,514.5781 236,515.6563 Q235.3125,516.7188 235.3125,518.8125 Q235.3125,520.9063 236,521.9844 Q236.6875,523.0469 238.0313,523.0469 Q238.6563,523.0469 239.25,522.7813 Q239.8438,522.5 240.4688,521.9219 L240.4688,524.6406 Z "/><text fill="#000000" font-family="sans-serif" font-size="12" lengthAdjust="spacingAndGlyphs" textLength="61" x="251.5" y="523.1807">Container</text><!--link Gnome::N::TopLevelClassSupport to Gnome::GObject::Object--><path d="M544.9322,94.6906 C539.4316,116.7659 530.2812,144.9903 516,167 C500.2604,191.2573 474.9788,212.8684 456.4487,226.7856 " fill="none" id="Gnome::N::TopLevelClassSupport-Gnome::GObject::Object" style="stroke: #A80036; stroke-width: 1.0;"/><polygon fill="none" points="538.1074,93.1333,549.271,75.1229,551.7754,96.164,538.1074,93.1333" style="stroke: #A80036; stroke-width: 1.0;"/><!--link Gnome::GObject::Object to Gnome::GObject::InitialyUnowned--><path d="M433,279.4048 C433,293.0788 433,307.9368 433,318.8498 " fill="none" id="Gnome::GObject::Object-Gnome::GObject::InitialyUnowned" style="stroke: #A80036; stroke-width: 1.0;"/><polygon fill="none" points="426.0001,279.0252,433,259.0252,440.0001,279.0251,426.0001,279.0252" style="stroke: #A80036; stroke-width: 1.0;"/><!--link Gnome::GObject::Signal to Gnome::GObject::Object--><path d="M433,187.4048 C433,201.0788 433,215.9368 433,226.8498 " fill="none" id="Gnome::GObject::Signal-Gnome::GObject::Object" style="stroke: #A80036; stroke-width: 1.0; stroke-dasharray: 7.0,7.0;"/><polygon fill="none" points="426.0001,187.0252,433,167.0252,440.0001,187.0251,426.0001,187.0252" style="stroke: #A80036; stroke-width: 1.0;"/><!--link Gnome::GObject::InitialyUnowned to Gnome::Gtk3::Widget--><path d="M424.2672,370.7074 C414.5029,410.6327 399.1194,473.534 391.9377,502.8991 " fill="none" id="Gnome::GObject::InitialyUnowned-Gnome::Gtk3::Widget" style="stroke: #A80036; stroke-width: 1.0;"/><polygon fill="none" points="417.5343,368.7714,429.0853,351.0069,431.1335,372.0973,417.5343,368.7714" style="stroke: #A80036; stroke-width: 1.0;"/><!--link Gnome::Gtk3::Buildable to Gnome::Gtk3::Widget--><path d="M333.0057,458.0424 C346.5643,473.0713 362.2795,490.4905 373.4297,502.8498 " fill="none" id="Gnome::Gtk3::Buildable-Gnome::Gtk3::Widget" style="stroke: #A80036; stroke-width: 1.0; stroke-dasharray: 7.0,7.0;"/><polygon fill="none" points="327.6572,462.564,319.4575,443.0252,338.0521,453.186,327.6572,462.564" style="stroke: #A80036; stroke-width: 1.0;"/><!--link Gnome::Gtk3::Window to Gnome::Gtk3::Bin--><path d="M101.8438,519 C106.5789,519 111.3141,519 116.0493,519 " fill="none" id="Gnome::Gtk3::Window-Gnome::Gtk3::Bin" style="stroke: #A80036; stroke-width: 1.0;"/><polygon fill="none" points="116.1516,511.9999,136.1516,519,116.1516,525.9999,116.1516,511.9999" style="stroke: #A80036; stroke-width: 1.0;"/><!--link Gnome::Gtk3::Bin to Gnome::Gtk3::Container--><path d="M187.9141,519 C192.6792,519 197.4444,519 202.2095,519 " fill="none" id="Gnome::Gtk3::Bin-Gnome::Gtk3::Container" style="stroke: #A80036; stroke-width: 1.0;"/><polygon fill="none" points="202.439,511.9999,222.4389,519,202.4389,525.9999,202.439,511.9999" style="stroke: #A80036; stroke-width: 1.0;"/><!--link Gnome::Gtk3::Container to Gnome::Gtk3::Widget--><path d="M315.9492,519 C320.6884,519 325.4276,519 330.1668,519 " fill="none" id="Gnome::Gtk3::Container-Gnome::Gtk3::Widget" style="stroke: #A80036; stroke-width: 1.0;"/><polygon fill="none" points="330.286,511.9999,350.2859,519,330.2859,525.9999,330.286,511.9999" style="stroke: #A80036; stroke-width: 1.0;"/><!--
@startuml
skinparam packageStyle rectangle
skinparam stereotypeCBackgroundColor #80ffff
set namespaceSeparator ::
hide members

class Gnome::N::TopLevelClassSupport < Catch all class >

Interface Gnome::GObject::Signal <Interface>
class Gnome::GObject::Signal <<(R,#80ffff)>>



Interface Gnome::Gtk3::Buildable <Interface>
class Gnome::Gtk3::Buildable <<(R,#80ffff)>>

Gnome::N::TopLevelClassSupport <|- - - Gnome::GObject::Object
Gnome::GObject::Object <|- - Gnome::GObject::InitialyUnowned
Gnome::GObject::Signal <|.. Gnome::GObject::Object

Gnome::GObject::InitialyUnowned <|- - - Gnome::Gtk3::Widget

class Gnome::Gtk3::Widget implements Gnome::Gtk3::Buildable
Gnome::Gtk3::Window -|> Gnome::Gtk3::Bin
Gnome::Gtk3::Bin -|> Gnome::Gtk3::Container
Gnome::Gtk3::Container -|> Gnome::Gtk3::Widget




@enduml

PlantUML version 1.2019.01(Sat Feb 09 16:32:04 CET 2019)
(LGPL source distribution)
Java Runtime: OpenJDK Runtime Environment
JVM: OpenJDK 64-Bit Server VM
Java Version: 1.8.0_265-b01
Operating System: Linux
OS Version: 5.8.8-100.fc31.x86_64
Default Encoding: UTF-8
Language: en
Country: null
--></g></svg>