<?xml version="1.0" encoding="UTF-8" standalone="no"?><svg xmlns="http://www.w3.org/2000/svg" xmlns:xlink="http://www.w3.org/1999/xlink" contentScriptType="application/ecmascript" contentStyleType="text/css" height="561px" preserveAspectRatio="none" style="width:704px;height:561px;" version="1.1" viewBox="0 0 704 561" width="704px" zoomAndPan="magnify"><defs><filter height="300%" id="f2ue2o315v5jx" width="300%" x="-1" y="-1"><feGaussianBlur result="blurOut" stdDeviation="2.0"/><feColorMatrix in="blurOut" result="blurOut2" type="matrix" values="0 0 0 0 0 0 0 0 0 0 0 0 0 0 0 0 0 0 .4 0"/><feOffset dx="4.0" dy="4.0" in="blurOut2" result="blurOut3"/><feBlend in="SourceGraphic" in2="blurOut3" mode="normal"/></filter></defs><g><!--MD5=[b969295f0ec9b4fa482091c3e26049be]
cluster Gnome::N--><rect fill="#FFFFFF" filter="url(#f2ue2o315v5jx)" height="83" style="stroke: #000000; stroke-width: 1.5;" width="302" x="116" y="7"/><text fill="#000000" font-family="sans-serif" font-size="14" font-weight="bold" lengthAdjust="spacingAndGlyphs" textLength="79" x="227.5" y="21.9951">Gnome::N</text><!--MD5=[2fb3f9b624b0544b9841d5da78ec0508]
cluster Gnome::GObject--><rect fill="#FFFFFF" filter="url(#f2ue2o315v5jx)" height="83" style="stroke: #000000; stroke-width: 1.5;" width="271" x="48" y="114"/><text fill="#000000" font-family="sans-serif" font-size="14" font-weight="bold" lengthAdjust="spacingAndGlyphs" textLength="131" x="118" y="128.9951">Gnome::GObject</text><!--MD5=[7d67f77911969026863717fbb204e273]
cluster Gnome::Gtk3--><rect fill="#FFFFFF" filter="url(#f2ue2o315v5jx)" height="175" style="stroke: #000000; stroke-width: 1.5;" width="551" x="141" y="374"/><text fill="#000000" font-family="sans-serif" font-size="14" font-weight="bold" lengthAdjust="spacingAndGlyphs" textLength="105" x="364" y="388.9951">Gnome::Gtk3</text><!--MD5=[1121a717c59c319a293e5a9c98dee73e]
cluster Gnome::Gio--><rect fill="#FFFFFF" filter="url(#f2ue2o315v5jx)" height="83" style="stroke: #000000; stroke-width: 1.5;" width="465" x="7" y="267"/><text fill="#000000" font-family="sans-serif" font-size="14" font-weight="bold" lengthAdjust="spacingAndGlyphs" textLength="94" x="192.5" y="281.9951">Gnome::Gio</text><!--MD5=[0b8e281ccd00c72019a31d78e9f95b5d]
class Gnome::N::TopLevelClassSupport--><rect codeLine="9" fill="#FEFECE" filter="url(#f2ue2o315v5jx)" height="32" id="Gnome::N::TopLevelClassSupport" style="stroke: #A80036; stroke-width: 1.5;" width="269" x="132.5" y="42"/><ellipse cx="147.5" cy="58" fill="#80FFFF" rx="11" ry="11" style="stroke: #A80036; stroke-width: 1.0;"/><path d="M150.4688,63.6406 Q149.8906,63.9375 149.25,64.0781 Q148.6094,64.2344 147.9063,64.2344 Q145.4063,64.2344 144.0781,62.5938 Q142.7656,60.9375 142.7656,57.8125 Q142.7656,54.6875 144.0781,53.0313 Q145.4063,51.375 147.9063,51.375 Q148.6094,51.375 149.25,51.5313 Q149.9063,51.6875 150.4688,51.9844 L150.4688,54.7031 Q149.8438,54.125 149.25,53.8594 Q148.6563,53.5781 148.0313,53.5781 Q146.6875,53.5781 146,54.6563 Q145.3125,55.7188 145.3125,57.8125 Q145.3125,59.9063 146,60.9844 Q146.6875,62.0469 148.0313,62.0469 Q148.6563,62.0469 149.25,61.7813 Q149.8438,61.5 150.4688,60.9219 L150.4688,63.6406 Z "/><text fill="#000000" font-family="sans-serif" font-size="12" lengthAdjust="spacingAndGlyphs" textLength="137" x="161.5" y="62.1543">TopLevelClassSupport</text><rect fill="#FFFFFF" height="15.9688" style="stroke: #000000; stroke-width: 1.0; stroke-dasharray: 2.0,2.0;" width="98" x="306.5" y="39"/><text fill="#000000" font-family="sans-serif" font-size="12" font-style="italic" lengthAdjust="spacingAndGlyphs" textLength="88" x="311.5" y="51.1387">Catch all class</text><!--MD5=[52303d185de782118d4739c052001bf2]
class Gnome::GObject::Signal--><rect codeLine="12" fill="#FEFECE" filter="url(#f2ue2o315v5jx)" height="32" id="Gnome::GObject::Signal" style="stroke: #A80036; stroke-width: 1.5;" width="131" x="64.5" y="149"/><ellipse cx="79.5" cy="165" fill="#80FFFF" rx="11" ry="11" style="stroke: #A80036; stroke-width: 1.0;"/><path d="M80.7031,165.1406 Q81.0625,165.2188 81.3281,165.5 Q81.6094,165.7656 82,166.5469 L84.2344,171 L81.5469,171 L80.0469,167.875 Q79.9844,167.7344 79.875,167.5 Q79.2188,166.1094 78.3281,166.1094 L77.5469,166.1094 L77.5469,171 L75.1094,171 L75.1094,158.6094 L78.6406,158.6094 Q81.0313,158.6094 82.0625,159.4531 Q83.1094,160.2969 83.1094,162.2031 Q83.1094,163.4844 82.4844,164.25 Q81.875,165 80.7031,165.1406 Z M77.5469,160.6719 L77.5469,164.0469 L78.7031,164.0469 Q79.7188,164.0469 80.1406,163.6563 Q80.5781,163.25 80.5781,162.3438 Q80.5781,161.4531 80.1406,161.0625 Q79.7188,160.6719 78.7031,160.6719 L77.5469,160.6719 Z "/><text fill="#000000" font-family="sans-serif" font-size="12" lengthAdjust="spacingAndGlyphs" textLength="38" x="93.5" y="169.1543">Signal</text><rect fill="#FFFFFF" height="15.9688" style="stroke: #000000; stroke-width: 1.0; stroke-dasharray: 2.0,2.0;" width="59" x="139.5" y="146"/><text fill="#000000" font-family="sans-serif" font-size="12" font-style="italic" lengthAdjust="spacingAndGlyphs" textLength="57" x="140.5" y="158.1387">Interface</text><!--MD5=[c2016d28441601ceb0a74f47a4537d14]
class Gnome::GObject::Object--><rect fill="#FEFECE" filter="url(#f2ue2o315v5jx)" height="32" id="Gnome::GObject::Object" style="stroke: #A80036; stroke-width: 1.5;" width="72" x="231" y="149"/><ellipse cx="246" cy="165" fill="#80FFFF" rx="11" ry="11" style="stroke: #A80036; stroke-width: 1.0;"/><path d="M248.9688,170.6406 Q248.3906,170.9375 247.75,171.0781 Q247.1094,171.2344 246.4063,171.2344 Q243.9063,171.2344 242.5781,169.5938 Q241.2656,167.9375 241.2656,164.8125 Q241.2656,161.6875 242.5781,160.0313 Q243.9063,158.375 246.4063,158.375 Q247.1094,158.375 247.75,158.5313 Q248.4063,158.6875 248.9688,158.9844 L248.9688,161.7031 Q248.3438,161.125 247.75,160.8594 Q247.1563,160.5781 246.5313,160.5781 Q245.1875,160.5781 244.5,161.6563 Q243.8125,162.7188 243.8125,164.8125 Q243.8125,166.9063 244.5,167.9844 Q245.1875,169.0469 246.5313,169.0469 Q247.1563,169.0469 247.75,168.7813 Q248.3438,168.5 248.9688,167.9219 L248.9688,170.6406 Z "/><text fill="#000000" font-family="sans-serif" font-size="12" lengthAdjust="spacingAndGlyphs" textLength="40" x="260" y="169.1543">Object</text><!--MD5=[7c1758a09004760757060230ff805361]
class Gnome::Gtk3::AppChooser--><rect codeLine="18" fill="#FEFECE" filter="url(#f2ue2o315v5jx)" height="32" id="Gnome::Gtk3::AppChooser" style="stroke: #A80036; stroke-width: 1.5;" width="169" x="331.5" y="409"/><ellipse cx="346.5" cy="425" fill="#80FFFF" rx="11" ry="11" style="stroke: #A80036; stroke-width: 1.0;"/><path d="M347.7031,425.1406 Q348.0625,425.2188 348.3281,425.5 Q348.6094,425.7656 349,426.5469 L351.2344,431 L348.5469,431 L347.0469,427.875 Q346.9844,427.7344 346.875,427.5 Q346.2188,426.1094 345.3281,426.1094 L344.5469,426.1094 L344.5469,431 L342.1094,431 L342.1094,418.6094 L345.6406,418.6094 Q348.0313,418.6094 349.0625,419.4531 Q350.1094,420.2969 350.1094,422.2031 Q350.1094,423.4844 349.4844,424.25 Q348.875,425 347.7031,425.1406 Z M344.5469,420.6719 L344.5469,424.0469 L345.7031,424.0469 Q346.7188,424.0469 347.1406,423.6563 Q347.5781,423.25 347.5781,422.3438 Q347.5781,421.4531 347.1406,421.0625 Q346.7188,420.6719 345.7031,420.6719 L344.5469,420.6719 Z "/><text fill="#000000" font-family="sans-serif" font-size="12" lengthAdjust="spacingAndGlyphs" textLength="76" x="360.5" y="429.1543">AppChooser</text><rect fill="#FFFFFF" height="15.9688" style="stroke: #000000; stroke-width: 1.0; stroke-dasharray: 2.0,2.0;" width="59" x="444.5" y="406"/><text fill="#000000" font-family="sans-serif" font-size="12" font-style="italic" lengthAdjust="spacingAndGlyphs" textLength="57" x="445.5" y="418.1387">Interface</text><!--MD5=[93f94a6bbf5ef82fa8c1db6c7ae91565]
class Gnome::Gtk3::AppChooserButton--><rect fill="#FEFECE" filter="url(#f2ue2o315v5jx)" height="32" id="Gnome::Gtk3::AppChooserButton" style="stroke: #A80036; stroke-width: 1.5;" width="150" x="157" y="501"/><ellipse cx="172" cy="517" fill="#80FFFF" rx="11" ry="11" style="stroke: #A80036; stroke-width: 1.0;"/><path d="M174.9688,522.6406 Q174.3906,522.9375 173.75,523.0781 Q173.1094,523.2344 172.4063,523.2344 Q169.9063,523.2344 168.5781,521.5938 Q167.2656,519.9375 167.2656,516.8125 Q167.2656,513.6875 168.5781,512.0313 Q169.9063,510.375 172.4063,510.375 Q173.1094,510.375 173.75,510.5313 Q174.4063,510.6875 174.9688,510.9844 L174.9688,513.7031 Q174.3438,513.125 173.75,512.8594 Q173.1563,512.5781 172.5313,512.5781 Q171.1875,512.5781 170.5,513.6563 Q169.8125,514.7188 169.8125,516.8125 Q169.8125,518.9063 170.5,519.9844 Q171.1875,521.0469 172.5313,521.0469 Q173.1563,521.0469 173.75,520.7813 Q174.3438,520.5 174.9688,519.9219 L174.9688,522.6406 Z "/><text fill="#000000" font-family="sans-serif" font-size="12" lengthAdjust="spacingAndGlyphs" textLength="118" x="186" y="521.1543">AppChooserButton</text><!--MD5=[85521a51f8e24c5a0bd09550422acae5]
class Gnome::Gtk3::AppChooserDialog--><rect fill="#FEFECE" filter="url(#f2ue2o315v5jx)" height="32" id="Gnome::Gtk3::AppChooserDialog" style="stroke: #A80036; stroke-width: 1.5;" width="147" x="342.5" y="501"/><ellipse cx="357.5" cy="517" fill="#80FFFF" rx="11" ry="11" style="stroke: #A80036; stroke-width: 1.0;"/><path d="M360.4688,522.6406 Q359.8906,522.9375 359.25,523.0781 Q358.6094,523.2344 357.9063,523.2344 Q355.4063,523.2344 354.0781,521.5938 Q352.7656,519.9375 352.7656,516.8125 Q352.7656,513.6875 354.0781,512.0313 Q355.4063,510.375 357.9063,510.375 Q358.6094,510.375 359.25,510.5313 Q359.9063,510.6875 360.4688,510.9844 L360.4688,513.7031 Q359.8438,513.125 359.25,512.8594 Q358.6563,512.5781 358.0313,512.5781 Q356.6875,512.5781 356,513.6563 Q355.3125,514.7188 355.3125,516.8125 Q355.3125,518.9063 356,519.9844 Q356.6875,521.0469 358.0313,521.0469 Q358.6563,521.0469 359.25,520.7813 Q359.8438,520.5 360.4688,519.9219 L360.4688,522.6406 Z "/><text fill="#000000" font-family="sans-serif" font-size="12" lengthAdjust="spacingAndGlyphs" textLength="115" x="371.5" y="521.1543">AppChooserDialog</text><!--MD5=[d3b386f7ac13110fa5244ce5deb86ddd]
class Gnome::Gtk3::AppChooserWidget--><rect fill="#FEFECE" filter="url(#f2ue2o315v5jx)" height="32" id="Gnome::Gtk3::AppChooserWidget" style="stroke: #A80036; stroke-width: 1.5;" width="151" x="524.5" y="501"/><ellipse cx="539.5" cy="517" fill="#80FFFF" rx="11" ry="11" style="stroke: #A80036; stroke-width: 1.0;"/><path d="M542.4688,522.6406 Q541.8906,522.9375 541.25,523.0781 Q540.6094,523.2344 539.9063,523.2344 Q537.4063,523.2344 536.0781,521.5938 Q534.7656,519.9375 534.7656,516.8125 Q534.7656,513.6875 536.0781,512.0313 Q537.4063,510.375 539.9063,510.375 Q540.6094,510.375 541.25,510.5313 Q541.9063,510.6875 542.4688,510.9844 L542.4688,513.7031 Q541.8438,513.125 541.25,512.8594 Q540.6563,512.5781 540.0313,512.5781 Q538.6875,512.5781 538,513.6563 Q537.3125,514.7188 537.3125,516.8125 Q537.3125,518.9063 538,519.9844 Q538.6875,521.0469 540.0313,521.0469 Q540.6563,521.0469 541.25,520.7813 Q541.8438,520.5 542.4688,519.9219 L542.4688,522.6406 Z "/><text fill="#000000" font-family="sans-serif" font-size="12" lengthAdjust="spacingAndGlyphs" textLength="119" x="553.5" y="521.1543">AppChooserWidget</text><!--MD5=[db37dbf50a55ef54806829c805e164e7]
class Gnome::Gio::AppInfoManager--><rect fill="#FEFECE" filter="url(#f2ue2o315v5jx)" height="32" id="Gnome::Gio::AppInfoManager" style="stroke: #A80036; stroke-width: 1.5;" width="134" x="23" y="302"/><ellipse cx="38" cy="318" fill="#80FFFF" rx="11" ry="11" style="stroke: #A80036; stroke-width: 1.0;"/><path d="M40.9688,323.6406 Q40.3906,323.9375 39.75,324.0781 Q39.1094,324.2344 38.4063,324.2344 Q35.9063,324.2344 34.5781,322.5938 Q33.2656,320.9375 33.2656,317.8125 Q33.2656,314.6875 34.5781,313.0313 Q35.9063,311.375 38.4063,311.375 Q39.1094,311.375 39.75,311.5313 Q40.4063,311.6875 40.9688,311.9844 L40.9688,314.7031 Q40.3438,314.125 39.75,313.8594 Q39.1563,313.5781 38.5313,313.5781 Q37.1875,313.5781 36.5,314.6563 Q35.8125,315.7188 35.8125,317.8125 Q35.8125,319.9063 36.5,320.9844 Q37.1875,322.0469 38.5313,322.0469 Q39.1563,322.0469 39.75,321.7813 Q40.3438,321.5 40.9688,320.9219 L40.9688,323.6406 Z "/><text fill="#000000" font-family="sans-serif" font-size="12" lengthAdjust="spacingAndGlyphs" textLength="102" x="52" y="322.1543">AppInfoManager</text><!--MD5=[67bab38e0d9e61182a4ac2763711ea36]
class Gnome::Gio::AppLaunchContext--><rect fill="#FEFECE" filter="url(#f2ue2o315v5jx)" height="32" id="Gnome::Gio::AppLaunchContext" style="stroke: #A80036; stroke-width: 1.5;" width="149" x="192.5" y="302"/><ellipse cx="207.5" cy="318" fill="#80FFFF" rx="11" ry="11" style="stroke: #A80036; stroke-width: 1.0;"/><path d="M210.4688,323.6406 Q209.8906,323.9375 209.25,324.0781 Q208.6094,324.2344 207.9063,324.2344 Q205.4063,324.2344 204.0781,322.5938 Q202.7656,320.9375 202.7656,317.8125 Q202.7656,314.6875 204.0781,313.0313 Q205.4063,311.375 207.9063,311.375 Q208.6094,311.375 209.25,311.5313 Q209.9063,311.6875 210.4688,311.9844 L210.4688,314.7031 Q209.8438,314.125 209.25,313.8594 Q208.6563,313.5781 208.0313,313.5781 Q206.6875,313.5781 206,314.6563 Q205.3125,315.7188 205.3125,317.8125 Q205.3125,319.9063 206,320.9844 Q206.6875,322.0469 208.0313,322.0469 Q208.6563,322.0469 209.25,321.7813 Q209.8438,321.5 210.4688,320.9219 L210.4688,323.6406 Z "/><text fill="#000000" font-family="sans-serif" font-size="12" lengthAdjust="spacingAndGlyphs" textLength="117" x="221.5" y="322.1543">AppLaunchContext</text><!--MD5=[a68ef18cfdfbd40bc7d48e7ccf1bab14]
class Gnome::Gio::AppInfo--><rect fill="#FEFECE" filter="url(#f2ue2o315v5jx)" height="32" id="Gnome::Gio::AppInfo" style="stroke: #A80036; stroke-width: 1.5;" width="79" x="376.5" y="302"/><ellipse cx="391.5" cy="318" fill="#80FFFF" rx="11" ry="11" style="stroke: #A80036; stroke-width: 1.0;"/><path d="M394.4688,323.6406 Q393.8906,323.9375 393.25,324.0781 Q392.6094,324.2344 391.9063,324.2344 Q389.4063,324.2344 388.0781,322.5938 Q386.7656,320.9375 386.7656,317.8125 Q386.7656,314.6875 388.0781,313.0313 Q389.4063,311.375 391.9063,311.375 Q392.6094,311.375 393.25,311.5313 Q393.9063,311.6875 394.4688,311.9844 L394.4688,314.7031 Q393.8438,314.125 393.25,313.8594 Q392.6563,313.5781 392.0313,313.5781 Q390.6875,313.5781 390,314.6563 Q389.3125,315.7188 389.3125,317.8125 Q389.3125,319.9063 390,320.9844 Q390.6875,322.0469 392.0313,322.0469 Q392.6563,322.0469 393.25,321.7813 Q393.8438,321.5 394.4688,320.9219 L394.4688,323.6406 Z "/><text fill="#000000" font-family="sans-serif" font-size="12" lengthAdjust="spacingAndGlyphs" textLength="47" x="405.5" y="322.1543">AppInfo</text><!--MD5=[e23b679cf607d12ac81e9c5301595709]
reverse link Gnome::N::TopLevelClassSupport to Gnome::GObject::Object--><path codeLine="22" d="M267,94.1 C267,112.76 267,134.73 267,148.98 " fill="none" id="Gnome::N::TopLevelClassSupport-backto-Gnome::GObject::Object" style="stroke: #A80036; stroke-width: 1.0;"/><polygon fill="none" points="260,94.04,267,74.04,274,94.04,260,94.04" style="stroke: #A80036; stroke-width: 1.0;"/><!--MD5=[f8ffcf4587ba956cb48626a4231e4d21]
reverse link Gnome::GObject::Signal to Gnome::GObject::Object--><path codeLine="23" d="M215.77,165 C220.85,165 225.92,165 231,165 " fill="none" id="Gnome::GObject::Signal-backto-Gnome::GObject::Object" style="stroke: #A80036; stroke-width: 1.0; stroke-dasharray: 7.0,7.0;"/><polygon fill="none" points="215.56,172,195.56,165,215.56,158,215.56,172" style="stroke: #A80036; stroke-width: 1.0;"/><!--MD5=[c137cd4991fbf5826bb7a75810557786]
reverse link Gnome::GObject::Object to Gnome::Gio::AppInfoManager--><path codeLine="25" d="M233.97,194.18 C196.66,226.01 137.29,276.66 107.81,301.81 " fill="none" id="Gnome::GObject::Object-backto-Gnome::Gio::AppInfoManager" style="stroke: #A80036; stroke-width: 1.0;"/><polygon fill="none" points="229.62,188.69,249.38,181.03,238.71,199.34,229.62,188.69" style="stroke: #A80036; stroke-width: 1.0;"/><!--MD5=[7d1718b9e29bb36223fc564cd35ec06c]
reverse link Gnome::GObject::Object to Gnome::Gio::AppLaunchContext--><path codeLine="26" d="M267,201.28 C267,233.02 267,278.17 267,301.58 " fill="none" id="Gnome::GObject::Object-backto-Gnome::Gio::AppLaunchContext" style="stroke: #A80036; stroke-width: 1.0;"/><polygon fill="none" points="260,201.03,267,181.03,274,201.03,260,201.03" style="stroke: #A80036; stroke-width: 1.0;"/><!--MD5=[a686c0e9ca354cb26898a6ca9a918d73]
reverse link Gnome::GObject::Object to Gnome::Gio::AppInfo--><path codeLine="27" d="M296.24,195.51 C314.34,213.78 338.03,237.74 359,259 C373.27,273.48 389.52,290.02 401.01,301.72 " fill="none" id="Gnome::GObject::Object-backto-Gnome::Gio::AppInfo" style="stroke: #A80036; stroke-width: 1.0;"/><polygon fill="none" points="291.1,200.26,281.99,181.13,301.04,190.41,291.1,200.26" style="stroke: #A80036; stroke-width: 1.0;"/><!--MD5=[1b054eb8c623b96896926623c3dd113e]
reverse link Gnome::Gio::AppInfo to Gnome::Gtk3::AppChooser--><path codeLine="29" d="M416,339.24 C416,359.65 416,390.67 416,408.98 " fill="none" id="Gnome::Gio::AppInfo-backto-Gnome::Gtk3::AppChooser" style="stroke: #A80036; stroke-width: 1.0;"/><polygon fill="#A80036" points="416,334.04,412,343.04,416,339.04,420,343.04,416,334.04" style="stroke: #A80036; stroke-width: 1.0;"/><!--MD5=[f7c3f49c740fbae41ebde3293f74f156]
reverse link Gnome::Gtk3::AppChooser to Gnome::Gtk3::AppChooserButton--><path codeLine="31" d="M367.02,449.96 C333.96,466.13 291.32,486.98 262.9,500.89 " fill="none" id="Gnome::Gtk3::AppChooser-backto-Gnome::Gtk3::AppChooserButton" style="stroke: #A80036; stroke-width: 1.0; stroke-dasharray: 7.0,7.0;"/><polygon fill="none" points="364.16,443.56,385.2,441.06,370.31,456.14,364.16,443.56" style="stroke: #A80036; stroke-width: 1.0;"/><!--MD5=[0f6b321b1f77cd51a026376d466bcb86]
reverse link Gnome::Gtk3::AppChooser to Gnome::Gtk3::AppChooserDialog--><path codeLine="32" d="M416,461.61 C416,475.31 416,490.22 416,500.96 " fill="none" id="Gnome::Gtk3::AppChooser-backto-Gnome::Gtk3::AppChooserDialog" style="stroke: #A80036; stroke-width: 1.0; stroke-dasharray: 7.0,7.0;"/><polygon fill="none" points="409,461.27,416,441.27,423,461.27,409,461.27" style="stroke: #A80036; stroke-width: 1.0;"/><!--MD5=[2aef86c5378a67adb6012ac19cab9f31]
reverse link Gnome::Gtk3::AppChooser to Gnome::Gtk3::AppChooserWidget--><path codeLine="33" d="M464.98,449.96 C498.04,466.13 540.68,486.98 569.1,500.89 " fill="none" id="Gnome::Gtk3::AppChooser-backto-Gnome::Gtk3::AppChooserWidget" style="stroke: #A80036; stroke-width: 1.0; stroke-dasharray: 7.0,7.0;"/><polygon fill="none" points="461.69,456.14,446.8,441.06,467.84,443.56,461.69,456.14" style="stroke: #A80036; stroke-width: 1.0;"/><!--MD5=[c1f89187e6a64c72e8cf7d9d152342f6]
@startuml

skinparam packageStyle rectangle
skinparam stereotypeCBackgroundColor #80ffff
set namespaceSeparator ::
hide empty members

'Classes and interfaces
class Gnome::N::TopLevelClassSupport < Catch all class >

Interface Gnome::GObject::Signal <Interface>
class Gnome::GObject::Signal <<(R,#80ffff)>>

'Interface Gnome::Gio::AppInfo <Interface>
'class Gnome::Gio::AppInfo <<(R,#80ffff)>>

Interface Gnome::Gtk3::AppChooser <Interface>
class Gnome::Gtk3::AppChooser <<(R,#80ffff)>>


'Class connections
Gnome::N::TopLevelClassSupport <|- - Gnome::GObject::Object
Gnome::GObject::Signal <|. Gnome::GObject::Object

Gnome::GObject::Object <|- - - Gnome::Gio::AppInfoManager
Gnome::GObject::Object <|- - - Gnome::Gio::AppLaunchContext
Gnome::GObject::Object <|- - Gnome::Gio::AppInfo

Gnome::Gio::AppInfo <- - Gnome::Gtk3::AppChooser

Gnome::Gtk3::AppChooser <|.. Gnome::Gtk3::AppChooserButton
Gnome::Gtk3::AppChooser <|.. Gnome::Gtk3::AppChooserDialog
Gnome::Gtk3::AppChooser <|.. Gnome::Gtk3::AppChooserWidget

@enduml

@startuml

skinparam packageStyle rectangle
skinparam stereotypeCBackgroundColor #80ffff
set namespaceSeparator ::
hide empty members

class Gnome::N::TopLevelClassSupport < Catch all class >

Interface Gnome::GObject::Signal <Interface>
class Gnome::GObject::Signal <<(R,#80ffff)>>


Interface Gnome::Gtk3::AppChooser <Interface>
class Gnome::Gtk3::AppChooser <<(R,#80ffff)>>


Gnome::N::TopLevelClassSupport <|- - Gnome::GObject::Object
Gnome::GObject::Signal <|. Gnome::GObject::Object

Gnome::GObject::Object <|- - - Gnome::Gio::AppInfoManager
Gnome::GObject::Object <|- - - Gnome::Gio::AppLaunchContext
Gnome::GObject::Object <|- - Gnome::Gio::AppInfo

Gnome::Gio::AppInfo <- - Gnome::Gtk3::AppChooser

Gnome::Gtk3::AppChooser <|.. Gnome::Gtk3::AppChooserButton
Gnome::Gtk3::AppChooser <|.. Gnome::Gtk3::AppChooserDialog
Gnome::Gtk3::AppChooser <|.. Gnome::Gtk3::AppChooserWidget

@enduml

PlantUML version 1.2020.19(Mon Oct 12 17:10:01 CEST 2020)
(GPL source distribution)
Java Runtime: OpenJDK Runtime Environment
JVM: OpenJDK 64-Bit Server VM
Default Encoding: UTF-8
Language: en
Country: US
--></g></svg>