<?xml version="1.0" encoding="UTF-8" standalone="no"?><svg xmlns="http://www.w3.org/2000/svg" xmlns:xlink="http://www.w3.org/1999/xlink" contentScriptType="application/ecmascript" contentStyleType="text/css" height="397px" preserveAspectRatio="none" style="width:592px;height:397px;" version="1.1" viewBox="0 0 592 397" width="592px" zoomAndPan="magnify"><defs><filter height="300%" id="f2pcq9c3ki0zs" width="300%" x="-1" y="-1"><feGaussianBlur result="blurOut" stdDeviation="2.0"/><feColorMatrix in="blurOut" result="blurOut2" type="matrix" values="0 0 0 0 0 0 0 0 0 0 0 0 0 0 0 0 0 0 .4 0"/><feOffset dx="4.0" dy="4.0" in="blurOut2" result="blurOut3"/><feBlend in="SourceGraphic" in2="blurOut3" mode="normal"/></filter></defs><g><!--MD5=[b969295f0ec9b4fa482091c3e26049be]
cluster Gnome::N--><rect fill="#FFFFFF" filter="url(#f2pcq9c3ki0zs)" height="83" style="stroke: #000000; stroke-width: 1.5;" width="302" x="278" y="7"/><text fill="#000000" font-family="sans-serif" font-size="14" font-weight="bold" lengthAdjust="spacingAndGlyphs" textLength="79" x="389.5" y="21.9951">Gnome::N</text><!--MD5=[2fb3f9b624b0544b9841d5da78ec0508]
cluster Gnome::GObject--><rect fill="#FFFFFF" filter="url(#f2pcq9c3ki0zs)" height="83" style="stroke: #000000; stroke-width: 1.5;" width="271" x="210" y="114"/><text fill="#000000" font-family="sans-serif" font-size="14" font-weight="bold" lengthAdjust="spacingAndGlyphs" textLength="131" x="280" y="128.9951">Gnome::GObject</text><!--MD5=[1121a717c59c319a293e5a9c98dee73e]
cluster Gnome::Gio--><rect fill="#FFFFFF" filter="url(#f2pcq9c3ki0zs)" height="83" style="stroke: #000000; stroke-width: 1.5;" width="478" x="7" y="221"/><text fill="#000000" font-family="sans-serif" font-size="14" font-weight="bold" lengthAdjust="spacingAndGlyphs" textLength="94" x="199" y="235.9951">Gnome::Gio</text><!--MD5=[0b8e281ccd00c72019a31d78e9f95b5d]
class Gnome::N::TopLevelClassSupport--><rect codeLine="9" fill="#FEFECE" filter="url(#f2pcq9c3ki0zs)" height="32" id="Gnome::N::TopLevelClassSupport" style="stroke: #A80036; stroke-width: 1.5;" width="269" x="294.5" y="42"/><ellipse cx="309.5" cy="58" fill="#80FFFF" rx="11" ry="11" style="stroke: #A80036; stroke-width: 1.0;"/><path d="M312.4688,63.6406 Q311.8906,63.9375 311.25,64.0781 Q310.6094,64.2344 309.9063,64.2344 Q307.4063,64.2344 306.0781,62.5938 Q304.7656,60.9375 304.7656,57.8125 Q304.7656,54.6875 306.0781,53.0313 Q307.4063,51.375 309.9063,51.375 Q310.6094,51.375 311.25,51.5313 Q311.9063,51.6875 312.4688,51.9844 L312.4688,54.7031 Q311.8438,54.125 311.25,53.8594 Q310.6563,53.5781 310.0313,53.5781 Q308.6875,53.5781 308,54.6563 Q307.3125,55.7188 307.3125,57.8125 Q307.3125,59.9063 308,60.9844 Q308.6875,62.0469 310.0313,62.0469 Q310.6563,62.0469 311.25,61.7813 Q311.8438,61.5 312.4688,60.9219 L312.4688,63.6406 Z "/><text fill="#000000" font-family="sans-serif" font-size="12" lengthAdjust="spacingAndGlyphs" textLength="137" x="323.5" y="62.1543">TopLevelClassSupport</text><rect fill="#FFFFFF" height="15.9688" style="stroke: #000000; stroke-width: 1.0; stroke-dasharray: 2.0,2.0;" width="98" x="468.5" y="39"/><text fill="#000000" font-family="sans-serif" font-size="12" font-style="italic" lengthAdjust="spacingAndGlyphs" textLength="88" x="473.5" y="51.1387">Catch all class</text><!--MD5=[52303d185de782118d4739c052001bf2]
class Gnome::GObject::Signal--><rect codeLine="12" fill="#FEFECE" filter="url(#f2pcq9c3ki0zs)" height="32" id="Gnome::GObject::Signal" style="stroke: #A80036; stroke-width: 1.5;" width="131" x="226.5" y="149"/><ellipse cx="241.5" cy="165" fill="#80FFFF" rx="11" ry="11" style="stroke: #A80036; stroke-width: 1.0;"/><path d="M242.7031,165.1406 Q243.0625,165.2188 243.3281,165.5 Q243.6094,165.7656 244,166.5469 L246.2344,171 L243.5469,171 L242.0469,167.875 Q241.9844,167.7344 241.875,167.5 Q241.2188,166.1094 240.3281,166.1094 L239.5469,166.1094 L239.5469,171 L237.1094,171 L237.1094,158.6094 L240.6406,158.6094 Q243.0313,158.6094 244.0625,159.4531 Q245.1094,160.2969 245.1094,162.2031 Q245.1094,163.4844 244.4844,164.25 Q243.875,165 242.7031,165.1406 Z M239.5469,160.6719 L239.5469,164.0469 L240.7031,164.0469 Q241.7188,164.0469 242.1406,163.6563 Q242.5781,163.25 242.5781,162.3438 Q242.5781,161.4531 242.1406,161.0625 Q241.7188,160.6719 240.7031,160.6719 L239.5469,160.6719 Z "/><text fill="#000000" font-family="sans-serif" font-size="12" lengthAdjust="spacingAndGlyphs" textLength="38" x="255.5" y="169.1543">Signal</text><rect fill="#FFFFFF" height="15.9688" style="stroke: #000000; stroke-width: 1.0; stroke-dasharray: 2.0,2.0;" width="59" x="301.5" y="146"/><text fill="#000000" font-family="sans-serif" font-size="12" font-style="italic" lengthAdjust="spacingAndGlyphs" textLength="57" x="302.5" y="158.1387">Interface</text><!--MD5=[c2016d28441601ceb0a74f47a4537d14]
class Gnome::GObject::Object--><rect fill="#FEFECE" filter="url(#f2pcq9c3ki0zs)" height="32" id="Gnome::GObject::Object" style="stroke: #A80036; stroke-width: 1.5;" width="72" x="393" y="149"/><ellipse cx="408" cy="165" fill="#80FFFF" rx="11" ry="11" style="stroke: #A80036; stroke-width: 1.0;"/><path d="M410.9688,170.6406 Q410.3906,170.9375 409.75,171.0781 Q409.1094,171.2344 408.4063,171.2344 Q405.9063,171.2344 404.5781,169.5938 Q403.2656,167.9375 403.2656,164.8125 Q403.2656,161.6875 404.5781,160.0313 Q405.9063,158.375 408.4063,158.375 Q409.1094,158.375 409.75,158.5313 Q410.4063,158.6875 410.9688,158.9844 L410.9688,161.7031 Q410.3438,161.125 409.75,160.8594 Q409.1563,160.5781 408.5313,160.5781 Q407.1875,160.5781 406.5,161.6563 Q405.8125,162.7188 405.8125,164.8125 Q405.8125,166.9063 406.5,167.9844 Q407.1875,169.0469 408.5313,169.0469 Q409.1563,169.0469 409.75,168.7813 Q410.3438,168.5 410.9688,167.9219 L410.9688,170.6406 Z "/><text fill="#000000" font-family="sans-serif" font-size="12" lengthAdjust="spacingAndGlyphs" textLength="40" x="422" y="169.1543">Object</text><!--MD5=[7e1a53d6d423fee421c9e5d585b6d673]
class Gnome::Gio::Icon--><rect codeLine="15" fill="#FEFECE" filter="url(#f2pcq9c3ki0zs)" height="32" id="Gnome::Gio::Icon" style="stroke: #A80036; stroke-width: 1.5;" width="119" x="23.5" y="256"/><ellipse cx="38.5" cy="272" fill="#80FFFF" rx="11" ry="11" style="stroke: #A80036; stroke-width: 1.0;"/><path d="M39.7031,272.1406 Q40.0625,272.2188 40.3281,272.5 Q40.6094,272.7656 41,273.5469 L43.2344,278 L40.5469,278 L39.0469,274.875 Q38.9844,274.7344 38.875,274.5 Q38.2188,273.1094 37.3281,273.1094 L36.5469,273.1094 L36.5469,278 L34.1094,278 L34.1094,265.6094 L37.6406,265.6094 Q40.0313,265.6094 41.0625,266.4531 Q42.1094,267.2969 42.1094,269.2031 Q42.1094,270.4844 41.4844,271.25 Q40.875,272 39.7031,272.1406 Z M36.5469,267.6719 L36.5469,271.0469 L37.7031,271.0469 Q38.7188,271.0469 39.1406,270.6563 Q39.5781,270.25 39.5781,269.3438 Q39.5781,268.4531 39.1406,268.0625 Q38.7188,267.6719 37.7031,267.6719 L36.5469,267.6719 Z "/><text fill="#000000" font-family="sans-serif" font-size="12" lengthAdjust="spacingAndGlyphs" textLength="26" x="52.5" y="276.1543">Icon</text><rect fill="#FFFFFF" height="15.9688" style="stroke: #000000; stroke-width: 1.0; stroke-dasharray: 2.0,2.0;" width="59" x="86.5" y="253"/><text fill="#000000" font-family="sans-serif" font-size="12" font-style="italic" lengthAdjust="spacingAndGlyphs" textLength="57" x="87.5" y="265.1387">Interface</text><!--MD5=[4c8a6630b15e223091013f6e6a5b7462]
class Gnome::Gio::LoadableIcon--><rect codeLine="18" fill="#FFA0A0" filter="url(#f2pcq9c3ki0zs)" height="32" id="Gnome::Gio::LoadableIcon" style="stroke: #A80036; stroke-width: 1.5;" width="176" x="178" y="256"/><ellipse cx="193" cy="272" fill="#80FFFF" rx="11" ry="11" style="stroke: #A80036; stroke-width: 1.0;"/><path d="M194.2031,272.1406 Q194.5625,272.2188 194.8281,272.5 Q195.1094,272.7656 195.5,273.5469 L197.7344,278 L195.0469,278 L193.5469,274.875 Q193.4844,274.7344 193.375,274.5 Q192.7188,273.1094 191.8281,273.1094 L191.0469,273.1094 L191.0469,278 L188.6094,278 L188.6094,265.6094 L192.1406,265.6094 Q194.5313,265.6094 195.5625,266.4531 Q196.6094,267.2969 196.6094,269.2031 Q196.6094,270.4844 195.9844,271.25 Q195.375,272 194.2031,272.1406 Z M191.0469,267.6719 L191.0469,271.0469 L192.2031,271.0469 Q193.2188,271.0469 193.6406,270.6563 Q194.0781,270.25 194.0781,269.3438 Q194.0781,268.4531 193.6406,268.0625 Q193.2188,267.6719 192.2031,267.6719 L191.0469,267.6719 Z "/><text fill="#000000" font-family="sans-serif" font-size="12" lengthAdjust="spacingAndGlyphs" textLength="83" x="207" y="276.1543">LoadableIcon</text><rect fill="#FFA0A0" height="15.9688" style="stroke: #000000; stroke-width: 1.0; stroke-dasharray: 2.0,2.0;" width="59" x="298" y="253"/><text fill="#000000" font-family="sans-serif" font-size="12" font-style="italic" lengthAdjust="spacingAndGlyphs" textLength="57" x="299" y="265.1387">Interface</text><!--MD5=[519df567249d6be0430ab04838648c59]
class Gnome::Gio::FileIcon--><rect fill="#FEFECE" filter="url(#f2pcq9c3ki0zs)" height="32" id="Gnome::Gio::FileIcon" style="stroke: #A80036; stroke-width: 1.5;" width="79" x="389.5" y="256"/><ellipse cx="404.5" cy="272" fill="#80FFFF" rx="11" ry="11" style="stroke: #A80036; stroke-width: 1.0;"/><path d="M407.4688,277.6406 Q406.8906,277.9375 406.25,278.0781 Q405.6094,278.2344 404.9063,278.2344 Q402.4063,278.2344 401.0781,276.5938 Q399.7656,274.9375 399.7656,271.8125 Q399.7656,268.6875 401.0781,267.0313 Q402.4063,265.375 404.9063,265.375 Q405.6094,265.375 406.25,265.5313 Q406.9063,265.6875 407.4688,265.9844 L407.4688,268.7031 Q406.8438,268.125 406.25,267.8594 Q405.6563,267.5781 405.0313,267.5781 Q403.6875,267.5781 403,268.6563 Q402.3125,269.7188 402.3125,271.8125 Q402.3125,273.9063 403,274.9844 Q403.6875,276.0469 405.0313,276.0469 Q405.6563,276.0469 406.25,275.7813 Q406.8438,275.5 407.4688,274.9219 L407.4688,277.6406 Z "/><text fill="#000000" font-family="sans-serif" font-size="12" lengthAdjust="spacingAndGlyphs" textLength="47" x="418.5" y="276.1543">FileIcon</text><path d="M206.5,348 L206.5,388.2656 A0,0 0 0 0 206.5,388.2656 L325.5,388.2656 A0,0 0 0 0 325.5,388.2656 L325.5,358 L315.5,348 L270,348 L266,288.1 L262,348 L206.5,348 A0,0 0 0 0 206.5,348 " fill="#FBFB77" filter="url(#f2pcq9c3ki0zs)" style="stroke: #A80036; stroke-width: 1.0;"/><path d="M315.5,348 L315.5,358 L325.5,358 L315.5,348 " fill="#FBFB77" style="stroke: #A80036; stroke-width: 1.0;"/><text fill="#000000" font-family="sans-serif" font-size="13" lengthAdjust="spacingAndGlyphs" textLength="98" x="212.5" y="365.0669">this class is not</text><text fill="#000000" font-family="sans-serif" font-size="13" lengthAdjust="spacingAndGlyphs" textLength="85" x="216.5" y="380.1997">implemented</text><!--MD5=[e23b679cf607d12ac81e9c5301595709]
reverse link Gnome::N::TopLevelClassSupport to Gnome::GObject::Object--><path codeLine="23" d="M429,94.1 C429,112.76 429,134.73 429,148.98 " fill="none" id="Gnome::N::TopLevelClassSupport-backto-Gnome::GObject::Object" style="stroke: #A80036; stroke-width: 1.0;"/><polygon fill="none" points="422,94.04,429,74.04,436,94.04,422,94.04" style="stroke: #A80036; stroke-width: 1.0;"/><!--MD5=[f8ffcf4587ba956cb48626a4231e4d21]
reverse link Gnome::GObject::Signal to Gnome::GObject::Object--><path codeLine="24" d="M377.77,165 C382.85,165 387.92,165 393,165 " fill="none" id="Gnome::GObject::Signal-backto-Gnome::GObject::Object" style="stroke: #A80036; stroke-width: 1.0; stroke-dasharray: 7.0,7.0;"/><polygon fill="none" points="377.56,172,357.56,165,377.56,158,377.56,172" style="stroke: #A80036; stroke-width: 1.0;"/><!--MD5=[35a4b889ebec2b752ed96e91d3c0d6b8]
reverse link Gnome::Gio::Icon to Gnome::Gio::LoadableIcon--><path codeLine="26" d="M162.74,272 C167.78,272 172.82,272 177.85,272 " fill="none" id="Gnome::Gio::Icon-backto-Gnome::Gio::LoadableIcon" style="stroke: #A80036; stroke-width: 1.0; stroke-dasharray: 7.0,7.0;"/><polygon fill="none" points="162.69,279,142.69,272,162.69,265,162.69,279" style="stroke: #A80036; stroke-width: 1.0;"/><!--MD5=[24cf288057592dc27d7f0d37df7a69fe]
reverse link Gnome::Gio::LoadableIcon to Gnome::Gio::FileIcon--><path codeLine="27" d="M374.19,272 C379.21,272 384.23,272 389.25,272 " fill="none" id="Gnome::Gio::LoadableIcon-backto-Gnome::Gio::FileIcon" style="stroke: #A80036; stroke-width: 1.0; stroke-dasharray: 7.0,7.0;"/><polygon fill="none" points="374.19,279,354.19,272,374.19,265,374.19,279" style="stroke: #A80036; stroke-width: 1.0;"/><!--MD5=[36a5c1854aa8b267edbe5b2d5e616552]
reverse link Gnome::GObject::Object to Gnome::Gio::FileIcon--><path codeLine="28" d="M429,201.1 C429,219.76 429,241.73 429,255.98 " fill="none" id="Gnome::GObject::Object-backto-Gnome::Gio::FileIcon" style="stroke: #A80036; stroke-width: 1.0;"/><polygon fill="none" points="422,201.04,429,181.04,436,201.04,422,201.04" style="stroke: #A80036; stroke-width: 1.0;"/><!--MD5=[0db4a0445cb41cee04bd4bfd3cb696ec]
@startuml

skinparam packageStyle rectangle
skinparam stereotypeCBackgroundColor #80ffff
set namespaceSeparator ::
hide empty members

'Classes and interfaces
class Gnome::N::TopLevelClassSupport < Catch all class >

Interface Gnome::GObject::Signal <Interface>
class Gnome::GObject::Signal <<(R,#80ffff)>>

Interface Gnome::Gio::Icon <Interface>
class Gnome::Gio::Icon <<(R,#80ffff)>>

Interface Gnome::Gio::LoadableIcon <Interface>
class Gnome::Gio::LoadableIcon <<(R,#80ffff)>> #ffa0a0
note "this class is not\n implemented" as NLI
Gnome::Gio::LoadableIcon .down. NLI

'Class connections
Gnome::N::TopLevelClassSupport <|- - Gnome::GObject::Object
Gnome::GObject::Signal <|. Gnome::GObject::Object

Gnome::Gio::Icon <|. Gnome::Gio::LoadableIcon
Gnome::Gio::LoadableIcon <|. Gnome::Gio::FileIcon
Gnome::GObject::Object <|- - Gnome::Gio::FileIcon

@enduml

@startuml

skinparam packageStyle rectangle
skinparam stereotypeCBackgroundColor #80ffff
set namespaceSeparator ::
hide empty members

class Gnome::N::TopLevelClassSupport < Catch all class >

Interface Gnome::GObject::Signal <Interface>
class Gnome::GObject::Signal <<(R,#80ffff)>>

Interface Gnome::Gio::Icon <Interface>
class Gnome::Gio::Icon <<(R,#80ffff)>>

Interface Gnome::Gio::LoadableIcon <Interface>
class Gnome::Gio::LoadableIcon <<(R,#80ffff)>> #ffa0a0
note "this class is not\n implemented" as NLI
Gnome::Gio::LoadableIcon .down. NLI

Gnome::N::TopLevelClassSupport <|- - Gnome::GObject::Object
Gnome::GObject::Signal <|. Gnome::GObject::Object

Gnome::Gio::Icon <|. Gnome::Gio::LoadableIcon
Gnome::Gio::LoadableIcon <|. Gnome::Gio::FileIcon
Gnome::GObject::Object <|- - Gnome::Gio::FileIcon

@enduml

PlantUML version 1.2020.19(Mon Oct 12 17:10:01 CEST 2020)
(GPL source distribution)
Java Runtime: OpenJDK Runtime Environment
JVM: OpenJDK 64-Bit Server VM
Default Encoding: UTF-8
Language: en
Country: US
--></g></svg>