<?xml version="1.0" encoding="UTF-8" standalone="no"?><svg xmlns="http://www.w3.org/2000/svg" xmlns:xlink="http://www.w3.org/1999/xlink" contentScriptType="application/ecmascript" contentStyleType="text/css" height="397px" preserveAspectRatio="none" style="width:610px;height:397px;" version="1.1" viewBox="0 0 610 397" width="610px" zoomAndPan="magnify"><defs><filter height="300%" id="ffqyma038vm4f" width="300%" x="-1" y="-1"><feGaussianBlur result="blurOut" stdDeviation="2.0"/><feColorMatrix in="blurOut" result="blurOut2" type="matrix" values="0 0 0 0 0 0 0 0 0 0 0 0 0 0 0 0 0 0 .4 0"/><feOffset dx="4.0" dy="4.0" in="blurOut2" result="blurOut3"/><feBlend in="SourceGraphic" in2="blurOut3" mode="normal"/></filter></defs><g><!--MD5=[1121a717c59c319a293e5a9c98dee73e]
cluster Gnome::Gio--><rect fill="#FFFFFF" filter="url(#ffqyma038vm4f)" height="271" style="stroke: #000000; stroke-width: 1.5;" width="456" x="7" y="114"/><text fill="#000000" font-family="sans-serif" font-size="14" font-weight="bold" lengthAdjust="spacingAndGlyphs" textLength="94" x="188" y="128.9951">Gnome::Gio</text><!--MD5=[0c17acfeb4e3e210bf5158782726c758]
cluster Gnome::Gdk3--><rect fill="#FFFFFF" filter="url(#ffqyma038vm4f)" height="83" style="stroke: #000000; stroke-width: 1.5;" width="125" x="114" y="7"/><text fill="#000000" font-family="sans-serif" font-size="14" font-weight="bold" lengthAdjust="spacingAndGlyphs" textLength="109" x="122" y="21.9951">Gnome::Gdk3</text><!--MD5=[4c8a6630b15e223091013f6e6a5b7462]
class Gnome::Gio::LoadableIcon--><rect codeLine="18" fill="#FFA0A0" filter="url(#ffqyma038vm4f)" height="32" id="Gnome::Gio::LoadableIcon" style="stroke: #A80036; stroke-width: 1.5;" width="176" x="271" y="149"/><ellipse cx="286" cy="165" fill="#80FFFF" rx="11" ry="11" style="stroke: #A80036; stroke-width: 1.0;"/><path d="M287.2031,165.1406 Q287.5625,165.2188 287.8281,165.5 Q288.1094,165.7656 288.5,166.5469 L290.7344,171 L288.0469,171 L286.5469,167.875 Q286.4844,167.7344 286.375,167.5 Q285.7188,166.1094 284.8281,166.1094 L284.0469,166.1094 L284.0469,171 L281.6094,171 L281.6094,158.6094 L285.1406,158.6094 Q287.5313,158.6094 288.5625,159.4531 Q289.6094,160.2969 289.6094,162.2031 Q289.6094,163.4844 288.9844,164.25 Q288.375,165 287.2031,165.1406 Z M284.0469,160.6719 L284.0469,164.0469 L285.2031,164.0469 Q286.2188,164.0469 286.6406,163.6563 Q287.0781,163.25 287.0781,162.3438 Q287.0781,161.4531 286.6406,161.0625 Q286.2188,160.6719 285.2031,160.6719 L284.0469,160.6719 Z "/><text fill="#000000" font-family="sans-serif" font-size="12" lengthAdjust="spacingAndGlyphs" textLength="83" x="300" y="169.1543">LoadableIcon</text><rect fill="#FFA0A0" height="15.9688" style="stroke: #000000; stroke-width: 1.0; stroke-dasharray: 2.0,2.0;" width="59" x="391" y="146"/><text fill="#000000" font-family="sans-serif" font-size="12" font-style="italic" lengthAdjust="spacingAndGlyphs" textLength="57" x="392" y="158.1387">Interface</text><!--MD5=[7e1a53d6d423fee421c9e5d585b6d673]
class Gnome::Gio::Icon--><rect codeLine="23" fill="#FEFECE" filter="url(#ffqyma038vm4f)" height="32" id="Gnome::Gio::Icon" style="stroke: #A80036; stroke-width: 1.5;" width="119" x="116.5" y="149"/><ellipse cx="131.5" cy="165" fill="#80FFFF" rx="11" ry="11" style="stroke: #A80036; stroke-width: 1.0;"/><path d="M132.7031,165.1406 Q133.0625,165.2188 133.3281,165.5 Q133.6094,165.7656 134,166.5469 L136.2344,171 L133.5469,171 L132.0469,167.875 Q131.9844,167.7344 131.875,167.5 Q131.2188,166.1094 130.3281,166.1094 L129.5469,166.1094 L129.5469,171 L127.1094,171 L127.1094,158.6094 L130.6406,158.6094 Q133.0313,158.6094 134.0625,159.4531 Q135.1094,160.2969 135.1094,162.2031 Q135.1094,163.4844 134.4844,164.25 Q133.875,165 132.7031,165.1406 Z M129.5469,160.6719 L129.5469,164.0469 L130.7031,164.0469 Q131.7188,164.0469 132.1406,163.6563 Q132.5781,163.25 132.5781,162.3438 Q132.5781,161.4531 132.1406,161.0625 Q131.7188,160.6719 130.7031,160.6719 L129.5469,160.6719 Z "/><text fill="#000000" font-family="sans-serif" font-size="12" lengthAdjust="spacingAndGlyphs" textLength="26" x="145.5" y="169.1543">Icon</text><rect fill="#FFFFFF" height="15.9688" style="stroke: #000000; stroke-width: 1.0; stroke-dasharray: 2.0,2.0;" width="59" x="179.5" y="146"/><text fill="#000000" font-family="sans-serif" font-size="12" font-style="italic" lengthAdjust="spacingAndGlyphs" textLength="57" x="180.5" y="158.1387">Interface</text><!--MD5=[519df567249d6be0430ab04838648c59]
class Gnome::Gio::FileIcon--><rect fill="#FEFECE" filter="url(#ffqyma038vm4f)" height="32" id="Gnome::Gio::FileIcon" style="stroke: #A80036; stroke-width: 1.5;" width="79" x="367.5" y="245"/><ellipse cx="382.5" cy="261" fill="#80FFFF" rx="11" ry="11" style="stroke: #A80036; stroke-width: 1.0;"/><path d="M385.4688,266.6406 Q384.8906,266.9375 384.25,267.0781 Q383.6094,267.2344 382.9063,267.2344 Q380.4063,267.2344 379.0781,265.5938 Q377.7656,263.9375 377.7656,260.8125 Q377.7656,257.6875 379.0781,256.0313 Q380.4063,254.375 382.9063,254.375 Q383.6094,254.375 384.25,254.5313 Q384.9063,254.6875 385.4688,254.9844 L385.4688,257.7031 Q384.8438,257.125 384.25,256.8594 Q383.6563,256.5781 383.0313,256.5781 Q381.6875,256.5781 381,257.6563 Q380.3125,258.7188 380.3125,260.8125 Q380.3125,262.9063 381,263.9844 Q381.6875,265.0469 383.0313,265.0469 Q383.6563,265.0469 384.25,264.7813 Q384.8438,264.5 385.4688,263.9219 L385.4688,266.6406 Z "/><text fill="#000000" font-family="sans-serif" font-size="12" lengthAdjust="spacingAndGlyphs" textLength="47" x="396.5" y="265.1543">FileIcon</text><!--MD5=[81c5a663c8f00bb1f91c560d60fe4112]
class Gnome::Gio::BytesIcon--><rect fill="#FEFECE" filter="url(#ffqyma038vm4f)" height="32" id="Gnome::Gio::BytesIcon" style="stroke: #A80036; stroke-width: 1.5;" width="92" x="23" y="245"/><ellipse cx="38" cy="261" fill="#80FFFF" rx="11" ry="11" style="stroke: #A80036; stroke-width: 1.0;"/><path d="M40.9688,266.6406 Q40.3906,266.9375 39.75,267.0781 Q39.1094,267.2344 38.4063,267.2344 Q35.9063,267.2344 34.5781,265.5938 Q33.2656,263.9375 33.2656,260.8125 Q33.2656,257.6875 34.5781,256.0313 Q35.9063,254.375 38.4063,254.375 Q39.1094,254.375 39.75,254.5313 Q40.4063,254.6875 40.9688,254.9844 L40.9688,257.7031 Q40.3438,257.125 39.75,256.8594 Q39.1563,256.5781 38.5313,256.5781 Q37.1875,256.5781 36.5,257.6563 Q35.8125,258.7188 35.8125,260.8125 Q35.8125,262.9063 36.5,263.9844 Q37.1875,265.0469 38.5313,265.0469 Q39.1563,265.0469 39.75,264.7813 Q40.3438,264.5 40.9688,263.9219 L40.9688,266.6406 Z "/><text fill="#000000" font-family="sans-serif" font-size="12" lengthAdjust="spacingAndGlyphs" textLength="60" x="52" y="265.1543">BytesIcon</text><!--MD5=[b2a45455deab7147e50800ec0bbf2837]
class Gnome::Gio::Emblem--><rect fill="#FEFECE" filter="url(#ffqyma038vm4f)" height="32" id="Gnome::Gio::Emblem" style="stroke: #A80036; stroke-width: 1.5;" width="81" x="66.5" y="337"/><ellipse cx="81.5" cy="353" fill="#80FFFF" rx="11" ry="11" style="stroke: #A80036; stroke-width: 1.0;"/><path d="M84.4688,358.6406 Q83.8906,358.9375 83.25,359.0781 Q82.6094,359.2344 81.9063,359.2344 Q79.4063,359.2344 78.0781,357.5938 Q76.7656,355.9375 76.7656,352.8125 Q76.7656,349.6875 78.0781,348.0313 Q79.4063,346.375 81.9063,346.375 Q82.6094,346.375 83.25,346.5313 Q83.9063,346.6875 84.4688,346.9844 L84.4688,349.7031 Q83.8438,349.125 83.25,348.8594 Q82.6563,348.5781 82.0313,348.5781 Q80.6875,348.5781 80,349.6563 Q79.3125,350.7188 79.3125,352.8125 Q79.3125,354.9063 80,355.9844 Q80.6875,357.0469 82.0313,357.0469 Q82.6563,357.0469 83.25,356.7813 Q83.8438,356.5 84.4688,355.9219 L84.4688,358.6406 Z "/><text fill="#000000" font-family="sans-serif" font-size="12" lengthAdjust="spacingAndGlyphs" textLength="49" x="95.5" y="357.1543">Emblem</text><!--MD5=[33f9468dac3acff0ceb1c9b507370d0f]
class Gnome::Gio::EmblemedIcon--><rect fill="#FEFECE" filter="url(#ffqyma038vm4f)" height="32" id="Gnome::Gio::EmblemedIcon" style="stroke: #A80036; stroke-width: 1.5;" width="123" x="182.5" y="337"/><ellipse cx="197.5" cy="353" fill="#80FFFF" rx="11" ry="11" style="stroke: #A80036; stroke-width: 1.0;"/><path d="M200.4688,358.6406 Q199.8906,358.9375 199.25,359.0781 Q198.6094,359.2344 197.9063,359.2344 Q195.4063,359.2344 194.0781,357.5938 Q192.7656,355.9375 192.7656,352.8125 Q192.7656,349.6875 194.0781,348.0313 Q195.4063,346.375 197.9063,346.375 Q198.6094,346.375 199.25,346.5313 Q199.9063,346.6875 200.4688,346.9844 L200.4688,349.7031 Q199.8438,349.125 199.25,348.8594 Q198.6563,348.5781 198.0313,348.5781 Q196.6875,348.5781 196,349.6563 Q195.3125,350.7188 195.3125,352.8125 Q195.3125,354.9063 196,355.9844 Q196.6875,357.0469 198.0313,357.0469 Q198.6563,357.0469 199.25,356.7813 Q199.8438,356.5 200.4688,355.9219 L200.4688,358.6406 Z "/><text fill="#000000" font-family="sans-serif" font-size="12" lengthAdjust="spacingAndGlyphs" textLength="91" x="211.5" y="357.1543">EmblemedIcon</text><!--MD5=[5e6d2e0a48ff696a1eb947c6ff75f6e0]
class Gnome::Gio::ThemedIcon--><rect fill="#FEFECE" filter="url(#ffqyma038vm4f)" height="32" id="Gnome::Gio::ThemedIcon" style="stroke: #A80036; stroke-width: 1.5;" width="108" x="224" y="245"/><ellipse cx="239" cy="261" fill="#80FFFF" rx="11" ry="11" style="stroke: #A80036; stroke-width: 1.0;"/><path d="M241.9688,266.6406 Q241.3906,266.9375 240.75,267.0781 Q240.1094,267.2344 239.4063,267.2344 Q236.9063,267.2344 235.5781,265.5938 Q234.2656,263.9375 234.2656,260.8125 Q234.2656,257.6875 235.5781,256.0313 Q236.9063,254.375 239.4063,254.375 Q240.1094,254.375 240.75,254.5313 Q241.4063,254.6875 241.9688,254.9844 L241.9688,257.7031 Q241.3438,257.125 240.75,256.8594 Q240.1563,256.5781 239.5313,256.5781 Q238.1875,256.5781 237.5,257.6563 Q236.8125,258.7188 236.8125,260.8125 Q236.8125,262.9063 237.5,263.9844 Q238.1875,265.0469 239.5313,265.0469 Q240.1563,265.0469 240.75,264.7813 Q241.3438,264.5 241.9688,263.9219 L241.9688,266.6406 Z "/><text fill="#000000" font-family="sans-serif" font-size="12" lengthAdjust="spacingAndGlyphs" textLength="76" x="253" y="265.1543">ThemedIcon</text><!--MD5=[7f28fedf6ed3e7defd400fbbd584af1b]
class Gnome::Gdk3::Pixbuf--><rect fill="#FEFECE" filter="url(#ffqyma038vm4f)" height="32" id="Gnome::Gdk3::Pixbuf" style="stroke: #A80036; stroke-width: 1.5;" width="69" x="141.5" y="42"/><ellipse cx="156.5" cy="58" fill="#80FFFF" rx="11" ry="11" style="stroke: #A80036; stroke-width: 1.0;"/><path d="M159.4688,63.6406 Q158.8906,63.9375 158.25,64.0781 Q157.6094,64.2344 156.9063,64.2344 Q154.4063,64.2344 153.0781,62.5938 Q151.7656,60.9375 151.7656,57.8125 Q151.7656,54.6875 153.0781,53.0313 Q154.4063,51.375 156.9063,51.375 Q157.6094,51.375 158.25,51.5313 Q158.9063,51.6875 159.4688,51.9844 L159.4688,54.7031 Q158.8438,54.125 158.25,53.8594 Q157.6563,53.5781 157.0313,53.5781 Q155.6875,53.5781 155,54.6563 Q154.3125,55.7188 154.3125,57.8125 Q154.3125,59.9063 155,60.9844 Q155.6875,62.0469 157.0313,62.0469 Q157.6563,62.0469 158.25,61.7813 Q158.8438,61.5 159.4688,60.9219 L159.4688,63.6406 Z "/><text fill="#000000" font-family="sans-serif" font-size="12" lengthAdjust="spacingAndGlyphs" textLength="37" x="170.5" y="62.1543">Pixbuf</text><path d="M482.5,145 L482.5,161 L447.28,165 L482.5,169 L482.5,185.2656 A0,0 0 0 0 482.5,185.2656 L601.5,185.2656 A0,0 0 0 0 601.5,185.2656 L601.5,155 L591.5,145 L482.5,145 A0,0 0 0 0 482.5,145 " fill="#FBFB77" filter="url(#ffqyma038vm4f)" style="stroke: #A80036; stroke-width: 1.0;"/><path d="M591.5,145 L591.5,155 L601.5,155 L591.5,145 " fill="#FBFB77" style="stroke: #A80036; stroke-width: 1.0;"/><text fill="#000000" font-family="sans-serif" font-size="13" lengthAdjust="spacingAndGlyphs" textLength="98" x="488.5" y="162.0669">this class is not</text><text fill="#000000" font-family="sans-serif" font-size="13" lengthAdjust="spacingAndGlyphs" textLength="85" x="492.5" y="177.1997">implemented</text><!--MD5=[24cf288057592dc27d7f0d37df7a69fe]
reverse link Gnome::Gio::LoadableIcon to Gnome::Gio::FileIcon--><path codeLine="36" d="M375.9,199.11 C383.88,214.73 393.01,232.61 399.31,244.93 " fill="none" id="Gnome::Gio::LoadableIcon-backto-Gnome::Gio::FileIcon" style="stroke: #A80036; stroke-width: 1.0; stroke-dasharray: 7.0,7.0;"/><polygon fill="none" points="369.57,202.1,366.71,181.1,382.04,195.73,369.57,202.1" style="stroke: #A80036; stroke-width: 1.0;"/><!--MD5=[446a06cbaceff87f37ae9574554d22ad]
link Gnome::Gdk3::Pixbuf to Gnome::Gio::Icon--><path codeLine="38" d="M176,74.04 C176,88.31 176,110.28 176,128.94 " fill="none" id="Gnome::Gdk3::Pixbuf-to-Gnome::Gio::Icon" style="stroke: #A80036; stroke-width: 1.0; stroke-dasharray: 7.0,7.0;"/><polygon fill="none" points="183,128.98,176,148.98,169,128.98,183,128.98" style="stroke: #A80036; stroke-width: 1.0;"/><!--MD5=[5c7ef7e7926711d4b9e8108bfa07b588]
reverse link Gnome::Gio::Icon to Gnome::Gio::BytesIcon--><path codeLine="39" d="M143.57,194.49 C124.66,211.1 101.58,231.38 86.15,244.93 " fill="none" id="Gnome::Gio::Icon-backto-Gnome::Gio::BytesIcon" style="stroke: #A80036; stroke-width: 1.0; stroke-dasharray: 7.0,7.0;"/><polygon fill="none" points="139.16,189.04,158.81,181.1,148.4,199.56,139.16,189.04" style="stroke: #A80036; stroke-width: 1.0;"/><!--MD5=[ee3a33c30c05f1a898b02a275e0dfa37]
reverse link Gnome::Gio::Icon to Gnome::Gio::Emblem--><path codeLine="40" d="M163.35,200.1 C148.24,240.82 123.63,307.16 112.63,336.83 " fill="none" id="Gnome::Gio::Icon-backto-Gnome::Gio::Emblem" style="stroke: #A80036; stroke-width: 1.0; stroke-dasharray: 7.0,7.0;"/><polygon fill="none" points="156.83,197.54,170.35,181.22,169.96,202.41,156.83,197.54" style="stroke: #A80036; stroke-width: 1.0;"/><!--MD5=[635488ad0475b07120437b1aa96e3134]
reverse link Gnome::Gio::Icon to Gnome::Gio::EmblemedIcon--><path codeLine="41" d="M183.94,200.76 C189.43,222.92 197.45,252.04 207,277 C215.2,298.43 227.37,321.97 235.49,336.86 " fill="none" id="Gnome::Gio::Icon-backto-Gnome::Gio::EmblemedIcon" style="stroke: #A80036; stroke-width: 1.0; stroke-dasharray: 7.0,7.0;"/><polygon fill="none" points="177.06,202.08,179.25,181.01,190.68,198.85,177.06,202.08" style="stroke: #A80036; stroke-width: 1.0;"/><!--MD5=[35a4b889ebec2b752ed96e91d3c0d6b8]
reverse link Gnome::Gio::Icon to Gnome::Gio::LoadableIcon--><path codeLine="42" d="M255.74,165 C260.78,165 265.82,165 270.85,165 " fill="none" id="Gnome::Gio::Icon-backto-Gnome::Gio::LoadableIcon" style="stroke: #A80036; stroke-width: 1.0; stroke-dasharray: 7.0,7.0;"/><polygon fill="none" points="255.69,172,235.69,165,255.69,158,255.69,172" style="stroke: #A80036; stroke-width: 1.0;"/><!--MD5=[48774098c182a3ef46e06d60987aae03]
reverse link Gnome::Gio::Icon to Gnome::Gio::ThemedIcon--><path codeLine="43" d="M207.19,194.74 C225.16,211.31 247.02,231.45 261.65,244.93 " fill="none" id="Gnome::Gio::Icon-backto-Gnome::Gio::ThemedIcon" style="stroke: #A80036; stroke-width: 1.0; stroke-dasharray: 7.0,7.0;"/><polygon fill="none" points="202.35,199.8,192.39,181.1,211.84,189.51,202.35,199.8" style="stroke: #A80036; stroke-width: 1.0;"/><!--MD5=[852922b16f01ffe03e2ce91726687839]
@startuml

skinparam packageStyle rectangle
skinparam stereotypeCBackgroundColor #80ffff
set namespaceSeparator ::
hide empty members

'Classes and interfaces
'class Gnome::N::TopLevelClassSupport < Catch all class >

'Interface Gnome::GObject::Signal <Interface>
'class Gnome::GObject::Signal <<(R,#80ffff)>>

'Interface Gnome::Gio::AppInfo <Interface>
'class Gnome::Gio::AppInfo <<(R,#80ffff)>>

Interface Gnome::Gio::LoadableIcon <Interface>
class Gnome::Gio::LoadableIcon <<(R,#80ffff)>> #ffa0a0
note "this class is not\n implemented" as NLI
Gnome::Gio::LoadableIcon .right. NLI

Interface Gnome::Gio::Icon <Interface>
class Gnome::Gio::Icon <<(R,#80ffff)>>


'Class connections
'Gnome::N::TopLevelClassSupport <|- - Gnome::GObject::Object
'Gnome::GObject::Signal <|. Gnome::GObject::Object

'Gnome::GObject::Object <|- - - Gnome::Gio::AppInfoManager
'Gnome::GObject::Object <|- - - Gnome::Gio::AppLaunchContext
'Gnome::GObject::Object <|- - Gnome::Gio::AppInfo

'Gnome::Gio::AppInfo <- - Gnome::Gtk3::AppChooser

Gnome::Gio::LoadableIcon <|.. Gnome::Gio::FileIcon

Gnome::Gio::Icon <|.up. Gnome::Gdk3::Pixbuf
Gnome::Gio::Icon <|.. Gnome::Gio::BytesIcon
Gnome::Gio::Icon <|... Gnome::Gio::Emblem
Gnome::Gio::Icon <|... Gnome::Gio::EmblemedIcon
Gnome::Gio::Icon <|. Gnome::Gio::LoadableIcon
Gnome::Gio::Icon <|.. Gnome::Gio::ThemedIcon

@enduml

@startuml

skinparam packageStyle rectangle
skinparam stereotypeCBackgroundColor #80ffff
set namespaceSeparator ::
hide empty members




Interface Gnome::Gio::LoadableIcon <Interface>
class Gnome::Gio::LoadableIcon <<(R,#80ffff)>> #ffa0a0
note "this class is not\n implemented" as NLI
Gnome::Gio::LoadableIcon .right. NLI

Interface Gnome::Gio::Icon <Interface>
class Gnome::Gio::Icon <<(R,#80ffff)>>





Gnome::Gio::LoadableIcon <|.. Gnome::Gio::FileIcon

Gnome::Gio::Icon <|.up. Gnome::Gdk3::Pixbuf
Gnome::Gio::Icon <|.. Gnome::Gio::BytesIcon
Gnome::Gio::Icon <|... Gnome::Gio::Emblem
Gnome::Gio::Icon <|... Gnome::Gio::EmblemedIcon
Gnome::Gio::Icon <|. Gnome::Gio::LoadableIcon
Gnome::Gio::Icon <|.. Gnome::Gio::ThemedIcon

@enduml

PlantUML version 1.2020.19(Mon Oct 12 17:10:01 CEST 2020)
(GPL source distribution)
Java Runtime: OpenJDK Runtime Environment
JVM: OpenJDK 64-Bit Server VM
Default Encoding: UTF-8
Language: en
Country: US
--></g></svg>