<?xml version="1.0" encoding="UTF-8" standalone="no"?><svg xmlns="http://www.w3.org/2000/svg" xmlns:xlink="http://www.w3.org/1999/xlink" contentScriptType="application/ecmascript" contentStyleType="text/css" height="515px" preserveAspectRatio="none" style="width:607px;height:515px;" version="1.1" viewBox="0 0 607 515" width="607px" zoomAndPan="magnify"><defs><filter height="300%" id="fkn22ghqfrm0r" width="300%" x="-1" y="-1"><feGaussianBlur result="blurOut" stdDeviation="2.0"/><feColorMatrix in="blurOut" result="blurOut2" type="matrix" values="0 0 0 0 0 0 0 0 0 0 0 0 0 0 0 0 0 0 .4 0"/><feOffset dx="4.0" dy="4.0" in="blurOut2" result="blurOut3"/><feBlend in="SourceGraphic" in2="blurOut3" mode="normal"/></filter></defs><g><!--MD5=[b969295f0ec9b4fa482091c3e26049be]
cluster Gnome::N--><rect fill="#FFFFFF" filter="url(#fkn22ghqfrm0r)" height="83" style="stroke: #000000; stroke-width: 1.5;" width="302" x="157" y="7"/><text fill="#000000" font-family="sans-serif" font-size="14" font-weight="bold" lengthAdjust="spacingAndGlyphs" textLength="79" x="268.5" y="21.9951">Gnome::N</text><!--MD5=[2fb3f9b624b0544b9841d5da78ec0508]
cluster Gnome::GObject--><rect fill="#FFFFFF" filter="url(#fkn22ghqfrm0r)" height="83" style="stroke: #000000; stroke-width: 1.5;" width="271" x="89" y="114"/><text fill="#000000" font-family="sans-serif" font-size="14" font-weight="bold" lengthAdjust="spacingAndGlyphs" textLength="131" x="159" y="128.9951">Gnome::GObject</text><!--MD5=[1121a717c59c319a293e5a9c98dee73e]
cluster Gnome::Gio--><rect fill="#FFFFFF" filter="url(#fkn22ghqfrm0r)" height="175" style="stroke: #000000; stroke-width: 1.5;" width="588" x="7" y="328"/><text fill="#000000" font-family="sans-serif" font-size="14" font-weight="bold" lengthAdjust="spacingAndGlyphs" textLength="94" x="254" y="342.9951">Gnome::Gio</text><!--MD5=[0b8e281ccd00c72019a31d78e9f95b5d]
class Gnome::N::TopLevelClassSupport--><rect codeLine="9" fill="#FEFECE" filter="url(#fkn22ghqfrm0r)" height="32" id="Gnome::N::TopLevelClassSupport" style="stroke: #A80036; stroke-width: 1.5;" width="269" x="173.5" y="42"/><ellipse cx="188.5" cy="58" fill="#80FFFF" rx="11" ry="11" style="stroke: #A80036; stroke-width: 1.0;"/><path d="M191.4688,63.6406 Q190.8906,63.9375 190.25,64.0781 Q189.6094,64.2344 188.9063,64.2344 Q186.4063,64.2344 185.0781,62.5938 Q183.7656,60.9375 183.7656,57.8125 Q183.7656,54.6875 185.0781,53.0313 Q186.4063,51.375 188.9063,51.375 Q189.6094,51.375 190.25,51.5313 Q190.9063,51.6875 191.4688,51.9844 L191.4688,54.7031 Q190.8438,54.125 190.25,53.8594 Q189.6563,53.5781 189.0313,53.5781 Q187.6875,53.5781 187,54.6563 Q186.3125,55.7188 186.3125,57.8125 Q186.3125,59.9063 187,60.9844 Q187.6875,62.0469 189.0313,62.0469 Q189.6563,62.0469 190.25,61.7813 Q190.8438,61.5 191.4688,60.9219 L191.4688,63.6406 Z "/><text fill="#000000" font-family="sans-serif" font-size="12" lengthAdjust="spacingAndGlyphs" textLength="137" x="202.5" y="62.1807">TopLevelClassSupport</text><rect fill="#FFFFFF" height="15.9688" style="stroke: #000000; stroke-width: 1.0; stroke-dasharray: 2.0,2.0;" width="98" x="347.5" y="39"/><text fill="#000000" font-family="sans-serif" font-size="12" font-style="italic" lengthAdjust="spacingAndGlyphs" textLength="88" x="352.5" y="51.1387">Catch all class</text><!--MD5=[52303d185de782118d4739c052001bf2]
class Gnome::GObject::Signal--><rect codeLine="12" fill="#FEFECE" filter="url(#fkn22ghqfrm0r)" height="32" id="Gnome::GObject::Signal" style="stroke: #A80036; stroke-width: 1.5;" width="131" x="105.5" y="149"/><ellipse cx="120.5" cy="165" fill="#80FFFF" rx="11" ry="11" style="stroke: #A80036; stroke-width: 1.0;"/><path d="M121.7031,165.1406 Q122.0625,165.2188 122.3281,165.5 Q122.6094,165.7656 123,166.5469 L125.2344,171 L122.5469,171 L121.0469,167.875 Q120.9844,167.7344 120.875,167.5 Q120.2188,166.1094 119.3281,166.1094 L118.5469,166.1094 L118.5469,171 L116.1094,171 L116.1094,158.6094 L119.6406,158.6094 Q122.0313,158.6094 123.0625,159.4531 Q124.1094,160.2969 124.1094,162.2031 Q124.1094,163.4844 123.4844,164.25 Q122.875,165 121.7031,165.1406 Z M118.5469,160.6719 L118.5469,164.0469 L119.7031,164.0469 Q120.7188,164.0469 121.1406,163.6563 Q121.5781,163.25 121.5781,162.3438 Q121.5781,161.4531 121.1406,161.0625 Q120.7188,160.6719 119.7031,160.6719 L118.5469,160.6719 Z "/><text fill="#000000" font-family="sans-serif" font-size="12" lengthAdjust="spacingAndGlyphs" textLength="38" x="134.5" y="169.1807">Signal</text><rect fill="#FFFFFF" height="15.9688" style="stroke: #000000; stroke-width: 1.0; stroke-dasharray: 2.0,2.0;" width="59" x="180.5" y="146"/><text fill="#000000" font-family="sans-serif" font-size="12" font-style="italic" lengthAdjust="spacingAndGlyphs" textLength="57" x="181.5" y="158.1387">Interface</text><!--MD5=[c2016d28441601ceb0a74f47a4537d14]
class Gnome::GObject::Object--><rect fill="#FEFECE" filter="url(#fkn22ghqfrm0r)" height="32" id="Gnome::GObject::Object" style="stroke: #A80036; stroke-width: 1.5;" width="72" x="272" y="149"/><ellipse cx="287" cy="165" fill="#80FFFF" rx="11" ry="11" style="stroke: #A80036; stroke-width: 1.0;"/><path d="M289.9688,170.6406 Q289.3906,170.9375 288.75,171.0781 Q288.1094,171.2344 287.4063,171.2344 Q284.9063,171.2344 283.5781,169.5938 Q282.2656,167.9375 282.2656,164.8125 Q282.2656,161.6875 283.5781,160.0313 Q284.9063,158.375 287.4063,158.375 Q288.1094,158.375 288.75,158.5313 Q289.4063,158.6875 289.9688,158.9844 L289.9688,161.7031 Q289.3438,161.125 288.75,160.8594 Q288.1563,160.5781 287.5313,160.5781 Q286.1875,160.5781 285.5,161.6563 Q284.8125,162.7188 284.8125,164.8125 Q284.8125,166.9063 285.5,167.9844 Q286.1875,169.0469 287.5313,169.0469 Q288.1563,169.0469 288.75,168.7813 Q289.3438,168.5 289.9688,167.9219 L289.9688,170.6406 Z "/><text fill="#000000" font-family="sans-serif" font-size="12" lengthAdjust="spacingAndGlyphs" textLength="40" x="301" y="169.1807">Object</text><!--MD5=[877de48089b040fab6f3cc27ea4aeb5f]
class Gnome::Gio::MenuModel--><rect fill="#FEFECE" filter="url(#fkn22ghqfrm0r)" height="32" id="Gnome::Gio::MenuModel" style="stroke: #A80036; stroke-width: 1.5;" width="103" x="23.5" y="363"/><ellipse cx="38.5" cy="379" fill="#80FFFF" rx="11" ry="11" style="stroke: #A80036; stroke-width: 1.0;"/><path d="M41.4688,384.6406 Q40.8906,384.9375 40.25,385.0781 Q39.6094,385.2344 38.9063,385.2344 Q36.4063,385.2344 35.0781,383.5938 Q33.7656,381.9375 33.7656,378.8125 Q33.7656,375.6875 35.0781,374.0313 Q36.4063,372.375 38.9063,372.375 Q39.6094,372.375 40.25,372.5313 Q40.9063,372.6875 41.4688,372.9844 L41.4688,375.7031 Q40.8438,375.125 40.25,374.8594 Q39.6563,374.5781 39.0313,374.5781 Q37.6875,374.5781 37,375.6563 Q36.3125,376.7188 36.3125,378.8125 Q36.3125,380.9063 37,381.9844 Q37.6875,383.0469 39.0313,383.0469 Q39.6563,383.0469 40.25,382.7813 Q40.8438,382.5 41.4688,381.9219 L41.4688,384.6406 Z "/><text fill="#000000" font-family="sans-serif" font-size="12" lengthAdjust="spacingAndGlyphs" textLength="71" x="52.5" y="383.1807">MenuModel</text><!--MD5=[7da671293eb24849e0bd542876e61ae9]
class Gnome::Gio::MenuAttributeIter--><rect fill="#FEFECE" filter="url(#fkn22ghqfrm0r)" height="32" id="Gnome::Gio::MenuAttributeIter" style="stroke: #A80036; stroke-width: 1.5;" width="142" x="162" y="363"/><ellipse cx="177" cy="379" fill="#80FFFF" rx="11" ry="11" style="stroke: #A80036; stroke-width: 1.0;"/><path d="M179.9688,384.6406 Q179.3906,384.9375 178.75,385.0781 Q178.1094,385.2344 177.4063,385.2344 Q174.9063,385.2344 173.5781,383.5938 Q172.2656,381.9375 172.2656,378.8125 Q172.2656,375.6875 173.5781,374.0313 Q174.9063,372.375 177.4063,372.375 Q178.1094,372.375 178.75,372.5313 Q179.4063,372.6875 179.9688,372.9844 L179.9688,375.7031 Q179.3438,375.125 178.75,374.8594 Q178.1563,374.5781 177.5313,374.5781 Q176.1875,374.5781 175.5,375.6563 Q174.8125,376.7188 174.8125,378.8125 Q174.8125,380.9063 175.5,381.9844 Q176.1875,383.0469 177.5313,383.0469 Q178.1563,383.0469 178.75,382.7813 Q179.3438,382.5 179.9688,381.9219 L179.9688,384.6406 Z "/><text fill="#000000" font-family="sans-serif" font-size="12" lengthAdjust="spacingAndGlyphs" textLength="110" x="191" y="383.1807">MenuAttributeIter</text><!--MD5=[9adb13a6a57ffdf22505dba05e106f77]
class Gnome::Gio::MenuLinkIter--><rect fill="#FEFECE" filter="url(#fkn22ghqfrm0r)" height="32" id="Gnome::Gio::MenuLinkIter" style="stroke: #A80036; stroke-width: 1.5;" width="111" x="339.5" y="363"/><ellipse cx="354.5" cy="379" fill="#80FFFF" rx="11" ry="11" style="stroke: #A80036; stroke-width: 1.0;"/><path d="M357.4688,384.6406 Q356.8906,384.9375 356.25,385.0781 Q355.6094,385.2344 354.9063,385.2344 Q352.4063,385.2344 351.0781,383.5938 Q349.7656,381.9375 349.7656,378.8125 Q349.7656,375.6875 351.0781,374.0313 Q352.4063,372.375 354.9063,372.375 Q355.6094,372.375 356.25,372.5313 Q356.9063,372.6875 357.4688,372.9844 L357.4688,375.7031 Q356.8438,375.125 356.25,374.8594 Q355.6563,374.5781 355.0313,374.5781 Q353.6875,374.5781 353,375.6563 Q352.3125,376.7188 352.3125,378.8125 Q352.3125,380.9063 353,381.9844 Q353.6875,383.0469 355.0313,383.0469 Q355.6563,383.0469 356.25,382.7813 Q356.8438,382.5 357.4688,381.9219 L357.4688,384.6406 Z "/><text fill="#000000" font-family="sans-serif" font-size="12" lengthAdjust="spacingAndGlyphs" textLength="79" x="368.5" y="383.1807">MenuLinkIter</text><!--MD5=[435f0cf447615b6f9e29a94924973bdf]
class Gnome::Gio::MenuItem--><rect fill="#FEFECE" filter="url(#fkn22ghqfrm0r)" height="32" id="Gnome::Gio::MenuItem" style="stroke: #A80036; stroke-width: 1.5;" width="93" x="485.5" y="363"/><ellipse cx="500.5" cy="379" fill="#80FFFF" rx="11" ry="11" style="stroke: #A80036; stroke-width: 1.0;"/><path d="M503.4688,384.6406 Q502.8906,384.9375 502.25,385.0781 Q501.6094,385.2344 500.9063,385.2344 Q498.4063,385.2344 497.0781,383.5938 Q495.7656,381.9375 495.7656,378.8125 Q495.7656,375.6875 497.0781,374.0313 Q498.4063,372.375 500.9063,372.375 Q501.6094,372.375 502.25,372.5313 Q502.9063,372.6875 503.4688,372.9844 L503.4688,375.7031 Q502.8438,375.125 502.25,374.8594 Q501.6563,374.5781 501.0313,374.5781 Q499.6875,374.5781 499,375.6563 Q498.3125,376.7188 498.3125,378.8125 Q498.3125,380.9063 499,381.9844 Q499.6875,383.0469 501.0313,383.0469 Q501.6563,383.0469 502.25,382.7813 Q502.8438,382.5 503.4688,381.9219 L503.4688,384.6406 Z "/><text fill="#000000" font-family="sans-serif" font-size="12" lengthAdjust="spacingAndGlyphs" textLength="61" x="514.5" y="383.1807">MenuItem</text><!--MD5=[03e463f7b458378d1711028dac29b2d4]
class Gnome::Gio::Menu--><rect fill="#FEFECE" filter="url(#fkn22ghqfrm0r)" height="32" id="Gnome::Gio::Menu" style="stroke: #A80036; stroke-width: 1.5;" width="66" x="42" y="455"/><ellipse cx="57" cy="471" fill="#80FFFF" rx="11" ry="11" style="stroke: #A80036; stroke-width: 1.0;"/><path d="M59.9688,476.6406 Q59.3906,476.9375 58.75,477.0781 Q58.1094,477.2344 57.4063,477.2344 Q54.9063,477.2344 53.5781,475.5938 Q52.2656,473.9375 52.2656,470.8125 Q52.2656,467.6875 53.5781,466.0313 Q54.9063,464.375 57.4063,464.375 Q58.1094,464.375 58.75,464.5313 Q59.4063,464.6875 59.9688,464.9844 L59.9688,467.7031 Q59.3438,467.125 58.75,466.8594 Q58.1563,466.5781 57.5313,466.5781 Q56.1875,466.5781 55.5,467.6563 Q54.8125,468.7188 54.8125,470.8125 Q54.8125,472.9063 55.5,473.9844 Q56.1875,475.0469 57.5313,475.0469 Q58.1563,475.0469 58.75,474.7813 Q59.3438,474.5 59.9688,473.9219 L59.9688,476.6406 Z "/><text fill="#000000" font-family="sans-serif" font-size="12" lengthAdjust="spacingAndGlyphs" textLength="34" x="71" y="475.1807">Menu</text><!--MD5=[e23b679cf607d12ac81e9c5301595709]
reverse link Gnome::N::TopLevelClassSupport to Gnome::GObject::Object--><path codeLine="16" d="M308,94.1 C308,112.76 308,134.73 308,148.98 " fill="none" id="Gnome::N::TopLevelClassSupport-backto-Gnome::GObject::Object" style="stroke: #A80036; stroke-width: 1.0;"/><polygon fill="none" points="301,94.04,308,74.04,315,94.04,301,94.04" style="stroke: #A80036; stroke-width: 1.0;"/><!--MD5=[f8ffcf4587ba956cb48626a4231e4d21]
reverse link Gnome::GObject::Signal to Gnome::GObject::Object--><path codeLine="17" d="M256.77,165 C261.85,165 266.92,165 272,165 " fill="none" id="Gnome::GObject::Signal-backto-Gnome::GObject::Object" style="stroke: #A80036; stroke-width: 1.0; stroke-dasharray: 7.0,7.0;"/><polygon fill="none" points="256.56,172,236.56,165,256.56,158,256.56,172" style="stroke: #A80036; stroke-width: 1.0;"/><!--MD5=[4b3a485b8098539955d48a70c57d5602]
reverse link Gnome::GObject::Object to Gnome::Gio::MenuModel--><path codeLine="19" d="M276.43,194.73 C226.28,240.35 130.16,327.81 91.6,362.89 " fill="none" id="Gnome::GObject::Object-backto-Gnome::Gio::MenuModel" style="stroke: #A80036; stroke-width: 1.0;"/><polygon fill="none" points="271.74,189.53,291.24,181.25,281.16,199.88,271.74,189.53" style="stroke: #A80036; stroke-width: 1.0;"/><!--MD5=[0af9b3ac5a7ff83cfbea2cf2e83fcd8c]
reverse link Gnome::GObject::Object to Gnome::Gio::MenuAttributeIter--><path codeLine="20" d="M295.88,200.26 C279.31,247.1 250.27,329.18 238.34,362.89 " fill="none" id="Gnome::GObject::Object-backto-Gnome::Gio::MenuAttributeIter" style="stroke: #A80036; stroke-width: 1.0;"/><polygon fill="none" points="289.34,197.77,302.61,181.25,302.53,202.44,289.34,197.77" style="stroke: #A80036; stroke-width: 1.0;"/><!--MD5=[7d73102a171244f0d3bb0882d74fb97c]
reverse link Gnome::GObject::Object to Gnome::Gio::MenuLinkIter--><path codeLine="21" d="M321.93,199.94 C341.13,246.73 374.93,329.1 388.8,362.89 " fill="none" id="Gnome::GObject::Object-backto-Gnome::Gio::MenuLinkIter" style="stroke: #A80036; stroke-width: 1.0;"/><polygon fill="none" points="315.37,202.41,314.26,181.25,328.33,197.09,315.37,202.41" style="stroke: #A80036; stroke-width: 1.0;"/><!--MD5=[5bf61fd2b72bd42a64c571bde4227f15]
reverse link Gnome::GObject::Object to Gnome::Gio::MenuItem--><path codeLine="22" d="M338.67,195.02 C386.96,240.73 479.05,327.89 516.04,362.89 " fill="none" id="Gnome::GObject::Object-backto-Gnome::Gio::MenuItem" style="stroke: #A80036; stroke-width: 1.0;"/><polygon fill="none" points="333.82,200.08,324.11,181.25,343.45,189.91,333.82,200.08" style="stroke: #A80036; stroke-width: 1.0;"/><!--MD5=[99b2300ddd5483128c719ca5df043fa4]
reverse link Gnome::Gio::MenuModel to Gnome::Gio::Menu--><path codeLine="24" d="M75,415.61 C75,429.31 75,444.22 75,454.96 " fill="none" id="Gnome::Gio::MenuModel-backto-Gnome::Gio::Menu" style="stroke: #A80036; stroke-width: 1.0;"/><polygon fill="none" points="68,415.27,75,395.27,82,415.27,68,415.27" style="stroke: #A80036; stroke-width: 1.0;"/><!--MD5=[f93378b63f4d9363b7aeb533902a2d35]
@startuml

skinparam packageStyle rectangle
skinparam stereotypeCBackgroundColor #80ffff
set namespaceSeparator ::
hide empty members

'Classes and interfaces
class Gnome::N::TopLevelClassSupport < Catch all class >

Interface Gnome::GObject::Signal <Interface>
class Gnome::GObject::Signal <<(R,#80ffff)>>


'Class connections
Gnome::N::TopLevelClassSupport <|- - Gnome::GObject::Object
Gnome::GObject::Signal <|. Gnome::GObject::Object

Gnome::GObject::Object <|- - Gnome::Gio::MenuModel
Gnome::GObject::Object <|- - Gnome::Gio::MenuAttributeIter
Gnome::GObject::Object <|- - Gnome::Gio::MenuLinkIter
Gnome::GObject::Object <|- - - - Gnome::Gio::MenuItem
'Gnome::GObject::Object <|- - - Gnome::Gio::
Gnome::Gio::MenuModel <|- - Gnome::Gio::Menu
'Gnome::Gio::MenuModel <|- - Gnome::Gio::GDBusMenuModel

@enduml

@startuml

skinparam packageStyle rectangle
skinparam stereotypeCBackgroundColor #80ffff
set namespaceSeparator ::
hide empty members

class Gnome::N::TopLevelClassSupport < Catch all class >

Interface Gnome::GObject::Signal <Interface>
class Gnome::GObject::Signal <<(R,#80ffff)>>


Gnome::N::TopLevelClassSupport <|- - Gnome::GObject::Object
Gnome::GObject::Signal <|. Gnome::GObject::Object

Gnome::GObject::Object <|- - Gnome::Gio::MenuModel
Gnome::GObject::Object <|- - Gnome::Gio::MenuAttributeIter
Gnome::GObject::Object <|- - Gnome::Gio::MenuLinkIter
Gnome::GObject::Object <|- - - - Gnome::Gio::MenuItem
Gnome::Gio::MenuModel <|- - Gnome::Gio::Menu

@enduml

PlantUML version 1.2020.19(Mon Oct 12 17:10:01 CEST 2020)
(GPL source distribution)
Java Runtime: OpenJDK Runtime Environment
JVM: OpenJDK 64-Bit Server VM
Default Encoding: UTF-8
Language: en
Country: null
--></g></svg>