<?xml version="1.0" encoding="UTF-8" standalone="no"?><svg xmlns="http://www.w3.org/2000/svg" xmlns:xlink="http://www.w3.org/1999/xlink" contentScriptType="application/ecmascript" contentStyleType="text/css" height="316px" preserveAspectRatio="none" style="width:409px;height:316px;" version="1.1" viewBox="0 0 409 316" width="409px" zoomAndPan="magnify"><defs><filter height="300%" id="f1iq9lyaqjco60" width="300%" x="-1" y="-1"><feGaussianBlur result="blurOut" stdDeviation="2.0"/><feColorMatrix in="blurOut" result="blurOut2" type="matrix" values="0 0 0 0 0 0 0 0 0 0 0 0 0 0 0 0 0 0 .4 0"/><feOffset dx="4.0" dy="4.0" in="blurOut2" result="blurOut3"/><feBlend in="SourceGraphic" in2="blurOut3" mode="normal"/></filter></defs><g><!--MD5=[b969295f0ec9b4fa482091c3e26049be]
cluster Gnome::N--><rect fill="#FFFFFF" filter="url(#f1iq9lyaqjco60)" height="83" style="stroke: #000000; stroke-width: 1.5;" width="302" x="95" y="7"/><text fill="#000000" font-family="sans-serif" font-size="14" font-weight="bold" lengthAdjust="spacingAndGlyphs" textLength="79" x="206.5" y="21.9951">Gnome::N</text><!--MD5=[2fb3f9b624b0544b9841d5da78ec0508]
cluster Gnome::GObject--><rect fill="#FFFFFF" filter="url(#f1iq9lyaqjco60)" height="83" style="stroke: #000000; stroke-width: 1.5;" width="271" x="27" y="114"/><text fill="#000000" font-family="sans-serif" font-size="14" font-weight="bold" lengthAdjust="spacingAndGlyphs" textLength="131" x="97" y="128.9951">Gnome::GObject</text><!--MD5=[1121a717c59c319a293e5a9c98dee73e]
cluster Gnome::Gio--><rect fill="#FFFFFF" filter="url(#f1iq9lyaqjco60)" height="83" style="stroke: #000000; stroke-width: 1.5;" width="311" x="7" y="221"/><text fill="#000000" font-family="sans-serif" font-size="14" font-weight="bold" lengthAdjust="spacingAndGlyphs" textLength="94" x="115.5" y="235.9951">Gnome::Gio</text><!--MD5=[0b8e281ccd00c72019a31d78e9f95b5d]
class Gnome::N::TopLevelClassSupport--><rect codeLine="9" fill="#FEFECE" filter="url(#f1iq9lyaqjco60)" height="32" id="Gnome::N::TopLevelClassSupport" style="stroke: #A80036; stroke-width: 1.5;" width="269" x="111.5" y="42"/><ellipse cx="126.5" cy="58" fill="#80FFFF" rx="11" ry="11" style="stroke: #A80036; stroke-width: 1.0;"/><path d="M129.4688,63.6406 Q128.8906,63.9375 128.25,64.0781 Q127.6094,64.2344 126.9063,64.2344 Q124.4063,64.2344 123.0781,62.5938 Q121.7656,60.9375 121.7656,57.8125 Q121.7656,54.6875 123.0781,53.0313 Q124.4063,51.375 126.9063,51.375 Q127.6094,51.375 128.25,51.5313 Q128.9063,51.6875 129.4688,51.9844 L129.4688,54.7031 Q128.8438,54.125 128.25,53.8594 Q127.6563,53.5781 127.0313,53.5781 Q125.6875,53.5781 125,54.6563 Q124.3125,55.7188 124.3125,57.8125 Q124.3125,59.9063 125,60.9844 Q125.6875,62.0469 127.0313,62.0469 Q127.6563,62.0469 128.25,61.7813 Q128.8438,61.5 129.4688,60.9219 L129.4688,63.6406 Z "/><text fill="#000000" font-family="sans-serif" font-size="12" lengthAdjust="spacingAndGlyphs" textLength="137" x="140.5" y="62.1807">TopLevelClassSupport</text><rect fill="#FFFFFF" height="15.9688" style="stroke: #000000; stroke-width: 1.0; stroke-dasharray: 2.0,2.0;" width="98" x="285.5" y="39"/><text fill="#000000" font-family="sans-serif" font-size="12" font-style="italic" lengthAdjust="spacingAndGlyphs" textLength="88" x="290.5" y="51.1387">Catch all class</text><!--MD5=[52303d185de782118d4739c052001bf2]
class Gnome::GObject::Signal--><rect codeLine="12" fill="#FEFECE" filter="url(#f1iq9lyaqjco60)" height="32" id="Gnome::GObject::Signal" style="stroke: #A80036; stroke-width: 1.5;" width="131" x="43.5" y="149"/><ellipse cx="58.5" cy="165" fill="#80FFFF" rx="11" ry="11" style="stroke: #A80036; stroke-width: 1.0;"/><path d="M59.7031,165.1406 Q60.0625,165.2188 60.3281,165.5 Q60.6094,165.7656 61,166.5469 L63.2344,171 L60.5469,171 L59.0469,167.875 Q58.9844,167.7344 58.875,167.5 Q58.2188,166.1094 57.3281,166.1094 L56.5469,166.1094 L56.5469,171 L54.1094,171 L54.1094,158.6094 L57.6406,158.6094 Q60.0313,158.6094 61.0625,159.4531 Q62.1094,160.2969 62.1094,162.2031 Q62.1094,163.4844 61.4844,164.25 Q60.875,165 59.7031,165.1406 Z M56.5469,160.6719 L56.5469,164.0469 L57.7031,164.0469 Q58.7188,164.0469 59.1406,163.6563 Q59.5781,163.25 59.5781,162.3438 Q59.5781,161.4531 59.1406,161.0625 Q58.7188,160.6719 57.7031,160.6719 L56.5469,160.6719 Z "/><text fill="#000000" font-family="sans-serif" font-size="12" lengthAdjust="spacingAndGlyphs" textLength="38" x="72.5" y="169.1807">Signal</text><rect fill="#FFFFFF" height="15.9688" style="stroke: #000000; stroke-width: 1.0; stroke-dasharray: 2.0,2.0;" width="59" x="118.5" y="146"/><text fill="#000000" font-family="sans-serif" font-size="12" font-style="italic" lengthAdjust="spacingAndGlyphs" textLength="57" x="119.5" y="158.1387">Interface</text><!--MD5=[c2016d28441601ceb0a74f47a4537d14]
class Gnome::GObject::Object--><rect fill="#FEFECE" filter="url(#f1iq9lyaqjco60)" height="32" id="Gnome::GObject::Object" style="stroke: #A80036; stroke-width: 1.5;" width="72" x="210" y="149"/><ellipse cx="225" cy="165" fill="#80FFFF" rx="11" ry="11" style="stroke: #A80036; stroke-width: 1.0;"/><path d="M227.9688,170.6406 Q227.3906,170.9375 226.75,171.0781 Q226.1094,171.2344 225.4063,171.2344 Q222.9063,171.2344 221.5781,169.5938 Q220.2656,167.9375 220.2656,164.8125 Q220.2656,161.6875 221.5781,160.0313 Q222.9063,158.375 225.4063,158.375 Q226.1094,158.375 226.75,158.5313 Q227.4063,158.6875 227.9688,158.9844 L227.9688,161.7031 Q227.3438,161.125 226.75,160.8594 Q226.1563,160.5781 225.5313,160.5781 Q224.1875,160.5781 223.5,161.6563 Q222.8125,162.7188 222.8125,164.8125 Q222.8125,166.9063 223.5,167.9844 Q224.1875,169.0469 225.5313,169.0469 Q226.1563,169.0469 226.75,168.7813 Q227.3438,168.5 227.9688,167.9219 L227.9688,170.6406 Z "/><text fill="#000000" font-family="sans-serif" font-size="12" lengthAdjust="spacingAndGlyphs" textLength="40" x="239" y="169.1807">Object</text><!--MD5=[80d3cee8a8ce79efe3914b6d6cd2f081]
class Gnome::Gio::Action--><rect codeLine="15" fill="#FEFECE" filter="url(#f1iq9lyaqjco60)" height="32" id="Gnome::Gio::Action" style="stroke: #A80036; stroke-width: 1.5;" width="132" x="23" y="256"/><ellipse cx="38" cy="272" fill="#80FFFF" rx="11" ry="11" style="stroke: #A80036; stroke-width: 1.0;"/><path d="M39.2031,272.1406 Q39.5625,272.2188 39.8281,272.5 Q40.1094,272.7656 40.5,273.5469 L42.7344,278 L40.0469,278 L38.5469,274.875 Q38.4844,274.7344 38.375,274.5 Q37.7188,273.1094 36.8281,273.1094 L36.0469,273.1094 L36.0469,278 L33.6094,278 L33.6094,265.6094 L37.1406,265.6094 Q39.5313,265.6094 40.5625,266.4531 Q41.6094,267.2969 41.6094,269.2031 Q41.6094,270.4844 40.9844,271.25 Q40.375,272 39.2031,272.1406 Z M36.0469,267.6719 L36.0469,271.0469 L37.2031,271.0469 Q38.2188,271.0469 38.6406,270.6563 Q39.0781,270.25 39.0781,269.3438 Q39.0781,268.4531 38.6406,268.0625 Q38.2188,267.6719 37.2031,267.6719 L36.0469,267.6719 Z "/><text fill="#000000" font-family="sans-serif" font-size="12" lengthAdjust="spacingAndGlyphs" textLength="39" x="52" y="276.1807">Action</text><rect fill="#FFFFFF" height="15.9688" style="stroke: #000000; stroke-width: 1.0; stroke-dasharray: 2.0,2.0;" width="59" x="99" y="253"/><text fill="#000000" font-family="sans-serif" font-size="12" font-style="italic" lengthAdjust="spacingAndGlyphs" textLength="57" x="100" y="265.1387">Interface</text><!--MD5=[49a849ef77bfed1596d666b45315cd02]
class Gnome::Gio::SimpleAction--><rect fill="#FEFECE" filter="url(#f1iq9lyaqjco60)" height="32" id="Gnome::Gio::SimpleAction" style="stroke: #A80036; stroke-width: 1.5;" width="112" x="190" y="256"/><ellipse cx="205" cy="272" fill="#80FFFF" rx="11" ry="11" style="stroke: #A80036; stroke-width: 1.0;"/><path d="M207.9688,277.6406 Q207.3906,277.9375 206.75,278.0781 Q206.1094,278.2344 205.4063,278.2344 Q202.9063,278.2344 201.5781,276.5938 Q200.2656,274.9375 200.2656,271.8125 Q200.2656,268.6875 201.5781,267.0313 Q202.9063,265.375 205.4063,265.375 Q206.1094,265.375 206.75,265.5313 Q207.4063,265.6875 207.9688,265.9844 L207.9688,268.7031 Q207.3438,268.125 206.75,267.8594 Q206.1563,267.5781 205.5313,267.5781 Q204.1875,267.5781 203.5,268.6563 Q202.8125,269.7188 202.8125,271.8125 Q202.8125,273.9063 203.5,274.9844 Q204.1875,276.0469 205.5313,276.0469 Q206.1563,276.0469 206.75,275.7813 Q207.3438,275.5 207.9688,274.9219 L207.9688,277.6406 Z "/><text fill="#000000" font-family="sans-serif" font-size="12" lengthAdjust="spacingAndGlyphs" textLength="80" x="219" y="276.1807">SimpleAction</text><!--MD5=[e23b679cf607d12ac81e9c5301595709]
reverse link Gnome::N::TopLevelClassSupport to Gnome::GObject::Object--><path codeLine="18" d="M246,94.1 C246,112.76 246,134.73 246,148.98 " fill="none" id="Gnome::N::TopLevelClassSupport-backto-Gnome::GObject::Object" style="stroke: #A80036; stroke-width: 1.0;"/><polygon fill="none" points="239,94.04,246,74.04,253,94.04,239,94.04" style="stroke: #A80036; stroke-width: 1.0;"/><!--MD5=[f8ffcf4587ba956cb48626a4231e4d21]
reverse link Gnome::GObject::Signal to Gnome::GObject::Object--><path codeLine="19" d="M194.77,165 C199.85,165 204.92,165 210,165 " fill="none" id="Gnome::GObject::Signal-backto-Gnome::GObject::Object" style="stroke: #A80036; stroke-width: 1.0; stroke-dasharray: 7.0,7.0;"/><polygon fill="none" points="194.56,172,174.56,165,194.56,158,194.56,172" style="stroke: #A80036; stroke-width: 1.0;"/><!--MD5=[7385ef04074cfd4e469b8e2bb7f03ca5]
reverse link Gnome::GObject::Object to Gnome::Gio::SimpleAction--><path codeLine="21" d="M246,201.1 C246,219.76 246,241.73 246,255.98 " fill="none" id="Gnome::GObject::Object-backto-Gnome::Gio::SimpleAction" style="stroke: #A80036; stroke-width: 1.0;"/><polygon fill="none" points="239,201.04,246,181.04,253,201.04,239,201.04" style="stroke: #A80036; stroke-width: 1.0;"/><!--MD5=[95fd1da15393784932310ca6c8005a9e]
reverse link Gnome::Gio::Action to Gnome::Gio::SimpleAction--><path codeLine="22" d="M175.32,272 C180.21,272 185.09,272 189.98,272 " fill="none" id="Gnome::Gio::Action-backto-Gnome::Gio::SimpleAction" style="stroke: #A80036; stroke-width: 1.0; stroke-dasharray: 7.0,7.0;"/><polygon fill="none" points="175.23,279,155.23,272,175.23,265,175.23,279" style="stroke: #A80036; stroke-width: 1.0;"/><!--MD5=[3e502cb048f7fe4472e8bb6436a389b6]
@startuml

skinparam packageStyle rectangle
skinparam stereotypeCBackgroundColor #80ffff
set namespaceSeparator ::
hide members

'Class and interface decorations
class Gnome::N::TopLevelClassSupport < Catch all class >

Interface Gnome::GObject::Signal <Interface>
class Gnome::GObject::Signal <<(R,#80ffff)>>

Interface Gnome::Gio::Action <Interface>
class Gnome::Gio::Action <<(R,#80ffff)>>

'Class connections
Gnome::N::TopLevelClassSupport <|- - Gnome::GObject::Object
Gnome::GObject::Signal <|. Gnome::GObject::Object

Gnome::GObject::Object <|- - Gnome::Gio::SimpleAction
Gnome::Gio::Action <|. Gnome::Gio::SimpleAction

@enduml

@startuml

skinparam packageStyle rectangle
skinparam stereotypeCBackgroundColor #80ffff
set namespaceSeparator ::
hide members

class Gnome::N::TopLevelClassSupport < Catch all class >

Interface Gnome::GObject::Signal <Interface>
class Gnome::GObject::Signal <<(R,#80ffff)>>

Interface Gnome::Gio::Action <Interface>
class Gnome::Gio::Action <<(R,#80ffff)>>

Gnome::N::TopLevelClassSupport <|- - Gnome::GObject::Object
Gnome::GObject::Signal <|. Gnome::GObject::Object

Gnome::GObject::Object <|- - Gnome::Gio::SimpleAction
Gnome::Gio::Action <|. Gnome::Gio::SimpleAction

@enduml

PlantUML version 1.2020.19(Mon Oct 12 17:10:01 CEST 2020)
(GPL source distribution)
Java Runtime: OpenJDK Runtime Environment
JVM: OpenJDK 64-Bit Server VM
Default Encoding: UTF-8
Language: en
Country: null
--></g></svg>