<?xml version="1.0" encoding="UTF-8" standalone="no"?><svg xmlns="http://www.w3.org/2000/svg" xmlns:xlink="http://www.w3.org/1999/xlink" contentScriptType="application/ecmascript" contentStyleType="text/css" height="316px" preserveAspectRatio="none" style="width:395px;height:316px;" version="1.1" viewBox="0 0 395 316" width="395px" zoomAndPan="magnify"><defs><filter height="300%" id="f198brk1mkxa57" width="300%" x="-1" y="-1"><feGaussianBlur result="blurOut" stdDeviation="2.0"/><feColorMatrix in="blurOut" result="blurOut2" type="matrix" values="0 0 0 0 0 0 0 0 0 0 0 0 0 0 0 0 0 0 .4 0"/><feOffset dx="4.0" dy="4.0" in="blurOut2" result="blurOut3"/><feBlend in="SourceGraphic" in2="blurOut3" mode="normal"/></filter></defs><g><!--MD5=[b969295f0ec9b4fa482091c3e26049be]
cluster Gnome::N--><rect fill="#FFFFFF" filter="url(#f198brk1mkxa57)" height="83" style="stroke: #000000; stroke-width: 1.5;" width="302" x="81" y="7"/><text fill="#000000" font-family="sans-serif" font-size="14" font-weight="bold" lengthAdjust="spacingAndGlyphs" textLength="79" x="192.5" y="21.9951">Gnome::N</text><!--MD5=[2fb3f9b624b0544b9841d5da78ec0508]
cluster Gnome::GObject--><rect fill="#FFFFFF" filter="url(#f198brk1mkxa57)" height="83" style="stroke: #000000; stroke-width: 1.5;" width="271" x="13" y="114"/><text fill="#000000" font-family="sans-serif" font-size="14" font-weight="bold" lengthAdjust="spacingAndGlyphs" textLength="131" x="83" y="128.9951">Gnome::GObject</text><!--MD5=[1121a717c59c319a293e5a9c98dee73e]
cluster Gnome::Gio--><rect fill="#FFFFFF" filter="url(#f198brk1mkxa57)" height="83" style="stroke: #000000; stroke-width: 1.5;" width="295" x="7" y="221"/><text fill="#000000" font-family="sans-serif" font-size="14" font-weight="bold" lengthAdjust="spacingAndGlyphs" textLength="94" x="107.5" y="235.9951">Gnome::Gio</text><!--MD5=[0b8e281ccd00c72019a31d78e9f95b5d]
class Gnome::N::TopLevelClassSupport--><rect codeLine="9" fill="#FEFECE" filter="url(#f198brk1mkxa57)" height="32" id="Gnome::N::TopLevelClassSupport" style="stroke: #A80036; stroke-width: 1.5;" width="269" x="97.5" y="42"/><ellipse cx="112.5" cy="58" fill="#80FFFF" rx="11" ry="11" style="stroke: #A80036; stroke-width: 1.0;"/><path d="M115.4688,63.6406 Q114.8906,63.9375 114.25,64.0781 Q113.6094,64.2344 112.9063,64.2344 Q110.4063,64.2344 109.0781,62.5938 Q107.7656,60.9375 107.7656,57.8125 Q107.7656,54.6875 109.0781,53.0313 Q110.4063,51.375 112.9063,51.375 Q113.6094,51.375 114.25,51.5313 Q114.9063,51.6875 115.4688,51.9844 L115.4688,54.7031 Q114.8438,54.125 114.25,53.8594 Q113.6563,53.5781 113.0313,53.5781 Q111.6875,53.5781 111,54.6563 Q110.3125,55.7188 110.3125,57.8125 Q110.3125,59.9063 111,60.9844 Q111.6875,62.0469 113.0313,62.0469 Q113.6563,62.0469 114.25,61.7813 Q114.8438,61.5 115.4688,60.9219 L115.4688,63.6406 Z "/><text fill="#000000" font-family="sans-serif" font-size="12" lengthAdjust="spacingAndGlyphs" textLength="137" x="126.5" y="62.1543">TopLevelClassSupport</text><rect fill="#FFFFFF" height="15.9688" style="stroke: #000000; stroke-width: 1.0; stroke-dasharray: 2.0,2.0;" width="98" x="271.5" y="39"/><text fill="#000000" font-family="sans-serif" font-size="12" font-style="italic" lengthAdjust="spacingAndGlyphs" textLength="88" x="276.5" y="51.1387">Catch all class</text><!--MD5=[52303d185de782118d4739c052001bf2]
class Gnome::GObject::Signal--><rect codeLine="12" fill="#FEFECE" filter="url(#f198brk1mkxa57)" height="32" id="Gnome::GObject::Signal" style="stroke: #A80036; stroke-width: 1.5;" width="131" x="29.5" y="149"/><ellipse cx="44.5" cy="165" fill="#80FFFF" rx="11" ry="11" style="stroke: #A80036; stroke-width: 1.0;"/><path d="M45.7031,165.1406 Q46.0625,165.2188 46.3281,165.5 Q46.6094,165.7656 47,166.5469 L49.2344,171 L46.5469,171 L45.0469,167.875 Q44.9844,167.7344 44.875,167.5 Q44.2188,166.1094 43.3281,166.1094 L42.5469,166.1094 L42.5469,171 L40.1094,171 L40.1094,158.6094 L43.6406,158.6094 Q46.0313,158.6094 47.0625,159.4531 Q48.1094,160.2969 48.1094,162.2031 Q48.1094,163.4844 47.4844,164.25 Q46.875,165 45.7031,165.1406 Z M42.5469,160.6719 L42.5469,164.0469 L43.7031,164.0469 Q44.7188,164.0469 45.1406,163.6563 Q45.5781,163.25 45.5781,162.3438 Q45.5781,161.4531 45.1406,161.0625 Q44.7188,160.6719 43.7031,160.6719 L42.5469,160.6719 Z "/><text fill="#000000" font-family="sans-serif" font-size="12" lengthAdjust="spacingAndGlyphs" textLength="38" x="58.5" y="169.1543">Signal</text><rect fill="#FFFFFF" height="15.9688" style="stroke: #000000; stroke-width: 1.0; stroke-dasharray: 2.0,2.0;" width="59" x="104.5" y="146"/><text fill="#000000" font-family="sans-serif" font-size="12" font-style="italic" lengthAdjust="spacingAndGlyphs" textLength="57" x="105.5" y="158.1387">Interface</text><!--MD5=[c2016d28441601ceb0a74f47a4537d14]
class Gnome::GObject::Object--><rect fill="#FEFECE" filter="url(#f198brk1mkxa57)" height="32" id="Gnome::GObject::Object" style="stroke: #A80036; stroke-width: 1.5;" width="72" x="196" y="149"/><ellipse cx="211" cy="165" fill="#80FFFF" rx="11" ry="11" style="stroke: #A80036; stroke-width: 1.0;"/><path d="M213.9688,170.6406 Q213.3906,170.9375 212.75,171.0781 Q212.1094,171.2344 211.4063,171.2344 Q208.9063,171.2344 207.5781,169.5938 Q206.2656,167.9375 206.2656,164.8125 Q206.2656,161.6875 207.5781,160.0313 Q208.9063,158.375 211.4063,158.375 Q212.1094,158.375 212.75,158.5313 Q213.4063,158.6875 213.9688,158.9844 L213.9688,161.7031 Q213.3438,161.125 212.75,160.8594 Q212.1563,160.5781 211.5313,160.5781 Q210.1875,160.5781 209.5,161.6563 Q208.8125,162.7188 208.8125,164.8125 Q208.8125,166.9063 209.5,167.9844 Q210.1875,169.0469 211.5313,169.0469 Q212.1563,169.0469 212.75,168.7813 Q213.3438,168.5 213.9688,167.9219 L213.9688,170.6406 Z "/><text fill="#000000" font-family="sans-serif" font-size="12" lengthAdjust="spacingAndGlyphs" textLength="40" x="225" y="169.1543">Object</text><!--MD5=[7e1a53d6d423fee421c9e5d585b6d673]
class Gnome::Gio::Icon--><rect codeLine="15" fill="#FEFECE" filter="url(#f198brk1mkxa57)" height="32" id="Gnome::Gio::Icon" style="stroke: #A80036; stroke-width: 1.5;" width="119" x="23.5" y="256"/><ellipse cx="38.5" cy="272" fill="#80FFFF" rx="11" ry="11" style="stroke: #A80036; stroke-width: 1.0;"/><path d="M39.7031,272.1406 Q40.0625,272.2188 40.3281,272.5 Q40.6094,272.7656 41,273.5469 L43.2344,278 L40.5469,278 L39.0469,274.875 Q38.9844,274.7344 38.875,274.5 Q38.2188,273.1094 37.3281,273.1094 L36.5469,273.1094 L36.5469,278 L34.1094,278 L34.1094,265.6094 L37.6406,265.6094 Q40.0313,265.6094 41.0625,266.4531 Q42.1094,267.2969 42.1094,269.2031 Q42.1094,270.4844 41.4844,271.25 Q40.875,272 39.7031,272.1406 Z M36.5469,267.6719 L36.5469,271.0469 L37.7031,271.0469 Q38.7188,271.0469 39.1406,270.6563 Q39.5781,270.25 39.5781,269.3438 Q39.5781,268.4531 39.1406,268.0625 Q38.7188,267.6719 37.7031,267.6719 L36.5469,267.6719 Z "/><text fill="#000000" font-family="sans-serif" font-size="12" lengthAdjust="spacingAndGlyphs" textLength="26" x="52.5" y="276.1543">Icon</text><rect fill="#FFFFFF" height="15.9688" style="stroke: #000000; stroke-width: 1.0; stroke-dasharray: 2.0,2.0;" width="59" x="86.5" y="253"/><text fill="#000000" font-family="sans-serif" font-size="12" font-style="italic" lengthAdjust="spacingAndGlyphs" textLength="57" x="87.5" y="265.1387">Interface</text><!--MD5=[5e6d2e0a48ff696a1eb947c6ff75f6e0]
class Gnome::Gio::ThemedIcon--><rect fill="#FEFECE" filter="url(#f198brk1mkxa57)" height="32" id="Gnome::Gio::ThemedIcon" style="stroke: #A80036; stroke-width: 1.5;" width="108" x="178" y="256"/><ellipse cx="193" cy="272" fill="#80FFFF" rx="11" ry="11" style="stroke: #A80036; stroke-width: 1.0;"/><path d="M195.9688,277.6406 Q195.3906,277.9375 194.75,278.0781 Q194.1094,278.2344 193.4063,278.2344 Q190.9063,278.2344 189.5781,276.5938 Q188.2656,274.9375 188.2656,271.8125 Q188.2656,268.6875 189.5781,267.0313 Q190.9063,265.375 193.4063,265.375 Q194.1094,265.375 194.75,265.5313 Q195.4063,265.6875 195.9688,265.9844 L195.9688,268.7031 Q195.3438,268.125 194.75,267.8594 Q194.1563,267.5781 193.5313,267.5781 Q192.1875,267.5781 191.5,268.6563 Q190.8125,269.7188 190.8125,271.8125 Q190.8125,273.9063 191.5,274.9844 Q192.1875,276.0469 193.5313,276.0469 Q194.1563,276.0469 194.75,275.7813 Q195.3438,275.5 195.9688,274.9219 L195.9688,277.6406 Z "/><text fill="#000000" font-family="sans-serif" font-size="12" lengthAdjust="spacingAndGlyphs" textLength="76" x="207" y="276.1543">ThemedIcon</text><!--MD5=[e23b679cf607d12ac81e9c5301595709]
reverse link Gnome::N::TopLevelClassSupport to Gnome::GObject::Object--><path codeLine="19" d="M232,94.1 C232,112.76 232,134.73 232,148.98 " fill="none" id="Gnome::N::TopLevelClassSupport-backto-Gnome::GObject::Object" style="stroke: #A80036; stroke-width: 1.0;"/><polygon fill="none" points="225,94.04,232,74.04,239,94.04,225,94.04" style="stroke: #A80036; stroke-width: 1.0;"/><!--MD5=[f8ffcf4587ba956cb48626a4231e4d21]
reverse link Gnome::GObject::Signal to Gnome::GObject::Object--><path codeLine="20" d="M180.77,165 C185.85,165 190.92,165 196,165 " fill="none" id="Gnome::GObject::Signal-backto-Gnome::GObject::Object" style="stroke: #A80036; stroke-width: 1.0; stroke-dasharray: 7.0,7.0;"/><polygon fill="none" points="180.56,172,160.56,165,180.56,158,180.56,172" style="stroke: #A80036; stroke-width: 1.0;"/><!--MD5=[48774098c182a3ef46e06d60987aae03]
reverse link Gnome::Gio::Icon to Gnome::Gio::ThemedIcon--><path codeLine="22" d="M162.76,272 C167.81,272 172.86,272 177.91,272 " fill="none" id="Gnome::Gio::Icon-backto-Gnome::Gio::ThemedIcon" style="stroke: #A80036; stroke-width: 1.0; stroke-dasharray: 7.0,7.0;"/><polygon fill="none" points="162.66,279,142.66,272,162.66,265,162.66,279" style="stroke: #A80036; stroke-width: 1.0;"/><!--MD5=[ae822a22cc611725d1a6c2cd17bec352]
reverse link Gnome::GObject::Object to Gnome::Gio::ThemedIcon--><path codeLine="23" d="M232,201.1 C232,219.76 232,241.73 232,255.98 " fill="none" id="Gnome::GObject::Object-backto-Gnome::Gio::ThemedIcon" style="stroke: #A80036; stroke-width: 1.0;"/><polygon fill="none" points="225,201.04,232,181.04,239,201.04,225,201.04" style="stroke: #A80036; stroke-width: 1.0;"/><!--MD5=[c437b277d1b7f21568f6f8cb0e06b955]
@startuml

skinparam packageStyle rectangle
skinparam stereotypeCBackgroundColor #80ffff
set namespaceSeparator ::
hide empty members

'Classes and interfaces
class Gnome::N::TopLevelClassSupport < Catch all class >

Interface Gnome::GObject::Signal <Interface>
class Gnome::GObject::Signal <<(R,#80ffff)>>

Interface Gnome::Gio::Icon <Interface>
class Gnome::Gio::Icon <<(R,#80ffff)>>


'Class connections
Gnome::N::TopLevelClassSupport <|- - Gnome::GObject::Object
Gnome::GObject::Signal <|. Gnome::GObject::Object

Gnome::Gio::Icon <|. Gnome::Gio::ThemedIcon
Gnome::GObject::Object <|- - Gnome::Gio::ThemedIcon

@enduml

@startuml

skinparam packageStyle rectangle
skinparam stereotypeCBackgroundColor #80ffff
set namespaceSeparator ::
hide empty members

class Gnome::N::TopLevelClassSupport < Catch all class >

Interface Gnome::GObject::Signal <Interface>
class Gnome::GObject::Signal <<(R,#80ffff)>>

Interface Gnome::Gio::Icon <Interface>
class Gnome::Gio::Icon <<(R,#80ffff)>>


Gnome::N::TopLevelClassSupport <|- - Gnome::GObject::Object
Gnome::GObject::Signal <|. Gnome::GObject::Object

Gnome::Gio::Icon <|. Gnome::Gio::ThemedIcon
Gnome::GObject::Object <|- - Gnome::Gio::ThemedIcon

@enduml

PlantUML version 1.2020.19(Mon Oct 12 17:10:01 CEST 2020)
(GPL source distribution)
Java Runtime: OpenJDK Runtime Environment
JVM: OpenJDK 64-Bit Server VM
Default Encoding: UTF-8
Language: en
Country: US
--></g></svg>