<?xml version="1.0" encoding="UTF-8" standalone="no"?><svg xmlns="http://www.w3.org/2000/svg" xmlns:xlink="http://www.w3.org/1999/xlink" contentScriptType="application/ecmascript" contentStyleType="text/css" height="287px" preserveAspectRatio="none" style="width:493px;height:287px;" version="1.1" viewBox="0 0 493 287" width="493px" zoomAndPan="magnify"><defs><filter height="300%" id="f41znl76jecl4" width="300%" x="-1" y="-1"><feGaussianBlur result="blurOut" stdDeviation="2.0"/><feColorMatrix in="blurOut" result="blurOut2" type="matrix" values="0 0 0 0 0 0 0 0 0 0 0 0 0 0 0 0 0 0 .4 0"/><feOffset dx="4.0" dy="4.0" in="blurOut2" result="blurOut3"/><feBlend in="SourceGraphic" in2="blurOut3" mode="normal"/></filter></defs><g><!--MD5=[1121a717c59c319a293e5a9c98dee73e]
cluster Gnome::Gio--><rect fill="#FFFFFF" filter="url(#f41znl76jecl4)" height="83" style="stroke: #000000; stroke-width: 1.5;" width="134" x="164" y="7"/><text fill="#000000" font-family="sans-serif" font-size="14" font-weight="bold" lengthAdjust="spacingAndGlyphs" textLength="94" x="184" y="21.9951">Gnome::Gio</text><!--MD5=[7d67f77911969026863717fbb204e273]
cluster Gnome::Gtk3--><rect fill="#FFFFFF" filter="url(#f41znl76jecl4)" height="83" style="stroke: #000000; stroke-width: 1.5;" width="317" x="164" y="114"/><text fill="#000000" font-family="sans-serif" font-size="14" font-weight="bold" lengthAdjust="spacingAndGlyphs" textLength="105" x="270" y="128.9951">Gnome::Gtk3</text><!--MD5=[ec39509ece4fa2c1842761095753d9da]
class Gnome::Gio::Application--><rect fill="#FEFECE" filter="url(#f41znl76jecl4)" height="32" id="Gnome::Gio::Application" style="stroke: #A80036; stroke-width: 1.5;" width="101" x="180.5" y="42"/><ellipse cx="195.5" cy="58" fill="#80FFFF" rx="11" ry="11" style="stroke: #A80036; stroke-width: 1.0;"/><path d="M198.4688,63.6406 Q197.8906,63.9375 197.25,64.0781 Q196.6094,64.2344 195.9063,64.2344 Q193.4063,64.2344 192.0781,62.5938 Q190.7656,60.9375 190.7656,57.8125 Q190.7656,54.6875 192.0781,53.0313 Q193.4063,51.375 195.9063,51.375 Q196.6094,51.375 197.25,51.5313 Q197.9063,51.6875 198.4688,51.9844 L198.4688,54.7031 Q197.8438,54.125 197.25,53.8594 Q196.6563,53.5781 196.0313,53.5781 Q194.6875,53.5781 194,54.6563 Q193.3125,55.7188 193.3125,57.8125 Q193.3125,59.9063 194,60.9844 Q194.6875,62.0469 196.0313,62.0469 Q196.6563,62.0469 197.25,61.7813 Q197.8438,61.5 198.4688,60.9219 L198.4688,63.6406 Z "/><text fill="#000000" font-family="sans-serif" font-size="12" lengthAdjust="spacingAndGlyphs" textLength="69" x="209.5" y="62.1807">Application</text><!--MD5=[47e353770a770fd70e1caccb2fd90372]
class Gnome::Gtk3::Application--><rect fill="#FEFECE" filter="url(#f41znl76jecl4)" height="32" id="Gnome::Gtk3::Application" style="stroke: #A80036; stroke-width: 1.5;" width="101" x="180.5" y="149"/><ellipse cx="195.5" cy="165" fill="#80FFFF" rx="11" ry="11" style="stroke: #A80036; stroke-width: 1.0;"/><path d="M198.4688,170.6406 Q197.8906,170.9375 197.25,171.0781 Q196.6094,171.2344 195.9063,171.2344 Q193.4063,171.2344 192.0781,169.5938 Q190.7656,167.9375 190.7656,164.8125 Q190.7656,161.6875 192.0781,160.0313 Q193.4063,158.375 195.9063,158.375 Q196.6094,158.375 197.25,158.5313 Q197.9063,158.6875 198.4688,158.9844 L198.4688,161.7031 Q197.8438,161.125 197.25,160.8594 Q196.6563,160.5781 196.0313,160.5781 Q194.6875,160.5781 194,161.6563 Q193.3125,162.7188 193.3125,164.8125 Q193.3125,166.9063 194,167.9844 Q194.6875,169.0469 196.0313,169.0469 Q196.6563,169.0469 197.25,168.7813 Q197.8438,168.5 198.4688,167.9219 L198.4688,170.6406 Z "/><text fill="#000000" font-family="sans-serif" font-size="12" lengthAdjust="spacingAndGlyphs" textLength="69" x="209.5" y="169.1807">Application</text><!--MD5=[ffbcd49f6a19591f4a05ff7a8be949cc]
class Gnome::Gtk3::ApplicationWindow--><rect fill="#FEFECE" filter="url(#f41znl76jecl4)" height="32" id="Gnome::Gtk3::ApplicationWindow" style="stroke: #A80036; stroke-width: 1.5;" width="148" x="317" y="149"/><ellipse cx="332" cy="165" fill="#80FFFF" rx="11" ry="11" style="stroke: #A80036; stroke-width: 1.0;"/><path d="M334.9688,170.6406 Q334.3906,170.9375 333.75,171.0781 Q333.1094,171.2344 332.4063,171.2344 Q329.9063,171.2344 328.5781,169.5938 Q327.2656,167.9375 327.2656,164.8125 Q327.2656,161.6875 328.5781,160.0313 Q329.9063,158.375 332.4063,158.375 Q333.1094,158.375 333.75,158.5313 Q334.4063,158.6875 334.9688,158.9844 L334.9688,161.7031 Q334.3438,161.125 333.75,160.8594 Q333.1563,160.5781 332.5313,160.5781 Q331.1875,160.5781 330.5,161.6563 Q329.8125,162.7188 329.8125,164.8125 Q329.8125,166.9063 330.5,167.9844 Q331.1875,169.0469 332.5313,169.0469 Q333.1563,169.0469 333.75,168.7813 Q334.3438,168.5 334.9688,167.9219 L334.9688,170.6406 Z "/><text fill="#000000" font-family="sans-serif" font-size="12" lengthAdjust="spacingAndGlyphs" textLength="116" x="346" y="169.1807">ApplicationWindow</text><!--MD5=[fd1e8156f0a37d621002a6095d98340a]
class UserAppClass--><rect codeLine="15" fill="#FEFECE" filter="url(#f41znl76jecl4)" height="32" id="UserAppClass" style="stroke: #A80036; stroke-width: 1.5;" width="118" x="172" y="241"/><ellipse cx="187" cy="257" fill="#DDDDDD" rx="11" ry="11" style="stroke: #A80036; stroke-width: 1.0;"/><path d="M189.9688,262.6406 Q189.3906,262.9375 188.75,263.0781 Q188.1094,263.2344 187.4063,263.2344 Q184.9063,263.2344 183.5781,261.5938 Q182.2656,259.9375 182.2656,256.8125 Q182.2656,253.6875 183.5781,252.0313 Q184.9063,250.375 187.4063,250.375 Q188.1094,250.375 188.75,250.5313 Q189.4063,250.6875 189.9688,250.9844 L189.9688,253.7031 Q189.3438,253.125 188.75,252.8594 Q188.1563,252.5781 187.5313,252.5781 Q186.1875,252.5781 185.5,253.6563 Q184.8125,254.7188 184.8125,256.8125 Q184.8125,258.9063 185.5,259.9844 Q186.1875,261.0469 187.5313,261.0469 Q188.1563,261.0469 188.75,260.7813 Q189.3438,260.5 189.9688,259.9219 L189.9688,262.6406 Z "/><text fill="#000000" font-family="sans-serif" font-size="12" lengthAdjust="spacingAndGlyphs" textLength="86" x="201" y="261.1807">UserAppClass</text><!--MD5=[5b5f36549dd105574561fd01123f0799]
class UserApplication--><rect codeLine="16" fill="#FEFECE" filter="url(#f41znl76jecl4)" height="32" id="UserApplication" style="stroke: #A80036; stroke-width: 1.5;" width="130" x="7" y="241"/><ellipse cx="22" cy="257" fill="#DDDDDD" rx="11" ry="11" style="stroke: #A80036; stroke-width: 1.0;"/><path d="M17.7188,250.6094 L20.6406,250.6094 L22.1094,256.0469 L23.5781,250.6094 L26.5156,250.6094 L26.5156,263 L24.4063,263 L24.4063,253.0781 L23.0938,258.5 L21.1563,258.5 L19.8281,253.0781 L19.8281,263 L17.7188,263 L17.7188,250.6094 Z "/><text fill="#000000" font-family="sans-serif" font-size="12" lengthAdjust="spacingAndGlyphs" textLength="98" x="36" y="261.1807">UserApplication</text><!--MD5=[2b6bfb86db34ebc0643abefcc19cac1b]
reverse link Gnome::Gio::Application to Gnome::Gtk3::Application--><path codeLine="9" d="M231,94.1 C231,112.76 231,134.73 231,148.98 " fill="none" id="Gnome::Gio::Application-backto-Gnome::Gtk3::Application" style="stroke: #A80036; stroke-width: 1.0;"/><polygon fill="none" points="224,94.04,231,74.04,238,94.04,224,94.04" style="stroke: #A80036; stroke-width: 1.0;"/><!--MD5=[6712c365260eed37ed43a218d22807e7]
link Gnome::Gtk3::Application to Gnome::Gtk3::ApplicationWindow--><path codeLine="11" d="M281.62,165 C291.57,165 301.51,165 311.46,165 " fill="none" id="Gnome::Gtk3::Application-to-Gnome::Gtk3::ApplicationWindow" style="stroke: #A80036; stroke-width: 1.0;"/><polygon fill="#A80036" points="316.66,165,307.66,161,311.66,165,307.66,169,316.66,165" style="stroke: #A80036; stroke-width: 1.0;"/><!--MD5=[63b8450ffa246416395ff040599a2d45]
reverse link Gnome::Gtk3::Application to UserAppClass--><path codeLine="13" d="M231,201.61 C231,215.31 231,230.22 231,240.96 " fill="none" id="Gnome::Gtk3::Application-backto-UserAppClass" style="stroke: #A80036; stroke-width: 1.0;"/><polygon fill="none" points="224,201.27,231,181.27,238,201.27,224,201.27" style="stroke: #A80036; stroke-width: 1.0;"/><!--MD5=[70d4d7206940a3ec81a665cf191637b3]
link UserApplication to UserAppClass--><path codeLine="18" d="M137.21,257 C146.99,257 156.76,257 166.54,257 " fill="none" id="UserApplication-to-UserAppClass" style="stroke: #A80036; stroke-width: 1.0;"/><polygon fill="#A80036" points="171.65,257,162.65,253,166.65,257,162.65,261,171.65,257" style="stroke: #A80036; stroke-width: 1.0;"/><!--MD5=[825aedadba52022bc36c5be1d719b967]
@startuml
skinparam packageStyle rectangle
skinparam stereotypeCBackgroundColor #80ffff
set namespaceSeparator ::
hide empty members

'Connections
Gnome::Gio::Application <|- - Gnome::Gtk3::Application

Gnome::Gtk3::Application -> Gnome::Gtk3::ApplicationWindow

Gnome::Gtk3::Application <|- - UserAppClass

class UserAppClass <<(C,#dddddd)>>
class UserApplication <<(M,#dddddd)>>

UserApplication -> UserAppClass

@enduml

@startuml
skinparam packageStyle rectangle
skinparam stereotypeCBackgroundColor #80ffff
set namespaceSeparator ::
hide empty members

Gnome::Gio::Application <|- - Gnome::Gtk3::Application

Gnome::Gtk3::Application -> Gnome::Gtk3::ApplicationWindow

Gnome::Gtk3::Application <|- - UserAppClass

class UserAppClass <<(C,#dddddd)>>
class UserApplication <<(M,#dddddd)>>

UserApplication -> UserAppClass

@enduml

PlantUML version 1.2020.19(Mon Oct 12 17:10:01 CEST 2020)
(GPL source distribution)
Java Runtime: OpenJDK Runtime Environment
JVM: OpenJDK 64-Bit Server VM
Default Encoding: UTF-8
Language: en
Country: null
--></g></svg>