<?xml version="1.0" encoding="UTF-8" standalone="no"?><svg xmlns="http://www.w3.org/2000/svg" xmlns:xlink="http://www.w3.org/1999/xlink" contentScriptType="application/ecmascript" contentStyleType="text/css" height="287px" preserveAspectRatio="none" style="width:498px;height:287px;" version="1.1" viewBox="0 0 498 287" width="498px" zoomAndPan="magnify"><defs><filter height="300%" id="ftev4txfr0nmq" width="300%" x="-1" y="-1"><feGaussianBlur result="blurOut" stdDeviation="2.0"/><feColorMatrix in="blurOut" result="blurOut2" type="matrix" values="0 0 0 0 0 0 0 0 0 0 0 0 0 0 0 0 0 0 .4 0"/><feOffset dx="4.0" dy="4.0" in="blurOut2" result="blurOut3"/><feBlend in="SourceGraphic" in2="blurOut3" mode="normal"/></filter></defs><g><!--MD5=[1121a717c59c319a293e5a9c98dee73e]
cluster Gnome::Gio--><rect fill="#FFFFFF" filter="url(#ftev4txfr0nmq)" height="83" style="stroke: #000000; stroke-width: 1.5;" width="134" x="169" y="7"/><text fill="#000000" font-family="sans-serif" font-size="14" font-weight="bold" lengthAdjust="spacingAndGlyphs" textLength="94" x="189" y="21.9951">Gnome::Gio</text><!--MD5=[7d67f77911969026863717fbb204e273]
cluster Gnome::Gtk3--><rect fill="#FFFFFF" filter="url(#ftev4txfr0nmq)" height="83" style="stroke: #000000; stroke-width: 1.5;" width="317" x="169" y="114"/><text fill="#000000" font-family="sans-serif" font-size="14" font-weight="bold" lengthAdjust="spacingAndGlyphs" textLength="105" x="275" y="128.9951">Gnome::Gtk3</text><!--MD5=[ec39509ece4fa2c1842761095753d9da]
class Gnome::Gio::Application--><rect fill="#FEFECE" filter="url(#ftev4txfr0nmq)" height="32" id="Gnome::Gio::Application" style="stroke: #A80036; stroke-width: 1.5;" width="101" x="185.5" y="42"/><ellipse cx="200.5" cy="58" fill="#80FFFF" rx="11" ry="11" style="stroke: #A80036; stroke-width: 1.0;"/><path d="M203.4688,63.6406 Q202.8906,63.9375 202.25,64.0781 Q201.6094,64.2344 200.9063,64.2344 Q198.4063,64.2344 197.0781,62.5938 Q195.7656,60.9375 195.7656,57.8125 Q195.7656,54.6875 197.0781,53.0313 Q198.4063,51.375 200.9063,51.375 Q201.6094,51.375 202.25,51.5313 Q202.9063,51.6875 203.4688,51.9844 L203.4688,54.7031 Q202.8438,54.125 202.25,53.8594 Q201.6563,53.5781 201.0313,53.5781 Q199.6875,53.5781 199,54.6563 Q198.3125,55.7188 198.3125,57.8125 Q198.3125,59.9063 199,60.9844 Q199.6875,62.0469 201.0313,62.0469 Q201.6563,62.0469 202.25,61.7813 Q202.8438,61.5 203.4688,60.9219 L203.4688,63.6406 Z "/><text fill="#000000" font-family="sans-serif" font-size="12" lengthAdjust="spacingAndGlyphs" textLength="69" x="214.5" y="62.1807">Application</text><!--MD5=[47e353770a770fd70e1caccb2fd90372]
class Gnome::Gtk3::Application--><rect fill="#FEFECE" filter="url(#ftev4txfr0nmq)" height="32" id="Gnome::Gtk3::Application" style="stroke: #A80036; stroke-width: 1.5;" width="101" x="185.5" y="149"/><ellipse cx="200.5" cy="165" fill="#80FFFF" rx="11" ry="11" style="stroke: #A80036; stroke-width: 1.0;"/><path d="M203.4688,170.6406 Q202.8906,170.9375 202.25,171.0781 Q201.6094,171.2344 200.9063,171.2344 Q198.4063,171.2344 197.0781,169.5938 Q195.7656,167.9375 195.7656,164.8125 Q195.7656,161.6875 197.0781,160.0313 Q198.4063,158.375 200.9063,158.375 Q201.6094,158.375 202.25,158.5313 Q202.9063,158.6875 203.4688,158.9844 L203.4688,161.7031 Q202.8438,161.125 202.25,160.8594 Q201.6563,160.5781 201.0313,160.5781 Q199.6875,160.5781 199,161.6563 Q198.3125,162.7188 198.3125,164.8125 Q198.3125,166.9063 199,167.9844 Q199.6875,169.0469 201.0313,169.0469 Q201.6563,169.0469 202.25,168.7813 Q202.8438,168.5 203.4688,167.9219 L203.4688,170.6406 Z "/><text fill="#000000" font-family="sans-serif" font-size="12" lengthAdjust="spacingAndGlyphs" textLength="69" x="214.5" y="169.1807">Application</text><!--MD5=[ffbcd49f6a19591f4a05ff7a8be949cc]
class Gnome::Gtk3::ApplicationWindow--><rect fill="#FEFECE" filter="url(#ftev4txfr0nmq)" height="32" id="Gnome::Gtk3::ApplicationWindow" style="stroke: #A80036; stroke-width: 1.5;" width="148" x="322" y="149"/><ellipse cx="337" cy="165" fill="#80FFFF" rx="11" ry="11" style="stroke: #A80036; stroke-width: 1.0;"/><path d="M339.9688,170.6406 Q339.3906,170.9375 338.75,171.0781 Q338.1094,171.2344 337.4063,171.2344 Q334.9063,171.2344 333.5781,169.5938 Q332.2656,167.9375 332.2656,164.8125 Q332.2656,161.6875 333.5781,160.0313 Q334.9063,158.375 337.4063,158.375 Q338.1094,158.375 338.75,158.5313 Q339.4063,158.6875 339.9688,158.9844 L339.9688,161.7031 Q339.3438,161.125 338.75,160.8594 Q338.1563,160.5781 337.5313,160.5781 Q336.1875,160.5781 335.5,161.6563 Q334.8125,162.7188 334.8125,164.8125 Q334.8125,166.9063 335.5,167.9844 Q336.1875,169.0469 337.5313,169.0469 Q338.1563,169.0469 338.75,168.7813 Q339.3438,168.5 339.9688,167.9219 L339.9688,170.6406 Z "/><text fill="#000000" font-family="sans-serif" font-size="12" lengthAdjust="spacingAndGlyphs" textLength="116" x="351" y="169.1807">ApplicationWindow</text><!--MD5=[5b5f36549dd105574561fd01123f0799]
class UserApplication--><rect codeLine="9" fill="#FEFECE" filter="url(#ftev4txfr0nmq)" height="32" id="UserApplication" style="stroke: #A80036; stroke-width: 1.5;" width="130" x="7" y="241"/><ellipse cx="22" cy="257" fill="#DDDDDD" rx="11" ry="11" style="stroke: #A80036; stroke-width: 1.0;"/><path d="M17.7188,250.6094 L20.6406,250.6094 L22.1094,256.0469 L23.5781,250.6094 L26.5156,250.6094 L26.5156,263 L24.4063,263 L24.4063,253.0781 L23.0938,258.5 L21.1563,258.5 L19.8281,253.0781 L19.8281,263 L17.7188,263 L17.7188,250.6094 Z "/><text fill="#000000" font-family="sans-serif" font-size="12" lengthAdjust="spacingAndGlyphs" textLength="98" x="36" y="261.1807">UserApplication</text><!--MD5=[fd1e8156f0a37d621002a6095d98340a]
class UserAppClass--><rect codeLine="10" fill="#FEFECE" filter="url(#ftev4txfr0nmq)" height="32" id="UserAppClass" style="stroke: #A80036; stroke-width: 1.5;" width="118" x="172" y="241"/><ellipse cx="187" cy="257" fill="#DDDDDD" rx="11" ry="11" style="stroke: #A80036; stroke-width: 1.0;"/><path d="M189.9688,262.6406 Q189.3906,262.9375 188.75,263.0781 Q188.1094,263.2344 187.4063,263.2344 Q184.9063,263.2344 183.5781,261.5938 Q182.2656,259.9375 182.2656,256.8125 Q182.2656,253.6875 183.5781,252.0313 Q184.9063,250.375 187.4063,250.375 Q188.1094,250.375 188.75,250.5313 Q189.4063,250.6875 189.9688,250.9844 L189.9688,253.7031 Q189.3438,253.125 188.75,252.8594 Q188.1563,252.5781 187.5313,252.5781 Q186.1875,252.5781 185.5,253.6563 Q184.8125,254.7188 184.8125,256.8125 Q184.8125,258.9063 185.5,259.9844 Q186.1875,261.0469 187.5313,261.0469 Q188.1563,261.0469 188.75,260.7813 Q189.3438,260.5 189.9688,259.9219 L189.9688,262.6406 Z "/><text fill="#000000" font-family="sans-serif" font-size="12" lengthAdjust="spacingAndGlyphs" textLength="86" x="201" y="261.1807">UserAppClass</text><!--MD5=[b19c6e23f22dccad99c4e70497db3db4]
class UserWindowClass--><rect codeLine="11" fill="#FEFECE" filter="url(#ftev4txfr0nmq)" height="32" id="UserWindowClass" style="stroke: #A80036; stroke-width: 1.5;" width="141" x="325.5" y="241"/><ellipse cx="340.5" cy="257" fill="#DDDDDD" rx="11" ry="11" style="stroke: #A80036; stroke-width: 1.0;"/><path d="M343.4688,262.6406 Q342.8906,262.9375 342.25,263.0781 Q341.6094,263.2344 340.9063,263.2344 Q338.4063,263.2344 337.0781,261.5938 Q335.7656,259.9375 335.7656,256.8125 Q335.7656,253.6875 337.0781,252.0313 Q338.4063,250.375 340.9063,250.375 Q341.6094,250.375 342.25,250.5313 Q342.9063,250.6875 343.4688,250.9844 L343.4688,253.7031 Q342.8438,253.125 342.25,252.8594 Q341.6563,252.5781 341.0313,252.5781 Q339.6875,252.5781 339,253.6563 Q338.3125,254.7188 338.3125,256.8125 Q338.3125,258.9063 339,259.9844 Q339.6875,261.0469 341.0313,261.0469 Q341.6563,261.0469 342.25,260.7813 Q342.8438,260.5 343.4688,259.9219 L343.4688,262.6406 Z "/><text fill="#000000" font-family="sans-serif" font-size="12" lengthAdjust="spacingAndGlyphs" textLength="109" x="354.5" y="261.1807">UserWindowClass</text><!--MD5=[2b6bfb86db34ebc0643abefcc19cac1b]
reverse link Gnome::Gio::Application to Gnome::Gtk3::Application--><path codeLine="14" d="M236,94.1 C236,112.76 236,134.73 236,148.98 " fill="none" id="Gnome::Gio::Application-backto-Gnome::Gtk3::Application" style="stroke: #A80036; stroke-width: 1.0;"/><polygon fill="none" points="229,94.04,236,74.04,243,94.04,229,94.04" style="stroke: #A80036; stroke-width: 1.0;"/><!--MD5=[63b8450ffa246416395ff040599a2d45]
reverse link Gnome::Gtk3::Application to UserAppClass--><path codeLine="17" d="M234.02,201.61 C233.26,215.31 232.43,230.22 231.84,240.96 " fill="none" id="Gnome::Gtk3::Application-backto-UserAppClass" style="stroke: #A80036; stroke-width: 1.0;"/><polygon fill="none" points="227.05,200.85,235.15,181.27,241.03,201.62,227.05,200.85" style="stroke: #A80036; stroke-width: 1.0;"/><!--MD5=[e7da60f7e347328ae3ccdc2af4047498]
reverse link Gnome::Gtk3::ApplicationWindow to UserWindowClass--><path codeLine="18" d="M396,201.61 C396,215.31 396,230.22 396,240.96 " fill="none" id="Gnome::Gtk3::ApplicationWindow-backto-UserWindowClass" style="stroke: #A80036; stroke-width: 1.0;"/><polygon fill="none" points="389,201.27,396,181.27,403,201.27,389,201.27" style="stroke: #A80036; stroke-width: 1.0;"/><!--MD5=[74ab1e3a767165c1aaf37dd464aed309]
link Gnome::Gtk3::Application to UserWindowClass--><path codeLine="20" d="M262.53,181.02 C275.35,188.28 290.97,197.1 305,205 C324.62,216.04 346.64,228.39 364.11,238.16 " fill="none" id="Gnome::Gtk3::Application-to-UserWindowClass" style="stroke: #A80036; stroke-width: 1.0;"/><polygon fill="#A80036" points="368.91,240.85,363.0048,232.9678,364.5453,238.4109,359.1022,239.9514,368.91,240.85" style="stroke: #A80036; stroke-width: 1.0;"/><!--MD5=[70d4d7206940a3ec81a665cf191637b3]
link UserApplication to UserAppClass--><path codeLine="22" d="M137.21,257 C146.99,257 156.76,257 166.54,257 " fill="none" id="UserApplication-to-UserAppClass" style="stroke: #A80036; stroke-width: 1.0;"/><polygon fill="#A80036" points="171.65,257,162.65,253,166.65,257,162.65,261,171.65,257" style="stroke: #A80036; stroke-width: 1.0;"/><!--MD5=[e9506466183ef3d715c970e1f66f3006]
@startuml
skinparam packageStyle rectangle
skinparam stereotypeCBackgroundColor #80ffff
set namespaceSeparator ::
hide empty members


class UserApplication <<(M,#dddddd)>>
class UserAppClass <<(C,#dddddd)>>
class UserWindowClass <<(C,#dddddd)>>

'Connections
Gnome::Gio::Application <|- - Gnome::Gtk3::Application


Gnome::Gtk3::Application <|- - UserAppClass
Gnome::Gtk3::ApplicationWindow <|- - UserWindowClass

Gnome::Gtk3::Application -> UserWindowClass

UserApplication -> UserAppClass

@enduml

@startuml
skinparam packageStyle rectangle
skinparam stereotypeCBackgroundColor #80ffff
set namespaceSeparator ::
hide empty members


class UserApplication <<(M,#dddddd)>>
class UserAppClass <<(C,#dddddd)>>
class UserWindowClass <<(C,#dddddd)>>

Gnome::Gio::Application <|- - Gnome::Gtk3::Application


Gnome::Gtk3::Application <|- - UserAppClass
Gnome::Gtk3::ApplicationWindow <|- - UserWindowClass

Gnome::Gtk3::Application -> UserWindowClass

UserApplication -> UserAppClass

@enduml

PlantUML version 1.2020.19(Mon Oct 12 17:10:01 CEST 2020)
(GPL source distribution)
Java Runtime: OpenJDK Runtime Environment
JVM: OpenJDK 64-Bit Server VM
Default Encoding: UTF-8
Language: en
Country: null
--></g></svg>